M48
; DRILL file {KiCad (5.1.4)-1} date 12.11.2019 22:00:30
; FORMAT={-:-/ absolute / metric / decimal}
; #@! TF.CreationDate,2019-11-12T22:00:30+01:00
; #@! TF.GenerationSoftware,Kicad,Pcbnew,(5.1.4)-1
; #@! TF.FileFunction,Plated,1,2,PTH
FMAT,2
METRIC
T1C0.300
T2C0.400
T3C0.500
T4C3.200
%
G90
G05
T1
X72.294Y-173.544
X72.768Y-172.15
X74.0Y-173.5
X74.5Y-172.0
X75.75Y-173.35
X76.25Y-172.0
X76.75Y-90.0
X77.25Y-88.5
X78.5Y-90.0
X79.0Y-88.5
X80.25Y-90.0
X80.75Y-88.5
X108.0Y-175.25
X109.5Y-175.25
X109.65Y-181.5
X110.0Y-83.5
X110.35Y-167.75
X110.5Y-177.0
X110.75Y-84.25
X111.0Y-168.55
X111.5Y-83.5
X111.5Y-177.0
X112.35Y-67.0
X112.5Y-181.5
X113.15Y-83.5
X114.0Y-58.25
X114.064Y-84.683
X114.15Y-93.75
X114.5Y-95.5
X116.0Y-98.0
X122.0Y-165.25
X123.0Y-95.0
X124.5Y-61.0
X124.5Y-95.0
X124.556Y-63.93
X125.0Y-85.5
X125.5Y-68.75
X126.0Y-85.0
X126.0Y-97.5
X127.0Y-84.0
X129.0Y-84.25
X130.2Y-86.1
X131.5Y-87.0
X131.5Y-167.75
X132.5Y-167.0
X154.294Y-173.544
X154.768Y-172.15
X156.0Y-173.5
X156.5Y-172.0
X157.75Y-173.5
X158.25Y-172.0
X158.75Y-90.0
X159.25Y-88.4
X160.5Y-90.0
X161.0Y-88.5
X162.25Y-90.0
X162.75Y-88.4
X114.25Y-166.3
X114.25Y-167.6
X114.25Y-168.9
X114.25Y-170.2
X114.25Y-171.5
X114.25Y-172.8
X114.25Y-174.1
X114.25Y-175.4
X114.25Y-176.7
X115.75Y-166.3
X115.75Y-167.6
X115.75Y-168.9
X115.75Y-170.2
X115.75Y-171.5
X115.75Y-172.8
X115.75Y-174.1
X115.75Y-175.4
X115.75Y-176.7
X117.25Y-166.3
X117.25Y-167.6
X117.25Y-168.9
X117.25Y-170.2
X117.25Y-171.5
X117.25Y-172.8
X117.25Y-174.1
X117.25Y-175.4
X117.25Y-176.7
X118.75Y-166.3
X118.75Y-167.6
X118.75Y-168.9
X118.75Y-170.2
X118.75Y-171.5
X118.75Y-172.8
X118.75Y-174.1
X118.75Y-175.4
X118.75Y-176.7
X117.25Y-83.3
X117.25Y-84.6
X117.25Y-85.9
X117.25Y-87.2
X117.25Y-88.5
X117.25Y-89.8
X117.25Y-91.1
X117.25Y-92.4
X117.25Y-93.7
X118.75Y-83.3
X118.75Y-84.6
X118.75Y-85.9
X118.75Y-87.2
X118.75Y-88.5
X118.75Y-89.8
X118.75Y-91.1
X118.75Y-92.4
X118.75Y-93.7
X120.25Y-83.3
X120.25Y-84.6
X120.25Y-85.9
X120.25Y-87.2
X120.25Y-88.5
X120.25Y-89.8
X120.25Y-91.1
X120.25Y-92.4
X120.25Y-93.7
X121.75Y-83.3
X121.75Y-84.6
X121.75Y-85.9
X121.75Y-87.2
X121.75Y-88.5
X121.75Y-89.8
X121.75Y-91.1
X121.75Y-92.4
X121.75Y-93.7
T2
X65.0Y-230.0
X67.5Y-40.0
X67.5Y-50.0
X67.5Y-60.0
X67.5Y-70.0
X67.5Y-80.0
X67.5Y-90.0
X67.5Y-100.0
X67.5Y-110.0
X67.5Y-120.0
X67.5Y-130.0
X67.5Y-140.0
X67.5Y-150.0
X67.5Y-160.0
X70.0Y-235.0
X75.0Y-230.0
X77.5Y-30.0
X80.0Y-235.0
X82.5Y-35.0
X82.5Y-180.0
X82.5Y-200.0
X85.0Y-230.0
X87.5Y-30.0
X87.5Y-70.0
X87.5Y-80.0
X87.5Y-95.0
X87.5Y-105.0
X87.5Y-115.0
X87.5Y-125.0
X87.5Y-142.5
X87.5Y-152.5
X87.5Y-162.5
X87.5Y-175.0
X87.5Y-195.0
X90.0Y-235.0
X92.5Y-35.0
X92.5Y-55.0
X92.5Y-65.0
X92.5Y-75.0
X92.5Y-85.0
X92.5Y-100.0
X92.5Y-110.0
X92.5Y-120.0
X92.5Y-137.5
X92.5Y-147.5
X92.5Y-157.5
X92.5Y-167.5
X92.5Y-180.0
X92.5Y-200.0
X92.5Y-210.0
X95.0Y-230.0
X97.5Y-30.0
X97.5Y-70.0
X97.5Y-80.0
X97.5Y-95.0
X97.5Y-105.0
X97.5Y-115.0
X97.5Y-125.0
X97.5Y-142.5
X97.5Y-152.5
X97.5Y-162.5
X97.5Y-175.0
X97.5Y-185.0
X97.5Y-195.0
X97.5Y-205.0
X100.0Y-235.0
X102.5Y-35.0
X102.5Y-55.0
X102.5Y-75.0
X102.5Y-85.0
X102.5Y-100.0
X102.5Y-110.0
X102.5Y-120.0
X102.5Y-137.5
X102.5Y-147.5
X102.5Y-157.5
X102.5Y-167.5
X102.5Y-180.0
X102.5Y-190.0
X102.5Y-200.0
X102.5Y-210.0
X105.0Y-230.0
X107.5Y-30.0
X107.5Y-70.0
X107.5Y-80.0
X107.5Y-95.0
X107.5Y-105.0
X107.5Y-115.0
X107.5Y-125.0
X107.5Y-142.5
X107.5Y-152.5
X107.5Y-162.5
X110.0Y-235.0
X112.5Y-35.0
X115.0Y-230.0
X117.5Y-30.0
X117.5Y-70.0
X117.5Y-75.0
X117.5Y-142.5
X117.5Y-152.5
X117.5Y-162.5
X117.5Y-180.0
X117.5Y-190.0
X117.5Y-200.0
X118.0Y-55.5
X120.0Y-235.0
X122.5Y-35.0
X122.5Y-137.5
X122.5Y-147.5
X122.5Y-157.5
X122.5Y-185.0
X122.5Y-195.0
X122.5Y-205.0
X125.0Y-230.0
X127.5Y-30.0
X127.5Y-105.0
X127.5Y-115.0
X127.5Y-125.0
X127.5Y-142.5
X127.5Y-152.5
X127.5Y-162.5
X127.5Y-180.0
X127.5Y-190.0
X127.5Y-200.0
X127.5Y-210.0
X130.0Y-235.0
X132.5Y-35.0
X132.5Y-55.0
X132.5Y-70.0
X132.5Y-80.0
X132.5Y-185.0
X132.5Y-195.0
X132.5Y-205.0
X135.0Y-230.0
X137.5Y-30.0
X137.5Y-75.0
X137.5Y-85.0
X137.5Y-95.0
X137.5Y-105.0
X137.5Y-115.0
X137.5Y-125.0
X137.5Y-142.5
X137.5Y-152.5
X137.5Y-162.5
X137.5Y-180.0
X137.5Y-190.0
X137.5Y-200.0
X137.5Y-210.0
X140.0Y-235.0
X142.5Y-35.0
X142.5Y-55.0
X142.5Y-70.0
X142.5Y-80.0
X142.5Y-100.0
X142.5Y-110.0
X142.5Y-120.0
X142.5Y-137.5
X142.5Y-147.5
X142.5Y-157.5
X142.5Y-167.5
X142.5Y-185.0
X145.0Y-230.0
X147.5Y-30.0
X147.5Y-75.0
X147.5Y-85.0
X147.5Y-95.0
X147.5Y-105.0
X147.5Y-115.0
X147.5Y-125.0
X147.5Y-142.5
X147.5Y-152.5
X147.5Y-162.5
X147.5Y-180.0
X150.0Y-235.0
X152.5Y-35.0
X152.5Y-55.0
X152.5Y-70.0
X152.5Y-80.0
X152.5Y-100.0
X152.5Y-110.0
X152.5Y-120.0
X155.0Y-230.0
X157.5Y-30.0
X160.0Y-235.0
X167.5Y-30.0
X167.5Y-40.0
X167.5Y-50.0
X167.5Y-60.0
X167.5Y-70.0
X167.5Y-80.0
X167.5Y-90.0
X167.5Y-100.0
X167.5Y-110.0
X167.5Y-120.0
X167.5Y-130.0
X167.5Y-140.0
X167.5Y-150.0
X167.5Y-160.0
X167.5Y-170.0
X167.5Y-180.0
X167.5Y-190.0
X167.5Y-200.0
X167.5Y-210.0
X167.5Y-220.0
T3
X68.0Y-189.5
X68.0Y-191.0
X68.0Y-192.5
X71.0Y-211.0
X71.0Y-213.0
X71.0Y-215.0
X72.5Y-78.5
X73.0Y-211.0
X73.0Y-213.0
X73.0Y-215.0
X75.0Y-211.0
X75.0Y-213.0
X75.0Y-215.0
X81.5Y-164.0
X87.0Y-53.0
X152.5Y-211.0
X152.5Y-213.0
X152.5Y-215.0
X154.5Y-211.0
X154.5Y-213.0
X154.5Y-215.0
X156.5Y-211.0
X156.5Y-213.0
X156.5Y-215.0
X160.1Y-228.5
X160.803Y-226.803
X160.803Y-230.197
X162.5Y-226.1
X162.5Y-230.9
X164.197Y-226.803
X164.197Y-230.197
X164.9Y-228.5
X160.1Y-33.5
X160.803Y-31.803
X160.803Y-35.197
X162.5Y-31.1
X162.5Y-35.9
X164.197Y-31.803
X164.197Y-35.197
X164.9Y-33.5
X67.1Y-228.5
X67.803Y-226.803
X67.803Y-230.197
X69.5Y-226.1
X69.5Y-230.9
X71.197Y-226.803
X71.197Y-230.197
X71.9Y-228.5
X67.1Y-33.5
X67.803Y-31.803
X67.803Y-35.197
X69.5Y-31.1
X69.5Y-35.9
X71.197Y-31.803
X71.197Y-35.197
X71.9Y-33.5
T4
X162.5Y-228.5
X162.5Y-33.5
X69.5Y-228.5
X69.5Y-33.5
T0
M30
