G04 #@! TF.GenerationSoftware,KiCad,Pcbnew,(5.1.4)-1*
G04 #@! TF.CreationDate,2019-11-12T22:00:31+01:00*
G04 #@! TF.ProjectId,Digit,44696769-742e-46b6-9963-61645f706362,rev?*
G04 #@! TF.SameCoordinates,Original*
G04 #@! TF.FileFunction,Soldermask,Top*
G04 #@! TF.FilePolarity,Negative*
%FSLAX46Y46*%
G04 Gerber Fmt 4.6, Leading zero omitted, Abs format (unit mm)*
G04 Created by KiCad (PCBNEW (5.1.4)-1) date 2019-11-12 22:00:31*
%MOMM*%
%LPD*%
G04 APERTURE LIST*
%ADD10C,0.100000*%
G04 APERTURE END LIST*
D10*
G36*
X163448282Y-225373934D02*
G01*
X164039926Y-225619001D01*
X164572392Y-225974784D01*
X165025216Y-226427608D01*
X165380999Y-226960074D01*
X165626066Y-227551718D01*
X165751000Y-228179804D01*
X165751000Y-228820196D01*
X165626066Y-229448282D01*
X165380999Y-230039926D01*
X165025216Y-230572392D01*
X164572392Y-231025216D01*
X164039926Y-231380999D01*
X163448282Y-231626066D01*
X162820196Y-231751000D01*
X162179804Y-231751000D01*
X161551718Y-231626066D01*
X160960074Y-231380999D01*
X160427608Y-231025216D01*
X159974784Y-230572392D01*
X159619001Y-230039926D01*
X159373934Y-229448282D01*
X159249000Y-228820196D01*
X159249000Y-228179804D01*
X159373934Y-227551718D01*
X159619001Y-226960074D01*
X159974784Y-226427608D01*
X160427608Y-225974784D01*
X160960074Y-225619001D01*
X161551718Y-225373934D01*
X162179804Y-225249000D01*
X162820196Y-225249000D01*
X163448282Y-225373934D01*
X163448282Y-225373934D01*
G37*
G36*
X70448282Y-225373934D02*
G01*
X71039926Y-225619001D01*
X71572392Y-225974784D01*
X72025216Y-226427608D01*
X72380999Y-226960074D01*
X72626066Y-227551718D01*
X72751000Y-228179804D01*
X72751000Y-228820196D01*
X72626066Y-229448282D01*
X72380999Y-230039926D01*
X72025216Y-230572392D01*
X71572392Y-231025216D01*
X71039926Y-231380999D01*
X70448282Y-231626066D01*
X69820196Y-231751000D01*
X69179804Y-231751000D01*
X68551718Y-231626066D01*
X67960074Y-231380999D01*
X67427608Y-231025216D01*
X66974784Y-230572392D01*
X66619001Y-230039926D01*
X66373934Y-229448282D01*
X66249000Y-228820196D01*
X66249000Y-228179804D01*
X66373934Y-227551718D01*
X66619001Y-226960074D01*
X66974784Y-226427608D01*
X67427608Y-225974784D01*
X67960074Y-225619001D01*
X68551718Y-225373934D01*
X69179804Y-225249000D01*
X69820196Y-225249000D01*
X70448282Y-225373934D01*
X70448282Y-225373934D01*
G37*
G36*
X149951000Y-216801000D02*
G01*
X147849000Y-216801000D01*
X147849000Y-215599000D01*
X149951000Y-215599000D01*
X149951000Y-216801000D01*
X149951000Y-216801000D01*
G37*
G36*
X145151000Y-216801000D02*
G01*
X143049000Y-216801000D01*
X143049000Y-215599000D01*
X145151000Y-215599000D01*
X145151000Y-216801000D01*
X145151000Y-216801000D01*
G37*
G36*
X78651000Y-216801000D02*
G01*
X76549000Y-216801000D01*
X76549000Y-215599000D01*
X78651000Y-215599000D01*
X78651000Y-216801000D01*
X78651000Y-216801000D01*
G37*
G36*
X83451000Y-216801000D02*
G01*
X81349000Y-216801000D01*
X81349000Y-215599000D01*
X83451000Y-215599000D01*
X83451000Y-216801000D01*
X83451000Y-216801000D01*
G37*
G36*
X92951000Y-216801000D02*
G01*
X90849000Y-216801000D01*
X90849000Y-215599000D01*
X92951000Y-215599000D01*
X92951000Y-216801000D01*
X92951000Y-216801000D01*
G37*
G36*
X88151000Y-216801000D02*
G01*
X86049000Y-216801000D01*
X86049000Y-215599000D01*
X88151000Y-215599000D01*
X88151000Y-216801000D01*
X88151000Y-216801000D01*
G37*
G36*
X97651000Y-216801000D02*
G01*
X95549000Y-216801000D01*
X95549000Y-215599000D01*
X97651000Y-215599000D01*
X97651000Y-216801000D01*
X97651000Y-216801000D01*
G37*
G36*
X102451000Y-216801000D02*
G01*
X100349000Y-216801000D01*
X100349000Y-215599000D01*
X102451000Y-215599000D01*
X102451000Y-216801000D01*
X102451000Y-216801000D01*
G37*
G36*
X107151000Y-216801000D02*
G01*
X105049000Y-216801000D01*
X105049000Y-215599000D01*
X107151000Y-215599000D01*
X107151000Y-216801000D01*
X107151000Y-216801000D01*
G37*
G36*
X111951000Y-216801000D02*
G01*
X109849000Y-216801000D01*
X109849000Y-215599000D01*
X111951000Y-215599000D01*
X111951000Y-216801000D01*
X111951000Y-216801000D01*
G37*
G36*
X116651000Y-216801000D02*
G01*
X114549000Y-216801000D01*
X114549000Y-215599000D01*
X116651000Y-215599000D01*
X116651000Y-216801000D01*
X116651000Y-216801000D01*
G37*
G36*
X121451000Y-216801000D02*
G01*
X119349000Y-216801000D01*
X119349000Y-215599000D01*
X121451000Y-215599000D01*
X121451000Y-216801000D01*
X121451000Y-216801000D01*
G37*
G36*
X126151000Y-216801000D02*
G01*
X124049000Y-216801000D01*
X124049000Y-215599000D01*
X126151000Y-215599000D01*
X126151000Y-216801000D01*
X126151000Y-216801000D01*
G37*
G36*
X130951000Y-216801000D02*
G01*
X128849000Y-216801000D01*
X128849000Y-215599000D01*
X130951000Y-215599000D01*
X130951000Y-216801000D01*
X130951000Y-216801000D01*
G37*
G36*
X135651000Y-216801000D02*
G01*
X133549000Y-216801000D01*
X133549000Y-215599000D01*
X135651000Y-215599000D01*
X135651000Y-216801000D01*
X135651000Y-216801000D01*
G37*
G36*
X140451000Y-216801000D02*
G01*
X138349000Y-216801000D01*
X138349000Y-215599000D01*
X140451000Y-215599000D01*
X140451000Y-216801000D01*
X140451000Y-216801000D01*
G37*
G36*
X135651000Y-215101000D02*
G01*
X133549000Y-215101000D01*
X133549000Y-213899000D01*
X135651000Y-213899000D01*
X135651000Y-215101000D01*
X135651000Y-215101000D01*
G37*
G36*
X102451000Y-215101000D02*
G01*
X100349000Y-215101000D01*
X100349000Y-213899000D01*
X102451000Y-213899000D01*
X102451000Y-215101000D01*
X102451000Y-215101000D01*
G37*
G36*
X107151000Y-215101000D02*
G01*
X105049000Y-215101000D01*
X105049000Y-213899000D01*
X107151000Y-213899000D01*
X107151000Y-215101000D01*
X107151000Y-215101000D01*
G37*
G36*
X111951000Y-215101000D02*
G01*
X109849000Y-215101000D01*
X109849000Y-213899000D01*
X111951000Y-213899000D01*
X111951000Y-215101000D01*
X111951000Y-215101000D01*
G37*
G36*
X97651000Y-215101000D02*
G01*
X95549000Y-215101000D01*
X95549000Y-213899000D01*
X97651000Y-213899000D01*
X97651000Y-215101000D01*
X97651000Y-215101000D01*
G37*
G36*
X88151000Y-215101000D02*
G01*
X86049000Y-215101000D01*
X86049000Y-213899000D01*
X88151000Y-213899000D01*
X88151000Y-215101000D01*
X88151000Y-215101000D01*
G37*
G36*
X116651000Y-215101000D02*
G01*
X114549000Y-215101000D01*
X114549000Y-213899000D01*
X116651000Y-213899000D01*
X116651000Y-215101000D01*
X116651000Y-215101000D01*
G37*
G36*
X121451000Y-215101000D02*
G01*
X119349000Y-215101000D01*
X119349000Y-213899000D01*
X121451000Y-213899000D01*
X121451000Y-215101000D01*
X121451000Y-215101000D01*
G37*
G36*
X126151000Y-215101000D02*
G01*
X124049000Y-215101000D01*
X124049000Y-213899000D01*
X126151000Y-213899000D01*
X126151000Y-215101000D01*
X126151000Y-215101000D01*
G37*
G36*
X149951000Y-215101000D02*
G01*
X147849000Y-215101000D01*
X147849000Y-213899000D01*
X149951000Y-213899000D01*
X149951000Y-215101000D01*
X149951000Y-215101000D01*
G37*
G36*
X140451000Y-215101000D02*
G01*
X138349000Y-215101000D01*
X138349000Y-213899000D01*
X140451000Y-213899000D01*
X140451000Y-215101000D01*
X140451000Y-215101000D01*
G37*
G36*
X145151000Y-215101000D02*
G01*
X143049000Y-215101000D01*
X143049000Y-213899000D01*
X145151000Y-213899000D01*
X145151000Y-215101000D01*
X145151000Y-215101000D01*
G37*
G36*
X92951000Y-215101000D02*
G01*
X90849000Y-215101000D01*
X90849000Y-213899000D01*
X92951000Y-213899000D01*
X92951000Y-215101000D01*
X92951000Y-215101000D01*
G37*
G36*
X78651000Y-215101000D02*
G01*
X76549000Y-215101000D01*
X76549000Y-213899000D01*
X78651000Y-213899000D01*
X78651000Y-215101000D01*
X78651000Y-215101000D01*
G37*
G36*
X83451000Y-215101000D02*
G01*
X81349000Y-215101000D01*
X81349000Y-213899000D01*
X83451000Y-213899000D01*
X83451000Y-215101000D01*
X83451000Y-215101000D01*
G37*
G36*
X130951000Y-215101000D02*
G01*
X128849000Y-215101000D01*
X128849000Y-213899000D01*
X130951000Y-213899000D01*
X130951000Y-215101000D01*
X130951000Y-215101000D01*
G37*
G36*
X97651000Y-213401000D02*
G01*
X95549000Y-213401000D01*
X95549000Y-212199000D01*
X97651000Y-212199000D01*
X97651000Y-213401000D01*
X97651000Y-213401000D01*
G37*
G36*
X78651000Y-213401000D02*
G01*
X76549000Y-213401000D01*
X76549000Y-212199000D01*
X78651000Y-212199000D01*
X78651000Y-213401000D01*
X78651000Y-213401000D01*
G37*
G36*
X111951000Y-213401000D02*
G01*
X109849000Y-213401000D01*
X109849000Y-212199000D01*
X111951000Y-212199000D01*
X111951000Y-213401000D01*
X111951000Y-213401000D01*
G37*
G36*
X116651000Y-213401000D02*
G01*
X114549000Y-213401000D01*
X114549000Y-212199000D01*
X116651000Y-212199000D01*
X116651000Y-213401000D01*
X116651000Y-213401000D01*
G37*
G36*
X102451000Y-213401000D02*
G01*
X100349000Y-213401000D01*
X100349000Y-212199000D01*
X102451000Y-212199000D01*
X102451000Y-213401000D01*
X102451000Y-213401000D01*
G37*
G36*
X121451000Y-213401000D02*
G01*
X119349000Y-213401000D01*
X119349000Y-212199000D01*
X121451000Y-212199000D01*
X121451000Y-213401000D01*
X121451000Y-213401000D01*
G37*
G36*
X126151000Y-213401000D02*
G01*
X124049000Y-213401000D01*
X124049000Y-212199000D01*
X126151000Y-212199000D01*
X126151000Y-213401000D01*
X126151000Y-213401000D01*
G37*
G36*
X130951000Y-213401000D02*
G01*
X128849000Y-213401000D01*
X128849000Y-212199000D01*
X130951000Y-212199000D01*
X130951000Y-213401000D01*
X130951000Y-213401000D01*
G37*
G36*
X107151000Y-213401000D02*
G01*
X105049000Y-213401000D01*
X105049000Y-212199000D01*
X107151000Y-212199000D01*
X107151000Y-213401000D01*
X107151000Y-213401000D01*
G37*
G36*
X135651000Y-213401000D02*
G01*
X133549000Y-213401000D01*
X133549000Y-212199000D01*
X135651000Y-212199000D01*
X135651000Y-213401000D01*
X135651000Y-213401000D01*
G37*
G36*
X83451000Y-213401000D02*
G01*
X81349000Y-213401000D01*
X81349000Y-212199000D01*
X83451000Y-212199000D01*
X83451000Y-213401000D01*
X83451000Y-213401000D01*
G37*
G36*
X149951000Y-213401000D02*
G01*
X147849000Y-213401000D01*
X147849000Y-212199000D01*
X149951000Y-212199000D01*
X149951000Y-213401000D01*
X149951000Y-213401000D01*
G37*
G36*
X145151000Y-213401000D02*
G01*
X143049000Y-213401000D01*
X143049000Y-212199000D01*
X145151000Y-212199000D01*
X145151000Y-213401000D01*
X145151000Y-213401000D01*
G37*
G36*
X92951000Y-213401000D02*
G01*
X90849000Y-213401000D01*
X90849000Y-212199000D01*
X92951000Y-212199000D01*
X92951000Y-213401000D01*
X92951000Y-213401000D01*
G37*
G36*
X88151000Y-213401000D02*
G01*
X86049000Y-213401000D01*
X86049000Y-212199000D01*
X88151000Y-212199000D01*
X88151000Y-213401000D01*
X88151000Y-213401000D01*
G37*
G36*
X140451000Y-213401000D02*
G01*
X138349000Y-213401000D01*
X138349000Y-212199000D01*
X140451000Y-212199000D01*
X140451000Y-213401000D01*
X140451000Y-213401000D01*
G37*
G36*
X156801000Y-209451000D02*
G01*
X155599000Y-209451000D01*
X155599000Y-207349000D01*
X156801000Y-207349000D01*
X156801000Y-209451000D01*
X156801000Y-209451000D01*
G37*
G36*
X74801000Y-209451000D02*
G01*
X73599000Y-209451000D01*
X73599000Y-207349000D01*
X74801000Y-207349000D01*
X74801000Y-209451000D01*
X74801000Y-209451000D01*
G37*
G36*
X73101000Y-209451000D02*
G01*
X71899000Y-209451000D01*
X71899000Y-207349000D01*
X73101000Y-207349000D01*
X73101000Y-209451000D01*
X73101000Y-209451000D01*
G37*
G36*
X71401000Y-209451000D02*
G01*
X70199000Y-209451000D01*
X70199000Y-207349000D01*
X71401000Y-207349000D01*
X71401000Y-209451000D01*
X71401000Y-209451000D01*
G37*
G36*
X155101000Y-209451000D02*
G01*
X153899000Y-209451000D01*
X153899000Y-207349000D01*
X155101000Y-207349000D01*
X155101000Y-209451000D01*
X155101000Y-209451000D01*
G37*
G36*
X153401000Y-209451000D02*
G01*
X152199000Y-209451000D01*
X152199000Y-207349000D01*
X153401000Y-207349000D01*
X153401000Y-209451000D01*
X153401000Y-209451000D01*
G37*
G36*
X153401000Y-204651000D02*
G01*
X152199000Y-204651000D01*
X152199000Y-202549000D01*
X153401000Y-202549000D01*
X153401000Y-204651000D01*
X153401000Y-204651000D01*
G37*
G36*
X74801000Y-204651000D02*
G01*
X73599000Y-204651000D01*
X73599000Y-202549000D01*
X74801000Y-202549000D01*
X74801000Y-204651000D01*
X74801000Y-204651000D01*
G37*
G36*
X73101000Y-204651000D02*
G01*
X71899000Y-204651000D01*
X71899000Y-202549000D01*
X73101000Y-202549000D01*
X73101000Y-204651000D01*
X73101000Y-204651000D01*
G37*
G36*
X71401000Y-204651000D02*
G01*
X70199000Y-204651000D01*
X70199000Y-202549000D01*
X71401000Y-202549000D01*
X71401000Y-204651000D01*
X71401000Y-204651000D01*
G37*
G36*
X156801000Y-204651000D02*
G01*
X155599000Y-204651000D01*
X155599000Y-202549000D01*
X156801000Y-202549000D01*
X156801000Y-204651000D01*
X156801000Y-204651000D01*
G37*
G36*
X155101000Y-204651000D02*
G01*
X153899000Y-204651000D01*
X153899000Y-202549000D01*
X155101000Y-202549000D01*
X155101000Y-204651000D01*
X155101000Y-204651000D01*
G37*
G36*
X73601000Y-199951000D02*
G01*
X72399000Y-199951000D01*
X72399000Y-197849000D01*
X73601000Y-197849000D01*
X73601000Y-199951000D01*
X73601000Y-199951000D01*
G37*
G36*
X157301000Y-199951000D02*
G01*
X156099000Y-199951000D01*
X156099000Y-197849000D01*
X157301000Y-197849000D01*
X157301000Y-199951000D01*
X157301000Y-199951000D01*
G37*
G36*
X155601000Y-199951000D02*
G01*
X154399000Y-199951000D01*
X154399000Y-197849000D01*
X155601000Y-197849000D01*
X155601000Y-199951000D01*
X155601000Y-199951000D01*
G37*
G36*
X75301000Y-199951000D02*
G01*
X74099000Y-199951000D01*
X74099000Y-197849000D01*
X75301000Y-197849000D01*
X75301000Y-199951000D01*
X75301000Y-199951000D01*
G37*
G36*
X71901000Y-199951000D02*
G01*
X70699000Y-199951000D01*
X70699000Y-197849000D01*
X71901000Y-197849000D01*
X71901000Y-199951000D01*
X71901000Y-199951000D01*
G37*
G36*
X153901000Y-199951000D02*
G01*
X152699000Y-199951000D01*
X152699000Y-197849000D01*
X153901000Y-197849000D01*
X153901000Y-199951000D01*
X153901000Y-199951000D01*
G37*
G36*
X155601000Y-195151000D02*
G01*
X154399000Y-195151000D01*
X154399000Y-193049000D01*
X155601000Y-193049000D01*
X155601000Y-195151000D01*
X155601000Y-195151000D01*
G37*
G36*
X71901000Y-195151000D02*
G01*
X70699000Y-195151000D01*
X70699000Y-193049000D01*
X71901000Y-193049000D01*
X71901000Y-195151000D01*
X71901000Y-195151000D01*
G37*
G36*
X73601000Y-195151000D02*
G01*
X72399000Y-195151000D01*
X72399000Y-193049000D01*
X73601000Y-193049000D01*
X73601000Y-195151000D01*
X73601000Y-195151000D01*
G37*
G36*
X75301000Y-195151000D02*
G01*
X74099000Y-195151000D01*
X74099000Y-193049000D01*
X75301000Y-193049000D01*
X75301000Y-195151000D01*
X75301000Y-195151000D01*
G37*
G36*
X157301000Y-195151000D02*
G01*
X156099000Y-195151000D01*
X156099000Y-193049000D01*
X157301000Y-193049000D01*
X157301000Y-195151000D01*
X157301000Y-195151000D01*
G37*
G36*
X153901000Y-195151000D02*
G01*
X152699000Y-195151000D01*
X152699000Y-193049000D01*
X153901000Y-193049000D01*
X153901000Y-195151000D01*
X153901000Y-195151000D01*
G37*
G36*
X156101000Y-190451000D02*
G01*
X154899000Y-190451000D01*
X154899000Y-188349000D01*
X156101000Y-188349000D01*
X156101000Y-190451000D01*
X156101000Y-190451000D01*
G37*
G36*
X72401000Y-190451000D02*
G01*
X71199000Y-190451000D01*
X71199000Y-188349000D01*
X72401000Y-188349000D01*
X72401000Y-190451000D01*
X72401000Y-190451000D01*
G37*
G36*
X157801000Y-190451000D02*
G01*
X156599000Y-190451000D01*
X156599000Y-188349000D01*
X157801000Y-188349000D01*
X157801000Y-190451000D01*
X157801000Y-190451000D01*
G37*
G36*
X154401000Y-190451000D02*
G01*
X153199000Y-190451000D01*
X153199000Y-188349000D01*
X154401000Y-188349000D01*
X154401000Y-190451000D01*
X154401000Y-190451000D01*
G37*
G36*
X74101000Y-190451000D02*
G01*
X72899000Y-190451000D01*
X72899000Y-188349000D01*
X74101000Y-188349000D01*
X74101000Y-190451000D01*
X74101000Y-190451000D01*
G37*
G36*
X75801000Y-190451000D02*
G01*
X74599000Y-190451000D01*
X74599000Y-188349000D01*
X75801000Y-188349000D01*
X75801000Y-190451000D01*
X75801000Y-190451000D01*
G37*
G36*
X72401000Y-185651000D02*
G01*
X71199000Y-185651000D01*
X71199000Y-183549000D01*
X72401000Y-183549000D01*
X72401000Y-185651000D01*
X72401000Y-185651000D01*
G37*
G36*
X74101000Y-185651000D02*
G01*
X72899000Y-185651000D01*
X72899000Y-183549000D01*
X74101000Y-183549000D01*
X74101000Y-185651000D01*
X74101000Y-185651000D01*
G37*
G36*
X75801000Y-185651000D02*
G01*
X74599000Y-185651000D01*
X74599000Y-183549000D01*
X75801000Y-183549000D01*
X75801000Y-185651000D01*
X75801000Y-185651000D01*
G37*
G36*
X154401000Y-185651000D02*
G01*
X153199000Y-185651000D01*
X153199000Y-183549000D01*
X154401000Y-183549000D01*
X154401000Y-185651000D01*
X154401000Y-185651000D01*
G37*
G36*
X156101000Y-185651000D02*
G01*
X154899000Y-185651000D01*
X154899000Y-183549000D01*
X156101000Y-183549000D01*
X156101000Y-185651000D01*
X156101000Y-185651000D01*
G37*
G36*
X157801000Y-185651000D02*
G01*
X156599000Y-185651000D01*
X156599000Y-183549000D01*
X157801000Y-183549000D01*
X157801000Y-185651000D01*
X157801000Y-185651000D01*
G37*
G36*
X154901000Y-180951000D02*
G01*
X153699000Y-180951000D01*
X153699000Y-178849000D01*
X154901000Y-178849000D01*
X154901000Y-180951000D01*
X154901000Y-180951000D01*
G37*
G36*
X158301000Y-180951000D02*
G01*
X157099000Y-180951000D01*
X157099000Y-178849000D01*
X158301000Y-178849000D01*
X158301000Y-180951000D01*
X158301000Y-180951000D01*
G37*
G36*
X156601000Y-180951000D02*
G01*
X155399000Y-180951000D01*
X155399000Y-178849000D01*
X156601000Y-178849000D01*
X156601000Y-180951000D01*
X156601000Y-180951000D01*
G37*
G36*
X74601000Y-180951000D02*
G01*
X73399000Y-180951000D01*
X73399000Y-178849000D01*
X74601000Y-178849000D01*
X74601000Y-180951000D01*
X74601000Y-180951000D01*
G37*
G36*
X76301000Y-180951000D02*
G01*
X75099000Y-180951000D01*
X75099000Y-178849000D01*
X76301000Y-178849000D01*
X76301000Y-180951000D01*
X76301000Y-180951000D01*
G37*
G36*
X72901000Y-180951000D02*
G01*
X71699000Y-180951000D01*
X71699000Y-178849000D01*
X72901000Y-178849000D01*
X72901000Y-180951000D01*
X72901000Y-180951000D01*
G37*
G36*
X72901000Y-176151000D02*
G01*
X71699000Y-176151000D01*
X71699000Y-174049000D01*
X72901000Y-174049000D01*
X72901000Y-176151000D01*
X72901000Y-176151000D01*
G37*
G36*
X158301000Y-176151000D02*
G01*
X157099000Y-176151000D01*
X157099000Y-174049000D01*
X158301000Y-174049000D01*
X158301000Y-176151000D01*
X158301000Y-176151000D01*
G37*
G36*
X74601000Y-176151000D02*
G01*
X73399000Y-176151000D01*
X73399000Y-174049000D01*
X74601000Y-174049000D01*
X74601000Y-176151000D01*
X74601000Y-176151000D01*
G37*
G36*
X76301000Y-176151000D02*
G01*
X75099000Y-176151000D01*
X75099000Y-174049000D01*
X76301000Y-174049000D01*
X76301000Y-176151000D01*
X76301000Y-176151000D01*
G37*
G36*
X154901000Y-176151000D02*
G01*
X153699000Y-176151000D01*
X153699000Y-174049000D01*
X154901000Y-174049000D01*
X154901000Y-176151000D01*
X154901000Y-176151000D01*
G37*
G36*
X156601000Y-176151000D02*
G01*
X155399000Y-176151000D01*
X155399000Y-174049000D01*
X156601000Y-174049000D01*
X156601000Y-176151000D01*
X156601000Y-176151000D01*
G37*
G36*
X76801000Y-171451000D02*
G01*
X75599000Y-171451000D01*
X75599000Y-169349000D01*
X76801000Y-169349000D01*
X76801000Y-171451000D01*
X76801000Y-171451000D01*
G37*
G36*
X158801000Y-171451000D02*
G01*
X157599000Y-171451000D01*
X157599000Y-169349000D01*
X158801000Y-169349000D01*
X158801000Y-171451000D01*
X158801000Y-171451000D01*
G37*
G36*
X157101000Y-171451000D02*
G01*
X155899000Y-171451000D01*
X155899000Y-169349000D01*
X157101000Y-169349000D01*
X157101000Y-171451000D01*
X157101000Y-171451000D01*
G37*
G36*
X75101000Y-171451000D02*
G01*
X73899000Y-171451000D01*
X73899000Y-169349000D01*
X75101000Y-169349000D01*
X75101000Y-171451000D01*
X75101000Y-171451000D01*
G37*
G36*
X73401000Y-171451000D02*
G01*
X72199000Y-171451000D01*
X72199000Y-169349000D01*
X73401000Y-169349000D01*
X73401000Y-171451000D01*
X73401000Y-171451000D01*
G37*
G36*
X155401000Y-171451000D02*
G01*
X154199000Y-171451000D01*
X154199000Y-169349000D01*
X155401000Y-169349000D01*
X155401000Y-171451000D01*
X155401000Y-171451000D01*
G37*
G36*
X75101000Y-166651000D02*
G01*
X73899000Y-166651000D01*
X73899000Y-164549000D01*
X75101000Y-164549000D01*
X75101000Y-166651000D01*
X75101000Y-166651000D01*
G37*
G36*
X158801000Y-166651000D02*
G01*
X157599000Y-166651000D01*
X157599000Y-164549000D01*
X158801000Y-164549000D01*
X158801000Y-166651000D01*
X158801000Y-166651000D01*
G37*
G36*
X76801000Y-166651000D02*
G01*
X75599000Y-166651000D01*
X75599000Y-164549000D01*
X76801000Y-164549000D01*
X76801000Y-166651000D01*
X76801000Y-166651000D01*
G37*
G36*
X73401000Y-166651000D02*
G01*
X72199000Y-166651000D01*
X72199000Y-164549000D01*
X73401000Y-164549000D01*
X73401000Y-166651000D01*
X73401000Y-166651000D01*
G37*
G36*
X157101000Y-166651000D02*
G01*
X155899000Y-166651000D01*
X155899000Y-164549000D01*
X157101000Y-164549000D01*
X157101000Y-166651000D01*
X157101000Y-166651000D01*
G37*
G36*
X155401000Y-166651000D02*
G01*
X154199000Y-166651000D01*
X154199000Y-164549000D01*
X155401000Y-164549000D01*
X155401000Y-166651000D01*
X155401000Y-166651000D01*
G37*
G36*
X77301000Y-161951000D02*
G01*
X76099000Y-161951000D01*
X76099000Y-159849000D01*
X77301000Y-159849000D01*
X77301000Y-161951000D01*
X77301000Y-161951000D01*
G37*
G36*
X155901000Y-161951000D02*
G01*
X154699000Y-161951000D01*
X154699000Y-159849000D01*
X155901000Y-159849000D01*
X155901000Y-161951000D01*
X155901000Y-161951000D01*
G37*
G36*
X157601000Y-161951000D02*
G01*
X156399000Y-161951000D01*
X156399000Y-159849000D01*
X157601000Y-159849000D01*
X157601000Y-161951000D01*
X157601000Y-161951000D01*
G37*
G36*
X73901000Y-161951000D02*
G01*
X72699000Y-161951000D01*
X72699000Y-159849000D01*
X73901000Y-159849000D01*
X73901000Y-161951000D01*
X73901000Y-161951000D01*
G37*
G36*
X75601000Y-161951000D02*
G01*
X74399000Y-161951000D01*
X74399000Y-159849000D01*
X75601000Y-159849000D01*
X75601000Y-161951000D01*
X75601000Y-161951000D01*
G37*
G36*
X159301000Y-161951000D02*
G01*
X158099000Y-161951000D01*
X158099000Y-159849000D01*
X159301000Y-159849000D01*
X159301000Y-161951000D01*
X159301000Y-161951000D01*
G37*
G36*
X73901000Y-157151000D02*
G01*
X72699000Y-157151000D01*
X72699000Y-155049000D01*
X73901000Y-155049000D01*
X73901000Y-157151000D01*
X73901000Y-157151000D01*
G37*
G36*
X157601000Y-157151000D02*
G01*
X156399000Y-157151000D01*
X156399000Y-155049000D01*
X157601000Y-155049000D01*
X157601000Y-157151000D01*
X157601000Y-157151000D01*
G37*
G36*
X159301000Y-157151000D02*
G01*
X158099000Y-157151000D01*
X158099000Y-155049000D01*
X159301000Y-155049000D01*
X159301000Y-157151000D01*
X159301000Y-157151000D01*
G37*
G36*
X155901000Y-157151000D02*
G01*
X154699000Y-157151000D01*
X154699000Y-155049000D01*
X155901000Y-155049000D01*
X155901000Y-157151000D01*
X155901000Y-157151000D01*
G37*
G36*
X77301000Y-157151000D02*
G01*
X76099000Y-157151000D01*
X76099000Y-155049000D01*
X77301000Y-155049000D01*
X77301000Y-157151000D01*
X77301000Y-157151000D01*
G37*
G36*
X75601000Y-157151000D02*
G01*
X74399000Y-157151000D01*
X74399000Y-155049000D01*
X75601000Y-155049000D01*
X75601000Y-157151000D01*
X75601000Y-157151000D01*
G37*
G36*
X159801000Y-152451000D02*
G01*
X158599000Y-152451000D01*
X158599000Y-150349000D01*
X159801000Y-150349000D01*
X159801000Y-152451000D01*
X159801000Y-152451000D01*
G37*
G36*
X77801000Y-152451000D02*
G01*
X76599000Y-152451000D01*
X76599000Y-150349000D01*
X77801000Y-150349000D01*
X77801000Y-152451000D01*
X77801000Y-152451000D01*
G37*
G36*
X76101000Y-152451000D02*
G01*
X74899000Y-152451000D01*
X74899000Y-150349000D01*
X76101000Y-150349000D01*
X76101000Y-152451000D01*
X76101000Y-152451000D01*
G37*
G36*
X74401000Y-152451000D02*
G01*
X73199000Y-152451000D01*
X73199000Y-150349000D01*
X74401000Y-150349000D01*
X74401000Y-152451000D01*
X74401000Y-152451000D01*
G37*
G36*
X156401000Y-152451000D02*
G01*
X155199000Y-152451000D01*
X155199000Y-150349000D01*
X156401000Y-150349000D01*
X156401000Y-152451000D01*
X156401000Y-152451000D01*
G37*
G36*
X158101000Y-152451000D02*
G01*
X156899000Y-152451000D01*
X156899000Y-150349000D01*
X158101000Y-150349000D01*
X158101000Y-152451000D01*
X158101000Y-152451000D01*
G37*
G36*
X77801000Y-147651000D02*
G01*
X76599000Y-147651000D01*
X76599000Y-145549000D01*
X77801000Y-145549000D01*
X77801000Y-147651000D01*
X77801000Y-147651000D01*
G37*
G36*
X159801000Y-147651000D02*
G01*
X158599000Y-147651000D01*
X158599000Y-145549000D01*
X159801000Y-145549000D01*
X159801000Y-147651000D01*
X159801000Y-147651000D01*
G37*
G36*
X74401000Y-147651000D02*
G01*
X73199000Y-147651000D01*
X73199000Y-145549000D01*
X74401000Y-145549000D01*
X74401000Y-147651000D01*
X74401000Y-147651000D01*
G37*
G36*
X158101000Y-147651000D02*
G01*
X156899000Y-147651000D01*
X156899000Y-145549000D01*
X158101000Y-145549000D01*
X158101000Y-147651000D01*
X158101000Y-147651000D01*
G37*
G36*
X76101000Y-147651000D02*
G01*
X74899000Y-147651000D01*
X74899000Y-145549000D01*
X76101000Y-145549000D01*
X76101000Y-147651000D01*
X76101000Y-147651000D01*
G37*
G36*
X156401000Y-147651000D02*
G01*
X155199000Y-147651000D01*
X155199000Y-145549000D01*
X156401000Y-145549000D01*
X156401000Y-147651000D01*
X156401000Y-147651000D01*
G37*
G36*
X156901000Y-142951000D02*
G01*
X155699000Y-142951000D01*
X155699000Y-140849000D01*
X156901000Y-140849000D01*
X156901000Y-142951000D01*
X156901000Y-142951000D01*
G37*
G36*
X158601000Y-142951000D02*
G01*
X157399000Y-142951000D01*
X157399000Y-140849000D01*
X158601000Y-140849000D01*
X158601000Y-142951000D01*
X158601000Y-142951000D01*
G37*
G36*
X160301000Y-142951000D02*
G01*
X159099000Y-142951000D01*
X159099000Y-140849000D01*
X160301000Y-140849000D01*
X160301000Y-142951000D01*
X160301000Y-142951000D01*
G37*
G36*
X74901000Y-142951000D02*
G01*
X73699000Y-142951000D01*
X73699000Y-140849000D01*
X74901000Y-140849000D01*
X74901000Y-142951000D01*
X74901000Y-142951000D01*
G37*
G36*
X76601000Y-142951000D02*
G01*
X75399000Y-142951000D01*
X75399000Y-140849000D01*
X76601000Y-140849000D01*
X76601000Y-142951000D01*
X76601000Y-142951000D01*
G37*
G36*
X78301000Y-142951000D02*
G01*
X77099000Y-142951000D01*
X77099000Y-140849000D01*
X78301000Y-140849000D01*
X78301000Y-142951000D01*
X78301000Y-142951000D01*
G37*
G36*
X160301000Y-138151000D02*
G01*
X159099000Y-138151000D01*
X159099000Y-136049000D01*
X160301000Y-136049000D01*
X160301000Y-138151000D01*
X160301000Y-138151000D01*
G37*
G36*
X158601000Y-138151000D02*
G01*
X157399000Y-138151000D01*
X157399000Y-136049000D01*
X158601000Y-136049000D01*
X158601000Y-138151000D01*
X158601000Y-138151000D01*
G37*
G36*
X156901000Y-138151000D02*
G01*
X155699000Y-138151000D01*
X155699000Y-136049000D01*
X156901000Y-136049000D01*
X156901000Y-138151000D01*
X156901000Y-138151000D01*
G37*
G36*
X78301000Y-138151000D02*
G01*
X77099000Y-138151000D01*
X77099000Y-136049000D01*
X78301000Y-136049000D01*
X78301000Y-138151000D01*
X78301000Y-138151000D01*
G37*
G36*
X76601000Y-138151000D02*
G01*
X75399000Y-138151000D01*
X75399000Y-136049000D01*
X76601000Y-136049000D01*
X76601000Y-138151000D01*
X76601000Y-138151000D01*
G37*
G36*
X74901000Y-138151000D02*
G01*
X73699000Y-138151000D01*
X73699000Y-136049000D01*
X74901000Y-136049000D01*
X74901000Y-138151000D01*
X74901000Y-138151000D01*
G37*
G36*
X83151000Y-133301000D02*
G01*
X81049000Y-133301000D01*
X81049000Y-132099000D01*
X83151000Y-132099000D01*
X83151000Y-133301000D01*
X83151000Y-133301000D01*
G37*
G36*
X144951000Y-133301000D02*
G01*
X142849000Y-133301000D01*
X142849000Y-132099000D01*
X144951000Y-132099000D01*
X144951000Y-133301000D01*
X144951000Y-133301000D01*
G37*
G36*
X97451000Y-133301000D02*
G01*
X95349000Y-133301000D01*
X95349000Y-132099000D01*
X97451000Y-132099000D01*
X97451000Y-133301000D01*
X97451000Y-133301000D01*
G37*
G36*
X102151000Y-133301000D02*
G01*
X100049000Y-133301000D01*
X100049000Y-132099000D01*
X102151000Y-132099000D01*
X102151000Y-133301000D01*
X102151000Y-133301000D01*
G37*
G36*
X106951000Y-133301000D02*
G01*
X104849000Y-133301000D01*
X104849000Y-132099000D01*
X106951000Y-132099000D01*
X106951000Y-133301000D01*
X106951000Y-133301000D01*
G37*
G36*
X111651000Y-133301000D02*
G01*
X109549000Y-133301000D01*
X109549000Y-132099000D01*
X111651000Y-132099000D01*
X111651000Y-133301000D01*
X111651000Y-133301000D01*
G37*
G36*
X116451000Y-133301000D02*
G01*
X114349000Y-133301000D01*
X114349000Y-132099000D01*
X116451000Y-132099000D01*
X116451000Y-133301000D01*
X116451000Y-133301000D01*
G37*
G36*
X121151000Y-133301000D02*
G01*
X119049000Y-133301000D01*
X119049000Y-132099000D01*
X121151000Y-132099000D01*
X121151000Y-133301000D01*
X121151000Y-133301000D01*
G37*
G36*
X125951000Y-133301000D02*
G01*
X123849000Y-133301000D01*
X123849000Y-132099000D01*
X125951000Y-132099000D01*
X125951000Y-133301000D01*
X125951000Y-133301000D01*
G37*
G36*
X130651000Y-133301000D02*
G01*
X128549000Y-133301000D01*
X128549000Y-132099000D01*
X130651000Y-132099000D01*
X130651000Y-133301000D01*
X130651000Y-133301000D01*
G37*
G36*
X135451000Y-133301000D02*
G01*
X133349000Y-133301000D01*
X133349000Y-132099000D01*
X135451000Y-132099000D01*
X135451000Y-133301000D01*
X135451000Y-133301000D01*
G37*
G36*
X140151000Y-133301000D02*
G01*
X138049000Y-133301000D01*
X138049000Y-132099000D01*
X140151000Y-132099000D01*
X140151000Y-133301000D01*
X140151000Y-133301000D01*
G37*
G36*
X154451000Y-133301000D02*
G01*
X152349000Y-133301000D01*
X152349000Y-132099000D01*
X154451000Y-132099000D01*
X154451000Y-133301000D01*
X154451000Y-133301000D01*
G37*
G36*
X149651000Y-133301000D02*
G01*
X147549000Y-133301000D01*
X147549000Y-132099000D01*
X149651000Y-132099000D01*
X149651000Y-133301000D01*
X149651000Y-133301000D01*
G37*
G36*
X87951000Y-133301000D02*
G01*
X85849000Y-133301000D01*
X85849000Y-132099000D01*
X87951000Y-132099000D01*
X87951000Y-133301000D01*
X87951000Y-133301000D01*
G37*
G36*
X92651000Y-133301000D02*
G01*
X90549000Y-133301000D01*
X90549000Y-132099000D01*
X92651000Y-132099000D01*
X92651000Y-133301000D01*
X92651000Y-133301000D01*
G37*
G36*
X135451000Y-131601000D02*
G01*
X133349000Y-131601000D01*
X133349000Y-130399000D01*
X135451000Y-130399000D01*
X135451000Y-131601000D01*
X135451000Y-131601000D01*
G37*
G36*
X149651000Y-131601000D02*
G01*
X147549000Y-131601000D01*
X147549000Y-130399000D01*
X149651000Y-130399000D01*
X149651000Y-131601000D01*
X149651000Y-131601000D01*
G37*
G36*
X140151000Y-131601000D02*
G01*
X138049000Y-131601000D01*
X138049000Y-130399000D01*
X140151000Y-130399000D01*
X140151000Y-131601000D01*
X140151000Y-131601000D01*
G37*
G36*
X154451000Y-131601000D02*
G01*
X152349000Y-131601000D01*
X152349000Y-130399000D01*
X154451000Y-130399000D01*
X154451000Y-131601000D01*
X154451000Y-131601000D01*
G37*
G36*
X83151000Y-131601000D02*
G01*
X81049000Y-131601000D01*
X81049000Y-130399000D01*
X83151000Y-130399000D01*
X83151000Y-131601000D01*
X83151000Y-131601000D01*
G37*
G36*
X87951000Y-131601000D02*
G01*
X85849000Y-131601000D01*
X85849000Y-130399000D01*
X87951000Y-130399000D01*
X87951000Y-131601000D01*
X87951000Y-131601000D01*
G37*
G36*
X92651000Y-131601000D02*
G01*
X90549000Y-131601000D01*
X90549000Y-130399000D01*
X92651000Y-130399000D01*
X92651000Y-131601000D01*
X92651000Y-131601000D01*
G37*
G36*
X97451000Y-131601000D02*
G01*
X95349000Y-131601000D01*
X95349000Y-130399000D01*
X97451000Y-130399000D01*
X97451000Y-131601000D01*
X97451000Y-131601000D01*
G37*
G36*
X106951000Y-131601000D02*
G01*
X104849000Y-131601000D01*
X104849000Y-130399000D01*
X106951000Y-130399000D01*
X106951000Y-131601000D01*
X106951000Y-131601000D01*
G37*
G36*
X144951000Y-131601000D02*
G01*
X142849000Y-131601000D01*
X142849000Y-130399000D01*
X144951000Y-130399000D01*
X144951000Y-131601000D01*
X144951000Y-131601000D01*
G37*
G36*
X111651000Y-131601000D02*
G01*
X109549000Y-131601000D01*
X109549000Y-130399000D01*
X111651000Y-130399000D01*
X111651000Y-131601000D01*
X111651000Y-131601000D01*
G37*
G36*
X116451000Y-131601000D02*
G01*
X114349000Y-131601000D01*
X114349000Y-130399000D01*
X116451000Y-130399000D01*
X116451000Y-131601000D01*
X116451000Y-131601000D01*
G37*
G36*
X121151000Y-131601000D02*
G01*
X119049000Y-131601000D01*
X119049000Y-130399000D01*
X121151000Y-130399000D01*
X121151000Y-131601000D01*
X121151000Y-131601000D01*
G37*
G36*
X125951000Y-131601000D02*
G01*
X123849000Y-131601000D01*
X123849000Y-130399000D01*
X125951000Y-130399000D01*
X125951000Y-131601000D01*
X125951000Y-131601000D01*
G37*
G36*
X130651000Y-131601000D02*
G01*
X128549000Y-131601000D01*
X128549000Y-130399000D01*
X130651000Y-130399000D01*
X130651000Y-131601000D01*
X130651000Y-131601000D01*
G37*
G36*
X102151000Y-131601000D02*
G01*
X100049000Y-131601000D01*
X100049000Y-130399000D01*
X102151000Y-130399000D01*
X102151000Y-131601000D01*
X102151000Y-131601000D01*
G37*
G36*
X130651000Y-129901000D02*
G01*
X128549000Y-129901000D01*
X128549000Y-128699000D01*
X130651000Y-128699000D01*
X130651000Y-129901000D01*
X130651000Y-129901000D01*
G37*
G36*
X125951000Y-129901000D02*
G01*
X123849000Y-129901000D01*
X123849000Y-128699000D01*
X125951000Y-128699000D01*
X125951000Y-129901000D01*
X125951000Y-129901000D01*
G37*
G36*
X135451000Y-129901000D02*
G01*
X133349000Y-129901000D01*
X133349000Y-128699000D01*
X135451000Y-128699000D01*
X135451000Y-129901000D01*
X135451000Y-129901000D01*
G37*
G36*
X140151000Y-129901000D02*
G01*
X138049000Y-129901000D01*
X138049000Y-128699000D01*
X140151000Y-128699000D01*
X140151000Y-129901000D01*
X140151000Y-129901000D01*
G37*
G36*
X144951000Y-129901000D02*
G01*
X142849000Y-129901000D01*
X142849000Y-128699000D01*
X144951000Y-128699000D01*
X144951000Y-129901000D01*
X144951000Y-129901000D01*
G37*
G36*
X149651000Y-129901000D02*
G01*
X147549000Y-129901000D01*
X147549000Y-128699000D01*
X149651000Y-128699000D01*
X149651000Y-129901000D01*
X149651000Y-129901000D01*
G37*
G36*
X111651000Y-129901000D02*
G01*
X109549000Y-129901000D01*
X109549000Y-128699000D01*
X111651000Y-128699000D01*
X111651000Y-129901000D01*
X111651000Y-129901000D01*
G37*
G36*
X116451000Y-129901000D02*
G01*
X114349000Y-129901000D01*
X114349000Y-128699000D01*
X116451000Y-128699000D01*
X116451000Y-129901000D01*
X116451000Y-129901000D01*
G37*
G36*
X106951000Y-129901000D02*
G01*
X104849000Y-129901000D01*
X104849000Y-128699000D01*
X106951000Y-128699000D01*
X106951000Y-129901000D01*
X106951000Y-129901000D01*
G37*
G36*
X102151000Y-129901000D02*
G01*
X100049000Y-129901000D01*
X100049000Y-128699000D01*
X102151000Y-128699000D01*
X102151000Y-129901000D01*
X102151000Y-129901000D01*
G37*
G36*
X83151000Y-129901000D02*
G01*
X81049000Y-129901000D01*
X81049000Y-128699000D01*
X83151000Y-128699000D01*
X83151000Y-129901000D01*
X83151000Y-129901000D01*
G37*
G36*
X97451000Y-129901000D02*
G01*
X95349000Y-129901000D01*
X95349000Y-128699000D01*
X97451000Y-128699000D01*
X97451000Y-129901000D01*
X97451000Y-129901000D01*
G37*
G36*
X87951000Y-129901000D02*
G01*
X85849000Y-129901000D01*
X85849000Y-128699000D01*
X87951000Y-128699000D01*
X87951000Y-129901000D01*
X87951000Y-129901000D01*
G37*
G36*
X92651000Y-129901000D02*
G01*
X90549000Y-129901000D01*
X90549000Y-128699000D01*
X92651000Y-128699000D01*
X92651000Y-129901000D01*
X92651000Y-129901000D01*
G37*
G36*
X154451000Y-129901000D02*
G01*
X152349000Y-129901000D01*
X152349000Y-128699000D01*
X154451000Y-128699000D01*
X154451000Y-129901000D01*
X154451000Y-129901000D01*
G37*
G36*
X121151000Y-129901000D02*
G01*
X119049000Y-129901000D01*
X119049000Y-128699000D01*
X121151000Y-128699000D01*
X121151000Y-129901000D01*
X121151000Y-129901000D01*
G37*
G36*
X77601000Y-125951000D02*
G01*
X76399000Y-125951000D01*
X76399000Y-123849000D01*
X77601000Y-123849000D01*
X77601000Y-125951000D01*
X77601000Y-125951000D01*
G37*
G36*
X79301000Y-125951000D02*
G01*
X78099000Y-125951000D01*
X78099000Y-123849000D01*
X79301000Y-123849000D01*
X79301000Y-125951000D01*
X79301000Y-125951000D01*
G37*
G36*
X75901000Y-125951000D02*
G01*
X74699000Y-125951000D01*
X74699000Y-123849000D01*
X75901000Y-123849000D01*
X75901000Y-125951000D01*
X75901000Y-125951000D01*
G37*
G36*
X161301000Y-125951000D02*
G01*
X160099000Y-125951000D01*
X160099000Y-123849000D01*
X161301000Y-123849000D01*
X161301000Y-125951000D01*
X161301000Y-125951000D01*
G37*
G36*
X159601000Y-125951000D02*
G01*
X158399000Y-125951000D01*
X158399000Y-123849000D01*
X159601000Y-123849000D01*
X159601000Y-125951000D01*
X159601000Y-125951000D01*
G37*
G36*
X157901000Y-125951000D02*
G01*
X156699000Y-125951000D01*
X156699000Y-123849000D01*
X157901000Y-123849000D01*
X157901000Y-125951000D01*
X157901000Y-125951000D01*
G37*
G36*
X161301000Y-121151000D02*
G01*
X160099000Y-121151000D01*
X160099000Y-119049000D01*
X161301000Y-119049000D01*
X161301000Y-121151000D01*
X161301000Y-121151000D01*
G37*
G36*
X79301000Y-121151000D02*
G01*
X78099000Y-121151000D01*
X78099000Y-119049000D01*
X79301000Y-119049000D01*
X79301000Y-121151000D01*
X79301000Y-121151000D01*
G37*
G36*
X77601000Y-121151000D02*
G01*
X76399000Y-121151000D01*
X76399000Y-119049000D01*
X77601000Y-119049000D01*
X77601000Y-121151000D01*
X77601000Y-121151000D01*
G37*
G36*
X75901000Y-121151000D02*
G01*
X74699000Y-121151000D01*
X74699000Y-119049000D01*
X75901000Y-119049000D01*
X75901000Y-121151000D01*
X75901000Y-121151000D01*
G37*
G36*
X157901000Y-121151000D02*
G01*
X156699000Y-121151000D01*
X156699000Y-119049000D01*
X157901000Y-119049000D01*
X157901000Y-121151000D01*
X157901000Y-121151000D01*
G37*
G36*
X159601000Y-121151000D02*
G01*
X158399000Y-121151000D01*
X158399000Y-119049000D01*
X159601000Y-119049000D01*
X159601000Y-121151000D01*
X159601000Y-121151000D01*
G37*
G36*
X76401000Y-116451000D02*
G01*
X75199000Y-116451000D01*
X75199000Y-114349000D01*
X76401000Y-114349000D01*
X76401000Y-116451000D01*
X76401000Y-116451000D01*
G37*
G36*
X78101000Y-116451000D02*
G01*
X76899000Y-116451000D01*
X76899000Y-114349000D01*
X78101000Y-114349000D01*
X78101000Y-116451000D01*
X78101000Y-116451000D01*
G37*
G36*
X79801000Y-116451000D02*
G01*
X78599000Y-116451000D01*
X78599000Y-114349000D01*
X79801000Y-114349000D01*
X79801000Y-116451000D01*
X79801000Y-116451000D01*
G37*
G36*
X158401000Y-116451000D02*
G01*
X157199000Y-116451000D01*
X157199000Y-114349000D01*
X158401000Y-114349000D01*
X158401000Y-116451000D01*
X158401000Y-116451000D01*
G37*
G36*
X161801000Y-116451000D02*
G01*
X160599000Y-116451000D01*
X160599000Y-114349000D01*
X161801000Y-114349000D01*
X161801000Y-116451000D01*
X161801000Y-116451000D01*
G37*
G36*
X160101000Y-116451000D02*
G01*
X158899000Y-116451000D01*
X158899000Y-114349000D01*
X160101000Y-114349000D01*
X160101000Y-116451000D01*
X160101000Y-116451000D01*
G37*
G36*
X158401000Y-111651000D02*
G01*
X157199000Y-111651000D01*
X157199000Y-109549000D01*
X158401000Y-109549000D01*
X158401000Y-111651000D01*
X158401000Y-111651000D01*
G37*
G36*
X78101000Y-111651000D02*
G01*
X76899000Y-111651000D01*
X76899000Y-109549000D01*
X78101000Y-109549000D01*
X78101000Y-111651000D01*
X78101000Y-111651000D01*
G37*
G36*
X76401000Y-111651000D02*
G01*
X75199000Y-111651000D01*
X75199000Y-109549000D01*
X76401000Y-109549000D01*
X76401000Y-111651000D01*
X76401000Y-111651000D01*
G37*
G36*
X160101000Y-111651000D02*
G01*
X158899000Y-111651000D01*
X158899000Y-109549000D01*
X160101000Y-109549000D01*
X160101000Y-111651000D01*
X160101000Y-111651000D01*
G37*
G36*
X79801000Y-111651000D02*
G01*
X78599000Y-111651000D01*
X78599000Y-109549000D01*
X79801000Y-109549000D01*
X79801000Y-111651000D01*
X79801000Y-111651000D01*
G37*
G36*
X161801000Y-111651000D02*
G01*
X160599000Y-111651000D01*
X160599000Y-109549000D01*
X161801000Y-109549000D01*
X161801000Y-111651000D01*
X161801000Y-111651000D01*
G37*
G36*
X160601000Y-106951000D02*
G01*
X159399000Y-106951000D01*
X159399000Y-104849000D01*
X160601000Y-104849000D01*
X160601000Y-106951000D01*
X160601000Y-106951000D01*
G37*
G36*
X158901000Y-106951000D02*
G01*
X157699000Y-106951000D01*
X157699000Y-104849000D01*
X158901000Y-104849000D01*
X158901000Y-106951000D01*
X158901000Y-106951000D01*
G37*
G36*
X162301000Y-106951000D02*
G01*
X161099000Y-106951000D01*
X161099000Y-104849000D01*
X162301000Y-104849000D01*
X162301000Y-106951000D01*
X162301000Y-106951000D01*
G37*
G36*
X80301000Y-106951000D02*
G01*
X79099000Y-106951000D01*
X79099000Y-104849000D01*
X80301000Y-104849000D01*
X80301000Y-106951000D01*
X80301000Y-106951000D01*
G37*
G36*
X78601000Y-106951000D02*
G01*
X77399000Y-106951000D01*
X77399000Y-104849000D01*
X78601000Y-104849000D01*
X78601000Y-106951000D01*
X78601000Y-106951000D01*
G37*
G36*
X76901000Y-106951000D02*
G01*
X75699000Y-106951000D01*
X75699000Y-104849000D01*
X76901000Y-104849000D01*
X76901000Y-106951000D01*
X76901000Y-106951000D01*
G37*
G36*
X78601000Y-102151000D02*
G01*
X77399000Y-102151000D01*
X77399000Y-100049000D01*
X78601000Y-100049000D01*
X78601000Y-102151000D01*
X78601000Y-102151000D01*
G37*
G36*
X158901000Y-102151000D02*
G01*
X157699000Y-102151000D01*
X157699000Y-100049000D01*
X158901000Y-100049000D01*
X158901000Y-102151000D01*
X158901000Y-102151000D01*
G37*
G36*
X76901000Y-102151000D02*
G01*
X75699000Y-102151000D01*
X75699000Y-100049000D01*
X76901000Y-100049000D01*
X76901000Y-102151000D01*
X76901000Y-102151000D01*
G37*
G36*
X160601000Y-102151000D02*
G01*
X159399000Y-102151000D01*
X159399000Y-100049000D01*
X160601000Y-100049000D01*
X160601000Y-102151000D01*
X160601000Y-102151000D01*
G37*
G36*
X162301000Y-102151000D02*
G01*
X161099000Y-102151000D01*
X161099000Y-100049000D01*
X162301000Y-100049000D01*
X162301000Y-102151000D01*
X162301000Y-102151000D01*
G37*
G36*
X80301000Y-102151000D02*
G01*
X79099000Y-102151000D01*
X79099000Y-100049000D01*
X80301000Y-100049000D01*
X80301000Y-102151000D01*
X80301000Y-102151000D01*
G37*
G36*
X162801000Y-97451000D02*
G01*
X161599000Y-97451000D01*
X161599000Y-95349000D01*
X162801000Y-95349000D01*
X162801000Y-97451000D01*
X162801000Y-97451000D01*
G37*
G36*
X161101000Y-97451000D02*
G01*
X159899000Y-97451000D01*
X159899000Y-95349000D01*
X161101000Y-95349000D01*
X161101000Y-97451000D01*
X161101000Y-97451000D01*
G37*
G36*
X159401000Y-97451000D02*
G01*
X158199000Y-97451000D01*
X158199000Y-95349000D01*
X159401000Y-95349000D01*
X159401000Y-97451000D01*
X159401000Y-97451000D01*
G37*
G36*
X80801000Y-97451000D02*
G01*
X79599000Y-97451000D01*
X79599000Y-95349000D01*
X80801000Y-95349000D01*
X80801000Y-97451000D01*
X80801000Y-97451000D01*
G37*
G36*
X79101000Y-97451000D02*
G01*
X77899000Y-97451000D01*
X77899000Y-95349000D01*
X79101000Y-95349000D01*
X79101000Y-97451000D01*
X79101000Y-97451000D01*
G37*
G36*
X77401000Y-97451000D02*
G01*
X76199000Y-97451000D01*
X76199000Y-95349000D01*
X77401000Y-95349000D01*
X77401000Y-97451000D01*
X77401000Y-97451000D01*
G37*
G36*
X79101000Y-92651000D02*
G01*
X77899000Y-92651000D01*
X77899000Y-90549000D01*
X79101000Y-90549000D01*
X79101000Y-92651000D01*
X79101000Y-92651000D01*
G37*
G36*
X162801000Y-92651000D02*
G01*
X161599000Y-92651000D01*
X161599000Y-90549000D01*
X162801000Y-90549000D01*
X162801000Y-92651000D01*
X162801000Y-92651000D01*
G37*
G36*
X161101000Y-92651000D02*
G01*
X159899000Y-92651000D01*
X159899000Y-90549000D01*
X161101000Y-90549000D01*
X161101000Y-92651000D01*
X161101000Y-92651000D01*
G37*
G36*
X77401000Y-92651000D02*
G01*
X76199000Y-92651000D01*
X76199000Y-90549000D01*
X77401000Y-90549000D01*
X77401000Y-92651000D01*
X77401000Y-92651000D01*
G37*
G36*
X80801000Y-92651000D02*
G01*
X79599000Y-92651000D01*
X79599000Y-90549000D01*
X80801000Y-90549000D01*
X80801000Y-92651000D01*
X80801000Y-92651000D01*
G37*
G36*
X159401000Y-92651000D02*
G01*
X158199000Y-92651000D01*
X158199000Y-90549000D01*
X159401000Y-90549000D01*
X159401000Y-92651000D01*
X159401000Y-92651000D01*
G37*
G36*
X81301000Y-87951000D02*
G01*
X80099000Y-87951000D01*
X80099000Y-85849000D01*
X81301000Y-85849000D01*
X81301000Y-87951000D01*
X81301000Y-87951000D01*
G37*
G36*
X77901000Y-87951000D02*
G01*
X76699000Y-87951000D01*
X76699000Y-85849000D01*
X77901000Y-85849000D01*
X77901000Y-87951000D01*
X77901000Y-87951000D01*
G37*
G36*
X79601000Y-87951000D02*
G01*
X78399000Y-87951000D01*
X78399000Y-85849000D01*
X79601000Y-85849000D01*
X79601000Y-87951000D01*
X79601000Y-87951000D01*
G37*
G36*
X161601000Y-87851000D02*
G01*
X160399000Y-87851000D01*
X160399000Y-85749000D01*
X161601000Y-85749000D01*
X161601000Y-87851000D01*
X161601000Y-87851000D01*
G37*
G36*
X163301000Y-87851000D02*
G01*
X162099000Y-87851000D01*
X162099000Y-85749000D01*
X163301000Y-85749000D01*
X163301000Y-87851000D01*
X163301000Y-87851000D01*
G37*
G36*
X159901000Y-87851000D02*
G01*
X158699000Y-87851000D01*
X158699000Y-85749000D01*
X159901000Y-85749000D01*
X159901000Y-87851000D01*
X159901000Y-87851000D01*
G37*
G36*
X81301000Y-83151000D02*
G01*
X80099000Y-83151000D01*
X80099000Y-81049000D01*
X81301000Y-81049000D01*
X81301000Y-83151000D01*
X81301000Y-83151000D01*
G37*
G36*
X79601000Y-83151000D02*
G01*
X78399000Y-83151000D01*
X78399000Y-81049000D01*
X79601000Y-81049000D01*
X79601000Y-83151000D01*
X79601000Y-83151000D01*
G37*
G36*
X77901000Y-83151000D02*
G01*
X76699000Y-83151000D01*
X76699000Y-81049000D01*
X77901000Y-81049000D01*
X77901000Y-83151000D01*
X77901000Y-83151000D01*
G37*
G36*
X159901000Y-83051000D02*
G01*
X158699000Y-83051000D01*
X158699000Y-80949000D01*
X159901000Y-80949000D01*
X159901000Y-83051000D01*
X159901000Y-83051000D01*
G37*
G36*
X161601000Y-83051000D02*
G01*
X160399000Y-83051000D01*
X160399000Y-80949000D01*
X161601000Y-80949000D01*
X161601000Y-83051000D01*
X161601000Y-83051000D01*
G37*
G36*
X163301000Y-83051000D02*
G01*
X162099000Y-83051000D01*
X162099000Y-80949000D01*
X163301000Y-80949000D01*
X163301000Y-83051000D01*
X163301000Y-83051000D01*
G37*
G36*
X162101000Y-78451000D02*
G01*
X160899000Y-78451000D01*
X160899000Y-76349000D01*
X162101000Y-76349000D01*
X162101000Y-78451000D01*
X162101000Y-78451000D01*
G37*
G36*
X78401000Y-78451000D02*
G01*
X77199000Y-78451000D01*
X77199000Y-76349000D01*
X78401000Y-76349000D01*
X78401000Y-78451000D01*
X78401000Y-78451000D01*
G37*
G36*
X160401000Y-78451000D02*
G01*
X159199000Y-78451000D01*
X159199000Y-76349000D01*
X160401000Y-76349000D01*
X160401000Y-78451000D01*
X160401000Y-78451000D01*
G37*
G36*
X80101000Y-78451000D02*
G01*
X78899000Y-78451000D01*
X78899000Y-76349000D01*
X80101000Y-76349000D01*
X80101000Y-78451000D01*
X80101000Y-78451000D01*
G37*
G36*
X81801000Y-78451000D02*
G01*
X80599000Y-78451000D01*
X80599000Y-76349000D01*
X81801000Y-76349000D01*
X81801000Y-78451000D01*
X81801000Y-78451000D01*
G37*
G36*
X163801000Y-78451000D02*
G01*
X162599000Y-78451000D01*
X162599000Y-76349000D01*
X163801000Y-76349000D01*
X163801000Y-78451000D01*
X163801000Y-78451000D01*
G37*
G36*
X163801000Y-73651000D02*
G01*
X162599000Y-73651000D01*
X162599000Y-71549000D01*
X163801000Y-71549000D01*
X163801000Y-73651000D01*
X163801000Y-73651000D01*
G37*
G36*
X78401000Y-73651000D02*
G01*
X77199000Y-73651000D01*
X77199000Y-71549000D01*
X78401000Y-71549000D01*
X78401000Y-73651000D01*
X78401000Y-73651000D01*
G37*
G36*
X80101000Y-73651000D02*
G01*
X78899000Y-73651000D01*
X78899000Y-71549000D01*
X80101000Y-71549000D01*
X80101000Y-73651000D01*
X80101000Y-73651000D01*
G37*
G36*
X81801000Y-73651000D02*
G01*
X80599000Y-73651000D01*
X80599000Y-71549000D01*
X81801000Y-71549000D01*
X81801000Y-73651000D01*
X81801000Y-73651000D01*
G37*
G36*
X160401000Y-73651000D02*
G01*
X159199000Y-73651000D01*
X159199000Y-71549000D01*
X160401000Y-71549000D01*
X160401000Y-73651000D01*
X160401000Y-73651000D01*
G37*
G36*
X162101000Y-73651000D02*
G01*
X160899000Y-73651000D01*
X160899000Y-71549000D01*
X162101000Y-71549000D01*
X162101000Y-73651000D01*
X162101000Y-73651000D01*
G37*
G36*
X162601000Y-68951000D02*
G01*
X161399000Y-68951000D01*
X161399000Y-66849000D01*
X162601000Y-66849000D01*
X162601000Y-68951000D01*
X162601000Y-68951000D01*
G37*
G36*
X164301000Y-68951000D02*
G01*
X163099000Y-68951000D01*
X163099000Y-66849000D01*
X164301000Y-66849000D01*
X164301000Y-68951000D01*
X164301000Y-68951000D01*
G37*
G36*
X78901000Y-68951000D02*
G01*
X77699000Y-68951000D01*
X77699000Y-66849000D01*
X78901000Y-66849000D01*
X78901000Y-68951000D01*
X78901000Y-68951000D01*
G37*
G36*
X160901000Y-68951000D02*
G01*
X159699000Y-68951000D01*
X159699000Y-66849000D01*
X160901000Y-66849000D01*
X160901000Y-68951000D01*
X160901000Y-68951000D01*
G37*
G36*
X80601000Y-68951000D02*
G01*
X79399000Y-68951000D01*
X79399000Y-66849000D01*
X80601000Y-66849000D01*
X80601000Y-68951000D01*
X80601000Y-68951000D01*
G37*
G36*
X82301000Y-68951000D02*
G01*
X81099000Y-68951000D01*
X81099000Y-66849000D01*
X82301000Y-66849000D01*
X82301000Y-68951000D01*
X82301000Y-68951000D01*
G37*
G36*
X162601000Y-64151000D02*
G01*
X161399000Y-64151000D01*
X161399000Y-62049000D01*
X162601000Y-62049000D01*
X162601000Y-64151000D01*
X162601000Y-64151000D01*
G37*
G36*
X82301000Y-64151000D02*
G01*
X81099000Y-64151000D01*
X81099000Y-62049000D01*
X82301000Y-62049000D01*
X82301000Y-64151000D01*
X82301000Y-64151000D01*
G37*
G36*
X164301000Y-64151000D02*
G01*
X163099000Y-64151000D01*
X163099000Y-62049000D01*
X164301000Y-62049000D01*
X164301000Y-64151000D01*
X164301000Y-64151000D01*
G37*
G36*
X160901000Y-64151000D02*
G01*
X159699000Y-64151000D01*
X159699000Y-62049000D01*
X160901000Y-62049000D01*
X160901000Y-64151000D01*
X160901000Y-64151000D01*
G37*
G36*
X80601000Y-64151000D02*
G01*
X79399000Y-64151000D01*
X79399000Y-62049000D01*
X80601000Y-62049000D01*
X80601000Y-64151000D01*
X80601000Y-64151000D01*
G37*
G36*
X78901000Y-64151000D02*
G01*
X77699000Y-64151000D01*
X77699000Y-62049000D01*
X78901000Y-62049000D01*
X78901000Y-64151000D01*
X78901000Y-64151000D01*
G37*
G36*
X164801000Y-59451000D02*
G01*
X163599000Y-59451000D01*
X163599000Y-57349000D01*
X164801000Y-57349000D01*
X164801000Y-59451000D01*
X164801000Y-59451000D01*
G37*
G36*
X79401000Y-59451000D02*
G01*
X78199000Y-59451000D01*
X78199000Y-57349000D01*
X79401000Y-57349000D01*
X79401000Y-59451000D01*
X79401000Y-59451000D01*
G37*
G36*
X82801000Y-59451000D02*
G01*
X81599000Y-59451000D01*
X81599000Y-57349000D01*
X82801000Y-57349000D01*
X82801000Y-59451000D01*
X82801000Y-59451000D01*
G37*
G36*
X161401000Y-59451000D02*
G01*
X160199000Y-59451000D01*
X160199000Y-57349000D01*
X161401000Y-57349000D01*
X161401000Y-59451000D01*
X161401000Y-59451000D01*
G37*
G36*
X163101000Y-59451000D02*
G01*
X161899000Y-59451000D01*
X161899000Y-57349000D01*
X163101000Y-57349000D01*
X163101000Y-59451000D01*
X163101000Y-59451000D01*
G37*
G36*
X81101000Y-59451000D02*
G01*
X79899000Y-59451000D01*
X79899000Y-57349000D01*
X81101000Y-57349000D01*
X81101000Y-59451000D01*
X81101000Y-59451000D01*
G37*
G36*
X161401000Y-54651000D02*
G01*
X160199000Y-54651000D01*
X160199000Y-52549000D01*
X161401000Y-52549000D01*
X161401000Y-54651000D01*
X161401000Y-54651000D01*
G37*
G36*
X82801000Y-54651000D02*
G01*
X81599000Y-54651000D01*
X81599000Y-52549000D01*
X82801000Y-52549000D01*
X82801000Y-54651000D01*
X82801000Y-54651000D01*
G37*
G36*
X81101000Y-54651000D02*
G01*
X79899000Y-54651000D01*
X79899000Y-52549000D01*
X81101000Y-52549000D01*
X81101000Y-54651000D01*
X81101000Y-54651000D01*
G37*
G36*
X79401000Y-54651000D02*
G01*
X78199000Y-54651000D01*
X78199000Y-52549000D01*
X79401000Y-52549000D01*
X79401000Y-54651000D01*
X79401000Y-54651000D01*
G37*
G36*
X163101000Y-54651000D02*
G01*
X161899000Y-54651000D01*
X161899000Y-52549000D01*
X163101000Y-52549000D01*
X163101000Y-54651000D01*
X163101000Y-54651000D01*
G37*
G36*
X164801000Y-54651000D02*
G01*
X163599000Y-54651000D01*
X163599000Y-52549000D01*
X164801000Y-52549000D01*
X164801000Y-54651000D01*
X164801000Y-54651000D01*
G37*
G36*
X86651000Y-49801000D02*
G01*
X84549000Y-49801000D01*
X84549000Y-48599000D01*
X86651000Y-48599000D01*
X86651000Y-49801000D01*
X86651000Y-49801000D01*
G37*
G36*
X100951000Y-49801000D02*
G01*
X98849000Y-49801000D01*
X98849000Y-48599000D01*
X100951000Y-48599000D01*
X100951000Y-49801000D01*
X100951000Y-49801000D01*
G37*
G36*
X148451000Y-49801000D02*
G01*
X146349000Y-49801000D01*
X146349000Y-48599000D01*
X148451000Y-48599000D01*
X148451000Y-49801000D01*
X148451000Y-49801000D01*
G37*
G36*
X143651000Y-49801000D02*
G01*
X141549000Y-49801000D01*
X141549000Y-48599000D01*
X143651000Y-48599000D01*
X143651000Y-49801000D01*
X143651000Y-49801000D01*
G37*
G36*
X96151000Y-49801000D02*
G01*
X94049000Y-49801000D01*
X94049000Y-48599000D01*
X96151000Y-48599000D01*
X96151000Y-49801000D01*
X96151000Y-49801000D01*
G37*
G36*
X91451000Y-49801000D02*
G01*
X89349000Y-49801000D01*
X89349000Y-48599000D01*
X91451000Y-48599000D01*
X91451000Y-49801000D01*
X91451000Y-49801000D01*
G37*
G36*
X157951000Y-49801000D02*
G01*
X155849000Y-49801000D01*
X155849000Y-48599000D01*
X157951000Y-48599000D01*
X157951000Y-49801000D01*
X157951000Y-49801000D01*
G37*
G36*
X153151000Y-49801000D02*
G01*
X151049000Y-49801000D01*
X151049000Y-48599000D01*
X153151000Y-48599000D01*
X153151000Y-49801000D01*
X153151000Y-49801000D01*
G37*
G36*
X134151000Y-49801000D02*
G01*
X132049000Y-49801000D01*
X132049000Y-48599000D01*
X134151000Y-48599000D01*
X134151000Y-49801000D01*
X134151000Y-49801000D01*
G37*
G36*
X129451000Y-49801000D02*
G01*
X127349000Y-49801000D01*
X127349000Y-48599000D01*
X129451000Y-48599000D01*
X129451000Y-49801000D01*
X129451000Y-49801000D01*
G37*
G36*
X124651000Y-49801000D02*
G01*
X122549000Y-49801000D01*
X122549000Y-48599000D01*
X124651000Y-48599000D01*
X124651000Y-49801000D01*
X124651000Y-49801000D01*
G37*
G36*
X119951000Y-49801000D02*
G01*
X117849000Y-49801000D01*
X117849000Y-48599000D01*
X119951000Y-48599000D01*
X119951000Y-49801000D01*
X119951000Y-49801000D01*
G37*
G36*
X115151000Y-49801000D02*
G01*
X113049000Y-49801000D01*
X113049000Y-48599000D01*
X115151000Y-48599000D01*
X115151000Y-49801000D01*
X115151000Y-49801000D01*
G37*
G36*
X110451000Y-49801000D02*
G01*
X108349000Y-49801000D01*
X108349000Y-48599000D01*
X110451000Y-48599000D01*
X110451000Y-49801000D01*
X110451000Y-49801000D01*
G37*
G36*
X105651000Y-49801000D02*
G01*
X103549000Y-49801000D01*
X103549000Y-48599000D01*
X105651000Y-48599000D01*
X105651000Y-49801000D01*
X105651000Y-49801000D01*
G37*
G36*
X138951000Y-49801000D02*
G01*
X136849000Y-49801000D01*
X136849000Y-48599000D01*
X138951000Y-48599000D01*
X138951000Y-49801000D01*
X138951000Y-49801000D01*
G37*
G36*
X96151000Y-48101000D02*
G01*
X94049000Y-48101000D01*
X94049000Y-46899000D01*
X96151000Y-46899000D01*
X96151000Y-48101000D01*
X96151000Y-48101000D01*
G37*
G36*
X86651000Y-48101000D02*
G01*
X84549000Y-48101000D01*
X84549000Y-46899000D01*
X86651000Y-46899000D01*
X86651000Y-48101000D01*
X86651000Y-48101000D01*
G37*
G36*
X91451000Y-48101000D02*
G01*
X89349000Y-48101000D01*
X89349000Y-46899000D01*
X91451000Y-46899000D01*
X91451000Y-48101000D01*
X91451000Y-48101000D01*
G37*
G36*
X100951000Y-48101000D02*
G01*
X98849000Y-48101000D01*
X98849000Y-46899000D01*
X100951000Y-46899000D01*
X100951000Y-48101000D01*
X100951000Y-48101000D01*
G37*
G36*
X105651000Y-48101000D02*
G01*
X103549000Y-48101000D01*
X103549000Y-46899000D01*
X105651000Y-46899000D01*
X105651000Y-48101000D01*
X105651000Y-48101000D01*
G37*
G36*
X110451000Y-48101000D02*
G01*
X108349000Y-48101000D01*
X108349000Y-46899000D01*
X110451000Y-46899000D01*
X110451000Y-48101000D01*
X110451000Y-48101000D01*
G37*
G36*
X115151000Y-48101000D02*
G01*
X113049000Y-48101000D01*
X113049000Y-46899000D01*
X115151000Y-46899000D01*
X115151000Y-48101000D01*
X115151000Y-48101000D01*
G37*
G36*
X119951000Y-48101000D02*
G01*
X117849000Y-48101000D01*
X117849000Y-46899000D01*
X119951000Y-46899000D01*
X119951000Y-48101000D01*
X119951000Y-48101000D01*
G37*
G36*
X129451000Y-48101000D02*
G01*
X127349000Y-48101000D01*
X127349000Y-46899000D01*
X129451000Y-46899000D01*
X129451000Y-48101000D01*
X129451000Y-48101000D01*
G37*
G36*
X134151000Y-48101000D02*
G01*
X132049000Y-48101000D01*
X132049000Y-46899000D01*
X134151000Y-46899000D01*
X134151000Y-48101000D01*
X134151000Y-48101000D01*
G37*
G36*
X157951000Y-48101000D02*
G01*
X155849000Y-48101000D01*
X155849000Y-46899000D01*
X157951000Y-46899000D01*
X157951000Y-48101000D01*
X157951000Y-48101000D01*
G37*
G36*
X138951000Y-48101000D02*
G01*
X136849000Y-48101000D01*
X136849000Y-46899000D01*
X138951000Y-46899000D01*
X138951000Y-48101000D01*
X138951000Y-48101000D01*
G37*
G36*
X153151000Y-48101000D02*
G01*
X151049000Y-48101000D01*
X151049000Y-46899000D01*
X153151000Y-46899000D01*
X153151000Y-48101000D01*
X153151000Y-48101000D01*
G37*
G36*
X143651000Y-48101000D02*
G01*
X141549000Y-48101000D01*
X141549000Y-46899000D01*
X143651000Y-46899000D01*
X143651000Y-48101000D01*
X143651000Y-48101000D01*
G37*
G36*
X148451000Y-48101000D02*
G01*
X146349000Y-48101000D01*
X146349000Y-46899000D01*
X148451000Y-46899000D01*
X148451000Y-48101000D01*
X148451000Y-48101000D01*
G37*
G36*
X124651000Y-48101000D02*
G01*
X122549000Y-48101000D01*
X122549000Y-46899000D01*
X124651000Y-46899000D01*
X124651000Y-48101000D01*
X124651000Y-48101000D01*
G37*
G36*
X134151000Y-46401000D02*
G01*
X132049000Y-46401000D01*
X132049000Y-45199000D01*
X134151000Y-45199000D01*
X134151000Y-46401000D01*
X134151000Y-46401000D01*
G37*
G36*
X129451000Y-46401000D02*
G01*
X127349000Y-46401000D01*
X127349000Y-45199000D01*
X129451000Y-45199000D01*
X129451000Y-46401000D01*
X129451000Y-46401000D01*
G37*
G36*
X124651000Y-46401000D02*
G01*
X122549000Y-46401000D01*
X122549000Y-45199000D01*
X124651000Y-45199000D01*
X124651000Y-46401000D01*
X124651000Y-46401000D01*
G37*
G36*
X115151000Y-46401000D02*
G01*
X113049000Y-46401000D01*
X113049000Y-45199000D01*
X115151000Y-45199000D01*
X115151000Y-46401000D01*
X115151000Y-46401000D01*
G37*
G36*
X119951000Y-46401000D02*
G01*
X117849000Y-46401000D01*
X117849000Y-45199000D01*
X119951000Y-45199000D01*
X119951000Y-46401000D01*
X119951000Y-46401000D01*
G37*
G36*
X86651000Y-46401000D02*
G01*
X84549000Y-46401000D01*
X84549000Y-45199000D01*
X86651000Y-45199000D01*
X86651000Y-46401000D01*
X86651000Y-46401000D01*
G37*
G36*
X91451000Y-46401000D02*
G01*
X89349000Y-46401000D01*
X89349000Y-45199000D01*
X91451000Y-45199000D01*
X91451000Y-46401000D01*
X91451000Y-46401000D01*
G37*
G36*
X96151000Y-46401000D02*
G01*
X94049000Y-46401000D01*
X94049000Y-45199000D01*
X96151000Y-45199000D01*
X96151000Y-46401000D01*
X96151000Y-46401000D01*
G37*
G36*
X100951000Y-46401000D02*
G01*
X98849000Y-46401000D01*
X98849000Y-45199000D01*
X100951000Y-45199000D01*
X100951000Y-46401000D01*
X100951000Y-46401000D01*
G37*
G36*
X105651000Y-46401000D02*
G01*
X103549000Y-46401000D01*
X103549000Y-45199000D01*
X105651000Y-45199000D01*
X105651000Y-46401000D01*
X105651000Y-46401000D01*
G37*
G36*
X110451000Y-46401000D02*
G01*
X108349000Y-46401000D01*
X108349000Y-45199000D01*
X110451000Y-45199000D01*
X110451000Y-46401000D01*
X110451000Y-46401000D01*
G37*
G36*
X157951000Y-46401000D02*
G01*
X155849000Y-46401000D01*
X155849000Y-45199000D01*
X157951000Y-45199000D01*
X157951000Y-46401000D01*
X157951000Y-46401000D01*
G37*
G36*
X153151000Y-46401000D02*
G01*
X151049000Y-46401000D01*
X151049000Y-45199000D01*
X153151000Y-45199000D01*
X153151000Y-46401000D01*
X153151000Y-46401000D01*
G37*
G36*
X148451000Y-46401000D02*
G01*
X146349000Y-46401000D01*
X146349000Y-45199000D01*
X148451000Y-45199000D01*
X148451000Y-46401000D01*
X148451000Y-46401000D01*
G37*
G36*
X138951000Y-46401000D02*
G01*
X136849000Y-46401000D01*
X136849000Y-45199000D01*
X138951000Y-45199000D01*
X138951000Y-46401000D01*
X138951000Y-46401000D01*
G37*
G36*
X143651000Y-46401000D02*
G01*
X141549000Y-46401000D01*
X141549000Y-45199000D01*
X143651000Y-45199000D01*
X143651000Y-46401000D01*
X143651000Y-46401000D01*
G37*
G36*
X70448282Y-30373934D02*
G01*
X71039926Y-30619001D01*
X71572392Y-30974784D01*
X72025216Y-31427608D01*
X72380999Y-31960074D01*
X72626066Y-32551718D01*
X72751000Y-33179804D01*
X72751000Y-33820196D01*
X72626066Y-34448282D01*
X72380999Y-35039926D01*
X72025216Y-35572392D01*
X71572392Y-36025216D01*
X71039926Y-36380999D01*
X70448282Y-36626066D01*
X69820196Y-36751000D01*
X69179804Y-36751000D01*
X68551718Y-36626066D01*
X67960074Y-36380999D01*
X67427608Y-36025216D01*
X66974784Y-35572392D01*
X66619001Y-35039926D01*
X66373934Y-34448282D01*
X66249000Y-33820196D01*
X66249000Y-33179804D01*
X66373934Y-32551718D01*
X66619001Y-31960074D01*
X66974784Y-31427608D01*
X67427608Y-30974784D01*
X67960074Y-30619001D01*
X68551718Y-30373934D01*
X69179804Y-30249000D01*
X69820196Y-30249000D01*
X70448282Y-30373934D01*
X70448282Y-30373934D01*
G37*
G36*
X163448282Y-30373934D02*
G01*
X164039926Y-30619001D01*
X164572392Y-30974784D01*
X165025216Y-31427608D01*
X165380999Y-31960074D01*
X165626066Y-32551718D01*
X165751000Y-33179804D01*
X165751000Y-33820196D01*
X165626066Y-34448282D01*
X165380999Y-35039926D01*
X165025216Y-35572392D01*
X164572392Y-36025216D01*
X164039926Y-36380999D01*
X163448282Y-36626066D01*
X162820196Y-36751000D01*
X162179804Y-36751000D01*
X161551718Y-36626066D01*
X160960074Y-36380999D01*
X160427608Y-36025216D01*
X159974784Y-35572392D01*
X159619001Y-35039926D01*
X159373934Y-34448282D01*
X159249000Y-33820196D01*
X159249000Y-33179804D01*
X159373934Y-32551718D01*
X159619001Y-31960074D01*
X159974784Y-31427608D01*
X160427608Y-30974784D01*
X160960074Y-30619001D01*
X161551718Y-30373934D01*
X162179804Y-30249000D01*
X162820196Y-30249000D01*
X163448282Y-30373934D01*
X163448282Y-30373934D01*
G37*
M02*
