%TF.GenerationSoftware,KiCad,Pcbnew,5.1.6*%
%TF.CreationDate,2020-07-29T12:52:39+02:00*%
%TF.ProjectId,backplate,6261636b-706c-4617-9465-2e6b69636164,rev?*%
%TF.SameCoordinates,Original*%
%TF.FileFunction,Copper,L1,Top*%
%TF.FilePolarity,Positive*%
%FSLAX46Y46*%
G04 Gerber Fmt 4.6, Leading zero omitted, Abs format (unit mm)*
G04 Created by KiCad (PCBNEW 5.1.6) date 2020-07-29 12:52:39*
%MOMM*%
%LPD*%
G01*
G04 APERTURE LIST*
%TA.AperFunction,NonConductor*%
%ADD10C,0.254000*%
%TD*%
G04 APERTURE END LIST*
D10*
G36*
X253005001Y-133914999D02*
G01*
X38875000Y-133914999D01*
X38875000Y-78463896D01*
X53765000Y-78463896D01*
X53765001Y-127536105D01*
X53768127Y-127567840D01*
X53768062Y-127577086D01*
X53769063Y-127587299D01*
X53799663Y-127878444D01*
X53813067Y-127943744D01*
X53825542Y-128009140D01*
X53828508Y-128018965D01*
X53915077Y-128298620D01*
X53940890Y-128360027D01*
X53965846Y-128421795D01*
X53970664Y-128430856D01*
X54109902Y-128688372D01*
X54147187Y-128743650D01*
X54183631Y-128799342D01*
X54190116Y-128807295D01*
X54376722Y-129032862D01*
X54424014Y-129079825D01*
X54470603Y-129127400D01*
X54478504Y-129133937D01*
X54478507Y-129133940D01*
X54478510Y-129133942D01*
X54705375Y-129318967D01*
X54760881Y-129355845D01*
X54815825Y-129393466D01*
X54824850Y-129398346D01*
X54824855Y-129398349D01*
X54824858Y-129398350D01*
X55083333Y-129535784D01*
X55144939Y-129561177D01*
X55206153Y-129587413D01*
X55215956Y-129590448D01*
X55496210Y-129675062D01*
X55561600Y-129688009D01*
X55626720Y-129701851D01*
X55636924Y-129702924D01*
X55636926Y-129702924D01*
X55925861Y-129731254D01*
X55963895Y-129735000D01*
X215036105Y-129735000D01*
X215067849Y-129731873D01*
X215077086Y-129731938D01*
X215087299Y-129730937D01*
X215378444Y-129700337D01*
X215443714Y-129686939D01*
X215509137Y-129674459D01*
X215518962Y-129671493D01*
X215798619Y-129584925D01*
X215860049Y-129559102D01*
X215921798Y-129534154D01*
X215930859Y-129529336D01*
X216188375Y-129390097D01*
X216243630Y-129352827D01*
X216299343Y-129316369D01*
X216307296Y-129309884D01*
X216532863Y-129123278D01*
X216579822Y-129075991D01*
X216627399Y-129029400D01*
X216633941Y-129021493D01*
X216818967Y-128794629D01*
X216855836Y-128739136D01*
X216893469Y-128684175D01*
X216898350Y-128675148D01*
X217035787Y-128416666D01*
X217061182Y-128355053D01*
X217087415Y-128293847D01*
X217090450Y-128284044D01*
X217175064Y-128003790D01*
X217188011Y-127938400D01*
X217201853Y-127873280D01*
X217202926Y-127863074D01*
X217231493Y-127571722D01*
X217231493Y-127571713D01*
X217235000Y-127536105D01*
X217235000Y-122764269D01*
X227726581Y-122764269D01*
X227726581Y-123235731D01*
X227818558Y-123698135D01*
X227998979Y-124133709D01*
X228260910Y-124525716D01*
X228594284Y-124859090D01*
X228986291Y-125121021D01*
X229421865Y-125301442D01*
X229884269Y-125393419D01*
X230355731Y-125393419D01*
X230818135Y-125301442D01*
X231253709Y-125121021D01*
X231645716Y-124859090D01*
X231979090Y-124525716D01*
X232241021Y-124133709D01*
X232421442Y-123698135D01*
X232513419Y-123235731D01*
X232513419Y-122764269D01*
X232421442Y-122301865D01*
X232241021Y-121866291D01*
X231979090Y-121474284D01*
X231645716Y-121140910D01*
X231253709Y-120878979D01*
X230818135Y-120698558D01*
X230355731Y-120606581D01*
X229884269Y-120606581D01*
X229421865Y-120698558D01*
X228986291Y-120878979D01*
X228594284Y-121140910D01*
X228260910Y-121474284D01*
X227998979Y-121866291D01*
X227818558Y-122301865D01*
X227726581Y-122764269D01*
X217235000Y-122764269D01*
X217235000Y-91463896D01*
X218385000Y-91463896D01*
X218385001Y-114536105D01*
X218388229Y-114568875D01*
X218388098Y-114587559D01*
X218389099Y-114597772D01*
X218450300Y-115180062D01*
X218463710Y-115245388D01*
X218476179Y-115310756D01*
X218479143Y-115320572D01*
X218479144Y-115320579D01*
X218479147Y-115320585D01*
X218652282Y-115879894D01*
X218678095Y-115941301D01*
X218703051Y-116003069D01*
X218707869Y-116012130D01*
X218986345Y-116527162D01*
X219023608Y-116582408D01*
X219060074Y-116638133D01*
X219066560Y-116646086D01*
X219439770Y-117097219D01*
X219487060Y-117144180D01*
X219533648Y-117191754D01*
X219541555Y-117198296D01*
X219995283Y-117568348D01*
X220050776Y-117605217D01*
X220105737Y-117642850D01*
X220114764Y-117647731D01*
X220631728Y-117922605D01*
X220693367Y-117948011D01*
X220754548Y-117974233D01*
X220764351Y-117977268D01*
X221324859Y-118146495D01*
X221390251Y-118159443D01*
X221455367Y-118173284D01*
X221465573Y-118174357D01*
X222048276Y-118231492D01*
X222048277Y-118231492D01*
X222083895Y-118235000D01*
X238156105Y-118235000D01*
X238188884Y-118231772D01*
X238207559Y-118231902D01*
X238217772Y-118230901D01*
X238800062Y-118169700D01*
X238865388Y-118156290D01*
X238930756Y-118143821D01*
X238940572Y-118140857D01*
X238940579Y-118140856D01*
X238940585Y-118140853D01*
X239499894Y-117967718D01*
X239561301Y-117941905D01*
X239623069Y-117916949D01*
X239632130Y-117912131D01*
X240147162Y-117633655D01*
X240202408Y-117596392D01*
X240258133Y-117559926D01*
X240266086Y-117553440D01*
X240717219Y-117180230D01*
X240764180Y-117132940D01*
X240811754Y-117086352D01*
X240818296Y-117078445D01*
X241188348Y-116624717D01*
X241225217Y-116569224D01*
X241262850Y-116514263D01*
X241267731Y-116505236D01*
X241542605Y-115988272D01*
X241568011Y-115926633D01*
X241594233Y-115865452D01*
X241597268Y-115855649D01*
X241766495Y-115295141D01*
X241779443Y-115229749D01*
X241793284Y-115164633D01*
X241794357Y-115154427D01*
X241851492Y-114571724D01*
X241851492Y-114571723D01*
X241855000Y-114536105D01*
X241855000Y-91463895D01*
X241851772Y-91431116D01*
X241851902Y-91412441D01*
X241850901Y-91402227D01*
X241789700Y-90819938D01*
X241776294Y-90754631D01*
X241763821Y-90689245D01*
X241760857Y-90679428D01*
X241760856Y-90679421D01*
X241760853Y-90679415D01*
X241587718Y-90120107D01*
X241561903Y-90058696D01*
X241536949Y-89996931D01*
X241532131Y-89987870D01*
X241253655Y-89472838D01*
X241216392Y-89417592D01*
X241179926Y-89361867D01*
X241173440Y-89353914D01*
X240800230Y-88902781D01*
X240752957Y-88855837D01*
X240706352Y-88808246D01*
X240698445Y-88801704D01*
X240244717Y-88431652D01*
X240189198Y-88394765D01*
X240134263Y-88357151D01*
X240125236Y-88352269D01*
X239608272Y-88077395D01*
X239546633Y-88051989D01*
X239485452Y-88025767D01*
X239475649Y-88022732D01*
X238915141Y-87853505D01*
X238849781Y-87840563D01*
X238784633Y-87826716D01*
X238774427Y-87825643D01*
X238191724Y-87768508D01*
X238191723Y-87768508D01*
X238156105Y-87765000D01*
X222083895Y-87765000D01*
X222051116Y-87768228D01*
X222032441Y-87768098D01*
X222022227Y-87769099D01*
X221439938Y-87830300D01*
X221374631Y-87843706D01*
X221309245Y-87856179D01*
X221299428Y-87859143D01*
X221299421Y-87859144D01*
X221299415Y-87859147D01*
X220740107Y-88032282D01*
X220678696Y-88058097D01*
X220616931Y-88083051D01*
X220607870Y-88087869D01*
X220092838Y-88366345D01*
X220037592Y-88403608D01*
X219981867Y-88440074D01*
X219973914Y-88446560D01*
X219522781Y-88819770D01*
X219475837Y-88867043D01*
X219428246Y-88913648D01*
X219421704Y-88921555D01*
X219051652Y-89375283D01*
X219014765Y-89430802D01*
X218977151Y-89485737D01*
X218972269Y-89494764D01*
X218697395Y-90011728D01*
X218671989Y-90073367D01*
X218645767Y-90134548D01*
X218642732Y-90144351D01*
X218473505Y-90704859D01*
X218460563Y-90770219D01*
X218446716Y-90835367D01*
X218445643Y-90845573D01*
X218388508Y-91428276D01*
X218385000Y-91463896D01*
X217235000Y-91463896D01*
X217235000Y-82764269D01*
X227726581Y-82764269D01*
X227726581Y-83235731D01*
X227818558Y-83698135D01*
X227998979Y-84133709D01*
X228260910Y-84525716D01*
X228594284Y-84859090D01*
X228986291Y-85121021D01*
X229421865Y-85301442D01*
X229884269Y-85393419D01*
X230355731Y-85393419D01*
X230818135Y-85301442D01*
X231253709Y-85121021D01*
X231645716Y-84859090D01*
X231979090Y-84525716D01*
X232241021Y-84133709D01*
X232421442Y-83698135D01*
X232513419Y-83235731D01*
X232513419Y-82764269D01*
X232421442Y-82301865D01*
X232241021Y-81866291D01*
X231979090Y-81474284D01*
X231645716Y-81140910D01*
X231253709Y-80878979D01*
X230818135Y-80698558D01*
X230355731Y-80606581D01*
X229884269Y-80606581D01*
X229421865Y-80698558D01*
X228986291Y-80878979D01*
X228594284Y-81140910D01*
X228260910Y-81474284D01*
X227998979Y-81866291D01*
X227818558Y-82301865D01*
X227726581Y-82764269D01*
X217235000Y-82764269D01*
X217235000Y-78463895D01*
X217231873Y-78432151D01*
X217231938Y-78422915D01*
X217230937Y-78412701D01*
X217200337Y-78121556D01*
X217186927Y-78056230D01*
X217174458Y-77990862D01*
X217171493Y-77981037D01*
X217084925Y-77701382D01*
X217059097Y-77639940D01*
X217034154Y-77578203D01*
X217029336Y-77569142D01*
X216890097Y-77311626D01*
X216852842Y-77256394D01*
X216816369Y-77200658D01*
X216809884Y-77192705D01*
X216623279Y-76967138D01*
X216575972Y-76920160D01*
X216529400Y-76872602D01*
X216521493Y-76866060D01*
X216294629Y-76681034D01*
X216239121Y-76644155D01*
X216184176Y-76606533D01*
X216175149Y-76601652D01*
X215916668Y-76464215D01*
X215855088Y-76438833D01*
X215793849Y-76412586D01*
X215784045Y-76409551D01*
X215503791Y-76324937D01*
X215438401Y-76311990D01*
X215373281Y-76298148D01*
X215363077Y-76297075D01*
X215363075Y-76297075D01*
X215071723Y-76268508D01*
X215036105Y-76265000D01*
X55963895Y-76265000D01*
X55932151Y-76268127D01*
X55922915Y-76268062D01*
X55912701Y-76269063D01*
X55621556Y-76299663D01*
X55556230Y-76313073D01*
X55490862Y-76325542D01*
X55481037Y-76328507D01*
X55201382Y-76415075D01*
X55139938Y-76440904D01*
X55078206Y-76465845D01*
X55069148Y-76470661D01*
X55069143Y-76470663D01*
X55069139Y-76470666D01*
X54811628Y-76609901D01*
X54756373Y-76647171D01*
X54700656Y-76683631D01*
X54692703Y-76690117D01*
X54467138Y-76876721D01*
X54420160Y-76924028D01*
X54372603Y-76970599D01*
X54366061Y-76978506D01*
X54181035Y-77205370D01*
X54144148Y-77260889D01*
X54106534Y-77315824D01*
X54101652Y-77324851D01*
X53964215Y-77583333D01*
X53938831Y-77644920D01*
X53912587Y-77706151D01*
X53909552Y-77715955D01*
X53824938Y-77996209D01*
X53811991Y-78061599D01*
X53798149Y-78126719D01*
X53797076Y-78136925D01*
X53768680Y-78426528D01*
X53765000Y-78463896D01*
X38875000Y-78463896D01*
X38875000Y-68984999D01*
X253005000Y-68984999D01*
X253005001Y-133914999D01*
G37*
X253005001Y-133914999D02*
X38875000Y-133914999D01*
X38875000Y-78463896D01*
X53765000Y-78463896D01*
X53765001Y-127536105D01*
X53768127Y-127567840D01*
X53768062Y-127577086D01*
X53769063Y-127587299D01*
X53799663Y-127878444D01*
X53813067Y-127943744D01*
X53825542Y-128009140D01*
X53828508Y-128018965D01*
X53915077Y-128298620D01*
X53940890Y-128360027D01*
X53965846Y-128421795D01*
X53970664Y-128430856D01*
X54109902Y-128688372D01*
X54147187Y-128743650D01*
X54183631Y-128799342D01*
X54190116Y-128807295D01*
X54376722Y-129032862D01*
X54424014Y-129079825D01*
X54470603Y-129127400D01*
X54478504Y-129133937D01*
X54478507Y-129133940D01*
X54478510Y-129133942D01*
X54705375Y-129318967D01*
X54760881Y-129355845D01*
X54815825Y-129393466D01*
X54824850Y-129398346D01*
X54824855Y-129398349D01*
X54824858Y-129398350D01*
X55083333Y-129535784D01*
X55144939Y-129561177D01*
X55206153Y-129587413D01*
X55215956Y-129590448D01*
X55496210Y-129675062D01*
X55561600Y-129688009D01*
X55626720Y-129701851D01*
X55636924Y-129702924D01*
X55636926Y-129702924D01*
X55925861Y-129731254D01*
X55963895Y-129735000D01*
X215036105Y-129735000D01*
X215067849Y-129731873D01*
X215077086Y-129731938D01*
X215087299Y-129730937D01*
X215378444Y-129700337D01*
X215443714Y-129686939D01*
X215509137Y-129674459D01*
X215518962Y-129671493D01*
X215798619Y-129584925D01*
X215860049Y-129559102D01*
X215921798Y-129534154D01*
X215930859Y-129529336D01*
X216188375Y-129390097D01*
X216243630Y-129352827D01*
X216299343Y-129316369D01*
X216307296Y-129309884D01*
X216532863Y-129123278D01*
X216579822Y-129075991D01*
X216627399Y-129029400D01*
X216633941Y-129021493D01*
X216818967Y-128794629D01*
X216855836Y-128739136D01*
X216893469Y-128684175D01*
X216898350Y-128675148D01*
X217035787Y-128416666D01*
X217061182Y-128355053D01*
X217087415Y-128293847D01*
X217090450Y-128284044D01*
X217175064Y-128003790D01*
X217188011Y-127938400D01*
X217201853Y-127873280D01*
X217202926Y-127863074D01*
X217231493Y-127571722D01*
X217231493Y-127571713D01*
X217235000Y-127536105D01*
X217235000Y-122764269D01*
X227726581Y-122764269D01*
X227726581Y-123235731D01*
X227818558Y-123698135D01*
X227998979Y-124133709D01*
X228260910Y-124525716D01*
X228594284Y-124859090D01*
X228986291Y-125121021D01*
X229421865Y-125301442D01*
X229884269Y-125393419D01*
X230355731Y-125393419D01*
X230818135Y-125301442D01*
X231253709Y-125121021D01*
X231645716Y-124859090D01*
X231979090Y-124525716D01*
X232241021Y-124133709D01*
X232421442Y-123698135D01*
X232513419Y-123235731D01*
X232513419Y-122764269D01*
X232421442Y-122301865D01*
X232241021Y-121866291D01*
X231979090Y-121474284D01*
X231645716Y-121140910D01*
X231253709Y-120878979D01*
X230818135Y-120698558D01*
X230355731Y-120606581D01*
X229884269Y-120606581D01*
X229421865Y-120698558D01*
X228986291Y-120878979D01*
X228594284Y-121140910D01*
X228260910Y-121474284D01*
X227998979Y-121866291D01*
X227818558Y-122301865D01*
X227726581Y-122764269D01*
X217235000Y-122764269D01*
X217235000Y-91463896D01*
X218385000Y-91463896D01*
X218385001Y-114536105D01*
X218388229Y-114568875D01*
X218388098Y-114587559D01*
X218389099Y-114597772D01*
X218450300Y-115180062D01*
X218463710Y-115245388D01*
X218476179Y-115310756D01*
X218479143Y-115320572D01*
X218479144Y-115320579D01*
X218479147Y-115320585D01*
X218652282Y-115879894D01*
X218678095Y-115941301D01*
X218703051Y-116003069D01*
X218707869Y-116012130D01*
X218986345Y-116527162D01*
X219023608Y-116582408D01*
X219060074Y-116638133D01*
X219066560Y-116646086D01*
X219439770Y-117097219D01*
X219487060Y-117144180D01*
X219533648Y-117191754D01*
X219541555Y-117198296D01*
X219995283Y-117568348D01*
X220050776Y-117605217D01*
X220105737Y-117642850D01*
X220114764Y-117647731D01*
X220631728Y-117922605D01*
X220693367Y-117948011D01*
X220754548Y-117974233D01*
X220764351Y-117977268D01*
X221324859Y-118146495D01*
X221390251Y-118159443D01*
X221455367Y-118173284D01*
X221465573Y-118174357D01*
X222048276Y-118231492D01*
X222048277Y-118231492D01*
X222083895Y-118235000D01*
X238156105Y-118235000D01*
X238188884Y-118231772D01*
X238207559Y-118231902D01*
X238217772Y-118230901D01*
X238800062Y-118169700D01*
X238865388Y-118156290D01*
X238930756Y-118143821D01*
X238940572Y-118140857D01*
X238940579Y-118140856D01*
X238940585Y-118140853D01*
X239499894Y-117967718D01*
X239561301Y-117941905D01*
X239623069Y-117916949D01*
X239632130Y-117912131D01*
X240147162Y-117633655D01*
X240202408Y-117596392D01*
X240258133Y-117559926D01*
X240266086Y-117553440D01*
X240717219Y-117180230D01*
X240764180Y-117132940D01*
X240811754Y-117086352D01*
X240818296Y-117078445D01*
X241188348Y-116624717D01*
X241225217Y-116569224D01*
X241262850Y-116514263D01*
X241267731Y-116505236D01*
X241542605Y-115988272D01*
X241568011Y-115926633D01*
X241594233Y-115865452D01*
X241597268Y-115855649D01*
X241766495Y-115295141D01*
X241779443Y-115229749D01*
X241793284Y-115164633D01*
X241794357Y-115154427D01*
X241851492Y-114571724D01*
X241851492Y-114571723D01*
X241855000Y-114536105D01*
X241855000Y-91463895D01*
X241851772Y-91431116D01*
X241851902Y-91412441D01*
X241850901Y-91402227D01*
X241789700Y-90819938D01*
X241776294Y-90754631D01*
X241763821Y-90689245D01*
X241760857Y-90679428D01*
X241760856Y-90679421D01*
X241760853Y-90679415D01*
X241587718Y-90120107D01*
X241561903Y-90058696D01*
X241536949Y-89996931D01*
X241532131Y-89987870D01*
X241253655Y-89472838D01*
X241216392Y-89417592D01*
X241179926Y-89361867D01*
X241173440Y-89353914D01*
X240800230Y-88902781D01*
X240752957Y-88855837D01*
X240706352Y-88808246D01*
X240698445Y-88801704D01*
X240244717Y-88431652D01*
X240189198Y-88394765D01*
X240134263Y-88357151D01*
X240125236Y-88352269D01*
X239608272Y-88077395D01*
X239546633Y-88051989D01*
X239485452Y-88025767D01*
X239475649Y-88022732D01*
X238915141Y-87853505D01*
X238849781Y-87840563D01*
X238784633Y-87826716D01*
X238774427Y-87825643D01*
X238191724Y-87768508D01*
X238191723Y-87768508D01*
X238156105Y-87765000D01*
X222083895Y-87765000D01*
X222051116Y-87768228D01*
X222032441Y-87768098D01*
X222022227Y-87769099D01*
X221439938Y-87830300D01*
X221374631Y-87843706D01*
X221309245Y-87856179D01*
X221299428Y-87859143D01*
X221299421Y-87859144D01*
X221299415Y-87859147D01*
X220740107Y-88032282D01*
X220678696Y-88058097D01*
X220616931Y-88083051D01*
X220607870Y-88087869D01*
X220092838Y-88366345D01*
X220037592Y-88403608D01*
X219981867Y-88440074D01*
X219973914Y-88446560D01*
X219522781Y-88819770D01*
X219475837Y-88867043D01*
X219428246Y-88913648D01*
X219421704Y-88921555D01*
X219051652Y-89375283D01*
X219014765Y-89430802D01*
X218977151Y-89485737D01*
X218972269Y-89494764D01*
X218697395Y-90011728D01*
X218671989Y-90073367D01*
X218645767Y-90134548D01*
X218642732Y-90144351D01*
X218473505Y-90704859D01*
X218460563Y-90770219D01*
X218446716Y-90835367D01*
X218445643Y-90845573D01*
X218388508Y-91428276D01*
X218385000Y-91463896D01*
X217235000Y-91463896D01*
X217235000Y-82764269D01*
X227726581Y-82764269D01*
X227726581Y-83235731D01*
X227818558Y-83698135D01*
X227998979Y-84133709D01*
X228260910Y-84525716D01*
X228594284Y-84859090D01*
X228986291Y-85121021D01*
X229421865Y-85301442D01*
X229884269Y-85393419D01*
X230355731Y-85393419D01*
X230818135Y-85301442D01*
X231253709Y-85121021D01*
X231645716Y-84859090D01*
X231979090Y-84525716D01*
X232241021Y-84133709D01*
X232421442Y-83698135D01*
X232513419Y-83235731D01*
X232513419Y-82764269D01*
X232421442Y-82301865D01*
X232241021Y-81866291D01*
X231979090Y-81474284D01*
X231645716Y-81140910D01*
X231253709Y-80878979D01*
X230818135Y-80698558D01*
X230355731Y-80606581D01*
X229884269Y-80606581D01*
X229421865Y-80698558D01*
X228986291Y-80878979D01*
X228594284Y-81140910D01*
X228260910Y-81474284D01*
X227998979Y-81866291D01*
X227818558Y-82301865D01*
X227726581Y-82764269D01*
X217235000Y-82764269D01*
X217235000Y-78463895D01*
X217231873Y-78432151D01*
X217231938Y-78422915D01*
X217230937Y-78412701D01*
X217200337Y-78121556D01*
X217186927Y-78056230D01*
X217174458Y-77990862D01*
X217171493Y-77981037D01*
X217084925Y-77701382D01*
X217059097Y-77639940D01*
X217034154Y-77578203D01*
X217029336Y-77569142D01*
X216890097Y-77311626D01*
X216852842Y-77256394D01*
X216816369Y-77200658D01*
X216809884Y-77192705D01*
X216623279Y-76967138D01*
X216575972Y-76920160D01*
X216529400Y-76872602D01*
X216521493Y-76866060D01*
X216294629Y-76681034D01*
X216239121Y-76644155D01*
X216184176Y-76606533D01*
X216175149Y-76601652D01*
X215916668Y-76464215D01*
X215855088Y-76438833D01*
X215793849Y-76412586D01*
X215784045Y-76409551D01*
X215503791Y-76324937D01*
X215438401Y-76311990D01*
X215373281Y-76298148D01*
X215363077Y-76297075D01*
X215363075Y-76297075D01*
X215071723Y-76268508D01*
X215036105Y-76265000D01*
X55963895Y-76265000D01*
X55932151Y-76268127D01*
X55922915Y-76268062D01*
X55912701Y-76269063D01*
X55621556Y-76299663D01*
X55556230Y-76313073D01*
X55490862Y-76325542D01*
X55481037Y-76328507D01*
X55201382Y-76415075D01*
X55139938Y-76440904D01*
X55078206Y-76465845D01*
X55069148Y-76470661D01*
X55069143Y-76470663D01*
X55069139Y-76470666D01*
X54811628Y-76609901D01*
X54756373Y-76647171D01*
X54700656Y-76683631D01*
X54692703Y-76690117D01*
X54467138Y-76876721D01*
X54420160Y-76924028D01*
X54372603Y-76970599D01*
X54366061Y-76978506D01*
X54181035Y-77205370D01*
X54144148Y-77260889D01*
X54106534Y-77315824D01*
X54101652Y-77324851D01*
X53964215Y-77583333D01*
X53938831Y-77644920D01*
X53912587Y-77706151D01*
X53909552Y-77715955D01*
X53824938Y-77996209D01*
X53811991Y-78061599D01*
X53798149Y-78126719D01*
X53797076Y-78136925D01*
X53768680Y-78426528D01*
X53765000Y-78463896D01*
X38875000Y-78463896D01*
X38875000Y-68984999D01*
X253005000Y-68984999D01*
X253005001Y-133914999D01*
M02*
