%TF.GenerationSoftware,KiCad,Pcbnew,5.1.6*%
%TF.CreationDate,2020-07-29T12:52:39+02:00*%
%TF.ProjectId,backplate,6261636b-706c-4617-9465-2e6b69636164,rev?*%
%TF.SameCoordinates,Original*%
%TF.FileFunction,Profile,NP*%
%FSLAX46Y46*%
G04 Gerber Fmt 4.6, Leading zero omitted, Abs format (unit mm)*
G04 Created by KiCad (PCBNEW 5.1.6) date 2020-07-29 12:52:39*
%MOMM*%
%LPD*%
G01*
G04 APERTURE LIST*
%TA.AperFunction,Profile*%
%ADD10C,0.200000*%
%TD*%
G04 APERTURE END LIST*
D10*
X253740000Y-68249999D02*
X253740000Y-134649999D01*
X219120000Y-91500000D02*
G75*
G02*
X222120000Y-88500000I3000000J0D01*
G01*
X222120000Y-117500000D02*
X238120000Y-117500000D01*
X222120000Y-117500000D02*
G75*
G02*
X219120000Y-114500000I0J3000000D01*
G01*
X231770000Y-83000000D02*
G75*
G03*
X231770000Y-83000000I-1650000J0D01*
G01*
X241120000Y-114500000D02*
X241120000Y-91500000D01*
X238120000Y-88500000D02*
G75*
G02*
X241120000Y-91500000I0J-3000000D01*
G01*
X241120000Y-114500000D02*
G75*
G02*
X238120000Y-117500000I-3000000J0D01*
G01*
X238120000Y-88500000D02*
X222120000Y-88500000D01*
X231770000Y-123000000D02*
G75*
G03*
X231770000Y-123000000I-1650000J0D01*
G01*
X38140000Y-134649999D02*
X38140000Y-68249999D01*
X219120000Y-91500000D02*
X219120000Y-114500000D01*
X38140000Y-68249999D02*
X253740000Y-68249999D01*
X253740000Y-134649999D02*
X38140000Y-134649999D01*
X215000000Y-77000000D02*
G75*
G02*
X216500000Y-78500000I0J-1500000D01*
G01*
X216500000Y-127500000D02*
X216500000Y-78500000D01*
X216500001Y-127499999D02*
G75*
G02*
X215000000Y-129000000I-1500001J0D01*
G01*
X56000000Y-129000000D02*
X215000000Y-129000000D01*
X56000001Y-128999999D02*
G75*
G02*
X54500000Y-127500000I-1J1500000D01*
G01*
X54500000Y-78500000D02*
X54500000Y-127500000D01*
X54500001Y-78499999D02*
G75*
G02*
X56000000Y-77000000I1499999J0D01*
G01*
X215000000Y-77000000D02*
X56000000Y-77000000D01*
M02*
