%TF.GenerationSoftware,KiCad,Pcbnew,5.1.6*%
%TF.CreationDate,2020-07-29T12:44:49+02:00*%
%TF.ProjectId,frontplate,66726f6e-7470-46c6-9174-652e6b696361,rev?*%
%TF.SameCoordinates,Original*%
%TF.FileFunction,Profile,NP*%
%FSLAX46Y46*%
G04 Gerber Fmt 4.6, Leading zero omitted, Abs format (unit mm)*
G04 Created by KiCad (PCBNEW 5.1.6) date 2020-07-29 12:44:49*
%MOMM*%
%LPD*%
G01*
G04 APERTURE LIST*
%TA.AperFunction,Profile*%
%ADD10C,0.200000*%
%TD*%
G04 APERTURE END LIST*
D10*
X200146393Y-108646500D02*
X200146393Y-107766904D01*
X197553607Y-109146500D02*
X199646393Y-109146500D01*
X103242886Y-72550001D02*
G75*
G02*
X103950000Y-73257101I353557J-353550D01*
G01*
X197053607Y-108646500D02*
X197053607Y-107766904D01*
X103950000Y-91242900D02*
G75*
G02*
X103242886Y-91950000I-353557J-353550D01*
G01*
X197553607Y-109146500D02*
G75*
G02*
X197053607Y-108646500I0J500000D01*
G01*
X63000000Y-132050000D02*
X63000000Y-65650000D01*
X82757112Y-91950000D02*
G75*
G02*
X82050000Y-91242900I-353556J353550D01*
G01*
X278600000Y-65650000D02*
X278600000Y-132050000D01*
X63000000Y-65650000D02*
X278600000Y-65650000D01*
X98926393Y-117730431D02*
G75*
G02*
X87226393Y-118093476I-5926393J2280431D01*
G01*
X103242886Y-72550001D02*
X82757113Y-72550000D01*
X103950000Y-91242900D02*
X103950000Y-73257101D01*
X82757112Y-91950000D02*
X103242886Y-91950000D01*
X98926393Y-113169569D02*
X98926393Y-117730432D01*
X87226393Y-118093476D02*
X87226393Y-112806525D01*
X200146393Y-108646500D02*
G75*
G02*
X199646393Y-109146500I-500000J0D01*
G01*
X278600000Y-132050000D02*
X63000000Y-132050000D01*
X82049999Y-73257102D02*
G75*
G02*
X82757113Y-72550000I353557J353551D01*
G01*
X87226393Y-112806524D02*
G75*
G02*
X98926393Y-113169569I5773607J-2643476D01*
G01*
X82049999Y-73257102D02*
X82050000Y-91242900D01*
X190100000Y-95743153D02*
X190100000Y-101956848D01*
X197053607Y-107766904D02*
G75*
G02*
X190100000Y-101956848I1546393J8916904D01*
G01*
X207100000Y-101956847D02*
G75*
G02*
X200146393Y-107766904I-8500000J3106847D01*
G01*
X190100000Y-95743152D02*
G75*
G02*
X207100000Y-95743153I8500000J-3106848D01*
G01*
X207100000Y-101956848D02*
X207100000Y-95743153D01*
M02*
