%TF.GenerationSoftware,KiCad,Pcbnew,5.1.6*%
%TF.CreationDate,2020-07-29T12:33:10+02:00*%
%TF.ProjectId,frontpanel,66726f6e-7470-4616-9e65-6c2e6b696361,rev?*%
%TF.SameCoordinates,Original*%
%TF.FileFunction,Legend,Top*%
%TF.FilePolarity,Positive*%
%FSLAX46Y46*%
G04 Gerber Fmt 4.6, Leading zero omitted, Abs format (unit mm)*
G04 Created by KiCad (PCBNEW 5.1.6) date 2020-07-29 12:33:10*
%MOMM*%
%LPD*%
G01*
G04 APERTURE LIST*
%ADD10C,0.300000*%
%ADD11C,0.600000*%
G04 APERTURE END LIST*
D10*
X223519285Y-126357142D02*
X221805000Y-126357142D01*
X222662142Y-126357142D02*
X222662142Y-123357142D01*
X222376428Y-123785714D01*
X222090714Y-124071428D01*
X221805000Y-124214285D01*
X224662142Y-123642857D02*
X224805000Y-123500000D01*
X225090714Y-123357142D01*
X225805000Y-123357142D01*
X226090714Y-123500000D01*
X226233571Y-123642857D01*
X226376428Y-123928571D01*
X226376428Y-124214285D01*
X226233571Y-124642857D01*
X224519285Y-126357142D01*
X226376428Y-126357142D01*
X227233571Y-123357142D02*
X228233571Y-126357142D01*
X229233571Y-123357142D01*
X230376428Y-126214285D02*
X230376428Y-126357142D01*
X230233571Y-126642857D01*
X230090714Y-126785714D01*
X233662142Y-123357142D02*
X235519285Y-123357142D01*
X234519285Y-124500000D01*
X234947857Y-124500000D01*
X235233571Y-124642857D01*
X235376428Y-124785714D01*
X235519285Y-125071428D01*
X235519285Y-125785714D01*
X235376428Y-126071428D01*
X235233571Y-126214285D01*
X234947857Y-126357142D01*
X234090714Y-126357142D01*
X233805000Y-126214285D01*
X233662142Y-126071428D01*
X236662142Y-125500000D02*
X238090714Y-125500000D01*
X236376428Y-126357142D02*
X237376428Y-123357142D01*
X238376428Y-126357142D01*
X244090714Y-126357142D02*
X243947857Y-126357142D01*
X243662142Y-126214285D01*
X243233571Y-125785714D01*
X242519285Y-124928571D01*
X242233571Y-124500000D01*
X242090714Y-124071428D01*
X242090714Y-123785714D01*
X242233571Y-123500000D01*
X242519285Y-123357142D01*
X242662142Y-123357142D01*
X242947857Y-123500000D01*
X243090714Y-123785714D01*
X243090714Y-123928571D01*
X242947857Y-124214285D01*
X242805000Y-124357142D01*
X241947857Y-124928571D01*
X241805000Y-125071428D01*
X241662142Y-125357142D01*
X241662142Y-125785714D01*
X241805000Y-126071428D01*
X241947857Y-126214285D01*
X242233571Y-126357142D01*
X242662142Y-126357142D01*
X242947857Y-126214285D01*
X243090714Y-126071428D01*
X243519285Y-125500000D01*
X243662142Y-125071428D01*
X243662142Y-124785714D01*
X249090714Y-123357142D02*
X247662142Y-123357142D01*
X247519285Y-124785714D01*
X247662142Y-124642857D01*
X247947857Y-124500000D01*
X248662142Y-124500000D01*
X248947857Y-124642857D01*
X249090714Y-124785714D01*
X249233571Y-125071428D01*
X249233571Y-125785714D01*
X249090714Y-126071428D01*
X248947857Y-126214285D01*
X248662142Y-126357142D01*
X247947857Y-126357142D01*
X247662142Y-126214285D01*
X247519285Y-126071428D01*
X250090714Y-123357142D02*
X251090714Y-126357142D01*
X252090714Y-123357142D01*
X253233571Y-126214285D02*
X253233571Y-126357142D01*
X253090714Y-126642857D01*
X252947857Y-126785714D01*
X257376428Y-123357142D02*
X257662142Y-123357142D01*
X257947857Y-123500000D01*
X258090714Y-123642857D01*
X258233571Y-123928571D01*
X258376428Y-124500000D01*
X258376428Y-125214285D01*
X258233571Y-125785714D01*
X258090714Y-126071428D01*
X257947857Y-126214285D01*
X257662142Y-126357142D01*
X257376428Y-126357142D01*
X257090714Y-126214285D01*
X256947857Y-126071428D01*
X256805000Y-125785714D01*
X256662142Y-125214285D01*
X256662142Y-124500000D01*
X256805000Y-123928571D01*
X256947857Y-123642857D01*
X257090714Y-123500000D01*
X257376428Y-123357142D01*
X259662142Y-126071428D02*
X259805000Y-126214285D01*
X259662142Y-126357142D01*
X259519285Y-126214285D01*
X259662142Y-126071428D01*
X259662142Y-126357142D01*
X262519285Y-123357142D02*
X261090714Y-123357142D01*
X260947857Y-124785714D01*
X261090714Y-124642857D01*
X261376428Y-124500000D01*
X262090714Y-124500000D01*
X262376428Y-124642857D01*
X262519285Y-124785714D01*
X262662142Y-125071428D01*
X262662142Y-125785714D01*
X262519285Y-126071428D01*
X262376428Y-126214285D01*
X262090714Y-126357142D01*
X261376428Y-126357142D01*
X261090714Y-126214285D01*
X260947857Y-126071428D01*
X263805000Y-125500000D02*
X265233571Y-125500000D01*
X263519285Y-126357142D02*
X264519285Y-123357142D01*
X265519285Y-126357142D01*
D11*
X167705238Y-118809523D02*
X167705238Y-114809523D01*
X169990952Y-118809523D01*
X169990952Y-114809523D01*
X173419523Y-118619047D02*
X173038571Y-118809523D01*
X172276666Y-118809523D01*
X171895714Y-118619047D01*
X171705238Y-118238095D01*
X171705238Y-116714285D01*
X171895714Y-116333333D01*
X172276666Y-116142857D01*
X173038571Y-116142857D01*
X173419523Y-116333333D01*
X173610000Y-116714285D01*
X173610000Y-117095238D01*
X171705238Y-117476190D01*
X174752857Y-116142857D02*
X176276666Y-116142857D01*
X175324285Y-114809523D02*
X175324285Y-118238095D01*
X175514761Y-118619047D01*
X175895714Y-118809523D01*
X176276666Y-118809523D01*
X177229047Y-116142857D02*
X179324285Y-116142857D01*
X177229047Y-118809523D01*
X179324285Y-118809523D01*
X180276666Y-116142857D02*
X181800476Y-116142857D01*
X180848095Y-114809523D02*
X180848095Y-118238095D01*
X181038571Y-118619047D01*
X181419523Y-118809523D01*
X181800476Y-118809523D01*
X184657619Y-118619047D02*
X184276666Y-118809523D01*
X183514761Y-118809523D01*
X183133809Y-118619047D01*
X182943333Y-118238095D01*
X182943333Y-116714285D01*
X183133809Y-116333333D01*
X183514761Y-116142857D01*
X184276666Y-116142857D01*
X184657619Y-116333333D01*
X184848095Y-116714285D01*
X184848095Y-117095238D01*
X182943333Y-117476190D01*
X186562380Y-118809523D02*
X186562380Y-116142857D01*
X186562380Y-114809523D02*
X186371904Y-115000000D01*
X186562380Y-115190476D01*
X186752857Y-115000000D01*
X186562380Y-114809523D01*
X186562380Y-115190476D01*
X189038571Y-118809523D02*
X188657619Y-118619047D01*
X188467142Y-118238095D01*
X188467142Y-114809523D01*
X193038571Y-116142857D02*
X194562380Y-116142857D01*
X193610000Y-118809523D02*
X193610000Y-115380952D01*
X193800476Y-115000000D01*
X194181428Y-114809523D01*
X194562380Y-114809523D01*
X197610000Y-116142857D02*
X197610000Y-118809523D01*
X195895714Y-116142857D02*
X195895714Y-118238095D01*
X196086190Y-118619047D01*
X196467142Y-118809523D01*
X197038571Y-118809523D01*
X197419523Y-118619047D01*
X197610000Y-118428571D01*
X196086190Y-114809523D02*
X196276666Y-115000000D01*
X196086190Y-115190476D01*
X195895714Y-115000000D01*
X196086190Y-114809523D01*
X196086190Y-115190476D01*
X197610000Y-114809523D02*
X197800476Y-115000000D01*
X197610000Y-115190476D01*
X197419523Y-115000000D01*
X197610000Y-114809523D01*
X197610000Y-115190476D01*
X199514761Y-118809523D02*
X199514761Y-116142857D01*
X199514761Y-116904761D02*
X199705238Y-116523809D01*
X199895714Y-116333333D01*
X200276666Y-116142857D01*
X200657619Y-116142857D01*
X204657619Y-114809523D02*
X207324285Y-114809523D01*
X205610000Y-118809523D01*
X208848095Y-117285714D02*
X211895714Y-117285714D01*
X213610000Y-118619047D02*
X214181428Y-118809523D01*
X215133809Y-118809523D01*
X215514761Y-118619047D01*
X215705238Y-118428571D01*
X215895714Y-118047619D01*
X215895714Y-117666666D01*
X215705238Y-117285714D01*
X215514761Y-117095238D01*
X215133809Y-116904761D01*
X214371904Y-116714285D01*
X213990952Y-116523809D01*
X213800476Y-116333333D01*
X213610000Y-115952380D01*
X213610000Y-115571428D01*
X213800476Y-115190476D01*
X213990952Y-115000000D01*
X214371904Y-114809523D01*
X215324285Y-114809523D01*
X215895714Y-115000000D01*
X219133809Y-118619047D02*
X218752857Y-118809523D01*
X217990952Y-118809523D01*
X217610000Y-118619047D01*
X217419523Y-118238095D01*
X217419523Y-116714285D01*
X217610000Y-116333333D01*
X217990952Y-116142857D01*
X218752857Y-116142857D01*
X219133809Y-116333333D01*
X219324285Y-116714285D01*
X219324285Y-117095238D01*
X217419523Y-117476190D01*
X222752857Y-116142857D02*
X222752857Y-119380952D01*
X222562380Y-119761904D01*
X222371904Y-119952380D01*
X221990952Y-120142857D01*
X221419523Y-120142857D01*
X221038571Y-119952380D01*
X222752857Y-118619047D02*
X222371904Y-118809523D01*
X221609999Y-118809523D01*
X221229047Y-118619047D01*
X221038571Y-118428571D01*
X220848095Y-118047619D01*
X220848095Y-116904761D01*
X221038571Y-116523809D01*
X221229047Y-116333333D01*
X221609999Y-116142857D01*
X222371904Y-116142857D01*
X222752857Y-116333333D01*
X224657619Y-118809523D02*
X224657619Y-116142857D01*
X224657619Y-116523809D02*
X224848095Y-116333333D01*
X225229047Y-116142857D01*
X225800476Y-116142857D01*
X226181428Y-116333333D01*
X226371904Y-116714285D01*
X226371904Y-118809523D01*
X226371904Y-116714285D02*
X226562380Y-116333333D01*
X226943333Y-116142857D01*
X227514761Y-116142857D01*
X227895714Y-116333333D01*
X228086190Y-116714285D01*
X228086190Y-118809523D01*
X231514761Y-118619047D02*
X231133809Y-118809523D01*
X230371904Y-118809523D01*
X229990952Y-118619047D01*
X229800476Y-118238095D01*
X229800476Y-116714285D01*
X229990952Y-116333333D01*
X230371904Y-116142857D01*
X231133809Y-116142857D01*
X231514761Y-116333333D01*
X231705238Y-116714285D01*
X231705238Y-117095238D01*
X229800476Y-117476190D01*
X233419523Y-116142857D02*
X233419523Y-118809523D01*
X233419523Y-116523809D02*
X233609999Y-116333333D01*
X233990952Y-116142857D01*
X234562380Y-116142857D01*
X234943333Y-116333333D01*
X235133809Y-116714285D01*
X235133809Y-118809523D01*
X236467142Y-116142857D02*
X237990952Y-116142857D01*
X237038571Y-114809523D02*
X237038571Y-118238095D01*
X237229047Y-118619047D01*
X237609999Y-118809523D01*
X237990952Y-118809523D01*
X244276666Y-118809523D02*
X242371904Y-118809523D01*
X242371904Y-114809523D01*
X245609999Y-116714285D02*
X246943333Y-116714285D01*
X247514761Y-118809523D02*
X245609999Y-118809523D01*
X245609999Y-114809523D01*
X247514761Y-114809523D01*
X249229047Y-118809523D02*
X249229047Y-114809523D01*
X250181428Y-114809523D01*
X250752857Y-115000000D01*
X251133809Y-115380952D01*
X251324285Y-115761904D01*
X251514761Y-116523809D01*
X251514761Y-117095238D01*
X251324285Y-117857142D01*
X251133809Y-118238095D01*
X250752857Y-118619047D01*
X250181428Y-118809523D01*
X249229047Y-118809523D01*
X256276666Y-114809523D02*
X256276666Y-118047619D01*
X256467142Y-118428571D01*
X256657619Y-118619047D01*
X257038571Y-118809523D01*
X257800476Y-118809523D01*
X258181428Y-118619047D01*
X258371904Y-118428571D01*
X258562380Y-118047619D01*
X258562380Y-114809523D01*
X260467142Y-118809523D02*
X260467142Y-114809523D01*
X262181428Y-118809523D02*
X262181428Y-116714285D01*
X261990952Y-116333333D01*
X261609999Y-116142857D01*
X261038571Y-116142857D01*
X260657619Y-116333333D01*
X260467142Y-116523809D01*
X264086190Y-118809523D02*
X264086190Y-116142857D01*
X264086190Y-116904761D02*
X264276666Y-116523809D01*
X264467142Y-116333333D01*
X264848095Y-116142857D01*
X265229047Y-116142857D01*
M02*
