M48
; DRILL file {KiCad 5.1.6} date 07/29/20 11:54:04
; FORMAT={-:-/ absolute / metric / decimal}
; #@! TF.CreationDate,2020-07-29T11:54:04+02:00
; #@! TF.GenerationSoftware,Kicad,Pcbnew,5.1.6
; #@! TF.FileFunction,Plated,1,2,PTH
FMAT,2
METRIC
T1C0.750
T2C0.800
T3C0.900
T4C1.100
T5C1.200
T6C1.300
T7C1.700
T8C2.000
T9C3.200
T10C4.300
T11C5.300
%
G90
G05
T1
X152.96Y-219.5
X154.23Y-219.5
X155.5Y-219.5
T2
X49.5Y-112.5
X49.5Y-122.66
X106.5Y-112.5
X106.5Y-122.66
X109.5Y-112.5
X109.5Y-122.66
X46.5Y-112.5
X46.5Y-122.66
X59.5Y-137.5
X59.5Y-147.66
X65.0Y-137.5
X65.0Y-147.66
X92.0Y-118.84
X92.0Y-129.0
X146.0Y-209.5
X156.16Y-209.5
X80.0Y-118.84
X80.0Y-129.0
X149.0Y-233.0
X149.0Y-240.62
X86.0Y-118.84
X86.0Y-129.0
X147.0Y-192.0
X149.5Y-192.0
X89.0Y-118.84
X89.0Y-129.0
X147.5Y-195.88
X147.5Y-203.5
X150.04Y-195.88
X150.04Y-203.5
X152.58Y-195.88
X152.58Y-203.5
X155.12Y-195.88
X155.12Y-203.5
X146.0Y-212.5
X156.16Y-212.5
X168.0Y-214.0
X175.5Y-216.9
X146.0Y-215.5
X156.16Y-215.5
X98.14Y-118.84
X98.14Y-129.0
X95.0Y-118.84
X95.0Y-129.0
X101.0Y-118.84
X101.0Y-129.0
X83.0Y-118.84
X83.0Y-129.0
X146.5Y-220.0
X148.5Y-220.0
X146.5Y-206.5
X149.0Y-206.5
X152.5Y-192.0
X155.0Y-192.0
X95.0Y-116.0
X97.5Y-116.0
X113.5Y-122.0
X115.5Y-122.0
X61.5Y-122.0
X63.5Y-122.0
X83.5Y-116.0
X86.0Y-116.0
X53.5Y-122.0
X55.5Y-122.0
X121.5Y-122.0
X123.5Y-122.0
T3
X56.96Y-132.5
X59.5Y-132.5
X65.0Y-132.5
X67.54Y-132.5
T4
X53.34Y-116.5
X63.5Y-116.5
X55.46Y-112.5
X58.0Y-112.5
X60.54Y-112.5
X115.46Y-112.5
X118.0Y-112.5
X120.54Y-112.5
X113.34Y-116.5
X123.5Y-116.5
T5
X113.5Y-140.92
X113.5Y-143.46
X113.5Y-146.0
T6
X193.0Y-207.0
X193.0Y-244.5
X170.0Y-260.5
X170.0Y-265.5
X170.0Y-270.5
X170.0Y-275.5
X162.25Y-112.25
X172.25Y-112.25
X179.75Y-112.25
X187.25Y-112.25
X154.6Y-233.0
X154.6Y-240.5
X173.5Y-233.0
X176.7Y-240.5
X179.9Y-233.0
T7
X133.58Y-251.0
X137.54Y-251.0
X141.5Y-251.0
X145.46Y-251.0
T8
X132.0Y-170.0
X142.0Y-170.0
X158.0Y-170.0
X168.0Y-170.0
X132.0Y-142.0
X142.0Y-142.0
X158.0Y-142.0
X168.0Y-142.0
T9
X121.46Y-133.3
X32.56Y-257.0
X188.14Y-257.0
X188.14Y-133.3
X32.56Y-163.3
X121.46Y-257.0
T10
X80.5Y-104.0
X160.5Y-104.0
T11
X77.0Y-210.15
T0
M30
