0
SECTION
2
HEADER
9
$INSUNITS
70
4
9
$ACADVER
1
AC1014
9
$HANDSEED
5
FFFF
0
ENDSEC
0
SECTION
2
TABLES
0
TABLE
2
VPORT
5
8
100
AcDbSymbolTable
0
ENDTAB
0
TABLE
2
LTYPE
5
5
100
AcDbSymbolTable
0
LTYPE
5
14
100
AcDbSymbolTableRecord
100
AcDbLinetypeTableRecord
2
BYBLOCK
70
0
0
LTYPE
5
15
100
AcDbSymbolTableRecord
100
AcDbLinetypeTableRecord
2
BYLAYER
70
0
0
ENDTAB
0
TABLE
2
LAYER
5
2
100
AcDbSymbolTable
70
2
0
LAYER
5
50
100
AcDbSymbolTableRecord
100
AcDbLayerTableRecord
2
0
70
0
6
CONTINUOUS
0
ENDTAB
0
TABLE
2
STYLE
5
3
100
AcDbSymbolTable
70
1
0
STYLE
5
11
100
AcDbSymbolTableRecord
100
AcDbTextStyleTableRecord
2
STANDARD
70
0
0
ENDTAB
0
TABLE
2
VIEW
5
6
100
AcDbSymbolTable
70
0
0
ENDTAB
0
TABLE
2
UCS
5
7
100
AcDbSymbolTable
70
0
0
ENDTAB
0
TABLE
2
APPID
5
9
100
AcDbSymbolTable
70
2
0
APPID
5
12
100
AcDbSymbolTableRecord
100
AcDbRegAppTableRecord
2
ACAD
70
0
0
ENDTAB
0
TABLE
2
DIMSTYLE
5
A
100
AcDbSymbolTable
70
1
0
ENDTAB
0
TABLE
2
BLOCK_RECORD
5
1
100
AcDbSymbolTable
70
1
0
BLOCK_RECORD
5
1F
100
AcDbSymbolTableRecord
100
AcDbBlockTableRecord
2
*MODEL_SPACE
0
BLOCK_RECORD
5
1B
100
AcDbSymbolTableRecord
100
AcDbBlockTableRecord
2
*PAPER_SPACE
0
ENDTAB
0
ENDSEC
0
SECTION
2
BLOCKS
0
BLOCK
5
20
100
AcDbEntity
100
AcDbBlockBegin
2
*MODEL_SPACE
0
ENDBLK
5
21
100
AcDbEntity
100
AcDbBlockEnd
0
BLOCK
5
1C
100
AcDbEntity
100
AcDbBlockBegin
2
*PAPER_SPACE
0
ENDBLK
5
1D
100
AcDbEntity
100
AcDbBlockEnd
0
ENDSEC
0
SECTION
2
ENTITIES
0
LWPOLYLINE
5
100
100
AcDbEntity
8
0
100
AcDbPolyline
90
8
70
1
43
0.0
10
588.78622923977662
20
25.890000000000136
10
588.78622923977662
20
27.098943015504389
42
0.27273859556278901
10
595.88622923977664
20
32.933152723418956
10
595.88622923977664
20
39.146847276581333
42
0.69919443804927806
10
578.88622923977653
20
39.146847276581241
10
578.88622923977653
20
32.933152723418928
42
0.27273859556278551
10
585.98622923977655
20
27.098943015504396
10
585.98622923977655
20
25.890000000000136
0
LWPOLYLINE
5
101
100
AcDbEntity
8
0
100
AcDbPolyline
90
4
70
1
43
0.0
10
476.01262216148649
20
22.083475232628583
42
-0.66410119189385919
10
487.71262216148648
20
21.720431305149653
10
487.71262216148642
20
17.159568694850854
42
-0.66410119189386307
10
476.01262216148655
20
16.796524767372063
0
LWPOLYLINE
5
102
100
AcDbEntity
8
0
100
AcDbPolyline
90
4
70
1
43
0.0
10
470.83622923977651
20
42.940000000000104
10
492.73622923977649
20
42.940000000000104
10
492.73622923977649
20
62.340000000000117
10
470.83622923977651
20
62.340000000000117
0
LWPOLYLINE
5
103
100
AcDbEntity
8
0
100
AcDbPolyline
90
4
70
1
43
0.0
10
667.38622923977664
20
2.840000000000003
10
451.78622923977656
20
2.840000000000007
10
451.78622923977656
20
69.240000000000009
10
667.38622923977664
20
69.240000000000009
0
ARC
5
104
100
AcDbEntity
8
0
100
AcDbCircle
10
471.18978595845851
20
61.986449937526864
30
0
40
0.49999999999999439
210
0
220
-0
230
1
100
AcDbArc
50
44.999460657604132
51
224.99946065759488
0
LINE
5
105
100
AcDbEntity
8
0
100
AcDbLine
10
481.7862292397765
20
62.340000000000117
30
0
11
481.7862292397765
21
42.940000000000104
31
0
0
LINE
5
106
100
AcDbEntity
8
0
100
AcDbLine
10
492.73622923977649
20
52.640000000000107
30
0
11
470.83622923977651
21
52.640000000000107
31
0
0
ARC
5
107
100
AcDbEntity
8
0
100
AcDbCircle
10
492.38267252109443
20
61.986449937526864
30
0
40
0.50000000000000067
210
-0
220
0
230
1
100
AcDbArc
50
-44.999460657590319
51
135.00053934239588
0
ARC
5
108
100
AcDbEntity
8
0
100
AcDbCircle
10
492.38267252109443
20
43.293550062473358
30
0
40
0.49999999999999439
210
0
220
0
230
1
100
AcDbArc
50
-135.00053934239588
51
44.999460657589744
0
ARC
5
109
100
AcDbEntity
8
0
100
AcDbCircle
10
471.18978595845851
20
43.293550062473358
30
0
40
0.50000000000000067
210
0
220
0
230
1
100
AcDbArc
50
135.00053934240566
51
315.00053934239588
0
ARC
5
110
100
AcDbEntity
8
0
100
AcDbCircle
10
586.33983601288173
20
26.243500000067435
30
0
40
0.49999999993830063
210
0
220
0
230
1
100
AcDbArc
50
135.00865166667225
51
315.00865165193278
0
LINE
5
111
100
AcDbEntity
8
0
100
AcDbLine
10
587.38622923977664
20
25.890000000000136
30
0
11
587.38622923977664
21
27.098943015504396
31
0
0
ARC
5
112
100
AcDbEntity
8
0
100
AcDbCircle
10
588.43262246667132
20
26.243500000067435
30
0
40
0.49999999999994504
210
0
220
0
230
1
100
AcDbArc
50
-135.00865165192357
51
44.991348333318555
0
LINE
5
113
100
AcDbEntity
8
0
100
AcDbLine
10
585.83983601294346
20
26.243500000067435
30
0
11
585.83983601294346
21
27.12309650226026
31
0
0
LINE
5
114
100
AcDbEntity
8
0
100
AcDbLine
10
586.33983601288173
20
25.743500000129135
30
0
11
588.43262246667132
21
25.743500000129135
31
0
0
LINE
5
115
100
AcDbEntity
8
0
100
AcDbLine
10
588.93262246667132
20
26.243500000067435
30
0
11
588.93262246667132
21
27.123096502270997
31
0
0
ENDSEC
0
SECTION
2
OBJECTS
0
DICTIONARY
5
C
100
AcDbDictionary
3
ACAD_GROUP
350
D
3
ACAD_MLINESTYLE
350
17
0
DICTIONARY
5
D
100
AcDbDictionary
0
DICTIONARY
5
1A
330
C
100
AcDbDictionary
0
DICTIONARY
5
17
100
AcDbDictionary
0
ENDSEC
0
EOF
