0
SECTION
2
HEADER
9
$INSUNITS
70
4
9
$ACADVER
1
AC1014
9
$HANDSEED
5
FFFF
0
ENDSEC
0
SECTION
2
TABLES
0
TABLE
2
VPORT
5
8
100
AcDbSymbolTable
0
ENDTAB
0
TABLE
2
LTYPE
5
5
100
AcDbSymbolTable
0
LTYPE
5
14
100
AcDbSymbolTableRecord
100
AcDbLinetypeTableRecord
2
BYBLOCK
70
0
0
LTYPE
5
15
100
AcDbSymbolTableRecord
100
AcDbLinetypeTableRecord
2
BYLAYER
70
0
0
ENDTAB
0
TABLE
2
LAYER
5
2
100
AcDbSymbolTable
70
2
0
LAYER
5
50
100
AcDbSymbolTableRecord
100
AcDbLayerTableRecord
2
0
70
0
6
CONTINUOUS
0
ENDTAB
0
TABLE
2
STYLE
5
3
100
AcDbSymbolTable
70
1
0
STYLE
5
11
100
AcDbSymbolTableRecord
100
AcDbTextStyleTableRecord
2
STANDARD
70
0
0
ENDTAB
0
TABLE
2
VIEW
5
6
100
AcDbSymbolTable
70
0
0
ENDTAB
0
TABLE
2
UCS
5
7
100
AcDbSymbolTable
70
0
0
ENDTAB
0
TABLE
2
APPID
5
9
100
AcDbSymbolTable
70
2
0
APPID
5
12
100
AcDbSymbolTableRecord
100
AcDbRegAppTableRecord
2
ACAD
70
0
0
ENDTAB
0
TABLE
2
DIMSTYLE
5
A
100
AcDbSymbolTable
70
1
0
ENDTAB
0
TABLE
2
BLOCK_RECORD
5
1
100
AcDbSymbolTable
70
1
0
BLOCK_RECORD
5
1F
100
AcDbSymbolTableRecord
100
AcDbBlockTableRecord
2
*MODEL_SPACE
0
BLOCK_RECORD
5
1B
100
AcDbSymbolTableRecord
100
AcDbBlockTableRecord
2
*PAPER_SPACE
0
ENDTAB
0
ENDSEC
0
SECTION
2
BLOCKS
0
BLOCK
5
20
100
AcDbEntity
100
AcDbBlockBegin
2
*MODEL_SPACE
0
ENDBLK
5
21
100
AcDbEntity
100
AcDbBlockEnd
0
BLOCK
5
1C
100
AcDbEntity
100
AcDbBlockBegin
2
*PAPER_SPACE
0
ENDBLK
5
1D
100
AcDbEntity
100
AcDbBlockEnd
0
ENDSEC
0
SECTION
2
ENTITIES
0
CIRCLE
5
100
100
AcDbEntity
8
0
100
AcDbCircle
10
-482.08622923977657
20
-346.69946986056226
30
0
40
2.5
210
0
220
-0
230
1
0
CIRCLE
5
101
100
AcDbEntity
8
0
100
AcDbCircle
10
-482.08622923977657
20
-316.6994698605622
30
0
40
2.5
210
0
220
-0
230
1
0
CIRCLE
5
102
100
AcDbEntity
8
0
100
AcDbCircle
10
-482.08622923977657
20
-286.6994698605622
30
0
40
2.5
210
0
220
-0
230
1
0
CIRCLE
5
103
100
AcDbEntity
8
0
100
AcDbCircle
10
-570.98622923977655
20
-376.69946986056226
30
0
40
2.5
210
0
220
-0
230
1
0
CIRCLE
5
104
100
AcDbEntity
8
0
100
AcDbCircle
10
-570.98622923977655
20
-346.69946986056226
30
0
40
2.5
210
0
220
-0
230
1
0
CIRCLE
5
105
100
AcDbEntity
8
0
100
AcDbCircle
10
-570.98622923977655
20
-316.6994698605622
30
0
40
2.5
210
0
220
-0
230
1
0
CIRCLE
5
106
100
AcDbEntity
8
0
100
AcDbCircle
10
-570.98622923977655
20
-286.6994698605622
30
0
40
2.5
210
0
220
-0
230
1
0
CIRCLE
5
107
100
AcDbEntity
8
0
100
AcDbCircle
10
-637.6662292397765
20
-286.6994698605622
30
0
40
2.5
210
0
220
-0
230
1
0
CIRCLE
5
108
100
AcDbEntity
8
0
100
AcDbCircle
10
-637.66622923977661
20
-316.6994698605622
30
0
40
2.5
210
0
220
-0
230
1
0
CIRCLE
5
109
100
AcDbEntity
8
0
100
AcDbCircle
10
-637.66622923977661
20
-346.69946986056226
30
0
40
2.5
210
0
220
-0
230
1
0
CIRCLE
5
110
100
AcDbEntity
8
0
100
AcDbCircle
10
-637.66622923977661
20
-376.69946986056226
30
0
40
2.5
210
0
220
-0
230
1
0
CIRCLE
5
111
100
AcDbEntity
8
0
100
AcDbCircle
10
-637.6662292397765
20
-256.6994698605622
30
0
40
2.5
210
0
220
-0
230
1
0
CIRCLE
5
112
100
AcDbEntity
8
0
100
AcDbCircle
10
-637.6662292397765
20
-222.99946986056224
30
0
40
2.5
210
0
220
-0
230
1
0
CIRCLE
5
113
100
AcDbEntity
8
0
100
AcDbCircle
10
-570.98622923977655
20
-222.99946986056224
30
0
40
2.5
210
0
220
-0
230
1
0
CIRCLE
5
114
100
AcDbEntity
8
0
100
AcDbCircle
10
-570.98622923977655
20
-256.6994698605622
30
0
40
2.5
210
0
220
-0
230
1
0
CIRCLE
5
115
100
AcDbEntity
8
0
100
AcDbCircle
10
-482.08622923977657
20
-256.6994698605622
30
0
40
2.5
210
0
220
-0
230
1
0
CIRCLE
5
116
100
AcDbEntity
8
0
100
AcDbCircle
10
-482.08622923977657
20
-222.99946986056224
30
0
40
2.5
210
0
220
-0
230
1
0
CIRCLE
5
117
100
AcDbEntity
8
0
100
AcDbCircle
10
-490.08622923977646
20
-206.49946986056221
30
0
40
1.2
210
0
220
0
230
1
0
CIRCLE
5
118
100
AcDbEntity
8
0
100
AcDbCircle
10
-474.08622923977646
20
-206.49946986056221
30
0
40
1.2
210
0
220
0
230
1
0
CIRCLE
5
119
100
AcDbEntity
8
0
100
AcDbCircle
10
-629.6662292397765
20
-206.49946986056221
30
0
40
1.2
210
0
220
0
230
1
0
CIRCLE
5
120
100
AcDbEntity
8
0
100
AcDbCircle
10
-645.6662292397765
20
-206.49946986056221
30
-1.1102230246251565e-15
40
1.2
210
0
220
0
230
1
0
CIRCLE
5
121
100
AcDbEntity
8
0
100
AcDbCircle
10
-482.08622923977657
20
-376.69946986056226
30
0
40
2.5
210
0
220
-0
230
1
0
LWPOLYLINE
5
122
100
AcDbEntity
8
0
100
AcDbPolyline
90
4
70
1
43
0.0
10
-464.78622923977645
20
-197.41446686116862
10
-464.78622923977645
20
-382.68447285995586
10
-654.96622923977657
20
-382.68447285995586
10
-654.96622923977657
20
-197.41446686116862
0
LINE
5
123
100
AcDbEntity
8
0
100
AcDbLine
10
-464.78622923977645
20
-197.41446686116862
30
0
11
-654.96622923977657
21
-382.68447285995586
31
0
0
LINE
5
124
100
AcDbEntity
8
0
100
AcDbLine
10
-464.78622923977645
20
-382.68447285995586
30
0
11
-654.96622923977657
21
-197.41446686116862
31
0
0
SPLINE
5
125
100
AcDbEntity
8
0
100
AcDbSpline
70
0
71
3
72
18
73
14
74
0
42
0.000000001
43
0.0000000001
44
0.0000000001
40
0
40
0
40
0
40
0
40
0.098035409536122636
40
0.098035409536122636
40
0.19279940768861314
40
0.19279940768861314
40
0.28429063592905518
40
0.28429063592905518
40
0.37250777837194859
40
0.37250777837194859
40
0.42385288738567767
40
0.42385288738567767
40
0.47402260125482998
40
0.47402260125482998
40
0.47402260125482998
40
0.47402260125482998
10
-518.12796650834753
20
-373.32647495814348
30
0
10
-518.43523022876832
20
-373.4377280266707
30
0
10
-518.71820682708562
20
-373.60697661992833
30
0
10
-519.1937854356886
20
-374.03853407402369
30
0
10
-519.38458956300383
20
-374.2935436349585
30
0
10
-519.65108669926497
20
-374.85327047197416
30
0
10
-519.72798062317725
20
-375.15074930946287
30
0
10
-519.76073104127499
20
-375.7475249406574
30
0
10
-519.72045777327435
20
-376.04079895280933
30
0
10
-519.56810077222303
20
-376.47883862408071
30
0
10
-519.49356202049262
20
-376.63295647157281
30
0
10
-519.31185788742607
20
-376.91710886646456
30
0
10
-519.20608313194111
20
-377.04665965798512
30
0
10
-519.08615493416778
20
-377.16238208981918
30
0
0
ARC
5
126
100
AcDbEntity
8
0
100
AcDbCircle
10
-517.46622923977907
20
-375.79946986056189
30
0
40
2.1169999999999525
210
0
220
0
230
1
100
AcDbArc
50
220.07532556012399
51
319.92467443987596
0
SPLINE
5
127
100
AcDbEntity
8
0
100
AcDbSpline
70
0
71
3
72
18
73
14
74
0
42
0.000000001
43
0.0000000001
44
0.0000000001
40
0
40
0
40
0
40
0
40
0.083865208025966254
40
0.083865208025966254
40
0.17099512044127635
40
0.17099512044127635
40
0.26138825809352395
40
0.26138825809352395
40
0.35504311017282891
40
0.35504311017282891
40
0.41299127025761356
40
0.41299127025761356
40
0.47211958538188264
40
0.47211958538188264
40
0.47211958538188264
40
0.47211958538188264
10
-515.84630354539036
20
-377.16238208981918
30
0
10
-515.64513544391593
20
-376.96826875915718
30
0
10
-515.48458485312062
20
-376.73607817458753
30
0
10
-515.25510909747777
20
-376.21380082617372
30
0
10
-515.19224556603319
20
-375.92708741781934
30
0
10
-515.17760307316917
20
-375.33453972792478
30
0
10
-515.2301591125738
20
-375.03434544182824
30
0
10
-515.44944416552505
20
-374.45977067519914
30
0
10
-515.61796686545665
20
-374.19245795996028
30
0
10
-515.96497553669781
20
-373.82286332855188
30
0
10
-516.11392212331668
20
-373.69783651321831
30
0
10
-516.44100399914498
20
-373.48255361584017
30
0
10
-516.61851558999717
20
-373.39381269347797
30
0
10
-516.80449197121061
20
-373.32647495814348
30
0
0
ARC
5
128
100
AcDbEntity
8
0
100
AcDbCircle
10
-517.46622923977907
20
-375.79946986056189
30
0
40
2.5599999999999512
210
0
220
-0
230
1
100
AcDbArc
50
75.019450602828002
51
104.98054939717201
0
SPLINE
5
129
100
AcDbEntity
8
0
100
AcDbSpline
70
0
71
3
72
18
73
14
74
0
42
0.000000001
43
0.0000000001
44
0.0000000001
40
0
40
0
40
0
40
0
40
0.098035409536124343
40
0.098035409536124343
40
0.19279940768861242
40
0.19279940768861242
40
0.28429063592905268
40
0.28429063592905268
40
0.3725077783719668
40
0.3725077783719668
40
0.4238528873856765
40
0.4238528873856765
40
0.47402260125481599
40
0.47402260125481599
40
0.47402260125481599
40
0.47402260125481599
10
-628.12796650834559
20
-373.32647495814348
30
0
10
-628.43523022876627
20
-373.4377280266707
30
0
10
-628.7182068270838
20
-373.60697661992833
30
0
10
-629.19378543568655
20
-374.03853407402369
30
0
10
-629.38458956300178
20
-374.2935436349585
30
0
10
-629.65108669926292
20
-374.85327047197416
30
0
10
-629.7279806231752
20
-375.15074930946292
30
0
10
-629.76073104127295
20
-375.74752494065751
30
0
10
-629.7204577732723
20
-376.04079895280933
30
0
10
-629.5681007722211
20
-376.47883862408059
30
0
10
-629.49356202049057
20
-376.63295647157275
30
0
10
-629.31185788742391
20
-376.91710886646462
30
0
10
-629.20608313193907
20
-377.04665965798512
30
0
10
-629.08615493416573
20
-377.16238208981918
30
0
0
ARC
5
130
100
AcDbEntity
8
0
100
AcDbCircle
10
-627.46622923977714
20
-375.79946986056194
30
0
40
2.1169999999999063
210
0
220
0
230
1
100
AcDbArc
50
220.07532556012481
51
319.92467443987488
0
SPLINE
5
131
100
AcDbEntity
8
0
100
AcDbSpline
70
0
71
3
72
18
73
14
74
0
42
0.000000001
43
0.0000000001
44
0.0000000001
40
0
40
0
40
0
40
0
40
0.083865208025973095
40
0.083865208025973095
40
0.17099512044130127
40
0.17099512044130127
40
0.26138825809355692
40
0.26138825809355692
40
0.35504311017287504
40
0.35504311017287504
40
0.41299127025767057
40
0.41299127025767057
40
0.4721195853819623
40
0.4721195853819623
40
0.4721195853819623
40
0.4721195853819623
10
-625.84630354538842
20
-377.16238208981918
30
0
10
-625.64513544391389
20
-376.96826875915718
30
0
10
-625.48458485311858
20
-376.73607817458753
30
0
10
-625.25510909747584
20
-376.21380082617378
30
0
10
-625.19224556603126
20
-375.92708741781939
30
0
10
-625.17760307316723
20
-375.33453972792478
30
0
10
-625.23015911257187
20
-375.03434544182824
30
0
10
-625.449444165523
20
-374.45977067519914
30
0
10
-625.61796686545472
20
-374.19245795996034
30
0
10
-625.96497553669576
20
-373.82286332855188
30
0
10
-626.11392212331475
20
-373.69783651321831
30
0
10
-626.44100399914305
20
-373.48255361584017
30
0
10
-626.61851558999524
20
-373.39381269347797
30
0
10
-626.80449197120856
20
-373.32647495814348
30
0
0
ARC
5
132
100
AcDbEntity
8
0
100
AcDbCircle
10
-627.46622923977714
20
-375.79946986056194
30
0
40
2.56000000000002
210
0
220
-0
230
1
100
AcDbArc
50
75.01945060282587
51
104.98054939717167
0
SPLINE
5
133
100
AcDbEntity
8
0
100
AcDbSpline
70
0
71
3
72
18
73
14
74
0
42
0.000000001
43
0.0000000001
44
0.0000000001
40
0
40
0
40
0
40
0
40
0.098035409536129839
40
0.098035409536129839
40
0.19279940768862719
40
0.19279940768862719
40
0.28429063592907849
40
0.28429063592907849
40
0.37250777837198235
40
0.37250777837198235
40
0.42385288738571558
40
0.42385288738571558
40
0.47402260125486678
40
0.47402260125486678
40
0.47402260125486678
40
0.47402260125486678
10
-543.12796650834707
20
-373.32647495814348
30
0
10
-543.43523022876786
20
-373.4377280266707
30
0
10
-543.71820682708528
20
-373.60697661992833
30
0
10
-544.19378543568814
20
-374.03853407402369
30
0
10
-544.38458956300337
20
-374.29354363495838
30
0
10
-544.65108669926451
20
-374.85327047197416
30
0
10
-544.72798062317679
20
-375.15074930946292
30
0
10
-544.76073104127454
20
-375.7475249406574
30
0
10
-544.72045777327389
20
-376.04079895280933
30
0
10
-544.56810077222258
20
-376.47883862408071
30
0
10
-544.49356202049205
20
-376.63295647157281
30
0
10
-544.3118578874255
20
-376.91710886646456
30
0
10
-544.20608313194066
20
-377.04665965798512
30
0
10
-544.08615493416733
20
-377.16238208981918
30
0
0
ARC
5
134
100
AcDbEntity
8
0
100
AcDbCircle
10
-542.46622923977861
20
-375.79946986056189
30
0
40
2.1170000000000071
210
0
220
0
230
1
100
AcDbArc
50
220.07532556012399
51
319.92467443987596
0
SPLINE
5
135
100
AcDbEntity
8
0
100
AcDbSpline
70
0
71
3
72
18
73
14
74
0
42
0.000000001
43
0.0000000001
44
0.0000000001
40
0
40
0
40
0
40
0
40
0.083865208025964769
40
0.083865208025964769
40
0.17099512044127238
40
0.17099512044127238
40
0.26138825809352328
40
0.26138825809352328
40
0.35504311017283002
40
0.35504311017283002
40
0.41299127025761551
40
0.41299127025761551
40
0.4721195853818807
40
0.4721195853818807
40
0.4721195853818807
40
0.4721195853818807
10
-540.8463035453899
20
-377.16238208981918
30
0
10
-540.64513544391548
20
-376.96826875915724
30
0
10
-540.48458485312017
20
-376.73607817458759
30
0
10
-540.2551090974772
20
-376.21380082617372
30
0
10
-540.19224556603274
20
-375.92708741781934
30
0
10
-540.17760307316871
20
-375.33453972792478
30
0
10
-540.23015911257335
20
-375.03434544182824
30
0
10
-540.44944416552448
20
-374.45977067519914
30
0
10
-540.61796686545631
20
-374.19245795996028
30
0
10
-540.96497553669735
20
-373.82286332855188
30
0
10
-541.11392212331623
20
-373.69783651321831
30
0
10
-541.44100399914453
20
-373.48255361584017
30
0
10
-541.61851558999683
20
-373.39381269347791
30
0
10
-541.80449197121015
20
-373.32647495814348
30
0
0
ARC
5
136
100
AcDbEntity
8
0
100
AcDbCircle
10
-542.46622923977861
20
-375.79946986056189
30
0
40
2.559999999999933
210
0
220
-0
230
1
100
AcDbArc
50
75.019450602828002
51
104.98054939717201
0
SPLINE
5
137
100
AcDbEntity
8
0
100
AcDbSpline
70
0
71
3
72
18
73
14
74
0
42
0.000000001
43
0.0000000001
44
0.0000000001
40
0
40
0
40
0
40
0
40
0.098035409536124343
40
0.098035409536124343
40
0.19279940768861242
40
0.19279940768861242
40
0.28429063592905268
40
0.28429063592905268
40
0.3725077783719668
40
0.3725077783719668
40
0.4238528873856765
40
0.4238528873856765
40
0.47402260125481599
40
0.47402260125481599
40
0.47402260125481599
40
0.47402260125481599
10
-603.12796650834593
20
-373.32647495814348
30
0
10
-603.43523022876673
20
-373.4377280266707
30
0
10
-603.71820682708415
20
-373.60697661992833
30
0
10
-604.193785435687
20
-374.03853407402369
30
0
10
-604.38458956300235
20
-374.2935436349585
30
0
10
-604.65108669926337
20
-374.85327047197416
30
0
10
-604.72798062317565
20
-375.15074930946292
30
0
10
-604.7607310412734
20
-375.74752494065751
30
0
10
-604.72045777327276
20
-376.04079895280933
30
0
10
-604.56810077222156
20
-376.47883862408059
30
0
10
-604.49356202049103
20
-376.63295647157275
30
0
10
-604.31185788742437
20
-376.91710886646462
30
0
10
-604.20608313193952
20
-377.04665965798512
30
0
10
-604.08615493416619
20
-377.16238208981918
30
0
0
ARC
5
138
100
AcDbEntity
8
0
100
AcDbCircle
10
-602.46622923977748
20
-375.79946986056194
30
0
40
2.1169999999999063
210
0
220
0
230
1
100
AcDbArc
50
220.07532556012279
51
319.92467443987488
0
SPLINE
5
139
100
AcDbEntity
8
0
100
AcDbSpline
70
0
71
3
72
18
73
14
74
0
42
0.000000001
43
0.0000000001
44
0.0000000001
40
0
40
0
40
0
40
0
40
0.083865208025970944
40
0.083865208025970944
40
0.17099512044128812
40
0.17099512044128812
40
0.26138825809352328
40
0.26138825809352328
40
0.35504311017282542
40
0.35504311017282542
40
0.41299127025760562
40
0.41299127025760562
40
0.472119585381852
40
0.472119585381852
40
0.472119585381852
40
0.472119585381852
10
-600.84630354538888
20
-377.16238208981918
30
0
10
-600.64513544391434
20
-376.96826875915718
30
0
10
-600.48458485311915
20
-376.73607817458753
30
0
10
-600.25510909747618
20
-376.21380082617378
30
0
10
-600.1922455660316
20
-375.92708741781939
30
0
10
-600.17760307316757
20
-375.33453972792478
30
0
10
-600.23015911257221
20
-375.03434544182824
30
0
10
-600.44944416552357
20
-374.45977067519914
30
0
10
-600.61796686545517
20
-374.19245795996028
30
0
10
-600.96497553669622
20
-373.82286332855193
30
0
10
-601.11392212331521
20
-373.69783651321831
30
0
10
-601.44100399914339
20
-373.48255361584017
30
0
10
-601.6185155899957
20
-373.39381269347797
30
0
10
-601.80449197120902
20
-373.32647495814348
30
0
0
ARC
5
140
100
AcDbEntity
8
0
100
AcDbCircle
10
-602.46622923977748
20
-375.79946986056194
30
0
40
2.5600000000000018
210
0
220
-0
230
1
100
AcDbArc
50
75.019450602828329
51
104.98054939717167
0
LWPOLYLINE
5
141
100
AcDbEntity
8
0
100
AcDbPolyline
90
94
70
1
43
0.0
10
-649.4039971738116
20
-409.86598887108539
42
-0.39484790518826651
10
-650.40178233166807
20
-410.79946986056166
10
-652.46622923977657
20
-410.79946986056154
10
-652.46622923977668
20
-370.79946986056194
10
-492.46622923977952
20
-370.79946986056194
10
-492.46622923977947
20
-410.79946986056154
10
-494.53067614788785
20
-410.79946986056154
42
-0.39484790518826651
10
-495.52846130574443
20
-409.86598887108539
10
-497.46622923977941
20
-380.79946986056189
10
-505.46622923977918
20
-380.79946986056189
10
-506.43400640078698
20
-409.83278469079426
42
-0.40448740378991421
10
-507.43345130776612
20
-410.79946986056166
10
-507.4990071717923
20
-410.79946986056166
42
-0.40448740378989356
10
-508.49845207877144
20
-409.83278469079431
10
-509.46622923977918
20
-380.79946986056189
10
-515.46622923977907
20
-380.79946986056189
10
-516.43400640078676
20
-409.83278469079431
42
-0.40448740378989356
10
-517.43345130776584
20
-410.79946986056166
10
-517.49900717179207
20
-410.79946986056166
42
-0.40448740378989356
10
-518.49845207877127
20
-409.83278469079431
10
-519.46622923977907
20
-380.79946986056189
10
-525.46622923977895
20
-380.79946986056189
10
-526.43400640078664
20
-409.83278469079426
42
-0.40448740378991421
10
-527.43345130776572
20
-410.79946986056166
10
-527.49900717179196
20
-410.79946986056166
42
-0.40448740378987286
10
-528.49845207877104
20
-409.83278469079431
10
-529.46622923977884
20
-380.79946986056189
10
-535.46622923977873
20
-380.79946986056189
10
-536.43400640078642
20
-409.83278469079426
42
-0.40448740378991421
10
-537.43345130776549
20
-410.79946986056166
10
-537.49900717179173
20
-410.79946986056166
42
-0.40448740378989356
10
-538.49845207877092
20
-409.83278469079431
10
-539.46622923977873
20
-380.79946986056189
10
-545.46622923977861
20
-380.79946986056189
10
-546.4340064007863
20
-409.83278469079426
42
-0.40448740378991421
10
-547.43345130776538
20
-410.79946986056166
10
-547.49900717179162
20
-410.79946986056166
42
-0.40448740378989356
10
-548.4984520787707
20
-409.83278469079431
10
-549.4662292397785
20
-380.79946986056189
10
-555.46622923977839
20
-380.79946986056189
10
-556.43400640078607
20
-409.83278469079426
42
-0.40448740378991421
10
-557.43345130776515
20
-410.79946986056166
10
-557.49900717179139
20
-410.79946986056166
42
-0.40448740378989356
10
-558.49845207877047
20
-409.83278469079431
10
-559.46622923977839
20
-380.79946986056189
10
-565.46622923977816
20
-380.79946986056189
10
-566.43400640078585
20
-409.83278469079426
42
-0.40448740378991421
10
-567.43345130776504
20
-410.79946986056166
10
-567.49900717179128
20
-410.79946986056166
42
-0.40448740378987286
10
-568.49845207877036
20
-409.83278469079431
10
-569.46622923977816
20
-380.79946986056189
10
-575.46622923977804
20
-380.79946986056189
10
-576.43400640078562
20
-409.83278469079426
42
-0.40448740378991421
10
-577.43345130776481
20
-410.79946986056166
10
-577.49900717179105
20
-410.79946986056166
42
-0.40448740378989356
10
-578.49845207877013
20
-409.83278469079431
10
-579.46622923977793
20
-380.79946986056189
10
-585.46622923977782
20
-380.79946986056189
10
-586.43400640078551
20
-409.83278469079426
42
-0.40448740378991421
10
-587.43345130776459
20
-410.79946986056166
10
-587.49900717179082
20
-410.79946986056166
42
-0.40448740378989356
10
-588.49845207877001
20
-409.83278469079431
10
-589.46622923977782
20
-380.79946986056189
10
-595.4662292397777
20
-380.79946986056189
10
-596.43400640078528
20
-409.83278469079426
42
-0.40448740378991421
10
-597.43345130776447
20
-410.79946986056166
10
-597.49900717179071
20
-410.79946986056166
42
-0.40448740378989356
10
-598.49845207876979
20
-409.83278469079431
10
-599.46622923977759
20
-380.79946986056189
10
-605.46622923977748
20
-380.79946986056189
10
-606.43400640078517
20
-409.83278469079426
42
-0.40448740378991349
10
-607.43345130776424
20
-410.79946986056166
10
-607.49900717179048
20
-410.79946986056166
42
-0.40448740378989356
10
-608.49845207876956
20
-409.83278469079431
10
-609.46622923977748
20
-380.79946986056189
10
-615.46622923977725
20
-380.79946986056189
10
-616.43400640078494
20
-409.83278469079426
42
-0.40448740378991421
10
-617.43345130776413
20
-410.79946986056166
10
-617.49900717179025
20
-410.79946986056166
42
-0.40448740378989356
10
-618.49845207876945
20
-409.83278469079431
10
-619.46622923977725
20
-380.79946986056189
10
-625.46622923977702
20
-380.79946986056189
10
-626.43400640078471
20
-409.83278469079426
42
-0.40448740378991421
10
-627.4334513077639
20
-410.79946986056166
10
-627.49900717179014
20
-410.79946986056166
42
-0.40448740378989356
10
-628.49845207876922
20
-409.83278469079431
10
-629.46622923977702
20
-380.79946986056177
10
-635.46622923977691
20
-380.79946986056189
10
-636.4340064007846
20
-409.83278469079426
42
-0.40448740378991421
10
-637.43345130776379
20
-410.79946986056166
10
-637.49900717178991
20
-410.79946986056166
42
-0.40448740378987286
10
-638.49845207876899
20
-409.83278469079431
10
-639.46622923977691
20
-380.79946986056189
10
-647.46622923977668
20
-380.79946986056189
0
ENDSEC
0
SECTION
2
OBJECTS
0
DICTIONARY
5
C
100
AcDbDictionary
3
ACAD_GROUP
350
D
3
ACAD_MLINESTYLE
350
17
0
DICTIONARY
5
D
100
AcDbDictionary
0
DICTIONARY
5
1A
330
C
100
AcDbDictionary
0
DICTIONARY
5
17
100
AcDbDictionary
0
ENDSEC
0
EOF
