G04 #@! TF.GenerationSoftware,KiCad,Pcbnew,(5.1.4)-1*
G04 #@! TF.CreationDate,2019-11-12T22:01:14+01:00*
G04 #@! TF.ProjectId,Digit_Colon,44696769-745f-4436-9f6c-6f6e2e6b6963,rev?*
G04 #@! TF.SameCoordinates,Original*
G04 #@! TF.FileFunction,Legend,Bot*
G04 #@! TF.FilePolarity,Positive*
%FSLAX46Y46*%
G04 Gerber Fmt 4.6, Leading zero omitted, Abs format (unit mm)*
G04 Created by KiCad (PCBNEW (5.1.4)-1) date 2019-11-12 22:01:14*
%MOMM*%
%LPD*%
G04 APERTURE LIST*
%ADD10C,0.200000*%
%ADD11C,0.120000*%
%ADD12C,0.150000*%
G04 APERTURE END LIST*
D10*
X201587142Y-186542857D02*
X201587142Y-185342857D01*
X201301428Y-185342857D01*
X201130000Y-185400000D01*
X201015714Y-185514285D01*
X200958571Y-185628571D01*
X200901428Y-185857142D01*
X200901428Y-186028571D01*
X200958571Y-186257142D01*
X201015714Y-186371428D01*
X201130000Y-186485714D01*
X201301428Y-186542857D01*
X201587142Y-186542857D01*
X199701428Y-186428571D02*
X199758571Y-186485714D01*
X199930000Y-186542857D01*
X200044285Y-186542857D01*
X200215714Y-186485714D01*
X200330000Y-186371428D01*
X200387142Y-186257142D01*
X200444285Y-186028571D01*
X200444285Y-185857142D01*
X200387142Y-185628571D01*
X200330000Y-185514285D01*
X200215714Y-185400000D01*
X200044285Y-185342857D01*
X199930000Y-185342857D01*
X199758571Y-185400000D01*
X199701428Y-185457142D01*
X198044285Y-185342857D02*
X197815714Y-185342857D01*
X197701428Y-185400000D01*
X197587142Y-185514285D01*
X197530000Y-185742857D01*
X197530000Y-186142857D01*
X197587142Y-186371428D01*
X197701428Y-186485714D01*
X197815714Y-186542857D01*
X198044285Y-186542857D01*
X198158571Y-186485714D01*
X198272857Y-186371428D01*
X198330000Y-186142857D01*
X198330000Y-185742857D01*
X198272857Y-185514285D01*
X198158571Y-185400000D01*
X198044285Y-185342857D01*
X197015714Y-185342857D02*
X197015714Y-186314285D01*
X196958571Y-186428571D01*
X196901428Y-186485714D01*
X196787142Y-186542857D01*
X196558571Y-186542857D01*
X196444285Y-186485714D01*
X196387142Y-186428571D01*
X196330000Y-186314285D01*
X196330000Y-185342857D01*
X195930000Y-185342857D02*
X195244285Y-185342857D01*
X195587142Y-186542857D02*
X195587142Y-185342857D01*
X68987142Y-187042857D02*
X68987142Y-185842857D01*
X68701428Y-185842857D01*
X68530000Y-185900000D01*
X68415714Y-186014285D01*
X68358571Y-186128571D01*
X68301428Y-186357142D01*
X68301428Y-186528571D01*
X68358571Y-186757142D01*
X68415714Y-186871428D01*
X68530000Y-186985714D01*
X68701428Y-187042857D01*
X68987142Y-187042857D01*
X67101428Y-186928571D02*
X67158571Y-186985714D01*
X67330000Y-187042857D01*
X67444285Y-187042857D01*
X67615714Y-186985714D01*
X67730000Y-186871428D01*
X67787142Y-186757142D01*
X67844285Y-186528571D01*
X67844285Y-186357142D01*
X67787142Y-186128571D01*
X67730000Y-186014285D01*
X67615714Y-185900000D01*
X67444285Y-185842857D01*
X67330000Y-185842857D01*
X67158571Y-185900000D01*
X67101428Y-185957142D01*
X65672857Y-187042857D02*
X65672857Y-185842857D01*
X65101428Y-187042857D02*
X65101428Y-185842857D01*
X64415714Y-187042857D01*
X64415714Y-185842857D01*
X167058571Y-73428571D02*
X167115714Y-73485714D01*
X167287142Y-73542857D01*
X167401428Y-73542857D01*
X167572857Y-73485714D01*
X167687142Y-73371428D01*
X167744285Y-73257142D01*
X167801428Y-73028571D01*
X167801428Y-72857142D01*
X167744285Y-72628571D01*
X167687142Y-72514285D01*
X167572857Y-72400000D01*
X167401428Y-72342857D01*
X167287142Y-72342857D01*
X167115714Y-72400000D01*
X167058571Y-72457142D01*
X166315714Y-72342857D02*
X166087142Y-72342857D01*
X165972857Y-72400000D01*
X165858571Y-72514285D01*
X165801428Y-72742857D01*
X165801428Y-73142857D01*
X165858571Y-73371428D01*
X165972857Y-73485714D01*
X166087142Y-73542857D01*
X166315714Y-73542857D01*
X166430000Y-73485714D01*
X166544285Y-73371428D01*
X166601428Y-73142857D01*
X166601428Y-72742857D01*
X166544285Y-72514285D01*
X166430000Y-72400000D01*
X166315714Y-72342857D01*
X165287142Y-73542857D02*
X165287142Y-72342857D01*
X164601428Y-73542857D01*
X164601428Y-72342857D01*
X164201428Y-72342857D02*
X163515714Y-72342857D01*
X163858571Y-73542857D02*
X163858571Y-72342857D01*
X162430000Y-73542857D02*
X162830000Y-72971428D01*
X163115714Y-73542857D02*
X163115714Y-72342857D01*
X162658571Y-72342857D01*
X162544285Y-72400000D01*
X162487142Y-72457142D01*
X162430000Y-72571428D01*
X162430000Y-72742857D01*
X162487142Y-72857142D01*
X162544285Y-72914285D01*
X162658571Y-72971428D01*
X163115714Y-72971428D01*
X161687142Y-72342857D02*
X161458571Y-72342857D01*
X161344285Y-72400000D01*
X161230000Y-72514285D01*
X161172857Y-72742857D01*
X161172857Y-73142857D01*
X161230000Y-73371428D01*
X161344285Y-73485714D01*
X161458571Y-73542857D01*
X161687142Y-73542857D01*
X161801428Y-73485714D01*
X161915714Y-73371428D01*
X161972857Y-73142857D01*
X161972857Y-72742857D01*
X161915714Y-72514285D01*
X161801428Y-72400000D01*
X161687142Y-72342857D01*
X160087142Y-73542857D02*
X160658571Y-73542857D01*
X160658571Y-72342857D01*
X158544285Y-72342857D02*
X158315714Y-72342857D01*
X158201428Y-72400000D01*
X158087142Y-72514285D01*
X158030000Y-72742857D01*
X158030000Y-73142857D01*
X158087142Y-73371428D01*
X158201428Y-73485714D01*
X158315714Y-73542857D01*
X158544285Y-73542857D01*
X158658571Y-73485714D01*
X158772857Y-73371428D01*
X158830000Y-73142857D01*
X158830000Y-72742857D01*
X158772857Y-72514285D01*
X158658571Y-72400000D01*
X158544285Y-72342857D01*
X157515714Y-72342857D02*
X157515714Y-73314285D01*
X157458571Y-73428571D01*
X157401428Y-73485714D01*
X157287142Y-73542857D01*
X157058571Y-73542857D01*
X156944285Y-73485714D01*
X156887142Y-73428571D01*
X156830000Y-73314285D01*
X156830000Y-72342857D01*
X156430000Y-72342857D02*
X155744285Y-72342857D01*
X156087142Y-73542857D02*
X156087142Y-72342857D01*
X73458571Y-73428571D02*
X73515714Y-73485714D01*
X73687142Y-73542857D01*
X73801428Y-73542857D01*
X73972857Y-73485714D01*
X74087142Y-73371428D01*
X74144285Y-73257142D01*
X74201428Y-73028571D01*
X74201428Y-72857142D01*
X74144285Y-72628571D01*
X74087142Y-72514285D01*
X73972857Y-72400000D01*
X73801428Y-72342857D01*
X73687142Y-72342857D01*
X73515714Y-72400000D01*
X73458571Y-72457142D01*
X72715714Y-72342857D02*
X72487142Y-72342857D01*
X72372857Y-72400000D01*
X72258571Y-72514285D01*
X72201428Y-72742857D01*
X72201428Y-73142857D01*
X72258571Y-73371428D01*
X72372857Y-73485714D01*
X72487142Y-73542857D01*
X72715714Y-73542857D01*
X72830000Y-73485714D01*
X72944285Y-73371428D01*
X73001428Y-73142857D01*
X73001428Y-72742857D01*
X72944285Y-72514285D01*
X72830000Y-72400000D01*
X72715714Y-72342857D01*
X71687142Y-73542857D02*
X71687142Y-72342857D01*
X71001428Y-73542857D01*
X71001428Y-72342857D01*
X70601428Y-72342857D02*
X69915714Y-72342857D01*
X70258571Y-73542857D02*
X70258571Y-72342857D01*
X68830000Y-73542857D02*
X69230000Y-72971428D01*
X69515714Y-73542857D02*
X69515714Y-72342857D01*
X69058571Y-72342857D01*
X68944285Y-72400000D01*
X68887142Y-72457142D01*
X68830000Y-72571428D01*
X68830000Y-72742857D01*
X68887142Y-72857142D01*
X68944285Y-72914285D01*
X69058571Y-72971428D01*
X69515714Y-72971428D01*
X68087142Y-72342857D02*
X67858571Y-72342857D01*
X67744285Y-72400000D01*
X67630000Y-72514285D01*
X67572857Y-72742857D01*
X67572857Y-73142857D01*
X67630000Y-73371428D01*
X67744285Y-73485714D01*
X67858571Y-73542857D01*
X68087142Y-73542857D01*
X68201428Y-73485714D01*
X68315714Y-73371428D01*
X68372857Y-73142857D01*
X68372857Y-72742857D01*
X68315714Y-72514285D01*
X68201428Y-72400000D01*
X68087142Y-72342857D01*
X66487142Y-73542857D02*
X67058571Y-73542857D01*
X67058571Y-72342857D01*
X65172857Y-73542857D02*
X65172857Y-72342857D01*
X64601428Y-73542857D02*
X64601428Y-72342857D01*
X63915714Y-73542857D01*
X63915714Y-72342857D01*
X195444285Y-188842857D02*
X195044285Y-190042857D01*
X194644285Y-188842857D01*
X193558571Y-189928571D02*
X193615714Y-189985714D01*
X193787142Y-190042857D01*
X193901428Y-190042857D01*
X194072857Y-189985714D01*
X194187142Y-189871428D01*
X194244285Y-189757142D01*
X194301428Y-189528571D01*
X194301428Y-189357142D01*
X194244285Y-189128571D01*
X194187142Y-189014285D01*
X194072857Y-188900000D01*
X193901428Y-188842857D01*
X193787142Y-188842857D01*
X193615714Y-188900000D01*
X193558571Y-188957142D01*
X192358571Y-189928571D02*
X192415714Y-189985714D01*
X192587142Y-190042857D01*
X192701428Y-190042857D01*
X192872857Y-189985714D01*
X192987142Y-189871428D01*
X193044285Y-189757142D01*
X193101428Y-189528571D01*
X193101428Y-189357142D01*
X193044285Y-189128571D01*
X192987142Y-189014285D01*
X192872857Y-188900000D01*
X192701428Y-188842857D01*
X192587142Y-188842857D01*
X192415714Y-188900000D01*
X192358571Y-188957142D01*
X195801428Y-212342857D02*
X195401428Y-213542857D01*
X195001428Y-212342857D01*
X194030000Y-213542857D02*
X194601428Y-213542857D01*
X194601428Y-212342857D01*
X193630000Y-212914285D02*
X193230000Y-212914285D01*
X193058571Y-213542857D02*
X193630000Y-213542857D01*
X193630000Y-212342857D01*
X193058571Y-212342857D01*
X192544285Y-213542857D02*
X192544285Y-212342857D01*
X192258571Y-212342857D01*
X192087142Y-212400000D01*
X191972857Y-212514285D01*
X191915714Y-212628571D01*
X191858571Y-212857142D01*
X191858571Y-213028571D01*
X191915714Y-213257142D01*
X191972857Y-213371428D01*
X192087142Y-213485714D01*
X192258571Y-213542857D01*
X192544285Y-213542857D01*
X75444285Y-186842857D02*
X75044285Y-188042857D01*
X74644285Y-186842857D01*
X73558571Y-187928571D02*
X73615714Y-187985714D01*
X73787142Y-188042857D01*
X73901428Y-188042857D01*
X74072857Y-187985714D01*
X74187142Y-187871428D01*
X74244285Y-187757142D01*
X74301428Y-187528571D01*
X74301428Y-187357142D01*
X74244285Y-187128571D01*
X74187142Y-187014285D01*
X74072857Y-186900000D01*
X73901428Y-186842857D01*
X73787142Y-186842857D01*
X73615714Y-186900000D01*
X73558571Y-186957142D01*
X72358571Y-187928571D02*
X72415714Y-187985714D01*
X72587142Y-188042857D01*
X72701428Y-188042857D01*
X72872857Y-187985714D01*
X72987142Y-187871428D01*
X73044285Y-187757142D01*
X73101428Y-187528571D01*
X73101428Y-187357142D01*
X73044285Y-187128571D01*
X72987142Y-187014285D01*
X72872857Y-186900000D01*
X72701428Y-186842857D01*
X72587142Y-186842857D01*
X72415714Y-186900000D01*
X72358571Y-186957142D01*
X80301428Y-210342857D02*
X79901428Y-211542857D01*
X79501428Y-210342857D01*
X78530000Y-211542857D02*
X79101428Y-211542857D01*
X79101428Y-210342857D01*
X78130000Y-210914285D02*
X77730000Y-210914285D01*
X77558571Y-211542857D02*
X78130000Y-211542857D01*
X78130000Y-210342857D01*
X77558571Y-210342857D01*
X77044285Y-211542857D02*
X77044285Y-210342857D01*
X76758571Y-210342857D01*
X76587142Y-210400000D01*
X76472857Y-210514285D01*
X76415714Y-210628571D01*
X76358571Y-210857142D01*
X76358571Y-211028571D01*
X76415714Y-211257142D01*
X76472857Y-211371428D01*
X76587142Y-211485714D01*
X76758571Y-211542857D01*
X77044285Y-211542857D01*
X160641428Y-62985714D02*
X160470000Y-63042857D01*
X160184285Y-63042857D01*
X160070000Y-62985714D01*
X160012857Y-62928571D01*
X159955714Y-62814285D01*
X159955714Y-62700000D01*
X160012857Y-62585714D01*
X160070000Y-62528571D01*
X160184285Y-62471428D01*
X160412857Y-62414285D01*
X160527142Y-62357142D01*
X160584285Y-62300000D01*
X160641428Y-62185714D01*
X160641428Y-62071428D01*
X160584285Y-61957142D01*
X160527142Y-61900000D01*
X160412857Y-61842857D01*
X160127142Y-61842857D01*
X159955714Y-61900000D01*
X158755714Y-62928571D02*
X158812857Y-62985714D01*
X158984285Y-63042857D01*
X159098571Y-63042857D01*
X159270000Y-62985714D01*
X159384285Y-62871428D01*
X159441428Y-62757142D01*
X159498571Y-62528571D01*
X159498571Y-62357142D01*
X159441428Y-62128571D01*
X159384285Y-62014285D01*
X159270000Y-61900000D01*
X159098571Y-61842857D01*
X158984285Y-61842857D01*
X158812857Y-61900000D01*
X158755714Y-61957142D01*
X157670000Y-63042857D02*
X158241428Y-63042857D01*
X158241428Y-61842857D01*
X157270000Y-63042857D02*
X157270000Y-61842857D01*
X156584285Y-63042857D02*
X157098571Y-62357142D01*
X156584285Y-61842857D02*
X157270000Y-62528571D01*
X160641428Y-67985714D02*
X160470000Y-68042857D01*
X160184285Y-68042857D01*
X160070000Y-67985714D01*
X160012857Y-67928571D01*
X159955714Y-67814285D01*
X159955714Y-67700000D01*
X160012857Y-67585714D01*
X160070000Y-67528571D01*
X160184285Y-67471428D01*
X160412857Y-67414285D01*
X160527142Y-67357142D01*
X160584285Y-67300000D01*
X160641428Y-67185714D01*
X160641428Y-67071428D01*
X160584285Y-66957142D01*
X160527142Y-66900000D01*
X160412857Y-66842857D01*
X160127142Y-66842857D01*
X159955714Y-66900000D01*
X159212857Y-66842857D02*
X158984285Y-66842857D01*
X158870000Y-66900000D01*
X158755714Y-67014285D01*
X158698571Y-67242857D01*
X158698571Y-67642857D01*
X158755714Y-67871428D01*
X158870000Y-67985714D01*
X158984285Y-68042857D01*
X159212857Y-68042857D01*
X159327142Y-67985714D01*
X159441428Y-67871428D01*
X159498571Y-67642857D01*
X159498571Y-67242857D01*
X159441428Y-67014285D01*
X159327142Y-66900000D01*
X159212857Y-66842857D01*
X158184285Y-66842857D02*
X158184285Y-67814285D01*
X158127142Y-67928571D01*
X158070000Y-67985714D01*
X157955714Y-68042857D01*
X157727142Y-68042857D01*
X157612857Y-67985714D01*
X157555714Y-67928571D01*
X157498571Y-67814285D01*
X157498571Y-66842857D01*
X157098571Y-66842857D02*
X156412857Y-66842857D01*
X156755714Y-68042857D02*
X156755714Y-66842857D01*
X160012857Y-58042857D02*
X160584285Y-58042857D01*
X160584285Y-56842857D01*
X159670000Y-57700000D02*
X159098571Y-57700000D01*
X159784285Y-58042857D02*
X159384285Y-56842857D01*
X158984285Y-58042857D01*
X158755714Y-56842857D02*
X158070000Y-56842857D01*
X158412857Y-58042857D02*
X158412857Y-56842857D01*
X160184285Y-51914285D02*
X160012857Y-51971428D01*
X159955714Y-52028571D01*
X159898571Y-52142857D01*
X159898571Y-52314285D01*
X159955714Y-52428571D01*
X160012857Y-52485714D01*
X160127142Y-52542857D01*
X160584285Y-52542857D01*
X160584285Y-51342857D01*
X160184285Y-51342857D01*
X160070000Y-51400000D01*
X160012857Y-51457142D01*
X159955714Y-51571428D01*
X159955714Y-51685714D01*
X160012857Y-51800000D01*
X160070000Y-51857142D01*
X160184285Y-51914285D01*
X160584285Y-51914285D01*
X158812857Y-52542857D02*
X159384285Y-52542857D01*
X159384285Y-51342857D01*
X158470000Y-52200000D02*
X157898571Y-52200000D01*
X158584285Y-52542857D02*
X158184285Y-51342857D01*
X157784285Y-52542857D01*
X157384285Y-52542857D02*
X157384285Y-51342857D01*
X156698571Y-52542857D01*
X156698571Y-51342857D01*
X156127142Y-52542857D02*
X156127142Y-51342857D01*
X155441428Y-52542857D02*
X155955714Y-51857142D01*
X155441428Y-51342857D02*
X156127142Y-52028571D01*
X83872857Y-67985714D02*
X83701428Y-68042857D01*
X83415714Y-68042857D01*
X83301428Y-67985714D01*
X83244285Y-67928571D01*
X83187142Y-67814285D01*
X83187142Y-67700000D01*
X83244285Y-67585714D01*
X83301428Y-67528571D01*
X83415714Y-67471428D01*
X83644285Y-67414285D01*
X83758571Y-67357142D01*
X83815714Y-67300000D01*
X83872857Y-67185714D01*
X83872857Y-67071428D01*
X83815714Y-66957142D01*
X83758571Y-66900000D01*
X83644285Y-66842857D01*
X83358571Y-66842857D01*
X83187142Y-66900000D01*
X82672857Y-68042857D02*
X82672857Y-66842857D01*
X82101428Y-68042857D02*
X82101428Y-66842857D01*
X81415714Y-68042857D01*
X81415714Y-66842857D01*
X84915714Y-62985714D02*
X84744285Y-63042857D01*
X84458571Y-63042857D01*
X84344285Y-62985714D01*
X84287142Y-62928571D01*
X84230000Y-62814285D01*
X84230000Y-62700000D01*
X84287142Y-62585714D01*
X84344285Y-62528571D01*
X84458571Y-62471428D01*
X84687142Y-62414285D01*
X84801428Y-62357142D01*
X84858571Y-62300000D01*
X84915714Y-62185714D01*
X84915714Y-62071428D01*
X84858571Y-61957142D01*
X84801428Y-61900000D01*
X84687142Y-61842857D01*
X84401428Y-61842857D01*
X84230000Y-61900000D01*
X83030000Y-62928571D02*
X83087142Y-62985714D01*
X83258571Y-63042857D01*
X83372857Y-63042857D01*
X83544285Y-62985714D01*
X83658571Y-62871428D01*
X83715714Y-62757142D01*
X83772857Y-62528571D01*
X83772857Y-62357142D01*
X83715714Y-62128571D01*
X83658571Y-62014285D01*
X83544285Y-61900000D01*
X83372857Y-61842857D01*
X83258571Y-61842857D01*
X83087142Y-61900000D01*
X83030000Y-61957142D01*
X81944285Y-63042857D02*
X82515714Y-63042857D01*
X82515714Y-61842857D01*
X81544285Y-63042857D02*
X81544285Y-61842857D01*
X80858571Y-63042857D02*
X81372857Y-62357142D01*
X80858571Y-61842857D02*
X81544285Y-62528571D01*
X82687142Y-58042857D02*
X83258571Y-58042857D01*
X83258571Y-56842857D01*
X82344285Y-57700000D02*
X81772857Y-57700000D01*
X82458571Y-58042857D02*
X82058571Y-56842857D01*
X81658571Y-58042857D01*
X81430000Y-56842857D02*
X80744285Y-56842857D01*
X81087142Y-58042857D02*
X81087142Y-56842857D01*
X85101428Y-51914285D02*
X84930000Y-51971428D01*
X84872857Y-52028571D01*
X84815714Y-52142857D01*
X84815714Y-52314285D01*
X84872857Y-52428571D01*
X84930000Y-52485714D01*
X85044285Y-52542857D01*
X85501428Y-52542857D01*
X85501428Y-51342857D01*
X85101428Y-51342857D01*
X84987142Y-51400000D01*
X84930000Y-51457142D01*
X84872857Y-51571428D01*
X84872857Y-51685714D01*
X84930000Y-51800000D01*
X84987142Y-51857142D01*
X85101428Y-51914285D01*
X85501428Y-51914285D01*
X83730000Y-52542857D02*
X84301428Y-52542857D01*
X84301428Y-51342857D01*
X83387142Y-52200000D02*
X82815714Y-52200000D01*
X83501428Y-52542857D02*
X83101428Y-51342857D01*
X82701428Y-52542857D01*
X82301428Y-52542857D02*
X82301428Y-51342857D01*
X81615714Y-52542857D01*
X81615714Y-51342857D01*
X81044285Y-52542857D02*
X81044285Y-51342857D01*
X80358571Y-52542857D02*
X80872857Y-51857142D01*
X80358571Y-51342857D02*
X81044285Y-52028571D01*
D11*
X177790000Y-178508578D02*
X177790000Y-177991422D01*
X179210000Y-178508578D02*
X179210000Y-177991422D01*
X183210000Y-98491422D02*
X183210000Y-99008578D01*
X181790000Y-98491422D02*
X181790000Y-99008578D01*
X78741422Y-171290000D02*
X79258578Y-171290000D01*
X78741422Y-172710000D02*
X79258578Y-172710000D01*
X78741422Y-174540000D02*
X79258578Y-174540000D01*
X78741422Y-175960000D02*
X79258578Y-175960000D01*
X108790000Y-179758578D02*
X108790000Y-179241422D01*
X110210000Y-179758578D02*
X110210000Y-179241422D01*
X111790000Y-179758578D02*
X111790000Y-179241422D01*
X113210000Y-179758578D02*
X113210000Y-179241422D01*
X152008578Y-174210000D02*
X151491422Y-174210000D01*
X152008578Y-172790000D02*
X151491422Y-172790000D01*
X152008578Y-170710000D02*
X151491422Y-170710000D01*
X152008578Y-169290000D02*
X151491422Y-169290000D01*
X110710000Y-85991422D02*
X110710000Y-86508578D01*
X109290000Y-85991422D02*
X109290000Y-86508578D01*
X82991422Y-87790000D02*
X83508578Y-87790000D01*
X82991422Y-89210000D02*
X83508578Y-89210000D01*
X82991422Y-92540000D02*
X83508578Y-92540000D01*
X82991422Y-93960000D02*
X83508578Y-93960000D01*
X115290000Y-96508578D02*
X115290000Y-95991422D01*
X116710000Y-96508578D02*
X116710000Y-95991422D01*
X125290000Y-94008578D02*
X125290000Y-93491422D01*
X126710000Y-94008578D02*
X126710000Y-93491422D01*
X156758578Y-90710000D02*
X156241422Y-90710000D01*
X156758578Y-89290000D02*
X156241422Y-89290000D01*
X156758578Y-86960000D02*
X156241422Y-86960000D01*
X156758578Y-85540000D02*
X156241422Y-85540000D01*
X128258578Y-86460000D02*
X127741422Y-86460000D01*
X128258578Y-85040000D02*
X127741422Y-85040000D01*
X82740000Y-207804437D02*
X83804437Y-206740000D01*
X82740000Y-214195563D02*
X83804437Y-215260000D01*
X82740000Y-214195563D02*
X82740000Y-212310000D01*
X82740000Y-207804437D02*
X82740000Y-209690000D01*
X83804437Y-206740000D02*
X91260000Y-206740000D01*
X83804437Y-215260000D02*
X91260000Y-215260000D01*
X91260000Y-215260000D02*
X91260000Y-212310000D01*
X91260000Y-206740000D02*
X91260000Y-209690000D01*
X82990000Y-187804437D02*
X84054437Y-186740000D01*
X82990000Y-194195563D02*
X84054437Y-195260000D01*
X82990000Y-194195563D02*
X82990000Y-192310000D01*
X82990000Y-187804437D02*
X82990000Y-189690000D01*
X84054437Y-186740000D02*
X91510000Y-186740000D01*
X84054437Y-195260000D02*
X91510000Y-195260000D01*
X91510000Y-195260000D02*
X91510000Y-192310000D01*
X91510000Y-186740000D02*
X91510000Y-189690000D01*
X184554437Y-206760000D02*
X183490000Y-205695563D01*
X190945563Y-206760000D02*
X192010000Y-205695563D01*
X190945563Y-206760000D02*
X189060000Y-206760000D01*
X184554437Y-206760000D02*
X186440000Y-206760000D01*
X183490000Y-205695563D02*
X183490000Y-198240000D01*
X192010000Y-205695563D02*
X192010000Y-198240000D01*
X192010000Y-198240000D02*
X189060000Y-198240000D01*
X183490000Y-198240000D02*
X186440000Y-198240000D01*
X184554437Y-191260000D02*
X183490000Y-190195563D01*
X190945563Y-191260000D02*
X192010000Y-190195563D01*
X190945563Y-191260000D02*
X189060000Y-191260000D01*
X184554437Y-191260000D02*
X186440000Y-191260000D01*
X183490000Y-190195563D02*
X183490000Y-182740000D01*
X192010000Y-190195563D02*
X192010000Y-182740000D01*
X192010000Y-182740000D02*
X189060000Y-182740000D01*
X183490000Y-182740000D02*
X186440000Y-182740000D01*
X108290000Y-163258578D02*
X108290000Y-162741422D01*
X109710000Y-163258578D02*
X109710000Y-162741422D01*
X111290000Y-80258578D02*
X111290000Y-79741422D01*
X112710000Y-80258578D02*
X112710000Y-79741422D01*
X125600000Y-59250000D02*
X128400000Y-59250000D01*
X128400000Y-59250000D02*
X128400000Y-57250000D01*
X128400000Y-57250000D02*
X125600000Y-57250000D01*
X125600000Y-57250000D02*
X125600000Y-59250000D01*
X125600000Y-62000000D02*
X128400000Y-62000000D01*
X128400000Y-62000000D02*
X128400000Y-60000000D01*
X128400000Y-60000000D02*
X125600000Y-60000000D01*
X125600000Y-60000000D02*
X125600000Y-62000000D01*
X125600000Y-65000000D02*
X128400000Y-65000000D01*
X128400000Y-65000000D02*
X128400000Y-63000000D01*
X128400000Y-63000000D02*
X125600000Y-63000000D01*
X125600000Y-63000000D02*
X125600000Y-65000000D01*
X125600000Y-68000000D02*
X128400000Y-68000000D01*
X128400000Y-68000000D02*
X128400000Y-66000000D01*
X128400000Y-66000000D02*
X125600000Y-66000000D01*
X125600000Y-66000000D02*
X125600000Y-68000000D01*
X80650000Y-206900000D02*
X80650000Y-201500000D01*
X77350000Y-206900000D02*
X77350000Y-201500000D01*
X80650000Y-206900000D02*
X77350000Y-206900000D01*
X76150000Y-51500000D02*
X76150000Y-54050000D01*
X77850000Y-51500000D02*
X77850000Y-54050000D01*
X76150000Y-51500000D02*
X77850000Y-51500000D01*
X77850000Y-58000000D02*
X77850000Y-55450000D01*
X76150000Y-58000000D02*
X76150000Y-55450000D01*
X77850000Y-58000000D02*
X76150000Y-58000000D01*
X76150000Y-61750000D02*
X76150000Y-64300000D01*
X77850000Y-61750000D02*
X77850000Y-64300000D01*
X76150000Y-61750000D02*
X77850000Y-61750000D01*
X77850000Y-68250000D02*
X77850000Y-65700000D01*
X76150000Y-68250000D02*
X76150000Y-65700000D01*
X77850000Y-68250000D02*
X76150000Y-68250000D01*
X77350000Y-189600000D02*
X77350000Y-195000000D01*
X80650000Y-189600000D02*
X80650000Y-195000000D01*
X77350000Y-189600000D02*
X80650000Y-189600000D01*
X82790000Y-204258578D02*
X82790000Y-203741422D01*
X84210000Y-204258578D02*
X84210000Y-203741422D01*
X78290000Y-186758578D02*
X78290000Y-186241422D01*
X79710000Y-186758578D02*
X79710000Y-186241422D01*
X193540000Y-203758578D02*
X193540000Y-203241422D01*
X194960000Y-203758578D02*
X194960000Y-203241422D01*
X194960000Y-192803922D02*
X194960000Y-193321078D01*
X193540000Y-192803922D02*
X193540000Y-193321078D01*
X88040000Y-52258578D02*
X88040000Y-51741422D01*
X89460000Y-52258578D02*
X89460000Y-51741422D01*
X98500000Y-54970000D02*
X93500000Y-54970000D01*
X96500000Y-68030000D02*
X90500000Y-68030000D01*
D12*
X120750000Y-166100000D02*
X119675000Y-166100000D01*
X119675000Y-166100000D02*
X119675000Y-165875000D01*
X119675000Y-165875000D02*
X113325000Y-165875000D01*
X113325000Y-165875000D02*
X113325000Y-166200000D01*
X119675000Y-176800000D02*
X119675000Y-177125000D01*
X119675000Y-177125000D02*
X113325000Y-177125000D01*
X113325000Y-177125000D02*
X113325000Y-176800000D01*
X195710000Y-71270000D02*
X195710000Y-68730000D01*
X198250000Y-71270000D02*
X195710000Y-71270000D01*
D11*
X200325000Y-71330000D02*
X200325000Y-50950000D01*
X202985000Y-71330000D02*
X202985000Y-50950000D01*
X202985000Y-60220000D02*
X208985000Y-60220000D01*
X208985000Y-70380000D02*
X208985000Y-69620000D01*
X208985000Y-59460000D02*
X202985000Y-59460000D01*
X202985000Y-65300000D02*
X208985000Y-65300000D01*
X200325000Y-56030000D02*
X202985000Y-56030000D01*
X202985000Y-52600000D02*
X208985000Y-52600000D01*
X200325000Y-58570000D02*
X202985000Y-58570000D01*
X200325000Y-50950000D02*
X202985000Y-50950000D01*
X200325000Y-61110000D02*
X202985000Y-61110000D01*
X200325000Y-63650000D02*
X202985000Y-63650000D01*
X202985000Y-70380000D02*
X208985000Y-70380000D01*
X208985000Y-54380000D02*
X202985000Y-54380000D01*
X202985000Y-70200000D02*
X208985000Y-70200000D01*
X208985000Y-67840000D02*
X208985000Y-67080000D01*
X200325000Y-66190000D02*
X202985000Y-66190000D01*
X208985000Y-51840000D02*
X202985000Y-51840000D01*
X202985000Y-70080000D02*
X208985000Y-70080000D01*
X200325000Y-68730000D02*
X202985000Y-68730000D01*
X202985000Y-70320000D02*
X208985000Y-70320000D01*
X208985000Y-52600000D02*
X208985000Y-51840000D01*
X208985000Y-60220000D02*
X208985000Y-59460000D01*
X202985000Y-55140000D02*
X208985000Y-55140000D01*
X202985000Y-67840000D02*
X208985000Y-67840000D01*
X208985000Y-56920000D02*
X202985000Y-56920000D01*
X208985000Y-67080000D02*
X202985000Y-67080000D01*
X208985000Y-57680000D02*
X208985000Y-56920000D01*
X208985000Y-65300000D02*
X208985000Y-64540000D01*
X202985000Y-62760000D02*
X208985000Y-62760000D01*
X202985000Y-69960000D02*
X208985000Y-69960000D01*
X202985000Y-57680000D02*
X208985000Y-57680000D01*
X208985000Y-55140000D02*
X208985000Y-54380000D01*
X208985000Y-62760000D02*
X208985000Y-62000000D01*
X202985000Y-69720000D02*
X208985000Y-69720000D01*
X208985000Y-62000000D02*
X202985000Y-62000000D01*
X208985000Y-64540000D02*
X202985000Y-64540000D01*
X200325000Y-53490000D02*
X202985000Y-53490000D01*
X208985000Y-69620000D02*
X202985000Y-69620000D01*
X202985000Y-69840000D02*
X208985000Y-69840000D01*
X202985000Y-71330000D02*
X200325000Y-71330000D01*
X71270000Y-51860000D02*
X72730000Y-51860000D01*
X71270000Y-52580000D02*
X72730000Y-52580000D01*
X71270000Y-54400000D02*
X72730000Y-54400000D01*
X71270000Y-55120000D02*
X72730000Y-55120000D01*
X71270000Y-56940000D02*
X72730000Y-56940000D01*
X71270000Y-57660000D02*
X72730000Y-57660000D01*
X71270000Y-59480000D02*
X72730000Y-59480000D01*
X71270000Y-60200000D02*
X72730000Y-60200000D01*
X71270000Y-62020000D02*
X72730000Y-62020000D01*
X71270000Y-62740000D02*
X72730000Y-62740000D01*
X71270000Y-64560000D02*
X72730000Y-64560000D01*
X71270000Y-65280000D02*
X72730000Y-65280000D01*
X71270000Y-67100000D02*
X72730000Y-67100000D01*
X71270000Y-67820000D02*
X72730000Y-67820000D01*
X74254000Y-71584000D02*
X75364000Y-71584000D01*
X75364000Y-71584000D02*
X75364000Y-70254000D01*
X62640000Y-71330000D02*
X62640000Y-50890000D01*
X62640000Y-50890000D02*
X71270000Y-50890000D01*
X71270000Y-71330000D02*
X71270000Y-50890000D01*
X62640000Y-71330000D02*
X71270000Y-71330000D01*
X62640000Y-53490000D02*
X71270000Y-53490000D01*
X62640000Y-56030000D02*
X71270000Y-56030000D01*
X62640000Y-58570000D02*
X71270000Y-58570000D01*
X62640000Y-61110000D02*
X71270000Y-61110000D01*
X62640000Y-63650000D02*
X71270000Y-63650000D01*
X62640000Y-66190000D02*
X71270000Y-66190000D01*
X62640000Y-68730000D02*
X71270000Y-68730000D01*
X71270000Y-69640000D02*
X72730000Y-69640000D01*
X71270000Y-70360000D02*
X72730000Y-70360000D01*
X62640000Y-68848100D02*
X71270000Y-68848100D01*
X62640000Y-68966195D02*
X71270000Y-68966195D01*
X62640000Y-69084290D02*
X71270000Y-69084290D01*
X62640000Y-69202385D02*
X71270000Y-69202385D01*
X62640000Y-69320480D02*
X71270000Y-69320480D01*
X62640000Y-69438575D02*
X71270000Y-69438575D01*
X62640000Y-69556670D02*
X71270000Y-69556670D01*
X62640000Y-69674765D02*
X71270000Y-69674765D01*
X62640000Y-69792860D02*
X71270000Y-69792860D01*
X62640000Y-69910955D02*
X71270000Y-69910955D01*
X62640000Y-70029050D02*
X71270000Y-70029050D01*
X62640000Y-70147145D02*
X71270000Y-70147145D01*
X62640000Y-70265240D02*
X71270000Y-70265240D01*
X62640000Y-70383335D02*
X71270000Y-70383335D01*
X62640000Y-70501430D02*
X71270000Y-70501430D01*
X62640000Y-70619525D02*
X71270000Y-70619525D01*
X62640000Y-70737620D02*
X71270000Y-70737620D01*
X62640000Y-70855715D02*
X71270000Y-70855715D01*
X62640000Y-70973810D02*
X71270000Y-70973810D01*
X62640000Y-71091905D02*
X71270000Y-71091905D01*
X62640000Y-71210000D02*
X71270000Y-71210000D01*
X71270000Y-188860000D02*
X72730000Y-188860000D01*
X71270000Y-189580000D02*
X72730000Y-189580000D01*
X71270000Y-191400000D02*
X72730000Y-191400000D01*
X71270000Y-192120000D02*
X72730000Y-192120000D01*
X71270000Y-193940000D02*
X72730000Y-193940000D01*
X71270000Y-194660000D02*
X72730000Y-194660000D01*
X71270000Y-196480000D02*
X72730000Y-196480000D01*
X71270000Y-197200000D02*
X72730000Y-197200000D01*
X71270000Y-199020000D02*
X72730000Y-199020000D01*
X71270000Y-199740000D02*
X72730000Y-199740000D01*
X71270000Y-201560000D02*
X72730000Y-201560000D01*
X71270000Y-202280000D02*
X72730000Y-202280000D01*
X71270000Y-204100000D02*
X72730000Y-204100000D01*
X71270000Y-204820000D02*
X72730000Y-204820000D01*
X74254000Y-208584000D02*
X75364000Y-208584000D01*
X75364000Y-208584000D02*
X75364000Y-207254000D01*
X62640000Y-208330000D02*
X62640000Y-187890000D01*
X62640000Y-187890000D02*
X71270000Y-187890000D01*
X71270000Y-208330000D02*
X71270000Y-187890000D01*
X62640000Y-208330000D02*
X71270000Y-208330000D01*
X62640000Y-190490000D02*
X71270000Y-190490000D01*
X62640000Y-193030000D02*
X71270000Y-193030000D01*
X62640000Y-195570000D02*
X71270000Y-195570000D01*
X62640000Y-198110000D02*
X71270000Y-198110000D01*
X62640000Y-200650000D02*
X71270000Y-200650000D01*
X62640000Y-203190000D02*
X71270000Y-203190000D01*
X62640000Y-205730000D02*
X71270000Y-205730000D01*
X71270000Y-206640000D02*
X72730000Y-206640000D01*
X71270000Y-207360000D02*
X72730000Y-207360000D01*
X62640000Y-205848100D02*
X71270000Y-205848100D01*
X62640000Y-205966195D02*
X71270000Y-205966195D01*
X62640000Y-206084290D02*
X71270000Y-206084290D01*
X62640000Y-206202385D02*
X71270000Y-206202385D01*
X62640000Y-206320480D02*
X71270000Y-206320480D01*
X62640000Y-206438575D02*
X71270000Y-206438575D01*
X62640000Y-206556670D02*
X71270000Y-206556670D01*
X62640000Y-206674765D02*
X71270000Y-206674765D01*
X62640000Y-206792860D02*
X71270000Y-206792860D01*
X62640000Y-206910955D02*
X71270000Y-206910955D01*
X62640000Y-207029050D02*
X71270000Y-207029050D01*
X62640000Y-207147145D02*
X71270000Y-207147145D01*
X62640000Y-207265240D02*
X71270000Y-207265240D01*
X62640000Y-207383335D02*
X71270000Y-207383335D01*
X62640000Y-207501430D02*
X71270000Y-207501430D01*
X62640000Y-207619525D02*
X71270000Y-207619525D01*
X62640000Y-207737620D02*
X71270000Y-207737620D01*
X62640000Y-207855715D02*
X71270000Y-207855715D01*
X62640000Y-207973810D02*
X71270000Y-207973810D01*
X62640000Y-208091905D02*
X71270000Y-208091905D01*
X62640000Y-208210000D02*
X71270000Y-208210000D01*
D12*
X195710000Y-208270000D02*
X195710000Y-205730000D01*
X198250000Y-208270000D02*
X195710000Y-208270000D01*
D11*
X200325000Y-208330000D02*
X200325000Y-187950000D01*
X202985000Y-208330000D02*
X202985000Y-187950000D01*
X202985000Y-197220000D02*
X208985000Y-197220000D01*
X208985000Y-207380000D02*
X208985000Y-206620000D01*
X208985000Y-196460000D02*
X202985000Y-196460000D01*
X202985000Y-202300000D02*
X208985000Y-202300000D01*
X200325000Y-193030000D02*
X202985000Y-193030000D01*
X202985000Y-189600000D02*
X208985000Y-189600000D01*
X200325000Y-195570000D02*
X202985000Y-195570000D01*
X200325000Y-187950000D02*
X202985000Y-187950000D01*
X200325000Y-198110000D02*
X202985000Y-198110000D01*
X200325000Y-200650000D02*
X202985000Y-200650000D01*
X202985000Y-207380000D02*
X208985000Y-207380000D01*
X208985000Y-191380000D02*
X202985000Y-191380000D01*
X202985000Y-207200000D02*
X208985000Y-207200000D01*
X208985000Y-204840000D02*
X208985000Y-204080000D01*
X200325000Y-203190000D02*
X202985000Y-203190000D01*
X208985000Y-188840000D02*
X202985000Y-188840000D01*
X202985000Y-207080000D02*
X208985000Y-207080000D01*
X200325000Y-205730000D02*
X202985000Y-205730000D01*
X202985000Y-207320000D02*
X208985000Y-207320000D01*
X208985000Y-189600000D02*
X208985000Y-188840000D01*
X208985000Y-197220000D02*
X208985000Y-196460000D01*
X202985000Y-192140000D02*
X208985000Y-192140000D01*
X202985000Y-204840000D02*
X208985000Y-204840000D01*
X208985000Y-193920000D02*
X202985000Y-193920000D01*
X208985000Y-204080000D02*
X202985000Y-204080000D01*
X208985000Y-194680000D02*
X208985000Y-193920000D01*
X208985000Y-202300000D02*
X208985000Y-201540000D01*
X202985000Y-199760000D02*
X208985000Y-199760000D01*
X202985000Y-206960000D02*
X208985000Y-206960000D01*
X202985000Y-194680000D02*
X208985000Y-194680000D01*
X208985000Y-192140000D02*
X208985000Y-191380000D01*
X208985000Y-199760000D02*
X208985000Y-199000000D01*
X202985000Y-206720000D02*
X208985000Y-206720000D01*
X208985000Y-199000000D02*
X202985000Y-199000000D01*
X208985000Y-201540000D02*
X202985000Y-201540000D01*
X200325000Y-190490000D02*
X202985000Y-190490000D01*
X208985000Y-206620000D02*
X202985000Y-206620000D01*
X202985000Y-206840000D02*
X208985000Y-206840000D01*
X202985000Y-208330000D02*
X200325000Y-208330000D01*
X116710000Y-80258578D02*
X116710000Y-79741422D01*
X115290000Y-80258578D02*
X115290000Y-79741422D01*
X113710000Y-163258578D02*
X113710000Y-162741422D01*
X112290000Y-163258578D02*
X112290000Y-162741422D01*
D12*
X123750000Y-83100000D02*
X122675000Y-83100000D01*
X122675000Y-83100000D02*
X122675000Y-82875000D01*
X122675000Y-82875000D02*
X116325000Y-82875000D01*
X116325000Y-82875000D02*
X116325000Y-83200000D01*
X122675000Y-93800000D02*
X122675000Y-94125000D01*
X122675000Y-94125000D02*
X116325000Y-94125000D01*
X116325000Y-94125000D02*
X116325000Y-93800000D01*
D11*
X111710000Y-163258578D02*
X111710000Y-162741422D01*
X110290000Y-163258578D02*
X110290000Y-162741422D01*
X114710000Y-80258578D02*
X114710000Y-79741422D01*
X113290000Y-80258578D02*
X113290000Y-79741422D01*
D12*
X180602380Y-177607142D02*
X180126190Y-177273809D01*
X180602380Y-177035714D02*
X179602380Y-177035714D01*
X179602380Y-177416666D01*
X179650000Y-177511904D01*
X179697619Y-177559523D01*
X179792857Y-177607142D01*
X179935714Y-177607142D01*
X180030952Y-177559523D01*
X180078571Y-177511904D01*
X180126190Y-177416666D01*
X180126190Y-177035714D01*
X180602380Y-178559523D02*
X180602380Y-177988095D01*
X180602380Y-178273809D02*
X179602380Y-178273809D01*
X179745238Y-178178571D01*
X179840476Y-178083333D01*
X179888095Y-177988095D01*
X180030952Y-179130952D02*
X179983333Y-179035714D01*
X179935714Y-178988095D01*
X179840476Y-178940476D01*
X179792857Y-178940476D01*
X179697619Y-178988095D01*
X179650000Y-179035714D01*
X179602380Y-179130952D01*
X179602380Y-179321428D01*
X179650000Y-179416666D01*
X179697619Y-179464285D01*
X179792857Y-179511904D01*
X179840476Y-179511904D01*
X179935714Y-179464285D01*
X179983333Y-179416666D01*
X180030952Y-179321428D01*
X180030952Y-179130952D01*
X180078571Y-179035714D01*
X180126190Y-178988095D01*
X180221428Y-178940476D01*
X180411904Y-178940476D01*
X180507142Y-178988095D01*
X180554761Y-179035714D01*
X180602380Y-179130952D01*
X180602380Y-179321428D01*
X180554761Y-179416666D01*
X180507142Y-179464285D01*
X180411904Y-179511904D01*
X180221428Y-179511904D01*
X180126190Y-179464285D01*
X180078571Y-179416666D01*
X180030952Y-179321428D01*
X181302380Y-98107142D02*
X180826190Y-97773809D01*
X181302380Y-97535714D02*
X180302380Y-97535714D01*
X180302380Y-97916666D01*
X180350000Y-98011904D01*
X180397619Y-98059523D01*
X180492857Y-98107142D01*
X180635714Y-98107142D01*
X180730952Y-98059523D01*
X180778571Y-98011904D01*
X180826190Y-97916666D01*
X180826190Y-97535714D01*
X181302380Y-99059523D02*
X181302380Y-98488095D01*
X181302380Y-98773809D02*
X180302380Y-98773809D01*
X180445238Y-98678571D01*
X180540476Y-98583333D01*
X180588095Y-98488095D01*
X180302380Y-99392857D02*
X180302380Y-100059523D01*
X181302380Y-99630952D01*
X79642857Y-174102380D02*
X79976190Y-173626190D01*
X80214285Y-174102380D02*
X80214285Y-173102380D01*
X79833333Y-173102380D01*
X79738095Y-173150000D01*
X79690476Y-173197619D01*
X79642857Y-173292857D01*
X79642857Y-173435714D01*
X79690476Y-173530952D01*
X79738095Y-173578571D01*
X79833333Y-173626190D01*
X80214285Y-173626190D01*
X78690476Y-174102380D02*
X79261904Y-174102380D01*
X78976190Y-174102380D02*
X78976190Y-173102380D01*
X79071428Y-173245238D01*
X79166666Y-173340476D01*
X79261904Y-173388095D01*
X77833333Y-173102380D02*
X78023809Y-173102380D01*
X78119047Y-173150000D01*
X78166666Y-173197619D01*
X78261904Y-173340476D01*
X78309523Y-173530952D01*
X78309523Y-173911904D01*
X78261904Y-174007142D01*
X78214285Y-174054761D01*
X78119047Y-174102380D01*
X77928571Y-174102380D01*
X77833333Y-174054761D01*
X77785714Y-174007142D01*
X77738095Y-173911904D01*
X77738095Y-173673809D01*
X77785714Y-173578571D01*
X77833333Y-173530952D01*
X77928571Y-173483333D01*
X78119047Y-173483333D01*
X78214285Y-173530952D01*
X78261904Y-173578571D01*
X78309523Y-173673809D01*
X79642857Y-177352380D02*
X79976190Y-176876190D01*
X80214285Y-177352380D02*
X80214285Y-176352380D01*
X79833333Y-176352380D01*
X79738095Y-176400000D01*
X79690476Y-176447619D01*
X79642857Y-176542857D01*
X79642857Y-176685714D01*
X79690476Y-176780952D01*
X79738095Y-176828571D01*
X79833333Y-176876190D01*
X80214285Y-176876190D01*
X78690476Y-177352380D02*
X79261904Y-177352380D01*
X78976190Y-177352380D02*
X78976190Y-176352380D01*
X79071428Y-176495238D01*
X79166666Y-176590476D01*
X79261904Y-176638095D01*
X77785714Y-176352380D02*
X78261904Y-176352380D01*
X78309523Y-176828571D01*
X78261904Y-176780952D01*
X78166666Y-176733333D01*
X77928571Y-176733333D01*
X77833333Y-176780952D01*
X77785714Y-176828571D01*
X77738095Y-176923809D01*
X77738095Y-177161904D01*
X77785714Y-177257142D01*
X77833333Y-177304761D01*
X77928571Y-177352380D01*
X78166666Y-177352380D01*
X78261904Y-177304761D01*
X78309523Y-177257142D01*
X111602380Y-178857142D02*
X111126190Y-178523809D01*
X111602380Y-178285714D02*
X110602380Y-178285714D01*
X110602380Y-178666666D01*
X110650000Y-178761904D01*
X110697619Y-178809523D01*
X110792857Y-178857142D01*
X110935714Y-178857142D01*
X111030952Y-178809523D01*
X111078571Y-178761904D01*
X111126190Y-178666666D01*
X111126190Y-178285714D01*
X111602380Y-179809523D02*
X111602380Y-179238095D01*
X111602380Y-179523809D02*
X110602380Y-179523809D01*
X110745238Y-179428571D01*
X110840476Y-179333333D01*
X110888095Y-179238095D01*
X110935714Y-180666666D02*
X111602380Y-180666666D01*
X110554761Y-180428571D02*
X111269047Y-180190476D01*
X111269047Y-180809523D01*
X114602380Y-178857142D02*
X114126190Y-178523809D01*
X114602380Y-178285714D02*
X113602380Y-178285714D01*
X113602380Y-178666666D01*
X113650000Y-178761904D01*
X113697619Y-178809523D01*
X113792857Y-178857142D01*
X113935714Y-178857142D01*
X114030952Y-178809523D01*
X114078571Y-178761904D01*
X114126190Y-178666666D01*
X114126190Y-178285714D01*
X114602380Y-179809523D02*
X114602380Y-179238095D01*
X114602380Y-179523809D02*
X113602380Y-179523809D01*
X113745238Y-179428571D01*
X113840476Y-179333333D01*
X113888095Y-179238095D01*
X113602380Y-180142857D02*
X113602380Y-180761904D01*
X113983333Y-180428571D01*
X113983333Y-180571428D01*
X114030952Y-180666666D01*
X114078571Y-180714285D01*
X114173809Y-180761904D01*
X114411904Y-180761904D01*
X114507142Y-180714285D01*
X114554761Y-180666666D01*
X114602380Y-180571428D01*
X114602380Y-180285714D01*
X114554761Y-180190476D01*
X114507142Y-180142857D01*
X152392857Y-172302380D02*
X152726190Y-171826190D01*
X152964285Y-172302380D02*
X152964285Y-171302380D01*
X152583333Y-171302380D01*
X152488095Y-171350000D01*
X152440476Y-171397619D01*
X152392857Y-171492857D01*
X152392857Y-171635714D01*
X152440476Y-171730952D01*
X152488095Y-171778571D01*
X152583333Y-171826190D01*
X152964285Y-171826190D01*
X151440476Y-172302380D02*
X152011904Y-172302380D01*
X151726190Y-172302380D02*
X151726190Y-171302380D01*
X151821428Y-171445238D01*
X151916666Y-171540476D01*
X152011904Y-171588095D01*
X151059523Y-171397619D02*
X151011904Y-171350000D01*
X150916666Y-171302380D01*
X150678571Y-171302380D01*
X150583333Y-171350000D01*
X150535714Y-171397619D01*
X150488095Y-171492857D01*
X150488095Y-171588095D01*
X150535714Y-171730952D01*
X151107142Y-172302380D01*
X150488095Y-172302380D01*
X152392857Y-168802380D02*
X152726190Y-168326190D01*
X152964285Y-168802380D02*
X152964285Y-167802380D01*
X152583333Y-167802380D01*
X152488095Y-167850000D01*
X152440476Y-167897619D01*
X152392857Y-167992857D01*
X152392857Y-168135714D01*
X152440476Y-168230952D01*
X152488095Y-168278571D01*
X152583333Y-168326190D01*
X152964285Y-168326190D01*
X151440476Y-168802380D02*
X152011904Y-168802380D01*
X151726190Y-168802380D02*
X151726190Y-167802380D01*
X151821428Y-167945238D01*
X151916666Y-168040476D01*
X152011904Y-168088095D01*
X150488095Y-168802380D02*
X151059523Y-168802380D01*
X150773809Y-168802380D02*
X150773809Y-167802380D01*
X150869047Y-167945238D01*
X150964285Y-168040476D01*
X151059523Y-168088095D01*
X108802380Y-85607142D02*
X108326190Y-85273809D01*
X108802380Y-85035714D02*
X107802380Y-85035714D01*
X107802380Y-85416666D01*
X107850000Y-85511904D01*
X107897619Y-85559523D01*
X107992857Y-85607142D01*
X108135714Y-85607142D01*
X108230952Y-85559523D01*
X108278571Y-85511904D01*
X108326190Y-85416666D01*
X108326190Y-85035714D01*
X108802380Y-86559523D02*
X108802380Y-85988095D01*
X108802380Y-86273809D02*
X107802380Y-86273809D01*
X107945238Y-86178571D01*
X108040476Y-86083333D01*
X108088095Y-85988095D01*
X107802380Y-87178571D02*
X107802380Y-87273809D01*
X107850000Y-87369047D01*
X107897619Y-87416666D01*
X107992857Y-87464285D01*
X108183333Y-87511904D01*
X108421428Y-87511904D01*
X108611904Y-87464285D01*
X108707142Y-87416666D01*
X108754761Y-87369047D01*
X108802380Y-87273809D01*
X108802380Y-87178571D01*
X108754761Y-87083333D01*
X108707142Y-87035714D01*
X108611904Y-86988095D01*
X108421428Y-86940476D01*
X108183333Y-86940476D01*
X107992857Y-86988095D01*
X107897619Y-87035714D01*
X107850000Y-87083333D01*
X107802380Y-87178571D01*
X83416666Y-90602380D02*
X83750000Y-90126190D01*
X83988095Y-90602380D02*
X83988095Y-89602380D01*
X83607142Y-89602380D01*
X83511904Y-89650000D01*
X83464285Y-89697619D01*
X83416666Y-89792857D01*
X83416666Y-89935714D01*
X83464285Y-90030952D01*
X83511904Y-90078571D01*
X83607142Y-90126190D01*
X83988095Y-90126190D01*
X82940476Y-90602380D02*
X82750000Y-90602380D01*
X82654761Y-90554761D01*
X82607142Y-90507142D01*
X82511904Y-90364285D01*
X82464285Y-90173809D01*
X82464285Y-89792857D01*
X82511904Y-89697619D01*
X82559523Y-89650000D01*
X82654761Y-89602380D01*
X82845238Y-89602380D01*
X82940476Y-89650000D01*
X82988095Y-89697619D01*
X83035714Y-89792857D01*
X83035714Y-90030952D01*
X82988095Y-90126190D01*
X82940476Y-90173809D01*
X82845238Y-90221428D01*
X82654761Y-90221428D01*
X82559523Y-90173809D01*
X82511904Y-90126190D01*
X82464285Y-90030952D01*
X83416666Y-95352380D02*
X83750000Y-94876190D01*
X83988095Y-95352380D02*
X83988095Y-94352380D01*
X83607142Y-94352380D01*
X83511904Y-94400000D01*
X83464285Y-94447619D01*
X83416666Y-94542857D01*
X83416666Y-94685714D01*
X83464285Y-94780952D01*
X83511904Y-94828571D01*
X83607142Y-94876190D01*
X83988095Y-94876190D01*
X82845238Y-94780952D02*
X82940476Y-94733333D01*
X82988095Y-94685714D01*
X83035714Y-94590476D01*
X83035714Y-94542857D01*
X82988095Y-94447619D01*
X82940476Y-94400000D01*
X82845238Y-94352380D01*
X82654761Y-94352380D01*
X82559523Y-94400000D01*
X82511904Y-94447619D01*
X82464285Y-94542857D01*
X82464285Y-94590476D01*
X82511904Y-94685714D01*
X82559523Y-94733333D01*
X82654761Y-94780952D01*
X82845238Y-94780952D01*
X82940476Y-94828571D01*
X82988095Y-94876190D01*
X83035714Y-94971428D01*
X83035714Y-95161904D01*
X82988095Y-95257142D01*
X82940476Y-95304761D01*
X82845238Y-95352380D01*
X82654761Y-95352380D01*
X82559523Y-95304761D01*
X82511904Y-95257142D01*
X82464285Y-95161904D01*
X82464285Y-94971428D01*
X82511904Y-94876190D01*
X82559523Y-94828571D01*
X82654761Y-94780952D01*
X118102380Y-96083333D02*
X117626190Y-95750000D01*
X118102380Y-95511904D02*
X117102380Y-95511904D01*
X117102380Y-95892857D01*
X117150000Y-95988095D01*
X117197619Y-96035714D01*
X117292857Y-96083333D01*
X117435714Y-96083333D01*
X117530952Y-96035714D01*
X117578571Y-95988095D01*
X117626190Y-95892857D01*
X117626190Y-95511904D01*
X117102380Y-96416666D02*
X117102380Y-97083333D01*
X118102380Y-96654761D01*
X128102380Y-93583333D02*
X127626190Y-93250000D01*
X128102380Y-93011904D02*
X127102380Y-93011904D01*
X127102380Y-93392857D01*
X127150000Y-93488095D01*
X127197619Y-93535714D01*
X127292857Y-93583333D01*
X127435714Y-93583333D01*
X127530952Y-93535714D01*
X127578571Y-93488095D01*
X127626190Y-93392857D01*
X127626190Y-93011904D01*
X127102380Y-94440476D02*
X127102380Y-94250000D01*
X127150000Y-94154761D01*
X127197619Y-94107142D01*
X127340476Y-94011904D01*
X127530952Y-93964285D01*
X127911904Y-93964285D01*
X128007142Y-94011904D01*
X128054761Y-94059523D01*
X128102380Y-94154761D01*
X128102380Y-94345238D01*
X128054761Y-94440476D01*
X128007142Y-94488095D01*
X127911904Y-94535714D01*
X127673809Y-94535714D01*
X127578571Y-94488095D01*
X127530952Y-94440476D01*
X127483333Y-94345238D01*
X127483333Y-94154761D01*
X127530952Y-94059523D01*
X127578571Y-94011904D01*
X127673809Y-93964285D01*
X156666666Y-88802380D02*
X157000000Y-88326190D01*
X157238095Y-88802380D02*
X157238095Y-87802380D01*
X156857142Y-87802380D01*
X156761904Y-87850000D01*
X156714285Y-87897619D01*
X156666666Y-87992857D01*
X156666666Y-88135714D01*
X156714285Y-88230952D01*
X156761904Y-88278571D01*
X156857142Y-88326190D01*
X157238095Y-88326190D01*
X155761904Y-87802380D02*
X156238095Y-87802380D01*
X156285714Y-88278571D01*
X156238095Y-88230952D01*
X156142857Y-88183333D01*
X155904761Y-88183333D01*
X155809523Y-88230952D01*
X155761904Y-88278571D01*
X155714285Y-88373809D01*
X155714285Y-88611904D01*
X155761904Y-88707142D01*
X155809523Y-88754761D01*
X155904761Y-88802380D01*
X156142857Y-88802380D01*
X156238095Y-88754761D01*
X156285714Y-88707142D01*
X156666666Y-85052380D02*
X157000000Y-84576190D01*
X157238095Y-85052380D02*
X157238095Y-84052380D01*
X156857142Y-84052380D01*
X156761904Y-84100000D01*
X156714285Y-84147619D01*
X156666666Y-84242857D01*
X156666666Y-84385714D01*
X156714285Y-84480952D01*
X156761904Y-84528571D01*
X156857142Y-84576190D01*
X157238095Y-84576190D01*
X155809523Y-84385714D02*
X155809523Y-85052380D01*
X156047619Y-84004761D02*
X156285714Y-84719047D01*
X155666666Y-84719047D01*
X128166666Y-84552380D02*
X128500000Y-84076190D01*
X128738095Y-84552380D02*
X128738095Y-83552380D01*
X128357142Y-83552380D01*
X128261904Y-83600000D01*
X128214285Y-83647619D01*
X128166666Y-83742857D01*
X128166666Y-83885714D01*
X128214285Y-83980952D01*
X128261904Y-84028571D01*
X128357142Y-84076190D01*
X128738095Y-84076190D01*
X127833333Y-83552380D02*
X127214285Y-83552380D01*
X127547619Y-83933333D01*
X127404761Y-83933333D01*
X127309523Y-83980952D01*
X127261904Y-84028571D01*
X127214285Y-84123809D01*
X127214285Y-84361904D01*
X127261904Y-84457142D01*
X127309523Y-84504761D01*
X127404761Y-84552380D01*
X127690476Y-84552380D01*
X127785714Y-84504761D01*
X127833333Y-84457142D01*
X90666666Y-206357142D02*
X90714285Y-206404761D01*
X90857142Y-206452380D01*
X90952380Y-206452380D01*
X91095238Y-206404761D01*
X91190476Y-206309523D01*
X91238095Y-206214285D01*
X91285714Y-206023809D01*
X91285714Y-205880952D01*
X91238095Y-205690476D01*
X91190476Y-205595238D01*
X91095238Y-205500000D01*
X90952380Y-205452380D01*
X90857142Y-205452380D01*
X90714285Y-205500000D01*
X90666666Y-205547619D01*
X89809523Y-205452380D02*
X90000000Y-205452380D01*
X90095238Y-205500000D01*
X90142857Y-205547619D01*
X90238095Y-205690476D01*
X90285714Y-205880952D01*
X90285714Y-206261904D01*
X90238095Y-206357142D01*
X90190476Y-206404761D01*
X90095238Y-206452380D01*
X89904761Y-206452380D01*
X89809523Y-206404761D01*
X89761904Y-206357142D01*
X89714285Y-206261904D01*
X89714285Y-206023809D01*
X89761904Y-205928571D01*
X89809523Y-205880952D01*
X89904761Y-205833333D01*
X90095238Y-205833333D01*
X90190476Y-205880952D01*
X90238095Y-205928571D01*
X90285714Y-206023809D01*
X91166666Y-186357142D02*
X91214285Y-186404761D01*
X91357142Y-186452380D01*
X91452380Y-186452380D01*
X91595238Y-186404761D01*
X91690476Y-186309523D01*
X91738095Y-186214285D01*
X91785714Y-186023809D01*
X91785714Y-185880952D01*
X91738095Y-185690476D01*
X91690476Y-185595238D01*
X91595238Y-185500000D01*
X91452380Y-185452380D01*
X91357142Y-185452380D01*
X91214285Y-185500000D01*
X91166666Y-185547619D01*
X90261904Y-185452380D02*
X90738095Y-185452380D01*
X90785714Y-185928571D01*
X90738095Y-185880952D01*
X90642857Y-185833333D01*
X90404761Y-185833333D01*
X90309523Y-185880952D01*
X90261904Y-185928571D01*
X90214285Y-186023809D01*
X90214285Y-186261904D01*
X90261904Y-186357142D01*
X90309523Y-186404761D01*
X90404761Y-186452380D01*
X90642857Y-186452380D01*
X90738095Y-186404761D01*
X90785714Y-186357142D01*
X184416666Y-197857142D02*
X184464285Y-197904761D01*
X184607142Y-197952380D01*
X184702380Y-197952380D01*
X184845238Y-197904761D01*
X184940476Y-197809523D01*
X184988095Y-197714285D01*
X185035714Y-197523809D01*
X185035714Y-197380952D01*
X184988095Y-197190476D01*
X184940476Y-197095238D01*
X184845238Y-197000000D01*
X184702380Y-196952380D01*
X184607142Y-196952380D01*
X184464285Y-197000000D01*
X184416666Y-197047619D01*
X183559523Y-197285714D02*
X183559523Y-197952380D01*
X183797619Y-196904761D02*
X184035714Y-197619047D01*
X183416666Y-197619047D01*
X184416666Y-182357142D02*
X184464285Y-182404761D01*
X184607142Y-182452380D01*
X184702380Y-182452380D01*
X184845238Y-182404761D01*
X184940476Y-182309523D01*
X184988095Y-182214285D01*
X185035714Y-182023809D01*
X185035714Y-181880952D01*
X184988095Y-181690476D01*
X184940476Y-181595238D01*
X184845238Y-181500000D01*
X184702380Y-181452380D01*
X184607142Y-181452380D01*
X184464285Y-181500000D01*
X184416666Y-181547619D01*
X184083333Y-181452380D02*
X183464285Y-181452380D01*
X183797619Y-181833333D01*
X183654761Y-181833333D01*
X183559523Y-181880952D01*
X183511904Y-181928571D01*
X183464285Y-182023809D01*
X183464285Y-182261904D01*
X183511904Y-182357142D01*
X183559523Y-182404761D01*
X183654761Y-182452380D01*
X183940476Y-182452380D01*
X184035714Y-182404761D01*
X184083333Y-182357142D01*
X109357142Y-159357142D02*
X109404761Y-159309523D01*
X109452380Y-159166666D01*
X109452380Y-159071428D01*
X109404761Y-158928571D01*
X109309523Y-158833333D01*
X109214285Y-158785714D01*
X109023809Y-158738095D01*
X108880952Y-158738095D01*
X108690476Y-158785714D01*
X108595238Y-158833333D01*
X108500000Y-158928571D01*
X108452380Y-159071428D01*
X108452380Y-159166666D01*
X108500000Y-159309523D01*
X108547619Y-159357142D01*
X109452380Y-160309523D02*
X109452380Y-159738095D01*
X109452380Y-160023809D02*
X108452380Y-160023809D01*
X108595238Y-159928571D01*
X108690476Y-159833333D01*
X108738095Y-159738095D01*
X108452380Y-160642857D02*
X108452380Y-161261904D01*
X108833333Y-160928571D01*
X108833333Y-161071428D01*
X108880952Y-161166666D01*
X108928571Y-161214285D01*
X109023809Y-161261904D01*
X109261904Y-161261904D01*
X109357142Y-161214285D01*
X109404761Y-161166666D01*
X109452380Y-161071428D01*
X109452380Y-160785714D01*
X109404761Y-160690476D01*
X109357142Y-160642857D01*
X112357142Y-76357142D02*
X112404761Y-76309523D01*
X112452380Y-76166666D01*
X112452380Y-76071428D01*
X112404761Y-75928571D01*
X112309523Y-75833333D01*
X112214285Y-75785714D01*
X112023809Y-75738095D01*
X111880952Y-75738095D01*
X111690476Y-75785714D01*
X111595238Y-75833333D01*
X111500000Y-75928571D01*
X111452380Y-76071428D01*
X111452380Y-76166666D01*
X111500000Y-76309523D01*
X111547619Y-76357142D01*
X112452380Y-77309523D02*
X112452380Y-76738095D01*
X112452380Y-77023809D02*
X111452380Y-77023809D01*
X111595238Y-76928571D01*
X111690476Y-76833333D01*
X111738095Y-76738095D01*
X111547619Y-77690476D02*
X111500000Y-77738095D01*
X111452380Y-77833333D01*
X111452380Y-78071428D01*
X111500000Y-78166666D01*
X111547619Y-78214285D01*
X111642857Y-78261904D01*
X111738095Y-78261904D01*
X111880952Y-78214285D01*
X112452380Y-77642857D01*
X112452380Y-78261904D01*
X130833333Y-57952380D02*
X130833333Y-58666666D01*
X130880952Y-58809523D01*
X130976190Y-58904761D01*
X131119047Y-58952380D01*
X131214285Y-58952380D01*
X130357142Y-58952380D02*
X130357142Y-57952380D01*
X129976190Y-57952380D01*
X129880952Y-58000000D01*
X129833333Y-58047619D01*
X129785714Y-58142857D01*
X129785714Y-58285714D01*
X129833333Y-58380952D01*
X129880952Y-58428571D01*
X129976190Y-58476190D01*
X130357142Y-58476190D01*
X128928571Y-58285714D02*
X128928571Y-58952380D01*
X129166666Y-57904761D02*
X129404761Y-58619047D01*
X128785714Y-58619047D01*
X130833333Y-60452380D02*
X130833333Y-61166666D01*
X130880952Y-61309523D01*
X130976190Y-61404761D01*
X131119047Y-61452380D01*
X131214285Y-61452380D01*
X130357142Y-61452380D02*
X130357142Y-60452380D01*
X129976190Y-60452380D01*
X129880952Y-60500000D01*
X129833333Y-60547619D01*
X129785714Y-60642857D01*
X129785714Y-60785714D01*
X129833333Y-60880952D01*
X129880952Y-60928571D01*
X129976190Y-60976190D01*
X130357142Y-60976190D01*
X129452380Y-60452380D02*
X128833333Y-60452380D01*
X129166666Y-60833333D01*
X129023809Y-60833333D01*
X128928571Y-60880952D01*
X128880952Y-60928571D01*
X128833333Y-61023809D01*
X128833333Y-61261904D01*
X128880952Y-61357142D01*
X128928571Y-61404761D01*
X129023809Y-61452380D01*
X129309523Y-61452380D01*
X129404761Y-61404761D01*
X129452380Y-61357142D01*
X130833333Y-63452380D02*
X130833333Y-64166666D01*
X130880952Y-64309523D01*
X130976190Y-64404761D01*
X131119047Y-64452380D01*
X131214285Y-64452380D01*
X130357142Y-64452380D02*
X130357142Y-63452380D01*
X129976190Y-63452380D01*
X129880952Y-63500000D01*
X129833333Y-63547619D01*
X129785714Y-63642857D01*
X129785714Y-63785714D01*
X129833333Y-63880952D01*
X129880952Y-63928571D01*
X129976190Y-63976190D01*
X130357142Y-63976190D01*
X129404761Y-63547619D02*
X129357142Y-63500000D01*
X129261904Y-63452380D01*
X129023809Y-63452380D01*
X128928571Y-63500000D01*
X128880952Y-63547619D01*
X128833333Y-63642857D01*
X128833333Y-63738095D01*
X128880952Y-63880952D01*
X129452380Y-64452380D01*
X128833333Y-64452380D01*
X130833333Y-66452380D02*
X130833333Y-67166666D01*
X130880952Y-67309523D01*
X130976190Y-67404761D01*
X131119047Y-67452380D01*
X131214285Y-67452380D01*
X130357142Y-67452380D02*
X130357142Y-66452380D01*
X129976190Y-66452380D01*
X129880952Y-66500000D01*
X129833333Y-66547619D01*
X129785714Y-66642857D01*
X129785714Y-66785714D01*
X129833333Y-66880952D01*
X129880952Y-66928571D01*
X129976190Y-66976190D01*
X130357142Y-66976190D01*
X128833333Y-67452380D02*
X129404761Y-67452380D01*
X129119047Y-67452380D02*
X129119047Y-66452380D01*
X129214285Y-66595238D01*
X129309523Y-66690476D01*
X129404761Y-66738095D01*
X80214285Y-208452380D02*
X80214285Y-207452380D01*
X79976190Y-207452380D01*
X79833333Y-207500000D01*
X79738095Y-207595238D01*
X79690476Y-207690476D01*
X79642857Y-207880952D01*
X79642857Y-208023809D01*
X79690476Y-208214285D01*
X79738095Y-208309523D01*
X79833333Y-208404761D01*
X79976190Y-208452380D01*
X80214285Y-208452380D01*
X78785714Y-207452380D02*
X78976190Y-207452380D01*
X79071428Y-207500000D01*
X79119047Y-207547619D01*
X79214285Y-207690476D01*
X79261904Y-207880952D01*
X79261904Y-208261904D01*
X79214285Y-208357142D01*
X79166666Y-208404761D01*
X79071428Y-208452380D01*
X78880952Y-208452380D01*
X78785714Y-208404761D01*
X78738095Y-208357142D01*
X78690476Y-208261904D01*
X78690476Y-208023809D01*
X78738095Y-207928571D01*
X78785714Y-207880952D01*
X78880952Y-207833333D01*
X79071428Y-207833333D01*
X79166666Y-207880952D01*
X79214285Y-207928571D01*
X79261904Y-208023809D01*
X78309523Y-207547619D02*
X78261904Y-207500000D01*
X78166666Y-207452380D01*
X77928571Y-207452380D01*
X77833333Y-207500000D01*
X77785714Y-207547619D01*
X77738095Y-207642857D01*
X77738095Y-207738095D01*
X77785714Y-207880952D01*
X78357142Y-208452380D01*
X77738095Y-208452380D01*
X79452380Y-51785714D02*
X78452380Y-51785714D01*
X78452380Y-52023809D01*
X78500000Y-52166666D01*
X78595238Y-52261904D01*
X78690476Y-52309523D01*
X78880952Y-52357142D01*
X79023809Y-52357142D01*
X79214285Y-52309523D01*
X79309523Y-52261904D01*
X79404761Y-52166666D01*
X79452380Y-52023809D01*
X79452380Y-51785714D01*
X78452380Y-53214285D02*
X78452380Y-53023809D01*
X78500000Y-52928571D01*
X78547619Y-52880952D01*
X78690476Y-52785714D01*
X78880952Y-52738095D01*
X79261904Y-52738095D01*
X79357142Y-52785714D01*
X79404761Y-52833333D01*
X79452380Y-52928571D01*
X79452380Y-53119047D01*
X79404761Y-53214285D01*
X79357142Y-53261904D01*
X79261904Y-53309523D01*
X79023809Y-53309523D01*
X78928571Y-53261904D01*
X78880952Y-53214285D01*
X78833333Y-53119047D01*
X78833333Y-52928571D01*
X78880952Y-52833333D01*
X78928571Y-52785714D01*
X79023809Y-52738095D01*
X79452380Y-54261904D02*
X79452380Y-53690476D01*
X79452380Y-53976190D02*
X78452380Y-53976190D01*
X78595238Y-53880952D01*
X78690476Y-53785714D01*
X78738095Y-53690476D01*
X79452380Y-55785714D02*
X78452380Y-55785714D01*
X78452380Y-56023809D01*
X78500000Y-56166666D01*
X78595238Y-56261904D01*
X78690476Y-56309523D01*
X78880952Y-56357142D01*
X79023809Y-56357142D01*
X79214285Y-56309523D01*
X79309523Y-56261904D01*
X79404761Y-56166666D01*
X79452380Y-56023809D01*
X79452380Y-55785714D01*
X78452380Y-57214285D02*
X78452380Y-57023809D01*
X78500000Y-56928571D01*
X78547619Y-56880952D01*
X78690476Y-56785714D01*
X78880952Y-56738095D01*
X79261904Y-56738095D01*
X79357142Y-56785714D01*
X79404761Y-56833333D01*
X79452380Y-56928571D01*
X79452380Y-57119047D01*
X79404761Y-57214285D01*
X79357142Y-57261904D01*
X79261904Y-57309523D01*
X79023809Y-57309523D01*
X78928571Y-57261904D01*
X78880952Y-57214285D01*
X78833333Y-57119047D01*
X78833333Y-56928571D01*
X78880952Y-56833333D01*
X78928571Y-56785714D01*
X79023809Y-56738095D01*
X78452380Y-57928571D02*
X78452380Y-58023809D01*
X78500000Y-58119047D01*
X78547619Y-58166666D01*
X78642857Y-58214285D01*
X78833333Y-58261904D01*
X79071428Y-58261904D01*
X79261904Y-58214285D01*
X79357142Y-58166666D01*
X79404761Y-58119047D01*
X79452380Y-58023809D01*
X79452380Y-57928571D01*
X79404761Y-57833333D01*
X79357142Y-57785714D01*
X79261904Y-57738095D01*
X79071428Y-57690476D01*
X78833333Y-57690476D01*
X78642857Y-57738095D01*
X78547619Y-57785714D01*
X78500000Y-57833333D01*
X78452380Y-57928571D01*
X79452380Y-61785714D02*
X78452380Y-61785714D01*
X78452380Y-62023809D01*
X78500000Y-62166666D01*
X78595238Y-62261904D01*
X78690476Y-62309523D01*
X78880952Y-62357142D01*
X79023809Y-62357142D01*
X79214285Y-62309523D01*
X79309523Y-62261904D01*
X79404761Y-62166666D01*
X79452380Y-62023809D01*
X79452380Y-61785714D01*
X78452380Y-63261904D02*
X78452380Y-62785714D01*
X78928571Y-62738095D01*
X78880952Y-62785714D01*
X78833333Y-62880952D01*
X78833333Y-63119047D01*
X78880952Y-63214285D01*
X78928571Y-63261904D01*
X79023809Y-63309523D01*
X79261904Y-63309523D01*
X79357142Y-63261904D01*
X79404761Y-63214285D01*
X79452380Y-63119047D01*
X79452380Y-62880952D01*
X79404761Y-62785714D01*
X79357142Y-62738095D01*
X79452380Y-63785714D02*
X79452380Y-63976190D01*
X79404761Y-64071428D01*
X79357142Y-64119047D01*
X79214285Y-64214285D01*
X79023809Y-64261904D01*
X78642857Y-64261904D01*
X78547619Y-64214285D01*
X78500000Y-64166666D01*
X78452380Y-64071428D01*
X78452380Y-63880952D01*
X78500000Y-63785714D01*
X78547619Y-63738095D01*
X78642857Y-63690476D01*
X78880952Y-63690476D01*
X78976190Y-63738095D01*
X79023809Y-63785714D01*
X79071428Y-63880952D01*
X79071428Y-64071428D01*
X79023809Y-64166666D01*
X78976190Y-64214285D01*
X78880952Y-64261904D01*
X79452380Y-65785714D02*
X78452380Y-65785714D01*
X78452380Y-66023809D01*
X78500000Y-66166666D01*
X78595238Y-66261904D01*
X78690476Y-66309523D01*
X78880952Y-66357142D01*
X79023809Y-66357142D01*
X79214285Y-66309523D01*
X79309523Y-66261904D01*
X79404761Y-66166666D01*
X79452380Y-66023809D01*
X79452380Y-65785714D01*
X78452380Y-67261904D02*
X78452380Y-66785714D01*
X78928571Y-66738095D01*
X78880952Y-66785714D01*
X78833333Y-66880952D01*
X78833333Y-67119047D01*
X78880952Y-67214285D01*
X78928571Y-67261904D01*
X79023809Y-67309523D01*
X79261904Y-67309523D01*
X79357142Y-67261904D01*
X79404761Y-67214285D01*
X79452380Y-67119047D01*
X79452380Y-66880952D01*
X79404761Y-66785714D01*
X79357142Y-66738095D01*
X78880952Y-67880952D02*
X78833333Y-67785714D01*
X78785714Y-67738095D01*
X78690476Y-67690476D01*
X78642857Y-67690476D01*
X78547619Y-67738095D01*
X78500000Y-67785714D01*
X78452380Y-67880952D01*
X78452380Y-68071428D01*
X78500000Y-68166666D01*
X78547619Y-68214285D01*
X78642857Y-68261904D01*
X78690476Y-68261904D01*
X78785714Y-68214285D01*
X78833333Y-68166666D01*
X78880952Y-68071428D01*
X78880952Y-67880952D01*
X78928571Y-67785714D01*
X78976190Y-67738095D01*
X79071428Y-67690476D01*
X79261904Y-67690476D01*
X79357142Y-67738095D01*
X79404761Y-67785714D01*
X79452380Y-67880952D01*
X79452380Y-68071428D01*
X79404761Y-68166666D01*
X79357142Y-68214285D01*
X79261904Y-68261904D01*
X79071428Y-68261904D01*
X78976190Y-68214285D01*
X78928571Y-68166666D01*
X78880952Y-68071428D01*
X80214285Y-197952380D02*
X80214285Y-196952380D01*
X79976190Y-196952380D01*
X79833333Y-197000000D01*
X79738095Y-197095238D01*
X79690476Y-197190476D01*
X79642857Y-197380952D01*
X79642857Y-197523809D01*
X79690476Y-197714285D01*
X79738095Y-197809523D01*
X79833333Y-197904761D01*
X79976190Y-197952380D01*
X80214285Y-197952380D01*
X78738095Y-196952380D02*
X79214285Y-196952380D01*
X79261904Y-197428571D01*
X79214285Y-197380952D01*
X79119047Y-197333333D01*
X78880952Y-197333333D01*
X78785714Y-197380952D01*
X78738095Y-197428571D01*
X78690476Y-197523809D01*
X78690476Y-197761904D01*
X78738095Y-197857142D01*
X78785714Y-197904761D01*
X78880952Y-197952380D01*
X79119047Y-197952380D01*
X79214285Y-197904761D01*
X79261904Y-197857142D01*
X78357142Y-196952380D02*
X77690476Y-196952380D01*
X78119047Y-197952380D01*
X85507142Y-203357142D02*
X85554761Y-203309523D01*
X85602380Y-203166666D01*
X85602380Y-203071428D01*
X85554761Y-202928571D01*
X85459523Y-202833333D01*
X85364285Y-202785714D01*
X85173809Y-202738095D01*
X85030952Y-202738095D01*
X84840476Y-202785714D01*
X84745238Y-202833333D01*
X84650000Y-202928571D01*
X84602380Y-203071428D01*
X84602380Y-203166666D01*
X84650000Y-203309523D01*
X84697619Y-203357142D01*
X85602380Y-204309523D02*
X85602380Y-203738095D01*
X85602380Y-204023809D02*
X84602380Y-204023809D01*
X84745238Y-203928571D01*
X84840476Y-203833333D01*
X84888095Y-203738095D01*
X85602380Y-205261904D02*
X85602380Y-204690476D01*
X85602380Y-204976190D02*
X84602380Y-204976190D01*
X84745238Y-204880952D01*
X84840476Y-204785714D01*
X84888095Y-204690476D01*
X81107142Y-185857142D02*
X81154761Y-185809523D01*
X81202380Y-185666666D01*
X81202380Y-185571428D01*
X81154761Y-185428571D01*
X81059523Y-185333333D01*
X80964285Y-185285714D01*
X80773809Y-185238095D01*
X80630952Y-185238095D01*
X80440476Y-185285714D01*
X80345238Y-185333333D01*
X80250000Y-185428571D01*
X80202380Y-185571428D01*
X80202380Y-185666666D01*
X80250000Y-185809523D01*
X80297619Y-185857142D01*
X81202380Y-186809523D02*
X81202380Y-186238095D01*
X81202380Y-186523809D02*
X80202380Y-186523809D01*
X80345238Y-186428571D01*
X80440476Y-186333333D01*
X80488095Y-186238095D01*
X80202380Y-187428571D02*
X80202380Y-187523809D01*
X80250000Y-187619047D01*
X80297619Y-187666666D01*
X80392857Y-187714285D01*
X80583333Y-187761904D01*
X80821428Y-187761904D01*
X81011904Y-187714285D01*
X81107142Y-187666666D01*
X81154761Y-187619047D01*
X81202380Y-187523809D01*
X81202380Y-187428571D01*
X81154761Y-187333333D01*
X81107142Y-187285714D01*
X81011904Y-187238095D01*
X80821428Y-187190476D01*
X80583333Y-187190476D01*
X80392857Y-187238095D01*
X80297619Y-187285714D01*
X80250000Y-187333333D01*
X80202380Y-187428571D01*
X194607142Y-206333333D02*
X194654761Y-206285714D01*
X194702380Y-206142857D01*
X194702380Y-206047619D01*
X194654761Y-205904761D01*
X194559523Y-205809523D01*
X194464285Y-205761904D01*
X194273809Y-205714285D01*
X194130952Y-205714285D01*
X193940476Y-205761904D01*
X193845238Y-205809523D01*
X193750000Y-205904761D01*
X193702380Y-206047619D01*
X193702380Y-206142857D01*
X193750000Y-206285714D01*
X193797619Y-206333333D01*
X194702380Y-206809523D02*
X194702380Y-207000000D01*
X194654761Y-207095238D01*
X194607142Y-207142857D01*
X194464285Y-207238095D01*
X194273809Y-207285714D01*
X193892857Y-207285714D01*
X193797619Y-207238095D01*
X193750000Y-207190476D01*
X193702380Y-207095238D01*
X193702380Y-206904761D01*
X193750000Y-206809523D01*
X193797619Y-206761904D01*
X193892857Y-206714285D01*
X194130952Y-206714285D01*
X194226190Y-206761904D01*
X194273809Y-206809523D01*
X194321428Y-206904761D01*
X194321428Y-207095238D01*
X194273809Y-207190476D01*
X194226190Y-207238095D01*
X194130952Y-207285714D01*
X194607142Y-195833333D02*
X194654761Y-195785714D01*
X194702380Y-195642857D01*
X194702380Y-195547619D01*
X194654761Y-195404761D01*
X194559523Y-195309523D01*
X194464285Y-195261904D01*
X194273809Y-195214285D01*
X194130952Y-195214285D01*
X193940476Y-195261904D01*
X193845238Y-195309523D01*
X193750000Y-195404761D01*
X193702380Y-195547619D01*
X193702380Y-195642857D01*
X193750000Y-195785714D01*
X193797619Y-195833333D01*
X194130952Y-196404761D02*
X194083333Y-196309523D01*
X194035714Y-196261904D01*
X193940476Y-196214285D01*
X193892857Y-196214285D01*
X193797619Y-196261904D01*
X193750000Y-196309523D01*
X193702380Y-196404761D01*
X193702380Y-196595238D01*
X193750000Y-196690476D01*
X193797619Y-196738095D01*
X193892857Y-196785714D01*
X193940476Y-196785714D01*
X194035714Y-196738095D01*
X194083333Y-196690476D01*
X194130952Y-196595238D01*
X194130952Y-196404761D01*
X194178571Y-196309523D01*
X194226190Y-196261904D01*
X194321428Y-196214285D01*
X194511904Y-196214285D01*
X194607142Y-196261904D01*
X194654761Y-196309523D01*
X194702380Y-196404761D01*
X194702380Y-196595238D01*
X194654761Y-196690476D01*
X194607142Y-196738095D01*
X194511904Y-196785714D01*
X194321428Y-196785714D01*
X194226190Y-196738095D01*
X194178571Y-196690476D01*
X194130952Y-196595238D01*
X90757142Y-51833333D02*
X90804761Y-51785714D01*
X90852380Y-51642857D01*
X90852380Y-51547619D01*
X90804761Y-51404761D01*
X90709523Y-51309523D01*
X90614285Y-51261904D01*
X90423809Y-51214285D01*
X90280952Y-51214285D01*
X90090476Y-51261904D01*
X89995238Y-51309523D01*
X89900000Y-51404761D01*
X89852380Y-51547619D01*
X89852380Y-51642857D01*
X89900000Y-51785714D01*
X89947619Y-51833333D01*
X89852380Y-52166666D02*
X89852380Y-52833333D01*
X90852380Y-52404761D01*
X97951904Y-53532380D02*
X97951904Y-54341904D01*
X97904285Y-54437142D01*
X97856666Y-54484761D01*
X97761428Y-54532380D01*
X97570952Y-54532380D01*
X97475714Y-54484761D01*
X97428095Y-54437142D01*
X97380476Y-54341904D01*
X97380476Y-53532380D01*
X96999523Y-53532380D02*
X96380476Y-53532380D01*
X96713809Y-53913333D01*
X96570952Y-53913333D01*
X96475714Y-53960952D01*
X96428095Y-54008571D01*
X96380476Y-54103809D01*
X96380476Y-54341904D01*
X96428095Y-54437142D01*
X96475714Y-54484761D01*
X96570952Y-54532380D01*
X96856666Y-54532380D01*
X96951904Y-54484761D01*
X96999523Y-54437142D01*
X117261904Y-164402380D02*
X117261904Y-165211904D01*
X117214285Y-165307142D01*
X117166666Y-165354761D01*
X117071428Y-165402380D01*
X116880952Y-165402380D01*
X116785714Y-165354761D01*
X116738095Y-165307142D01*
X116690476Y-165211904D01*
X116690476Y-164402380D01*
X116261904Y-164497619D02*
X116214285Y-164450000D01*
X116119047Y-164402380D01*
X115880952Y-164402380D01*
X115785714Y-164450000D01*
X115738095Y-164497619D01*
X115690476Y-164592857D01*
X115690476Y-164688095D01*
X115738095Y-164830952D01*
X116309523Y-165402380D01*
X115690476Y-165402380D01*
X199333333Y-48452380D02*
X199333333Y-49166666D01*
X199380952Y-49309523D01*
X199476190Y-49404761D01*
X199619047Y-49452380D01*
X199714285Y-49452380D01*
X198428571Y-48785714D02*
X198428571Y-49452380D01*
X198666666Y-48404761D02*
X198904761Y-49119047D01*
X198285714Y-49119047D01*
X70833333Y-49452380D02*
X70833333Y-50166666D01*
X70880952Y-50309523D01*
X70976190Y-50404761D01*
X71119047Y-50452380D01*
X71214285Y-50452380D01*
X70452380Y-49452380D02*
X69833333Y-49452380D01*
X70166666Y-49833333D01*
X70023809Y-49833333D01*
X69928571Y-49880952D01*
X69880952Y-49928571D01*
X69833333Y-50023809D01*
X69833333Y-50261904D01*
X69880952Y-50357142D01*
X69928571Y-50404761D01*
X70023809Y-50452380D01*
X70309523Y-50452380D01*
X70404761Y-50404761D01*
X70452380Y-50357142D01*
X67333333Y-208952380D02*
X67333333Y-209666666D01*
X67380952Y-209809523D01*
X67476190Y-209904761D01*
X67619047Y-209952380D01*
X67714285Y-209952380D01*
X66904761Y-209047619D02*
X66857142Y-209000000D01*
X66761904Y-208952380D01*
X66523809Y-208952380D01*
X66428571Y-209000000D01*
X66380952Y-209047619D01*
X66333333Y-209142857D01*
X66333333Y-209238095D01*
X66380952Y-209380952D01*
X66952380Y-209952380D01*
X66333333Y-209952380D01*
X197833333Y-208952380D02*
X197833333Y-209666666D01*
X197880952Y-209809523D01*
X197976190Y-209904761D01*
X198119047Y-209952380D01*
X198214285Y-209952380D01*
X196833333Y-209952380D02*
X197404761Y-209952380D01*
X197119047Y-209952380D02*
X197119047Y-208952380D01*
X197214285Y-209095238D01*
X197309523Y-209190476D01*
X197404761Y-209238095D01*
X116452380Y-77333333D02*
X115976190Y-77000000D01*
X116452380Y-76761904D02*
X115452380Y-76761904D01*
X115452380Y-77142857D01*
X115500000Y-77238095D01*
X115547619Y-77285714D01*
X115642857Y-77333333D01*
X115785714Y-77333333D01*
X115880952Y-77285714D01*
X115928571Y-77238095D01*
X115976190Y-77142857D01*
X115976190Y-76761904D01*
X116452380Y-78285714D02*
X116452380Y-77714285D01*
X116452380Y-78000000D02*
X115452380Y-78000000D01*
X115595238Y-77904761D01*
X115690476Y-77809523D01*
X115738095Y-77714285D01*
X113452380Y-160333333D02*
X112976190Y-160000000D01*
X113452380Y-159761904D02*
X112452380Y-159761904D01*
X112452380Y-160142857D01*
X112500000Y-160238095D01*
X112547619Y-160285714D01*
X112642857Y-160333333D01*
X112785714Y-160333333D01*
X112880952Y-160285714D01*
X112928571Y-160238095D01*
X112976190Y-160142857D01*
X112976190Y-159761904D01*
X112547619Y-160714285D02*
X112500000Y-160761904D01*
X112452380Y-160857142D01*
X112452380Y-161095238D01*
X112500000Y-161190476D01*
X112547619Y-161238095D01*
X112642857Y-161285714D01*
X112738095Y-161285714D01*
X112880952Y-161238095D01*
X113452380Y-160666666D01*
X113452380Y-161285714D01*
X120261904Y-81402380D02*
X120261904Y-82211904D01*
X120214285Y-82307142D01*
X120166666Y-82354761D01*
X120071428Y-82402380D01*
X119880952Y-82402380D01*
X119785714Y-82354761D01*
X119738095Y-82307142D01*
X119690476Y-82211904D01*
X119690476Y-81402380D01*
X118690476Y-82402380D02*
X119261904Y-82402380D01*
X118976190Y-82402380D02*
X118976190Y-81402380D01*
X119071428Y-81545238D01*
X119166666Y-81640476D01*
X119261904Y-81688095D01*
X111357142Y-160333333D02*
X111404761Y-160285714D01*
X111452380Y-160142857D01*
X111452380Y-160047619D01*
X111404761Y-159904761D01*
X111309523Y-159809523D01*
X111214285Y-159761904D01*
X111023809Y-159714285D01*
X110880952Y-159714285D01*
X110690476Y-159761904D01*
X110595238Y-159809523D01*
X110500000Y-159904761D01*
X110452380Y-160047619D01*
X110452380Y-160142857D01*
X110500000Y-160285714D01*
X110547619Y-160333333D01*
X111452380Y-161285714D02*
X111452380Y-160714285D01*
X111452380Y-161000000D02*
X110452380Y-161000000D01*
X110595238Y-160904761D01*
X110690476Y-160809523D01*
X110738095Y-160714285D01*
X114357142Y-77333333D02*
X114404761Y-77285714D01*
X114452380Y-77142857D01*
X114452380Y-77047619D01*
X114404761Y-76904761D01*
X114309523Y-76809523D01*
X114214285Y-76761904D01*
X114023809Y-76714285D01*
X113880952Y-76714285D01*
X113690476Y-76761904D01*
X113595238Y-76809523D01*
X113500000Y-76904761D01*
X113452380Y-77047619D01*
X113452380Y-77142857D01*
X113500000Y-77285714D01*
X113547619Y-77333333D01*
X113547619Y-77714285D02*
X113500000Y-77761904D01*
X113452380Y-77857142D01*
X113452380Y-78095238D01*
X113500000Y-78190476D01*
X113547619Y-78238095D01*
X113642857Y-78285714D01*
X113738095Y-78285714D01*
X113880952Y-78238095D01*
X114452380Y-77666666D01*
X114452380Y-78285714D01*
M02*
