G04 #@! TF.GenerationSoftware,KiCad,Pcbnew,(5.1.2)-1*
G04 #@! TF.CreationDate,2019-09-02T13:58:39+02:00*
G04 #@! TF.ProjectId,gross-kursiv2b,67726f73-732d-46b7-9572-73697632622e,rev?*
G04 #@! TF.SameCoordinates,Original*
G04 #@! TF.FileFunction,Legend,Top*
G04 #@! TF.FilePolarity,Positive*
%FSLAX46Y46*%
G04 Gerber Fmt 4.6, Leading zero omitted, Abs format (unit mm)*
G04 Created by KiCad (PCBNEW (5.1.2)-1) date 2019-09-02 13:58:39*
%MOMM*%
%LPD*%
G04 APERTURE LIST*
%ADD10C,0.120000*%
%ADD11C,0.150000*%
G04 APERTURE END LIST*
D10*
X89790000Y-54758578D02*
X89790000Y-54241422D01*
X91210000Y-54758578D02*
X91210000Y-54241422D01*
X86710000Y-139758578D02*
X86710000Y-139241422D01*
X85290000Y-139758578D02*
X85290000Y-139241422D01*
D11*
X81750000Y-57100000D02*
X82825000Y-57100000D01*
X82825000Y-57100000D02*
X82825000Y-56875000D01*
X82825000Y-56875000D02*
X89175000Y-56875000D01*
X89175000Y-56875000D02*
X89175000Y-57200000D01*
X82825000Y-67800000D02*
X82825000Y-68125000D01*
X82825000Y-68125000D02*
X89175000Y-68125000D01*
X89175000Y-68125000D02*
X89175000Y-67800000D01*
X84675000Y-153625000D02*
X84675000Y-153300000D01*
X78325000Y-153625000D02*
X84675000Y-153625000D01*
X78325000Y-153300000D02*
X78325000Y-153625000D01*
X84675000Y-142375000D02*
X84675000Y-142700000D01*
X78325000Y-142375000D02*
X84675000Y-142375000D01*
X78325000Y-142600000D02*
X78325000Y-142375000D01*
X77250000Y-142600000D02*
X78325000Y-142600000D01*
D10*
X82258578Y-137290000D02*
X81741422Y-137290000D01*
X82258578Y-138710000D02*
X81741422Y-138710000D01*
X86258578Y-55210000D02*
X85741422Y-55210000D01*
X86258578Y-53790000D02*
X85741422Y-53790000D01*
D11*
X85750000Y-17500000D02*
X87250000Y-17500000D01*
X87250000Y-17500000D02*
X87250000Y-26250000D01*
X80750000Y-17750000D02*
X80750000Y-26250000D01*
X72750000Y-26500000D02*
X71250000Y-26500000D01*
X71250000Y-26500000D02*
X71250000Y-17750000D01*
X77750000Y-26250000D02*
X77750000Y-17750000D01*
X66750000Y-17500000D02*
X68250000Y-17500000D01*
X68250000Y-17500000D02*
X68250000Y-26250000D01*
X61750000Y-17750000D02*
X61750000Y-26250000D01*
X53750000Y-26500000D02*
X52250000Y-26500000D01*
X52250000Y-26500000D02*
X52250000Y-17750000D01*
X58750000Y-26250000D02*
X58750000Y-17750000D01*
X46000000Y-143750000D02*
X46000000Y-145250000D01*
X46000000Y-145250000D02*
X37250000Y-145250000D01*
X45750000Y-138750000D02*
X37250000Y-138750000D01*
X37500000Y-130750000D02*
X37500000Y-129250000D01*
X37500000Y-129250000D02*
X46250000Y-129250000D01*
X37750000Y-135750000D02*
X46250000Y-135750000D01*
X47000000Y-124750000D02*
X47000000Y-126250000D01*
X47000000Y-126250000D02*
X38250000Y-126250000D01*
X46750000Y-119750000D02*
X38250000Y-119750000D01*
X38500000Y-111750000D02*
X38500000Y-110250000D01*
X38500000Y-110250000D02*
X47250000Y-110250000D01*
X38750000Y-116750000D02*
X47250000Y-116750000D01*
X50500000Y-60150000D02*
X50500000Y-61650000D01*
X50500000Y-61650000D02*
X41750000Y-61650000D01*
X50250000Y-55150000D02*
X41750000Y-55150000D01*
X42000000Y-47250000D02*
X42000000Y-45750000D01*
X42000000Y-45750000D02*
X50750000Y-45750000D01*
X42250000Y-52250000D02*
X50750000Y-52250000D01*
X52000000Y-41250000D02*
X52000000Y-42750000D01*
X52000000Y-42750000D02*
X43250000Y-42750000D01*
X51750000Y-36250000D02*
X43250000Y-36250000D01*
X43500000Y-28750000D02*
X43500000Y-27250000D01*
X43500000Y-27250000D02*
X52250000Y-27250000D01*
X43750000Y-33750000D02*
X52250000Y-33750000D01*
X36500000Y-149750000D02*
X36500000Y-148250000D01*
X36500000Y-148250000D02*
X45250000Y-148250000D01*
X36750000Y-154750000D02*
X45250000Y-154750000D01*
X45000000Y-162750000D02*
X45000000Y-164250000D01*
X45000000Y-164250000D02*
X36250000Y-164250000D01*
X44750000Y-157750000D02*
X36250000Y-157750000D01*
X35500000Y-168750000D02*
X35500000Y-167250000D01*
X35500000Y-167250000D02*
X44250000Y-167250000D01*
X35750000Y-173750000D02*
X44250000Y-173750000D01*
X44000000Y-181750000D02*
X44000000Y-183250000D01*
X44000000Y-183250000D02*
X35250000Y-183250000D01*
X43750000Y-176750000D02*
X35250000Y-176750000D01*
X50000000Y-69750000D02*
X50000000Y-71250000D01*
X50000000Y-71250000D02*
X41250000Y-71250000D01*
X49750000Y-64750000D02*
X41250000Y-64750000D01*
X40500000Y-75750000D02*
X40500000Y-74250000D01*
X40500000Y-74250000D02*
X49250000Y-74250000D01*
X40750000Y-80750000D02*
X49250000Y-80750000D01*
X49000000Y-88750000D02*
X49000000Y-90250000D01*
X49000000Y-90250000D02*
X40250000Y-90250000D01*
X48750000Y-83750000D02*
X40250000Y-83750000D01*
X39500000Y-94750000D02*
X39500000Y-93250000D01*
X39500000Y-93250000D02*
X48250000Y-93250000D01*
X39750000Y-99750000D02*
X48250000Y-99750000D01*
X77250000Y-183500000D02*
X78750000Y-183500000D01*
X78750000Y-183500000D02*
X78750000Y-192250000D01*
X72250000Y-183750000D02*
X72250000Y-192250000D01*
X64250000Y-192500000D02*
X62750000Y-192500000D01*
X62750000Y-192500000D02*
X62750000Y-183750000D01*
X69250000Y-192250000D02*
X69250000Y-183750000D01*
X58250000Y-183500000D02*
X59750000Y-183500000D01*
X59750000Y-183500000D02*
X59750000Y-192250000D01*
X53250000Y-183750000D02*
X53250000Y-192250000D01*
X45250000Y-192500000D02*
X43750000Y-192500000D01*
X43750000Y-192500000D02*
X43750000Y-183750000D01*
X50250000Y-192250000D02*
X50250000Y-183750000D01*
X81250000Y-100500000D02*
X82750000Y-100500000D01*
X82750000Y-100500000D02*
X82750000Y-109250000D01*
X76250000Y-100750000D02*
X76250000Y-109250000D01*
X68250000Y-109500000D02*
X66750000Y-109500000D01*
X66750000Y-109500000D02*
X66750000Y-100750000D01*
X73250000Y-109250000D02*
X73250000Y-100750000D01*
X62250000Y-100500000D02*
X63750000Y-100500000D01*
X63750000Y-100500000D02*
X63750000Y-109250000D01*
X57250000Y-100750000D02*
X57250000Y-109250000D01*
X49250000Y-109500000D02*
X47750000Y-109500000D01*
X47750000Y-109500000D02*
X47750000Y-100750000D01*
X54250000Y-109250000D02*
X54250000Y-100750000D01*
X83250000Y-192500000D02*
X81750000Y-192500000D01*
X81750000Y-192500000D02*
X81750000Y-183750000D01*
X88250000Y-192250000D02*
X88250000Y-183750000D01*
X96250000Y-183500000D02*
X97750000Y-183500000D01*
X97750000Y-183500000D02*
X97750000Y-192250000D01*
X91250000Y-183750000D02*
X91250000Y-192250000D01*
X102250000Y-192500000D02*
X100750000Y-192500000D01*
X100750000Y-192500000D02*
X100750000Y-183750000D01*
X107250000Y-192250000D02*
X107250000Y-183750000D01*
X115250000Y-183500000D02*
X116750000Y-183500000D01*
X116750000Y-183500000D02*
X116750000Y-192250000D01*
X110250000Y-183750000D02*
X110250000Y-192250000D01*
X87250000Y-109500000D02*
X85750000Y-109500000D01*
X85750000Y-109500000D02*
X85750000Y-100750000D01*
X92250000Y-109250000D02*
X92250000Y-100750000D01*
X100250000Y-100500000D02*
X101750000Y-100500000D01*
X101750000Y-100500000D02*
X101750000Y-109250000D01*
X95250000Y-100750000D02*
X95250000Y-109250000D01*
X106250000Y-109500000D02*
X104750000Y-109500000D01*
X104750000Y-109500000D02*
X104750000Y-100750000D01*
X111250000Y-109250000D02*
X111250000Y-100750000D01*
X119250000Y-100500000D02*
X120750000Y-100500000D01*
X120750000Y-100500000D02*
X120750000Y-109250000D01*
X114250000Y-100750000D02*
X114250000Y-109250000D01*
X118000000Y-149750000D02*
X118000000Y-148250000D01*
X118000000Y-148250000D02*
X126750000Y-148250000D01*
X118250000Y-154750000D02*
X126750000Y-154750000D01*
X126500000Y-162750000D02*
X126500000Y-164250000D01*
X126500000Y-164250000D02*
X117750000Y-164250000D01*
X126250000Y-157750000D02*
X117750000Y-157750000D01*
X117000000Y-168750000D02*
X117000000Y-167250000D01*
X117000000Y-167250000D02*
X125750000Y-167250000D01*
X117250000Y-173750000D02*
X125750000Y-173750000D01*
X125500000Y-181750000D02*
X125500000Y-183250000D01*
X125500000Y-183250000D02*
X116750000Y-183250000D01*
X125250000Y-176750000D02*
X116750000Y-176750000D01*
X122500000Y-66250000D02*
X122500000Y-64750000D01*
X122500000Y-64750000D02*
X131250000Y-64750000D01*
X122750000Y-71250000D02*
X131250000Y-71250000D01*
X131000000Y-79250000D02*
X131000000Y-80750000D01*
X131000000Y-80750000D02*
X122250000Y-80750000D01*
X130750000Y-74250000D02*
X122250000Y-74250000D01*
X121500000Y-85250000D02*
X121500000Y-83750000D01*
X121500000Y-83750000D02*
X130250000Y-83750000D01*
X121750000Y-90250000D02*
X130250000Y-90250000D01*
X130000000Y-98250000D02*
X130000000Y-99750000D01*
X130000000Y-99750000D02*
X121250000Y-99750000D01*
X129750000Y-93250000D02*
X121250000Y-93250000D01*
X127500000Y-143750000D02*
X127500000Y-145250000D01*
X127500000Y-145250000D02*
X118750000Y-145250000D01*
X127250000Y-138750000D02*
X118750000Y-138750000D01*
X119000000Y-130750000D02*
X119000000Y-129250000D01*
X119000000Y-129250000D02*
X127750000Y-129250000D01*
X119250000Y-135750000D02*
X127750000Y-135750000D01*
X128500000Y-124750000D02*
X128500000Y-126250000D01*
X128500000Y-126250000D02*
X119750000Y-126250000D01*
X128250000Y-119750000D02*
X119750000Y-119750000D01*
X120000000Y-111750000D02*
X120000000Y-110250000D01*
X120000000Y-110250000D02*
X128750000Y-110250000D01*
X120250000Y-116750000D02*
X128750000Y-116750000D01*
X123000000Y-56750000D02*
X123000000Y-55250000D01*
X123000000Y-55250000D02*
X131750000Y-55250000D01*
X123250000Y-61750000D02*
X131750000Y-61750000D01*
X132500000Y-50750000D02*
X132500000Y-52250000D01*
X132500000Y-52250000D02*
X123750000Y-52250000D01*
X132250000Y-45750000D02*
X123750000Y-45750000D01*
X124500000Y-37750000D02*
X124500000Y-36250000D01*
X124500000Y-36250000D02*
X133250000Y-36250000D01*
X124750000Y-42750000D02*
X133250000Y-42750000D01*
X134000000Y-32250000D02*
X134000000Y-33750000D01*
X134000000Y-33750000D02*
X125250000Y-33750000D01*
X133750000Y-27250000D02*
X125250000Y-27250000D01*
X91750000Y-26500000D02*
X90250000Y-26500000D01*
X90250000Y-26500000D02*
X90250000Y-17750000D01*
X96750000Y-26250000D02*
X96750000Y-17750000D01*
X104750000Y-17500000D02*
X106250000Y-17500000D01*
X106250000Y-17500000D02*
X106250000Y-26250000D01*
X99750000Y-17750000D02*
X99750000Y-26250000D01*
X110750000Y-26500000D02*
X109250000Y-26500000D01*
X109250000Y-26500000D02*
X109250000Y-17750000D01*
X115750000Y-26250000D02*
X115750000Y-17750000D01*
X123750000Y-17500000D02*
X125250000Y-17500000D01*
X125250000Y-17500000D02*
X125250000Y-26250000D01*
X118750000Y-17750000D02*
X118750000Y-26250000D01*
X89302380Y-54666666D02*
X88826190Y-55000000D01*
X89302380Y-55238095D02*
X88302380Y-55238095D01*
X88302380Y-54857142D01*
X88350000Y-54761904D01*
X88397619Y-54714285D01*
X88492857Y-54666666D01*
X88635714Y-54666666D01*
X88730952Y-54714285D01*
X88778571Y-54761904D01*
X88826190Y-54857142D01*
X88826190Y-55238095D01*
X89302380Y-53714285D02*
X89302380Y-54285714D01*
X89302380Y-54000000D02*
X88302380Y-54000000D01*
X88445238Y-54095238D01*
X88540476Y-54190476D01*
X88588095Y-54285714D01*
X84802380Y-139666666D02*
X84326190Y-140000000D01*
X84802380Y-140238095D02*
X83802380Y-140238095D01*
X83802380Y-139857142D01*
X83850000Y-139761904D01*
X83897619Y-139714285D01*
X83992857Y-139666666D01*
X84135714Y-139666666D01*
X84230952Y-139714285D01*
X84278571Y-139761904D01*
X84326190Y-139857142D01*
X84326190Y-140238095D01*
X83897619Y-139285714D02*
X83850000Y-139238095D01*
X83802380Y-139142857D01*
X83802380Y-138904761D01*
X83850000Y-138809523D01*
X83897619Y-138761904D01*
X83992857Y-138714285D01*
X84088095Y-138714285D01*
X84230952Y-138761904D01*
X84802380Y-139333333D01*
X84802380Y-138714285D01*
X85238095Y-55402380D02*
X85238095Y-56211904D01*
X85285714Y-56307142D01*
X85333333Y-56354761D01*
X85428571Y-56402380D01*
X85619047Y-56402380D01*
X85714285Y-56354761D01*
X85761904Y-56307142D01*
X85809523Y-56211904D01*
X85809523Y-55402380D01*
X86809523Y-56402380D02*
X86238095Y-56402380D01*
X86523809Y-56402380D02*
X86523809Y-55402380D01*
X86428571Y-55545238D01*
X86333333Y-55640476D01*
X86238095Y-55688095D01*
X80738095Y-140902380D02*
X80738095Y-141711904D01*
X80785714Y-141807142D01*
X80833333Y-141854761D01*
X80928571Y-141902380D01*
X81119047Y-141902380D01*
X81214285Y-141854761D01*
X81261904Y-141807142D01*
X81309523Y-141711904D01*
X81309523Y-140902380D01*
X81738095Y-140997619D02*
X81785714Y-140950000D01*
X81880952Y-140902380D01*
X82119047Y-140902380D01*
X82214285Y-140950000D01*
X82261904Y-140997619D01*
X82309523Y-141092857D01*
X82309523Y-141188095D01*
X82261904Y-141330952D01*
X81690476Y-141902380D01*
X82309523Y-141902380D01*
X81833333Y-140007142D02*
X81785714Y-140054761D01*
X81642857Y-140102380D01*
X81547619Y-140102380D01*
X81404761Y-140054761D01*
X81309523Y-139959523D01*
X81261904Y-139864285D01*
X81214285Y-139673809D01*
X81214285Y-139530952D01*
X81261904Y-139340476D01*
X81309523Y-139245238D01*
X81404761Y-139150000D01*
X81547619Y-139102380D01*
X81642857Y-139102380D01*
X81785714Y-139150000D01*
X81833333Y-139197619D01*
X82785714Y-140102380D02*
X82214285Y-140102380D01*
X82500000Y-140102380D02*
X82500000Y-139102380D01*
X82404761Y-139245238D01*
X82309523Y-139340476D01*
X82214285Y-139388095D01*
X85833333Y-56507142D02*
X85785714Y-56554761D01*
X85642857Y-56602380D01*
X85547619Y-56602380D01*
X85404761Y-56554761D01*
X85309523Y-56459523D01*
X85261904Y-56364285D01*
X85214285Y-56173809D01*
X85214285Y-56030952D01*
X85261904Y-55840476D01*
X85309523Y-55745238D01*
X85404761Y-55650000D01*
X85547619Y-55602380D01*
X85642857Y-55602380D01*
X85785714Y-55650000D01*
X85833333Y-55697619D01*
X86214285Y-55697619D02*
X86261904Y-55650000D01*
X86357142Y-55602380D01*
X86595238Y-55602380D01*
X86690476Y-55650000D01*
X86738095Y-55697619D01*
X86785714Y-55792857D01*
X86785714Y-55888095D01*
X86738095Y-56030952D01*
X86166666Y-56602380D01*
X86785714Y-56602380D01*
X88452380Y-20238095D02*
X87452380Y-20238095D01*
X87452380Y-20000000D01*
X87500000Y-19857142D01*
X87595238Y-19761904D01*
X87690476Y-19714285D01*
X87880952Y-19666666D01*
X88023809Y-19666666D01*
X88214285Y-19714285D01*
X88309523Y-19761904D01*
X88404761Y-19857142D01*
X88452380Y-20000000D01*
X88452380Y-20238095D01*
X88452380Y-18714285D02*
X88452380Y-19285714D01*
X88452380Y-19000000D02*
X87452380Y-19000000D01*
X87595238Y-19095238D01*
X87690476Y-19190476D01*
X87738095Y-19285714D01*
X70952380Y-25238095D02*
X69952380Y-25238095D01*
X69952380Y-25000000D01*
X70000000Y-24857142D01*
X70095238Y-24761904D01*
X70190476Y-24714285D01*
X70380952Y-24666666D01*
X70523809Y-24666666D01*
X70714285Y-24714285D01*
X70809523Y-24761904D01*
X70904761Y-24857142D01*
X70952380Y-25000000D01*
X70952380Y-25238095D01*
X70047619Y-24285714D02*
X70000000Y-24238095D01*
X69952380Y-24142857D01*
X69952380Y-23904761D01*
X70000000Y-23809523D01*
X70047619Y-23761904D01*
X70142857Y-23714285D01*
X70238095Y-23714285D01*
X70380952Y-23761904D01*
X70952380Y-24333333D01*
X70952380Y-23714285D01*
X69452380Y-20238095D02*
X68452380Y-20238095D01*
X68452380Y-20000000D01*
X68500000Y-19857142D01*
X68595238Y-19761904D01*
X68690476Y-19714285D01*
X68880952Y-19666666D01*
X69023809Y-19666666D01*
X69214285Y-19714285D01*
X69309523Y-19761904D01*
X69404761Y-19857142D01*
X69452380Y-20000000D01*
X69452380Y-20238095D01*
X68452380Y-19333333D02*
X68452380Y-18714285D01*
X68833333Y-19047619D01*
X68833333Y-18904761D01*
X68880952Y-18809523D01*
X68928571Y-18761904D01*
X69023809Y-18714285D01*
X69261904Y-18714285D01*
X69357142Y-18761904D01*
X69404761Y-18809523D01*
X69452380Y-18904761D01*
X69452380Y-19190476D01*
X69404761Y-19285714D01*
X69357142Y-19333333D01*
X51952380Y-25238095D02*
X50952380Y-25238095D01*
X50952380Y-25000000D01*
X51000000Y-24857142D01*
X51095238Y-24761904D01*
X51190476Y-24714285D01*
X51380952Y-24666666D01*
X51523809Y-24666666D01*
X51714285Y-24714285D01*
X51809523Y-24761904D01*
X51904761Y-24857142D01*
X51952380Y-25000000D01*
X51952380Y-25238095D01*
X51285714Y-23809523D02*
X51952380Y-23809523D01*
X50904761Y-24047619D02*
X51619047Y-24285714D01*
X51619047Y-23666666D01*
X43261904Y-146452380D02*
X43261904Y-145452380D01*
X43500000Y-145452380D01*
X43642857Y-145500000D01*
X43738095Y-145595238D01*
X43785714Y-145690476D01*
X43833333Y-145880952D01*
X43833333Y-146023809D01*
X43785714Y-146214285D01*
X43738095Y-146309523D01*
X43642857Y-146404761D01*
X43500000Y-146452380D01*
X43261904Y-146452380D01*
X44738095Y-145452380D02*
X44261904Y-145452380D01*
X44214285Y-145928571D01*
X44261904Y-145880952D01*
X44357142Y-145833333D01*
X44595238Y-145833333D01*
X44690476Y-145880952D01*
X44738095Y-145928571D01*
X44785714Y-146023809D01*
X44785714Y-146261904D01*
X44738095Y-146357142D01*
X44690476Y-146404761D01*
X44595238Y-146452380D01*
X44357142Y-146452380D01*
X44261904Y-146404761D01*
X44214285Y-146357142D01*
X38761904Y-128952380D02*
X38761904Y-127952380D01*
X39000000Y-127952380D01*
X39142857Y-128000000D01*
X39238095Y-128095238D01*
X39285714Y-128190476D01*
X39333333Y-128380952D01*
X39333333Y-128523809D01*
X39285714Y-128714285D01*
X39238095Y-128809523D01*
X39142857Y-128904761D01*
X39000000Y-128952380D01*
X38761904Y-128952380D01*
X40190476Y-127952380D02*
X40000000Y-127952380D01*
X39904761Y-128000000D01*
X39857142Y-128047619D01*
X39761904Y-128190476D01*
X39714285Y-128380952D01*
X39714285Y-128761904D01*
X39761904Y-128857142D01*
X39809523Y-128904761D01*
X39904761Y-128952380D01*
X40095238Y-128952380D01*
X40190476Y-128904761D01*
X40238095Y-128857142D01*
X40285714Y-128761904D01*
X40285714Y-128523809D01*
X40238095Y-128428571D01*
X40190476Y-128380952D01*
X40095238Y-128333333D01*
X39904761Y-128333333D01*
X39809523Y-128380952D01*
X39761904Y-128428571D01*
X39714285Y-128523809D01*
X44261904Y-127452380D02*
X44261904Y-126452380D01*
X44500000Y-126452380D01*
X44642857Y-126500000D01*
X44738095Y-126595238D01*
X44785714Y-126690476D01*
X44833333Y-126880952D01*
X44833333Y-127023809D01*
X44785714Y-127214285D01*
X44738095Y-127309523D01*
X44642857Y-127404761D01*
X44500000Y-127452380D01*
X44261904Y-127452380D01*
X45166666Y-126452380D02*
X45833333Y-126452380D01*
X45404761Y-127452380D01*
X39761904Y-109952380D02*
X39761904Y-108952380D01*
X40000000Y-108952380D01*
X40142857Y-109000000D01*
X40238095Y-109095238D01*
X40285714Y-109190476D01*
X40333333Y-109380952D01*
X40333333Y-109523809D01*
X40285714Y-109714285D01*
X40238095Y-109809523D01*
X40142857Y-109904761D01*
X40000000Y-109952380D01*
X39761904Y-109952380D01*
X40904761Y-109380952D02*
X40809523Y-109333333D01*
X40761904Y-109285714D01*
X40714285Y-109190476D01*
X40714285Y-109142857D01*
X40761904Y-109047619D01*
X40809523Y-109000000D01*
X40904761Y-108952380D01*
X41095238Y-108952380D01*
X41190476Y-109000000D01*
X41238095Y-109047619D01*
X41285714Y-109142857D01*
X41285714Y-109190476D01*
X41238095Y-109285714D01*
X41190476Y-109333333D01*
X41095238Y-109380952D01*
X40904761Y-109380952D01*
X40809523Y-109428571D01*
X40761904Y-109476190D01*
X40714285Y-109571428D01*
X40714285Y-109761904D01*
X40761904Y-109857142D01*
X40809523Y-109904761D01*
X40904761Y-109952380D01*
X41095238Y-109952380D01*
X41190476Y-109904761D01*
X41238095Y-109857142D01*
X41285714Y-109761904D01*
X41285714Y-109571428D01*
X41238095Y-109476190D01*
X41190476Y-109428571D01*
X41095238Y-109380952D01*
X47761904Y-62852380D02*
X47761904Y-61852380D01*
X48000000Y-61852380D01*
X48142857Y-61900000D01*
X48238095Y-61995238D01*
X48285714Y-62090476D01*
X48333333Y-62280952D01*
X48333333Y-62423809D01*
X48285714Y-62614285D01*
X48238095Y-62709523D01*
X48142857Y-62804761D01*
X48000000Y-62852380D01*
X47761904Y-62852380D01*
X48809523Y-62852380D02*
X49000000Y-62852380D01*
X49095238Y-62804761D01*
X49142857Y-62757142D01*
X49238095Y-62614285D01*
X49285714Y-62423809D01*
X49285714Y-62042857D01*
X49238095Y-61947619D01*
X49190476Y-61900000D01*
X49095238Y-61852380D01*
X48904761Y-61852380D01*
X48809523Y-61900000D01*
X48761904Y-61947619D01*
X48714285Y-62042857D01*
X48714285Y-62280952D01*
X48761904Y-62376190D01*
X48809523Y-62423809D01*
X48904761Y-62471428D01*
X49095238Y-62471428D01*
X49190476Y-62423809D01*
X49238095Y-62376190D01*
X49285714Y-62280952D01*
X42785714Y-45452380D02*
X42785714Y-44452380D01*
X43023809Y-44452380D01*
X43166666Y-44500000D01*
X43261904Y-44595238D01*
X43309523Y-44690476D01*
X43357142Y-44880952D01*
X43357142Y-45023809D01*
X43309523Y-45214285D01*
X43261904Y-45309523D01*
X43166666Y-45404761D01*
X43023809Y-45452380D01*
X42785714Y-45452380D01*
X44309523Y-45452380D02*
X43738095Y-45452380D01*
X44023809Y-45452380D02*
X44023809Y-44452380D01*
X43928571Y-44595238D01*
X43833333Y-44690476D01*
X43738095Y-44738095D01*
X44928571Y-44452380D02*
X45023809Y-44452380D01*
X45119047Y-44500000D01*
X45166666Y-44547619D01*
X45214285Y-44642857D01*
X45261904Y-44833333D01*
X45261904Y-45071428D01*
X45214285Y-45261904D01*
X45166666Y-45357142D01*
X45119047Y-45404761D01*
X45023809Y-45452380D01*
X44928571Y-45452380D01*
X44833333Y-45404761D01*
X44785714Y-45357142D01*
X44738095Y-45261904D01*
X44690476Y-45071428D01*
X44690476Y-44833333D01*
X44738095Y-44642857D01*
X44785714Y-44547619D01*
X44833333Y-44500000D01*
X44928571Y-44452380D01*
X48785714Y-43952380D02*
X48785714Y-42952380D01*
X49023809Y-42952380D01*
X49166666Y-43000000D01*
X49261904Y-43095238D01*
X49309523Y-43190476D01*
X49357142Y-43380952D01*
X49357142Y-43523809D01*
X49309523Y-43714285D01*
X49261904Y-43809523D01*
X49166666Y-43904761D01*
X49023809Y-43952380D01*
X48785714Y-43952380D01*
X50309523Y-43952380D02*
X49738095Y-43952380D01*
X50023809Y-43952380D02*
X50023809Y-42952380D01*
X49928571Y-43095238D01*
X49833333Y-43190476D01*
X49738095Y-43238095D01*
X51261904Y-43952380D02*
X50690476Y-43952380D01*
X50976190Y-43952380D02*
X50976190Y-42952380D01*
X50880952Y-43095238D01*
X50785714Y-43190476D01*
X50690476Y-43238095D01*
X44285714Y-26952380D02*
X44285714Y-25952380D01*
X44523809Y-25952380D01*
X44666666Y-26000000D01*
X44761904Y-26095238D01*
X44809523Y-26190476D01*
X44857142Y-26380952D01*
X44857142Y-26523809D01*
X44809523Y-26714285D01*
X44761904Y-26809523D01*
X44666666Y-26904761D01*
X44523809Y-26952380D01*
X44285714Y-26952380D01*
X45809523Y-26952380D02*
X45238095Y-26952380D01*
X45523809Y-26952380D02*
X45523809Y-25952380D01*
X45428571Y-26095238D01*
X45333333Y-26190476D01*
X45238095Y-26238095D01*
X46190476Y-26047619D02*
X46238095Y-26000000D01*
X46333333Y-25952380D01*
X46571428Y-25952380D01*
X46666666Y-26000000D01*
X46714285Y-26047619D01*
X46761904Y-26142857D01*
X46761904Y-26238095D01*
X46714285Y-26380952D01*
X46142857Y-26952380D01*
X46761904Y-26952380D01*
X37285714Y-147952380D02*
X37285714Y-146952380D01*
X37523809Y-146952380D01*
X37666666Y-147000000D01*
X37761904Y-147095238D01*
X37809523Y-147190476D01*
X37857142Y-147380952D01*
X37857142Y-147523809D01*
X37809523Y-147714285D01*
X37761904Y-147809523D01*
X37666666Y-147904761D01*
X37523809Y-147952380D01*
X37285714Y-147952380D01*
X38809523Y-147952380D02*
X38238095Y-147952380D01*
X38523809Y-147952380D02*
X38523809Y-146952380D01*
X38428571Y-147095238D01*
X38333333Y-147190476D01*
X38238095Y-147238095D01*
X39142857Y-146952380D02*
X39761904Y-146952380D01*
X39428571Y-147333333D01*
X39571428Y-147333333D01*
X39666666Y-147380952D01*
X39714285Y-147428571D01*
X39761904Y-147523809D01*
X39761904Y-147761904D01*
X39714285Y-147857142D01*
X39666666Y-147904761D01*
X39571428Y-147952380D01*
X39285714Y-147952380D01*
X39190476Y-147904761D01*
X39142857Y-147857142D01*
X41785714Y-165452380D02*
X41785714Y-164452380D01*
X42023809Y-164452380D01*
X42166666Y-164500000D01*
X42261904Y-164595238D01*
X42309523Y-164690476D01*
X42357142Y-164880952D01*
X42357142Y-165023809D01*
X42309523Y-165214285D01*
X42261904Y-165309523D01*
X42166666Y-165404761D01*
X42023809Y-165452380D01*
X41785714Y-165452380D01*
X43309523Y-165452380D02*
X42738095Y-165452380D01*
X43023809Y-165452380D02*
X43023809Y-164452380D01*
X42928571Y-164595238D01*
X42833333Y-164690476D01*
X42738095Y-164738095D01*
X44166666Y-164785714D02*
X44166666Y-165452380D01*
X43928571Y-164404761D02*
X43690476Y-165119047D01*
X44309523Y-165119047D01*
X36285714Y-166952380D02*
X36285714Y-165952380D01*
X36523809Y-165952380D01*
X36666666Y-166000000D01*
X36761904Y-166095238D01*
X36809523Y-166190476D01*
X36857142Y-166380952D01*
X36857142Y-166523809D01*
X36809523Y-166714285D01*
X36761904Y-166809523D01*
X36666666Y-166904761D01*
X36523809Y-166952380D01*
X36285714Y-166952380D01*
X37809523Y-166952380D02*
X37238095Y-166952380D01*
X37523809Y-166952380D02*
X37523809Y-165952380D01*
X37428571Y-166095238D01*
X37333333Y-166190476D01*
X37238095Y-166238095D01*
X38714285Y-165952380D02*
X38238095Y-165952380D01*
X38190476Y-166428571D01*
X38238095Y-166380952D01*
X38333333Y-166333333D01*
X38571428Y-166333333D01*
X38666666Y-166380952D01*
X38714285Y-166428571D01*
X38761904Y-166523809D01*
X38761904Y-166761904D01*
X38714285Y-166857142D01*
X38666666Y-166904761D01*
X38571428Y-166952380D01*
X38333333Y-166952380D01*
X38238095Y-166904761D01*
X38190476Y-166857142D01*
X40785714Y-184452380D02*
X40785714Y-183452380D01*
X41023809Y-183452380D01*
X41166666Y-183500000D01*
X41261904Y-183595238D01*
X41309523Y-183690476D01*
X41357142Y-183880952D01*
X41357142Y-184023809D01*
X41309523Y-184214285D01*
X41261904Y-184309523D01*
X41166666Y-184404761D01*
X41023809Y-184452380D01*
X40785714Y-184452380D01*
X42309523Y-184452380D02*
X41738095Y-184452380D01*
X42023809Y-184452380D02*
X42023809Y-183452380D01*
X41928571Y-183595238D01*
X41833333Y-183690476D01*
X41738095Y-183738095D01*
X43166666Y-183452380D02*
X42976190Y-183452380D01*
X42880952Y-183500000D01*
X42833333Y-183547619D01*
X42738095Y-183690476D01*
X42690476Y-183880952D01*
X42690476Y-184261904D01*
X42738095Y-184357142D01*
X42785714Y-184404761D01*
X42880952Y-184452380D01*
X43071428Y-184452380D01*
X43166666Y-184404761D01*
X43214285Y-184357142D01*
X43261904Y-184261904D01*
X43261904Y-184023809D01*
X43214285Y-183928571D01*
X43166666Y-183880952D01*
X43071428Y-183833333D01*
X42880952Y-183833333D01*
X42785714Y-183880952D01*
X42738095Y-183928571D01*
X42690476Y-184023809D01*
X46785714Y-72452380D02*
X46785714Y-71452380D01*
X47023809Y-71452380D01*
X47166666Y-71500000D01*
X47261904Y-71595238D01*
X47309523Y-71690476D01*
X47357142Y-71880952D01*
X47357142Y-72023809D01*
X47309523Y-72214285D01*
X47261904Y-72309523D01*
X47166666Y-72404761D01*
X47023809Y-72452380D01*
X46785714Y-72452380D01*
X48309523Y-72452380D02*
X47738095Y-72452380D01*
X48023809Y-72452380D02*
X48023809Y-71452380D01*
X47928571Y-71595238D01*
X47833333Y-71690476D01*
X47738095Y-71738095D01*
X48642857Y-71452380D02*
X49309523Y-71452380D01*
X48880952Y-72452380D01*
X41285714Y-73952380D02*
X41285714Y-72952380D01*
X41523809Y-72952380D01*
X41666666Y-73000000D01*
X41761904Y-73095238D01*
X41809523Y-73190476D01*
X41857142Y-73380952D01*
X41857142Y-73523809D01*
X41809523Y-73714285D01*
X41761904Y-73809523D01*
X41666666Y-73904761D01*
X41523809Y-73952380D01*
X41285714Y-73952380D01*
X42809523Y-73952380D02*
X42238095Y-73952380D01*
X42523809Y-73952380D02*
X42523809Y-72952380D01*
X42428571Y-73095238D01*
X42333333Y-73190476D01*
X42238095Y-73238095D01*
X43380952Y-73380952D02*
X43285714Y-73333333D01*
X43238095Y-73285714D01*
X43190476Y-73190476D01*
X43190476Y-73142857D01*
X43238095Y-73047619D01*
X43285714Y-73000000D01*
X43380952Y-72952380D01*
X43571428Y-72952380D01*
X43666666Y-73000000D01*
X43714285Y-73047619D01*
X43761904Y-73142857D01*
X43761904Y-73190476D01*
X43714285Y-73285714D01*
X43666666Y-73333333D01*
X43571428Y-73380952D01*
X43380952Y-73380952D01*
X43285714Y-73428571D01*
X43238095Y-73476190D01*
X43190476Y-73571428D01*
X43190476Y-73761904D01*
X43238095Y-73857142D01*
X43285714Y-73904761D01*
X43380952Y-73952380D01*
X43571428Y-73952380D01*
X43666666Y-73904761D01*
X43714285Y-73857142D01*
X43761904Y-73761904D01*
X43761904Y-73571428D01*
X43714285Y-73476190D01*
X43666666Y-73428571D01*
X43571428Y-73380952D01*
X45785714Y-91452380D02*
X45785714Y-90452380D01*
X46023809Y-90452380D01*
X46166666Y-90500000D01*
X46261904Y-90595238D01*
X46309523Y-90690476D01*
X46357142Y-90880952D01*
X46357142Y-91023809D01*
X46309523Y-91214285D01*
X46261904Y-91309523D01*
X46166666Y-91404761D01*
X46023809Y-91452380D01*
X45785714Y-91452380D01*
X47309523Y-91452380D02*
X46738095Y-91452380D01*
X47023809Y-91452380D02*
X47023809Y-90452380D01*
X46928571Y-90595238D01*
X46833333Y-90690476D01*
X46738095Y-90738095D01*
X47785714Y-91452380D02*
X47976190Y-91452380D01*
X48071428Y-91404761D01*
X48119047Y-91357142D01*
X48214285Y-91214285D01*
X48261904Y-91023809D01*
X48261904Y-90642857D01*
X48214285Y-90547619D01*
X48166666Y-90500000D01*
X48071428Y-90452380D01*
X47880952Y-90452380D01*
X47785714Y-90500000D01*
X47738095Y-90547619D01*
X47690476Y-90642857D01*
X47690476Y-90880952D01*
X47738095Y-90976190D01*
X47785714Y-91023809D01*
X47880952Y-91071428D01*
X48071428Y-91071428D01*
X48166666Y-91023809D01*
X48214285Y-90976190D01*
X48261904Y-90880952D01*
X40285714Y-92952380D02*
X40285714Y-91952380D01*
X40523809Y-91952380D01*
X40666666Y-92000000D01*
X40761904Y-92095238D01*
X40809523Y-92190476D01*
X40857142Y-92380952D01*
X40857142Y-92523809D01*
X40809523Y-92714285D01*
X40761904Y-92809523D01*
X40666666Y-92904761D01*
X40523809Y-92952380D01*
X40285714Y-92952380D01*
X41238095Y-92047619D02*
X41285714Y-92000000D01*
X41380952Y-91952380D01*
X41619047Y-91952380D01*
X41714285Y-92000000D01*
X41761904Y-92047619D01*
X41809523Y-92142857D01*
X41809523Y-92238095D01*
X41761904Y-92380952D01*
X41190476Y-92952380D01*
X41809523Y-92952380D01*
X42428571Y-91952380D02*
X42523809Y-91952380D01*
X42619047Y-92000000D01*
X42666666Y-92047619D01*
X42714285Y-92142857D01*
X42761904Y-92333333D01*
X42761904Y-92571428D01*
X42714285Y-92761904D01*
X42666666Y-92857142D01*
X42619047Y-92904761D01*
X42523809Y-92952380D01*
X42428571Y-92952380D01*
X42333333Y-92904761D01*
X42285714Y-92857142D01*
X42238095Y-92761904D01*
X42190476Y-92571428D01*
X42190476Y-92333333D01*
X42238095Y-92142857D01*
X42285714Y-92047619D01*
X42333333Y-92000000D01*
X42428571Y-91952380D01*
X79952380Y-186714285D02*
X78952380Y-186714285D01*
X78952380Y-186476190D01*
X79000000Y-186333333D01*
X79095238Y-186238095D01*
X79190476Y-186190476D01*
X79380952Y-186142857D01*
X79523809Y-186142857D01*
X79714285Y-186190476D01*
X79809523Y-186238095D01*
X79904761Y-186333333D01*
X79952380Y-186476190D01*
X79952380Y-186714285D01*
X79047619Y-185761904D02*
X79000000Y-185714285D01*
X78952380Y-185619047D01*
X78952380Y-185380952D01*
X79000000Y-185285714D01*
X79047619Y-185238095D01*
X79142857Y-185190476D01*
X79238095Y-185190476D01*
X79380952Y-185238095D01*
X79952380Y-185809523D01*
X79952380Y-185190476D01*
X79952380Y-184238095D02*
X79952380Y-184809523D01*
X79952380Y-184523809D02*
X78952380Y-184523809D01*
X79095238Y-184619047D01*
X79190476Y-184714285D01*
X79238095Y-184809523D01*
X62452380Y-191714285D02*
X61452380Y-191714285D01*
X61452380Y-191476190D01*
X61500000Y-191333333D01*
X61595238Y-191238095D01*
X61690476Y-191190476D01*
X61880952Y-191142857D01*
X62023809Y-191142857D01*
X62214285Y-191190476D01*
X62309523Y-191238095D01*
X62404761Y-191333333D01*
X62452380Y-191476190D01*
X62452380Y-191714285D01*
X61547619Y-190761904D02*
X61500000Y-190714285D01*
X61452380Y-190619047D01*
X61452380Y-190380952D01*
X61500000Y-190285714D01*
X61547619Y-190238095D01*
X61642857Y-190190476D01*
X61738095Y-190190476D01*
X61880952Y-190238095D01*
X62452380Y-190809523D01*
X62452380Y-190190476D01*
X61547619Y-189809523D02*
X61500000Y-189761904D01*
X61452380Y-189666666D01*
X61452380Y-189428571D01*
X61500000Y-189333333D01*
X61547619Y-189285714D01*
X61642857Y-189238095D01*
X61738095Y-189238095D01*
X61880952Y-189285714D01*
X62452380Y-189857142D01*
X62452380Y-189238095D01*
X60952380Y-186714285D02*
X59952380Y-186714285D01*
X59952380Y-186476190D01*
X60000000Y-186333333D01*
X60095238Y-186238095D01*
X60190476Y-186190476D01*
X60380952Y-186142857D01*
X60523809Y-186142857D01*
X60714285Y-186190476D01*
X60809523Y-186238095D01*
X60904761Y-186333333D01*
X60952380Y-186476190D01*
X60952380Y-186714285D01*
X60047619Y-185761904D02*
X60000000Y-185714285D01*
X59952380Y-185619047D01*
X59952380Y-185380952D01*
X60000000Y-185285714D01*
X60047619Y-185238095D01*
X60142857Y-185190476D01*
X60238095Y-185190476D01*
X60380952Y-185238095D01*
X60952380Y-185809523D01*
X60952380Y-185190476D01*
X59952380Y-184857142D02*
X59952380Y-184238095D01*
X60333333Y-184571428D01*
X60333333Y-184428571D01*
X60380952Y-184333333D01*
X60428571Y-184285714D01*
X60523809Y-184238095D01*
X60761904Y-184238095D01*
X60857142Y-184285714D01*
X60904761Y-184333333D01*
X60952380Y-184428571D01*
X60952380Y-184714285D01*
X60904761Y-184809523D01*
X60857142Y-184857142D01*
X43452380Y-191714285D02*
X42452380Y-191714285D01*
X42452380Y-191476190D01*
X42500000Y-191333333D01*
X42595238Y-191238095D01*
X42690476Y-191190476D01*
X42880952Y-191142857D01*
X43023809Y-191142857D01*
X43214285Y-191190476D01*
X43309523Y-191238095D01*
X43404761Y-191333333D01*
X43452380Y-191476190D01*
X43452380Y-191714285D01*
X42547619Y-190761904D02*
X42500000Y-190714285D01*
X42452380Y-190619047D01*
X42452380Y-190380952D01*
X42500000Y-190285714D01*
X42547619Y-190238095D01*
X42642857Y-190190476D01*
X42738095Y-190190476D01*
X42880952Y-190238095D01*
X43452380Y-190809523D01*
X43452380Y-190190476D01*
X42785714Y-189333333D02*
X43452380Y-189333333D01*
X42404761Y-189571428D02*
X43119047Y-189809523D01*
X43119047Y-189190476D01*
X83952380Y-103714285D02*
X82952380Y-103714285D01*
X82952380Y-103476190D01*
X83000000Y-103333333D01*
X83095238Y-103238095D01*
X83190476Y-103190476D01*
X83380952Y-103142857D01*
X83523809Y-103142857D01*
X83714285Y-103190476D01*
X83809523Y-103238095D01*
X83904761Y-103333333D01*
X83952380Y-103476190D01*
X83952380Y-103714285D01*
X83047619Y-102761904D02*
X83000000Y-102714285D01*
X82952380Y-102619047D01*
X82952380Y-102380952D01*
X83000000Y-102285714D01*
X83047619Y-102238095D01*
X83142857Y-102190476D01*
X83238095Y-102190476D01*
X83380952Y-102238095D01*
X83952380Y-102809523D01*
X83952380Y-102190476D01*
X82952380Y-101285714D02*
X82952380Y-101761904D01*
X83428571Y-101809523D01*
X83380952Y-101761904D01*
X83333333Y-101666666D01*
X83333333Y-101428571D01*
X83380952Y-101333333D01*
X83428571Y-101285714D01*
X83523809Y-101238095D01*
X83761904Y-101238095D01*
X83857142Y-101285714D01*
X83904761Y-101333333D01*
X83952380Y-101428571D01*
X83952380Y-101666666D01*
X83904761Y-101761904D01*
X83857142Y-101809523D01*
X66452380Y-108714285D02*
X65452380Y-108714285D01*
X65452380Y-108476190D01*
X65500000Y-108333333D01*
X65595238Y-108238095D01*
X65690476Y-108190476D01*
X65880952Y-108142857D01*
X66023809Y-108142857D01*
X66214285Y-108190476D01*
X66309523Y-108238095D01*
X66404761Y-108333333D01*
X66452380Y-108476190D01*
X66452380Y-108714285D01*
X65547619Y-107761904D02*
X65500000Y-107714285D01*
X65452380Y-107619047D01*
X65452380Y-107380952D01*
X65500000Y-107285714D01*
X65547619Y-107238095D01*
X65642857Y-107190476D01*
X65738095Y-107190476D01*
X65880952Y-107238095D01*
X66452380Y-107809523D01*
X66452380Y-107190476D01*
X65452380Y-106333333D02*
X65452380Y-106523809D01*
X65500000Y-106619047D01*
X65547619Y-106666666D01*
X65690476Y-106761904D01*
X65880952Y-106809523D01*
X66261904Y-106809523D01*
X66357142Y-106761904D01*
X66404761Y-106714285D01*
X66452380Y-106619047D01*
X66452380Y-106428571D01*
X66404761Y-106333333D01*
X66357142Y-106285714D01*
X66261904Y-106238095D01*
X66023809Y-106238095D01*
X65928571Y-106285714D01*
X65880952Y-106333333D01*
X65833333Y-106428571D01*
X65833333Y-106619047D01*
X65880952Y-106714285D01*
X65928571Y-106761904D01*
X66023809Y-106809523D01*
X64952380Y-103714285D02*
X63952380Y-103714285D01*
X63952380Y-103476190D01*
X64000000Y-103333333D01*
X64095238Y-103238095D01*
X64190476Y-103190476D01*
X64380952Y-103142857D01*
X64523809Y-103142857D01*
X64714285Y-103190476D01*
X64809523Y-103238095D01*
X64904761Y-103333333D01*
X64952380Y-103476190D01*
X64952380Y-103714285D01*
X64047619Y-102761904D02*
X64000000Y-102714285D01*
X63952380Y-102619047D01*
X63952380Y-102380952D01*
X64000000Y-102285714D01*
X64047619Y-102238095D01*
X64142857Y-102190476D01*
X64238095Y-102190476D01*
X64380952Y-102238095D01*
X64952380Y-102809523D01*
X64952380Y-102190476D01*
X63952380Y-101857142D02*
X63952380Y-101190476D01*
X64952380Y-101619047D01*
X47452380Y-108714285D02*
X46452380Y-108714285D01*
X46452380Y-108476190D01*
X46500000Y-108333333D01*
X46595238Y-108238095D01*
X46690476Y-108190476D01*
X46880952Y-108142857D01*
X47023809Y-108142857D01*
X47214285Y-108190476D01*
X47309523Y-108238095D01*
X47404761Y-108333333D01*
X47452380Y-108476190D01*
X47452380Y-108714285D01*
X46547619Y-107761904D02*
X46500000Y-107714285D01*
X46452380Y-107619047D01*
X46452380Y-107380952D01*
X46500000Y-107285714D01*
X46547619Y-107238095D01*
X46642857Y-107190476D01*
X46738095Y-107190476D01*
X46880952Y-107238095D01*
X47452380Y-107809523D01*
X47452380Y-107190476D01*
X46880952Y-106619047D02*
X46833333Y-106714285D01*
X46785714Y-106761904D01*
X46690476Y-106809523D01*
X46642857Y-106809523D01*
X46547619Y-106761904D01*
X46500000Y-106714285D01*
X46452380Y-106619047D01*
X46452380Y-106428571D01*
X46500000Y-106333333D01*
X46547619Y-106285714D01*
X46642857Y-106238095D01*
X46690476Y-106238095D01*
X46785714Y-106285714D01*
X46833333Y-106333333D01*
X46880952Y-106428571D01*
X46880952Y-106619047D01*
X46928571Y-106714285D01*
X46976190Y-106761904D01*
X47071428Y-106809523D01*
X47261904Y-106809523D01*
X47357142Y-106761904D01*
X47404761Y-106714285D01*
X47452380Y-106619047D01*
X47452380Y-106428571D01*
X47404761Y-106333333D01*
X47357142Y-106285714D01*
X47261904Y-106238095D01*
X47071428Y-106238095D01*
X46976190Y-106285714D01*
X46928571Y-106333333D01*
X46880952Y-106428571D01*
X81452380Y-191714285D02*
X80452380Y-191714285D01*
X80452380Y-191476190D01*
X80500000Y-191333333D01*
X80595238Y-191238095D01*
X80690476Y-191190476D01*
X80880952Y-191142857D01*
X81023809Y-191142857D01*
X81214285Y-191190476D01*
X81309523Y-191238095D01*
X81404761Y-191333333D01*
X81452380Y-191476190D01*
X81452380Y-191714285D01*
X80547619Y-190761904D02*
X80500000Y-190714285D01*
X80452380Y-190619047D01*
X80452380Y-190380952D01*
X80500000Y-190285714D01*
X80547619Y-190238095D01*
X80642857Y-190190476D01*
X80738095Y-190190476D01*
X80880952Y-190238095D01*
X81452380Y-190809523D01*
X81452380Y-190190476D01*
X81452380Y-189714285D02*
X81452380Y-189523809D01*
X81404761Y-189428571D01*
X81357142Y-189380952D01*
X81214285Y-189285714D01*
X81023809Y-189238095D01*
X80642857Y-189238095D01*
X80547619Y-189285714D01*
X80500000Y-189333333D01*
X80452380Y-189428571D01*
X80452380Y-189619047D01*
X80500000Y-189714285D01*
X80547619Y-189761904D01*
X80642857Y-189809523D01*
X80880952Y-189809523D01*
X80976190Y-189761904D01*
X81023809Y-189714285D01*
X81071428Y-189619047D01*
X81071428Y-189428571D01*
X81023809Y-189333333D01*
X80976190Y-189285714D01*
X80880952Y-189238095D01*
X98952380Y-186714285D02*
X97952380Y-186714285D01*
X97952380Y-186476190D01*
X98000000Y-186333333D01*
X98095238Y-186238095D01*
X98190476Y-186190476D01*
X98380952Y-186142857D01*
X98523809Y-186142857D01*
X98714285Y-186190476D01*
X98809523Y-186238095D01*
X98904761Y-186333333D01*
X98952380Y-186476190D01*
X98952380Y-186714285D01*
X97952380Y-185809523D02*
X97952380Y-185190476D01*
X98333333Y-185523809D01*
X98333333Y-185380952D01*
X98380952Y-185285714D01*
X98428571Y-185238095D01*
X98523809Y-185190476D01*
X98761904Y-185190476D01*
X98857142Y-185238095D01*
X98904761Y-185285714D01*
X98952380Y-185380952D01*
X98952380Y-185666666D01*
X98904761Y-185761904D01*
X98857142Y-185809523D01*
X97952380Y-184571428D02*
X97952380Y-184476190D01*
X98000000Y-184380952D01*
X98047619Y-184333333D01*
X98142857Y-184285714D01*
X98333333Y-184238095D01*
X98571428Y-184238095D01*
X98761904Y-184285714D01*
X98857142Y-184333333D01*
X98904761Y-184380952D01*
X98952380Y-184476190D01*
X98952380Y-184571428D01*
X98904761Y-184666666D01*
X98857142Y-184714285D01*
X98761904Y-184761904D01*
X98571428Y-184809523D01*
X98333333Y-184809523D01*
X98142857Y-184761904D01*
X98047619Y-184714285D01*
X98000000Y-184666666D01*
X97952380Y-184571428D01*
X100452380Y-191714285D02*
X99452380Y-191714285D01*
X99452380Y-191476190D01*
X99500000Y-191333333D01*
X99595238Y-191238095D01*
X99690476Y-191190476D01*
X99880952Y-191142857D01*
X100023809Y-191142857D01*
X100214285Y-191190476D01*
X100309523Y-191238095D01*
X100404761Y-191333333D01*
X100452380Y-191476190D01*
X100452380Y-191714285D01*
X99452380Y-190809523D02*
X99452380Y-190190476D01*
X99833333Y-190523809D01*
X99833333Y-190380952D01*
X99880952Y-190285714D01*
X99928571Y-190238095D01*
X100023809Y-190190476D01*
X100261904Y-190190476D01*
X100357142Y-190238095D01*
X100404761Y-190285714D01*
X100452380Y-190380952D01*
X100452380Y-190666666D01*
X100404761Y-190761904D01*
X100357142Y-190809523D01*
X100452380Y-189238095D02*
X100452380Y-189809523D01*
X100452380Y-189523809D02*
X99452380Y-189523809D01*
X99595238Y-189619047D01*
X99690476Y-189714285D01*
X99738095Y-189809523D01*
X117952380Y-186714285D02*
X116952380Y-186714285D01*
X116952380Y-186476190D01*
X117000000Y-186333333D01*
X117095238Y-186238095D01*
X117190476Y-186190476D01*
X117380952Y-186142857D01*
X117523809Y-186142857D01*
X117714285Y-186190476D01*
X117809523Y-186238095D01*
X117904761Y-186333333D01*
X117952380Y-186476190D01*
X117952380Y-186714285D01*
X116952380Y-185809523D02*
X116952380Y-185190476D01*
X117333333Y-185523809D01*
X117333333Y-185380952D01*
X117380952Y-185285714D01*
X117428571Y-185238095D01*
X117523809Y-185190476D01*
X117761904Y-185190476D01*
X117857142Y-185238095D01*
X117904761Y-185285714D01*
X117952380Y-185380952D01*
X117952380Y-185666666D01*
X117904761Y-185761904D01*
X117857142Y-185809523D01*
X117047619Y-184809523D02*
X117000000Y-184761904D01*
X116952380Y-184666666D01*
X116952380Y-184428571D01*
X117000000Y-184333333D01*
X117047619Y-184285714D01*
X117142857Y-184238095D01*
X117238095Y-184238095D01*
X117380952Y-184285714D01*
X117952380Y-184857142D01*
X117952380Y-184238095D01*
X85452380Y-108714285D02*
X84452380Y-108714285D01*
X84452380Y-108476190D01*
X84500000Y-108333333D01*
X84595238Y-108238095D01*
X84690476Y-108190476D01*
X84880952Y-108142857D01*
X85023809Y-108142857D01*
X85214285Y-108190476D01*
X85309523Y-108238095D01*
X85404761Y-108333333D01*
X85452380Y-108476190D01*
X85452380Y-108714285D01*
X84452380Y-107809523D02*
X84452380Y-107190476D01*
X84833333Y-107523809D01*
X84833333Y-107380952D01*
X84880952Y-107285714D01*
X84928571Y-107238095D01*
X85023809Y-107190476D01*
X85261904Y-107190476D01*
X85357142Y-107238095D01*
X85404761Y-107285714D01*
X85452380Y-107380952D01*
X85452380Y-107666666D01*
X85404761Y-107761904D01*
X85357142Y-107809523D01*
X84452380Y-106857142D02*
X84452380Y-106238095D01*
X84833333Y-106571428D01*
X84833333Y-106428571D01*
X84880952Y-106333333D01*
X84928571Y-106285714D01*
X85023809Y-106238095D01*
X85261904Y-106238095D01*
X85357142Y-106285714D01*
X85404761Y-106333333D01*
X85452380Y-106428571D01*
X85452380Y-106714285D01*
X85404761Y-106809523D01*
X85357142Y-106857142D01*
X102952380Y-103714285D02*
X101952380Y-103714285D01*
X101952380Y-103476190D01*
X102000000Y-103333333D01*
X102095238Y-103238095D01*
X102190476Y-103190476D01*
X102380952Y-103142857D01*
X102523809Y-103142857D01*
X102714285Y-103190476D01*
X102809523Y-103238095D01*
X102904761Y-103333333D01*
X102952380Y-103476190D01*
X102952380Y-103714285D01*
X101952380Y-102809523D02*
X101952380Y-102190476D01*
X102333333Y-102523809D01*
X102333333Y-102380952D01*
X102380952Y-102285714D01*
X102428571Y-102238095D01*
X102523809Y-102190476D01*
X102761904Y-102190476D01*
X102857142Y-102238095D01*
X102904761Y-102285714D01*
X102952380Y-102380952D01*
X102952380Y-102666666D01*
X102904761Y-102761904D01*
X102857142Y-102809523D01*
X102285714Y-101333333D02*
X102952380Y-101333333D01*
X101904761Y-101571428D02*
X102619047Y-101809523D01*
X102619047Y-101190476D01*
X104452380Y-108714285D02*
X103452380Y-108714285D01*
X103452380Y-108476190D01*
X103500000Y-108333333D01*
X103595238Y-108238095D01*
X103690476Y-108190476D01*
X103880952Y-108142857D01*
X104023809Y-108142857D01*
X104214285Y-108190476D01*
X104309523Y-108238095D01*
X104404761Y-108333333D01*
X104452380Y-108476190D01*
X104452380Y-108714285D01*
X103452380Y-107809523D02*
X103452380Y-107190476D01*
X103833333Y-107523809D01*
X103833333Y-107380952D01*
X103880952Y-107285714D01*
X103928571Y-107238095D01*
X104023809Y-107190476D01*
X104261904Y-107190476D01*
X104357142Y-107238095D01*
X104404761Y-107285714D01*
X104452380Y-107380952D01*
X104452380Y-107666666D01*
X104404761Y-107761904D01*
X104357142Y-107809523D01*
X103452380Y-106285714D02*
X103452380Y-106761904D01*
X103928571Y-106809523D01*
X103880952Y-106761904D01*
X103833333Y-106666666D01*
X103833333Y-106428571D01*
X103880952Y-106333333D01*
X103928571Y-106285714D01*
X104023809Y-106238095D01*
X104261904Y-106238095D01*
X104357142Y-106285714D01*
X104404761Y-106333333D01*
X104452380Y-106428571D01*
X104452380Y-106666666D01*
X104404761Y-106761904D01*
X104357142Y-106809523D01*
X121952380Y-103714285D02*
X120952380Y-103714285D01*
X120952380Y-103476190D01*
X121000000Y-103333333D01*
X121095238Y-103238095D01*
X121190476Y-103190476D01*
X121380952Y-103142857D01*
X121523809Y-103142857D01*
X121714285Y-103190476D01*
X121809523Y-103238095D01*
X121904761Y-103333333D01*
X121952380Y-103476190D01*
X121952380Y-103714285D01*
X120952380Y-102809523D02*
X120952380Y-102190476D01*
X121333333Y-102523809D01*
X121333333Y-102380952D01*
X121380952Y-102285714D01*
X121428571Y-102238095D01*
X121523809Y-102190476D01*
X121761904Y-102190476D01*
X121857142Y-102238095D01*
X121904761Y-102285714D01*
X121952380Y-102380952D01*
X121952380Y-102666666D01*
X121904761Y-102761904D01*
X121857142Y-102809523D01*
X120952380Y-101333333D02*
X120952380Y-101523809D01*
X121000000Y-101619047D01*
X121047619Y-101666666D01*
X121190476Y-101761904D01*
X121380952Y-101809523D01*
X121761904Y-101809523D01*
X121857142Y-101761904D01*
X121904761Y-101714285D01*
X121952380Y-101619047D01*
X121952380Y-101428571D01*
X121904761Y-101333333D01*
X121857142Y-101285714D01*
X121761904Y-101238095D01*
X121523809Y-101238095D01*
X121428571Y-101285714D01*
X121380952Y-101333333D01*
X121333333Y-101428571D01*
X121333333Y-101619047D01*
X121380952Y-101714285D01*
X121428571Y-101761904D01*
X121523809Y-101809523D01*
X118785714Y-147952380D02*
X118785714Y-146952380D01*
X119023809Y-146952380D01*
X119166666Y-147000000D01*
X119261904Y-147095238D01*
X119309523Y-147190476D01*
X119357142Y-147380952D01*
X119357142Y-147523809D01*
X119309523Y-147714285D01*
X119261904Y-147809523D01*
X119166666Y-147904761D01*
X119023809Y-147952380D01*
X118785714Y-147952380D01*
X119690476Y-146952380D02*
X120309523Y-146952380D01*
X119976190Y-147333333D01*
X120119047Y-147333333D01*
X120214285Y-147380952D01*
X120261904Y-147428571D01*
X120309523Y-147523809D01*
X120309523Y-147761904D01*
X120261904Y-147857142D01*
X120214285Y-147904761D01*
X120119047Y-147952380D01*
X119833333Y-147952380D01*
X119738095Y-147904761D01*
X119690476Y-147857142D01*
X120642857Y-146952380D02*
X121309523Y-146952380D01*
X120880952Y-147952380D01*
X123285714Y-165452380D02*
X123285714Y-164452380D01*
X123523809Y-164452380D01*
X123666666Y-164500000D01*
X123761904Y-164595238D01*
X123809523Y-164690476D01*
X123857142Y-164880952D01*
X123857142Y-165023809D01*
X123809523Y-165214285D01*
X123761904Y-165309523D01*
X123666666Y-165404761D01*
X123523809Y-165452380D01*
X123285714Y-165452380D01*
X124190476Y-164452380D02*
X124809523Y-164452380D01*
X124476190Y-164833333D01*
X124619047Y-164833333D01*
X124714285Y-164880952D01*
X124761904Y-164928571D01*
X124809523Y-165023809D01*
X124809523Y-165261904D01*
X124761904Y-165357142D01*
X124714285Y-165404761D01*
X124619047Y-165452380D01*
X124333333Y-165452380D01*
X124238095Y-165404761D01*
X124190476Y-165357142D01*
X125380952Y-164880952D02*
X125285714Y-164833333D01*
X125238095Y-164785714D01*
X125190476Y-164690476D01*
X125190476Y-164642857D01*
X125238095Y-164547619D01*
X125285714Y-164500000D01*
X125380952Y-164452380D01*
X125571428Y-164452380D01*
X125666666Y-164500000D01*
X125714285Y-164547619D01*
X125761904Y-164642857D01*
X125761904Y-164690476D01*
X125714285Y-164785714D01*
X125666666Y-164833333D01*
X125571428Y-164880952D01*
X125380952Y-164880952D01*
X125285714Y-164928571D01*
X125238095Y-164976190D01*
X125190476Y-165071428D01*
X125190476Y-165261904D01*
X125238095Y-165357142D01*
X125285714Y-165404761D01*
X125380952Y-165452380D01*
X125571428Y-165452380D01*
X125666666Y-165404761D01*
X125714285Y-165357142D01*
X125761904Y-165261904D01*
X125761904Y-165071428D01*
X125714285Y-164976190D01*
X125666666Y-164928571D01*
X125571428Y-164880952D01*
X117785714Y-166952380D02*
X117785714Y-165952380D01*
X118023809Y-165952380D01*
X118166666Y-166000000D01*
X118261904Y-166095238D01*
X118309523Y-166190476D01*
X118357142Y-166380952D01*
X118357142Y-166523809D01*
X118309523Y-166714285D01*
X118261904Y-166809523D01*
X118166666Y-166904761D01*
X118023809Y-166952380D01*
X117785714Y-166952380D01*
X118690476Y-165952380D02*
X119309523Y-165952380D01*
X118976190Y-166333333D01*
X119119047Y-166333333D01*
X119214285Y-166380952D01*
X119261904Y-166428571D01*
X119309523Y-166523809D01*
X119309523Y-166761904D01*
X119261904Y-166857142D01*
X119214285Y-166904761D01*
X119119047Y-166952380D01*
X118833333Y-166952380D01*
X118738095Y-166904761D01*
X118690476Y-166857142D01*
X119785714Y-166952380D02*
X119976190Y-166952380D01*
X120071428Y-166904761D01*
X120119047Y-166857142D01*
X120214285Y-166714285D01*
X120261904Y-166523809D01*
X120261904Y-166142857D01*
X120214285Y-166047619D01*
X120166666Y-166000000D01*
X120071428Y-165952380D01*
X119880952Y-165952380D01*
X119785714Y-166000000D01*
X119738095Y-166047619D01*
X119690476Y-166142857D01*
X119690476Y-166380952D01*
X119738095Y-166476190D01*
X119785714Y-166523809D01*
X119880952Y-166571428D01*
X120071428Y-166571428D01*
X120166666Y-166523809D01*
X120214285Y-166476190D01*
X120261904Y-166380952D01*
X122285714Y-184452380D02*
X122285714Y-183452380D01*
X122523809Y-183452380D01*
X122666666Y-183500000D01*
X122761904Y-183595238D01*
X122809523Y-183690476D01*
X122857142Y-183880952D01*
X122857142Y-184023809D01*
X122809523Y-184214285D01*
X122761904Y-184309523D01*
X122666666Y-184404761D01*
X122523809Y-184452380D01*
X122285714Y-184452380D01*
X123714285Y-183785714D02*
X123714285Y-184452380D01*
X123476190Y-183404761D02*
X123238095Y-184119047D01*
X123857142Y-184119047D01*
X124428571Y-183452380D02*
X124523809Y-183452380D01*
X124619047Y-183500000D01*
X124666666Y-183547619D01*
X124714285Y-183642857D01*
X124761904Y-183833333D01*
X124761904Y-184071428D01*
X124714285Y-184261904D01*
X124666666Y-184357142D01*
X124619047Y-184404761D01*
X124523809Y-184452380D01*
X124428571Y-184452380D01*
X124333333Y-184404761D01*
X124285714Y-184357142D01*
X124238095Y-184261904D01*
X124190476Y-184071428D01*
X124190476Y-183833333D01*
X124238095Y-183642857D01*
X124285714Y-183547619D01*
X124333333Y-183500000D01*
X124428571Y-183452380D01*
X123285714Y-64452380D02*
X123285714Y-63452380D01*
X123523809Y-63452380D01*
X123666666Y-63500000D01*
X123761904Y-63595238D01*
X123809523Y-63690476D01*
X123857142Y-63880952D01*
X123857142Y-64023809D01*
X123809523Y-64214285D01*
X123761904Y-64309523D01*
X123666666Y-64404761D01*
X123523809Y-64452380D01*
X123285714Y-64452380D01*
X124714285Y-63785714D02*
X124714285Y-64452380D01*
X124476190Y-63404761D02*
X124238095Y-64119047D01*
X124857142Y-64119047D01*
X125761904Y-64452380D02*
X125190476Y-64452380D01*
X125476190Y-64452380D02*
X125476190Y-63452380D01*
X125380952Y-63595238D01*
X125285714Y-63690476D01*
X125190476Y-63738095D01*
X127785714Y-81952380D02*
X127785714Y-80952380D01*
X128023809Y-80952380D01*
X128166666Y-81000000D01*
X128261904Y-81095238D01*
X128309523Y-81190476D01*
X128357142Y-81380952D01*
X128357142Y-81523809D01*
X128309523Y-81714285D01*
X128261904Y-81809523D01*
X128166666Y-81904761D01*
X128023809Y-81952380D01*
X127785714Y-81952380D01*
X129214285Y-81285714D02*
X129214285Y-81952380D01*
X128976190Y-80904761D02*
X128738095Y-81619047D01*
X129357142Y-81619047D01*
X129690476Y-81047619D02*
X129738095Y-81000000D01*
X129833333Y-80952380D01*
X130071428Y-80952380D01*
X130166666Y-81000000D01*
X130214285Y-81047619D01*
X130261904Y-81142857D01*
X130261904Y-81238095D01*
X130214285Y-81380952D01*
X129642857Y-81952380D01*
X130261904Y-81952380D01*
X122285714Y-83452380D02*
X122285714Y-82452380D01*
X122523809Y-82452380D01*
X122666666Y-82500000D01*
X122761904Y-82595238D01*
X122809523Y-82690476D01*
X122857142Y-82880952D01*
X122857142Y-83023809D01*
X122809523Y-83214285D01*
X122761904Y-83309523D01*
X122666666Y-83404761D01*
X122523809Y-83452380D01*
X122285714Y-83452380D01*
X123714285Y-82785714D02*
X123714285Y-83452380D01*
X123476190Y-82404761D02*
X123238095Y-83119047D01*
X123857142Y-83119047D01*
X124142857Y-82452380D02*
X124761904Y-82452380D01*
X124428571Y-82833333D01*
X124571428Y-82833333D01*
X124666666Y-82880952D01*
X124714285Y-82928571D01*
X124761904Y-83023809D01*
X124761904Y-83261904D01*
X124714285Y-83357142D01*
X124666666Y-83404761D01*
X124571428Y-83452380D01*
X124285714Y-83452380D01*
X124190476Y-83404761D01*
X124142857Y-83357142D01*
X126785714Y-100952380D02*
X126785714Y-99952380D01*
X127023809Y-99952380D01*
X127166666Y-100000000D01*
X127261904Y-100095238D01*
X127309523Y-100190476D01*
X127357142Y-100380952D01*
X127357142Y-100523809D01*
X127309523Y-100714285D01*
X127261904Y-100809523D01*
X127166666Y-100904761D01*
X127023809Y-100952380D01*
X126785714Y-100952380D01*
X128214285Y-100285714D02*
X128214285Y-100952380D01*
X127976190Y-99904761D02*
X127738095Y-100619047D01*
X128357142Y-100619047D01*
X129166666Y-100285714D02*
X129166666Y-100952380D01*
X128928571Y-99904761D02*
X128690476Y-100619047D01*
X129309523Y-100619047D01*
X124285714Y-146452380D02*
X124285714Y-145452380D01*
X124523809Y-145452380D01*
X124666666Y-145500000D01*
X124761904Y-145595238D01*
X124809523Y-145690476D01*
X124857142Y-145880952D01*
X124857142Y-146023809D01*
X124809523Y-146214285D01*
X124761904Y-146309523D01*
X124666666Y-146404761D01*
X124523809Y-146452380D01*
X124285714Y-146452380D01*
X125714285Y-145785714D02*
X125714285Y-146452380D01*
X125476190Y-145404761D02*
X125238095Y-146119047D01*
X125857142Y-146119047D01*
X126714285Y-145452380D02*
X126238095Y-145452380D01*
X126190476Y-145928571D01*
X126238095Y-145880952D01*
X126333333Y-145833333D01*
X126571428Y-145833333D01*
X126666666Y-145880952D01*
X126714285Y-145928571D01*
X126761904Y-146023809D01*
X126761904Y-146261904D01*
X126714285Y-146357142D01*
X126666666Y-146404761D01*
X126571428Y-146452380D01*
X126333333Y-146452380D01*
X126238095Y-146404761D01*
X126190476Y-146357142D01*
X119785714Y-128952380D02*
X119785714Y-127952380D01*
X120023809Y-127952380D01*
X120166666Y-128000000D01*
X120261904Y-128095238D01*
X120309523Y-128190476D01*
X120357142Y-128380952D01*
X120357142Y-128523809D01*
X120309523Y-128714285D01*
X120261904Y-128809523D01*
X120166666Y-128904761D01*
X120023809Y-128952380D01*
X119785714Y-128952380D01*
X121214285Y-128285714D02*
X121214285Y-128952380D01*
X120976190Y-127904761D02*
X120738095Y-128619047D01*
X121357142Y-128619047D01*
X122166666Y-127952380D02*
X121976190Y-127952380D01*
X121880952Y-128000000D01*
X121833333Y-128047619D01*
X121738095Y-128190476D01*
X121690476Y-128380952D01*
X121690476Y-128761904D01*
X121738095Y-128857142D01*
X121785714Y-128904761D01*
X121880952Y-128952380D01*
X122071428Y-128952380D01*
X122166666Y-128904761D01*
X122214285Y-128857142D01*
X122261904Y-128761904D01*
X122261904Y-128523809D01*
X122214285Y-128428571D01*
X122166666Y-128380952D01*
X122071428Y-128333333D01*
X121880952Y-128333333D01*
X121785714Y-128380952D01*
X121738095Y-128428571D01*
X121690476Y-128523809D01*
X125285714Y-127452380D02*
X125285714Y-126452380D01*
X125523809Y-126452380D01*
X125666666Y-126500000D01*
X125761904Y-126595238D01*
X125809523Y-126690476D01*
X125857142Y-126880952D01*
X125857142Y-127023809D01*
X125809523Y-127214285D01*
X125761904Y-127309523D01*
X125666666Y-127404761D01*
X125523809Y-127452380D01*
X125285714Y-127452380D01*
X126714285Y-126785714D02*
X126714285Y-127452380D01*
X126476190Y-126404761D02*
X126238095Y-127119047D01*
X126857142Y-127119047D01*
X127142857Y-126452380D02*
X127809523Y-126452380D01*
X127380952Y-127452380D01*
X120785714Y-109952380D02*
X120785714Y-108952380D01*
X121023809Y-108952380D01*
X121166666Y-109000000D01*
X121261904Y-109095238D01*
X121309523Y-109190476D01*
X121357142Y-109380952D01*
X121357142Y-109523809D01*
X121309523Y-109714285D01*
X121261904Y-109809523D01*
X121166666Y-109904761D01*
X121023809Y-109952380D01*
X120785714Y-109952380D01*
X122214285Y-109285714D02*
X122214285Y-109952380D01*
X121976190Y-108904761D02*
X121738095Y-109619047D01*
X122357142Y-109619047D01*
X122880952Y-109380952D02*
X122785714Y-109333333D01*
X122738095Y-109285714D01*
X122690476Y-109190476D01*
X122690476Y-109142857D01*
X122738095Y-109047619D01*
X122785714Y-109000000D01*
X122880952Y-108952380D01*
X123071428Y-108952380D01*
X123166666Y-109000000D01*
X123214285Y-109047619D01*
X123261904Y-109142857D01*
X123261904Y-109190476D01*
X123214285Y-109285714D01*
X123166666Y-109333333D01*
X123071428Y-109380952D01*
X122880952Y-109380952D01*
X122785714Y-109428571D01*
X122738095Y-109476190D01*
X122690476Y-109571428D01*
X122690476Y-109761904D01*
X122738095Y-109857142D01*
X122785714Y-109904761D01*
X122880952Y-109952380D01*
X123071428Y-109952380D01*
X123166666Y-109904761D01*
X123214285Y-109857142D01*
X123261904Y-109761904D01*
X123261904Y-109571428D01*
X123214285Y-109476190D01*
X123166666Y-109428571D01*
X123071428Y-109380952D01*
X123785714Y-54952380D02*
X123785714Y-53952380D01*
X124023809Y-53952380D01*
X124166666Y-54000000D01*
X124261904Y-54095238D01*
X124309523Y-54190476D01*
X124357142Y-54380952D01*
X124357142Y-54523809D01*
X124309523Y-54714285D01*
X124261904Y-54809523D01*
X124166666Y-54904761D01*
X124023809Y-54952380D01*
X123785714Y-54952380D01*
X125214285Y-54285714D02*
X125214285Y-54952380D01*
X124976190Y-53904761D02*
X124738095Y-54619047D01*
X125357142Y-54619047D01*
X125785714Y-54952380D02*
X125976190Y-54952380D01*
X126071428Y-54904761D01*
X126119047Y-54857142D01*
X126214285Y-54714285D01*
X126261904Y-54523809D01*
X126261904Y-54142857D01*
X126214285Y-54047619D01*
X126166666Y-54000000D01*
X126071428Y-53952380D01*
X125880952Y-53952380D01*
X125785714Y-54000000D01*
X125738095Y-54047619D01*
X125690476Y-54142857D01*
X125690476Y-54380952D01*
X125738095Y-54476190D01*
X125785714Y-54523809D01*
X125880952Y-54571428D01*
X126071428Y-54571428D01*
X126166666Y-54523809D01*
X126214285Y-54476190D01*
X126261904Y-54380952D01*
X129285714Y-53452380D02*
X129285714Y-52452380D01*
X129523809Y-52452380D01*
X129666666Y-52500000D01*
X129761904Y-52595238D01*
X129809523Y-52690476D01*
X129857142Y-52880952D01*
X129857142Y-53023809D01*
X129809523Y-53214285D01*
X129761904Y-53309523D01*
X129666666Y-53404761D01*
X129523809Y-53452380D01*
X129285714Y-53452380D01*
X130761904Y-52452380D02*
X130285714Y-52452380D01*
X130238095Y-52928571D01*
X130285714Y-52880952D01*
X130380952Y-52833333D01*
X130619047Y-52833333D01*
X130714285Y-52880952D01*
X130761904Y-52928571D01*
X130809523Y-53023809D01*
X130809523Y-53261904D01*
X130761904Y-53357142D01*
X130714285Y-53404761D01*
X130619047Y-53452380D01*
X130380952Y-53452380D01*
X130285714Y-53404761D01*
X130238095Y-53357142D01*
X131428571Y-52452380D02*
X131523809Y-52452380D01*
X131619047Y-52500000D01*
X131666666Y-52547619D01*
X131714285Y-52642857D01*
X131761904Y-52833333D01*
X131761904Y-53071428D01*
X131714285Y-53261904D01*
X131666666Y-53357142D01*
X131619047Y-53404761D01*
X131523809Y-53452380D01*
X131428571Y-53452380D01*
X131333333Y-53404761D01*
X131285714Y-53357142D01*
X131238095Y-53261904D01*
X131190476Y-53071428D01*
X131190476Y-52833333D01*
X131238095Y-52642857D01*
X131285714Y-52547619D01*
X131333333Y-52500000D01*
X131428571Y-52452380D01*
X125285714Y-35952380D02*
X125285714Y-34952380D01*
X125523809Y-34952380D01*
X125666666Y-35000000D01*
X125761904Y-35095238D01*
X125809523Y-35190476D01*
X125857142Y-35380952D01*
X125857142Y-35523809D01*
X125809523Y-35714285D01*
X125761904Y-35809523D01*
X125666666Y-35904761D01*
X125523809Y-35952380D01*
X125285714Y-35952380D01*
X126761904Y-34952380D02*
X126285714Y-34952380D01*
X126238095Y-35428571D01*
X126285714Y-35380952D01*
X126380952Y-35333333D01*
X126619047Y-35333333D01*
X126714285Y-35380952D01*
X126761904Y-35428571D01*
X126809523Y-35523809D01*
X126809523Y-35761904D01*
X126761904Y-35857142D01*
X126714285Y-35904761D01*
X126619047Y-35952380D01*
X126380952Y-35952380D01*
X126285714Y-35904761D01*
X126238095Y-35857142D01*
X127761904Y-35952380D02*
X127190476Y-35952380D01*
X127476190Y-35952380D02*
X127476190Y-34952380D01*
X127380952Y-35095238D01*
X127285714Y-35190476D01*
X127190476Y-35238095D01*
X130785714Y-34952380D02*
X130785714Y-33952380D01*
X131023809Y-33952380D01*
X131166666Y-34000000D01*
X131261904Y-34095238D01*
X131309523Y-34190476D01*
X131357142Y-34380952D01*
X131357142Y-34523809D01*
X131309523Y-34714285D01*
X131261904Y-34809523D01*
X131166666Y-34904761D01*
X131023809Y-34952380D01*
X130785714Y-34952380D01*
X132261904Y-33952380D02*
X131785714Y-33952380D01*
X131738095Y-34428571D01*
X131785714Y-34380952D01*
X131880952Y-34333333D01*
X132119047Y-34333333D01*
X132214285Y-34380952D01*
X132261904Y-34428571D01*
X132309523Y-34523809D01*
X132309523Y-34761904D01*
X132261904Y-34857142D01*
X132214285Y-34904761D01*
X132119047Y-34952380D01*
X131880952Y-34952380D01*
X131785714Y-34904761D01*
X131738095Y-34857142D01*
X132690476Y-34047619D02*
X132738095Y-34000000D01*
X132833333Y-33952380D01*
X133071428Y-33952380D01*
X133166666Y-34000000D01*
X133214285Y-34047619D01*
X133261904Y-34142857D01*
X133261904Y-34238095D01*
X133214285Y-34380952D01*
X132642857Y-34952380D01*
X133261904Y-34952380D01*
X89952380Y-25714285D02*
X88952380Y-25714285D01*
X88952380Y-25476190D01*
X89000000Y-25333333D01*
X89095238Y-25238095D01*
X89190476Y-25190476D01*
X89380952Y-25142857D01*
X89523809Y-25142857D01*
X89714285Y-25190476D01*
X89809523Y-25238095D01*
X89904761Y-25333333D01*
X89952380Y-25476190D01*
X89952380Y-25714285D01*
X88952380Y-24238095D02*
X88952380Y-24714285D01*
X89428571Y-24761904D01*
X89380952Y-24714285D01*
X89333333Y-24619047D01*
X89333333Y-24380952D01*
X89380952Y-24285714D01*
X89428571Y-24238095D01*
X89523809Y-24190476D01*
X89761904Y-24190476D01*
X89857142Y-24238095D01*
X89904761Y-24285714D01*
X89952380Y-24380952D01*
X89952380Y-24619047D01*
X89904761Y-24714285D01*
X89857142Y-24761904D01*
X88952380Y-23857142D02*
X88952380Y-23238095D01*
X89333333Y-23571428D01*
X89333333Y-23428571D01*
X89380952Y-23333333D01*
X89428571Y-23285714D01*
X89523809Y-23238095D01*
X89761904Y-23238095D01*
X89857142Y-23285714D01*
X89904761Y-23333333D01*
X89952380Y-23428571D01*
X89952380Y-23714285D01*
X89904761Y-23809523D01*
X89857142Y-23857142D01*
X107452380Y-20714285D02*
X106452380Y-20714285D01*
X106452380Y-20476190D01*
X106500000Y-20333333D01*
X106595238Y-20238095D01*
X106690476Y-20190476D01*
X106880952Y-20142857D01*
X107023809Y-20142857D01*
X107214285Y-20190476D01*
X107309523Y-20238095D01*
X107404761Y-20333333D01*
X107452380Y-20476190D01*
X107452380Y-20714285D01*
X106452380Y-19238095D02*
X106452380Y-19714285D01*
X106928571Y-19761904D01*
X106880952Y-19714285D01*
X106833333Y-19619047D01*
X106833333Y-19380952D01*
X106880952Y-19285714D01*
X106928571Y-19238095D01*
X107023809Y-19190476D01*
X107261904Y-19190476D01*
X107357142Y-19238095D01*
X107404761Y-19285714D01*
X107452380Y-19380952D01*
X107452380Y-19619047D01*
X107404761Y-19714285D01*
X107357142Y-19761904D01*
X106785714Y-18333333D02*
X107452380Y-18333333D01*
X106404761Y-18571428D02*
X107119047Y-18809523D01*
X107119047Y-18190476D01*
X108952380Y-25714285D02*
X107952380Y-25714285D01*
X107952380Y-25476190D01*
X108000000Y-25333333D01*
X108095238Y-25238095D01*
X108190476Y-25190476D01*
X108380952Y-25142857D01*
X108523809Y-25142857D01*
X108714285Y-25190476D01*
X108809523Y-25238095D01*
X108904761Y-25333333D01*
X108952380Y-25476190D01*
X108952380Y-25714285D01*
X107952380Y-24238095D02*
X107952380Y-24714285D01*
X108428571Y-24761904D01*
X108380952Y-24714285D01*
X108333333Y-24619047D01*
X108333333Y-24380952D01*
X108380952Y-24285714D01*
X108428571Y-24238095D01*
X108523809Y-24190476D01*
X108761904Y-24190476D01*
X108857142Y-24238095D01*
X108904761Y-24285714D01*
X108952380Y-24380952D01*
X108952380Y-24619047D01*
X108904761Y-24714285D01*
X108857142Y-24761904D01*
X107952380Y-23285714D02*
X107952380Y-23761904D01*
X108428571Y-23809523D01*
X108380952Y-23761904D01*
X108333333Y-23666666D01*
X108333333Y-23428571D01*
X108380952Y-23333333D01*
X108428571Y-23285714D01*
X108523809Y-23238095D01*
X108761904Y-23238095D01*
X108857142Y-23285714D01*
X108904761Y-23333333D01*
X108952380Y-23428571D01*
X108952380Y-23666666D01*
X108904761Y-23761904D01*
X108857142Y-23809523D01*
X126452380Y-20714285D02*
X125452380Y-20714285D01*
X125452380Y-20476190D01*
X125500000Y-20333333D01*
X125595238Y-20238095D01*
X125690476Y-20190476D01*
X125880952Y-20142857D01*
X126023809Y-20142857D01*
X126214285Y-20190476D01*
X126309523Y-20238095D01*
X126404761Y-20333333D01*
X126452380Y-20476190D01*
X126452380Y-20714285D01*
X125452380Y-19238095D02*
X125452380Y-19714285D01*
X125928571Y-19761904D01*
X125880952Y-19714285D01*
X125833333Y-19619047D01*
X125833333Y-19380952D01*
X125880952Y-19285714D01*
X125928571Y-19238095D01*
X126023809Y-19190476D01*
X126261904Y-19190476D01*
X126357142Y-19238095D01*
X126404761Y-19285714D01*
X126452380Y-19380952D01*
X126452380Y-19619047D01*
X126404761Y-19714285D01*
X126357142Y-19761904D01*
X125452380Y-18333333D02*
X125452380Y-18523809D01*
X125500000Y-18619047D01*
X125547619Y-18666666D01*
X125690476Y-18761904D01*
X125880952Y-18809523D01*
X126261904Y-18809523D01*
X126357142Y-18761904D01*
X126404761Y-18714285D01*
X126452380Y-18619047D01*
X126452380Y-18428571D01*
X126404761Y-18333333D01*
X126357142Y-18285714D01*
X126261904Y-18238095D01*
X126023809Y-18238095D01*
X125928571Y-18285714D01*
X125880952Y-18333333D01*
X125833333Y-18428571D01*
X125833333Y-18619047D01*
X125880952Y-18714285D01*
X125928571Y-18761904D01*
X126023809Y-18809523D01*
M02*
