G04 #@! TF.GenerationSoftware,KiCad,Pcbnew,(5.1.2)-1*
G04 #@! TF.CreationDate,2019-09-02T13:58:39+02:00*
G04 #@! TF.ProjectId,gross-kursiv2b,67726f73-732d-46b7-9572-73697632622e,rev?*
G04 #@! TF.SameCoordinates,Original*
G04 #@! TF.FileFunction,Copper,L1,Top*
G04 #@! TF.FilePolarity,Positive*
%FSLAX46Y46*%
G04 Gerber Fmt 4.6, Leading zero omitted, Abs format (unit mm)*
G04 Created by KiCad (PCBNEW (5.1.2)-1) date 2019-09-02 13:58:39*
%MOMM*%
%LPD*%
G04 APERTURE LIST*
%ADD10C,0.100000*%
%ADD11C,0.975000*%
%ADD12R,1.200000X0.400000*%
%ADD13R,5.200000X11.000000*%
%ADD14C,0.600000*%
%ADD15R,1.700000X2.700000*%
%ADD16R,1.300000X2.700000*%
%ADD17R,2.700000X1.700000*%
%ADD18R,2.700000X1.300000*%
G04 APERTURE END LIST*
D10*
G36*
X90980142Y-54951174D02*
G01*
X91003803Y-54954684D01*
X91027007Y-54960496D01*
X91049529Y-54968554D01*
X91071153Y-54978782D01*
X91091670Y-54991079D01*
X91110883Y-55005329D01*
X91128607Y-55021393D01*
X91144671Y-55039117D01*
X91158921Y-55058330D01*
X91171218Y-55078847D01*
X91181446Y-55100471D01*
X91189504Y-55122993D01*
X91195316Y-55146197D01*
X91198826Y-55169858D01*
X91200000Y-55193750D01*
X91200000Y-55681250D01*
X91198826Y-55705142D01*
X91195316Y-55728803D01*
X91189504Y-55752007D01*
X91181446Y-55774529D01*
X91171218Y-55796153D01*
X91158921Y-55816670D01*
X91144671Y-55835883D01*
X91128607Y-55853607D01*
X91110883Y-55869671D01*
X91091670Y-55883921D01*
X91071153Y-55896218D01*
X91049529Y-55906446D01*
X91027007Y-55914504D01*
X91003803Y-55920316D01*
X90980142Y-55923826D01*
X90956250Y-55925000D01*
X90043750Y-55925000D01*
X90019858Y-55923826D01*
X89996197Y-55920316D01*
X89972993Y-55914504D01*
X89950471Y-55906446D01*
X89928847Y-55896218D01*
X89908330Y-55883921D01*
X89889117Y-55869671D01*
X89871393Y-55853607D01*
X89855329Y-55835883D01*
X89841079Y-55816670D01*
X89828782Y-55796153D01*
X89818554Y-55774529D01*
X89810496Y-55752007D01*
X89804684Y-55728803D01*
X89801174Y-55705142D01*
X89800000Y-55681250D01*
X89800000Y-55193750D01*
X89801174Y-55169858D01*
X89804684Y-55146197D01*
X89810496Y-55122993D01*
X89818554Y-55100471D01*
X89828782Y-55078847D01*
X89841079Y-55058330D01*
X89855329Y-55039117D01*
X89871393Y-55021393D01*
X89889117Y-55005329D01*
X89908330Y-54991079D01*
X89928847Y-54978782D01*
X89950471Y-54968554D01*
X89972993Y-54960496D01*
X89996197Y-54954684D01*
X90019858Y-54951174D01*
X90043750Y-54950000D01*
X90956250Y-54950000D01*
X90980142Y-54951174D01*
X90980142Y-54951174D01*
G37*
D11*
X90500000Y-55437500D03*
D10*
G36*
X90980142Y-53076174D02*
G01*
X91003803Y-53079684D01*
X91027007Y-53085496D01*
X91049529Y-53093554D01*
X91071153Y-53103782D01*
X91091670Y-53116079D01*
X91110883Y-53130329D01*
X91128607Y-53146393D01*
X91144671Y-53164117D01*
X91158921Y-53183330D01*
X91171218Y-53203847D01*
X91181446Y-53225471D01*
X91189504Y-53247993D01*
X91195316Y-53271197D01*
X91198826Y-53294858D01*
X91200000Y-53318750D01*
X91200000Y-53806250D01*
X91198826Y-53830142D01*
X91195316Y-53853803D01*
X91189504Y-53877007D01*
X91181446Y-53899529D01*
X91171218Y-53921153D01*
X91158921Y-53941670D01*
X91144671Y-53960883D01*
X91128607Y-53978607D01*
X91110883Y-53994671D01*
X91091670Y-54008921D01*
X91071153Y-54021218D01*
X91049529Y-54031446D01*
X91027007Y-54039504D01*
X91003803Y-54045316D01*
X90980142Y-54048826D01*
X90956250Y-54050000D01*
X90043750Y-54050000D01*
X90019858Y-54048826D01*
X89996197Y-54045316D01*
X89972993Y-54039504D01*
X89950471Y-54031446D01*
X89928847Y-54021218D01*
X89908330Y-54008921D01*
X89889117Y-53994671D01*
X89871393Y-53978607D01*
X89855329Y-53960883D01*
X89841079Y-53941670D01*
X89828782Y-53921153D01*
X89818554Y-53899529D01*
X89810496Y-53877007D01*
X89804684Y-53853803D01*
X89801174Y-53830142D01*
X89800000Y-53806250D01*
X89800000Y-53318750D01*
X89801174Y-53294858D01*
X89804684Y-53271197D01*
X89810496Y-53247993D01*
X89818554Y-53225471D01*
X89828782Y-53203847D01*
X89841079Y-53183330D01*
X89855329Y-53164117D01*
X89871393Y-53146393D01*
X89889117Y-53130329D01*
X89908330Y-53116079D01*
X89928847Y-53103782D01*
X89950471Y-53093554D01*
X89972993Y-53085496D01*
X89996197Y-53079684D01*
X90019858Y-53076174D01*
X90043750Y-53075000D01*
X90956250Y-53075000D01*
X90980142Y-53076174D01*
X90980142Y-53076174D01*
G37*
D11*
X90500000Y-53562500D03*
D10*
G36*
X86480142Y-138076174D02*
G01*
X86503803Y-138079684D01*
X86527007Y-138085496D01*
X86549529Y-138093554D01*
X86571153Y-138103782D01*
X86591670Y-138116079D01*
X86610883Y-138130329D01*
X86628607Y-138146393D01*
X86644671Y-138164117D01*
X86658921Y-138183330D01*
X86671218Y-138203847D01*
X86681446Y-138225471D01*
X86689504Y-138247993D01*
X86695316Y-138271197D01*
X86698826Y-138294858D01*
X86700000Y-138318750D01*
X86700000Y-138806250D01*
X86698826Y-138830142D01*
X86695316Y-138853803D01*
X86689504Y-138877007D01*
X86681446Y-138899529D01*
X86671218Y-138921153D01*
X86658921Y-138941670D01*
X86644671Y-138960883D01*
X86628607Y-138978607D01*
X86610883Y-138994671D01*
X86591670Y-139008921D01*
X86571153Y-139021218D01*
X86549529Y-139031446D01*
X86527007Y-139039504D01*
X86503803Y-139045316D01*
X86480142Y-139048826D01*
X86456250Y-139050000D01*
X85543750Y-139050000D01*
X85519858Y-139048826D01*
X85496197Y-139045316D01*
X85472993Y-139039504D01*
X85450471Y-139031446D01*
X85428847Y-139021218D01*
X85408330Y-139008921D01*
X85389117Y-138994671D01*
X85371393Y-138978607D01*
X85355329Y-138960883D01*
X85341079Y-138941670D01*
X85328782Y-138921153D01*
X85318554Y-138899529D01*
X85310496Y-138877007D01*
X85304684Y-138853803D01*
X85301174Y-138830142D01*
X85300000Y-138806250D01*
X85300000Y-138318750D01*
X85301174Y-138294858D01*
X85304684Y-138271197D01*
X85310496Y-138247993D01*
X85318554Y-138225471D01*
X85328782Y-138203847D01*
X85341079Y-138183330D01*
X85355329Y-138164117D01*
X85371393Y-138146393D01*
X85389117Y-138130329D01*
X85408330Y-138116079D01*
X85428847Y-138103782D01*
X85450471Y-138093554D01*
X85472993Y-138085496D01*
X85496197Y-138079684D01*
X85519858Y-138076174D01*
X85543750Y-138075000D01*
X86456250Y-138075000D01*
X86480142Y-138076174D01*
X86480142Y-138076174D01*
G37*
D11*
X86000000Y-138562500D03*
D10*
G36*
X86480142Y-139951174D02*
G01*
X86503803Y-139954684D01*
X86527007Y-139960496D01*
X86549529Y-139968554D01*
X86571153Y-139978782D01*
X86591670Y-139991079D01*
X86610883Y-140005329D01*
X86628607Y-140021393D01*
X86644671Y-140039117D01*
X86658921Y-140058330D01*
X86671218Y-140078847D01*
X86681446Y-140100471D01*
X86689504Y-140122993D01*
X86695316Y-140146197D01*
X86698826Y-140169858D01*
X86700000Y-140193750D01*
X86700000Y-140681250D01*
X86698826Y-140705142D01*
X86695316Y-140728803D01*
X86689504Y-140752007D01*
X86681446Y-140774529D01*
X86671218Y-140796153D01*
X86658921Y-140816670D01*
X86644671Y-140835883D01*
X86628607Y-140853607D01*
X86610883Y-140869671D01*
X86591670Y-140883921D01*
X86571153Y-140896218D01*
X86549529Y-140906446D01*
X86527007Y-140914504D01*
X86503803Y-140920316D01*
X86480142Y-140923826D01*
X86456250Y-140925000D01*
X85543750Y-140925000D01*
X85519858Y-140923826D01*
X85496197Y-140920316D01*
X85472993Y-140914504D01*
X85450471Y-140906446D01*
X85428847Y-140896218D01*
X85408330Y-140883921D01*
X85389117Y-140869671D01*
X85371393Y-140853607D01*
X85355329Y-140835883D01*
X85341079Y-140816670D01*
X85328782Y-140796153D01*
X85318554Y-140774529D01*
X85310496Y-140752007D01*
X85304684Y-140728803D01*
X85301174Y-140705142D01*
X85300000Y-140681250D01*
X85300000Y-140193750D01*
X85301174Y-140169858D01*
X85304684Y-140146197D01*
X85310496Y-140122993D01*
X85318554Y-140100471D01*
X85328782Y-140078847D01*
X85341079Y-140058330D01*
X85355329Y-140039117D01*
X85371393Y-140021393D01*
X85389117Y-140005329D01*
X85408330Y-139991079D01*
X85428847Y-139978782D01*
X85450471Y-139968554D01*
X85472993Y-139960496D01*
X85496197Y-139954684D01*
X85519858Y-139951174D01*
X85543750Y-139950000D01*
X86456250Y-139950000D01*
X86480142Y-139951174D01*
X86480142Y-139951174D01*
G37*
D11*
X86000000Y-140437500D03*
D12*
X82350000Y-57625000D03*
X82350000Y-58275000D03*
X82350000Y-58925000D03*
X82350000Y-59575000D03*
X82350000Y-60225000D03*
X82350000Y-60875000D03*
X82350000Y-61525000D03*
X82350000Y-62175000D03*
X82350000Y-62825000D03*
X82350000Y-63475000D03*
X82350000Y-64125000D03*
X82350000Y-64775000D03*
X82350000Y-65425000D03*
X82350000Y-66075000D03*
X82350000Y-66725000D03*
X82350000Y-67375000D03*
X89650000Y-67375000D03*
X89650000Y-66725000D03*
X89650000Y-66075000D03*
X89650000Y-65425000D03*
X89650000Y-64775000D03*
X89650000Y-64125000D03*
X89650000Y-63475000D03*
X89650000Y-62825000D03*
X89650000Y-62175000D03*
X89650000Y-61525000D03*
X89650000Y-60875000D03*
X89650000Y-60225000D03*
X89650000Y-59575000D03*
X89650000Y-58925000D03*
X89650000Y-58275000D03*
X89650000Y-57625000D03*
D13*
X86000000Y-62500000D03*
D14*
X83750000Y-57300000D03*
X85250000Y-57300000D03*
X86750000Y-57300000D03*
X88250000Y-57300000D03*
X83750000Y-58600000D03*
X85250000Y-58600000D03*
X86750000Y-58600000D03*
X88250000Y-58600000D03*
X88250000Y-59900000D03*
X83750000Y-61200000D03*
X88250000Y-61200000D03*
X85250000Y-61200000D03*
X83750000Y-59900000D03*
X85250000Y-59900000D03*
X86750000Y-59900000D03*
X86750000Y-61200000D03*
X88250000Y-62500000D03*
X83750000Y-63800000D03*
X88250000Y-63800000D03*
X85250000Y-63800000D03*
X83750000Y-62500000D03*
X85250000Y-62500000D03*
X86750000Y-62500000D03*
X86750000Y-63800000D03*
X88250000Y-65100000D03*
X83750000Y-66400000D03*
X88250000Y-66400000D03*
X85250000Y-66400000D03*
X83750000Y-65100000D03*
X85250000Y-65100000D03*
X86750000Y-65100000D03*
X86750000Y-66400000D03*
X85250000Y-67700000D03*
X83750000Y-67700000D03*
X88250000Y-67700000D03*
X86750000Y-67700000D03*
X82250000Y-153200000D03*
X83750000Y-153200000D03*
X79250000Y-153200000D03*
X80750000Y-153200000D03*
X82250000Y-151900000D03*
X82250000Y-150600000D03*
X80750000Y-150600000D03*
X79250000Y-150600000D03*
X80750000Y-151900000D03*
X83750000Y-151900000D03*
X79250000Y-151900000D03*
X83750000Y-150600000D03*
X82250000Y-149300000D03*
X82250000Y-148000000D03*
X80750000Y-148000000D03*
X79250000Y-148000000D03*
X80750000Y-149300000D03*
X83750000Y-149300000D03*
X79250000Y-149300000D03*
X83750000Y-148000000D03*
X82250000Y-146700000D03*
X82250000Y-145400000D03*
X80750000Y-145400000D03*
X79250000Y-145400000D03*
X80750000Y-146700000D03*
X83750000Y-146700000D03*
X79250000Y-146700000D03*
X83750000Y-145400000D03*
X83750000Y-144100000D03*
X82250000Y-144100000D03*
X80750000Y-144100000D03*
X79250000Y-144100000D03*
X83750000Y-142800000D03*
X82250000Y-142800000D03*
X80750000Y-142800000D03*
X79250000Y-142800000D03*
D13*
X81500000Y-148000000D03*
D12*
X85150000Y-143125000D03*
X85150000Y-143775000D03*
X85150000Y-144425000D03*
X85150000Y-145075000D03*
X85150000Y-145725000D03*
X85150000Y-146375000D03*
X85150000Y-147025000D03*
X85150000Y-147675000D03*
X85150000Y-148325000D03*
X85150000Y-148975000D03*
X85150000Y-149625000D03*
X85150000Y-150275000D03*
X85150000Y-150925000D03*
X85150000Y-151575000D03*
X85150000Y-152225000D03*
X85150000Y-152875000D03*
X77850000Y-152875000D03*
X77850000Y-152225000D03*
X77850000Y-151575000D03*
X77850000Y-150925000D03*
X77850000Y-150275000D03*
X77850000Y-149625000D03*
X77850000Y-148975000D03*
X77850000Y-148325000D03*
X77850000Y-147675000D03*
X77850000Y-147025000D03*
X77850000Y-146375000D03*
X77850000Y-145725000D03*
X77850000Y-145075000D03*
X77850000Y-144425000D03*
X77850000Y-143775000D03*
X77850000Y-143125000D03*
D10*
G36*
X81330142Y-137301174D02*
G01*
X81353803Y-137304684D01*
X81377007Y-137310496D01*
X81399529Y-137318554D01*
X81421153Y-137328782D01*
X81441670Y-137341079D01*
X81460883Y-137355329D01*
X81478607Y-137371393D01*
X81494671Y-137389117D01*
X81508921Y-137408330D01*
X81521218Y-137428847D01*
X81531446Y-137450471D01*
X81539504Y-137472993D01*
X81545316Y-137496197D01*
X81548826Y-137519858D01*
X81550000Y-137543750D01*
X81550000Y-138456250D01*
X81548826Y-138480142D01*
X81545316Y-138503803D01*
X81539504Y-138527007D01*
X81531446Y-138549529D01*
X81521218Y-138571153D01*
X81508921Y-138591670D01*
X81494671Y-138610883D01*
X81478607Y-138628607D01*
X81460883Y-138644671D01*
X81441670Y-138658921D01*
X81421153Y-138671218D01*
X81399529Y-138681446D01*
X81377007Y-138689504D01*
X81353803Y-138695316D01*
X81330142Y-138698826D01*
X81306250Y-138700000D01*
X80818750Y-138700000D01*
X80794858Y-138698826D01*
X80771197Y-138695316D01*
X80747993Y-138689504D01*
X80725471Y-138681446D01*
X80703847Y-138671218D01*
X80683330Y-138658921D01*
X80664117Y-138644671D01*
X80646393Y-138628607D01*
X80630329Y-138610883D01*
X80616079Y-138591670D01*
X80603782Y-138571153D01*
X80593554Y-138549529D01*
X80585496Y-138527007D01*
X80579684Y-138503803D01*
X80576174Y-138480142D01*
X80575000Y-138456250D01*
X80575000Y-137543750D01*
X80576174Y-137519858D01*
X80579684Y-137496197D01*
X80585496Y-137472993D01*
X80593554Y-137450471D01*
X80603782Y-137428847D01*
X80616079Y-137408330D01*
X80630329Y-137389117D01*
X80646393Y-137371393D01*
X80664117Y-137355329D01*
X80683330Y-137341079D01*
X80703847Y-137328782D01*
X80725471Y-137318554D01*
X80747993Y-137310496D01*
X80771197Y-137304684D01*
X80794858Y-137301174D01*
X80818750Y-137300000D01*
X81306250Y-137300000D01*
X81330142Y-137301174D01*
X81330142Y-137301174D01*
G37*
D11*
X81062500Y-138000000D03*
D10*
G36*
X83205142Y-137301174D02*
G01*
X83228803Y-137304684D01*
X83252007Y-137310496D01*
X83274529Y-137318554D01*
X83296153Y-137328782D01*
X83316670Y-137341079D01*
X83335883Y-137355329D01*
X83353607Y-137371393D01*
X83369671Y-137389117D01*
X83383921Y-137408330D01*
X83396218Y-137428847D01*
X83406446Y-137450471D01*
X83414504Y-137472993D01*
X83420316Y-137496197D01*
X83423826Y-137519858D01*
X83425000Y-137543750D01*
X83425000Y-138456250D01*
X83423826Y-138480142D01*
X83420316Y-138503803D01*
X83414504Y-138527007D01*
X83406446Y-138549529D01*
X83396218Y-138571153D01*
X83383921Y-138591670D01*
X83369671Y-138610883D01*
X83353607Y-138628607D01*
X83335883Y-138644671D01*
X83316670Y-138658921D01*
X83296153Y-138671218D01*
X83274529Y-138681446D01*
X83252007Y-138689504D01*
X83228803Y-138695316D01*
X83205142Y-138698826D01*
X83181250Y-138700000D01*
X82693750Y-138700000D01*
X82669858Y-138698826D01*
X82646197Y-138695316D01*
X82622993Y-138689504D01*
X82600471Y-138681446D01*
X82578847Y-138671218D01*
X82558330Y-138658921D01*
X82539117Y-138644671D01*
X82521393Y-138628607D01*
X82505329Y-138610883D01*
X82491079Y-138591670D01*
X82478782Y-138571153D01*
X82468554Y-138549529D01*
X82460496Y-138527007D01*
X82454684Y-138503803D01*
X82451174Y-138480142D01*
X82450000Y-138456250D01*
X82450000Y-137543750D01*
X82451174Y-137519858D01*
X82454684Y-137496197D01*
X82460496Y-137472993D01*
X82468554Y-137450471D01*
X82478782Y-137428847D01*
X82491079Y-137408330D01*
X82505329Y-137389117D01*
X82521393Y-137371393D01*
X82539117Y-137355329D01*
X82558330Y-137341079D01*
X82578847Y-137328782D01*
X82600471Y-137318554D01*
X82622993Y-137310496D01*
X82646197Y-137304684D01*
X82669858Y-137301174D01*
X82693750Y-137300000D01*
X83181250Y-137300000D01*
X83205142Y-137301174D01*
X83205142Y-137301174D01*
G37*
D11*
X82937500Y-138000000D03*
D10*
G36*
X87205142Y-53801174D02*
G01*
X87228803Y-53804684D01*
X87252007Y-53810496D01*
X87274529Y-53818554D01*
X87296153Y-53828782D01*
X87316670Y-53841079D01*
X87335883Y-53855329D01*
X87353607Y-53871393D01*
X87369671Y-53889117D01*
X87383921Y-53908330D01*
X87396218Y-53928847D01*
X87406446Y-53950471D01*
X87414504Y-53972993D01*
X87420316Y-53996197D01*
X87423826Y-54019858D01*
X87425000Y-54043750D01*
X87425000Y-54956250D01*
X87423826Y-54980142D01*
X87420316Y-55003803D01*
X87414504Y-55027007D01*
X87406446Y-55049529D01*
X87396218Y-55071153D01*
X87383921Y-55091670D01*
X87369671Y-55110883D01*
X87353607Y-55128607D01*
X87335883Y-55144671D01*
X87316670Y-55158921D01*
X87296153Y-55171218D01*
X87274529Y-55181446D01*
X87252007Y-55189504D01*
X87228803Y-55195316D01*
X87205142Y-55198826D01*
X87181250Y-55200000D01*
X86693750Y-55200000D01*
X86669858Y-55198826D01*
X86646197Y-55195316D01*
X86622993Y-55189504D01*
X86600471Y-55181446D01*
X86578847Y-55171218D01*
X86558330Y-55158921D01*
X86539117Y-55144671D01*
X86521393Y-55128607D01*
X86505329Y-55110883D01*
X86491079Y-55091670D01*
X86478782Y-55071153D01*
X86468554Y-55049529D01*
X86460496Y-55027007D01*
X86454684Y-55003803D01*
X86451174Y-54980142D01*
X86450000Y-54956250D01*
X86450000Y-54043750D01*
X86451174Y-54019858D01*
X86454684Y-53996197D01*
X86460496Y-53972993D01*
X86468554Y-53950471D01*
X86478782Y-53928847D01*
X86491079Y-53908330D01*
X86505329Y-53889117D01*
X86521393Y-53871393D01*
X86539117Y-53855329D01*
X86558330Y-53841079D01*
X86578847Y-53828782D01*
X86600471Y-53818554D01*
X86622993Y-53810496D01*
X86646197Y-53804684D01*
X86669858Y-53801174D01*
X86693750Y-53800000D01*
X87181250Y-53800000D01*
X87205142Y-53801174D01*
X87205142Y-53801174D01*
G37*
D11*
X86937500Y-54500000D03*
D10*
G36*
X85330142Y-53801174D02*
G01*
X85353803Y-53804684D01*
X85377007Y-53810496D01*
X85399529Y-53818554D01*
X85421153Y-53828782D01*
X85441670Y-53841079D01*
X85460883Y-53855329D01*
X85478607Y-53871393D01*
X85494671Y-53889117D01*
X85508921Y-53908330D01*
X85521218Y-53928847D01*
X85531446Y-53950471D01*
X85539504Y-53972993D01*
X85545316Y-53996197D01*
X85548826Y-54019858D01*
X85550000Y-54043750D01*
X85550000Y-54956250D01*
X85548826Y-54980142D01*
X85545316Y-55003803D01*
X85539504Y-55027007D01*
X85531446Y-55049529D01*
X85521218Y-55071153D01*
X85508921Y-55091670D01*
X85494671Y-55110883D01*
X85478607Y-55128607D01*
X85460883Y-55144671D01*
X85441670Y-55158921D01*
X85421153Y-55171218D01*
X85399529Y-55181446D01*
X85377007Y-55189504D01*
X85353803Y-55195316D01*
X85330142Y-55198826D01*
X85306250Y-55200000D01*
X84818750Y-55200000D01*
X84794858Y-55198826D01*
X84771197Y-55195316D01*
X84747993Y-55189504D01*
X84725471Y-55181446D01*
X84703847Y-55171218D01*
X84683330Y-55158921D01*
X84664117Y-55144671D01*
X84646393Y-55128607D01*
X84630329Y-55110883D01*
X84616079Y-55091670D01*
X84603782Y-55071153D01*
X84593554Y-55049529D01*
X84585496Y-55027007D01*
X84579684Y-55003803D01*
X84576174Y-54980142D01*
X84575000Y-54956250D01*
X84575000Y-54043750D01*
X84576174Y-54019858D01*
X84579684Y-53996197D01*
X84585496Y-53972993D01*
X84593554Y-53950471D01*
X84603782Y-53928847D01*
X84616079Y-53908330D01*
X84630329Y-53889117D01*
X84646393Y-53871393D01*
X84664117Y-53855329D01*
X84683330Y-53841079D01*
X84703847Y-53828782D01*
X84725471Y-53818554D01*
X84747993Y-53810496D01*
X84771197Y-53804684D01*
X84794858Y-53801174D01*
X84818750Y-53800000D01*
X85306250Y-53800000D01*
X85330142Y-53801174D01*
X85330142Y-53801174D01*
G37*
D11*
X85062500Y-54500000D03*
D15*
X85975000Y-19250000D03*
D16*
X84000000Y-19250000D03*
D15*
X82025000Y-19250000D03*
X82025000Y-24750000D03*
D16*
X84000000Y-24750000D03*
D15*
X85975000Y-24750000D03*
X72525000Y-24750000D03*
D16*
X74500000Y-24750000D03*
D15*
X76475000Y-24750000D03*
X76475000Y-19250000D03*
D16*
X74500000Y-19250000D03*
D15*
X72525000Y-19250000D03*
X66975000Y-19250000D03*
D16*
X65000000Y-19250000D03*
D15*
X63025000Y-19250000D03*
X63025000Y-24750000D03*
D16*
X65000000Y-24750000D03*
D15*
X66975000Y-24750000D03*
X53525000Y-24750000D03*
D16*
X55500000Y-24750000D03*
D15*
X57475000Y-24750000D03*
X57475000Y-19250000D03*
D16*
X55500000Y-19250000D03*
D15*
X53525000Y-19250000D03*
D17*
X44250000Y-143975000D03*
D18*
X44250000Y-142000000D03*
D17*
X44250000Y-140025000D03*
X38750000Y-140025000D03*
D18*
X38750000Y-142000000D03*
D17*
X38750000Y-143975000D03*
X39250000Y-130525000D03*
D18*
X39250000Y-132500000D03*
D17*
X39250000Y-134475000D03*
X44750000Y-134475000D03*
D18*
X44750000Y-132500000D03*
D17*
X44750000Y-130525000D03*
X45250000Y-124975000D03*
D18*
X45250000Y-123000000D03*
D17*
X45250000Y-121025000D03*
X39750000Y-121025000D03*
D18*
X39750000Y-123000000D03*
D17*
X39750000Y-124975000D03*
X40250000Y-111525000D03*
D18*
X40250000Y-113500000D03*
D17*
X40250000Y-115475000D03*
X45750000Y-115475000D03*
D18*
X45750000Y-113500000D03*
D17*
X45750000Y-111525000D03*
X48750000Y-60375000D03*
D18*
X48750000Y-58400000D03*
D17*
X48750000Y-56425000D03*
X43250000Y-56425000D03*
D18*
X43250000Y-58400000D03*
D17*
X43250000Y-60375000D03*
X43750000Y-47025000D03*
D18*
X43750000Y-49000000D03*
D17*
X43750000Y-50975000D03*
X49250000Y-50975000D03*
D18*
X49250000Y-49000000D03*
D17*
X49250000Y-47025000D03*
X50250000Y-41475000D03*
D18*
X50250000Y-39500000D03*
D17*
X50250000Y-37525000D03*
X44750000Y-37525000D03*
D18*
X44750000Y-39500000D03*
D17*
X44750000Y-41475000D03*
X45250000Y-28525000D03*
D18*
X45250000Y-30500000D03*
D17*
X45250000Y-32475000D03*
X50750000Y-32475000D03*
D18*
X50750000Y-30500000D03*
D17*
X50750000Y-28525000D03*
X38250000Y-149525000D03*
D18*
X38250000Y-151500000D03*
D17*
X38250000Y-153475000D03*
X43750000Y-153475000D03*
D18*
X43750000Y-151500000D03*
D17*
X43750000Y-149525000D03*
X43250000Y-162975000D03*
D18*
X43250000Y-161000000D03*
D17*
X43250000Y-159025000D03*
X37750000Y-159025000D03*
D18*
X37750000Y-161000000D03*
D17*
X37750000Y-162975000D03*
X37250000Y-168525000D03*
D18*
X37250000Y-170500000D03*
D17*
X37250000Y-172475000D03*
X42750000Y-172475000D03*
D18*
X42750000Y-170500000D03*
D17*
X42750000Y-168525000D03*
X42250000Y-181975000D03*
D18*
X42250000Y-180000000D03*
D17*
X42250000Y-178025000D03*
X36750000Y-178025000D03*
D18*
X36750000Y-180000000D03*
D17*
X36750000Y-181975000D03*
X48250000Y-69975000D03*
D18*
X48250000Y-68000000D03*
D17*
X48250000Y-66025000D03*
X42750000Y-66025000D03*
D18*
X42750000Y-68000000D03*
D17*
X42750000Y-69975000D03*
X42250000Y-75525000D03*
D18*
X42250000Y-77500000D03*
D17*
X42250000Y-79475000D03*
X47750000Y-79475000D03*
D18*
X47750000Y-77500000D03*
D17*
X47750000Y-75525000D03*
X47250000Y-88975000D03*
D18*
X47250000Y-87000000D03*
D17*
X47250000Y-85025000D03*
X41750000Y-85025000D03*
D18*
X41750000Y-87000000D03*
D17*
X41750000Y-88975000D03*
X41250000Y-94525000D03*
D18*
X41250000Y-96500000D03*
D17*
X41250000Y-98475000D03*
X46750000Y-98475000D03*
D18*
X46750000Y-96500000D03*
D17*
X46750000Y-94525000D03*
D15*
X77475000Y-185250000D03*
D16*
X75500000Y-185250000D03*
D15*
X73525000Y-185250000D03*
X73525000Y-190750000D03*
D16*
X75500000Y-190750000D03*
D15*
X77475000Y-190750000D03*
X64025000Y-190750000D03*
D16*
X66000000Y-190750000D03*
D15*
X67975000Y-190750000D03*
X67975000Y-185250000D03*
D16*
X66000000Y-185250000D03*
D15*
X64025000Y-185250000D03*
X58475000Y-185250000D03*
D16*
X56500000Y-185250000D03*
D15*
X54525000Y-185250000D03*
X54525000Y-190750000D03*
D16*
X56500000Y-190750000D03*
D15*
X58475000Y-190750000D03*
X45025000Y-190750000D03*
D16*
X47000000Y-190750000D03*
D15*
X48975000Y-190750000D03*
X48975000Y-185250000D03*
D16*
X47000000Y-185250000D03*
D15*
X45025000Y-185250000D03*
X81475000Y-102250000D03*
D16*
X79500000Y-102250000D03*
D15*
X77525000Y-102250000D03*
X77525000Y-107750000D03*
D16*
X79500000Y-107750000D03*
D15*
X81475000Y-107750000D03*
X68025000Y-107750000D03*
D16*
X70000000Y-107750000D03*
D15*
X71975000Y-107750000D03*
X71975000Y-102250000D03*
D16*
X70000000Y-102250000D03*
D15*
X68025000Y-102250000D03*
X62475000Y-102250000D03*
D16*
X60500000Y-102250000D03*
D15*
X58525000Y-102250000D03*
X58525000Y-107750000D03*
D16*
X60500000Y-107750000D03*
D15*
X62475000Y-107750000D03*
X49025000Y-107750000D03*
D16*
X51000000Y-107750000D03*
D15*
X52975000Y-107750000D03*
X52975000Y-102250000D03*
D16*
X51000000Y-102250000D03*
D15*
X49025000Y-102250000D03*
X83025000Y-190750000D03*
D16*
X85000000Y-190750000D03*
D15*
X86975000Y-190750000D03*
X86975000Y-185250000D03*
D16*
X85000000Y-185250000D03*
D15*
X83025000Y-185250000D03*
X96475000Y-185250000D03*
D16*
X94500000Y-185250000D03*
D15*
X92525000Y-185250000D03*
X92525000Y-190750000D03*
D16*
X94500000Y-190750000D03*
D15*
X96475000Y-190750000D03*
X102025000Y-190750000D03*
D16*
X104000000Y-190750000D03*
D15*
X105975000Y-190750000D03*
X105975000Y-185250000D03*
D16*
X104000000Y-185250000D03*
D15*
X102025000Y-185250000D03*
X115475000Y-185250000D03*
D16*
X113500000Y-185250000D03*
D15*
X111525000Y-185250000D03*
X111525000Y-190750000D03*
D16*
X113500000Y-190750000D03*
D15*
X115475000Y-190750000D03*
X87025000Y-107750000D03*
D16*
X89000000Y-107750000D03*
D15*
X90975000Y-107750000D03*
X90975000Y-102250000D03*
D16*
X89000000Y-102250000D03*
D15*
X87025000Y-102250000D03*
X100475000Y-102250000D03*
D16*
X98500000Y-102250000D03*
D15*
X96525000Y-102250000D03*
X96525000Y-107750000D03*
D16*
X98500000Y-107750000D03*
D15*
X100475000Y-107750000D03*
X106025000Y-107750000D03*
D16*
X108000000Y-107750000D03*
D15*
X109975000Y-107750000D03*
X109975000Y-102250000D03*
D16*
X108000000Y-102250000D03*
D15*
X106025000Y-102250000D03*
X119475000Y-102250000D03*
D16*
X117500000Y-102250000D03*
D15*
X115525000Y-102250000D03*
X115525000Y-107750000D03*
D16*
X117500000Y-107750000D03*
D15*
X119475000Y-107750000D03*
D17*
X119750000Y-149525000D03*
D18*
X119750000Y-151500000D03*
D17*
X119750000Y-153475000D03*
X125250000Y-153475000D03*
D18*
X125250000Y-151500000D03*
D17*
X125250000Y-149525000D03*
X124750000Y-162975000D03*
D18*
X124750000Y-161000000D03*
D17*
X124750000Y-159025000D03*
X119250000Y-159025000D03*
D18*
X119250000Y-161000000D03*
D17*
X119250000Y-162975000D03*
X118750000Y-168525000D03*
D18*
X118750000Y-170500000D03*
D17*
X118750000Y-172475000D03*
X124250000Y-172475000D03*
D18*
X124250000Y-170500000D03*
D17*
X124250000Y-168525000D03*
X123750000Y-181975000D03*
D18*
X123750000Y-180000000D03*
D17*
X123750000Y-178025000D03*
X118250000Y-178025000D03*
D18*
X118250000Y-180000000D03*
D17*
X118250000Y-181975000D03*
X124250000Y-66025000D03*
D18*
X124250000Y-68000000D03*
D17*
X124250000Y-69975000D03*
X129750000Y-69975000D03*
D18*
X129750000Y-68000000D03*
D17*
X129750000Y-66025000D03*
X129250000Y-79475000D03*
D18*
X129250000Y-77500000D03*
D17*
X129250000Y-75525000D03*
X123750000Y-75525000D03*
D18*
X123750000Y-77500000D03*
D17*
X123750000Y-79475000D03*
X123250000Y-85025000D03*
D18*
X123250000Y-87000000D03*
D17*
X123250000Y-88975000D03*
X128750000Y-88975000D03*
D18*
X128750000Y-87000000D03*
D17*
X128750000Y-85025000D03*
X128250000Y-98475000D03*
D18*
X128250000Y-96500000D03*
D17*
X128250000Y-94525000D03*
X122750000Y-94525000D03*
D18*
X122750000Y-96500000D03*
D17*
X122750000Y-98475000D03*
X125750000Y-143975000D03*
D18*
X125750000Y-142000000D03*
D17*
X125750000Y-140025000D03*
X120250000Y-140025000D03*
D18*
X120250000Y-142000000D03*
D17*
X120250000Y-143975000D03*
X120750000Y-130525000D03*
D18*
X120750000Y-132500000D03*
D17*
X120750000Y-134475000D03*
X126250000Y-134475000D03*
D18*
X126250000Y-132500000D03*
D17*
X126250000Y-130525000D03*
X126750000Y-124975000D03*
D18*
X126750000Y-123000000D03*
D17*
X126750000Y-121025000D03*
X121250000Y-121025000D03*
D18*
X121250000Y-123000000D03*
D17*
X121250000Y-124975000D03*
X121750000Y-111525000D03*
D18*
X121750000Y-113500000D03*
D17*
X121750000Y-115475000D03*
X127250000Y-115475000D03*
D18*
X127250000Y-113500000D03*
D17*
X127250000Y-111525000D03*
X124750000Y-56525000D03*
D18*
X124750000Y-58500000D03*
D17*
X124750000Y-60475000D03*
X130250000Y-60475000D03*
D18*
X130250000Y-58500000D03*
D17*
X130250000Y-56525000D03*
X130750000Y-50975000D03*
D18*
X130750000Y-49000000D03*
D17*
X130750000Y-47025000D03*
X125250000Y-47025000D03*
D18*
X125250000Y-49000000D03*
D17*
X125250000Y-50975000D03*
X126250000Y-37525000D03*
D18*
X126250000Y-39500000D03*
D17*
X126250000Y-41475000D03*
X131750000Y-41475000D03*
D18*
X131750000Y-39500000D03*
D17*
X131750000Y-37525000D03*
X132250000Y-32475000D03*
D18*
X132250000Y-30500000D03*
D17*
X132250000Y-28525000D03*
X126750000Y-28525000D03*
D18*
X126750000Y-30500000D03*
D17*
X126750000Y-32475000D03*
D15*
X91525000Y-24750000D03*
D16*
X93500000Y-24750000D03*
D15*
X95475000Y-24750000D03*
X95475000Y-19250000D03*
D16*
X93500000Y-19250000D03*
D15*
X91525000Y-19250000D03*
X104975000Y-19250000D03*
D16*
X103000000Y-19250000D03*
D15*
X101025000Y-19250000D03*
X101025000Y-24750000D03*
D16*
X103000000Y-24750000D03*
D15*
X104975000Y-24750000D03*
X110525000Y-24750000D03*
D16*
X112500000Y-24750000D03*
D15*
X114475000Y-24750000D03*
X114475000Y-19250000D03*
D16*
X112500000Y-19250000D03*
D15*
X110525000Y-19250000D03*
X123975000Y-19250000D03*
D16*
X122000000Y-19250000D03*
D15*
X120025000Y-19250000D03*
X120025000Y-24750000D03*
D16*
X122000000Y-24750000D03*
D15*
X123975000Y-24750000D03*
M02*
