M48
; DRILL file {KiCad (5.1.2)-1} date 02.09.2019 13:58:37
; FORMAT={-:-/ absolute / inch / decimal}
; #@! TF.CreationDate,2019-09-02T13:58:37+02:00
; #@! TF.GenerationSoftware,Kicad,Pcbnew,(5.1.2)-1
; #@! TF.FileFunction,Plated,1,2,PTH
FMAT,2
INCH
T1C0.0118
%
G90
G05
T1
X3.1201Y-5.622
X3.1201Y-5.6732
X3.1201Y-5.7244
X3.1201Y-5.7756
X3.1201Y-5.8268
X3.1201Y-5.878
X3.1201Y-5.9291
X3.1201Y-5.9803
X3.1201Y-6.0315
X3.1791Y-5.622
X3.1791Y-5.6732
X3.1791Y-5.7244
X3.1791Y-5.7756
X3.1791Y-5.8268
X3.1791Y-5.878
X3.1791Y-5.9291
X3.1791Y-5.9803
X3.1791Y-6.0315
X3.2382Y-5.622
X3.2382Y-5.6732
X3.2382Y-5.7244
X3.2382Y-5.7756
X3.2382Y-5.8268
X3.2382Y-5.878
X3.2382Y-5.9291
X3.2382Y-5.9803
X3.2382Y-6.0315
X3.2972Y-5.622
X3.2972Y-5.6732
X3.2972Y-5.7244
X3.2972Y-5.7756
X3.2972Y-5.8268
X3.2972Y-5.878
X3.2972Y-5.9291
X3.2972Y-5.9803
X3.2972Y-6.0315
X3.2972Y-2.2559
X3.2972Y-2.3071
X3.2972Y-2.3583
X3.2972Y-2.4094
X3.2972Y-2.4606
X3.2972Y-2.5118
X3.2972Y-2.563
X3.2972Y-2.6142
X3.2972Y-2.6654
X3.3563Y-2.2559
X3.3563Y-2.3071
X3.3563Y-2.3583
X3.3563Y-2.4094
X3.3563Y-2.4606
X3.3563Y-2.5118
X3.3563Y-2.563
X3.3563Y-2.6142
X3.3563Y-2.6654
X3.4154Y-2.2559
X3.4154Y-2.3071
X3.4154Y-2.3583
X3.4154Y-2.4094
X3.4154Y-2.4606
X3.4154Y-2.5118
X3.4154Y-2.563
X3.4154Y-2.6142
X3.4154Y-2.6654
X3.4744Y-2.2559
X3.4744Y-2.3071
X3.4744Y-2.3583
X3.4744Y-2.4094
X3.4744Y-2.4606
X3.4744Y-2.5118
X3.4744Y-2.563
X3.4744Y-2.6142
X3.4744Y-2.6654
T0
M30
