G04 #@! TF.GenerationSoftware,KiCad,Pcbnew,(5.1.4)-1*
G04 #@! TF.CreationDate,2019-11-12T21:59:13+01:00*
G04 #@! TF.ProjectId,Bracket,42726163-6b65-4742-9e6b-696361645f70,rev?*
G04 #@! TF.SameCoordinates,Original*
G04 #@! TF.FileFunction,Copper,L1,Top*
G04 #@! TF.FilePolarity,Positive*
%FSLAX46Y46*%
G04 Gerber Fmt 4.6, Leading zero omitted, Abs format (unit mm)*
G04 Created by KiCad (PCBNEW (5.1.4)-1) date 2019-11-12 21:59:13*
%MOMM*%
%LPD*%
G04 APERTURE LIST*
%ADD10C,0.800000*%
%ADD11C,6.400000*%
%ADD12C,0.200000*%
G04 APERTURE END LIST*
D10*
X153697056Y-75802944D03*
X152000000Y-75100000D03*
X150302944Y-75802944D03*
X149600000Y-77500000D03*
X150302944Y-79197056D03*
X152000000Y-79900000D03*
X153697056Y-79197056D03*
X154400000Y-77500000D03*
D11*
X152000000Y-77500000D03*
D10*
X139697056Y-75802944D03*
X138000000Y-75100000D03*
X136302944Y-75802944D03*
X135600000Y-77500000D03*
X136302944Y-79197056D03*
X138000000Y-79900000D03*
X139697056Y-79197056D03*
X140400000Y-77500000D03*
D11*
X138000000Y-77500000D03*
D12*
G36*
X152616391Y-74386996D02*
G01*
X153209306Y-74566008D01*
X153756158Y-74856775D01*
X154236114Y-75248216D01*
X154630903Y-75725434D01*
X154925478Y-76270240D01*
X155108624Y-76861891D01*
X155173364Y-77477850D01*
X155117231Y-78094642D01*
X154942363Y-78688793D01*
X154655423Y-79237659D01*
X154267336Y-79720342D01*
X153792893Y-80118447D01*
X153250150Y-80416823D01*
X152659798Y-80604094D01*
X152029563Y-80674786D01*
X151998878Y-80675000D01*
X138015896Y-80675000D01*
X137383609Y-80613004D01*
X136790695Y-80433992D01*
X136243844Y-80143226D01*
X135763886Y-79751784D01*
X135369096Y-79274564D01*
X135074520Y-78729755D01*
X134891376Y-78138109D01*
X134826636Y-77522150D01*
X134882769Y-76905358D01*
X135057637Y-76311207D01*
X135344577Y-75762341D01*
X135732664Y-75279658D01*
X136207111Y-74881551D01*
X136749846Y-74583178D01*
X137340204Y-74395906D01*
X137970437Y-74325214D01*
X138001122Y-74325000D01*
X151984104Y-74325000D01*
X152616391Y-74386996D01*
X152616391Y-74386996D01*
G37*
X152616391Y-74386996D02*
X153209306Y-74566008D01*
X153756158Y-74856775D01*
X154236114Y-75248216D01*
X154630903Y-75725434D01*
X154925478Y-76270240D01*
X155108624Y-76861891D01*
X155173364Y-77477850D01*
X155117231Y-78094642D01*
X154942363Y-78688793D01*
X154655423Y-79237659D01*
X154267336Y-79720342D01*
X153792893Y-80118447D01*
X153250150Y-80416823D01*
X152659798Y-80604094D01*
X152029563Y-80674786D01*
X151998878Y-80675000D01*
X138015896Y-80675000D01*
X137383609Y-80613004D01*
X136790695Y-80433992D01*
X136243844Y-80143226D01*
X135763886Y-79751784D01*
X135369096Y-79274564D01*
X135074520Y-78729755D01*
X134891376Y-78138109D01*
X134826636Y-77522150D01*
X134882769Y-76905358D01*
X135057637Y-76311207D01*
X135344577Y-75762341D01*
X135732664Y-75279658D01*
X136207111Y-74881551D01*
X136749846Y-74583178D01*
X137340204Y-74395906D01*
X137970437Y-74325214D01*
X138001122Y-74325000D01*
X151984104Y-74325000D01*
X152616391Y-74386996D01*
M02*
