G04 #@! TF.GenerationSoftware,KiCad,Pcbnew,(5.1.4)-1*
G04 #@! TF.CreationDate,2019-11-12T21:59:13+01:00*
G04 #@! TF.ProjectId,Bracket,42726163-6b65-4742-9e6b-696361645f70,rev?*
G04 #@! TF.SameCoordinates,Original*
G04 #@! TF.FileFunction,Soldermask,Top*
G04 #@! TF.FilePolarity,Negative*
%FSLAX46Y46*%
G04 Gerber Fmt 4.6, Leading zero omitted, Abs format (unit mm)*
G04 Created by KiCad (PCBNEW (5.1.4)-1) date 2019-11-12 21:59:13*
%MOMM*%
%LPD*%
G04 APERTURE LIST*
%ADD10C,0.100000*%
G04 APERTURE END LIST*
D10*
G36*
X152634239Y-74311467D02*
G01*
X152948282Y-74373934D01*
X153539926Y-74619001D01*
X154072392Y-74974784D01*
X154525216Y-75427608D01*
X154880999Y-75960074D01*
X155126066Y-76551718D01*
X155126066Y-76551719D01*
X155251000Y-77179803D01*
X155251000Y-77820197D01*
X155188533Y-78134239D01*
X155126066Y-78448282D01*
X154880999Y-79039926D01*
X154525216Y-79572392D01*
X154072392Y-80025216D01*
X153539926Y-80380999D01*
X152948282Y-80626066D01*
X152634239Y-80688533D01*
X152320197Y-80751000D01*
X151679803Y-80751000D01*
X151365761Y-80688533D01*
X151051718Y-80626066D01*
X150460074Y-80380999D01*
X149927608Y-80025216D01*
X149474784Y-79572392D01*
X149119001Y-79039926D01*
X148873934Y-78448282D01*
X148811467Y-78134239D01*
X148749000Y-77820197D01*
X148749000Y-77179803D01*
X148873934Y-76551719D01*
X148873934Y-76551718D01*
X149119001Y-75960074D01*
X149474784Y-75427608D01*
X149927608Y-74974784D01*
X150460074Y-74619001D01*
X151051718Y-74373934D01*
X151365761Y-74311467D01*
X151679803Y-74249000D01*
X152320197Y-74249000D01*
X152634239Y-74311467D01*
X152634239Y-74311467D01*
G37*
G36*
X138634239Y-74311467D02*
G01*
X138948282Y-74373934D01*
X139539926Y-74619001D01*
X140072392Y-74974784D01*
X140525216Y-75427608D01*
X140880999Y-75960074D01*
X141126066Y-76551718D01*
X141126066Y-76551719D01*
X141251000Y-77179803D01*
X141251000Y-77820197D01*
X141188533Y-78134239D01*
X141126066Y-78448282D01*
X140880999Y-79039926D01*
X140525216Y-79572392D01*
X140072392Y-80025216D01*
X139539926Y-80380999D01*
X138948282Y-80626066D01*
X138634239Y-80688533D01*
X138320197Y-80751000D01*
X137679803Y-80751000D01*
X137365761Y-80688533D01*
X137051718Y-80626066D01*
X136460074Y-80380999D01*
X135927608Y-80025216D01*
X135474784Y-79572392D01*
X135119001Y-79039926D01*
X134873934Y-78448282D01*
X134811467Y-78134239D01*
X134749000Y-77820197D01*
X134749000Y-77179803D01*
X134873934Y-76551719D01*
X134873934Y-76551718D01*
X135119001Y-75960074D01*
X135474784Y-75427608D01*
X135927608Y-74974784D01*
X136460074Y-74619001D01*
X137051718Y-74373934D01*
X137365761Y-74311467D01*
X137679803Y-74249000D01*
X138320197Y-74249000D01*
X138634239Y-74311467D01*
X138634239Y-74311467D01*
G37*
M02*
