G04 #@! TF.GenerationSoftware,KiCad,Pcbnew,(5.1.2)-1*
G04 #@! TF.CreationDate,2020-05-12T16:12:36+02:00*
G04 #@! TF.ProjectId,Controller,436f6e74-726f-46c6-9c65-722e6b696361,rev?*
G04 #@! TF.SameCoordinates,Original*
G04 #@! TF.FileFunction,Soldermask,Bot*
G04 #@! TF.FilePolarity,Negative*
%FSLAX46Y46*%
G04 Gerber Fmt 4.6, Leading zero omitted, Abs format (unit mm)*
G04 Created by KiCad (PCBNEW (5.1.2)-1) date 2020-05-12 16:12:36*
%MOMM*%
%LPD*%
G04 APERTURE LIST*
%ADD10C,0.150000*%
%ADD11C,0.100000*%
G04 APERTURE END LIST*
D10*
X163750000Y-98000000D02*
X163750000Y-97000000D01*
X163750000Y-99000000D02*
X163750000Y-98000000D01*
X163000000Y-99750000D02*
X163750000Y-99000000D01*
X162000000Y-99750000D02*
X163000000Y-99750000D01*
X161500000Y-100250000D02*
X162000000Y-99750000D01*
X161500000Y-101750000D02*
X161500000Y-100250000D01*
X160750000Y-102500000D02*
X161500000Y-101750000D01*
X157750000Y-102500000D02*
X160750000Y-102500000D01*
X156750000Y-101500000D02*
X157750000Y-102500000D01*
X156750000Y-96750000D02*
X156750000Y-101500000D01*
X157250000Y-96250000D02*
X156750000Y-96750000D01*
X159750000Y-96250000D02*
X157250000Y-96250000D01*
X160000000Y-96500000D02*
X159750000Y-96250000D01*
X161500000Y-96500000D02*
X160000000Y-96500000D01*
X163250000Y-96500000D02*
X161500000Y-96500000D01*
X163750000Y-97000000D02*
X163250000Y-96500000D01*
D11*
G36*
X237835822Y-113229635D02*
G01*
X237879886Y-113243001D01*
X237920495Y-113264707D01*
X237956085Y-113293915D01*
X237985293Y-113329505D01*
X238006999Y-113370114D01*
X238020365Y-113414178D01*
X238025000Y-113461232D01*
X238025000Y-117038768D01*
X238020365Y-117085822D01*
X238006999Y-117129886D01*
X237985293Y-117170495D01*
X237956085Y-117206085D01*
X237920495Y-117235293D01*
X237879886Y-117256999D01*
X237835822Y-117270365D01*
X237788768Y-117275000D01*
X235711232Y-117275000D01*
X235664178Y-117270365D01*
X235620114Y-117256999D01*
X235579505Y-117235293D01*
X235543915Y-117206085D01*
X235514707Y-117170495D01*
X235493001Y-117129886D01*
X235479635Y-117085822D01*
X235475000Y-117038768D01*
X235475000Y-113461232D01*
X235479635Y-113414178D01*
X235493001Y-113370114D01*
X235514707Y-113329505D01*
X235543915Y-113293915D01*
X235579505Y-113264707D01*
X235620114Y-113243001D01*
X235664178Y-113229635D01*
X235711232Y-113225000D01*
X237788768Y-113225000D01*
X237835822Y-113229635D01*
X237835822Y-113229635D01*
G37*
G36*
X226585822Y-113229635D02*
G01*
X226629886Y-113243001D01*
X226670495Y-113264707D01*
X226706085Y-113293915D01*
X226735293Y-113329505D01*
X226756999Y-113370114D01*
X226770365Y-113414178D01*
X226775000Y-113461232D01*
X226775000Y-117038768D01*
X226770365Y-117085822D01*
X226756999Y-117129886D01*
X226735293Y-117170495D01*
X226706085Y-117206085D01*
X226670495Y-117235293D01*
X226629886Y-117256999D01*
X226585822Y-117270365D01*
X226538768Y-117275000D01*
X224461232Y-117275000D01*
X224414178Y-117270365D01*
X224370114Y-117256999D01*
X224329505Y-117235293D01*
X224293915Y-117206085D01*
X224264707Y-117170495D01*
X224243001Y-117129886D01*
X224229635Y-117085822D01*
X224225000Y-117038768D01*
X224225000Y-113461232D01*
X224229635Y-113414178D01*
X224243001Y-113370114D01*
X224264707Y-113329505D01*
X224293915Y-113293915D01*
X224329505Y-113264707D01*
X224370114Y-113243001D01*
X224414178Y-113229635D01*
X224461232Y-113225000D01*
X226538768Y-113225000D01*
X226585822Y-113229635D01*
X226585822Y-113229635D01*
G37*
G36*
X196430000Y-117095000D02*
G01*
X192570000Y-117095000D01*
X192570000Y-112805000D01*
X196430000Y-112805000D01*
X196430000Y-117095000D01*
X196430000Y-117095000D01*
G37*
G36*
X83778779Y-114929803D02*
G01*
X83824487Y-114943668D01*
X83866604Y-114966180D01*
X83903522Y-114996478D01*
X83933820Y-115033396D01*
X83956332Y-115075513D01*
X83970197Y-115121221D01*
X83975000Y-115169982D01*
X83975000Y-115705018D01*
X83970197Y-115753779D01*
X83956332Y-115799487D01*
X83933820Y-115841604D01*
X83903522Y-115878522D01*
X83866604Y-115908820D01*
X83824487Y-115931332D01*
X83778779Y-115945197D01*
X83730018Y-115950000D01*
X82769982Y-115950000D01*
X82721221Y-115945197D01*
X82675513Y-115931332D01*
X82633396Y-115908820D01*
X82596478Y-115878522D01*
X82566180Y-115841604D01*
X82543668Y-115799487D01*
X82529803Y-115753779D01*
X82525000Y-115705018D01*
X82525000Y-115169982D01*
X82529803Y-115121221D01*
X82543668Y-115075513D01*
X82566180Y-115033396D01*
X82596478Y-114996478D01*
X82633396Y-114966180D01*
X82675513Y-114943668D01*
X82721221Y-114929803D01*
X82769982Y-114925000D01*
X83730018Y-114925000D01*
X83778779Y-114929803D01*
X83778779Y-114929803D01*
G37*
G36*
X118625000Y-115875000D02*
G01*
X117375000Y-115875000D01*
X117375000Y-114925000D01*
X118625000Y-114925000D01*
X118625000Y-115875000D01*
X118625000Y-115875000D01*
G37*
G36*
X188421529Y-113737661D02*
G01*
X188522768Y-113768372D01*
X188586471Y-113787696D01*
X188683155Y-113839375D01*
X188738475Y-113868944D01*
X188871712Y-113978288D01*
X188981056Y-114111524D01*
X189001622Y-114150000D01*
X189062304Y-114263528D01*
X189063285Y-114266763D01*
X189112339Y-114428470D01*
X189125000Y-114557021D01*
X189125000Y-114942978D01*
X189112339Y-115071529D01*
X189094220Y-115131258D01*
X189062304Y-115236472D01*
X189029646Y-115297570D01*
X188981056Y-115388476D01*
X188871712Y-115521712D01*
X188738476Y-115631056D01*
X188694350Y-115654641D01*
X188586472Y-115712304D01*
X188557464Y-115721103D01*
X188421530Y-115762339D01*
X188250000Y-115779233D01*
X188078471Y-115762339D01*
X187942537Y-115721103D01*
X187913529Y-115712304D01*
X187761527Y-115631057D01*
X187761525Y-115631056D01*
X187628288Y-115521712D01*
X187518944Y-115388476D01*
X187470354Y-115297570D01*
X187437696Y-115236472D01*
X187422338Y-115185844D01*
X187387661Y-115071530D01*
X187375000Y-114942979D01*
X187375000Y-114557022D01*
X187387661Y-114428471D01*
X187437695Y-114263533D01*
X187437696Y-114263529D01*
X187518943Y-114111527D01*
X187518944Y-114111525D01*
X187628288Y-113978288D01*
X187761524Y-113868944D01*
X187816844Y-113839375D01*
X187913528Y-113787696D01*
X187977231Y-113768372D01*
X188078470Y-113737661D01*
X188250000Y-113720767D01*
X188421529Y-113737661D01*
X188421529Y-113737661D01*
G37*
G36*
X204421529Y-113737661D02*
G01*
X204522768Y-113768372D01*
X204586471Y-113787696D01*
X204683155Y-113839375D01*
X204738475Y-113868944D01*
X204871712Y-113978288D01*
X204981056Y-114111524D01*
X205001622Y-114150000D01*
X205062304Y-114263528D01*
X205063285Y-114266763D01*
X205112339Y-114428470D01*
X205125000Y-114557021D01*
X205125000Y-114942978D01*
X205112339Y-115071529D01*
X205094220Y-115131258D01*
X205062304Y-115236472D01*
X205029646Y-115297570D01*
X204981056Y-115388476D01*
X204871712Y-115521712D01*
X204738476Y-115631056D01*
X204694350Y-115654641D01*
X204586472Y-115712304D01*
X204557464Y-115721103D01*
X204421530Y-115762339D01*
X204250000Y-115779233D01*
X204078471Y-115762339D01*
X203942537Y-115721103D01*
X203913529Y-115712304D01*
X203761527Y-115631057D01*
X203761525Y-115631056D01*
X203628288Y-115521712D01*
X203518944Y-115388476D01*
X203470354Y-115297570D01*
X203437696Y-115236472D01*
X203422338Y-115185844D01*
X203387661Y-115071530D01*
X203375000Y-114942979D01*
X203375000Y-114557022D01*
X203387661Y-114428471D01*
X203437695Y-114263533D01*
X203437696Y-114263529D01*
X203518943Y-114111527D01*
X203518944Y-114111525D01*
X203628288Y-113978288D01*
X203761524Y-113868944D01*
X203816844Y-113839375D01*
X203913528Y-113787696D01*
X203977231Y-113768372D01*
X204078470Y-113737661D01*
X204250000Y-113720767D01*
X204421529Y-113737661D01*
X204421529Y-113737661D01*
G37*
G36*
X186432034Y-113729725D02*
G01*
X186476980Y-113743359D01*
X186518399Y-113765498D01*
X186554706Y-113795294D01*
X186584502Y-113831601D01*
X186606641Y-113873020D01*
X186620275Y-113917966D01*
X186625000Y-113965938D01*
X186625000Y-115534062D01*
X186620275Y-115582034D01*
X186606641Y-115626980D01*
X186584502Y-115668399D01*
X186554706Y-115704706D01*
X186518399Y-115734502D01*
X186476980Y-115756641D01*
X186432034Y-115770275D01*
X186384062Y-115775000D01*
X185115938Y-115775000D01*
X185067966Y-115770275D01*
X185023020Y-115756641D01*
X184981601Y-115734502D01*
X184945294Y-115704706D01*
X184915498Y-115668399D01*
X184893359Y-115626980D01*
X184879725Y-115582034D01*
X184875000Y-115534062D01*
X184875000Y-113965938D01*
X184879725Y-113917966D01*
X184893359Y-113873020D01*
X184915498Y-113831601D01*
X184945294Y-113795294D01*
X184981601Y-113765498D01*
X185023020Y-113743359D01*
X185067966Y-113729725D01*
X185115938Y-113725000D01*
X186384062Y-113725000D01*
X186432034Y-113729725D01*
X186432034Y-113729725D01*
G37*
G36*
X202432034Y-113729725D02*
G01*
X202476980Y-113743359D01*
X202518399Y-113765498D01*
X202554706Y-113795294D01*
X202584502Y-113831601D01*
X202606641Y-113873020D01*
X202620275Y-113917966D01*
X202625000Y-113965938D01*
X202625000Y-115534062D01*
X202620275Y-115582034D01*
X202606641Y-115626980D01*
X202584502Y-115668399D01*
X202554706Y-115704706D01*
X202518399Y-115734502D01*
X202476980Y-115756641D01*
X202432034Y-115770275D01*
X202384062Y-115775000D01*
X201115938Y-115775000D01*
X201067966Y-115770275D01*
X201023020Y-115756641D01*
X200981601Y-115734502D01*
X200945294Y-115704706D01*
X200915498Y-115668399D01*
X200893359Y-115626980D01*
X200879725Y-115582034D01*
X200875000Y-115534062D01*
X200875000Y-113965938D01*
X200879725Y-113917966D01*
X200893359Y-113873020D01*
X200915498Y-113831601D01*
X200945294Y-113795294D01*
X200981601Y-113765498D01*
X201023020Y-113743359D01*
X201067966Y-113729725D01*
X201115938Y-113725000D01*
X202384062Y-113725000D01*
X202432034Y-113729725D01*
X202432034Y-113729725D01*
G37*
G36*
X114278779Y-114679803D02*
G01*
X114324487Y-114693668D01*
X114366604Y-114716180D01*
X114403522Y-114746478D01*
X114433820Y-114783396D01*
X114456332Y-114825513D01*
X114470197Y-114871221D01*
X114475000Y-114919982D01*
X114475000Y-115455018D01*
X114470197Y-115503779D01*
X114456332Y-115549487D01*
X114433820Y-115591604D01*
X114403522Y-115628522D01*
X114366604Y-115658820D01*
X114324487Y-115681332D01*
X114278779Y-115695197D01*
X114230018Y-115700000D01*
X113269982Y-115700000D01*
X113221221Y-115695197D01*
X113175513Y-115681332D01*
X113133396Y-115658820D01*
X113096478Y-115628522D01*
X113066180Y-115591604D01*
X113043668Y-115549487D01*
X113029803Y-115503779D01*
X113025000Y-115455018D01*
X113025000Y-114919982D01*
X113029803Y-114871221D01*
X113043668Y-114825513D01*
X113066180Y-114783396D01*
X113096478Y-114746478D01*
X113133396Y-114716180D01*
X113175513Y-114693668D01*
X113221221Y-114679803D01*
X113269982Y-114675000D01*
X114230018Y-114675000D01*
X114278779Y-114679803D01*
X114278779Y-114679803D01*
G37*
G36*
X157000000Y-115450000D02*
G01*
X155200000Y-115450000D01*
X155200000Y-115000000D01*
X157000000Y-115000000D01*
X157000000Y-115450000D01*
X157000000Y-115450000D01*
G37*
G36*
X149800000Y-115450000D02*
G01*
X148000000Y-115450000D01*
X148000000Y-115000000D01*
X149800000Y-115000000D01*
X149800000Y-115450000D01*
X149800000Y-115450000D01*
G37*
G36*
X248762520Y-113634586D02*
G01*
X248926310Y-113702430D01*
X249073717Y-113800924D01*
X249199076Y-113926283D01*
X249297570Y-114073690D01*
X249365414Y-114237480D01*
X249400000Y-114411358D01*
X249400000Y-114588642D01*
X249365414Y-114762520D01*
X249297570Y-114926310D01*
X249199076Y-115073717D01*
X249073717Y-115199076D01*
X248926310Y-115297570D01*
X248762520Y-115365414D01*
X248588642Y-115400000D01*
X248411358Y-115400000D01*
X248237480Y-115365414D01*
X248073690Y-115297570D01*
X247926283Y-115199076D01*
X247800924Y-115073717D01*
X247702430Y-114926310D01*
X247634586Y-114762520D01*
X247600000Y-114588642D01*
X247600000Y-114411358D01*
X247634586Y-114237480D01*
X247702430Y-114073690D01*
X247800924Y-113926283D01*
X247926283Y-113800924D01*
X248073690Y-113702430D01*
X248237480Y-113634586D01*
X248411358Y-113600000D01*
X248588642Y-113600000D01*
X248762520Y-113634586D01*
X248762520Y-113634586D01*
G37*
G36*
X246900000Y-115400000D02*
G01*
X245100000Y-115400000D01*
X245100000Y-113600000D01*
X246900000Y-113600000D01*
X246900000Y-115400000D01*
X246900000Y-115400000D01*
G37*
G36*
X251262520Y-113634586D02*
G01*
X251426310Y-113702430D01*
X251573717Y-113800924D01*
X251699076Y-113926283D01*
X251797570Y-114073690D01*
X251865414Y-114237480D01*
X251900000Y-114411358D01*
X251900000Y-114588642D01*
X251865414Y-114762520D01*
X251797570Y-114926310D01*
X251699076Y-115073717D01*
X251573717Y-115199076D01*
X251426310Y-115297570D01*
X251262520Y-115365414D01*
X251088642Y-115400000D01*
X250911358Y-115400000D01*
X250737480Y-115365414D01*
X250573690Y-115297570D01*
X250426283Y-115199076D01*
X250300924Y-115073717D01*
X250202430Y-114926310D01*
X250134586Y-114762520D01*
X250100000Y-114588642D01*
X250100000Y-114411358D01*
X250134586Y-114237480D01*
X250202430Y-114073690D01*
X250300924Y-113926283D01*
X250426283Y-113800924D01*
X250573690Y-113702430D01*
X250737480Y-113634586D01*
X250911358Y-113600000D01*
X251088642Y-113600000D01*
X251262520Y-113634586D01*
X251262520Y-113634586D01*
G37*
G36*
X160823904Y-114254323D02*
G01*
X160864916Y-114266763D01*
X160902713Y-114286966D01*
X160935844Y-114314156D01*
X160963034Y-114347287D01*
X160983237Y-114385084D01*
X160995677Y-114426096D01*
X161000000Y-114469983D01*
X161000000Y-115030017D01*
X160995677Y-115073904D01*
X160983237Y-115114916D01*
X160963034Y-115152713D01*
X160935844Y-115185844D01*
X160902713Y-115213034D01*
X160864916Y-115233237D01*
X160823904Y-115245677D01*
X160780017Y-115250000D01*
X160294983Y-115250000D01*
X160251096Y-115245677D01*
X160210084Y-115233237D01*
X160172287Y-115213034D01*
X160139156Y-115185844D01*
X160111966Y-115152713D01*
X160091763Y-115114916D01*
X160079323Y-115073904D01*
X160075000Y-115030017D01*
X160075000Y-114469983D01*
X160079323Y-114426096D01*
X160091763Y-114385084D01*
X160111966Y-114347287D01*
X160139156Y-114314156D01*
X160172287Y-114286966D01*
X160210084Y-114266763D01*
X160251096Y-114254323D01*
X160294983Y-114250000D01*
X160780017Y-114250000D01*
X160823904Y-114254323D01*
X160823904Y-114254323D01*
G37*
G36*
X162248904Y-114254323D02*
G01*
X162289916Y-114266763D01*
X162327713Y-114286966D01*
X162360844Y-114314156D01*
X162388034Y-114347287D01*
X162408237Y-114385084D01*
X162420677Y-114426096D01*
X162425000Y-114469983D01*
X162425000Y-115030017D01*
X162420677Y-115073904D01*
X162408237Y-115114916D01*
X162388034Y-115152713D01*
X162360844Y-115185844D01*
X162327713Y-115213034D01*
X162289916Y-115233237D01*
X162248904Y-115245677D01*
X162205017Y-115250000D01*
X161719983Y-115250000D01*
X161676096Y-115245677D01*
X161635084Y-115233237D01*
X161597287Y-115213034D01*
X161564156Y-115185844D01*
X161536966Y-115152713D01*
X161516763Y-115114916D01*
X161504323Y-115073904D01*
X161500000Y-115030017D01*
X161500000Y-114469983D01*
X161504323Y-114426096D01*
X161516763Y-114385084D01*
X161536966Y-114347287D01*
X161564156Y-114314156D01*
X161597287Y-114286966D01*
X161635084Y-114266763D01*
X161676096Y-114254323D01*
X161719983Y-114250000D01*
X162205017Y-114250000D01*
X162248904Y-114254323D01*
X162248904Y-114254323D01*
G37*
G36*
X159248904Y-114254323D02*
G01*
X159289916Y-114266763D01*
X159327713Y-114286966D01*
X159360844Y-114314156D01*
X159388034Y-114347287D01*
X159408237Y-114385084D01*
X159420677Y-114426096D01*
X159425000Y-114469983D01*
X159425000Y-115030017D01*
X159420677Y-115073904D01*
X159408237Y-115114916D01*
X159388034Y-115152713D01*
X159360844Y-115185844D01*
X159327713Y-115213034D01*
X159289916Y-115233237D01*
X159248904Y-115245677D01*
X159205017Y-115250000D01*
X158719983Y-115250000D01*
X158676096Y-115245677D01*
X158635084Y-115233237D01*
X158597287Y-115213034D01*
X158564156Y-115185844D01*
X158536966Y-115152713D01*
X158516763Y-115114916D01*
X158504323Y-115073904D01*
X158500000Y-115030017D01*
X158500000Y-114469983D01*
X158504323Y-114426096D01*
X158516763Y-114385084D01*
X158536966Y-114347287D01*
X158564156Y-114314156D01*
X158597287Y-114286966D01*
X158635084Y-114266763D01*
X158676096Y-114254323D01*
X158719983Y-114250000D01*
X159205017Y-114250000D01*
X159248904Y-114254323D01*
X159248904Y-114254323D01*
G37*
G36*
X112273904Y-114329323D02*
G01*
X112314916Y-114341763D01*
X112352713Y-114361966D01*
X112385844Y-114389156D01*
X112413034Y-114422287D01*
X112433237Y-114460084D01*
X112445677Y-114501096D01*
X112450000Y-114544983D01*
X112450000Y-115030017D01*
X112445677Y-115073904D01*
X112433237Y-115114916D01*
X112413034Y-115152713D01*
X112385844Y-115185844D01*
X112352713Y-115213034D01*
X112314916Y-115233237D01*
X112273904Y-115245677D01*
X112230017Y-115250000D01*
X111669983Y-115250000D01*
X111626096Y-115245677D01*
X111585084Y-115233237D01*
X111547287Y-115213034D01*
X111514156Y-115185844D01*
X111486966Y-115152713D01*
X111466763Y-115114916D01*
X111454323Y-115073904D01*
X111450000Y-115030017D01*
X111450000Y-114544983D01*
X111454323Y-114501096D01*
X111466763Y-114460084D01*
X111486966Y-114422287D01*
X111514156Y-114389156D01*
X111547287Y-114361966D01*
X111585084Y-114341763D01*
X111626096Y-114329323D01*
X111669983Y-114325000D01*
X112230017Y-114325000D01*
X112273904Y-114329323D01*
X112273904Y-114329323D01*
G37*
G36*
X110773904Y-114329323D02*
G01*
X110814916Y-114341763D01*
X110852713Y-114361966D01*
X110885844Y-114389156D01*
X110913034Y-114422287D01*
X110933237Y-114460084D01*
X110945677Y-114501096D01*
X110950000Y-114544983D01*
X110950000Y-115030017D01*
X110945677Y-115073904D01*
X110933237Y-115114916D01*
X110913034Y-115152713D01*
X110885844Y-115185844D01*
X110852713Y-115213034D01*
X110814916Y-115233237D01*
X110773904Y-115245677D01*
X110730017Y-115250000D01*
X110169983Y-115250000D01*
X110126096Y-115245677D01*
X110085084Y-115233237D01*
X110047287Y-115213034D01*
X110014156Y-115185844D01*
X109986966Y-115152713D01*
X109966763Y-115114916D01*
X109954323Y-115073904D01*
X109950000Y-115030017D01*
X109950000Y-114544983D01*
X109954323Y-114501096D01*
X109966763Y-114460084D01*
X109986966Y-114422287D01*
X110014156Y-114389156D01*
X110047287Y-114361966D01*
X110085084Y-114341763D01*
X110126096Y-114329323D01*
X110169983Y-114325000D01*
X110730017Y-114325000D01*
X110773904Y-114329323D01*
X110773904Y-114329323D01*
G37*
G36*
X163823904Y-114254323D02*
G01*
X163864916Y-114266763D01*
X163902713Y-114286966D01*
X163935844Y-114314156D01*
X163963034Y-114347287D01*
X163983237Y-114385084D01*
X163995677Y-114426096D01*
X164000000Y-114469983D01*
X164000000Y-115030017D01*
X163995677Y-115073904D01*
X163983237Y-115114916D01*
X163963034Y-115152713D01*
X163935844Y-115185844D01*
X163902713Y-115213034D01*
X163864916Y-115233237D01*
X163823904Y-115245677D01*
X163780017Y-115250000D01*
X163294983Y-115250000D01*
X163251096Y-115245677D01*
X163210084Y-115233237D01*
X163172287Y-115213034D01*
X163139156Y-115185844D01*
X163111966Y-115152713D01*
X163091763Y-115114916D01*
X163079323Y-115073904D01*
X163075000Y-115030017D01*
X163075000Y-114469983D01*
X163079323Y-114426096D01*
X163091763Y-114385084D01*
X163111966Y-114347287D01*
X163139156Y-114314156D01*
X163172287Y-114286966D01*
X163210084Y-114266763D01*
X163251096Y-114254323D01*
X163294983Y-114250000D01*
X163780017Y-114250000D01*
X163823904Y-114254323D01*
X163823904Y-114254323D01*
G37*
G36*
X116073904Y-114329323D02*
G01*
X116114916Y-114341763D01*
X116152713Y-114361966D01*
X116185844Y-114389156D01*
X116213034Y-114422287D01*
X116233237Y-114460084D01*
X116245677Y-114501096D01*
X116250000Y-114544983D01*
X116250000Y-115030017D01*
X116245677Y-115073904D01*
X116233237Y-115114916D01*
X116213034Y-115152713D01*
X116185844Y-115185844D01*
X116152713Y-115213034D01*
X116114916Y-115233237D01*
X116073904Y-115245677D01*
X116030017Y-115250000D01*
X115469983Y-115250000D01*
X115426096Y-115245677D01*
X115385084Y-115233237D01*
X115347287Y-115213034D01*
X115314156Y-115185844D01*
X115286966Y-115152713D01*
X115266763Y-115114916D01*
X115254323Y-115073904D01*
X115250000Y-115030017D01*
X115250000Y-114544983D01*
X115254323Y-114501096D01*
X115266763Y-114460084D01*
X115286966Y-114422287D01*
X115314156Y-114389156D01*
X115347287Y-114361966D01*
X115385084Y-114341763D01*
X115426096Y-114329323D01*
X115469983Y-114325000D01*
X116030017Y-114325000D01*
X116073904Y-114329323D01*
X116073904Y-114329323D01*
G37*
G36*
X69548982Y-113014390D02*
G01*
X69735520Y-113091656D01*
X69903400Y-113203830D01*
X70046170Y-113346600D01*
X70158344Y-113514480D01*
X70235610Y-113701018D01*
X70275000Y-113899046D01*
X70275000Y-114100954D01*
X70235610Y-114298982D01*
X70158344Y-114485520D01*
X70046170Y-114653400D01*
X69903400Y-114796170D01*
X69735520Y-114908344D01*
X69548982Y-114985610D01*
X69350954Y-115025000D01*
X69149046Y-115025000D01*
X68951018Y-114985610D01*
X68764480Y-114908344D01*
X68596600Y-114796170D01*
X68453830Y-114653400D01*
X68341656Y-114485520D01*
X68264390Y-114298982D01*
X68225000Y-114100954D01*
X68225000Y-113899046D01*
X68264390Y-113701018D01*
X68341656Y-113514480D01*
X68453830Y-113346600D01*
X68596600Y-113203830D01*
X68764480Y-113091656D01*
X68951018Y-113014390D01*
X69149046Y-112975000D01*
X69350954Y-112975000D01*
X69548982Y-113014390D01*
X69548982Y-113014390D01*
G37*
G36*
X76048982Y-113014390D02*
G01*
X76235520Y-113091656D01*
X76403400Y-113203830D01*
X76546170Y-113346600D01*
X76658344Y-113514480D01*
X76735610Y-113701018D01*
X76775000Y-113899046D01*
X76775000Y-114100954D01*
X76735610Y-114298982D01*
X76658344Y-114485520D01*
X76546170Y-114653400D01*
X76403400Y-114796170D01*
X76235520Y-114908344D01*
X76048982Y-114985610D01*
X75850954Y-115025000D01*
X75649046Y-115025000D01*
X75451018Y-114985610D01*
X75264480Y-114908344D01*
X75096600Y-114796170D01*
X74953830Y-114653400D01*
X74841656Y-114485520D01*
X74764390Y-114298982D01*
X74725000Y-114100954D01*
X74725000Y-113899046D01*
X74764390Y-113701018D01*
X74841656Y-113514480D01*
X74953830Y-113346600D01*
X75096600Y-113203830D01*
X75264480Y-113091656D01*
X75451018Y-113014390D01*
X75649046Y-112975000D01*
X75850954Y-112975000D01*
X76048982Y-113014390D01*
X76048982Y-113014390D01*
G37*
G36*
X149800000Y-114800000D02*
G01*
X148000000Y-114800000D01*
X148000000Y-114350000D01*
X149800000Y-114350000D01*
X149800000Y-114800000D01*
X149800000Y-114800000D01*
G37*
G36*
X157000000Y-114800000D02*
G01*
X155200000Y-114800000D01*
X155200000Y-114350000D01*
X157000000Y-114350000D01*
X157000000Y-114800000D01*
X157000000Y-114800000D01*
G37*
G36*
X149800000Y-114150000D02*
G01*
X148000000Y-114150000D01*
X148000000Y-113700000D01*
X149800000Y-113700000D01*
X149800000Y-114150000D01*
X149800000Y-114150000D01*
G37*
G36*
X157000000Y-114150000D02*
G01*
X155200000Y-114150000D01*
X155200000Y-113700000D01*
X157000000Y-113700000D01*
X157000000Y-114150000D01*
X157000000Y-114150000D01*
G37*
G36*
X83778779Y-113054803D02*
G01*
X83824487Y-113068668D01*
X83866604Y-113091180D01*
X83903522Y-113121478D01*
X83933820Y-113158396D01*
X83956332Y-113200513D01*
X83970197Y-113246221D01*
X83975000Y-113294982D01*
X83975000Y-113830018D01*
X83970197Y-113878779D01*
X83956332Y-113924487D01*
X83933820Y-113966604D01*
X83903522Y-114003522D01*
X83866604Y-114033820D01*
X83824487Y-114056332D01*
X83778779Y-114070197D01*
X83730018Y-114075000D01*
X82769982Y-114075000D01*
X82721221Y-114070197D01*
X82675513Y-114056332D01*
X82633396Y-114033820D01*
X82596478Y-114003522D01*
X82566180Y-113966604D01*
X82543668Y-113924487D01*
X82529803Y-113878779D01*
X82525000Y-113830018D01*
X82525000Y-113294982D01*
X82529803Y-113246221D01*
X82543668Y-113200513D01*
X82566180Y-113158396D01*
X82596478Y-113121478D01*
X82633396Y-113091180D01*
X82675513Y-113068668D01*
X82721221Y-113054803D01*
X82769982Y-113050000D01*
X83730018Y-113050000D01*
X83778779Y-113054803D01*
X83778779Y-113054803D01*
G37*
G36*
X62138600Y-113888600D02*
G01*
X60361400Y-113888600D01*
X60361400Y-112111400D01*
X62138600Y-112111400D01*
X62138600Y-113888600D01*
X62138600Y-113888600D01*
G37*
G36*
X58884196Y-112124258D02*
G01*
X59051702Y-112175070D01*
X59206069Y-112257582D01*
X59341375Y-112368625D01*
X59452418Y-112503931D01*
X59534930Y-112658298D01*
X59585742Y-112825804D01*
X59602899Y-113000000D01*
X59585742Y-113174196D01*
X59534930Y-113341702D01*
X59452418Y-113496069D01*
X59341375Y-113631375D01*
X59206069Y-113742418D01*
X59051702Y-113824930D01*
X58907272Y-113868742D01*
X58884196Y-113875742D01*
X58753648Y-113888600D01*
X58666352Y-113888600D01*
X58535804Y-113875742D01*
X58512728Y-113868742D01*
X58368298Y-113824930D01*
X58213931Y-113742418D01*
X58078625Y-113631375D01*
X57967582Y-113496069D01*
X57885070Y-113341702D01*
X57834258Y-113174196D01*
X57817101Y-113000000D01*
X57834258Y-112825804D01*
X57885070Y-112658298D01*
X57967582Y-112503931D01*
X58078625Y-112368625D01*
X58213931Y-112257582D01*
X58368298Y-112175070D01*
X58535804Y-112124258D01*
X58666352Y-112111400D01*
X58753648Y-112111400D01*
X58884196Y-112124258D01*
X58884196Y-112124258D01*
G37*
G36*
X56344196Y-112124258D02*
G01*
X56511702Y-112175070D01*
X56666069Y-112257582D01*
X56801375Y-112368625D01*
X56912418Y-112503931D01*
X56994930Y-112658298D01*
X57045742Y-112825804D01*
X57062899Y-113000000D01*
X57045742Y-113174196D01*
X56994930Y-113341702D01*
X56912418Y-113496069D01*
X56801375Y-113631375D01*
X56666069Y-113742418D01*
X56511702Y-113824930D01*
X56367272Y-113868742D01*
X56344196Y-113875742D01*
X56213648Y-113888600D01*
X56126352Y-113888600D01*
X55995804Y-113875742D01*
X55972728Y-113868742D01*
X55828298Y-113824930D01*
X55673931Y-113742418D01*
X55538625Y-113631375D01*
X55427582Y-113496069D01*
X55345070Y-113341702D01*
X55294258Y-113174196D01*
X55277101Y-113000000D01*
X55294258Y-112825804D01*
X55345070Y-112658298D01*
X55427582Y-112503931D01*
X55538625Y-112368625D01*
X55673931Y-112257582D01*
X55828298Y-112175070D01*
X55995804Y-112124258D01*
X56126352Y-112111400D01*
X56213648Y-112111400D01*
X56344196Y-112124258D01*
X56344196Y-112124258D01*
G37*
G36*
X92825000Y-113825000D02*
G01*
X92275000Y-113825000D01*
X92275000Y-112175000D01*
X92825000Y-112175000D01*
X92825000Y-113825000D01*
X92825000Y-113825000D01*
G37*
G36*
X92025000Y-113825000D02*
G01*
X91475000Y-113825000D01*
X91475000Y-112175000D01*
X92025000Y-112175000D01*
X92025000Y-113825000D01*
X92025000Y-113825000D01*
G37*
G36*
X91225000Y-113825000D02*
G01*
X90675000Y-113825000D01*
X90675000Y-112175000D01*
X91225000Y-112175000D01*
X91225000Y-113825000D01*
X91225000Y-113825000D01*
G37*
G36*
X90425000Y-113825000D02*
G01*
X89875000Y-113825000D01*
X89875000Y-112175000D01*
X90425000Y-112175000D01*
X90425000Y-113825000D01*
X90425000Y-113825000D01*
G37*
G36*
X88825000Y-113825000D02*
G01*
X88275000Y-113825000D01*
X88275000Y-112175000D01*
X88825000Y-112175000D01*
X88825000Y-113825000D01*
X88825000Y-113825000D01*
G37*
G36*
X114278779Y-112804803D02*
G01*
X114324487Y-112818668D01*
X114366604Y-112841180D01*
X114403522Y-112871478D01*
X114433820Y-112908396D01*
X114456332Y-112950513D01*
X114470197Y-112996221D01*
X114475000Y-113044982D01*
X114475000Y-113580018D01*
X114470197Y-113628779D01*
X114456332Y-113674487D01*
X114433820Y-113716604D01*
X114403522Y-113753522D01*
X114366604Y-113783820D01*
X114324487Y-113806332D01*
X114278779Y-113820197D01*
X114230018Y-113825000D01*
X113269982Y-113825000D01*
X113221221Y-113820197D01*
X113175513Y-113806332D01*
X113133396Y-113783820D01*
X113096478Y-113753522D01*
X113066180Y-113716604D01*
X113043668Y-113674487D01*
X113029803Y-113628779D01*
X113025000Y-113580018D01*
X113025000Y-113044982D01*
X113029803Y-112996221D01*
X113043668Y-112950513D01*
X113066180Y-112908396D01*
X113096478Y-112871478D01*
X113133396Y-112841180D01*
X113175513Y-112818668D01*
X113221221Y-112804803D01*
X113269982Y-112800000D01*
X114230018Y-112800000D01*
X114278779Y-112804803D01*
X114278779Y-112804803D01*
G37*
G36*
X87225000Y-113825000D02*
G01*
X86675000Y-113825000D01*
X86675000Y-112175000D01*
X87225000Y-112175000D01*
X87225000Y-113825000D01*
X87225000Y-113825000D01*
G37*
G36*
X89625000Y-113825000D02*
G01*
X89075000Y-113825000D01*
X89075000Y-112175000D01*
X89625000Y-112175000D01*
X89625000Y-113825000D01*
X89625000Y-113825000D01*
G37*
G36*
X88025000Y-113825000D02*
G01*
X87475000Y-113825000D01*
X87475000Y-112175000D01*
X88025000Y-112175000D01*
X88025000Y-113825000D01*
X88025000Y-113825000D01*
G37*
G36*
X212706295Y-112179743D02*
G01*
X212751414Y-112193429D01*
X212792991Y-112215653D01*
X212829437Y-112245563D01*
X212859347Y-112282009D01*
X212881571Y-112323586D01*
X212895257Y-112368705D01*
X212900000Y-112416857D01*
X212900000Y-113583143D01*
X212895257Y-113631295D01*
X212881571Y-113676414D01*
X212859347Y-113717991D01*
X212829437Y-113754437D01*
X212792991Y-113784347D01*
X212751414Y-113806571D01*
X212706295Y-113820257D01*
X212658143Y-113825000D01*
X209766857Y-113825000D01*
X209718705Y-113820257D01*
X209673586Y-113806571D01*
X209632009Y-113784347D01*
X209595563Y-113754437D01*
X209565653Y-113717991D01*
X209543429Y-113676414D01*
X209529743Y-113631295D01*
X209525000Y-113583143D01*
X209525000Y-112416857D01*
X209529743Y-112368705D01*
X209543429Y-112323586D01*
X209565653Y-112282009D01*
X209595563Y-112245563D01*
X209632009Y-112215653D01*
X209673586Y-112193429D01*
X209718705Y-112179743D01*
X209766857Y-112175000D01*
X212658143Y-112175000D01*
X212706295Y-112179743D01*
X212706295Y-112179743D01*
G37*
G36*
X217781295Y-112179743D02*
G01*
X217826414Y-112193429D01*
X217867991Y-112215653D01*
X217904437Y-112245563D01*
X217934347Y-112282009D01*
X217956571Y-112323586D01*
X217970257Y-112368705D01*
X217975000Y-112416857D01*
X217975000Y-113583143D01*
X217970257Y-113631295D01*
X217956571Y-113676414D01*
X217934347Y-113717991D01*
X217904437Y-113754437D01*
X217867991Y-113784347D01*
X217826414Y-113806571D01*
X217781295Y-113820257D01*
X217733143Y-113825000D01*
X214841857Y-113825000D01*
X214793705Y-113820257D01*
X214748586Y-113806571D01*
X214707009Y-113784347D01*
X214670563Y-113754437D01*
X214640653Y-113717991D01*
X214618429Y-113676414D01*
X214604743Y-113631295D01*
X214600000Y-113583143D01*
X214600000Y-112416857D01*
X214604743Y-112368705D01*
X214618429Y-112323586D01*
X214640653Y-112282009D01*
X214670563Y-112245563D01*
X214707009Y-112215653D01*
X214748586Y-112193429D01*
X214793705Y-112179743D01*
X214841857Y-112175000D01*
X217733143Y-112175000D01*
X217781295Y-112179743D01*
X217781295Y-112179743D01*
G37*
G36*
X160823904Y-112754323D02*
G01*
X160864916Y-112766763D01*
X160902713Y-112786966D01*
X160935844Y-112814156D01*
X160963034Y-112847287D01*
X160983237Y-112885084D01*
X160995677Y-112926096D01*
X161000000Y-112969983D01*
X161000000Y-113530017D01*
X160995677Y-113573904D01*
X160983237Y-113614916D01*
X160963034Y-113652713D01*
X160935844Y-113685844D01*
X160902713Y-113713034D01*
X160864916Y-113733237D01*
X160823904Y-113745677D01*
X160780017Y-113750000D01*
X160294983Y-113750000D01*
X160251096Y-113745677D01*
X160210084Y-113733237D01*
X160172287Y-113713034D01*
X160139156Y-113685844D01*
X160111966Y-113652713D01*
X160091763Y-113614916D01*
X160079323Y-113573904D01*
X160075000Y-113530017D01*
X160075000Y-112969983D01*
X160079323Y-112926096D01*
X160091763Y-112885084D01*
X160111966Y-112847287D01*
X160139156Y-112814156D01*
X160172287Y-112786966D01*
X160210084Y-112766763D01*
X160251096Y-112754323D01*
X160294983Y-112750000D01*
X160780017Y-112750000D01*
X160823904Y-112754323D01*
X160823904Y-112754323D01*
G37*
G36*
X163823904Y-112754323D02*
G01*
X163864916Y-112766763D01*
X163902713Y-112786966D01*
X163935844Y-112814156D01*
X163963034Y-112847287D01*
X163983237Y-112885084D01*
X163995677Y-112926096D01*
X164000000Y-112969983D01*
X164000000Y-113530017D01*
X163995677Y-113573904D01*
X163983237Y-113614916D01*
X163963034Y-113652713D01*
X163935844Y-113685844D01*
X163902713Y-113713034D01*
X163864916Y-113733237D01*
X163823904Y-113745677D01*
X163780017Y-113750000D01*
X163294983Y-113750000D01*
X163251096Y-113745677D01*
X163210084Y-113733237D01*
X163172287Y-113713034D01*
X163139156Y-113685844D01*
X163111966Y-113652713D01*
X163091763Y-113614916D01*
X163079323Y-113573904D01*
X163075000Y-113530017D01*
X163075000Y-112969983D01*
X163079323Y-112926096D01*
X163091763Y-112885084D01*
X163111966Y-112847287D01*
X163139156Y-112814156D01*
X163172287Y-112786966D01*
X163210084Y-112766763D01*
X163251096Y-112754323D01*
X163294983Y-112750000D01*
X163780017Y-112750000D01*
X163823904Y-112754323D01*
X163823904Y-112754323D01*
G37*
G36*
X162248904Y-112754323D02*
G01*
X162289916Y-112766763D01*
X162327713Y-112786966D01*
X162360844Y-112814156D01*
X162388034Y-112847287D01*
X162408237Y-112885084D01*
X162420677Y-112926096D01*
X162425000Y-112969983D01*
X162425000Y-113530017D01*
X162420677Y-113573904D01*
X162408237Y-113614916D01*
X162388034Y-113652713D01*
X162360844Y-113685844D01*
X162327713Y-113713034D01*
X162289916Y-113733237D01*
X162248904Y-113745677D01*
X162205017Y-113750000D01*
X161719983Y-113750000D01*
X161676096Y-113745677D01*
X161635084Y-113733237D01*
X161597287Y-113713034D01*
X161564156Y-113685844D01*
X161536966Y-113652713D01*
X161516763Y-113614916D01*
X161504323Y-113573904D01*
X161500000Y-113530017D01*
X161500000Y-112969983D01*
X161504323Y-112926096D01*
X161516763Y-112885084D01*
X161536966Y-112847287D01*
X161564156Y-112814156D01*
X161597287Y-112786966D01*
X161635084Y-112766763D01*
X161676096Y-112754323D01*
X161719983Y-112750000D01*
X162205017Y-112750000D01*
X162248904Y-112754323D01*
X162248904Y-112754323D01*
G37*
G36*
X146923904Y-112829323D02*
G01*
X146964916Y-112841763D01*
X147002713Y-112861966D01*
X147035844Y-112889156D01*
X147063034Y-112922287D01*
X147083237Y-112960084D01*
X147095677Y-113001096D01*
X147100000Y-113044983D01*
X147100000Y-113530017D01*
X147095677Y-113573904D01*
X147083237Y-113614916D01*
X147063034Y-113652713D01*
X147035844Y-113685844D01*
X147002713Y-113713034D01*
X146964916Y-113733237D01*
X146923904Y-113745677D01*
X146880017Y-113750000D01*
X146319983Y-113750000D01*
X146276096Y-113745677D01*
X146235084Y-113733237D01*
X146197287Y-113713034D01*
X146164156Y-113685844D01*
X146136966Y-113652713D01*
X146116763Y-113614916D01*
X146104323Y-113573904D01*
X146100000Y-113530017D01*
X146100000Y-113044983D01*
X146104323Y-113001096D01*
X146116763Y-112960084D01*
X146136966Y-112922287D01*
X146164156Y-112889156D01*
X146197287Y-112861966D01*
X146235084Y-112841763D01*
X146276096Y-112829323D01*
X146319983Y-112825000D01*
X146880017Y-112825000D01*
X146923904Y-112829323D01*
X146923904Y-112829323D01*
G37*
G36*
X159248904Y-112754323D02*
G01*
X159289916Y-112766763D01*
X159327713Y-112786966D01*
X159360844Y-112814156D01*
X159388034Y-112847287D01*
X159408237Y-112885084D01*
X159420677Y-112926096D01*
X159425000Y-112969983D01*
X159425000Y-113530017D01*
X159420677Y-113573904D01*
X159408237Y-113614916D01*
X159388034Y-113652713D01*
X159360844Y-113685844D01*
X159327713Y-113713034D01*
X159289916Y-113733237D01*
X159248904Y-113745677D01*
X159205017Y-113750000D01*
X158719983Y-113750000D01*
X158676096Y-113745677D01*
X158635084Y-113733237D01*
X158597287Y-113713034D01*
X158564156Y-113685844D01*
X158536966Y-113652713D01*
X158516763Y-113614916D01*
X158504323Y-113573904D01*
X158500000Y-113530017D01*
X158500000Y-112969983D01*
X158504323Y-112926096D01*
X158516763Y-112885084D01*
X158536966Y-112847287D01*
X158564156Y-112814156D01*
X158597287Y-112786966D01*
X158635084Y-112766763D01*
X158676096Y-112754323D01*
X158719983Y-112750000D01*
X159205017Y-112750000D01*
X159248904Y-112754323D01*
X159248904Y-112754323D01*
G37*
G36*
X112273904Y-112754323D02*
G01*
X112314916Y-112766763D01*
X112352713Y-112786966D01*
X112385844Y-112814156D01*
X112413034Y-112847287D01*
X112433237Y-112885084D01*
X112445677Y-112926096D01*
X112450000Y-112969983D01*
X112450000Y-113455017D01*
X112445677Y-113498904D01*
X112433237Y-113539916D01*
X112413034Y-113577713D01*
X112385844Y-113610844D01*
X112352713Y-113638034D01*
X112314916Y-113658237D01*
X112273904Y-113670677D01*
X112230017Y-113675000D01*
X111669983Y-113675000D01*
X111626096Y-113670677D01*
X111585084Y-113658237D01*
X111547287Y-113638034D01*
X111514156Y-113610844D01*
X111486966Y-113577713D01*
X111466763Y-113539916D01*
X111454323Y-113498904D01*
X111450000Y-113455017D01*
X111450000Y-112969983D01*
X111454323Y-112926096D01*
X111466763Y-112885084D01*
X111486966Y-112847287D01*
X111514156Y-112814156D01*
X111547287Y-112786966D01*
X111585084Y-112766763D01*
X111626096Y-112754323D01*
X111669983Y-112750000D01*
X112230017Y-112750000D01*
X112273904Y-112754323D01*
X112273904Y-112754323D01*
G37*
G36*
X116073904Y-112754323D02*
G01*
X116114916Y-112766763D01*
X116152713Y-112786966D01*
X116185844Y-112814156D01*
X116213034Y-112847287D01*
X116233237Y-112885084D01*
X116245677Y-112926096D01*
X116250000Y-112969983D01*
X116250000Y-113455017D01*
X116245677Y-113498904D01*
X116233237Y-113539916D01*
X116213034Y-113577713D01*
X116185844Y-113610844D01*
X116152713Y-113638034D01*
X116114916Y-113658237D01*
X116073904Y-113670677D01*
X116030017Y-113675000D01*
X115469983Y-113675000D01*
X115426096Y-113670677D01*
X115385084Y-113658237D01*
X115347287Y-113638034D01*
X115314156Y-113610844D01*
X115286966Y-113577713D01*
X115266763Y-113539916D01*
X115254323Y-113498904D01*
X115250000Y-113455017D01*
X115250000Y-112969983D01*
X115254323Y-112926096D01*
X115266763Y-112885084D01*
X115286966Y-112847287D01*
X115314156Y-112814156D01*
X115347287Y-112786966D01*
X115385084Y-112766763D01*
X115426096Y-112754323D01*
X115469983Y-112750000D01*
X116030017Y-112750000D01*
X116073904Y-112754323D01*
X116073904Y-112754323D01*
G37*
G36*
X110773904Y-112754323D02*
G01*
X110814916Y-112766763D01*
X110852713Y-112786966D01*
X110885844Y-112814156D01*
X110913034Y-112847287D01*
X110933237Y-112885084D01*
X110945677Y-112926096D01*
X110950000Y-112969983D01*
X110950000Y-113455017D01*
X110945677Y-113498904D01*
X110933237Y-113539916D01*
X110913034Y-113577713D01*
X110885844Y-113610844D01*
X110852713Y-113638034D01*
X110814916Y-113658237D01*
X110773904Y-113670677D01*
X110730017Y-113675000D01*
X110169983Y-113675000D01*
X110126096Y-113670677D01*
X110085084Y-113658237D01*
X110047287Y-113638034D01*
X110014156Y-113610844D01*
X109986966Y-113577713D01*
X109966763Y-113539916D01*
X109954323Y-113498904D01*
X109950000Y-113455017D01*
X109950000Y-112969983D01*
X109954323Y-112926096D01*
X109966763Y-112885084D01*
X109986966Y-112847287D01*
X110014156Y-112814156D01*
X110047287Y-112786966D01*
X110085084Y-112766763D01*
X110126096Y-112754323D01*
X110169983Y-112750000D01*
X110730017Y-112750000D01*
X110773904Y-112754323D01*
X110773904Y-112754323D01*
G37*
G36*
X97975000Y-113675000D02*
G01*
X96025000Y-113675000D01*
X96025000Y-113225000D01*
X97975000Y-113225000D01*
X97975000Y-113675000D01*
X97975000Y-113675000D01*
G37*
G36*
X149800000Y-113500000D02*
G01*
X148000000Y-113500000D01*
X148000000Y-113050000D01*
X149800000Y-113050000D01*
X149800000Y-113500000D01*
X149800000Y-113500000D01*
G37*
G36*
X157000000Y-113500000D02*
G01*
X155200000Y-113500000D01*
X155200000Y-113050000D01*
X157000000Y-113050000D01*
X157000000Y-113500000D01*
X157000000Y-113500000D01*
G37*
G36*
X157000000Y-112850000D02*
G01*
X155200000Y-112850000D01*
X155200000Y-112400000D01*
X157000000Y-112400000D01*
X157000000Y-112850000D01*
X157000000Y-112850000D01*
G37*
G36*
X149800000Y-112850000D02*
G01*
X148000000Y-112850000D01*
X148000000Y-112400000D01*
X149800000Y-112400000D01*
X149800000Y-112850000D01*
X149800000Y-112850000D01*
G37*
G36*
X118625000Y-112575000D02*
G01*
X117375000Y-112575000D01*
X117375000Y-111625000D01*
X118625000Y-111625000D01*
X118625000Y-112575000D01*
X118625000Y-112575000D01*
G37*
G36*
X83573904Y-111504323D02*
G01*
X83614916Y-111516763D01*
X83652713Y-111536966D01*
X83685844Y-111564156D01*
X83713034Y-111597287D01*
X83733237Y-111635084D01*
X83745677Y-111676096D01*
X83750000Y-111719983D01*
X83750000Y-112280017D01*
X83745677Y-112323904D01*
X83733237Y-112364916D01*
X83713034Y-112402713D01*
X83685844Y-112435844D01*
X83652713Y-112463034D01*
X83614916Y-112483237D01*
X83573904Y-112495677D01*
X83530017Y-112500000D01*
X83044983Y-112500000D01*
X83001096Y-112495677D01*
X82960084Y-112483237D01*
X82922287Y-112463034D01*
X82889156Y-112435844D01*
X82861966Y-112402713D01*
X82841763Y-112364916D01*
X82829323Y-112323904D01*
X82825000Y-112280017D01*
X82825000Y-111719983D01*
X82829323Y-111676096D01*
X82841763Y-111635084D01*
X82861966Y-111597287D01*
X82889156Y-111564156D01*
X82922287Y-111536966D01*
X82960084Y-111516763D01*
X83001096Y-111504323D01*
X83044983Y-111500000D01*
X83530017Y-111500000D01*
X83573904Y-111504323D01*
X83573904Y-111504323D01*
G37*
G36*
X81998904Y-111504323D02*
G01*
X82039916Y-111516763D01*
X82077713Y-111536966D01*
X82110844Y-111564156D01*
X82138034Y-111597287D01*
X82158237Y-111635084D01*
X82170677Y-111676096D01*
X82175000Y-111719983D01*
X82175000Y-112280017D01*
X82170677Y-112323904D01*
X82158237Y-112364916D01*
X82138034Y-112402713D01*
X82110844Y-112435844D01*
X82077713Y-112463034D01*
X82039916Y-112483237D01*
X81998904Y-112495677D01*
X81955017Y-112500000D01*
X81469983Y-112500000D01*
X81426096Y-112495677D01*
X81385084Y-112483237D01*
X81347287Y-112463034D01*
X81314156Y-112435844D01*
X81286966Y-112402713D01*
X81266763Y-112364916D01*
X81254323Y-112323904D01*
X81250000Y-112280017D01*
X81250000Y-111719983D01*
X81254323Y-111676096D01*
X81266763Y-111635084D01*
X81286966Y-111597287D01*
X81314156Y-111564156D01*
X81347287Y-111536966D01*
X81385084Y-111516763D01*
X81426096Y-111504323D01*
X81469983Y-111500000D01*
X81955017Y-111500000D01*
X81998904Y-111504323D01*
X81998904Y-111504323D01*
G37*
G36*
X97975000Y-112475000D02*
G01*
X96025000Y-112475000D01*
X96025000Y-112025000D01*
X97975000Y-112025000D01*
X97975000Y-112475000D01*
X97975000Y-112475000D01*
G37*
G36*
X157000000Y-112200000D02*
G01*
X155200000Y-112200000D01*
X155200000Y-111750000D01*
X157000000Y-111750000D01*
X157000000Y-112200000D01*
X157000000Y-112200000D01*
G37*
G36*
X149800000Y-112200000D02*
G01*
X148000000Y-112200000D01*
X148000000Y-111750000D01*
X149800000Y-111750000D01*
X149800000Y-112200000D01*
X149800000Y-112200000D01*
G37*
G36*
X146923904Y-111254323D02*
G01*
X146964916Y-111266763D01*
X147002713Y-111286966D01*
X147035844Y-111314156D01*
X147063034Y-111347287D01*
X147083237Y-111385084D01*
X147095677Y-111426096D01*
X147100000Y-111469983D01*
X147100000Y-111955017D01*
X147095677Y-111998904D01*
X147083237Y-112039916D01*
X147063034Y-112077713D01*
X147035844Y-112110844D01*
X147002713Y-112138034D01*
X146964916Y-112158237D01*
X146923904Y-112170677D01*
X146880017Y-112175000D01*
X146319983Y-112175000D01*
X146276096Y-112170677D01*
X146235084Y-112158237D01*
X146197287Y-112138034D01*
X146164156Y-112110844D01*
X146136966Y-112077713D01*
X146116763Y-112039916D01*
X146104323Y-111998904D01*
X146100000Y-111955017D01*
X146100000Y-111469983D01*
X146104323Y-111426096D01*
X146116763Y-111385084D01*
X146136966Y-111347287D01*
X146164156Y-111314156D01*
X146197287Y-111286966D01*
X146235084Y-111266763D01*
X146276096Y-111254323D01*
X146319983Y-111250000D01*
X146880017Y-111250000D01*
X146923904Y-111254323D01*
X146923904Y-111254323D01*
G37*
G36*
X159323904Y-111079323D02*
G01*
X159364916Y-111091763D01*
X159402713Y-111111966D01*
X159435844Y-111139156D01*
X159463034Y-111172287D01*
X159483237Y-111210084D01*
X159495677Y-111251096D01*
X159500000Y-111294983D01*
X159500000Y-111780017D01*
X159495677Y-111823904D01*
X159483237Y-111864916D01*
X159463034Y-111902713D01*
X159435844Y-111935844D01*
X159402713Y-111963034D01*
X159364916Y-111983237D01*
X159323904Y-111995677D01*
X159280017Y-112000000D01*
X158719983Y-112000000D01*
X158676096Y-111995677D01*
X158635084Y-111983237D01*
X158597287Y-111963034D01*
X158564156Y-111935844D01*
X158536966Y-111902713D01*
X158516763Y-111864916D01*
X158504323Y-111823904D01*
X158500000Y-111780017D01*
X158500000Y-111294983D01*
X158504323Y-111251096D01*
X158516763Y-111210084D01*
X158536966Y-111172287D01*
X158564156Y-111139156D01*
X158597287Y-111111966D01*
X158635084Y-111091763D01*
X158676096Y-111079323D01*
X158719983Y-111075000D01*
X159280017Y-111075000D01*
X159323904Y-111079323D01*
X159323904Y-111079323D01*
G37*
G36*
X110859240Y-109853002D02*
G01*
X110887358Y-109861531D01*
X110913267Y-109875380D01*
X110935980Y-109894020D01*
X110954620Y-109916733D01*
X110968469Y-109942642D01*
X110976998Y-109970760D01*
X110980000Y-110001233D01*
X110980000Y-111798767D01*
X110976998Y-111829240D01*
X110968469Y-111857358D01*
X110954620Y-111883267D01*
X110935980Y-111905980D01*
X110913267Y-111924620D01*
X110887358Y-111938469D01*
X110859240Y-111946998D01*
X110828767Y-111950000D01*
X110481233Y-111950000D01*
X110450760Y-111946998D01*
X110422642Y-111938469D01*
X110396733Y-111924620D01*
X110374020Y-111905980D01*
X110355380Y-111883267D01*
X110341531Y-111857358D01*
X110333002Y-111829240D01*
X110330000Y-111798767D01*
X110330000Y-110001233D01*
X110333002Y-109970760D01*
X110341531Y-109942642D01*
X110355380Y-109916733D01*
X110374020Y-109894020D01*
X110396733Y-109875380D01*
X110422642Y-109861531D01*
X110450760Y-109853002D01*
X110481233Y-109850000D01*
X110828767Y-109850000D01*
X110859240Y-109853002D01*
X110859240Y-109853002D01*
G37*
G36*
X113399240Y-109853002D02*
G01*
X113427358Y-109861531D01*
X113453267Y-109875380D01*
X113475980Y-109894020D01*
X113494620Y-109916733D01*
X113508469Y-109942642D01*
X113516998Y-109970760D01*
X113520000Y-110001233D01*
X113520000Y-111798767D01*
X113516998Y-111829240D01*
X113508469Y-111857358D01*
X113494620Y-111883267D01*
X113475980Y-111905980D01*
X113453267Y-111924620D01*
X113427358Y-111938469D01*
X113399240Y-111946998D01*
X113368767Y-111950000D01*
X113021233Y-111950000D01*
X112990760Y-111946998D01*
X112962642Y-111938469D01*
X112936733Y-111924620D01*
X112914020Y-111905980D01*
X112895380Y-111883267D01*
X112881531Y-111857358D01*
X112873002Y-111829240D01*
X112870000Y-111798767D01*
X112870000Y-110001233D01*
X112873002Y-109970760D01*
X112881531Y-109942642D01*
X112895380Y-109916733D01*
X112914020Y-109894020D01*
X112936733Y-109875380D01*
X112962642Y-109861531D01*
X112990760Y-109853002D01*
X113021233Y-109850000D01*
X113368767Y-109850000D01*
X113399240Y-109853002D01*
X113399240Y-109853002D01*
G37*
G36*
X112129240Y-109853002D02*
G01*
X112157358Y-109861531D01*
X112183267Y-109875380D01*
X112205980Y-109894020D01*
X112224620Y-109916733D01*
X112238469Y-109942642D01*
X112246998Y-109970760D01*
X112250000Y-110001233D01*
X112250000Y-111798767D01*
X112246998Y-111829240D01*
X112238469Y-111857358D01*
X112224620Y-111883267D01*
X112205980Y-111905980D01*
X112183267Y-111924620D01*
X112157358Y-111938469D01*
X112129240Y-111946998D01*
X112098767Y-111950000D01*
X111751233Y-111950000D01*
X111720760Y-111946998D01*
X111692642Y-111938469D01*
X111666733Y-111924620D01*
X111644020Y-111905980D01*
X111625380Y-111883267D01*
X111611531Y-111857358D01*
X111603002Y-111829240D01*
X111600000Y-111798767D01*
X111600000Y-110001233D01*
X111603002Y-109970760D01*
X111611531Y-109942642D01*
X111625380Y-109916733D01*
X111644020Y-109894020D01*
X111666733Y-109875380D01*
X111692642Y-109861531D01*
X111720760Y-109853002D01*
X111751233Y-109850000D01*
X112098767Y-109850000D01*
X112129240Y-109853002D01*
X112129240Y-109853002D01*
G37*
G36*
X104509240Y-109853002D02*
G01*
X104537358Y-109861531D01*
X104563267Y-109875380D01*
X104585980Y-109894020D01*
X104604620Y-109916733D01*
X104618469Y-109942642D01*
X104626998Y-109970760D01*
X104630000Y-110001233D01*
X104630000Y-111798767D01*
X104626998Y-111829240D01*
X104618469Y-111857358D01*
X104604620Y-111883267D01*
X104585980Y-111905980D01*
X104563267Y-111924620D01*
X104537358Y-111938469D01*
X104509240Y-111946998D01*
X104478767Y-111950000D01*
X104131233Y-111950000D01*
X104100760Y-111946998D01*
X104072642Y-111938469D01*
X104046733Y-111924620D01*
X104024020Y-111905980D01*
X104005380Y-111883267D01*
X103991531Y-111857358D01*
X103983002Y-111829240D01*
X103980000Y-111798767D01*
X103980000Y-110001233D01*
X103983002Y-109970760D01*
X103991531Y-109942642D01*
X104005380Y-109916733D01*
X104024020Y-109894020D01*
X104046733Y-109875380D01*
X104072642Y-109861531D01*
X104100760Y-109853002D01*
X104131233Y-109850000D01*
X104478767Y-109850000D01*
X104509240Y-109853002D01*
X104509240Y-109853002D01*
G37*
G36*
X105779240Y-109853002D02*
G01*
X105807358Y-109861531D01*
X105833267Y-109875380D01*
X105855980Y-109894020D01*
X105874620Y-109916733D01*
X105888469Y-109942642D01*
X105896998Y-109970760D01*
X105900000Y-110001233D01*
X105900000Y-111798767D01*
X105896998Y-111829240D01*
X105888469Y-111857358D01*
X105874620Y-111883267D01*
X105855980Y-111905980D01*
X105833267Y-111924620D01*
X105807358Y-111938469D01*
X105779240Y-111946998D01*
X105748767Y-111950000D01*
X105401233Y-111950000D01*
X105370760Y-111946998D01*
X105342642Y-111938469D01*
X105316733Y-111924620D01*
X105294020Y-111905980D01*
X105275380Y-111883267D01*
X105261531Y-111857358D01*
X105253002Y-111829240D01*
X105250000Y-111798767D01*
X105250000Y-110001233D01*
X105253002Y-109970760D01*
X105261531Y-109942642D01*
X105275380Y-109916733D01*
X105294020Y-109894020D01*
X105316733Y-109875380D01*
X105342642Y-109861531D01*
X105370760Y-109853002D01*
X105401233Y-109850000D01*
X105748767Y-109850000D01*
X105779240Y-109853002D01*
X105779240Y-109853002D01*
G37*
G36*
X107049240Y-109853002D02*
G01*
X107077358Y-109861531D01*
X107103267Y-109875380D01*
X107125980Y-109894020D01*
X107144620Y-109916733D01*
X107158469Y-109942642D01*
X107166998Y-109970760D01*
X107170000Y-110001233D01*
X107170000Y-111798767D01*
X107166998Y-111829240D01*
X107158469Y-111857358D01*
X107144620Y-111883267D01*
X107125980Y-111905980D01*
X107103267Y-111924620D01*
X107077358Y-111938469D01*
X107049240Y-111946998D01*
X107018767Y-111950000D01*
X106671233Y-111950000D01*
X106640760Y-111946998D01*
X106612642Y-111938469D01*
X106586733Y-111924620D01*
X106564020Y-111905980D01*
X106545380Y-111883267D01*
X106531531Y-111857358D01*
X106523002Y-111829240D01*
X106520000Y-111798767D01*
X106520000Y-110001233D01*
X106523002Y-109970760D01*
X106531531Y-109942642D01*
X106545380Y-109916733D01*
X106564020Y-109894020D01*
X106586733Y-109875380D01*
X106612642Y-109861531D01*
X106640760Y-109853002D01*
X106671233Y-109850000D01*
X107018767Y-109850000D01*
X107049240Y-109853002D01*
X107049240Y-109853002D01*
G37*
G36*
X108319240Y-109853002D02*
G01*
X108347358Y-109861531D01*
X108373267Y-109875380D01*
X108395980Y-109894020D01*
X108414620Y-109916733D01*
X108428469Y-109942642D01*
X108436998Y-109970760D01*
X108440000Y-110001233D01*
X108440000Y-111798767D01*
X108436998Y-111829240D01*
X108428469Y-111857358D01*
X108414620Y-111883267D01*
X108395980Y-111905980D01*
X108373267Y-111924620D01*
X108347358Y-111938469D01*
X108319240Y-111946998D01*
X108288767Y-111950000D01*
X107941233Y-111950000D01*
X107910760Y-111946998D01*
X107882642Y-111938469D01*
X107856733Y-111924620D01*
X107834020Y-111905980D01*
X107815380Y-111883267D01*
X107801531Y-111857358D01*
X107793002Y-111829240D01*
X107790000Y-111798767D01*
X107790000Y-110001233D01*
X107793002Y-109970760D01*
X107801531Y-109942642D01*
X107815380Y-109916733D01*
X107834020Y-109894020D01*
X107856733Y-109875380D01*
X107882642Y-109861531D01*
X107910760Y-109853002D01*
X107941233Y-109850000D01*
X108288767Y-109850000D01*
X108319240Y-109853002D01*
X108319240Y-109853002D01*
G37*
G36*
X109589240Y-109853002D02*
G01*
X109617358Y-109861531D01*
X109643267Y-109875380D01*
X109665980Y-109894020D01*
X109684620Y-109916733D01*
X109698469Y-109942642D01*
X109706998Y-109970760D01*
X109710000Y-110001233D01*
X109710000Y-111798767D01*
X109706998Y-111829240D01*
X109698469Y-111857358D01*
X109684620Y-111883267D01*
X109665980Y-111905980D01*
X109643267Y-111924620D01*
X109617358Y-111938469D01*
X109589240Y-111946998D01*
X109558767Y-111950000D01*
X109211233Y-111950000D01*
X109180760Y-111946998D01*
X109152642Y-111938469D01*
X109126733Y-111924620D01*
X109104020Y-111905980D01*
X109085380Y-111883267D01*
X109071531Y-111857358D01*
X109063002Y-111829240D01*
X109060000Y-111798767D01*
X109060000Y-110001233D01*
X109063002Y-109970760D01*
X109071531Y-109942642D01*
X109085380Y-109916733D01*
X109104020Y-109894020D01*
X109126733Y-109875380D01*
X109152642Y-109861531D01*
X109180760Y-109853002D01*
X109211233Y-109850000D01*
X109558767Y-109850000D01*
X109589240Y-109853002D01*
X109589240Y-109853002D01*
G37*
G36*
X94825000Y-111825000D02*
G01*
X93175000Y-111825000D01*
X93175000Y-111275000D01*
X94825000Y-111275000D01*
X94825000Y-111825000D01*
X94825000Y-111825000D01*
G37*
G36*
X86325000Y-111825000D02*
G01*
X84675000Y-111825000D01*
X84675000Y-111275000D01*
X86325000Y-111275000D01*
X86325000Y-111825000D01*
X86325000Y-111825000D01*
G37*
G36*
X149800000Y-111550000D02*
G01*
X148000000Y-111550000D01*
X148000000Y-111100000D01*
X149800000Y-111100000D01*
X149800000Y-111550000D01*
X149800000Y-111550000D01*
G37*
G36*
X157000000Y-111550000D02*
G01*
X155200000Y-111550000D01*
X155200000Y-111100000D01*
X157000000Y-111100000D01*
X157000000Y-111550000D01*
X157000000Y-111550000D01*
G37*
G36*
X61413322Y-109583187D02*
G01*
X61424196Y-109584258D01*
X61591702Y-109635070D01*
X61746069Y-109717582D01*
X61881375Y-109828625D01*
X61992418Y-109963931D01*
X62074930Y-110118298D01*
X62125742Y-110285804D01*
X62142899Y-110460000D01*
X62125742Y-110634196D01*
X62074930Y-110801702D01*
X61992418Y-110956069D01*
X61881375Y-111091375D01*
X61746069Y-111202418D01*
X61591702Y-111284930D01*
X61495356Y-111314156D01*
X61424196Y-111335742D01*
X61293648Y-111348600D01*
X61206352Y-111348600D01*
X61075804Y-111335742D01*
X61004644Y-111314156D01*
X60908298Y-111284930D01*
X60753931Y-111202418D01*
X60618625Y-111091375D01*
X60507582Y-110956069D01*
X60425070Y-110801702D01*
X60374258Y-110634196D01*
X60357101Y-110460000D01*
X60374258Y-110285804D01*
X60425070Y-110118298D01*
X60507582Y-109963931D01*
X60618625Y-109828625D01*
X60753931Y-109717582D01*
X60908298Y-109635070D01*
X61075804Y-109584258D01*
X61086678Y-109583187D01*
X61206352Y-109571400D01*
X61293648Y-109571400D01*
X61413322Y-109583187D01*
X61413322Y-109583187D01*
G37*
G36*
X56333322Y-109583187D02*
G01*
X56344196Y-109584258D01*
X56511702Y-109635070D01*
X56666069Y-109717582D01*
X56801375Y-109828625D01*
X56912418Y-109963931D01*
X56994930Y-110118298D01*
X57045742Y-110285804D01*
X57062899Y-110460000D01*
X57045742Y-110634196D01*
X56994930Y-110801702D01*
X56912418Y-110956069D01*
X56801375Y-111091375D01*
X56666069Y-111202418D01*
X56511702Y-111284930D01*
X56415356Y-111314156D01*
X56344196Y-111335742D01*
X56213648Y-111348600D01*
X56126352Y-111348600D01*
X55995804Y-111335742D01*
X55924644Y-111314156D01*
X55828298Y-111284930D01*
X55673931Y-111202418D01*
X55538625Y-111091375D01*
X55427582Y-110956069D01*
X55345070Y-110801702D01*
X55294258Y-110634196D01*
X55277101Y-110460000D01*
X55294258Y-110285804D01*
X55345070Y-110118298D01*
X55427582Y-109963931D01*
X55538625Y-109828625D01*
X55673931Y-109717582D01*
X55828298Y-109635070D01*
X55995804Y-109584258D01*
X56006678Y-109583187D01*
X56126352Y-109571400D01*
X56213648Y-109571400D01*
X56333322Y-109583187D01*
X56333322Y-109583187D01*
G37*
G36*
X58873322Y-109583187D02*
G01*
X58884196Y-109584258D01*
X59051702Y-109635070D01*
X59206069Y-109717582D01*
X59341375Y-109828625D01*
X59452418Y-109963931D01*
X59534930Y-110118298D01*
X59585742Y-110285804D01*
X59602899Y-110460000D01*
X59585742Y-110634196D01*
X59534930Y-110801702D01*
X59452418Y-110956069D01*
X59341375Y-111091375D01*
X59206069Y-111202418D01*
X59051702Y-111284930D01*
X58955356Y-111314156D01*
X58884196Y-111335742D01*
X58753648Y-111348600D01*
X58666352Y-111348600D01*
X58535804Y-111335742D01*
X58464644Y-111314156D01*
X58368298Y-111284930D01*
X58213931Y-111202418D01*
X58078625Y-111091375D01*
X57967582Y-110956069D01*
X57885070Y-110801702D01*
X57834258Y-110634196D01*
X57817101Y-110460000D01*
X57834258Y-110285804D01*
X57885070Y-110118298D01*
X57967582Y-109963931D01*
X58078625Y-109828625D01*
X58213931Y-109717582D01*
X58368298Y-109635070D01*
X58535804Y-109584258D01*
X58546678Y-109583187D01*
X58666352Y-109571400D01*
X58753648Y-109571400D01*
X58873322Y-109583187D01*
X58873322Y-109583187D01*
G37*
G36*
X97975000Y-111275000D02*
G01*
X96025000Y-111275000D01*
X96025000Y-110825000D01*
X97975000Y-110825000D01*
X97975000Y-111275000D01*
X97975000Y-111275000D01*
G37*
G36*
X94825000Y-111025000D02*
G01*
X93175000Y-111025000D01*
X93175000Y-110475000D01*
X94825000Y-110475000D01*
X94825000Y-111025000D01*
X94825000Y-111025000D01*
G37*
G36*
X86325000Y-111025000D02*
G01*
X84675000Y-111025000D01*
X84675000Y-110475000D01*
X86325000Y-110475000D01*
X86325000Y-111025000D01*
X86325000Y-111025000D01*
G37*
G36*
X83573904Y-110004323D02*
G01*
X83614916Y-110016763D01*
X83652713Y-110036966D01*
X83685844Y-110064156D01*
X83713034Y-110097287D01*
X83733237Y-110135084D01*
X83745677Y-110176096D01*
X83750000Y-110219983D01*
X83750000Y-110780017D01*
X83745677Y-110823904D01*
X83733237Y-110864916D01*
X83713034Y-110902713D01*
X83685844Y-110935844D01*
X83652713Y-110963034D01*
X83614916Y-110983237D01*
X83573904Y-110995677D01*
X83530017Y-111000000D01*
X83044983Y-111000000D01*
X83001096Y-110995677D01*
X82960084Y-110983237D01*
X82922287Y-110963034D01*
X82889156Y-110935844D01*
X82861966Y-110902713D01*
X82841763Y-110864916D01*
X82829323Y-110823904D01*
X82825000Y-110780017D01*
X82825000Y-110219983D01*
X82829323Y-110176096D01*
X82841763Y-110135084D01*
X82861966Y-110097287D01*
X82889156Y-110064156D01*
X82922287Y-110036966D01*
X82960084Y-110016763D01*
X83001096Y-110004323D01*
X83044983Y-110000000D01*
X83530017Y-110000000D01*
X83573904Y-110004323D01*
X83573904Y-110004323D01*
G37*
G36*
X81998904Y-110004323D02*
G01*
X82039916Y-110016763D01*
X82077713Y-110036966D01*
X82110844Y-110064156D01*
X82138034Y-110097287D01*
X82158237Y-110135084D01*
X82170677Y-110176096D01*
X82175000Y-110219983D01*
X82175000Y-110780017D01*
X82170677Y-110823904D01*
X82158237Y-110864916D01*
X82138034Y-110902713D01*
X82110844Y-110935844D01*
X82077713Y-110963034D01*
X82039916Y-110983237D01*
X81998904Y-110995677D01*
X81955017Y-111000000D01*
X81469983Y-111000000D01*
X81426096Y-110995677D01*
X81385084Y-110983237D01*
X81347287Y-110963034D01*
X81314156Y-110935844D01*
X81286966Y-110902713D01*
X81266763Y-110864916D01*
X81254323Y-110823904D01*
X81250000Y-110780017D01*
X81250000Y-110219983D01*
X81254323Y-110176096D01*
X81266763Y-110135084D01*
X81286966Y-110097287D01*
X81314156Y-110064156D01*
X81347287Y-110036966D01*
X81385084Y-110016763D01*
X81426096Y-110004323D01*
X81469983Y-110000000D01*
X81955017Y-110000000D01*
X81998904Y-110004323D01*
X81998904Y-110004323D01*
G37*
G36*
X118323904Y-110079323D02*
G01*
X118364916Y-110091763D01*
X118402713Y-110111966D01*
X118435844Y-110139156D01*
X118463034Y-110172287D01*
X118483237Y-110210084D01*
X118495677Y-110251096D01*
X118500000Y-110294983D01*
X118500000Y-110780017D01*
X118495677Y-110823904D01*
X118483237Y-110864916D01*
X118463034Y-110902713D01*
X118435844Y-110935844D01*
X118402713Y-110963034D01*
X118364916Y-110983237D01*
X118323904Y-110995677D01*
X118280017Y-111000000D01*
X117719983Y-111000000D01*
X117676096Y-110995677D01*
X117635084Y-110983237D01*
X117597287Y-110963034D01*
X117564156Y-110935844D01*
X117536966Y-110902713D01*
X117516763Y-110864916D01*
X117504323Y-110823904D01*
X117500000Y-110780017D01*
X117500000Y-110294983D01*
X117504323Y-110251096D01*
X117516763Y-110210084D01*
X117536966Y-110172287D01*
X117564156Y-110139156D01*
X117597287Y-110111966D01*
X117635084Y-110091763D01*
X117676096Y-110079323D01*
X117719983Y-110075000D01*
X118280017Y-110075000D01*
X118323904Y-110079323D01*
X118323904Y-110079323D01*
G37*
G36*
X157000000Y-110900000D02*
G01*
X155200000Y-110900000D01*
X155200000Y-110450000D01*
X157000000Y-110450000D01*
X157000000Y-110900000D01*
X157000000Y-110900000D01*
G37*
G36*
X149800000Y-110900000D02*
G01*
X148000000Y-110900000D01*
X148000000Y-110450000D01*
X149800000Y-110450000D01*
X149800000Y-110900000D01*
X149800000Y-110900000D01*
G37*
G36*
X196430000Y-110695000D02*
G01*
X192570000Y-110695000D01*
X192570000Y-106405000D01*
X196430000Y-106405000D01*
X196430000Y-110695000D01*
X196430000Y-110695000D01*
G37*
G36*
X76048982Y-108514390D02*
G01*
X76235520Y-108591656D01*
X76403400Y-108703830D01*
X76546170Y-108846600D01*
X76658344Y-109014480D01*
X76735610Y-109201018D01*
X76775000Y-109399046D01*
X76775000Y-109600954D01*
X76735610Y-109798982D01*
X76658344Y-109985520D01*
X76546170Y-110153400D01*
X76403400Y-110296170D01*
X76235520Y-110408344D01*
X76048982Y-110485610D01*
X75850954Y-110525000D01*
X75649046Y-110525000D01*
X75451018Y-110485610D01*
X75264480Y-110408344D01*
X75096600Y-110296170D01*
X74953830Y-110153400D01*
X74841656Y-109985520D01*
X74764390Y-109798982D01*
X74725000Y-109600954D01*
X74725000Y-109399046D01*
X74764390Y-109201018D01*
X74841656Y-109014480D01*
X74953830Y-108846600D01*
X75096600Y-108703830D01*
X75264480Y-108591656D01*
X75451018Y-108514390D01*
X75649046Y-108475000D01*
X75850954Y-108475000D01*
X76048982Y-108514390D01*
X76048982Y-108514390D01*
G37*
G36*
X69548982Y-108514390D02*
G01*
X69735520Y-108591656D01*
X69903400Y-108703830D01*
X70046170Y-108846600D01*
X70158344Y-109014480D01*
X70235610Y-109201018D01*
X70275000Y-109399046D01*
X70275000Y-109600954D01*
X70235610Y-109798982D01*
X70158344Y-109985520D01*
X70046170Y-110153400D01*
X69903400Y-110296170D01*
X69735520Y-110408344D01*
X69548982Y-110485610D01*
X69350954Y-110525000D01*
X69149046Y-110525000D01*
X68951018Y-110485610D01*
X68764480Y-110408344D01*
X68596600Y-110296170D01*
X68453830Y-110153400D01*
X68341656Y-109985520D01*
X68264390Y-109798982D01*
X68225000Y-109600954D01*
X68225000Y-109399046D01*
X68264390Y-109201018D01*
X68341656Y-109014480D01*
X68453830Y-108846600D01*
X68596600Y-108703830D01*
X68764480Y-108591656D01*
X68951018Y-108514390D01*
X69149046Y-108475000D01*
X69350954Y-108475000D01*
X69548982Y-108514390D01*
X69548982Y-108514390D01*
G37*
G36*
X100778779Y-109429803D02*
G01*
X100824487Y-109443668D01*
X100866604Y-109466180D01*
X100903522Y-109496478D01*
X100933820Y-109533396D01*
X100956332Y-109575513D01*
X100970197Y-109621221D01*
X100975000Y-109669982D01*
X100975000Y-110205018D01*
X100970197Y-110253779D01*
X100956332Y-110299487D01*
X100933820Y-110341604D01*
X100903522Y-110378522D01*
X100866604Y-110408820D01*
X100824487Y-110431332D01*
X100778779Y-110445197D01*
X100730018Y-110450000D01*
X99769982Y-110450000D01*
X99721221Y-110445197D01*
X99675513Y-110431332D01*
X99633396Y-110408820D01*
X99596478Y-110378522D01*
X99566180Y-110341604D01*
X99543668Y-110299487D01*
X99529803Y-110253779D01*
X99525000Y-110205018D01*
X99525000Y-109669982D01*
X99529803Y-109621221D01*
X99543668Y-109575513D01*
X99566180Y-109533396D01*
X99596478Y-109496478D01*
X99633396Y-109466180D01*
X99675513Y-109443668D01*
X99721221Y-109429803D01*
X99769982Y-109425000D01*
X100730018Y-109425000D01*
X100778779Y-109429803D01*
X100778779Y-109429803D01*
G37*
G36*
X159323904Y-109504323D02*
G01*
X159364916Y-109516763D01*
X159402713Y-109536966D01*
X159435844Y-109564156D01*
X159463034Y-109597287D01*
X159483237Y-109635084D01*
X159495677Y-109676096D01*
X159500000Y-109719983D01*
X159500000Y-110205017D01*
X159495677Y-110248904D01*
X159483237Y-110289916D01*
X159463034Y-110327713D01*
X159435844Y-110360844D01*
X159402713Y-110388034D01*
X159364916Y-110408237D01*
X159323904Y-110420677D01*
X159280017Y-110425000D01*
X158719983Y-110425000D01*
X158676096Y-110420677D01*
X158635084Y-110408237D01*
X158597287Y-110388034D01*
X158564156Y-110360844D01*
X158536966Y-110327713D01*
X158516763Y-110289916D01*
X158504323Y-110248904D01*
X158500000Y-110205017D01*
X158500000Y-109719983D01*
X158504323Y-109676096D01*
X158516763Y-109635084D01*
X158536966Y-109597287D01*
X158564156Y-109564156D01*
X158597287Y-109536966D01*
X158635084Y-109516763D01*
X158676096Y-109504323D01*
X158719983Y-109500000D01*
X159280017Y-109500000D01*
X159323904Y-109504323D01*
X159323904Y-109504323D01*
G37*
G36*
X157000000Y-110250000D02*
G01*
X155200000Y-110250000D01*
X155200000Y-109800000D01*
X157000000Y-109800000D01*
X157000000Y-110250000D01*
X157000000Y-110250000D01*
G37*
G36*
X149800000Y-110250000D02*
G01*
X148000000Y-110250000D01*
X148000000Y-109800000D01*
X149800000Y-109800000D01*
X149800000Y-110250000D01*
X149800000Y-110250000D01*
G37*
G36*
X94825000Y-110225000D02*
G01*
X93175000Y-110225000D01*
X93175000Y-109675000D01*
X94825000Y-109675000D01*
X94825000Y-110225000D01*
X94825000Y-110225000D01*
G37*
G36*
X86325000Y-110225000D02*
G01*
X84675000Y-110225000D01*
X84675000Y-109675000D01*
X86325000Y-109675000D01*
X86325000Y-110225000D01*
X86325000Y-110225000D01*
G37*
G36*
X96823904Y-109079323D02*
G01*
X96864916Y-109091763D01*
X96902713Y-109111966D01*
X96935844Y-109139156D01*
X96963034Y-109172287D01*
X96983237Y-109210084D01*
X96995677Y-109251096D01*
X97000000Y-109294983D01*
X97000000Y-109780017D01*
X96995677Y-109823904D01*
X96983237Y-109864916D01*
X96963034Y-109902713D01*
X96935844Y-109935844D01*
X96902713Y-109963034D01*
X96864916Y-109983237D01*
X96823904Y-109995677D01*
X96780017Y-110000000D01*
X96219983Y-110000000D01*
X96176096Y-109995677D01*
X96135084Y-109983237D01*
X96097287Y-109963034D01*
X96064156Y-109935844D01*
X96036966Y-109902713D01*
X96016763Y-109864916D01*
X96004323Y-109823904D01*
X96000000Y-109780017D01*
X96000000Y-109294983D01*
X96004323Y-109251096D01*
X96016763Y-109210084D01*
X96036966Y-109172287D01*
X96064156Y-109139156D01*
X96097287Y-109111966D01*
X96135084Y-109091763D01*
X96176096Y-109079323D01*
X96219983Y-109075000D01*
X96780017Y-109075000D01*
X96823904Y-109079323D01*
X96823904Y-109079323D01*
G37*
G36*
X98323904Y-109079323D02*
G01*
X98364916Y-109091763D01*
X98402713Y-109111966D01*
X98435844Y-109139156D01*
X98463034Y-109172287D01*
X98483237Y-109210084D01*
X98495677Y-109251096D01*
X98500000Y-109294983D01*
X98500000Y-109780017D01*
X98495677Y-109823904D01*
X98483237Y-109864916D01*
X98463034Y-109902713D01*
X98435844Y-109935844D01*
X98402713Y-109963034D01*
X98364916Y-109983237D01*
X98323904Y-109995677D01*
X98280017Y-110000000D01*
X97719983Y-110000000D01*
X97676096Y-109995677D01*
X97635084Y-109983237D01*
X97597287Y-109963034D01*
X97564156Y-109935844D01*
X97536966Y-109902713D01*
X97516763Y-109864916D01*
X97504323Y-109823904D01*
X97500000Y-109780017D01*
X97500000Y-109294983D01*
X97504323Y-109251096D01*
X97516763Y-109210084D01*
X97536966Y-109172287D01*
X97564156Y-109139156D01*
X97597287Y-109111966D01*
X97635084Y-109091763D01*
X97676096Y-109079323D01*
X97719983Y-109075000D01*
X98280017Y-109075000D01*
X98323904Y-109079323D01*
X98323904Y-109079323D01*
G37*
G36*
X167605913Y-106475000D02*
G01*
X167747749Y-106503213D01*
X168070777Y-106637015D01*
X168144290Y-106686135D01*
X168335451Y-106813865D01*
X168361497Y-106831269D01*
X168608731Y-107078503D01*
X168802985Y-107369223D01*
X168936787Y-107692251D01*
X168936787Y-107692252D01*
X169005000Y-108035178D01*
X169005000Y-108384822D01*
X168968150Y-108570076D01*
X168936787Y-108727749D01*
X168802985Y-109050777D01*
X168721794Y-109172287D01*
X168608732Y-109341496D01*
X168361496Y-109588732D01*
X168239897Y-109669982D01*
X168070777Y-109782985D01*
X167747749Y-109916787D01*
X167669921Y-109932268D01*
X167404822Y-109985000D01*
X167055178Y-109985000D01*
X166790079Y-109932268D01*
X166712251Y-109916787D01*
X166389223Y-109782985D01*
X166220103Y-109669982D01*
X166098504Y-109588732D01*
X165851268Y-109341496D01*
X165738206Y-109172287D01*
X165657015Y-109050777D01*
X165523213Y-108727749D01*
X165491850Y-108570076D01*
X165455000Y-108384822D01*
X165455000Y-108035178D01*
X165523213Y-107692252D01*
X165523213Y-107692251D01*
X165657015Y-107369223D01*
X165851269Y-107078503D01*
X166098503Y-106831269D01*
X166124550Y-106813865D01*
X166315710Y-106686135D01*
X166389223Y-106637015D01*
X166712251Y-106503213D01*
X166854087Y-106475000D01*
X167055178Y-106435000D01*
X167404822Y-106435000D01*
X167605913Y-106475000D01*
X167605913Y-106475000D01*
G37*
G36*
X179645913Y-106475000D02*
G01*
X179787749Y-106503213D01*
X180110777Y-106637015D01*
X180184290Y-106686135D01*
X180375451Y-106813865D01*
X180401497Y-106831269D01*
X180648731Y-107078503D01*
X180842985Y-107369223D01*
X180976787Y-107692251D01*
X180976787Y-107692252D01*
X181045000Y-108035178D01*
X181045000Y-108384822D01*
X181008150Y-108570076D01*
X180976787Y-108727749D01*
X180842985Y-109050777D01*
X180761794Y-109172287D01*
X180648732Y-109341496D01*
X180401496Y-109588732D01*
X180279897Y-109669982D01*
X180110777Y-109782985D01*
X179787749Y-109916787D01*
X179709921Y-109932268D01*
X179444822Y-109985000D01*
X179095178Y-109985000D01*
X178830079Y-109932268D01*
X178752251Y-109916787D01*
X178429223Y-109782985D01*
X178260103Y-109669982D01*
X178138504Y-109588732D01*
X177891268Y-109341496D01*
X177778206Y-109172287D01*
X177697015Y-109050777D01*
X177563213Y-108727749D01*
X177531850Y-108570076D01*
X177495000Y-108384822D01*
X177495000Y-108035178D01*
X177563213Y-107692252D01*
X177563213Y-107692251D01*
X177697015Y-107369223D01*
X177891269Y-107078503D01*
X178138503Y-106831269D01*
X178164550Y-106813865D01*
X178355710Y-106686135D01*
X178429223Y-106637015D01*
X178752251Y-106503213D01*
X178894087Y-106475000D01*
X179095178Y-106435000D01*
X179444822Y-106435000D01*
X179645913Y-106475000D01*
X179645913Y-106475000D01*
G37*
G36*
X157000000Y-109600000D02*
G01*
X155200000Y-109600000D01*
X155200000Y-109150000D01*
X157000000Y-109150000D01*
X157000000Y-109600000D01*
X157000000Y-109600000D01*
G37*
G36*
X149800000Y-109600000D02*
G01*
X148000000Y-109600000D01*
X148000000Y-109150000D01*
X149800000Y-109150000D01*
X149800000Y-109600000D01*
X149800000Y-109600000D01*
G37*
G36*
X81998904Y-108504323D02*
G01*
X82039916Y-108516763D01*
X82077713Y-108536966D01*
X82110844Y-108564156D01*
X82138034Y-108597287D01*
X82158237Y-108635084D01*
X82170677Y-108676096D01*
X82175000Y-108719983D01*
X82175000Y-109280017D01*
X82170677Y-109323904D01*
X82158237Y-109364916D01*
X82138034Y-109402713D01*
X82110844Y-109435844D01*
X82077713Y-109463034D01*
X82039916Y-109483237D01*
X81998904Y-109495677D01*
X81955017Y-109500000D01*
X81469983Y-109500000D01*
X81426096Y-109495677D01*
X81385084Y-109483237D01*
X81347287Y-109463034D01*
X81314156Y-109435844D01*
X81286966Y-109402713D01*
X81266763Y-109364916D01*
X81254323Y-109323904D01*
X81250000Y-109280017D01*
X81250000Y-108719983D01*
X81254323Y-108676096D01*
X81266763Y-108635084D01*
X81286966Y-108597287D01*
X81314156Y-108564156D01*
X81347287Y-108536966D01*
X81385084Y-108516763D01*
X81426096Y-108504323D01*
X81469983Y-108500000D01*
X81955017Y-108500000D01*
X81998904Y-108504323D01*
X81998904Y-108504323D01*
G37*
G36*
X189248904Y-108504323D02*
G01*
X189289916Y-108516763D01*
X189327713Y-108536966D01*
X189360844Y-108564156D01*
X189388034Y-108597287D01*
X189408237Y-108635084D01*
X189420677Y-108676096D01*
X189425000Y-108719983D01*
X189425000Y-109280017D01*
X189420677Y-109323904D01*
X189408237Y-109364916D01*
X189388034Y-109402713D01*
X189360844Y-109435844D01*
X189327713Y-109463034D01*
X189289916Y-109483237D01*
X189248904Y-109495677D01*
X189205017Y-109500000D01*
X188719983Y-109500000D01*
X188676096Y-109495677D01*
X188635084Y-109483237D01*
X188597287Y-109463034D01*
X188564156Y-109435844D01*
X188536966Y-109402713D01*
X188516763Y-109364916D01*
X188504323Y-109323904D01*
X188500000Y-109280017D01*
X188500000Y-108719983D01*
X188504323Y-108676096D01*
X188516763Y-108635084D01*
X188536966Y-108597287D01*
X188564156Y-108564156D01*
X188597287Y-108536966D01*
X188635084Y-108516763D01*
X188676096Y-108504323D01*
X188719983Y-108500000D01*
X189205017Y-108500000D01*
X189248904Y-108504323D01*
X189248904Y-108504323D01*
G37*
G36*
X83573904Y-108504323D02*
G01*
X83614916Y-108516763D01*
X83652713Y-108536966D01*
X83685844Y-108564156D01*
X83713034Y-108597287D01*
X83733237Y-108635084D01*
X83745677Y-108676096D01*
X83750000Y-108719983D01*
X83750000Y-109280017D01*
X83745677Y-109323904D01*
X83733237Y-109364916D01*
X83713034Y-109402713D01*
X83685844Y-109435844D01*
X83652713Y-109463034D01*
X83614916Y-109483237D01*
X83573904Y-109495677D01*
X83530017Y-109500000D01*
X83044983Y-109500000D01*
X83001096Y-109495677D01*
X82960084Y-109483237D01*
X82922287Y-109463034D01*
X82889156Y-109435844D01*
X82861966Y-109402713D01*
X82841763Y-109364916D01*
X82829323Y-109323904D01*
X82825000Y-109280017D01*
X82825000Y-108719983D01*
X82829323Y-108676096D01*
X82841763Y-108635084D01*
X82861966Y-108597287D01*
X82889156Y-108564156D01*
X82922287Y-108536966D01*
X82960084Y-108516763D01*
X83001096Y-108504323D01*
X83044983Y-108500000D01*
X83530017Y-108500000D01*
X83573904Y-108504323D01*
X83573904Y-108504323D01*
G37*
G36*
X190823904Y-108504323D02*
G01*
X190864916Y-108516763D01*
X190902713Y-108536966D01*
X190935844Y-108564156D01*
X190963034Y-108597287D01*
X190983237Y-108635084D01*
X190995677Y-108676096D01*
X191000000Y-108719983D01*
X191000000Y-109280017D01*
X190995677Y-109323904D01*
X190983237Y-109364916D01*
X190963034Y-109402713D01*
X190935844Y-109435844D01*
X190902713Y-109463034D01*
X190864916Y-109483237D01*
X190823904Y-109495677D01*
X190780017Y-109500000D01*
X190294983Y-109500000D01*
X190251096Y-109495677D01*
X190210084Y-109483237D01*
X190172287Y-109463034D01*
X190139156Y-109435844D01*
X190111966Y-109402713D01*
X190091763Y-109364916D01*
X190079323Y-109323904D01*
X190075000Y-109280017D01*
X190075000Y-108719983D01*
X190079323Y-108676096D01*
X190091763Y-108635084D01*
X190111966Y-108597287D01*
X190139156Y-108564156D01*
X190172287Y-108536966D01*
X190210084Y-108516763D01*
X190251096Y-108504323D01*
X190294983Y-108500000D01*
X190780017Y-108500000D01*
X190823904Y-108504323D01*
X190823904Y-108504323D01*
G37*
G36*
X187275984Y-108304870D02*
G01*
X187322343Y-108318932D01*
X187365061Y-108341766D01*
X187402505Y-108372495D01*
X187433234Y-108409939D01*
X187456068Y-108452657D01*
X187470130Y-108499016D01*
X187475000Y-108548454D01*
X187475000Y-109226546D01*
X187470130Y-109275984D01*
X187456068Y-109322343D01*
X187433234Y-109365061D01*
X187402505Y-109402505D01*
X187365061Y-109433234D01*
X187322343Y-109456068D01*
X187275984Y-109470130D01*
X187226546Y-109475000D01*
X184273454Y-109475000D01*
X184224016Y-109470130D01*
X184177657Y-109456068D01*
X184134939Y-109433234D01*
X184097495Y-109402505D01*
X184066766Y-109365061D01*
X184043932Y-109322343D01*
X184029870Y-109275984D01*
X184025000Y-109226546D01*
X184025000Y-108548454D01*
X184029870Y-108499016D01*
X184043932Y-108452657D01*
X184066766Y-108409939D01*
X184097495Y-108372495D01*
X184134939Y-108341766D01*
X184177657Y-108318932D01*
X184224016Y-108304870D01*
X184273454Y-108300000D01*
X187226546Y-108300000D01*
X187275984Y-108304870D01*
X187275984Y-108304870D01*
G37*
G36*
X118323904Y-108504323D02*
G01*
X118364916Y-108516763D01*
X118402713Y-108536966D01*
X118435844Y-108564156D01*
X118463034Y-108597287D01*
X118483237Y-108635084D01*
X118495677Y-108676096D01*
X118500000Y-108719983D01*
X118500000Y-109205017D01*
X118495677Y-109248904D01*
X118483237Y-109289916D01*
X118463034Y-109327713D01*
X118435844Y-109360844D01*
X118402713Y-109388034D01*
X118364916Y-109408237D01*
X118323904Y-109420677D01*
X118280017Y-109425000D01*
X117719983Y-109425000D01*
X117676096Y-109420677D01*
X117635084Y-109408237D01*
X117597287Y-109388034D01*
X117564156Y-109360844D01*
X117536966Y-109327713D01*
X117516763Y-109289916D01*
X117504323Y-109248904D01*
X117500000Y-109205017D01*
X117500000Y-108719983D01*
X117504323Y-108676096D01*
X117516763Y-108635084D01*
X117536966Y-108597287D01*
X117564156Y-108564156D01*
X117597287Y-108536966D01*
X117635084Y-108516763D01*
X117676096Y-108504323D01*
X117719983Y-108500000D01*
X118280017Y-108500000D01*
X118323904Y-108504323D01*
X118323904Y-108504323D01*
G37*
G36*
X86325000Y-109425000D02*
G01*
X84675000Y-109425000D01*
X84675000Y-108875000D01*
X86325000Y-108875000D01*
X86325000Y-109425000D01*
X86325000Y-109425000D01*
G37*
G36*
X94825000Y-109425000D02*
G01*
X93175000Y-109425000D01*
X93175000Y-108875000D01*
X94825000Y-108875000D01*
X94825000Y-109425000D01*
X94825000Y-109425000D01*
G37*
G36*
X226585822Y-105229635D02*
G01*
X226629886Y-105243001D01*
X226670495Y-105264707D01*
X226706085Y-105293915D01*
X226735293Y-105329505D01*
X226756999Y-105370114D01*
X226770365Y-105414178D01*
X226775000Y-105461232D01*
X226775000Y-109038768D01*
X226770365Y-109085822D01*
X226756999Y-109129886D01*
X226735293Y-109170495D01*
X226706085Y-109206085D01*
X226670495Y-109235293D01*
X226629886Y-109256999D01*
X226585822Y-109270365D01*
X226538768Y-109275000D01*
X224461232Y-109275000D01*
X224414178Y-109270365D01*
X224370114Y-109256999D01*
X224329505Y-109235293D01*
X224293915Y-109206085D01*
X224264707Y-109170495D01*
X224243001Y-109129886D01*
X224229635Y-109085822D01*
X224225000Y-109038768D01*
X224225000Y-105461232D01*
X224229635Y-105414178D01*
X224243001Y-105370114D01*
X224264707Y-105329505D01*
X224293915Y-105293915D01*
X224329505Y-105264707D01*
X224370114Y-105243001D01*
X224414178Y-105229635D01*
X224461232Y-105225000D01*
X226538768Y-105225000D01*
X226585822Y-105229635D01*
X226585822Y-105229635D01*
G37*
G36*
X237835822Y-105229635D02*
G01*
X237879886Y-105243001D01*
X237920495Y-105264707D01*
X237956085Y-105293915D01*
X237985293Y-105329505D01*
X238006999Y-105370114D01*
X238020365Y-105414178D01*
X238025000Y-105461232D01*
X238025000Y-109038768D01*
X238020365Y-109085822D01*
X238006999Y-109129886D01*
X237985293Y-109170495D01*
X237956085Y-109206085D01*
X237920495Y-109235293D01*
X237879886Y-109256999D01*
X237835822Y-109270365D01*
X237788768Y-109275000D01*
X235711232Y-109275000D01*
X235664178Y-109270365D01*
X235620114Y-109256999D01*
X235579505Y-109235293D01*
X235543915Y-109206085D01*
X235514707Y-109170495D01*
X235493001Y-109129886D01*
X235479635Y-109085822D01*
X235475000Y-109038768D01*
X235475000Y-105461232D01*
X235479635Y-105414178D01*
X235493001Y-105370114D01*
X235514707Y-105329505D01*
X235543915Y-105293915D01*
X235579505Y-105264707D01*
X235620114Y-105243001D01*
X235664178Y-105229635D01*
X235711232Y-105225000D01*
X237788768Y-105225000D01*
X237835822Y-105229635D01*
X237835822Y-105229635D01*
G37*
G36*
X253595000Y-109180000D02*
G01*
X249305000Y-109180000D01*
X249305000Y-105320000D01*
X253595000Y-105320000D01*
X253595000Y-109180000D01*
X253595000Y-109180000D01*
G37*
G36*
X247195000Y-109180000D02*
G01*
X242905000Y-109180000D01*
X242905000Y-105320000D01*
X247195000Y-105320000D01*
X247195000Y-109180000D01*
X247195000Y-109180000D01*
G37*
G36*
X160823904Y-108004323D02*
G01*
X160864916Y-108016763D01*
X160902713Y-108036966D01*
X160935844Y-108064156D01*
X160963034Y-108097287D01*
X160983237Y-108135084D01*
X160995677Y-108176096D01*
X161000000Y-108219983D01*
X161000000Y-108780017D01*
X160995677Y-108823904D01*
X160983237Y-108864916D01*
X160963034Y-108902713D01*
X160935844Y-108935844D01*
X160902713Y-108963034D01*
X160864916Y-108983237D01*
X160823904Y-108995677D01*
X160780017Y-109000000D01*
X160294983Y-109000000D01*
X160251096Y-108995677D01*
X160210084Y-108983237D01*
X160172287Y-108963034D01*
X160139156Y-108935844D01*
X160111966Y-108902713D01*
X160091763Y-108864916D01*
X160079323Y-108823904D01*
X160075000Y-108780017D01*
X160075000Y-108219983D01*
X160079323Y-108176096D01*
X160091763Y-108135084D01*
X160111966Y-108097287D01*
X160139156Y-108064156D01*
X160172287Y-108036966D01*
X160210084Y-108016763D01*
X160251096Y-108004323D01*
X160294983Y-108000000D01*
X160780017Y-108000000D01*
X160823904Y-108004323D01*
X160823904Y-108004323D01*
G37*
G36*
X159248904Y-108004323D02*
G01*
X159289916Y-108016763D01*
X159327713Y-108036966D01*
X159360844Y-108064156D01*
X159388034Y-108097287D01*
X159408237Y-108135084D01*
X159420677Y-108176096D01*
X159425000Y-108219983D01*
X159425000Y-108780017D01*
X159420677Y-108823904D01*
X159408237Y-108864916D01*
X159388034Y-108902713D01*
X159360844Y-108935844D01*
X159327713Y-108963034D01*
X159289916Y-108983237D01*
X159248904Y-108995677D01*
X159205017Y-109000000D01*
X158719983Y-109000000D01*
X158676096Y-108995677D01*
X158635084Y-108983237D01*
X158597287Y-108963034D01*
X158564156Y-108935844D01*
X158536966Y-108902713D01*
X158516763Y-108864916D01*
X158504323Y-108823904D01*
X158500000Y-108780017D01*
X158500000Y-108219983D01*
X158504323Y-108176096D01*
X158516763Y-108135084D01*
X158536966Y-108097287D01*
X158564156Y-108064156D01*
X158597287Y-108036966D01*
X158635084Y-108016763D01*
X158676096Y-108004323D01*
X158719983Y-108000000D01*
X159205017Y-108000000D01*
X159248904Y-108004323D01*
X159248904Y-108004323D01*
G37*
G36*
X157000000Y-108950000D02*
G01*
X155200000Y-108950000D01*
X155200000Y-108500000D01*
X157000000Y-108500000D01*
X157000000Y-108950000D01*
X157000000Y-108950000D01*
G37*
G36*
X149800000Y-108950000D02*
G01*
X148000000Y-108950000D01*
X148000000Y-108500000D01*
X149800000Y-108500000D01*
X149800000Y-108950000D01*
X149800000Y-108950000D01*
G37*
G36*
X207600000Y-108705000D02*
G01*
X205800000Y-108705000D01*
X205800000Y-108105000D01*
X207600000Y-108105000D01*
X207600000Y-108705000D01*
X207600000Y-108705000D01*
G37*
G36*
X200200000Y-108705000D02*
G01*
X198400000Y-108705000D01*
X198400000Y-108105000D01*
X200200000Y-108105000D01*
X200200000Y-108705000D01*
X200200000Y-108705000D01*
G37*
G36*
X94825000Y-108625000D02*
G01*
X93175000Y-108625000D01*
X93175000Y-108075000D01*
X94825000Y-108075000D01*
X94825000Y-108625000D01*
X94825000Y-108625000D01*
G37*
G36*
X86325000Y-108625000D02*
G01*
X84675000Y-108625000D01*
X84675000Y-108075000D01*
X86325000Y-108075000D01*
X86325000Y-108625000D01*
X86325000Y-108625000D01*
G37*
G36*
X100778779Y-107554803D02*
G01*
X100824487Y-107568668D01*
X100866604Y-107591180D01*
X100903522Y-107621478D01*
X100933820Y-107658396D01*
X100956332Y-107700513D01*
X100970197Y-107746221D01*
X100975000Y-107794982D01*
X100975000Y-108330018D01*
X100970197Y-108378779D01*
X100956332Y-108424487D01*
X100933820Y-108466604D01*
X100903522Y-108503522D01*
X100866604Y-108533820D01*
X100824487Y-108556332D01*
X100778779Y-108570197D01*
X100730018Y-108575000D01*
X99769982Y-108575000D01*
X99721221Y-108570197D01*
X99675513Y-108556332D01*
X99633396Y-108533820D01*
X99596478Y-108503522D01*
X99566180Y-108466604D01*
X99543668Y-108424487D01*
X99529803Y-108378779D01*
X99525000Y-108330018D01*
X99525000Y-107794982D01*
X99529803Y-107746221D01*
X99543668Y-107700513D01*
X99566180Y-107658396D01*
X99596478Y-107621478D01*
X99633396Y-107591180D01*
X99675513Y-107568668D01*
X99721221Y-107554803D01*
X99769982Y-107550000D01*
X100730018Y-107550000D01*
X100778779Y-107554803D01*
X100778779Y-107554803D01*
G37*
G36*
X96823904Y-107504323D02*
G01*
X96864916Y-107516763D01*
X96902713Y-107536966D01*
X96935844Y-107564156D01*
X96963034Y-107597287D01*
X96983237Y-107635084D01*
X96995677Y-107676096D01*
X97000000Y-107719983D01*
X97000000Y-108205017D01*
X96995677Y-108248904D01*
X96983237Y-108289916D01*
X96963034Y-108327713D01*
X96935844Y-108360844D01*
X96902713Y-108388034D01*
X96864916Y-108408237D01*
X96823904Y-108420677D01*
X96780017Y-108425000D01*
X96219983Y-108425000D01*
X96176096Y-108420677D01*
X96135084Y-108408237D01*
X96097287Y-108388034D01*
X96064156Y-108360844D01*
X96036966Y-108327713D01*
X96016763Y-108289916D01*
X96004323Y-108248904D01*
X96000000Y-108205017D01*
X96000000Y-107719983D01*
X96004323Y-107676096D01*
X96016763Y-107635084D01*
X96036966Y-107597287D01*
X96064156Y-107564156D01*
X96097287Y-107536966D01*
X96135084Y-107516763D01*
X96176096Y-107504323D01*
X96219983Y-107500000D01*
X96780017Y-107500000D01*
X96823904Y-107504323D01*
X96823904Y-107504323D01*
G37*
G36*
X98323904Y-107504323D02*
G01*
X98364916Y-107516763D01*
X98402713Y-107536966D01*
X98435844Y-107564156D01*
X98463034Y-107597287D01*
X98483237Y-107635084D01*
X98495677Y-107676096D01*
X98500000Y-107719983D01*
X98500000Y-108205017D01*
X98495677Y-108248904D01*
X98483237Y-108289916D01*
X98463034Y-108327713D01*
X98435844Y-108360844D01*
X98402713Y-108388034D01*
X98364916Y-108408237D01*
X98323904Y-108420677D01*
X98280017Y-108425000D01*
X97719983Y-108425000D01*
X97676096Y-108420677D01*
X97635084Y-108408237D01*
X97597287Y-108388034D01*
X97564156Y-108360844D01*
X97536966Y-108327713D01*
X97516763Y-108289916D01*
X97504323Y-108248904D01*
X97500000Y-108205017D01*
X97500000Y-107719983D01*
X97504323Y-107676096D01*
X97516763Y-107635084D01*
X97536966Y-107597287D01*
X97564156Y-107564156D01*
X97597287Y-107536966D01*
X97635084Y-107516763D01*
X97676096Y-107504323D01*
X97719983Y-107500000D01*
X98280017Y-107500000D01*
X98323904Y-107504323D01*
X98323904Y-107504323D01*
G37*
G36*
X157000000Y-108300000D02*
G01*
X155200000Y-108300000D01*
X155200000Y-107850000D01*
X157000000Y-107850000D01*
X157000000Y-108300000D01*
X157000000Y-108300000D01*
G37*
G36*
X149800000Y-108300000D02*
G01*
X148000000Y-108300000D01*
X148000000Y-107850000D01*
X149800000Y-107850000D01*
X149800000Y-108300000D01*
X149800000Y-108300000D01*
G37*
G36*
X86325000Y-107825000D02*
G01*
X84675000Y-107825000D01*
X84675000Y-107275000D01*
X86325000Y-107275000D01*
X86325000Y-107825000D01*
X86325000Y-107825000D01*
G37*
G36*
X94825000Y-107825000D02*
G01*
X93175000Y-107825000D01*
X93175000Y-107275000D01*
X94825000Y-107275000D01*
X94825000Y-107825000D01*
X94825000Y-107825000D01*
G37*
G36*
X157000000Y-107650000D02*
G01*
X155200000Y-107650000D01*
X155200000Y-107200000D01*
X157000000Y-107200000D01*
X157000000Y-107650000D01*
X157000000Y-107650000D01*
G37*
G36*
X149800000Y-107650000D02*
G01*
X148000000Y-107650000D01*
X148000000Y-107200000D01*
X149800000Y-107200000D01*
X149800000Y-107650000D01*
X149800000Y-107650000D01*
G37*
G36*
X71748904Y-106504323D02*
G01*
X71789916Y-106516763D01*
X71827713Y-106536966D01*
X71860844Y-106564156D01*
X71888034Y-106597287D01*
X71908237Y-106635084D01*
X71920677Y-106676096D01*
X71925000Y-106719983D01*
X71925000Y-107280017D01*
X71920677Y-107323904D01*
X71908237Y-107364916D01*
X71888034Y-107402713D01*
X71860844Y-107435844D01*
X71827713Y-107463034D01*
X71789916Y-107483237D01*
X71748904Y-107495677D01*
X71705017Y-107500000D01*
X71219983Y-107500000D01*
X71176096Y-107495677D01*
X71135084Y-107483237D01*
X71097287Y-107463034D01*
X71064156Y-107435844D01*
X71036966Y-107402713D01*
X71016763Y-107364916D01*
X71004323Y-107323904D01*
X71000000Y-107280017D01*
X71000000Y-106719983D01*
X71004323Y-106676096D01*
X71016763Y-106635084D01*
X71036966Y-106597287D01*
X71064156Y-106564156D01*
X71097287Y-106536966D01*
X71135084Y-106516763D01*
X71176096Y-106504323D01*
X71219983Y-106500000D01*
X71705017Y-106500000D01*
X71748904Y-106504323D01*
X71748904Y-106504323D01*
G37*
G36*
X76823904Y-106504323D02*
G01*
X76864916Y-106516763D01*
X76902713Y-106536966D01*
X76935844Y-106564156D01*
X76963034Y-106597287D01*
X76983237Y-106635084D01*
X76995677Y-106676096D01*
X77000000Y-106719983D01*
X77000000Y-107280017D01*
X76995677Y-107323904D01*
X76983237Y-107364916D01*
X76963034Y-107402713D01*
X76935844Y-107435844D01*
X76902713Y-107463034D01*
X76864916Y-107483237D01*
X76823904Y-107495677D01*
X76780017Y-107500000D01*
X76294983Y-107500000D01*
X76251096Y-107495677D01*
X76210084Y-107483237D01*
X76172287Y-107463034D01*
X76139156Y-107435844D01*
X76111966Y-107402713D01*
X76091763Y-107364916D01*
X76079323Y-107323904D01*
X76075000Y-107280017D01*
X76075000Y-106719983D01*
X76079323Y-106676096D01*
X76091763Y-106635084D01*
X76111966Y-106597287D01*
X76139156Y-106564156D01*
X76172287Y-106536966D01*
X76210084Y-106516763D01*
X76251096Y-106504323D01*
X76294983Y-106500000D01*
X76780017Y-106500000D01*
X76823904Y-106504323D01*
X76823904Y-106504323D01*
G37*
G36*
X75248904Y-106504323D02*
G01*
X75289916Y-106516763D01*
X75327713Y-106536966D01*
X75360844Y-106564156D01*
X75388034Y-106597287D01*
X75408237Y-106635084D01*
X75420677Y-106676096D01*
X75425000Y-106719983D01*
X75425000Y-107280017D01*
X75420677Y-107323904D01*
X75408237Y-107364916D01*
X75388034Y-107402713D01*
X75360844Y-107435844D01*
X75327713Y-107463034D01*
X75289916Y-107483237D01*
X75248904Y-107495677D01*
X75205017Y-107500000D01*
X74719983Y-107500000D01*
X74676096Y-107495677D01*
X74635084Y-107483237D01*
X74597287Y-107463034D01*
X74564156Y-107435844D01*
X74536966Y-107402713D01*
X74516763Y-107364916D01*
X74504323Y-107323904D01*
X74500000Y-107280017D01*
X74500000Y-106719983D01*
X74504323Y-106676096D01*
X74516763Y-106635084D01*
X74536966Y-106597287D01*
X74564156Y-106564156D01*
X74597287Y-106536966D01*
X74635084Y-106516763D01*
X74676096Y-106504323D01*
X74719983Y-106500000D01*
X75205017Y-106500000D01*
X75248904Y-106504323D01*
X75248904Y-106504323D01*
G37*
G36*
X73323904Y-106504323D02*
G01*
X73364916Y-106516763D01*
X73402713Y-106536966D01*
X73435844Y-106564156D01*
X73463034Y-106597287D01*
X73483237Y-106635084D01*
X73495677Y-106676096D01*
X73500000Y-106719983D01*
X73500000Y-107280017D01*
X73495677Y-107323904D01*
X73483237Y-107364916D01*
X73463034Y-107402713D01*
X73435844Y-107435844D01*
X73402713Y-107463034D01*
X73364916Y-107483237D01*
X73323904Y-107495677D01*
X73280017Y-107500000D01*
X72794983Y-107500000D01*
X72751096Y-107495677D01*
X72710084Y-107483237D01*
X72672287Y-107463034D01*
X72639156Y-107435844D01*
X72611966Y-107402713D01*
X72591763Y-107364916D01*
X72579323Y-107323904D01*
X72575000Y-107280017D01*
X72575000Y-106719983D01*
X72579323Y-106676096D01*
X72591763Y-106635084D01*
X72611966Y-106597287D01*
X72639156Y-106564156D01*
X72672287Y-106536966D01*
X72710084Y-106516763D01*
X72751096Y-106504323D01*
X72794983Y-106500000D01*
X73280017Y-106500000D01*
X73323904Y-106504323D01*
X73323904Y-106504323D01*
G37*
G36*
X190823904Y-106504323D02*
G01*
X190864916Y-106516763D01*
X190902713Y-106536966D01*
X190935844Y-106564156D01*
X190963034Y-106597287D01*
X190983237Y-106635084D01*
X190995677Y-106676096D01*
X191000000Y-106719983D01*
X191000000Y-107280017D01*
X190995677Y-107323904D01*
X190983237Y-107364916D01*
X190963034Y-107402713D01*
X190935844Y-107435844D01*
X190902713Y-107463034D01*
X190864916Y-107483237D01*
X190823904Y-107495677D01*
X190780017Y-107500000D01*
X190294983Y-107500000D01*
X190251096Y-107495677D01*
X190210084Y-107483237D01*
X190172287Y-107463034D01*
X190139156Y-107435844D01*
X190111966Y-107402713D01*
X190091763Y-107364916D01*
X190079323Y-107323904D01*
X190075000Y-107280017D01*
X190075000Y-106719983D01*
X190079323Y-106676096D01*
X190091763Y-106635084D01*
X190111966Y-106597287D01*
X190139156Y-106564156D01*
X190172287Y-106536966D01*
X190210084Y-106516763D01*
X190251096Y-106504323D01*
X190294983Y-106500000D01*
X190780017Y-106500000D01*
X190823904Y-106504323D01*
X190823904Y-106504323D01*
G37*
G36*
X189248904Y-106504323D02*
G01*
X189289916Y-106516763D01*
X189327713Y-106536966D01*
X189360844Y-106564156D01*
X189388034Y-106597287D01*
X189408237Y-106635084D01*
X189420677Y-106676096D01*
X189425000Y-106719983D01*
X189425000Y-107280017D01*
X189420677Y-107323904D01*
X189408237Y-107364916D01*
X189388034Y-107402713D01*
X189360844Y-107435844D01*
X189327713Y-107463034D01*
X189289916Y-107483237D01*
X189248904Y-107495677D01*
X189205017Y-107500000D01*
X188719983Y-107500000D01*
X188676096Y-107495677D01*
X188635084Y-107483237D01*
X188597287Y-107463034D01*
X188564156Y-107435844D01*
X188536966Y-107402713D01*
X188516763Y-107364916D01*
X188504323Y-107323904D01*
X188500000Y-107280017D01*
X188500000Y-106719983D01*
X188504323Y-106676096D01*
X188516763Y-106635084D01*
X188536966Y-106597287D01*
X188564156Y-106564156D01*
X188597287Y-106536966D01*
X188635084Y-106516763D01*
X188676096Y-106504323D01*
X188719983Y-106500000D01*
X189205017Y-106500000D01*
X189248904Y-106504323D01*
X189248904Y-106504323D01*
G37*
G36*
X81998904Y-106504323D02*
G01*
X82039916Y-106516763D01*
X82077713Y-106536966D01*
X82110844Y-106564156D01*
X82138034Y-106597287D01*
X82158237Y-106635084D01*
X82170677Y-106676096D01*
X82175000Y-106719983D01*
X82175000Y-107280017D01*
X82170677Y-107323904D01*
X82158237Y-107364916D01*
X82138034Y-107402713D01*
X82110844Y-107435844D01*
X82077713Y-107463034D01*
X82039916Y-107483237D01*
X81998904Y-107495677D01*
X81955017Y-107500000D01*
X81469983Y-107500000D01*
X81426096Y-107495677D01*
X81385084Y-107483237D01*
X81347287Y-107463034D01*
X81314156Y-107435844D01*
X81286966Y-107402713D01*
X81266763Y-107364916D01*
X81254323Y-107323904D01*
X81250000Y-107280017D01*
X81250000Y-106719983D01*
X81254323Y-106676096D01*
X81266763Y-106635084D01*
X81286966Y-106597287D01*
X81314156Y-106564156D01*
X81347287Y-106536966D01*
X81385084Y-106516763D01*
X81426096Y-106504323D01*
X81469983Y-106500000D01*
X81955017Y-106500000D01*
X81998904Y-106504323D01*
X81998904Y-106504323D01*
G37*
G36*
X83573904Y-106504323D02*
G01*
X83614916Y-106516763D01*
X83652713Y-106536966D01*
X83685844Y-106564156D01*
X83713034Y-106597287D01*
X83733237Y-106635084D01*
X83745677Y-106676096D01*
X83750000Y-106719983D01*
X83750000Y-107280017D01*
X83745677Y-107323904D01*
X83733237Y-107364916D01*
X83713034Y-107402713D01*
X83685844Y-107435844D01*
X83652713Y-107463034D01*
X83614916Y-107483237D01*
X83573904Y-107495677D01*
X83530017Y-107500000D01*
X83044983Y-107500000D01*
X83001096Y-107495677D01*
X82960084Y-107483237D01*
X82922287Y-107463034D01*
X82889156Y-107435844D01*
X82861966Y-107402713D01*
X82841763Y-107364916D01*
X82829323Y-107323904D01*
X82825000Y-107280017D01*
X82825000Y-106719983D01*
X82829323Y-106676096D01*
X82841763Y-106635084D01*
X82861966Y-106597287D01*
X82889156Y-106564156D01*
X82922287Y-106536966D01*
X82960084Y-106516763D01*
X83001096Y-106504323D01*
X83044983Y-106500000D01*
X83530017Y-106500000D01*
X83573904Y-106504323D01*
X83573904Y-106504323D01*
G37*
G36*
X200200000Y-107435000D02*
G01*
X198400000Y-107435000D01*
X198400000Y-106835000D01*
X200200000Y-106835000D01*
X200200000Y-107435000D01*
X200200000Y-107435000D01*
G37*
G36*
X207600000Y-107435000D02*
G01*
X205800000Y-107435000D01*
X205800000Y-106835000D01*
X207600000Y-106835000D01*
X207600000Y-107435000D01*
X207600000Y-107435000D01*
G37*
G36*
X126025000Y-107275000D02*
G01*
X115475000Y-107275000D01*
X115475000Y-103725000D01*
X126025000Y-103725000D01*
X126025000Y-107275000D01*
X126025000Y-107275000D01*
G37*
G36*
X146525000Y-107275000D02*
G01*
X135975000Y-107275000D01*
X135975000Y-103725000D01*
X146525000Y-103725000D01*
X146525000Y-107275000D01*
X146525000Y-107275000D01*
G37*
G36*
X86325000Y-107025000D02*
G01*
X84675000Y-107025000D01*
X84675000Y-106475000D01*
X86325000Y-106475000D01*
X86325000Y-107025000D01*
X86325000Y-107025000D01*
G37*
G36*
X94825000Y-107025000D02*
G01*
X93175000Y-107025000D01*
X93175000Y-106475000D01*
X94825000Y-106475000D01*
X94825000Y-107025000D01*
X94825000Y-107025000D01*
G37*
G36*
X98323904Y-106004323D02*
G01*
X98364916Y-106016763D01*
X98402713Y-106036966D01*
X98435844Y-106064156D01*
X98463034Y-106097287D01*
X98483237Y-106135084D01*
X98495677Y-106176096D01*
X98500000Y-106219983D01*
X98500000Y-106780017D01*
X98495677Y-106823904D01*
X98483237Y-106864916D01*
X98463034Y-106902713D01*
X98435844Y-106935844D01*
X98402713Y-106963034D01*
X98364916Y-106983237D01*
X98323904Y-106995677D01*
X98280017Y-107000000D01*
X97794983Y-107000000D01*
X97751096Y-106995677D01*
X97710084Y-106983237D01*
X97672287Y-106963034D01*
X97639156Y-106935844D01*
X97611966Y-106902713D01*
X97591763Y-106864916D01*
X97579323Y-106823904D01*
X97575000Y-106780017D01*
X97575000Y-106219983D01*
X97579323Y-106176096D01*
X97591763Y-106135084D01*
X97611966Y-106097287D01*
X97639156Y-106064156D01*
X97672287Y-106036966D01*
X97710084Y-106016763D01*
X97751096Y-106004323D01*
X97794983Y-106000000D01*
X98280017Y-106000000D01*
X98323904Y-106004323D01*
X98323904Y-106004323D01*
G37*
G36*
X157000000Y-107000000D02*
G01*
X155200000Y-107000000D01*
X155200000Y-106550000D01*
X157000000Y-106550000D01*
X157000000Y-107000000D01*
X157000000Y-107000000D01*
G37*
G36*
X149800000Y-107000000D02*
G01*
X148000000Y-107000000D01*
X148000000Y-106550000D01*
X149800000Y-106550000D01*
X149800000Y-107000000D01*
X149800000Y-107000000D01*
G37*
G36*
X96748904Y-106004323D02*
G01*
X96789916Y-106016763D01*
X96827713Y-106036966D01*
X96860844Y-106064156D01*
X96888034Y-106097287D01*
X96908237Y-106135084D01*
X96920677Y-106176096D01*
X96925000Y-106219983D01*
X96925000Y-106780017D01*
X96920677Y-106823904D01*
X96908237Y-106864916D01*
X96888034Y-106902713D01*
X96860844Y-106935844D01*
X96827713Y-106963034D01*
X96789916Y-106983237D01*
X96748904Y-106995677D01*
X96705017Y-107000000D01*
X96219983Y-107000000D01*
X96176096Y-106995677D01*
X96135084Y-106983237D01*
X96097287Y-106963034D01*
X96064156Y-106935844D01*
X96036966Y-106902713D01*
X96016763Y-106864916D01*
X96004323Y-106823904D01*
X96000000Y-106780017D01*
X96000000Y-106219983D01*
X96004323Y-106176096D01*
X96016763Y-106135084D01*
X96036966Y-106097287D01*
X96064156Y-106064156D01*
X96097287Y-106036966D01*
X96135084Y-106016763D01*
X96176096Y-106004323D01*
X96219983Y-106000000D01*
X96705017Y-106000000D01*
X96748904Y-106004323D01*
X96748904Y-106004323D01*
G37*
G36*
X172198879Y-104647417D02*
G01*
X172255229Y-104658626D01*
X172414468Y-104724584D01*
X172557781Y-104820344D01*
X172679656Y-104942219D01*
X172775416Y-105085532D01*
X172841374Y-105244771D01*
X172846144Y-105268750D01*
X172872791Y-105402713D01*
X172875000Y-105413822D01*
X172875000Y-105586178D01*
X172841374Y-105755229D01*
X172775416Y-105914468D01*
X172679656Y-106057781D01*
X172557781Y-106179656D01*
X172414468Y-106275416D01*
X172255229Y-106341374D01*
X172198879Y-106352583D01*
X172086180Y-106375000D01*
X171913820Y-106375000D01*
X171801121Y-106352583D01*
X171744771Y-106341374D01*
X171585532Y-106275416D01*
X171442219Y-106179656D01*
X171320344Y-106057781D01*
X171224584Y-105914468D01*
X171158626Y-105755229D01*
X171125000Y-105586178D01*
X171125000Y-105413822D01*
X171127210Y-105402713D01*
X171153856Y-105268750D01*
X171158626Y-105244771D01*
X171224584Y-105085532D01*
X171320344Y-104942219D01*
X171442219Y-104820344D01*
X171585532Y-104724584D01*
X171744771Y-104658626D01*
X171801121Y-104647417D01*
X171913820Y-104625000D01*
X172086180Y-104625000D01*
X172198879Y-104647417D01*
X172198879Y-104647417D01*
G37*
G36*
X174698879Y-104647417D02*
G01*
X174755229Y-104658626D01*
X174914468Y-104724584D01*
X175057781Y-104820344D01*
X175179656Y-104942219D01*
X175275416Y-105085532D01*
X175341374Y-105244771D01*
X175346144Y-105268750D01*
X175372791Y-105402713D01*
X175375000Y-105413822D01*
X175375000Y-105586178D01*
X175341374Y-105755229D01*
X175275416Y-105914468D01*
X175179656Y-106057781D01*
X175057781Y-106179656D01*
X174914468Y-106275416D01*
X174755229Y-106341374D01*
X174698879Y-106352583D01*
X174586180Y-106375000D01*
X174413820Y-106375000D01*
X174301121Y-106352583D01*
X174244771Y-106341374D01*
X174085532Y-106275416D01*
X173942219Y-106179656D01*
X173820344Y-106057781D01*
X173724584Y-105914468D01*
X173658626Y-105755229D01*
X173625000Y-105586178D01*
X173625000Y-105413822D01*
X173627210Y-105402713D01*
X173653856Y-105268750D01*
X173658626Y-105244771D01*
X173724584Y-105085532D01*
X173820344Y-104942219D01*
X173942219Y-104820344D01*
X174085532Y-104724584D01*
X174244771Y-104658626D01*
X174301121Y-104647417D01*
X174413820Y-104625000D01*
X174586180Y-104625000D01*
X174698879Y-104647417D01*
X174698879Y-104647417D01*
G37*
G36*
X94825000Y-106225000D02*
G01*
X93175000Y-106225000D01*
X93175000Y-105675000D01*
X94825000Y-105675000D01*
X94825000Y-106225000D01*
X94825000Y-106225000D01*
G37*
G36*
X86325000Y-106225000D02*
G01*
X84675000Y-106225000D01*
X84675000Y-105675000D01*
X86325000Y-105675000D01*
X86325000Y-106225000D01*
X86325000Y-106225000D01*
G37*
G36*
X207600000Y-106165000D02*
G01*
X205800000Y-106165000D01*
X205800000Y-105565000D01*
X207600000Y-105565000D01*
X207600000Y-106165000D01*
X207600000Y-106165000D01*
G37*
G36*
X200200000Y-106165000D02*
G01*
X198400000Y-106165000D01*
X198400000Y-105565000D01*
X200200000Y-105565000D01*
X200200000Y-106165000D01*
X200200000Y-106165000D01*
G37*
G36*
X83573904Y-105004323D02*
G01*
X83614916Y-105016763D01*
X83652713Y-105036966D01*
X83685844Y-105064156D01*
X83713034Y-105097287D01*
X83733237Y-105135084D01*
X83745677Y-105176096D01*
X83750000Y-105219983D01*
X83750000Y-105780017D01*
X83745677Y-105823904D01*
X83733237Y-105864916D01*
X83713034Y-105902713D01*
X83685844Y-105935844D01*
X83652713Y-105963034D01*
X83614916Y-105983237D01*
X83573904Y-105995677D01*
X83530017Y-106000000D01*
X83044983Y-106000000D01*
X83001096Y-105995677D01*
X82960084Y-105983237D01*
X82922287Y-105963034D01*
X82889156Y-105935844D01*
X82861966Y-105902713D01*
X82841763Y-105864916D01*
X82829323Y-105823904D01*
X82825000Y-105780017D01*
X82825000Y-105219983D01*
X82829323Y-105176096D01*
X82841763Y-105135084D01*
X82861966Y-105097287D01*
X82889156Y-105064156D01*
X82922287Y-105036966D01*
X82960084Y-105016763D01*
X83001096Y-105004323D01*
X83044983Y-105000000D01*
X83530017Y-105000000D01*
X83573904Y-105004323D01*
X83573904Y-105004323D01*
G37*
G36*
X81998904Y-105004323D02*
G01*
X82039916Y-105016763D01*
X82077713Y-105036966D01*
X82110844Y-105064156D01*
X82138034Y-105097287D01*
X82158237Y-105135084D01*
X82170677Y-105176096D01*
X82175000Y-105219983D01*
X82175000Y-105780017D01*
X82170677Y-105823904D01*
X82158237Y-105864916D01*
X82138034Y-105902713D01*
X82110844Y-105935844D01*
X82077713Y-105963034D01*
X82039916Y-105983237D01*
X81998904Y-105995677D01*
X81955017Y-106000000D01*
X81469983Y-106000000D01*
X81426096Y-105995677D01*
X81385084Y-105983237D01*
X81347287Y-105963034D01*
X81314156Y-105935844D01*
X81286966Y-105902713D01*
X81266763Y-105864916D01*
X81254323Y-105823904D01*
X81250000Y-105780017D01*
X81250000Y-105219983D01*
X81254323Y-105176096D01*
X81266763Y-105135084D01*
X81286966Y-105097287D01*
X81314156Y-105064156D01*
X81347287Y-105036966D01*
X81385084Y-105016763D01*
X81426096Y-105004323D01*
X81469983Y-105000000D01*
X81955017Y-105000000D01*
X81998904Y-105004323D01*
X81998904Y-105004323D01*
G37*
G36*
X217781295Y-104179743D02*
G01*
X217826414Y-104193429D01*
X217867991Y-104215653D01*
X217904437Y-104245563D01*
X217934347Y-104282009D01*
X217956571Y-104323586D01*
X217970257Y-104368705D01*
X217975000Y-104416857D01*
X217975000Y-105583143D01*
X217970257Y-105631295D01*
X217956571Y-105676414D01*
X217934347Y-105717991D01*
X217904437Y-105754437D01*
X217867991Y-105784347D01*
X217826414Y-105806571D01*
X217781295Y-105820257D01*
X217733143Y-105825000D01*
X214841857Y-105825000D01*
X214793705Y-105820257D01*
X214748586Y-105806571D01*
X214707009Y-105784347D01*
X214670563Y-105754437D01*
X214640653Y-105717991D01*
X214618429Y-105676414D01*
X214604743Y-105631295D01*
X214600000Y-105583143D01*
X214600000Y-104416857D01*
X214604743Y-104368705D01*
X214618429Y-104323586D01*
X214640653Y-104282009D01*
X214670563Y-104245563D01*
X214707009Y-104215653D01*
X214748586Y-104193429D01*
X214793705Y-104179743D01*
X214841857Y-104175000D01*
X217733143Y-104175000D01*
X217781295Y-104179743D01*
X217781295Y-104179743D01*
G37*
G36*
X212706295Y-104179743D02*
G01*
X212751414Y-104193429D01*
X212792991Y-104215653D01*
X212829437Y-104245563D01*
X212859347Y-104282009D01*
X212881571Y-104323586D01*
X212895257Y-104368705D01*
X212900000Y-104416857D01*
X212900000Y-105583143D01*
X212895257Y-105631295D01*
X212881571Y-105676414D01*
X212859347Y-105717991D01*
X212829437Y-105754437D01*
X212792991Y-105784347D01*
X212751414Y-105806571D01*
X212706295Y-105820257D01*
X212658143Y-105825000D01*
X209766857Y-105825000D01*
X209718705Y-105820257D01*
X209673586Y-105806571D01*
X209632009Y-105784347D01*
X209595563Y-105754437D01*
X209565653Y-105717991D01*
X209543429Y-105676414D01*
X209529743Y-105631295D01*
X209525000Y-105583143D01*
X209525000Y-104416857D01*
X209529743Y-104368705D01*
X209543429Y-104323586D01*
X209565653Y-104282009D01*
X209595563Y-104245563D01*
X209632009Y-104215653D01*
X209673586Y-104193429D01*
X209718705Y-104179743D01*
X209766857Y-104175000D01*
X212658143Y-104175000D01*
X212706295Y-104179743D01*
X212706295Y-104179743D01*
G37*
G36*
X71650000Y-105655000D02*
G01*
X70950000Y-105655000D01*
X70950000Y-104545000D01*
X71650000Y-104545000D01*
X71650000Y-105655000D01*
X71650000Y-105655000D01*
G37*
G36*
X73550000Y-105655000D02*
G01*
X72850000Y-105655000D01*
X72850000Y-104545000D01*
X73550000Y-104545000D01*
X73550000Y-105655000D01*
X73550000Y-105655000D01*
G37*
G36*
X72600000Y-105655000D02*
G01*
X71900000Y-105655000D01*
X71900000Y-104545000D01*
X72600000Y-104545000D01*
X72600000Y-105655000D01*
X72600000Y-105655000D01*
G37*
G36*
X76823904Y-104504323D02*
G01*
X76864916Y-104516763D01*
X76902713Y-104536966D01*
X76935844Y-104564156D01*
X76963034Y-104597287D01*
X76983237Y-104635084D01*
X76995677Y-104676096D01*
X77000000Y-104719983D01*
X77000000Y-105280017D01*
X76995677Y-105323904D01*
X76983237Y-105364916D01*
X76963034Y-105402713D01*
X76935844Y-105435844D01*
X76902713Y-105463034D01*
X76864916Y-105483237D01*
X76823904Y-105495677D01*
X76780017Y-105500000D01*
X76294983Y-105500000D01*
X76251096Y-105495677D01*
X76210084Y-105483237D01*
X76172287Y-105463034D01*
X76139156Y-105435844D01*
X76111966Y-105402713D01*
X76091763Y-105364916D01*
X76079323Y-105323904D01*
X76075000Y-105280017D01*
X76075000Y-104719983D01*
X76079323Y-104676096D01*
X76091763Y-104635084D01*
X76111966Y-104597287D01*
X76139156Y-104564156D01*
X76172287Y-104536966D01*
X76210084Y-104516763D01*
X76251096Y-104504323D01*
X76294983Y-104500000D01*
X76780017Y-104500000D01*
X76823904Y-104504323D01*
X76823904Y-104504323D01*
G37*
G36*
X98323904Y-104504323D02*
G01*
X98364916Y-104516763D01*
X98402713Y-104536966D01*
X98435844Y-104564156D01*
X98463034Y-104597287D01*
X98483237Y-104635084D01*
X98495677Y-104676096D01*
X98500000Y-104719983D01*
X98500000Y-105280017D01*
X98495677Y-105323904D01*
X98483237Y-105364916D01*
X98463034Y-105402713D01*
X98435844Y-105435844D01*
X98402713Y-105463034D01*
X98364916Y-105483237D01*
X98323904Y-105495677D01*
X98280017Y-105500000D01*
X97794983Y-105500000D01*
X97751096Y-105495677D01*
X97710084Y-105483237D01*
X97672287Y-105463034D01*
X97639156Y-105435844D01*
X97611966Y-105402713D01*
X97591763Y-105364916D01*
X97579323Y-105323904D01*
X97575000Y-105280017D01*
X97575000Y-104719983D01*
X97579323Y-104676096D01*
X97591763Y-104635084D01*
X97611966Y-104597287D01*
X97639156Y-104564156D01*
X97672287Y-104536966D01*
X97710084Y-104516763D01*
X97751096Y-104504323D01*
X97794983Y-104500000D01*
X98280017Y-104500000D01*
X98323904Y-104504323D01*
X98323904Y-104504323D01*
G37*
G36*
X96748904Y-104504323D02*
G01*
X96789916Y-104516763D01*
X96827713Y-104536966D01*
X96860844Y-104564156D01*
X96888034Y-104597287D01*
X96908237Y-104635084D01*
X96920677Y-104676096D01*
X96925000Y-104719983D01*
X96925000Y-105280017D01*
X96920677Y-105323904D01*
X96908237Y-105364916D01*
X96888034Y-105402713D01*
X96860844Y-105435844D01*
X96827713Y-105463034D01*
X96789916Y-105483237D01*
X96748904Y-105495677D01*
X96705017Y-105500000D01*
X96219983Y-105500000D01*
X96176096Y-105495677D01*
X96135084Y-105483237D01*
X96097287Y-105463034D01*
X96064156Y-105435844D01*
X96036966Y-105402713D01*
X96016763Y-105364916D01*
X96004323Y-105323904D01*
X96000000Y-105280017D01*
X96000000Y-104719983D01*
X96004323Y-104676096D01*
X96016763Y-104635084D01*
X96036966Y-104597287D01*
X96064156Y-104564156D01*
X96097287Y-104536966D01*
X96135084Y-104516763D01*
X96176096Y-104504323D01*
X96219983Y-104500000D01*
X96705017Y-104500000D01*
X96748904Y-104504323D01*
X96748904Y-104504323D01*
G37*
G36*
X75248904Y-104504323D02*
G01*
X75289916Y-104516763D01*
X75327713Y-104536966D01*
X75360844Y-104564156D01*
X75388034Y-104597287D01*
X75408237Y-104635084D01*
X75420677Y-104676096D01*
X75425000Y-104719983D01*
X75425000Y-105280017D01*
X75420677Y-105323904D01*
X75408237Y-105364916D01*
X75388034Y-105402713D01*
X75360844Y-105435844D01*
X75327713Y-105463034D01*
X75289916Y-105483237D01*
X75248904Y-105495677D01*
X75205017Y-105500000D01*
X74719983Y-105500000D01*
X74676096Y-105495677D01*
X74635084Y-105483237D01*
X74597287Y-105463034D01*
X74564156Y-105435844D01*
X74536966Y-105402713D01*
X74516763Y-105364916D01*
X74504323Y-105323904D01*
X74500000Y-105280017D01*
X74500000Y-104719983D01*
X74504323Y-104676096D01*
X74516763Y-104635084D01*
X74536966Y-104597287D01*
X74564156Y-104564156D01*
X74597287Y-104536966D01*
X74635084Y-104516763D01*
X74676096Y-104504323D01*
X74719983Y-104500000D01*
X75205017Y-104500000D01*
X75248904Y-104504323D01*
X75248904Y-104504323D01*
G37*
G36*
X91225000Y-105325000D02*
G01*
X90675000Y-105325000D01*
X90675000Y-103675000D01*
X91225000Y-103675000D01*
X91225000Y-105325000D01*
X91225000Y-105325000D01*
G37*
G36*
X87225000Y-105325000D02*
G01*
X86675000Y-105325000D01*
X86675000Y-103675000D01*
X87225000Y-103675000D01*
X87225000Y-105325000D01*
X87225000Y-105325000D01*
G37*
G36*
X92825000Y-105325000D02*
G01*
X92275000Y-105325000D01*
X92275000Y-103675000D01*
X92825000Y-103675000D01*
X92825000Y-105325000D01*
X92825000Y-105325000D01*
G37*
G36*
X88825000Y-105325000D02*
G01*
X88275000Y-105325000D01*
X88275000Y-103675000D01*
X88825000Y-103675000D01*
X88825000Y-105325000D01*
X88825000Y-105325000D01*
G37*
G36*
X92025000Y-105325000D02*
G01*
X91475000Y-105325000D01*
X91475000Y-103675000D01*
X92025000Y-103675000D01*
X92025000Y-105325000D01*
X92025000Y-105325000D01*
G37*
G36*
X90425000Y-105325000D02*
G01*
X89875000Y-105325000D01*
X89875000Y-103675000D01*
X90425000Y-103675000D01*
X90425000Y-105325000D01*
X90425000Y-105325000D01*
G37*
G36*
X88025000Y-105325000D02*
G01*
X87475000Y-105325000D01*
X87475000Y-103675000D01*
X88025000Y-103675000D01*
X88025000Y-105325000D01*
X88025000Y-105325000D01*
G37*
G36*
X89625000Y-105325000D02*
G01*
X89075000Y-105325000D01*
X89075000Y-103675000D01*
X89625000Y-103675000D01*
X89625000Y-105325000D01*
X89625000Y-105325000D01*
G37*
G36*
X187275984Y-104029870D02*
G01*
X187322343Y-104043932D01*
X187365061Y-104066766D01*
X187402505Y-104097495D01*
X187433234Y-104134939D01*
X187456068Y-104177657D01*
X187470130Y-104224016D01*
X187475000Y-104273454D01*
X187475000Y-104951546D01*
X187470130Y-105000984D01*
X187456068Y-105047343D01*
X187433234Y-105090061D01*
X187402505Y-105127505D01*
X187365061Y-105158234D01*
X187322343Y-105181068D01*
X187275984Y-105195130D01*
X187226546Y-105200000D01*
X184273454Y-105200000D01*
X184224016Y-105195130D01*
X184177657Y-105181068D01*
X184134939Y-105158234D01*
X184097495Y-105127505D01*
X184066766Y-105090061D01*
X184043932Y-105047343D01*
X184029870Y-105000984D01*
X184025000Y-104951546D01*
X184025000Y-104273454D01*
X184029870Y-104224016D01*
X184043932Y-104177657D01*
X184066766Y-104134939D01*
X184097495Y-104097495D01*
X184134939Y-104066766D01*
X184177657Y-104043932D01*
X184224016Y-104029870D01*
X184273454Y-104025000D01*
X187226546Y-104025000D01*
X187275984Y-104029870D01*
X187275984Y-104029870D01*
G37*
G36*
X200200000Y-104895000D02*
G01*
X198400000Y-104895000D01*
X198400000Y-104295000D01*
X200200000Y-104295000D01*
X200200000Y-104895000D01*
X200200000Y-104895000D01*
G37*
G36*
X207600000Y-104895000D02*
G01*
X205800000Y-104895000D01*
X205800000Y-104295000D01*
X207600000Y-104295000D01*
X207600000Y-104895000D01*
X207600000Y-104895000D01*
G37*
G36*
X83573904Y-103504323D02*
G01*
X83614916Y-103516763D01*
X83652713Y-103536966D01*
X83685844Y-103564156D01*
X83713034Y-103597287D01*
X83733237Y-103635084D01*
X83745677Y-103676096D01*
X83750000Y-103719983D01*
X83750000Y-104280017D01*
X83745677Y-104323904D01*
X83733237Y-104364916D01*
X83713034Y-104402713D01*
X83685844Y-104435844D01*
X83652713Y-104463034D01*
X83614916Y-104483237D01*
X83573904Y-104495677D01*
X83530017Y-104500000D01*
X83044983Y-104500000D01*
X83001096Y-104495677D01*
X82960084Y-104483237D01*
X82922287Y-104463034D01*
X82889156Y-104435844D01*
X82861966Y-104402713D01*
X82841763Y-104364916D01*
X82829323Y-104323904D01*
X82825000Y-104280017D01*
X82825000Y-103719983D01*
X82829323Y-103676096D01*
X82841763Y-103635084D01*
X82861966Y-103597287D01*
X82889156Y-103564156D01*
X82922287Y-103536966D01*
X82960084Y-103516763D01*
X83001096Y-103504323D01*
X83044983Y-103500000D01*
X83530017Y-103500000D01*
X83573904Y-103504323D01*
X83573904Y-103504323D01*
G37*
G36*
X81998904Y-103504323D02*
G01*
X82039916Y-103516763D01*
X82077713Y-103536966D01*
X82110844Y-103564156D01*
X82138034Y-103597287D01*
X82158237Y-103635084D01*
X82170677Y-103676096D01*
X82175000Y-103719983D01*
X82175000Y-104280017D01*
X82170677Y-104323904D01*
X82158237Y-104364916D01*
X82138034Y-104402713D01*
X82110844Y-104435844D01*
X82077713Y-104463034D01*
X82039916Y-104483237D01*
X81998904Y-104495677D01*
X81955017Y-104500000D01*
X81469983Y-104500000D01*
X81426096Y-104495677D01*
X81385084Y-104483237D01*
X81347287Y-104463034D01*
X81314156Y-104435844D01*
X81286966Y-104402713D01*
X81266763Y-104364916D01*
X81254323Y-104323904D01*
X81250000Y-104280017D01*
X81250000Y-103719983D01*
X81254323Y-103676096D01*
X81266763Y-103635084D01*
X81286966Y-103597287D01*
X81314156Y-103564156D01*
X81347287Y-103536966D01*
X81385084Y-103516763D01*
X81426096Y-103504323D01*
X81469983Y-103500000D01*
X81955017Y-103500000D01*
X81998904Y-103504323D01*
X81998904Y-103504323D01*
G37*
G36*
X174696167Y-102646878D02*
G01*
X174755229Y-102658626D01*
X174914468Y-102724584D01*
X174992359Y-102776630D01*
X175040306Y-102808667D01*
X175057781Y-102820344D01*
X175179656Y-102942219D01*
X175275416Y-103085532D01*
X175341374Y-103244771D01*
X175348385Y-103280017D01*
X175375000Y-103413820D01*
X175375000Y-103586180D01*
X175357332Y-103675000D01*
X175341374Y-103755229D01*
X175275416Y-103914468D01*
X175214673Y-104005375D01*
X175179657Y-104057780D01*
X175057780Y-104179657D01*
X175037169Y-104193429D01*
X174914468Y-104275416D01*
X174755229Y-104341374D01*
X174698879Y-104352583D01*
X174586180Y-104375000D01*
X174413820Y-104375000D01*
X174301121Y-104352583D01*
X174244771Y-104341374D01*
X174085532Y-104275416D01*
X173962831Y-104193429D01*
X173942220Y-104179657D01*
X173820343Y-104057780D01*
X173785327Y-104005375D01*
X173724584Y-103914468D01*
X173658626Y-103755229D01*
X173642668Y-103675000D01*
X173625000Y-103586180D01*
X173625000Y-103413820D01*
X173651615Y-103280017D01*
X173658626Y-103244771D01*
X173724584Y-103085532D01*
X173820344Y-102942219D01*
X173942219Y-102820344D01*
X173959695Y-102808667D01*
X174007641Y-102776630D01*
X174085532Y-102724584D01*
X174244771Y-102658626D01*
X174303833Y-102646878D01*
X174413820Y-102625000D01*
X174586180Y-102625000D01*
X174696167Y-102646878D01*
X174696167Y-102646878D01*
G37*
G36*
X172875000Y-104375000D02*
G01*
X171125000Y-104375000D01*
X171125000Y-102625000D01*
X172875000Y-102625000D01*
X172875000Y-104375000D01*
X172875000Y-104375000D01*
G37*
G36*
X191381295Y-101329743D02*
G01*
X191426414Y-101343429D01*
X191467991Y-101365653D01*
X191504437Y-101395563D01*
X191534347Y-101432009D01*
X191556571Y-101473586D01*
X191570257Y-101518705D01*
X191575000Y-101566857D01*
X191575000Y-103783143D01*
X191570257Y-103831295D01*
X191556571Y-103876414D01*
X191534347Y-103917991D01*
X191504437Y-103954437D01*
X191467991Y-103984347D01*
X191426414Y-104006571D01*
X191381295Y-104020257D01*
X191333143Y-104025000D01*
X190166857Y-104025000D01*
X190118705Y-104020257D01*
X190073586Y-104006571D01*
X190032009Y-103984347D01*
X189995563Y-103954437D01*
X189965653Y-103917991D01*
X189943429Y-103876414D01*
X189929743Y-103831295D01*
X189925000Y-103783143D01*
X189925000Y-101566857D01*
X189929743Y-101518705D01*
X189943429Y-101473586D01*
X189965653Y-101432009D01*
X189995563Y-101395563D01*
X190032009Y-101365653D01*
X190073586Y-101343429D01*
X190118705Y-101329743D01*
X190166857Y-101325000D01*
X191333143Y-101325000D01*
X191381295Y-101329743D01*
X191381295Y-101329743D01*
G37*
G36*
X96748904Y-103004323D02*
G01*
X96789916Y-103016763D01*
X96827713Y-103036966D01*
X96860844Y-103064156D01*
X96888034Y-103097287D01*
X96908237Y-103135084D01*
X96920677Y-103176096D01*
X96925000Y-103219983D01*
X96925000Y-103780017D01*
X96920677Y-103823904D01*
X96908237Y-103864916D01*
X96888034Y-103902713D01*
X96860844Y-103935844D01*
X96827713Y-103963034D01*
X96789916Y-103983237D01*
X96748904Y-103995677D01*
X96705017Y-104000000D01*
X96219983Y-104000000D01*
X96176096Y-103995677D01*
X96135084Y-103983237D01*
X96097287Y-103963034D01*
X96064156Y-103935844D01*
X96036966Y-103902713D01*
X96016763Y-103864916D01*
X96004323Y-103823904D01*
X96000000Y-103780017D01*
X96000000Y-103219983D01*
X96004323Y-103176096D01*
X96016763Y-103135084D01*
X96036966Y-103097287D01*
X96064156Y-103064156D01*
X96097287Y-103036966D01*
X96135084Y-103016763D01*
X96176096Y-103004323D01*
X96219983Y-103000000D01*
X96705017Y-103000000D01*
X96748904Y-103004323D01*
X96748904Y-103004323D01*
G37*
G36*
X98323904Y-103004323D02*
G01*
X98364916Y-103016763D01*
X98402713Y-103036966D01*
X98435844Y-103064156D01*
X98463034Y-103097287D01*
X98483237Y-103135084D01*
X98495677Y-103176096D01*
X98500000Y-103219983D01*
X98500000Y-103780017D01*
X98495677Y-103823904D01*
X98483237Y-103864916D01*
X98463034Y-103902713D01*
X98435844Y-103935844D01*
X98402713Y-103963034D01*
X98364916Y-103983237D01*
X98323904Y-103995677D01*
X98280017Y-104000000D01*
X97794983Y-104000000D01*
X97751096Y-103995677D01*
X97710084Y-103983237D01*
X97672287Y-103963034D01*
X97639156Y-103935844D01*
X97611966Y-103902713D01*
X97591763Y-103864916D01*
X97579323Y-103823904D01*
X97575000Y-103780017D01*
X97575000Y-103219983D01*
X97579323Y-103176096D01*
X97591763Y-103135084D01*
X97611966Y-103097287D01*
X97639156Y-103064156D01*
X97672287Y-103036966D01*
X97710084Y-103016763D01*
X97751096Y-103004323D01*
X97794983Y-103000000D01*
X98280017Y-103000000D01*
X98323904Y-103004323D01*
X98323904Y-103004323D01*
G37*
G36*
X76823904Y-102504323D02*
G01*
X76864916Y-102516763D01*
X76902713Y-102536966D01*
X76935844Y-102564156D01*
X76963034Y-102597287D01*
X76983237Y-102635084D01*
X76995677Y-102676096D01*
X77000000Y-102719983D01*
X77000000Y-103280017D01*
X76995677Y-103323904D01*
X76983237Y-103364916D01*
X76963034Y-103402713D01*
X76935844Y-103435844D01*
X76902713Y-103463034D01*
X76864916Y-103483237D01*
X76823904Y-103495677D01*
X76780017Y-103500000D01*
X76294983Y-103500000D01*
X76251096Y-103495677D01*
X76210084Y-103483237D01*
X76172287Y-103463034D01*
X76139156Y-103435844D01*
X76111966Y-103402713D01*
X76091763Y-103364916D01*
X76079323Y-103323904D01*
X76075000Y-103280017D01*
X76075000Y-102719983D01*
X76079323Y-102676096D01*
X76091763Y-102635084D01*
X76111966Y-102597287D01*
X76139156Y-102564156D01*
X76172287Y-102536966D01*
X76210084Y-102516763D01*
X76251096Y-102504323D01*
X76294983Y-102500000D01*
X76780017Y-102500000D01*
X76823904Y-102504323D01*
X76823904Y-102504323D01*
G37*
G36*
X75248904Y-102504323D02*
G01*
X75289916Y-102516763D01*
X75327713Y-102536966D01*
X75360844Y-102564156D01*
X75388034Y-102597287D01*
X75408237Y-102635084D01*
X75420677Y-102676096D01*
X75425000Y-102719983D01*
X75425000Y-103280017D01*
X75420677Y-103323904D01*
X75408237Y-103364916D01*
X75388034Y-103402713D01*
X75360844Y-103435844D01*
X75327713Y-103463034D01*
X75289916Y-103483237D01*
X75248904Y-103495677D01*
X75205017Y-103500000D01*
X74719983Y-103500000D01*
X74676096Y-103495677D01*
X74635084Y-103483237D01*
X74597287Y-103463034D01*
X74564156Y-103435844D01*
X74536966Y-103402713D01*
X74516763Y-103364916D01*
X74504323Y-103323904D01*
X74500000Y-103280017D01*
X74500000Y-102719983D01*
X74504323Y-102676096D01*
X74516763Y-102635084D01*
X74536966Y-102597287D01*
X74564156Y-102564156D01*
X74597287Y-102536966D01*
X74635084Y-102516763D01*
X74676096Y-102504323D01*
X74719983Y-102500000D01*
X75205017Y-102500000D01*
X75248904Y-102504323D01*
X75248904Y-102504323D01*
G37*
G36*
X68248904Y-102504323D02*
G01*
X68289916Y-102516763D01*
X68327713Y-102536966D01*
X68360844Y-102564156D01*
X68388034Y-102597287D01*
X68408237Y-102635084D01*
X68420677Y-102676096D01*
X68425000Y-102719983D01*
X68425000Y-103280017D01*
X68420677Y-103323904D01*
X68408237Y-103364916D01*
X68388034Y-103402713D01*
X68360844Y-103435844D01*
X68327713Y-103463034D01*
X68289916Y-103483237D01*
X68248904Y-103495677D01*
X68205017Y-103500000D01*
X67719983Y-103500000D01*
X67676096Y-103495677D01*
X67635084Y-103483237D01*
X67597287Y-103463034D01*
X67564156Y-103435844D01*
X67536966Y-103402713D01*
X67516763Y-103364916D01*
X67504323Y-103323904D01*
X67500000Y-103280017D01*
X67500000Y-102719983D01*
X67504323Y-102676096D01*
X67516763Y-102635084D01*
X67536966Y-102597287D01*
X67564156Y-102564156D01*
X67597287Y-102536966D01*
X67635084Y-102516763D01*
X67676096Y-102504323D01*
X67719983Y-102500000D01*
X68205017Y-102500000D01*
X68248904Y-102504323D01*
X68248904Y-102504323D01*
G37*
G36*
X69823904Y-102504323D02*
G01*
X69864916Y-102516763D01*
X69902713Y-102536966D01*
X69935844Y-102564156D01*
X69963034Y-102597287D01*
X69983237Y-102635084D01*
X69995677Y-102676096D01*
X70000000Y-102719983D01*
X70000000Y-103280017D01*
X69995677Y-103323904D01*
X69983237Y-103364916D01*
X69963034Y-103402713D01*
X69935844Y-103435844D01*
X69902713Y-103463034D01*
X69864916Y-103483237D01*
X69823904Y-103495677D01*
X69780017Y-103500000D01*
X69294983Y-103500000D01*
X69251096Y-103495677D01*
X69210084Y-103483237D01*
X69172287Y-103463034D01*
X69139156Y-103435844D01*
X69111966Y-103402713D01*
X69091763Y-103364916D01*
X69079323Y-103323904D01*
X69075000Y-103280017D01*
X69075000Y-102719983D01*
X69079323Y-102676096D01*
X69091763Y-102635084D01*
X69111966Y-102597287D01*
X69139156Y-102564156D01*
X69172287Y-102536966D01*
X69210084Y-102516763D01*
X69251096Y-102504323D01*
X69294983Y-102500000D01*
X69780017Y-102500000D01*
X69823904Y-102504323D01*
X69823904Y-102504323D01*
G37*
G36*
X225128779Y-102029803D02*
G01*
X225174487Y-102043668D01*
X225216604Y-102066180D01*
X225253522Y-102096478D01*
X225283820Y-102133396D01*
X225306332Y-102175513D01*
X225320197Y-102221221D01*
X225325000Y-102269982D01*
X225325000Y-103230018D01*
X225320197Y-103278779D01*
X225306332Y-103324487D01*
X225283820Y-103366604D01*
X225253522Y-103403522D01*
X225216604Y-103433820D01*
X225174487Y-103456332D01*
X225128779Y-103470197D01*
X225080018Y-103475000D01*
X224544982Y-103475000D01*
X224496221Y-103470197D01*
X224450513Y-103456332D01*
X224408396Y-103433820D01*
X224371478Y-103403522D01*
X224341180Y-103366604D01*
X224318668Y-103324487D01*
X224304803Y-103278779D01*
X224300000Y-103230018D01*
X224300000Y-102269982D01*
X224304803Y-102221221D01*
X224318668Y-102175513D01*
X224341180Y-102133396D01*
X224371478Y-102096478D01*
X224408396Y-102066180D01*
X224450513Y-102043668D01*
X224496221Y-102029803D01*
X224544982Y-102025000D01*
X225080018Y-102025000D01*
X225128779Y-102029803D01*
X225128779Y-102029803D01*
G37*
G36*
X227003779Y-102029803D02*
G01*
X227049487Y-102043668D01*
X227091604Y-102066180D01*
X227128522Y-102096478D01*
X227158820Y-102133396D01*
X227181332Y-102175513D01*
X227195197Y-102221221D01*
X227200000Y-102269982D01*
X227200000Y-103230018D01*
X227195197Y-103278779D01*
X227181332Y-103324487D01*
X227158820Y-103366604D01*
X227128522Y-103403522D01*
X227091604Y-103433820D01*
X227049487Y-103456332D01*
X227003779Y-103470197D01*
X226955018Y-103475000D01*
X226419982Y-103475000D01*
X226371221Y-103470197D01*
X226325513Y-103456332D01*
X226283396Y-103433820D01*
X226246478Y-103403522D01*
X226216180Y-103366604D01*
X226193668Y-103324487D01*
X226179803Y-103278779D01*
X226175000Y-103230018D01*
X226175000Y-102269982D01*
X226179803Y-102221221D01*
X226193668Y-102175513D01*
X226216180Y-102133396D01*
X226246478Y-102096478D01*
X226283396Y-102066180D01*
X226325513Y-102043668D01*
X226371221Y-102029803D01*
X226419982Y-102025000D01*
X226955018Y-102025000D01*
X227003779Y-102029803D01*
X227003779Y-102029803D01*
G37*
G36*
X71650000Y-103455000D02*
G01*
X70950000Y-103455000D01*
X70950000Y-102345000D01*
X71650000Y-102345000D01*
X71650000Y-103455000D01*
X71650000Y-103455000D01*
G37*
G36*
X73550000Y-103455000D02*
G01*
X72850000Y-103455000D01*
X72850000Y-102345000D01*
X73550000Y-102345000D01*
X73550000Y-103455000D01*
X73550000Y-103455000D01*
G37*
G36*
X251440698Y-96898935D02*
G01*
X252027610Y-97142042D01*
X252555817Y-97494979D01*
X253005021Y-97944183D01*
X253357958Y-98472390D01*
X253601065Y-99059302D01*
X253725000Y-99682365D01*
X253725000Y-100317635D01*
X253601065Y-100940698D01*
X253357958Y-101527610D01*
X253005021Y-102055817D01*
X252555817Y-102505021D01*
X252027610Y-102857958D01*
X251440698Y-103101065D01*
X250817635Y-103225000D01*
X250182365Y-103225000D01*
X249559302Y-103101065D01*
X248972390Y-102857958D01*
X248444183Y-102505021D01*
X247994979Y-102055817D01*
X247642042Y-101527610D01*
X247398935Y-100940698D01*
X247275000Y-100317635D01*
X247275000Y-99682365D01*
X247398935Y-99059302D01*
X247642042Y-98472390D01*
X247994979Y-97944183D01*
X248444183Y-97494979D01*
X248972390Y-97142042D01*
X249559302Y-96898935D01*
X250182365Y-96775000D01*
X250817635Y-96775000D01*
X251440698Y-96898935D01*
X251440698Y-96898935D01*
G37*
G36*
X56440698Y-96898935D02*
G01*
X57027610Y-97142042D01*
X57555817Y-97494979D01*
X58005021Y-97944183D01*
X58357958Y-98472390D01*
X58601065Y-99059302D01*
X58725000Y-99682365D01*
X58725000Y-100317635D01*
X58601065Y-100940698D01*
X58357958Y-101527610D01*
X58005021Y-102055817D01*
X57555817Y-102505021D01*
X57027610Y-102857958D01*
X56440698Y-103101065D01*
X55817635Y-103225000D01*
X55182365Y-103225000D01*
X54559302Y-103101065D01*
X53972390Y-102857958D01*
X53444183Y-102505021D01*
X52994979Y-102055817D01*
X52642042Y-101527610D01*
X52398935Y-100940698D01*
X52275000Y-100317635D01*
X52275000Y-99682365D01*
X52398935Y-99059302D01*
X52642042Y-98472390D01*
X52994979Y-97944183D01*
X53444183Y-97494979D01*
X53972390Y-97142042D01*
X54559302Y-96898935D01*
X55182365Y-96775000D01*
X55817635Y-96775000D01*
X56440698Y-96898935D01*
X56440698Y-96898935D01*
G37*
G36*
X239323904Y-101754323D02*
G01*
X239364916Y-101766763D01*
X239402713Y-101786966D01*
X239435844Y-101814156D01*
X239463034Y-101847287D01*
X239483237Y-101885084D01*
X239495677Y-101926096D01*
X239500000Y-101969983D01*
X239500000Y-102530017D01*
X239495677Y-102573904D01*
X239483237Y-102614916D01*
X239463034Y-102652713D01*
X239435844Y-102685844D01*
X239402713Y-102713034D01*
X239364916Y-102733237D01*
X239323904Y-102745677D01*
X239280017Y-102750000D01*
X238794983Y-102750000D01*
X238751096Y-102745677D01*
X238710084Y-102733237D01*
X238672287Y-102713034D01*
X238639156Y-102685844D01*
X238611966Y-102652713D01*
X238591763Y-102614916D01*
X238579323Y-102573904D01*
X238575000Y-102530017D01*
X238575000Y-101969983D01*
X238579323Y-101926096D01*
X238591763Y-101885084D01*
X238611966Y-101847287D01*
X238639156Y-101814156D01*
X238672287Y-101786966D01*
X238710084Y-101766763D01*
X238751096Y-101754323D01*
X238794983Y-101750000D01*
X239280017Y-101750000D01*
X239323904Y-101754323D01*
X239323904Y-101754323D01*
G37*
G36*
X242573904Y-101754323D02*
G01*
X242614916Y-101766763D01*
X242652713Y-101786966D01*
X242685844Y-101814156D01*
X242713034Y-101847287D01*
X242733237Y-101885084D01*
X242745677Y-101926096D01*
X242750000Y-101969983D01*
X242750000Y-102530017D01*
X242745677Y-102573904D01*
X242733237Y-102614916D01*
X242713034Y-102652713D01*
X242685844Y-102685844D01*
X242652713Y-102713034D01*
X242614916Y-102733237D01*
X242573904Y-102745677D01*
X242530017Y-102750000D01*
X242044983Y-102750000D01*
X242001096Y-102745677D01*
X241960084Y-102733237D01*
X241922287Y-102713034D01*
X241889156Y-102685844D01*
X241861966Y-102652713D01*
X241841763Y-102614916D01*
X241829323Y-102573904D01*
X241825000Y-102530017D01*
X241825000Y-101969983D01*
X241829323Y-101926096D01*
X241841763Y-101885084D01*
X241861966Y-101847287D01*
X241889156Y-101814156D01*
X241922287Y-101786966D01*
X241960084Y-101766763D01*
X242001096Y-101754323D01*
X242044983Y-101750000D01*
X242530017Y-101750000D01*
X242573904Y-101754323D01*
X242573904Y-101754323D01*
G37*
G36*
X237748904Y-101754323D02*
G01*
X237789916Y-101766763D01*
X237827713Y-101786966D01*
X237860844Y-101814156D01*
X237888034Y-101847287D01*
X237908237Y-101885084D01*
X237920677Y-101926096D01*
X237925000Y-101969983D01*
X237925000Y-102530017D01*
X237920677Y-102573904D01*
X237908237Y-102614916D01*
X237888034Y-102652713D01*
X237860844Y-102685844D01*
X237827713Y-102713034D01*
X237789916Y-102733237D01*
X237748904Y-102745677D01*
X237705017Y-102750000D01*
X237219983Y-102750000D01*
X237176096Y-102745677D01*
X237135084Y-102733237D01*
X237097287Y-102713034D01*
X237064156Y-102685844D01*
X237036966Y-102652713D01*
X237016763Y-102614916D01*
X237004323Y-102573904D01*
X237000000Y-102530017D01*
X237000000Y-101969983D01*
X237004323Y-101926096D01*
X237016763Y-101885084D01*
X237036966Y-101847287D01*
X237064156Y-101814156D01*
X237097287Y-101786966D01*
X237135084Y-101766763D01*
X237176096Y-101754323D01*
X237219983Y-101750000D01*
X237705017Y-101750000D01*
X237748904Y-101754323D01*
X237748904Y-101754323D01*
G37*
G36*
X240998904Y-101754323D02*
G01*
X241039916Y-101766763D01*
X241077713Y-101786966D01*
X241110844Y-101814156D01*
X241138034Y-101847287D01*
X241158237Y-101885084D01*
X241170677Y-101926096D01*
X241175000Y-101969983D01*
X241175000Y-102530017D01*
X241170677Y-102573904D01*
X241158237Y-102614916D01*
X241138034Y-102652713D01*
X241110844Y-102685844D01*
X241077713Y-102713034D01*
X241039916Y-102733237D01*
X240998904Y-102745677D01*
X240955017Y-102750000D01*
X240469983Y-102750000D01*
X240426096Y-102745677D01*
X240385084Y-102733237D01*
X240347287Y-102713034D01*
X240314156Y-102685844D01*
X240286966Y-102652713D01*
X240266763Y-102614916D01*
X240254323Y-102573904D01*
X240250000Y-102530017D01*
X240250000Y-101969983D01*
X240254323Y-101926096D01*
X240266763Y-101885084D01*
X240286966Y-101847287D01*
X240314156Y-101814156D01*
X240347287Y-101786966D01*
X240385084Y-101766763D01*
X240426096Y-101754323D01*
X240469983Y-101750000D01*
X240955017Y-101750000D01*
X240998904Y-101754323D01*
X240998904Y-101754323D01*
G37*
G36*
X105779240Y-100553002D02*
G01*
X105807358Y-100561531D01*
X105833267Y-100575380D01*
X105855980Y-100594020D01*
X105874620Y-100616733D01*
X105888469Y-100642642D01*
X105896998Y-100670760D01*
X105900000Y-100701233D01*
X105900000Y-102498767D01*
X105896998Y-102529240D01*
X105888469Y-102557358D01*
X105874620Y-102583267D01*
X105855980Y-102605980D01*
X105833267Y-102624620D01*
X105807358Y-102638469D01*
X105779240Y-102646998D01*
X105748767Y-102650000D01*
X105401233Y-102650000D01*
X105370760Y-102646998D01*
X105342642Y-102638469D01*
X105316733Y-102624620D01*
X105294020Y-102605980D01*
X105275380Y-102583267D01*
X105261531Y-102557358D01*
X105253002Y-102529240D01*
X105250000Y-102498767D01*
X105250000Y-100701233D01*
X105253002Y-100670760D01*
X105261531Y-100642642D01*
X105275380Y-100616733D01*
X105294020Y-100594020D01*
X105316733Y-100575380D01*
X105342642Y-100561531D01*
X105370760Y-100553002D01*
X105401233Y-100550000D01*
X105748767Y-100550000D01*
X105779240Y-100553002D01*
X105779240Y-100553002D01*
G37*
G36*
X104509240Y-100553002D02*
G01*
X104537358Y-100561531D01*
X104563267Y-100575380D01*
X104585980Y-100594020D01*
X104604620Y-100616733D01*
X104618469Y-100642642D01*
X104626998Y-100670760D01*
X104630000Y-100701233D01*
X104630000Y-102498767D01*
X104626998Y-102529240D01*
X104618469Y-102557358D01*
X104604620Y-102583267D01*
X104585980Y-102605980D01*
X104563267Y-102624620D01*
X104537358Y-102638469D01*
X104509240Y-102646998D01*
X104478767Y-102650000D01*
X104131233Y-102650000D01*
X104100760Y-102646998D01*
X104072642Y-102638469D01*
X104046733Y-102624620D01*
X104024020Y-102605980D01*
X104005380Y-102583267D01*
X103991531Y-102557358D01*
X103983002Y-102529240D01*
X103980000Y-102498767D01*
X103980000Y-100701233D01*
X103983002Y-100670760D01*
X103991531Y-100642642D01*
X104005380Y-100616733D01*
X104024020Y-100594020D01*
X104046733Y-100575380D01*
X104072642Y-100561531D01*
X104100760Y-100553002D01*
X104131233Y-100550000D01*
X104478767Y-100550000D01*
X104509240Y-100553002D01*
X104509240Y-100553002D01*
G37*
G36*
X107049240Y-100553002D02*
G01*
X107077358Y-100561531D01*
X107103267Y-100575380D01*
X107125980Y-100594020D01*
X107144620Y-100616733D01*
X107158469Y-100642642D01*
X107166998Y-100670760D01*
X107170000Y-100701233D01*
X107170000Y-102498767D01*
X107166998Y-102529240D01*
X107158469Y-102557358D01*
X107144620Y-102583267D01*
X107125980Y-102605980D01*
X107103267Y-102624620D01*
X107077358Y-102638469D01*
X107049240Y-102646998D01*
X107018767Y-102650000D01*
X106671233Y-102650000D01*
X106640760Y-102646998D01*
X106612642Y-102638469D01*
X106586733Y-102624620D01*
X106564020Y-102605980D01*
X106545380Y-102583267D01*
X106531531Y-102557358D01*
X106523002Y-102529240D01*
X106520000Y-102498767D01*
X106520000Y-100701233D01*
X106523002Y-100670760D01*
X106531531Y-100642642D01*
X106545380Y-100616733D01*
X106564020Y-100594020D01*
X106586733Y-100575380D01*
X106612642Y-100561531D01*
X106640760Y-100553002D01*
X106671233Y-100550000D01*
X107018767Y-100550000D01*
X107049240Y-100553002D01*
X107049240Y-100553002D01*
G37*
G36*
X108319240Y-100553002D02*
G01*
X108347358Y-100561531D01*
X108373267Y-100575380D01*
X108395980Y-100594020D01*
X108414620Y-100616733D01*
X108428469Y-100642642D01*
X108436998Y-100670760D01*
X108440000Y-100701233D01*
X108440000Y-102498767D01*
X108436998Y-102529240D01*
X108428469Y-102557358D01*
X108414620Y-102583267D01*
X108395980Y-102605980D01*
X108373267Y-102624620D01*
X108347358Y-102638469D01*
X108319240Y-102646998D01*
X108288767Y-102650000D01*
X107941233Y-102650000D01*
X107910760Y-102646998D01*
X107882642Y-102638469D01*
X107856733Y-102624620D01*
X107834020Y-102605980D01*
X107815380Y-102583267D01*
X107801531Y-102557358D01*
X107793002Y-102529240D01*
X107790000Y-102498767D01*
X107790000Y-100701233D01*
X107793002Y-100670760D01*
X107801531Y-100642642D01*
X107815380Y-100616733D01*
X107834020Y-100594020D01*
X107856733Y-100575380D01*
X107882642Y-100561531D01*
X107910760Y-100553002D01*
X107941233Y-100550000D01*
X108288767Y-100550000D01*
X108319240Y-100553002D01*
X108319240Y-100553002D01*
G37*
G36*
X109589240Y-100553002D02*
G01*
X109617358Y-100561531D01*
X109643267Y-100575380D01*
X109665980Y-100594020D01*
X109684620Y-100616733D01*
X109698469Y-100642642D01*
X109706998Y-100670760D01*
X109710000Y-100701233D01*
X109710000Y-102498767D01*
X109706998Y-102529240D01*
X109698469Y-102557358D01*
X109684620Y-102583267D01*
X109665980Y-102605980D01*
X109643267Y-102624620D01*
X109617358Y-102638469D01*
X109589240Y-102646998D01*
X109558767Y-102650000D01*
X109211233Y-102650000D01*
X109180760Y-102646998D01*
X109152642Y-102638469D01*
X109126733Y-102624620D01*
X109104020Y-102605980D01*
X109085380Y-102583267D01*
X109071531Y-102557358D01*
X109063002Y-102529240D01*
X109060000Y-102498767D01*
X109060000Y-100701233D01*
X109063002Y-100670760D01*
X109071531Y-100642642D01*
X109085380Y-100616733D01*
X109104020Y-100594020D01*
X109126733Y-100575380D01*
X109152642Y-100561531D01*
X109180760Y-100553002D01*
X109211233Y-100550000D01*
X109558767Y-100550000D01*
X109589240Y-100553002D01*
X109589240Y-100553002D01*
G37*
G36*
X112129240Y-100553002D02*
G01*
X112157358Y-100561531D01*
X112183267Y-100575380D01*
X112205980Y-100594020D01*
X112224620Y-100616733D01*
X112238469Y-100642642D01*
X112246998Y-100670760D01*
X112250000Y-100701233D01*
X112250000Y-102498767D01*
X112246998Y-102529240D01*
X112238469Y-102557358D01*
X112224620Y-102583267D01*
X112205980Y-102605980D01*
X112183267Y-102624620D01*
X112157358Y-102638469D01*
X112129240Y-102646998D01*
X112098767Y-102650000D01*
X111751233Y-102650000D01*
X111720760Y-102646998D01*
X111692642Y-102638469D01*
X111666733Y-102624620D01*
X111644020Y-102605980D01*
X111625380Y-102583267D01*
X111611531Y-102557358D01*
X111603002Y-102529240D01*
X111600000Y-102498767D01*
X111600000Y-100701233D01*
X111603002Y-100670760D01*
X111611531Y-100642642D01*
X111625380Y-100616733D01*
X111644020Y-100594020D01*
X111666733Y-100575380D01*
X111692642Y-100561531D01*
X111720760Y-100553002D01*
X111751233Y-100550000D01*
X112098767Y-100550000D01*
X112129240Y-100553002D01*
X112129240Y-100553002D01*
G37*
G36*
X113399240Y-100553002D02*
G01*
X113427358Y-100561531D01*
X113453267Y-100575380D01*
X113475980Y-100594020D01*
X113494620Y-100616733D01*
X113508469Y-100642642D01*
X113516998Y-100670760D01*
X113520000Y-100701233D01*
X113520000Y-102498767D01*
X113516998Y-102529240D01*
X113508469Y-102557358D01*
X113494620Y-102583267D01*
X113475980Y-102605980D01*
X113453267Y-102624620D01*
X113427358Y-102638469D01*
X113399240Y-102646998D01*
X113368767Y-102650000D01*
X113021233Y-102650000D01*
X112990760Y-102646998D01*
X112962642Y-102638469D01*
X112936733Y-102624620D01*
X112914020Y-102605980D01*
X112895380Y-102583267D01*
X112881531Y-102557358D01*
X112873002Y-102529240D01*
X112870000Y-102498767D01*
X112870000Y-100701233D01*
X112873002Y-100670760D01*
X112881531Y-100642642D01*
X112895380Y-100616733D01*
X112914020Y-100594020D01*
X112936733Y-100575380D01*
X112962642Y-100561531D01*
X112990760Y-100553002D01*
X113021233Y-100550000D01*
X113368767Y-100550000D01*
X113399240Y-100553002D01*
X113399240Y-100553002D01*
G37*
G36*
X110859240Y-100553002D02*
G01*
X110887358Y-100561531D01*
X110913267Y-100575380D01*
X110935980Y-100594020D01*
X110954620Y-100616733D01*
X110968469Y-100642642D01*
X110976998Y-100670760D01*
X110980000Y-100701233D01*
X110980000Y-102498767D01*
X110976998Y-102529240D01*
X110968469Y-102557358D01*
X110954620Y-102583267D01*
X110935980Y-102605980D01*
X110913267Y-102624620D01*
X110887358Y-102638469D01*
X110859240Y-102646998D01*
X110828767Y-102650000D01*
X110481233Y-102650000D01*
X110450760Y-102646998D01*
X110422642Y-102638469D01*
X110396733Y-102624620D01*
X110374020Y-102605980D01*
X110355380Y-102583267D01*
X110341531Y-102557358D01*
X110333002Y-102529240D01*
X110330000Y-102498767D01*
X110330000Y-100701233D01*
X110333002Y-100670760D01*
X110341531Y-100642642D01*
X110355380Y-100616733D01*
X110374020Y-100594020D01*
X110396733Y-100575380D01*
X110422642Y-100561531D01*
X110450760Y-100553002D01*
X110481233Y-100550000D01*
X110828767Y-100550000D01*
X110859240Y-100553002D01*
X110859240Y-100553002D01*
G37*
G36*
X185225000Y-102625000D02*
G01*
X184275000Y-102625000D01*
X184275000Y-101775000D01*
X185225000Y-101775000D01*
X185225000Y-102625000D01*
X185225000Y-102625000D01*
G37*
G36*
X204073904Y-101504323D02*
G01*
X204114916Y-101516763D01*
X204152713Y-101536966D01*
X204185844Y-101564156D01*
X204213034Y-101597287D01*
X204233237Y-101635084D01*
X204245677Y-101676096D01*
X204250000Y-101719983D01*
X204250000Y-102280017D01*
X204245677Y-102323904D01*
X204233237Y-102364916D01*
X204213034Y-102402713D01*
X204185844Y-102435844D01*
X204152713Y-102463034D01*
X204114916Y-102483237D01*
X204073904Y-102495677D01*
X204030017Y-102500000D01*
X203544983Y-102500000D01*
X203501096Y-102495677D01*
X203460084Y-102483237D01*
X203422287Y-102463034D01*
X203389156Y-102435844D01*
X203361966Y-102402713D01*
X203341763Y-102364916D01*
X203329323Y-102323904D01*
X203325000Y-102280017D01*
X203325000Y-101719983D01*
X203329323Y-101676096D01*
X203341763Y-101635084D01*
X203361966Y-101597287D01*
X203389156Y-101564156D01*
X203422287Y-101536966D01*
X203460084Y-101516763D01*
X203501096Y-101504323D01*
X203544983Y-101500000D01*
X204030017Y-101500000D01*
X204073904Y-101504323D01*
X204073904Y-101504323D01*
G37*
G36*
X202498904Y-101504323D02*
G01*
X202539916Y-101516763D01*
X202577713Y-101536966D01*
X202610844Y-101564156D01*
X202638034Y-101597287D01*
X202658237Y-101635084D01*
X202670677Y-101676096D01*
X202675000Y-101719983D01*
X202675000Y-102280017D01*
X202670677Y-102323904D01*
X202658237Y-102364916D01*
X202638034Y-102402713D01*
X202610844Y-102435844D01*
X202577713Y-102463034D01*
X202539916Y-102483237D01*
X202498904Y-102495677D01*
X202455017Y-102500000D01*
X201969983Y-102500000D01*
X201926096Y-102495677D01*
X201885084Y-102483237D01*
X201847287Y-102463034D01*
X201814156Y-102435844D01*
X201786966Y-102402713D01*
X201766763Y-102364916D01*
X201754323Y-102323904D01*
X201750000Y-102280017D01*
X201750000Y-101719983D01*
X201754323Y-101676096D01*
X201766763Y-101635084D01*
X201786966Y-101597287D01*
X201814156Y-101564156D01*
X201847287Y-101536966D01*
X201885084Y-101516763D01*
X201926096Y-101504323D01*
X201969983Y-101500000D01*
X202455017Y-101500000D01*
X202498904Y-101504323D01*
X202498904Y-101504323D01*
G37*
G36*
X205748904Y-101504323D02*
G01*
X205789916Y-101516763D01*
X205827713Y-101536966D01*
X205860844Y-101564156D01*
X205888034Y-101597287D01*
X205908237Y-101635084D01*
X205920677Y-101676096D01*
X205925000Y-101719983D01*
X205925000Y-102280017D01*
X205920677Y-102323904D01*
X205908237Y-102364916D01*
X205888034Y-102402713D01*
X205860844Y-102435844D01*
X205827713Y-102463034D01*
X205789916Y-102483237D01*
X205748904Y-102495677D01*
X205705017Y-102500000D01*
X205219983Y-102500000D01*
X205176096Y-102495677D01*
X205135084Y-102483237D01*
X205097287Y-102463034D01*
X205064156Y-102435844D01*
X205036966Y-102402713D01*
X205016763Y-102364916D01*
X205004323Y-102323904D01*
X205000000Y-102280017D01*
X205000000Y-101719983D01*
X205004323Y-101676096D01*
X205016763Y-101635084D01*
X205036966Y-101597287D01*
X205064156Y-101564156D01*
X205097287Y-101536966D01*
X205135084Y-101516763D01*
X205176096Y-101504323D01*
X205219983Y-101500000D01*
X205705017Y-101500000D01*
X205748904Y-101504323D01*
X205748904Y-101504323D01*
G37*
G36*
X207323904Y-101504323D02*
G01*
X207364916Y-101516763D01*
X207402713Y-101536966D01*
X207435844Y-101564156D01*
X207463034Y-101597287D01*
X207483237Y-101635084D01*
X207495677Y-101676096D01*
X207500000Y-101719983D01*
X207500000Y-102280017D01*
X207495677Y-102323904D01*
X207483237Y-102364916D01*
X207463034Y-102402713D01*
X207435844Y-102435844D01*
X207402713Y-102463034D01*
X207364916Y-102483237D01*
X207323904Y-102495677D01*
X207280017Y-102500000D01*
X206794983Y-102500000D01*
X206751096Y-102495677D01*
X206710084Y-102483237D01*
X206672287Y-102463034D01*
X206639156Y-102435844D01*
X206611966Y-102402713D01*
X206591763Y-102364916D01*
X206579323Y-102323904D01*
X206575000Y-102280017D01*
X206575000Y-101719983D01*
X206579323Y-101676096D01*
X206591763Y-101635084D01*
X206611966Y-101597287D01*
X206639156Y-101564156D01*
X206672287Y-101536966D01*
X206710084Y-101516763D01*
X206751096Y-101504323D01*
X206794983Y-101500000D01*
X207280017Y-101500000D01*
X207323904Y-101504323D01*
X207323904Y-101504323D01*
G37*
G36*
X187225000Y-101675000D02*
G01*
X186275000Y-101675000D01*
X186275000Y-100825000D01*
X187225000Y-100825000D01*
X187225000Y-101675000D01*
X187225000Y-101675000D01*
G37*
G36*
X178131295Y-98329743D02*
G01*
X178176414Y-98343429D01*
X178217991Y-98365653D01*
X178254437Y-98395563D01*
X178284347Y-98432009D01*
X178306571Y-98473586D01*
X178320257Y-98518705D01*
X178325000Y-98566857D01*
X178325000Y-100783143D01*
X178320257Y-100831295D01*
X178306571Y-100876414D01*
X178284347Y-100917991D01*
X178254437Y-100954437D01*
X178217991Y-100984347D01*
X178176414Y-101006571D01*
X178131295Y-101020257D01*
X178083143Y-101025000D01*
X176916857Y-101025000D01*
X176868705Y-101020257D01*
X176823586Y-101006571D01*
X176782009Y-100984347D01*
X176745563Y-100954437D01*
X176715653Y-100917991D01*
X176693429Y-100876414D01*
X176679743Y-100831295D01*
X176675000Y-100783143D01*
X176675000Y-98566857D01*
X176679743Y-98518705D01*
X176693429Y-98473586D01*
X176715653Y-98432009D01*
X176745563Y-98395563D01*
X176782009Y-98365653D01*
X176823586Y-98343429D01*
X176868705Y-98329743D01*
X176916857Y-98325000D01*
X178083143Y-98325000D01*
X178131295Y-98329743D01*
X178131295Y-98329743D01*
G37*
G36*
X162823904Y-100079323D02*
G01*
X162864916Y-100091763D01*
X162902713Y-100111966D01*
X162935844Y-100139156D01*
X162963034Y-100172287D01*
X162983237Y-100210084D01*
X162995677Y-100251096D01*
X163000000Y-100294983D01*
X163000000Y-100780017D01*
X162995677Y-100823904D01*
X162983237Y-100864916D01*
X162963034Y-100902713D01*
X162935844Y-100935844D01*
X162902713Y-100963034D01*
X162864916Y-100983237D01*
X162823904Y-100995677D01*
X162780017Y-101000000D01*
X162219983Y-101000000D01*
X162176096Y-100995677D01*
X162135084Y-100983237D01*
X162097287Y-100963034D01*
X162064156Y-100935844D01*
X162036966Y-100902713D01*
X162016763Y-100864916D01*
X162004323Y-100823904D01*
X162000000Y-100780017D01*
X162000000Y-100294983D01*
X162004323Y-100251096D01*
X162016763Y-100210084D01*
X162036966Y-100172287D01*
X162064156Y-100139156D01*
X162097287Y-100111966D01*
X162135084Y-100091763D01*
X162176096Y-100079323D01*
X162219983Y-100075000D01*
X162780017Y-100075000D01*
X162823904Y-100079323D01*
X162823904Y-100079323D01*
G37*
G36*
X160823904Y-100079323D02*
G01*
X160864916Y-100091763D01*
X160902713Y-100111966D01*
X160935844Y-100139156D01*
X160963034Y-100172287D01*
X160983237Y-100210084D01*
X160995677Y-100251096D01*
X161000000Y-100294983D01*
X161000000Y-100780017D01*
X160995677Y-100823904D01*
X160983237Y-100864916D01*
X160963034Y-100902713D01*
X160935844Y-100935844D01*
X160902713Y-100963034D01*
X160864916Y-100983237D01*
X160823904Y-100995677D01*
X160780017Y-101000000D01*
X160219983Y-101000000D01*
X160176096Y-100995677D01*
X160135084Y-100983237D01*
X160097287Y-100963034D01*
X160064156Y-100935844D01*
X160036966Y-100902713D01*
X160016763Y-100864916D01*
X160004323Y-100823904D01*
X160000000Y-100780017D01*
X160000000Y-100294983D01*
X160004323Y-100251096D01*
X160016763Y-100210084D01*
X160036966Y-100172287D01*
X160064156Y-100139156D01*
X160097287Y-100111966D01*
X160135084Y-100091763D01*
X160176096Y-100079323D01*
X160219983Y-100075000D01*
X160780017Y-100075000D01*
X160823904Y-100079323D01*
X160823904Y-100079323D01*
G37*
G36*
X159323904Y-100079323D02*
G01*
X159364916Y-100091763D01*
X159402713Y-100111966D01*
X159435844Y-100139156D01*
X159463034Y-100172287D01*
X159483237Y-100210084D01*
X159495677Y-100251096D01*
X159500000Y-100294983D01*
X159500000Y-100780017D01*
X159495677Y-100823904D01*
X159483237Y-100864916D01*
X159463034Y-100902713D01*
X159435844Y-100935844D01*
X159402713Y-100963034D01*
X159364916Y-100983237D01*
X159323904Y-100995677D01*
X159280017Y-101000000D01*
X158719983Y-101000000D01*
X158676096Y-100995677D01*
X158635084Y-100983237D01*
X158597287Y-100963034D01*
X158564156Y-100935844D01*
X158536966Y-100902713D01*
X158516763Y-100864916D01*
X158504323Y-100823904D01*
X158500000Y-100780017D01*
X158500000Y-100294983D01*
X158504323Y-100251096D01*
X158516763Y-100210084D01*
X158536966Y-100172287D01*
X158564156Y-100139156D01*
X158597287Y-100111966D01*
X158635084Y-100091763D01*
X158676096Y-100079323D01*
X158719983Y-100075000D01*
X159280017Y-100075000D01*
X159323904Y-100079323D01*
X159323904Y-100079323D01*
G37*
G36*
X173775984Y-99554870D02*
G01*
X173822343Y-99568932D01*
X173865061Y-99591766D01*
X173902505Y-99622495D01*
X173933234Y-99659939D01*
X173956068Y-99702657D01*
X173970130Y-99749016D01*
X173975000Y-99798454D01*
X173975000Y-100476546D01*
X173970130Y-100525984D01*
X173956068Y-100572343D01*
X173933234Y-100615061D01*
X173902505Y-100652505D01*
X173865061Y-100683234D01*
X173822343Y-100706068D01*
X173775984Y-100720130D01*
X173726546Y-100725000D01*
X170773454Y-100725000D01*
X170724016Y-100720130D01*
X170677657Y-100706068D01*
X170634939Y-100683234D01*
X170597495Y-100652505D01*
X170566766Y-100615061D01*
X170543932Y-100572343D01*
X170529870Y-100525984D01*
X170525000Y-100476546D01*
X170525000Y-99798454D01*
X170529870Y-99749016D01*
X170543932Y-99702657D01*
X170566766Y-99659939D01*
X170597495Y-99622495D01*
X170634939Y-99591766D01*
X170677657Y-99568932D01*
X170724016Y-99554870D01*
X170773454Y-99550000D01*
X173726546Y-99550000D01*
X173775984Y-99554870D01*
X173775984Y-99554870D01*
G37*
G36*
X185225000Y-100725000D02*
G01*
X184275000Y-100725000D01*
X184275000Y-99875000D01*
X185225000Y-99875000D01*
X185225000Y-100725000D01*
X185225000Y-100725000D01*
G37*
G36*
X191381295Y-97979743D02*
G01*
X191426414Y-97993429D01*
X191467991Y-98015653D01*
X191504437Y-98045563D01*
X191534347Y-98082009D01*
X191556571Y-98123586D01*
X191570257Y-98168705D01*
X191575000Y-98216857D01*
X191575000Y-100433143D01*
X191570257Y-100481295D01*
X191556571Y-100526414D01*
X191534347Y-100567991D01*
X191504437Y-100604437D01*
X191467991Y-100634347D01*
X191426414Y-100656571D01*
X191381295Y-100670257D01*
X191333143Y-100675000D01*
X190166857Y-100675000D01*
X190118705Y-100670257D01*
X190073586Y-100656571D01*
X190032009Y-100634347D01*
X189995563Y-100604437D01*
X189965653Y-100567991D01*
X189943429Y-100526414D01*
X189929743Y-100481295D01*
X189925000Y-100433143D01*
X189925000Y-98216857D01*
X189929743Y-98168705D01*
X189943429Y-98123586D01*
X189965653Y-98082009D01*
X189995563Y-98045563D01*
X190032009Y-98015653D01*
X190073586Y-97993429D01*
X190118705Y-97979743D01*
X190166857Y-97975000D01*
X191333143Y-97975000D01*
X191381295Y-97979743D01*
X191381295Y-97979743D01*
G37*
G36*
X87445000Y-100375000D02*
G01*
X86395000Y-100375000D01*
X86395000Y-97125000D01*
X87445000Y-97125000D01*
X87445000Y-100375000D01*
X87445000Y-100375000D01*
G37*
G36*
X92525000Y-100375000D02*
G01*
X91475000Y-100375000D01*
X91475000Y-97125000D01*
X92525000Y-97125000D01*
X92525000Y-100375000D01*
X92525000Y-100375000D01*
G37*
G36*
X89985000Y-100375000D02*
G01*
X88935000Y-100375000D01*
X88935000Y-97125000D01*
X89985000Y-97125000D01*
X89985000Y-100375000D01*
X89985000Y-100375000D01*
G37*
G36*
X84905000Y-100375000D02*
G01*
X83855000Y-100375000D01*
X83855000Y-97125000D01*
X84905000Y-97125000D01*
X84905000Y-100375000D01*
X84905000Y-100375000D01*
G37*
G36*
X82365000Y-100375000D02*
G01*
X81315000Y-100375000D01*
X81315000Y-97125000D01*
X82365000Y-97125000D01*
X82365000Y-100375000D01*
X82365000Y-100375000D01*
G37*
G36*
X77285000Y-100375000D02*
G01*
X76235000Y-100375000D01*
X76235000Y-97125000D01*
X77285000Y-97125000D01*
X77285000Y-100375000D01*
X77285000Y-100375000D01*
G37*
G36*
X229525000Y-100375000D02*
G01*
X228475000Y-100375000D01*
X228475000Y-97125000D01*
X229525000Y-97125000D01*
X229525000Y-100375000D01*
X229525000Y-100375000D01*
G37*
G36*
X226985000Y-100375000D02*
G01*
X225935000Y-100375000D01*
X225935000Y-97125000D01*
X226985000Y-97125000D01*
X226985000Y-100375000D01*
X226985000Y-100375000D01*
G37*
G36*
X221905000Y-100375000D02*
G01*
X220855000Y-100375000D01*
X220855000Y-97125000D01*
X221905000Y-97125000D01*
X221905000Y-100375000D01*
X221905000Y-100375000D01*
G37*
G36*
X219365000Y-100375000D02*
G01*
X218315000Y-100375000D01*
X218315000Y-97125000D01*
X219365000Y-97125000D01*
X219365000Y-100375000D01*
X219365000Y-100375000D01*
G37*
G36*
X216825000Y-100375000D02*
G01*
X215775000Y-100375000D01*
X215775000Y-97125000D01*
X216825000Y-97125000D01*
X216825000Y-100375000D01*
X216825000Y-100375000D01*
G37*
G36*
X214285000Y-100375000D02*
G01*
X213235000Y-100375000D01*
X213235000Y-97125000D01*
X214285000Y-97125000D01*
X214285000Y-100375000D01*
X214285000Y-100375000D01*
G37*
G36*
X79825000Y-100375000D02*
G01*
X78775000Y-100375000D01*
X78775000Y-97125000D01*
X79825000Y-97125000D01*
X79825000Y-100375000D01*
X79825000Y-100375000D01*
G37*
G36*
X211745000Y-100375000D02*
G01*
X210695000Y-100375000D01*
X210695000Y-97125000D01*
X211745000Y-97125000D01*
X211745000Y-100375000D01*
X211745000Y-100375000D01*
G37*
G36*
X74745000Y-100375000D02*
G01*
X73695000Y-100375000D01*
X73695000Y-97125000D01*
X74745000Y-97125000D01*
X74745000Y-100375000D01*
X74745000Y-100375000D01*
G37*
G36*
X224445000Y-100375000D02*
G01*
X223395000Y-100375000D01*
X223395000Y-97125000D01*
X224445000Y-97125000D01*
X224445000Y-100375000D01*
X224445000Y-100375000D01*
G37*
G36*
X245350000Y-100205000D02*
G01*
X243550000Y-100205000D01*
X243550000Y-99605000D01*
X245350000Y-99605000D01*
X245350000Y-100205000D01*
X245350000Y-100205000D01*
G37*
G36*
X237950000Y-100205000D02*
G01*
X236150000Y-100205000D01*
X236150000Y-99605000D01*
X237950000Y-99605000D01*
X237950000Y-100205000D01*
X237950000Y-100205000D01*
G37*
G36*
X182125000Y-99625000D02*
G01*
X180875000Y-99625000D01*
X180875000Y-98675000D01*
X182125000Y-98675000D01*
X182125000Y-99625000D01*
X182125000Y-99625000D01*
G37*
G36*
X162823904Y-98504323D02*
G01*
X162864916Y-98516763D01*
X162902713Y-98536966D01*
X162935844Y-98564156D01*
X162963034Y-98597287D01*
X162983237Y-98635084D01*
X162995677Y-98676096D01*
X163000000Y-98719983D01*
X163000000Y-99205017D01*
X162995677Y-99248904D01*
X162983237Y-99289916D01*
X162963034Y-99327713D01*
X162935844Y-99360844D01*
X162902713Y-99388034D01*
X162864916Y-99408237D01*
X162823904Y-99420677D01*
X162780017Y-99425000D01*
X162219983Y-99425000D01*
X162176096Y-99420677D01*
X162135084Y-99408237D01*
X162097287Y-99388034D01*
X162064156Y-99360844D01*
X162036966Y-99327713D01*
X162016763Y-99289916D01*
X162004323Y-99248904D01*
X162000000Y-99205017D01*
X162000000Y-98719983D01*
X162004323Y-98676096D01*
X162016763Y-98635084D01*
X162036966Y-98597287D01*
X162064156Y-98564156D01*
X162097287Y-98536966D01*
X162135084Y-98516763D01*
X162176096Y-98504323D01*
X162219983Y-98500000D01*
X162780017Y-98500000D01*
X162823904Y-98504323D01*
X162823904Y-98504323D01*
G37*
G36*
X159323904Y-98504323D02*
G01*
X159364916Y-98516763D01*
X159402713Y-98536966D01*
X159435844Y-98564156D01*
X159463034Y-98597287D01*
X159483237Y-98635084D01*
X159495677Y-98676096D01*
X159500000Y-98719983D01*
X159500000Y-99205017D01*
X159495677Y-99248904D01*
X159483237Y-99289916D01*
X159463034Y-99327713D01*
X159435844Y-99360844D01*
X159402713Y-99388034D01*
X159364916Y-99408237D01*
X159323904Y-99420677D01*
X159280017Y-99425000D01*
X158719983Y-99425000D01*
X158676096Y-99420677D01*
X158635084Y-99408237D01*
X158597287Y-99388034D01*
X158564156Y-99360844D01*
X158536966Y-99327713D01*
X158516763Y-99289916D01*
X158504323Y-99248904D01*
X158500000Y-99205017D01*
X158500000Y-98719983D01*
X158504323Y-98676096D01*
X158516763Y-98635084D01*
X158536966Y-98597287D01*
X158564156Y-98564156D01*
X158597287Y-98536966D01*
X158635084Y-98516763D01*
X158676096Y-98504323D01*
X158719983Y-98500000D01*
X159280017Y-98500000D01*
X159323904Y-98504323D01*
X159323904Y-98504323D01*
G37*
G36*
X160823904Y-98504323D02*
G01*
X160864916Y-98516763D01*
X160902713Y-98536966D01*
X160935844Y-98564156D01*
X160963034Y-98597287D01*
X160983237Y-98635084D01*
X160995677Y-98676096D01*
X161000000Y-98719983D01*
X161000000Y-99205017D01*
X160995677Y-99248904D01*
X160983237Y-99289916D01*
X160963034Y-99327713D01*
X160935844Y-99360844D01*
X160902713Y-99388034D01*
X160864916Y-99408237D01*
X160823904Y-99420677D01*
X160780017Y-99425000D01*
X160219983Y-99425000D01*
X160176096Y-99420677D01*
X160135084Y-99408237D01*
X160097287Y-99388034D01*
X160064156Y-99360844D01*
X160036966Y-99327713D01*
X160016763Y-99289916D01*
X160004323Y-99248904D01*
X160000000Y-99205017D01*
X160000000Y-98719983D01*
X160004323Y-98676096D01*
X160016763Y-98635084D01*
X160036966Y-98597287D01*
X160064156Y-98564156D01*
X160097287Y-98536966D01*
X160135084Y-98516763D01*
X160176096Y-98504323D01*
X160219983Y-98500000D01*
X160780017Y-98500000D01*
X160823904Y-98504323D01*
X160823904Y-98504323D01*
G37*
G36*
X245350000Y-98935000D02*
G01*
X243550000Y-98935000D01*
X243550000Y-98335000D01*
X245350000Y-98335000D01*
X245350000Y-98935000D01*
X245350000Y-98935000D01*
G37*
G36*
X237950000Y-98935000D02*
G01*
X236150000Y-98935000D01*
X236150000Y-98335000D01*
X237950000Y-98335000D01*
X237950000Y-98935000D01*
X237950000Y-98935000D01*
G37*
G36*
X69270372Y-95498904D02*
G01*
X69444827Y-95533605D01*
X69692096Y-95636027D01*
X69722358Y-95648562D01*
X69972131Y-95815455D01*
X70184545Y-96027869D01*
X70257906Y-96137662D01*
X70351438Y-96277642D01*
X70466395Y-96555173D01*
X70485297Y-96650199D01*
X70525000Y-96849801D01*
X70525000Y-97150199D01*
X70512501Y-97213034D01*
X70466395Y-97444827D01*
X70402332Y-97599489D01*
X70351438Y-97722358D01*
X70184545Y-97972131D01*
X69972131Y-98184545D01*
X69899894Y-98232812D01*
X69722358Y-98351438D01*
X69444827Y-98466395D01*
X69355556Y-98484152D01*
X69150199Y-98525000D01*
X68849801Y-98525000D01*
X68644444Y-98484152D01*
X68555173Y-98466395D01*
X68277642Y-98351438D01*
X68100106Y-98232812D01*
X68027869Y-98184545D01*
X67815455Y-97972131D01*
X67648562Y-97722358D01*
X67597668Y-97599489D01*
X67533605Y-97444827D01*
X67487499Y-97213034D01*
X67475000Y-97150199D01*
X67475000Y-96849801D01*
X67514703Y-96650199D01*
X67533605Y-96555173D01*
X67648562Y-96277642D01*
X67742094Y-96137662D01*
X67815455Y-96027869D01*
X68027869Y-95815455D01*
X68277642Y-95648562D01*
X68307904Y-95636027D01*
X68555173Y-95533605D01*
X68729628Y-95498904D01*
X68849801Y-95475000D01*
X69150199Y-95475000D01*
X69270372Y-95498904D01*
X69270372Y-95498904D01*
G37*
G36*
X114798982Y-96014390D02*
G01*
X114985520Y-96091656D01*
X115153400Y-96203830D01*
X115296170Y-96346600D01*
X115408344Y-96514480D01*
X115485610Y-96701018D01*
X115525000Y-96899046D01*
X115525000Y-97100954D01*
X115485610Y-97298982D01*
X115408344Y-97485520D01*
X115296170Y-97653400D01*
X115153400Y-97796170D01*
X114985520Y-97908344D01*
X114798982Y-97985610D01*
X114600954Y-98025000D01*
X114399046Y-98025000D01*
X114201018Y-97985610D01*
X114014480Y-97908344D01*
X113846600Y-97796170D01*
X113703830Y-97653400D01*
X113591656Y-97485520D01*
X113514390Y-97298982D01*
X113475000Y-97100954D01*
X113475000Y-96899046D01*
X113514390Y-96701018D01*
X113591656Y-96514480D01*
X113703830Y-96346600D01*
X113846600Y-96203830D01*
X114014480Y-96091656D01*
X114201018Y-96014390D01*
X114399046Y-95975000D01*
X114600954Y-95975000D01*
X114798982Y-96014390D01*
X114798982Y-96014390D01*
G37*
G36*
X106298982Y-96014390D02*
G01*
X106485520Y-96091656D01*
X106653400Y-96203830D01*
X106796170Y-96346600D01*
X106908344Y-96514480D01*
X106985610Y-96701018D01*
X107025000Y-96899046D01*
X107025000Y-97100954D01*
X106985610Y-97298982D01*
X106908344Y-97485520D01*
X106796170Y-97653400D01*
X106653400Y-97796170D01*
X106485520Y-97908344D01*
X106298982Y-97985610D01*
X106100954Y-98025000D01*
X105899046Y-98025000D01*
X105701018Y-97985610D01*
X105514480Y-97908344D01*
X105346600Y-97796170D01*
X105203830Y-97653400D01*
X105091656Y-97485520D01*
X105014390Y-97298982D01*
X104975000Y-97100954D01*
X104975000Y-96899046D01*
X105014390Y-96701018D01*
X105091656Y-96514480D01*
X105203830Y-96346600D01*
X105346600Y-96203830D01*
X105514480Y-96091656D01*
X105701018Y-96014390D01*
X105899046Y-95975000D01*
X106100954Y-95975000D01*
X106298982Y-96014390D01*
X106298982Y-96014390D01*
G37*
G36*
X233048982Y-96014390D02*
G01*
X233235520Y-96091656D01*
X233403400Y-96203830D01*
X233546170Y-96346600D01*
X233658344Y-96514480D01*
X233735610Y-96701018D01*
X233775000Y-96899046D01*
X233775000Y-97100954D01*
X233735610Y-97298982D01*
X233658344Y-97485520D01*
X233546170Y-97653400D01*
X233403400Y-97796170D01*
X233235520Y-97908344D01*
X233048982Y-97985610D01*
X232850954Y-98025000D01*
X232649046Y-98025000D01*
X232451018Y-97985610D01*
X232264480Y-97908344D01*
X232096600Y-97796170D01*
X231953830Y-97653400D01*
X231841656Y-97485520D01*
X231764390Y-97298982D01*
X231725000Y-97100954D01*
X231725000Y-96899046D01*
X231764390Y-96701018D01*
X231841656Y-96514480D01*
X231953830Y-96346600D01*
X232096600Y-96203830D01*
X232264480Y-96091656D01*
X232451018Y-96014390D01*
X232649046Y-95975000D01*
X232850954Y-95975000D01*
X233048982Y-96014390D01*
X233048982Y-96014390D01*
G37*
G36*
X196248860Y-94994625D02*
G01*
X196444827Y-95033605D01*
X196687569Y-95134152D01*
X196722358Y-95148562D01*
X196972131Y-95315455D01*
X197184545Y-95527869D01*
X197325528Y-95738865D01*
X197351438Y-95777642D01*
X197466395Y-96055173D01*
X197480284Y-96125000D01*
X197525000Y-96349801D01*
X197525000Y-96650199D01*
X197496201Y-96794983D01*
X197466395Y-96944827D01*
X197382559Y-97147226D01*
X197351438Y-97222358D01*
X197184545Y-97472131D01*
X196972131Y-97684545D01*
X196805075Y-97796168D01*
X196722358Y-97851438D01*
X196444827Y-97966395D01*
X196348231Y-97985609D01*
X196150199Y-98025000D01*
X195849801Y-98025000D01*
X195651769Y-97985609D01*
X195555173Y-97966395D01*
X195277642Y-97851438D01*
X195194925Y-97796168D01*
X195027869Y-97684545D01*
X194815455Y-97472131D01*
X194648562Y-97222358D01*
X194617441Y-97147226D01*
X194533605Y-96944827D01*
X194503799Y-96794983D01*
X194475000Y-96650199D01*
X194475000Y-96349801D01*
X194519716Y-96125000D01*
X194533605Y-96055173D01*
X194648562Y-95777642D01*
X194674472Y-95738865D01*
X194815455Y-95527869D01*
X195027869Y-95315455D01*
X195277642Y-95148562D01*
X195312431Y-95134152D01*
X195555173Y-95033605D01*
X195751140Y-94994625D01*
X195849801Y-94975000D01*
X196150199Y-94975000D01*
X196248860Y-94994625D01*
X196248860Y-94994625D01*
G37*
G36*
X110548982Y-96014390D02*
G01*
X110735520Y-96091656D01*
X110903400Y-96203830D01*
X111046170Y-96346600D01*
X111158344Y-96514480D01*
X111235610Y-96701018D01*
X111275000Y-96899046D01*
X111275000Y-97100954D01*
X111235610Y-97298982D01*
X111158344Y-97485520D01*
X111046170Y-97653400D01*
X110903400Y-97796170D01*
X110735520Y-97908344D01*
X110548982Y-97985610D01*
X110350954Y-98025000D01*
X110149046Y-98025000D01*
X109951018Y-97985610D01*
X109764480Y-97908344D01*
X109596600Y-97796170D01*
X109453830Y-97653400D01*
X109341656Y-97485520D01*
X109264390Y-97298982D01*
X109225000Y-97100954D01*
X109225000Y-96899046D01*
X109264390Y-96701018D01*
X109341656Y-96514480D01*
X109453830Y-96346600D01*
X109596600Y-96203830D01*
X109764480Y-96091656D01*
X109951018Y-96014390D01*
X110149046Y-95975000D01*
X110350954Y-95975000D01*
X110548982Y-96014390D01*
X110548982Y-96014390D01*
G37*
G36*
X97798982Y-96014390D02*
G01*
X97985520Y-96091656D01*
X98153400Y-96203830D01*
X98296170Y-96346600D01*
X98408344Y-96514480D01*
X98485610Y-96701018D01*
X98525000Y-96899046D01*
X98525000Y-97100954D01*
X98485610Y-97298982D01*
X98408344Y-97485520D01*
X98296170Y-97653400D01*
X98153400Y-97796170D01*
X97985520Y-97908344D01*
X97798982Y-97985610D01*
X97600954Y-98025000D01*
X97399046Y-98025000D01*
X97201018Y-97985610D01*
X97014480Y-97908344D01*
X96846600Y-97796170D01*
X96703830Y-97653400D01*
X96591656Y-97485520D01*
X96514390Y-97298982D01*
X96475000Y-97100954D01*
X96475000Y-96899046D01*
X96514390Y-96701018D01*
X96591656Y-96514480D01*
X96703830Y-96346600D01*
X96846600Y-96203830D01*
X97014480Y-96091656D01*
X97201018Y-96014390D01*
X97399046Y-95975000D01*
X97600954Y-95975000D01*
X97798982Y-96014390D01*
X97798982Y-96014390D01*
G37*
G36*
X102048982Y-96014390D02*
G01*
X102235520Y-96091656D01*
X102403400Y-96203830D01*
X102546170Y-96346600D01*
X102658344Y-96514480D01*
X102735610Y-96701018D01*
X102775000Y-96899046D01*
X102775000Y-97100954D01*
X102735610Y-97298982D01*
X102658344Y-97485520D01*
X102546170Y-97653400D01*
X102403400Y-97796170D01*
X102235520Y-97908344D01*
X102048982Y-97985610D01*
X101850954Y-98025000D01*
X101649046Y-98025000D01*
X101451018Y-97985610D01*
X101264480Y-97908344D01*
X101096600Y-97796170D01*
X100953830Y-97653400D01*
X100841656Y-97485520D01*
X100764390Y-97298982D01*
X100725000Y-97100954D01*
X100725000Y-96899046D01*
X100764390Y-96701018D01*
X100841656Y-96514480D01*
X100953830Y-96346600D01*
X101096600Y-96203830D01*
X101264480Y-96091656D01*
X101451018Y-96014390D01*
X101649046Y-95975000D01*
X101850954Y-95975000D01*
X102048982Y-96014390D01*
X102048982Y-96014390D01*
G37*
G36*
X152048982Y-96014390D02*
G01*
X152235520Y-96091656D01*
X152403400Y-96203830D01*
X152546170Y-96346600D01*
X152658344Y-96514480D01*
X152735610Y-96701018D01*
X152775000Y-96899046D01*
X152775000Y-97100954D01*
X152735610Y-97298982D01*
X152658344Y-97485520D01*
X152546170Y-97653400D01*
X152403400Y-97796170D01*
X152235520Y-97908344D01*
X152048982Y-97985610D01*
X151850954Y-98025000D01*
X151649046Y-98025000D01*
X151451018Y-97985610D01*
X151264480Y-97908344D01*
X151096600Y-97796170D01*
X150953830Y-97653400D01*
X150841656Y-97485520D01*
X150764390Y-97298982D01*
X150725000Y-97100954D01*
X150725000Y-96899046D01*
X150764390Y-96701018D01*
X150841656Y-96514480D01*
X150953830Y-96346600D01*
X151096600Y-96203830D01*
X151264480Y-96091656D01*
X151451018Y-96014390D01*
X151649046Y-95975000D01*
X151850954Y-95975000D01*
X152048982Y-96014390D01*
X152048982Y-96014390D01*
G37*
G36*
X145298982Y-96014390D02*
G01*
X145485520Y-96091656D01*
X145653400Y-96203830D01*
X145796170Y-96346600D01*
X145908344Y-96514480D01*
X145985610Y-96701018D01*
X146025000Y-96899046D01*
X146025000Y-97100954D01*
X145985610Y-97298982D01*
X145908344Y-97485520D01*
X145796170Y-97653400D01*
X145653400Y-97796170D01*
X145485520Y-97908344D01*
X145298982Y-97985610D01*
X145100954Y-98025000D01*
X144899046Y-98025000D01*
X144701018Y-97985610D01*
X144514480Y-97908344D01*
X144346600Y-97796170D01*
X144203830Y-97653400D01*
X144091656Y-97485520D01*
X144014390Y-97298982D01*
X143975000Y-97100954D01*
X143975000Y-96899046D01*
X144014390Y-96701018D01*
X144091656Y-96514480D01*
X144203830Y-96346600D01*
X144346600Y-96203830D01*
X144514480Y-96091656D01*
X144701018Y-96014390D01*
X144899046Y-95975000D01*
X145100954Y-95975000D01*
X145298982Y-96014390D01*
X145298982Y-96014390D01*
G37*
G36*
X119048982Y-96014390D02*
G01*
X119235520Y-96091656D01*
X119403400Y-96203830D01*
X119546170Y-96346600D01*
X119658344Y-96514480D01*
X119735610Y-96701018D01*
X119775000Y-96899046D01*
X119775000Y-97100954D01*
X119735610Y-97298982D01*
X119658344Y-97485520D01*
X119546170Y-97653400D01*
X119403400Y-97796170D01*
X119235520Y-97908344D01*
X119048982Y-97985610D01*
X118850954Y-98025000D01*
X118649046Y-98025000D01*
X118451018Y-97985610D01*
X118264480Y-97908344D01*
X118096600Y-97796170D01*
X117953830Y-97653400D01*
X117841656Y-97485520D01*
X117764390Y-97298982D01*
X117725000Y-97100954D01*
X117725000Y-96899046D01*
X117764390Y-96701018D01*
X117841656Y-96514480D01*
X117953830Y-96346600D01*
X118096600Y-96203830D01*
X118264480Y-96091656D01*
X118451018Y-96014390D01*
X118649046Y-95975000D01*
X118850954Y-95975000D01*
X119048982Y-96014390D01*
X119048982Y-96014390D01*
G37*
G36*
X205375000Y-97875000D02*
G01*
X203625000Y-97875000D01*
X203625000Y-96125000D01*
X205375000Y-96125000D01*
X205375000Y-97875000D01*
X205375000Y-97875000D01*
G37*
G36*
X202131530Y-96137661D02*
G01*
X202267464Y-96178897D01*
X202296472Y-96187696D01*
X202394007Y-96239830D01*
X202448476Y-96268944D01*
X202581712Y-96378288D01*
X202691056Y-96511524D01*
X202708940Y-96544983D01*
X202772304Y-96663528D01*
X202772305Y-96663532D01*
X202822339Y-96828470D01*
X202839233Y-97000000D01*
X202822339Y-97171530D01*
X202799846Y-97245677D01*
X202772304Y-97336472D01*
X202720632Y-97433143D01*
X202691056Y-97488476D01*
X202581712Y-97621712D01*
X202448476Y-97731056D01*
X202413034Y-97750000D01*
X202296472Y-97812304D01*
X202267464Y-97821104D01*
X202131530Y-97862339D01*
X202002979Y-97875000D01*
X201917021Y-97875000D01*
X201788470Y-97862339D01*
X201652536Y-97821104D01*
X201623528Y-97812304D01*
X201506966Y-97750000D01*
X201471524Y-97731056D01*
X201338288Y-97621712D01*
X201228944Y-97488476D01*
X201199368Y-97433143D01*
X201147696Y-97336472D01*
X201120154Y-97245677D01*
X201097661Y-97171530D01*
X201080767Y-97000000D01*
X201097661Y-96828470D01*
X201147695Y-96663532D01*
X201147696Y-96663528D01*
X201211060Y-96544983D01*
X201228944Y-96511524D01*
X201338288Y-96378288D01*
X201471524Y-96268944D01*
X201525993Y-96239830D01*
X201623528Y-96187696D01*
X201652536Y-96178897D01*
X201788470Y-96137661D01*
X201917021Y-96125000D01*
X202002979Y-96125000D01*
X202131530Y-96137661D01*
X202131530Y-96137661D01*
G37*
G36*
X184323904Y-96829323D02*
G01*
X184364916Y-96841763D01*
X184402713Y-96861966D01*
X184435844Y-96889156D01*
X184463034Y-96922287D01*
X184483237Y-96960084D01*
X184495677Y-97001096D01*
X184500000Y-97044983D01*
X184500000Y-97530017D01*
X184495677Y-97573904D01*
X184483237Y-97614916D01*
X184463034Y-97652713D01*
X184435844Y-97685844D01*
X184402713Y-97713034D01*
X184364916Y-97733237D01*
X184323904Y-97745677D01*
X184280017Y-97750000D01*
X183719983Y-97750000D01*
X183676096Y-97745677D01*
X183635084Y-97733237D01*
X183597287Y-97713034D01*
X183564156Y-97685844D01*
X183536966Y-97652713D01*
X183516763Y-97614916D01*
X183504323Y-97573904D01*
X183500000Y-97530017D01*
X183500000Y-97044983D01*
X183504323Y-97001096D01*
X183516763Y-96960084D01*
X183536966Y-96922287D01*
X183564156Y-96889156D01*
X183597287Y-96861966D01*
X183635084Y-96841763D01*
X183676096Y-96829323D01*
X183719983Y-96825000D01*
X184280017Y-96825000D01*
X184323904Y-96829323D01*
X184323904Y-96829323D01*
G37*
G36*
X167573904Y-96829323D02*
G01*
X167614916Y-96841763D01*
X167652713Y-96861966D01*
X167685844Y-96889156D01*
X167713034Y-96922287D01*
X167733237Y-96960084D01*
X167745677Y-97001096D01*
X167750000Y-97044983D01*
X167750000Y-97530017D01*
X167745677Y-97573904D01*
X167733237Y-97614916D01*
X167713034Y-97652713D01*
X167685844Y-97685844D01*
X167652713Y-97713034D01*
X167614916Y-97733237D01*
X167573904Y-97745677D01*
X167530017Y-97750000D01*
X166969983Y-97750000D01*
X166926096Y-97745677D01*
X166885084Y-97733237D01*
X166847287Y-97713034D01*
X166814156Y-97685844D01*
X166786966Y-97652713D01*
X166766763Y-97614916D01*
X166754323Y-97573904D01*
X166750000Y-97530017D01*
X166750000Y-97044983D01*
X166754323Y-97001096D01*
X166766763Y-96960084D01*
X166786966Y-96922287D01*
X166814156Y-96889156D01*
X166847287Y-96861966D01*
X166885084Y-96841763D01*
X166926096Y-96829323D01*
X166969983Y-96825000D01*
X167530017Y-96825000D01*
X167573904Y-96829323D01*
X167573904Y-96829323D01*
G37*
G36*
X169323904Y-96829323D02*
G01*
X169364916Y-96841763D01*
X169402713Y-96861966D01*
X169435844Y-96889156D01*
X169463034Y-96922287D01*
X169483237Y-96960084D01*
X169495677Y-97001096D01*
X169500000Y-97044983D01*
X169500000Y-97530017D01*
X169495677Y-97573904D01*
X169483237Y-97614916D01*
X169463034Y-97652713D01*
X169435844Y-97685844D01*
X169402713Y-97713034D01*
X169364916Y-97733237D01*
X169323904Y-97745677D01*
X169280017Y-97750000D01*
X168719983Y-97750000D01*
X168676096Y-97745677D01*
X168635084Y-97733237D01*
X168597287Y-97713034D01*
X168564156Y-97685844D01*
X168536966Y-97652713D01*
X168516763Y-97614916D01*
X168504323Y-97573904D01*
X168500000Y-97530017D01*
X168500000Y-97044983D01*
X168504323Y-97001096D01*
X168516763Y-96960084D01*
X168536966Y-96922287D01*
X168564156Y-96889156D01*
X168597287Y-96861966D01*
X168635084Y-96841763D01*
X168676096Y-96829323D01*
X168719983Y-96825000D01*
X169280017Y-96825000D01*
X169323904Y-96829323D01*
X169323904Y-96829323D01*
G37*
G36*
X178131295Y-94979743D02*
G01*
X178176414Y-94993429D01*
X178217991Y-95015653D01*
X178254437Y-95045563D01*
X178284347Y-95082009D01*
X178306571Y-95123586D01*
X178320257Y-95168705D01*
X178325000Y-95216857D01*
X178325000Y-97433143D01*
X178320257Y-97481295D01*
X178306571Y-97526414D01*
X178284347Y-97567991D01*
X178254437Y-97604437D01*
X178217991Y-97634347D01*
X178176414Y-97656571D01*
X178131295Y-97670257D01*
X178083143Y-97675000D01*
X176916857Y-97675000D01*
X176868705Y-97670257D01*
X176823586Y-97656571D01*
X176782009Y-97634347D01*
X176745563Y-97604437D01*
X176715653Y-97567991D01*
X176693429Y-97526414D01*
X176679743Y-97481295D01*
X176675000Y-97433143D01*
X176675000Y-95216857D01*
X176679743Y-95168705D01*
X176693429Y-95123586D01*
X176715653Y-95082009D01*
X176745563Y-95045563D01*
X176782009Y-95015653D01*
X176823586Y-94993429D01*
X176868705Y-94979743D01*
X176916857Y-94975000D01*
X178083143Y-94975000D01*
X178131295Y-94979743D01*
X178131295Y-94979743D01*
G37*
G36*
X237950000Y-97665000D02*
G01*
X236150000Y-97665000D01*
X236150000Y-97065000D01*
X237950000Y-97065000D01*
X237950000Y-97665000D01*
X237950000Y-97665000D01*
G37*
G36*
X245350000Y-97665000D02*
G01*
X243550000Y-97665000D01*
X243550000Y-97065000D01*
X245350000Y-97065000D01*
X245350000Y-97665000D01*
X245350000Y-97665000D01*
G37*
G36*
X161075000Y-97550000D02*
G01*
X160625000Y-97550000D01*
X160625000Y-96850000D01*
X161075000Y-96850000D01*
X161075000Y-97550000D01*
X161075000Y-97550000D01*
G37*
G36*
X161725000Y-97550000D02*
G01*
X161275000Y-97550000D01*
X161275000Y-96850000D01*
X161725000Y-96850000D01*
X161725000Y-97550000D01*
X161725000Y-97550000D01*
G37*
G36*
X162375000Y-97550000D02*
G01*
X161925000Y-97550000D01*
X161925000Y-96850000D01*
X162375000Y-96850000D01*
X162375000Y-97550000D01*
X162375000Y-97550000D01*
G37*
G36*
X188298982Y-95514390D02*
G01*
X188485520Y-95591656D01*
X188653400Y-95703830D01*
X188796170Y-95846600D01*
X188908344Y-96014480D01*
X188985610Y-96201018D01*
X189025000Y-96399046D01*
X189025000Y-96600954D01*
X188985610Y-96798982D01*
X188908344Y-96985520D01*
X188796170Y-97153400D01*
X188653400Y-97296170D01*
X188485520Y-97408344D01*
X188298982Y-97485610D01*
X188100954Y-97525000D01*
X187899046Y-97525000D01*
X187701018Y-97485610D01*
X187514480Y-97408344D01*
X187346600Y-97296170D01*
X187203830Y-97153400D01*
X187091656Y-96985520D01*
X187014390Y-96798982D01*
X186975000Y-96600954D01*
X186975000Y-96399046D01*
X187014390Y-96201018D01*
X187091656Y-96014480D01*
X187203830Y-95846600D01*
X187346600Y-95703830D01*
X187514480Y-95591656D01*
X187701018Y-95514390D01*
X187899046Y-95475000D01*
X188100954Y-95475000D01*
X188298982Y-95514390D01*
X188298982Y-95514390D01*
G37*
G36*
X158073904Y-96579323D02*
G01*
X158114916Y-96591763D01*
X158152713Y-96611966D01*
X158185844Y-96639156D01*
X158213034Y-96672287D01*
X158233237Y-96710084D01*
X158245677Y-96751096D01*
X158250000Y-96794983D01*
X158250000Y-97280017D01*
X158245677Y-97323904D01*
X158233237Y-97364916D01*
X158213034Y-97402713D01*
X158185844Y-97435844D01*
X158152713Y-97463034D01*
X158114916Y-97483237D01*
X158073904Y-97495677D01*
X158030017Y-97500000D01*
X157469983Y-97500000D01*
X157426096Y-97495677D01*
X157385084Y-97483237D01*
X157347287Y-97463034D01*
X157314156Y-97435844D01*
X157286966Y-97402713D01*
X157266763Y-97364916D01*
X157254323Y-97323904D01*
X157250000Y-97280017D01*
X157250000Y-96794983D01*
X157254323Y-96751096D01*
X157266763Y-96710084D01*
X157286966Y-96672287D01*
X157314156Y-96639156D01*
X157347287Y-96611966D01*
X157385084Y-96591763D01*
X157426096Y-96579323D01*
X157469983Y-96575000D01*
X158030017Y-96575000D01*
X158073904Y-96579323D01*
X158073904Y-96579323D01*
G37*
G36*
X159573904Y-96579323D02*
G01*
X159614916Y-96591763D01*
X159652713Y-96611966D01*
X159685844Y-96639156D01*
X159713034Y-96672287D01*
X159733237Y-96710084D01*
X159745677Y-96751096D01*
X159750000Y-96794983D01*
X159750000Y-97280017D01*
X159745677Y-97323904D01*
X159733237Y-97364916D01*
X159713034Y-97402713D01*
X159685844Y-97435844D01*
X159652713Y-97463034D01*
X159614916Y-97483237D01*
X159573904Y-97495677D01*
X159530017Y-97500000D01*
X158969983Y-97500000D01*
X158926096Y-97495677D01*
X158885084Y-97483237D01*
X158847287Y-97463034D01*
X158814156Y-97435844D01*
X158786966Y-97402713D01*
X158766763Y-97364916D01*
X158754323Y-97323904D01*
X158750000Y-97280017D01*
X158750000Y-96794983D01*
X158754323Y-96751096D01*
X158766763Y-96710084D01*
X158786966Y-96672287D01*
X158814156Y-96639156D01*
X158847287Y-96611966D01*
X158885084Y-96591763D01*
X158926096Y-96579323D01*
X158969983Y-96575000D01*
X159530017Y-96575000D01*
X159573904Y-96579323D01*
X159573904Y-96579323D01*
G37*
G36*
X164073904Y-96579323D02*
G01*
X164114916Y-96591763D01*
X164152713Y-96611966D01*
X164185844Y-96639156D01*
X164213034Y-96672287D01*
X164233237Y-96710084D01*
X164245677Y-96751096D01*
X164250000Y-96794983D01*
X164250000Y-97280017D01*
X164245677Y-97323904D01*
X164233237Y-97364916D01*
X164213034Y-97402713D01*
X164185844Y-97435844D01*
X164152713Y-97463034D01*
X164114916Y-97483237D01*
X164073904Y-97495677D01*
X164030017Y-97500000D01*
X163469983Y-97500000D01*
X163426096Y-97495677D01*
X163385084Y-97483237D01*
X163347287Y-97463034D01*
X163314156Y-97435844D01*
X163286966Y-97402713D01*
X163266763Y-97364916D01*
X163254323Y-97323904D01*
X163250000Y-97280017D01*
X163250000Y-96794983D01*
X163254323Y-96751096D01*
X163266763Y-96710084D01*
X163286966Y-96672287D01*
X163314156Y-96639156D01*
X163347287Y-96611966D01*
X163385084Y-96591763D01*
X163426096Y-96579323D01*
X163469983Y-96575000D01*
X164030017Y-96575000D01*
X164073904Y-96579323D01*
X164073904Y-96579323D01*
G37*
G36*
X208823904Y-96329323D02*
G01*
X208864916Y-96341763D01*
X208902713Y-96361966D01*
X208935844Y-96389156D01*
X208963034Y-96422287D01*
X208983237Y-96460084D01*
X208995677Y-96501096D01*
X209000000Y-96544983D01*
X209000000Y-97030017D01*
X208995677Y-97073904D01*
X208983237Y-97114916D01*
X208963034Y-97152713D01*
X208935844Y-97185844D01*
X208902713Y-97213034D01*
X208864916Y-97233237D01*
X208823904Y-97245677D01*
X208780017Y-97250000D01*
X208219983Y-97250000D01*
X208176096Y-97245677D01*
X208135084Y-97233237D01*
X208097287Y-97213034D01*
X208064156Y-97185844D01*
X208036966Y-97152713D01*
X208016763Y-97114916D01*
X208004323Y-97073904D01*
X208000000Y-97030017D01*
X208000000Y-96544983D01*
X208004323Y-96501096D01*
X208016763Y-96460084D01*
X208036966Y-96422287D01*
X208064156Y-96389156D01*
X208097287Y-96361966D01*
X208135084Y-96341763D01*
X208176096Y-96329323D01*
X208219983Y-96325000D01*
X208780017Y-96325000D01*
X208823904Y-96329323D01*
X208823904Y-96329323D01*
G37*
G36*
X191073904Y-96329323D02*
G01*
X191114916Y-96341763D01*
X191152713Y-96361966D01*
X191185844Y-96389156D01*
X191213034Y-96422287D01*
X191233237Y-96460084D01*
X191245677Y-96501096D01*
X191250000Y-96544983D01*
X191250000Y-97030017D01*
X191245677Y-97073904D01*
X191233237Y-97114916D01*
X191213034Y-97152713D01*
X191185844Y-97185844D01*
X191152713Y-97213034D01*
X191114916Y-97233237D01*
X191073904Y-97245677D01*
X191030017Y-97250000D01*
X190469983Y-97250000D01*
X190426096Y-97245677D01*
X190385084Y-97233237D01*
X190347287Y-97213034D01*
X190314156Y-97185844D01*
X190286966Y-97152713D01*
X190266763Y-97114916D01*
X190254323Y-97073904D01*
X190250000Y-97030017D01*
X190250000Y-96544983D01*
X190254323Y-96501096D01*
X190266763Y-96460084D01*
X190286966Y-96422287D01*
X190314156Y-96389156D01*
X190347287Y-96361966D01*
X190385084Y-96341763D01*
X190426096Y-96329323D01*
X190469983Y-96325000D01*
X191030017Y-96325000D01*
X191073904Y-96329323D01*
X191073904Y-96329323D01*
G37*
G36*
X173775984Y-95279870D02*
G01*
X173822343Y-95293932D01*
X173865061Y-95316766D01*
X173902505Y-95347495D01*
X173933234Y-95384939D01*
X173956068Y-95427657D01*
X173970130Y-95474016D01*
X173975000Y-95523454D01*
X173975000Y-96201546D01*
X173970130Y-96250984D01*
X173956068Y-96297343D01*
X173933234Y-96340061D01*
X173902505Y-96377505D01*
X173865061Y-96408234D01*
X173822343Y-96431068D01*
X173775984Y-96445130D01*
X173726546Y-96450000D01*
X170773454Y-96450000D01*
X170724016Y-96445130D01*
X170677657Y-96431068D01*
X170634939Y-96408234D01*
X170597495Y-96377505D01*
X170566766Y-96340061D01*
X170543932Y-96297343D01*
X170529870Y-96250984D01*
X170525000Y-96201546D01*
X170525000Y-95523454D01*
X170529870Y-95474016D01*
X170543932Y-95427657D01*
X170566766Y-95384939D01*
X170597495Y-95347495D01*
X170634939Y-95316766D01*
X170677657Y-95293932D01*
X170724016Y-95279870D01*
X170773454Y-95275000D01*
X173726546Y-95275000D01*
X173775984Y-95279870D01*
X173775984Y-95279870D01*
G37*
G36*
X237950000Y-96395000D02*
G01*
X236150000Y-96395000D01*
X236150000Y-95795000D01*
X237950000Y-95795000D01*
X237950000Y-96395000D01*
X237950000Y-96395000D01*
G37*
G36*
X245350000Y-96395000D02*
G01*
X243550000Y-96395000D01*
X243550000Y-95795000D01*
X245350000Y-95795000D01*
X245350000Y-96395000D01*
X245350000Y-96395000D01*
G37*
G36*
X182125000Y-96325000D02*
G01*
X180875000Y-96325000D01*
X180875000Y-95375000D01*
X182125000Y-95375000D01*
X182125000Y-96325000D01*
X182125000Y-96325000D01*
G37*
G36*
X184323904Y-95254323D02*
G01*
X184364916Y-95266763D01*
X184402713Y-95286966D01*
X184435844Y-95314156D01*
X184463034Y-95347287D01*
X184483237Y-95385084D01*
X184495677Y-95426096D01*
X184500000Y-95469983D01*
X184500000Y-95955017D01*
X184495677Y-95998904D01*
X184483237Y-96039916D01*
X184463034Y-96077713D01*
X184435844Y-96110844D01*
X184402713Y-96138034D01*
X184364916Y-96158237D01*
X184323904Y-96170677D01*
X184280017Y-96175000D01*
X183719983Y-96175000D01*
X183676096Y-96170677D01*
X183635084Y-96158237D01*
X183597287Y-96138034D01*
X183564156Y-96110844D01*
X183536966Y-96077713D01*
X183516763Y-96039916D01*
X183504323Y-95998904D01*
X183500000Y-95955017D01*
X183500000Y-95469983D01*
X183504323Y-95426096D01*
X183516763Y-95385084D01*
X183536966Y-95347287D01*
X183564156Y-95314156D01*
X183597287Y-95286966D01*
X183635084Y-95266763D01*
X183676096Y-95254323D01*
X183719983Y-95250000D01*
X184280017Y-95250000D01*
X184323904Y-95254323D01*
X184323904Y-95254323D01*
G37*
G36*
X169323904Y-95254323D02*
G01*
X169364916Y-95266763D01*
X169402713Y-95286966D01*
X169435844Y-95314156D01*
X169463034Y-95347287D01*
X169483237Y-95385084D01*
X169495677Y-95426096D01*
X169500000Y-95469983D01*
X169500000Y-95955017D01*
X169495677Y-95998904D01*
X169483237Y-96039916D01*
X169463034Y-96077713D01*
X169435844Y-96110844D01*
X169402713Y-96138034D01*
X169364916Y-96158237D01*
X169323904Y-96170677D01*
X169280017Y-96175000D01*
X168719983Y-96175000D01*
X168676096Y-96170677D01*
X168635084Y-96158237D01*
X168597287Y-96138034D01*
X168564156Y-96110844D01*
X168536966Y-96077713D01*
X168516763Y-96039916D01*
X168504323Y-95998904D01*
X168500000Y-95955017D01*
X168500000Y-95469983D01*
X168504323Y-95426096D01*
X168516763Y-95385084D01*
X168536966Y-95347287D01*
X168564156Y-95314156D01*
X168597287Y-95286966D01*
X168635084Y-95266763D01*
X168676096Y-95254323D01*
X168719983Y-95250000D01*
X169280017Y-95250000D01*
X169323904Y-95254323D01*
X169323904Y-95254323D01*
G37*
G36*
X167573904Y-95254323D02*
G01*
X167614916Y-95266763D01*
X167652713Y-95286966D01*
X167685844Y-95314156D01*
X167713034Y-95347287D01*
X167733237Y-95385084D01*
X167745677Y-95426096D01*
X167750000Y-95469983D01*
X167750000Y-95955017D01*
X167745677Y-95998904D01*
X167733237Y-96039916D01*
X167713034Y-96077713D01*
X167685844Y-96110844D01*
X167652713Y-96138034D01*
X167614916Y-96158237D01*
X167573904Y-96170677D01*
X167530017Y-96175000D01*
X166969983Y-96175000D01*
X166926096Y-96170677D01*
X166885084Y-96158237D01*
X166847287Y-96138034D01*
X166814156Y-96110844D01*
X166786966Y-96077713D01*
X166766763Y-96039916D01*
X166754323Y-95998904D01*
X166750000Y-95955017D01*
X166750000Y-95469983D01*
X166754323Y-95426096D01*
X166766763Y-95385084D01*
X166786966Y-95347287D01*
X166814156Y-95314156D01*
X166847287Y-95286966D01*
X166885084Y-95266763D01*
X166926096Y-95254323D01*
X166969983Y-95250000D01*
X167530017Y-95250000D01*
X167573904Y-95254323D01*
X167573904Y-95254323D01*
G37*
G36*
X159573904Y-95004323D02*
G01*
X159614916Y-95016763D01*
X159652713Y-95036966D01*
X159685844Y-95064156D01*
X159713034Y-95097287D01*
X159733237Y-95135084D01*
X159745677Y-95176096D01*
X159750000Y-95219983D01*
X159750000Y-95705017D01*
X159745677Y-95748904D01*
X159733237Y-95789916D01*
X159713034Y-95827713D01*
X159685844Y-95860844D01*
X159652713Y-95888034D01*
X159614916Y-95908237D01*
X159573904Y-95920677D01*
X159530017Y-95925000D01*
X158969983Y-95925000D01*
X158926096Y-95920677D01*
X158885084Y-95908237D01*
X158847287Y-95888034D01*
X158814156Y-95860844D01*
X158786966Y-95827713D01*
X158766763Y-95789916D01*
X158754323Y-95748904D01*
X158750000Y-95705017D01*
X158750000Y-95219983D01*
X158754323Y-95176096D01*
X158766763Y-95135084D01*
X158786966Y-95097287D01*
X158814156Y-95064156D01*
X158847287Y-95036966D01*
X158885084Y-95016763D01*
X158926096Y-95004323D01*
X158969983Y-95000000D01*
X159530017Y-95000000D01*
X159573904Y-95004323D01*
X159573904Y-95004323D01*
G37*
G36*
X158073904Y-95004323D02*
G01*
X158114916Y-95016763D01*
X158152713Y-95036966D01*
X158185844Y-95064156D01*
X158213034Y-95097287D01*
X158233237Y-95135084D01*
X158245677Y-95176096D01*
X158250000Y-95219983D01*
X158250000Y-95705017D01*
X158245677Y-95748904D01*
X158233237Y-95789916D01*
X158213034Y-95827713D01*
X158185844Y-95860844D01*
X158152713Y-95888034D01*
X158114916Y-95908237D01*
X158073904Y-95920677D01*
X158030017Y-95925000D01*
X157469983Y-95925000D01*
X157426096Y-95920677D01*
X157385084Y-95908237D01*
X157347287Y-95888034D01*
X157314156Y-95860844D01*
X157286966Y-95827713D01*
X157266763Y-95789916D01*
X157254323Y-95748904D01*
X157250000Y-95705017D01*
X157250000Y-95219983D01*
X157254323Y-95176096D01*
X157266763Y-95135084D01*
X157286966Y-95097287D01*
X157314156Y-95064156D01*
X157347287Y-95036966D01*
X157385084Y-95016763D01*
X157426096Y-95004323D01*
X157469983Y-95000000D01*
X158030017Y-95000000D01*
X158073904Y-95004323D01*
X158073904Y-95004323D01*
G37*
G36*
X164073904Y-95004323D02*
G01*
X164114916Y-95016763D01*
X164152713Y-95036966D01*
X164185844Y-95064156D01*
X164213034Y-95097287D01*
X164233237Y-95135084D01*
X164245677Y-95176096D01*
X164250000Y-95219983D01*
X164250000Y-95705017D01*
X164245677Y-95748904D01*
X164233237Y-95789916D01*
X164213034Y-95827713D01*
X164185844Y-95860844D01*
X164152713Y-95888034D01*
X164114916Y-95908237D01*
X164073904Y-95920677D01*
X164030017Y-95925000D01*
X163469983Y-95925000D01*
X163426096Y-95920677D01*
X163385084Y-95908237D01*
X163347287Y-95888034D01*
X163314156Y-95860844D01*
X163286966Y-95827713D01*
X163266763Y-95789916D01*
X163254323Y-95748904D01*
X163250000Y-95705017D01*
X163250000Y-95219983D01*
X163254323Y-95176096D01*
X163266763Y-95135084D01*
X163286966Y-95097287D01*
X163314156Y-95064156D01*
X163347287Y-95036966D01*
X163385084Y-95016763D01*
X163426096Y-95004323D01*
X163469983Y-95000000D01*
X164030017Y-95000000D01*
X164073904Y-95004323D01*
X164073904Y-95004323D01*
G37*
G36*
X191073904Y-94754323D02*
G01*
X191114916Y-94766763D01*
X191152713Y-94786966D01*
X191185844Y-94814156D01*
X191213034Y-94847287D01*
X191233237Y-94885084D01*
X191245677Y-94926096D01*
X191250000Y-94969983D01*
X191250000Y-95455017D01*
X191245677Y-95498904D01*
X191233237Y-95539916D01*
X191213034Y-95577713D01*
X191185844Y-95610844D01*
X191152713Y-95638034D01*
X191114916Y-95658237D01*
X191073904Y-95670677D01*
X191030017Y-95675000D01*
X190469983Y-95675000D01*
X190426096Y-95670677D01*
X190385084Y-95658237D01*
X190347287Y-95638034D01*
X190314156Y-95610844D01*
X190286966Y-95577713D01*
X190266763Y-95539916D01*
X190254323Y-95498904D01*
X190250000Y-95455017D01*
X190250000Y-94969983D01*
X190254323Y-94926096D01*
X190266763Y-94885084D01*
X190286966Y-94847287D01*
X190314156Y-94814156D01*
X190347287Y-94786966D01*
X190385084Y-94766763D01*
X190426096Y-94754323D01*
X190469983Y-94750000D01*
X191030017Y-94750000D01*
X191073904Y-94754323D01*
X191073904Y-94754323D01*
G37*
G36*
X208823904Y-94754323D02*
G01*
X208864916Y-94766763D01*
X208902713Y-94786966D01*
X208935844Y-94814156D01*
X208963034Y-94847287D01*
X208983237Y-94885084D01*
X208995677Y-94926096D01*
X209000000Y-94969983D01*
X209000000Y-95455017D01*
X208995677Y-95498904D01*
X208983237Y-95539916D01*
X208963034Y-95577713D01*
X208935844Y-95610844D01*
X208902713Y-95638034D01*
X208864916Y-95658237D01*
X208823904Y-95670677D01*
X208780017Y-95675000D01*
X208219983Y-95675000D01*
X208176096Y-95670677D01*
X208135084Y-95658237D01*
X208097287Y-95638034D01*
X208064156Y-95610844D01*
X208036966Y-95577713D01*
X208016763Y-95539916D01*
X208004323Y-95498904D01*
X208000000Y-95455017D01*
X208000000Y-94969983D01*
X208004323Y-94926096D01*
X208016763Y-94885084D01*
X208036966Y-94847287D01*
X208064156Y-94814156D01*
X208097287Y-94786966D01*
X208135084Y-94766763D01*
X208176096Y-94754323D01*
X208219983Y-94750000D01*
X208780017Y-94750000D01*
X208823904Y-94754323D01*
X208823904Y-94754323D01*
G37*
G36*
X161075000Y-95650000D02*
G01*
X160625000Y-95650000D01*
X160625000Y-94950000D01*
X161075000Y-94950000D01*
X161075000Y-95650000D01*
X161075000Y-95650000D01*
G37*
G36*
X162375000Y-95650000D02*
G01*
X161925000Y-95650000D01*
X161925000Y-94950000D01*
X162375000Y-94950000D01*
X162375000Y-95650000D01*
X162375000Y-95650000D01*
G37*
M02*
