G04 #@! TF.GenerationSoftware,KiCad,Pcbnew,(5.1.2)-1*
G04 #@! TF.CreationDate,2020-05-12T16:12:36+02:00*
G04 #@! TF.ProjectId,Controller,436f6e74-726f-46c6-9c65-722e6b696361,rev?*
G04 #@! TF.SameCoordinates,Original*
G04 #@! TF.FileFunction,Soldermask,Top*
G04 #@! TF.FilePolarity,Negative*
%FSLAX46Y46*%
G04 Gerber Fmt 4.6, Leading zero omitted, Abs format (unit mm)*
G04 Created by KiCad (PCBNEW (5.1.2)-1) date 2020-05-12 16:12:36*
%MOMM*%
%LPD*%
G04 APERTURE LIST*
%ADD10C,0.100000*%
G04 APERTURE END LIST*
D10*
G36*
X188421529Y-113737661D02*
G01*
X188522768Y-113768372D01*
X188586471Y-113787696D01*
X188683155Y-113839375D01*
X188738475Y-113868944D01*
X188871712Y-113978288D01*
X188981056Y-114111524D01*
X189004641Y-114155650D01*
X189062304Y-114263528D01*
X189071103Y-114292536D01*
X189112339Y-114428470D01*
X189125000Y-114557021D01*
X189125000Y-114942978D01*
X189112339Y-115071529D01*
X189073648Y-115199075D01*
X189062304Y-115236472D01*
X189029646Y-115297570D01*
X188981056Y-115388476D01*
X188871712Y-115521712D01*
X188738476Y-115631056D01*
X188694350Y-115654641D01*
X188586472Y-115712304D01*
X188557464Y-115721103D01*
X188421530Y-115762339D01*
X188250000Y-115779233D01*
X188078471Y-115762339D01*
X187942537Y-115721103D01*
X187913529Y-115712304D01*
X187761527Y-115631057D01*
X187761525Y-115631056D01*
X187628288Y-115521712D01*
X187518944Y-115388476D01*
X187470354Y-115297570D01*
X187437696Y-115236472D01*
X187426352Y-115199075D01*
X187387661Y-115071530D01*
X187375000Y-114942979D01*
X187375000Y-114557022D01*
X187387661Y-114428471D01*
X187437695Y-114263533D01*
X187437696Y-114263529D01*
X187518943Y-114111527D01*
X187518944Y-114111525D01*
X187628288Y-113978288D01*
X187761524Y-113868944D01*
X187816844Y-113839375D01*
X187913528Y-113787696D01*
X187977231Y-113768372D01*
X188078470Y-113737661D01*
X188250000Y-113720767D01*
X188421529Y-113737661D01*
X188421529Y-113737661D01*
G37*
G36*
X204421529Y-113737661D02*
G01*
X204522768Y-113768372D01*
X204586471Y-113787696D01*
X204683155Y-113839375D01*
X204738475Y-113868944D01*
X204871712Y-113978288D01*
X204981056Y-114111524D01*
X205004641Y-114155650D01*
X205062304Y-114263528D01*
X205071103Y-114292536D01*
X205112339Y-114428470D01*
X205125000Y-114557021D01*
X205125000Y-114942978D01*
X205112339Y-115071529D01*
X205073648Y-115199075D01*
X205062304Y-115236472D01*
X205029646Y-115297570D01*
X204981056Y-115388476D01*
X204871712Y-115521712D01*
X204738476Y-115631056D01*
X204694350Y-115654641D01*
X204586472Y-115712304D01*
X204557464Y-115721103D01*
X204421530Y-115762339D01*
X204250000Y-115779233D01*
X204078471Y-115762339D01*
X203942537Y-115721103D01*
X203913529Y-115712304D01*
X203761527Y-115631057D01*
X203761525Y-115631056D01*
X203628288Y-115521712D01*
X203518944Y-115388476D01*
X203470354Y-115297570D01*
X203437696Y-115236472D01*
X203426352Y-115199075D01*
X203387661Y-115071530D01*
X203375000Y-114942979D01*
X203375000Y-114557022D01*
X203387661Y-114428471D01*
X203437695Y-114263533D01*
X203437696Y-114263529D01*
X203518943Y-114111527D01*
X203518944Y-114111525D01*
X203628288Y-113978288D01*
X203761524Y-113868944D01*
X203816844Y-113839375D01*
X203913528Y-113787696D01*
X203977231Y-113768372D01*
X204078470Y-113737661D01*
X204250000Y-113720767D01*
X204421529Y-113737661D01*
X204421529Y-113737661D01*
G37*
G36*
X202432034Y-113729725D02*
G01*
X202476980Y-113743359D01*
X202518399Y-113765498D01*
X202554706Y-113795294D01*
X202584502Y-113831601D01*
X202606641Y-113873020D01*
X202620275Y-113917966D01*
X202625000Y-113965938D01*
X202625000Y-115534062D01*
X202620275Y-115582034D01*
X202606641Y-115626980D01*
X202584502Y-115668399D01*
X202554706Y-115704706D01*
X202518399Y-115734502D01*
X202476980Y-115756641D01*
X202432034Y-115770275D01*
X202384062Y-115775000D01*
X201115938Y-115775000D01*
X201067966Y-115770275D01*
X201023020Y-115756641D01*
X200981601Y-115734502D01*
X200945294Y-115704706D01*
X200915498Y-115668399D01*
X200893359Y-115626980D01*
X200879725Y-115582034D01*
X200875000Y-115534062D01*
X200875000Y-113965938D01*
X200879725Y-113917966D01*
X200893359Y-113873020D01*
X200915498Y-113831601D01*
X200945294Y-113795294D01*
X200981601Y-113765498D01*
X201023020Y-113743359D01*
X201067966Y-113729725D01*
X201115938Y-113725000D01*
X202384062Y-113725000D01*
X202432034Y-113729725D01*
X202432034Y-113729725D01*
G37*
G36*
X186432034Y-113729725D02*
G01*
X186476980Y-113743359D01*
X186518399Y-113765498D01*
X186554706Y-113795294D01*
X186584502Y-113831601D01*
X186606641Y-113873020D01*
X186620275Y-113917966D01*
X186625000Y-113965938D01*
X186625000Y-115534062D01*
X186620275Y-115582034D01*
X186606641Y-115626980D01*
X186584502Y-115668399D01*
X186554706Y-115704706D01*
X186518399Y-115734502D01*
X186476980Y-115756641D01*
X186432034Y-115770275D01*
X186384062Y-115775000D01*
X185115938Y-115775000D01*
X185067966Y-115770275D01*
X185023020Y-115756641D01*
X184981601Y-115734502D01*
X184945294Y-115704706D01*
X184915498Y-115668399D01*
X184893359Y-115626980D01*
X184879725Y-115582034D01*
X184875000Y-115534062D01*
X184875000Y-113965938D01*
X184879725Y-113917966D01*
X184893359Y-113873020D01*
X184915498Y-113831601D01*
X184945294Y-113795294D01*
X184981601Y-113765498D01*
X185023020Y-113743359D01*
X185067966Y-113729725D01*
X185115938Y-113725000D01*
X186384062Y-113725000D01*
X186432034Y-113729725D01*
X186432034Y-113729725D01*
G37*
G36*
X251262520Y-113634586D02*
G01*
X251426310Y-113702430D01*
X251573717Y-113800924D01*
X251699076Y-113926283D01*
X251797570Y-114073690D01*
X251865414Y-114237480D01*
X251900000Y-114411358D01*
X251900000Y-114588642D01*
X251865414Y-114762520D01*
X251797570Y-114926310D01*
X251699076Y-115073717D01*
X251573717Y-115199076D01*
X251426310Y-115297570D01*
X251262520Y-115365414D01*
X251088642Y-115400000D01*
X250911358Y-115400000D01*
X250737480Y-115365414D01*
X250573690Y-115297570D01*
X250426283Y-115199076D01*
X250300924Y-115073717D01*
X250202430Y-114926310D01*
X250134586Y-114762520D01*
X250100000Y-114588642D01*
X250100000Y-114411358D01*
X250134586Y-114237480D01*
X250202430Y-114073690D01*
X250300924Y-113926283D01*
X250426283Y-113800924D01*
X250573690Y-113702430D01*
X250737480Y-113634586D01*
X250911358Y-113600000D01*
X251088642Y-113600000D01*
X251262520Y-113634586D01*
X251262520Y-113634586D01*
G37*
G36*
X248762520Y-113634586D02*
G01*
X248926310Y-113702430D01*
X249073717Y-113800924D01*
X249199076Y-113926283D01*
X249297570Y-114073690D01*
X249365414Y-114237480D01*
X249400000Y-114411358D01*
X249400000Y-114588642D01*
X249365414Y-114762520D01*
X249297570Y-114926310D01*
X249199076Y-115073717D01*
X249073717Y-115199076D01*
X248926310Y-115297570D01*
X248762520Y-115365414D01*
X248588642Y-115400000D01*
X248411358Y-115400000D01*
X248237480Y-115365414D01*
X248073690Y-115297570D01*
X247926283Y-115199076D01*
X247800924Y-115073717D01*
X247702430Y-114926310D01*
X247634586Y-114762520D01*
X247600000Y-114588642D01*
X247600000Y-114411358D01*
X247634586Y-114237480D01*
X247702430Y-114073690D01*
X247800924Y-113926283D01*
X247926283Y-113800924D01*
X248073690Y-113702430D01*
X248237480Y-113634586D01*
X248411358Y-113600000D01*
X248588642Y-113600000D01*
X248762520Y-113634586D01*
X248762520Y-113634586D01*
G37*
G36*
X246900000Y-115400000D02*
G01*
X245100000Y-115400000D01*
X245100000Y-113600000D01*
X246900000Y-113600000D01*
X246900000Y-115400000D01*
X246900000Y-115400000D01*
G37*
G36*
X76048982Y-113014390D02*
G01*
X76235520Y-113091656D01*
X76403400Y-113203830D01*
X76546170Y-113346600D01*
X76658344Y-113514480D01*
X76735610Y-113701018D01*
X76775000Y-113899046D01*
X76775000Y-114100954D01*
X76735610Y-114298982D01*
X76658344Y-114485520D01*
X76546170Y-114653400D01*
X76403400Y-114796170D01*
X76235520Y-114908344D01*
X76048982Y-114985610D01*
X75850954Y-115025000D01*
X75649046Y-115025000D01*
X75451018Y-114985610D01*
X75264480Y-114908344D01*
X75096600Y-114796170D01*
X74953830Y-114653400D01*
X74841656Y-114485520D01*
X74764390Y-114298982D01*
X74725000Y-114100954D01*
X74725000Y-113899046D01*
X74764390Y-113701018D01*
X74841656Y-113514480D01*
X74953830Y-113346600D01*
X75096600Y-113203830D01*
X75264480Y-113091656D01*
X75451018Y-113014390D01*
X75649046Y-112975000D01*
X75850954Y-112975000D01*
X76048982Y-113014390D01*
X76048982Y-113014390D01*
G37*
G36*
X69548982Y-113014390D02*
G01*
X69735520Y-113091656D01*
X69903400Y-113203830D01*
X70046170Y-113346600D01*
X70158344Y-113514480D01*
X70235610Y-113701018D01*
X70275000Y-113899046D01*
X70275000Y-114100954D01*
X70235610Y-114298982D01*
X70158344Y-114485520D01*
X70046170Y-114653400D01*
X69903400Y-114796170D01*
X69735520Y-114908344D01*
X69548982Y-114985610D01*
X69350954Y-115025000D01*
X69149046Y-115025000D01*
X68951018Y-114985610D01*
X68764480Y-114908344D01*
X68596600Y-114796170D01*
X68453830Y-114653400D01*
X68341656Y-114485520D01*
X68264390Y-114298982D01*
X68225000Y-114100954D01*
X68225000Y-113899046D01*
X68264390Y-113701018D01*
X68341656Y-113514480D01*
X68453830Y-113346600D01*
X68596600Y-113203830D01*
X68764480Y-113091656D01*
X68951018Y-113014390D01*
X69149046Y-112975000D01*
X69350954Y-112975000D01*
X69548982Y-113014390D01*
X69548982Y-113014390D01*
G37*
G36*
X56344196Y-112124258D02*
G01*
X56511702Y-112175070D01*
X56666069Y-112257582D01*
X56801375Y-112368625D01*
X56912418Y-112503931D01*
X56994930Y-112658298D01*
X57045742Y-112825804D01*
X57062899Y-113000000D01*
X57045742Y-113174196D01*
X56994930Y-113341702D01*
X56912418Y-113496069D01*
X56801375Y-113631375D01*
X56666069Y-113742418D01*
X56511702Y-113824930D01*
X56366609Y-113868943D01*
X56344196Y-113875742D01*
X56213648Y-113888600D01*
X56126352Y-113888600D01*
X55995804Y-113875742D01*
X55973391Y-113868943D01*
X55828298Y-113824930D01*
X55673931Y-113742418D01*
X55538625Y-113631375D01*
X55427582Y-113496069D01*
X55345070Y-113341702D01*
X55294258Y-113174196D01*
X55277101Y-113000000D01*
X55294258Y-112825804D01*
X55345070Y-112658298D01*
X55427582Y-112503931D01*
X55538625Y-112368625D01*
X55673931Y-112257582D01*
X55828298Y-112175070D01*
X55995804Y-112124258D01*
X56126352Y-112111400D01*
X56213648Y-112111400D01*
X56344196Y-112124258D01*
X56344196Y-112124258D01*
G37*
G36*
X58884196Y-112124258D02*
G01*
X59051702Y-112175070D01*
X59206069Y-112257582D01*
X59341375Y-112368625D01*
X59452418Y-112503931D01*
X59534930Y-112658298D01*
X59585742Y-112825804D01*
X59602899Y-113000000D01*
X59585742Y-113174196D01*
X59534930Y-113341702D01*
X59452418Y-113496069D01*
X59341375Y-113631375D01*
X59206069Y-113742418D01*
X59051702Y-113824930D01*
X58906609Y-113868943D01*
X58884196Y-113875742D01*
X58753648Y-113888600D01*
X58666352Y-113888600D01*
X58535804Y-113875742D01*
X58513391Y-113868943D01*
X58368298Y-113824930D01*
X58213931Y-113742418D01*
X58078625Y-113631375D01*
X57967582Y-113496069D01*
X57885070Y-113341702D01*
X57834258Y-113174196D01*
X57817101Y-113000000D01*
X57834258Y-112825804D01*
X57885070Y-112658298D01*
X57967582Y-112503931D01*
X58078625Y-112368625D01*
X58213931Y-112257582D01*
X58368298Y-112175070D01*
X58535804Y-112124258D01*
X58666352Y-112111400D01*
X58753648Y-112111400D01*
X58884196Y-112124258D01*
X58884196Y-112124258D01*
G37*
G36*
X62138600Y-113888600D02*
G01*
X60361400Y-113888600D01*
X60361400Y-112111400D01*
X62138600Y-112111400D01*
X62138600Y-113888600D01*
X62138600Y-113888600D01*
G37*
G36*
X56344196Y-109584258D02*
G01*
X56511702Y-109635070D01*
X56666069Y-109717582D01*
X56801375Y-109828625D01*
X56912418Y-109963931D01*
X56994930Y-110118298D01*
X57045742Y-110285804D01*
X57062899Y-110460000D01*
X57045742Y-110634196D01*
X56994930Y-110801702D01*
X56912418Y-110956069D01*
X56801375Y-111091375D01*
X56666069Y-111202418D01*
X56511702Y-111284930D01*
X56344196Y-111335742D01*
X56213648Y-111348600D01*
X56126352Y-111348600D01*
X55995804Y-111335742D01*
X55828298Y-111284930D01*
X55673931Y-111202418D01*
X55538625Y-111091375D01*
X55427582Y-110956069D01*
X55345070Y-110801702D01*
X55294258Y-110634196D01*
X55277101Y-110460000D01*
X55294258Y-110285804D01*
X55345070Y-110118298D01*
X55427582Y-109963931D01*
X55538625Y-109828625D01*
X55673931Y-109717582D01*
X55828298Y-109635070D01*
X55995804Y-109584258D01*
X56126352Y-109571400D01*
X56213648Y-109571400D01*
X56344196Y-109584258D01*
X56344196Y-109584258D01*
G37*
G36*
X61424196Y-109584258D02*
G01*
X61591702Y-109635070D01*
X61746069Y-109717582D01*
X61881375Y-109828625D01*
X61992418Y-109963931D01*
X62074930Y-110118298D01*
X62125742Y-110285804D01*
X62142899Y-110460000D01*
X62125742Y-110634196D01*
X62074930Y-110801702D01*
X61992418Y-110956069D01*
X61881375Y-111091375D01*
X61746069Y-111202418D01*
X61591702Y-111284930D01*
X61424196Y-111335742D01*
X61293648Y-111348600D01*
X61206352Y-111348600D01*
X61075804Y-111335742D01*
X60908298Y-111284930D01*
X60753931Y-111202418D01*
X60618625Y-111091375D01*
X60507582Y-110956069D01*
X60425070Y-110801702D01*
X60374258Y-110634196D01*
X60357101Y-110460000D01*
X60374258Y-110285804D01*
X60425070Y-110118298D01*
X60507582Y-109963931D01*
X60618625Y-109828625D01*
X60753931Y-109717582D01*
X60908298Y-109635070D01*
X61075804Y-109584258D01*
X61206352Y-109571400D01*
X61293648Y-109571400D01*
X61424196Y-109584258D01*
X61424196Y-109584258D01*
G37*
G36*
X58884196Y-109584258D02*
G01*
X59051702Y-109635070D01*
X59206069Y-109717582D01*
X59341375Y-109828625D01*
X59452418Y-109963931D01*
X59534930Y-110118298D01*
X59585742Y-110285804D01*
X59602899Y-110460000D01*
X59585742Y-110634196D01*
X59534930Y-110801702D01*
X59452418Y-110956069D01*
X59341375Y-111091375D01*
X59206069Y-111202418D01*
X59051702Y-111284930D01*
X58884196Y-111335742D01*
X58753648Y-111348600D01*
X58666352Y-111348600D01*
X58535804Y-111335742D01*
X58368298Y-111284930D01*
X58213931Y-111202418D01*
X58078625Y-111091375D01*
X57967582Y-110956069D01*
X57885070Y-110801702D01*
X57834258Y-110634196D01*
X57817101Y-110460000D01*
X57834258Y-110285804D01*
X57885070Y-110118298D01*
X57967582Y-109963931D01*
X58078625Y-109828625D01*
X58213931Y-109717582D01*
X58368298Y-109635070D01*
X58535804Y-109584258D01*
X58666352Y-109571400D01*
X58753648Y-109571400D01*
X58884196Y-109584258D01*
X58884196Y-109584258D01*
G37*
G36*
X69548982Y-108514390D02*
G01*
X69735520Y-108591656D01*
X69903400Y-108703830D01*
X70046170Y-108846600D01*
X70158344Y-109014480D01*
X70235610Y-109201018D01*
X70275000Y-109399046D01*
X70275000Y-109600954D01*
X70235610Y-109798982D01*
X70158344Y-109985520D01*
X70046170Y-110153400D01*
X69903400Y-110296170D01*
X69735520Y-110408344D01*
X69548982Y-110485610D01*
X69350954Y-110525000D01*
X69149046Y-110525000D01*
X68951018Y-110485610D01*
X68764480Y-110408344D01*
X68596600Y-110296170D01*
X68453830Y-110153400D01*
X68341656Y-109985520D01*
X68264390Y-109798982D01*
X68225000Y-109600954D01*
X68225000Y-109399046D01*
X68264390Y-109201018D01*
X68341656Y-109014480D01*
X68453830Y-108846600D01*
X68596600Y-108703830D01*
X68764480Y-108591656D01*
X68951018Y-108514390D01*
X69149046Y-108475000D01*
X69350954Y-108475000D01*
X69548982Y-108514390D01*
X69548982Y-108514390D01*
G37*
G36*
X76048982Y-108514390D02*
G01*
X76235520Y-108591656D01*
X76403400Y-108703830D01*
X76546170Y-108846600D01*
X76658344Y-109014480D01*
X76735610Y-109201018D01*
X76775000Y-109399046D01*
X76775000Y-109600954D01*
X76735610Y-109798982D01*
X76658344Y-109985520D01*
X76546170Y-110153400D01*
X76403400Y-110296170D01*
X76235520Y-110408344D01*
X76048982Y-110485610D01*
X75850954Y-110525000D01*
X75649046Y-110525000D01*
X75451018Y-110485610D01*
X75264480Y-110408344D01*
X75096600Y-110296170D01*
X74953830Y-110153400D01*
X74841656Y-109985520D01*
X74764390Y-109798982D01*
X74725000Y-109600954D01*
X74725000Y-109399046D01*
X74764390Y-109201018D01*
X74841656Y-109014480D01*
X74953830Y-108846600D01*
X75096600Y-108703830D01*
X75264480Y-108591656D01*
X75451018Y-108514390D01*
X75649046Y-108475000D01*
X75850954Y-108475000D01*
X76048982Y-108514390D01*
X76048982Y-108514390D01*
G37*
G36*
X167633439Y-106480475D02*
G01*
X167747749Y-106503213D01*
X168070777Y-106637015D01*
X168361497Y-106831269D01*
X168608731Y-107078503D01*
X168802985Y-107369223D01*
X168936787Y-107692251D01*
X169005000Y-108035180D01*
X169005000Y-108384820D01*
X168936787Y-108727749D01*
X168802985Y-109050777D01*
X168802984Y-109050778D01*
X168608732Y-109341496D01*
X168361496Y-109588732D01*
X168292148Y-109635069D01*
X168070777Y-109782985D01*
X167747749Y-109916787D01*
X167633439Y-109939525D01*
X167404822Y-109985000D01*
X167055178Y-109985000D01*
X166826561Y-109939525D01*
X166712251Y-109916787D01*
X166389223Y-109782985D01*
X166167852Y-109635069D01*
X166098504Y-109588732D01*
X165851268Y-109341496D01*
X165657016Y-109050778D01*
X165657015Y-109050777D01*
X165523213Y-108727749D01*
X165455000Y-108384820D01*
X165455000Y-108035180D01*
X165523213Y-107692251D01*
X165657015Y-107369223D01*
X165851269Y-107078503D01*
X166098503Y-106831269D01*
X166389223Y-106637015D01*
X166712251Y-106503213D01*
X166826561Y-106480475D01*
X167055178Y-106435000D01*
X167404822Y-106435000D01*
X167633439Y-106480475D01*
X167633439Y-106480475D01*
G37*
G36*
X179673439Y-106480475D02*
G01*
X179787749Y-106503213D01*
X180110777Y-106637015D01*
X180401497Y-106831269D01*
X180648731Y-107078503D01*
X180842985Y-107369223D01*
X180976787Y-107692251D01*
X181045000Y-108035180D01*
X181045000Y-108384820D01*
X180976787Y-108727749D01*
X180842985Y-109050777D01*
X180842984Y-109050778D01*
X180648732Y-109341496D01*
X180401496Y-109588732D01*
X180332148Y-109635069D01*
X180110777Y-109782985D01*
X179787749Y-109916787D01*
X179673439Y-109939525D01*
X179444822Y-109985000D01*
X179095178Y-109985000D01*
X178866561Y-109939525D01*
X178752251Y-109916787D01*
X178429223Y-109782985D01*
X178207852Y-109635069D01*
X178138504Y-109588732D01*
X177891268Y-109341496D01*
X177697016Y-109050778D01*
X177697015Y-109050777D01*
X177563213Y-108727749D01*
X177495000Y-108384820D01*
X177495000Y-108035180D01*
X177563213Y-107692251D01*
X177697015Y-107369223D01*
X177891269Y-107078503D01*
X178138503Y-106831269D01*
X178429223Y-106637015D01*
X178752251Y-106503213D01*
X178866561Y-106480475D01*
X179095178Y-106435000D01*
X179444822Y-106435000D01*
X179673439Y-106480475D01*
X179673439Y-106480475D01*
G37*
G36*
X159833809Y-107669683D02*
G01*
X159878345Y-107683192D01*
X159919382Y-107705127D01*
X159955353Y-107734647D01*
X159984873Y-107770618D01*
X160006808Y-107811655D01*
X160020317Y-107856191D01*
X160025000Y-107903732D01*
X160025000Y-109676268D01*
X160020317Y-109723809D01*
X160006808Y-109768345D01*
X159984873Y-109809382D01*
X159955353Y-109845353D01*
X159919382Y-109874873D01*
X159878345Y-109896808D01*
X159833809Y-109910317D01*
X159786268Y-109915000D01*
X158213732Y-109915000D01*
X158166191Y-109910317D01*
X158121655Y-109896808D01*
X158080618Y-109874873D01*
X158044647Y-109845353D01*
X158015127Y-109809382D01*
X157993192Y-109768345D01*
X157979683Y-109723809D01*
X157975000Y-109676268D01*
X157975000Y-107903732D01*
X157979683Y-107856191D01*
X157993192Y-107811655D01*
X158015127Y-107770618D01*
X158044647Y-107734647D01*
X158080618Y-107705127D01*
X158121655Y-107683192D01*
X158166191Y-107669683D01*
X158213732Y-107665000D01*
X159786268Y-107665000D01*
X159833809Y-107669683D01*
X159833809Y-107669683D01*
G37*
G36*
X172180738Y-104643809D02*
G01*
X172255229Y-104658626D01*
X172414468Y-104724584D01*
X172557781Y-104820344D01*
X172679656Y-104942219D01*
X172775416Y-105085532D01*
X172841374Y-105244771D01*
X172875000Y-105413822D01*
X172875000Y-105586178D01*
X172841374Y-105755229D01*
X172775416Y-105914468D01*
X172679656Y-106057781D01*
X172557781Y-106179656D01*
X172414468Y-106275416D01*
X172255229Y-106341374D01*
X172198879Y-106352583D01*
X172086180Y-106375000D01*
X171913820Y-106375000D01*
X171801121Y-106352583D01*
X171744771Y-106341374D01*
X171585532Y-106275416D01*
X171442219Y-106179656D01*
X171320344Y-106057781D01*
X171224584Y-105914468D01*
X171158626Y-105755229D01*
X171125000Y-105586178D01*
X171125000Y-105413822D01*
X171158626Y-105244771D01*
X171224584Y-105085532D01*
X171320344Y-104942219D01*
X171442219Y-104820344D01*
X171585532Y-104724584D01*
X171744771Y-104658626D01*
X171819262Y-104643809D01*
X171913820Y-104625000D01*
X172086180Y-104625000D01*
X172180738Y-104643809D01*
X172180738Y-104643809D01*
G37*
G36*
X174680738Y-104643809D02*
G01*
X174755229Y-104658626D01*
X174914468Y-104724584D01*
X175057781Y-104820344D01*
X175179656Y-104942219D01*
X175275416Y-105085532D01*
X175341374Y-105244771D01*
X175375000Y-105413822D01*
X175375000Y-105586178D01*
X175341374Y-105755229D01*
X175275416Y-105914468D01*
X175179656Y-106057781D01*
X175057781Y-106179656D01*
X174914468Y-106275416D01*
X174755229Y-106341374D01*
X174698879Y-106352583D01*
X174586180Y-106375000D01*
X174413820Y-106375000D01*
X174301121Y-106352583D01*
X174244771Y-106341374D01*
X174085532Y-106275416D01*
X173942219Y-106179656D01*
X173820344Y-106057781D01*
X173724584Y-105914468D01*
X173658626Y-105755229D01*
X173625000Y-105586178D01*
X173625000Y-105413822D01*
X173658626Y-105244771D01*
X173724584Y-105085532D01*
X173820344Y-104942219D01*
X173942219Y-104820344D01*
X174085532Y-104724584D01*
X174244771Y-104658626D01*
X174319262Y-104643809D01*
X174413820Y-104625000D01*
X174586180Y-104625000D01*
X174680738Y-104643809D01*
X174680738Y-104643809D01*
G37*
G36*
X159833809Y-102589683D02*
G01*
X159878345Y-102603192D01*
X159919382Y-102625127D01*
X159955353Y-102654647D01*
X159984873Y-102690618D01*
X160006808Y-102731655D01*
X160020317Y-102776191D01*
X160025000Y-102823732D01*
X160025000Y-104596268D01*
X160020317Y-104643809D01*
X160006808Y-104688345D01*
X159984873Y-104729382D01*
X159955353Y-104765353D01*
X159919382Y-104794873D01*
X159878345Y-104816808D01*
X159833809Y-104830317D01*
X159786268Y-104835000D01*
X158213732Y-104835000D01*
X158166191Y-104830317D01*
X158121655Y-104816808D01*
X158080618Y-104794873D01*
X158044647Y-104765353D01*
X158015127Y-104729382D01*
X157993192Y-104688345D01*
X157979683Y-104643809D01*
X157975000Y-104596268D01*
X157975000Y-102823732D01*
X157979683Y-102776191D01*
X157993192Y-102731655D01*
X158015127Y-102690618D01*
X158044647Y-102654647D01*
X158080618Y-102625127D01*
X158121655Y-102603192D01*
X158166191Y-102589683D01*
X158213732Y-102585000D01*
X159786268Y-102585000D01*
X159833809Y-102589683D01*
X159833809Y-102589683D01*
G37*
G36*
X172875000Y-104375000D02*
G01*
X171125000Y-104375000D01*
X171125000Y-102625000D01*
X172875000Y-102625000D01*
X172875000Y-104375000D01*
X172875000Y-104375000D01*
G37*
G36*
X174698879Y-102647417D02*
G01*
X174755229Y-102658626D01*
X174914468Y-102724584D01*
X174991702Y-102776191D01*
X175040306Y-102808667D01*
X175057781Y-102820344D01*
X175179656Y-102942219D01*
X175275416Y-103085532D01*
X175341374Y-103244771D01*
X175375000Y-103413822D01*
X175375000Y-103586178D01*
X175341374Y-103755229D01*
X175275416Y-103914468D01*
X175179656Y-104057781D01*
X175057781Y-104179656D01*
X174914468Y-104275416D01*
X174755229Y-104341374D01*
X174698879Y-104352583D01*
X174586180Y-104375000D01*
X174413820Y-104375000D01*
X174301121Y-104352583D01*
X174244771Y-104341374D01*
X174085532Y-104275416D01*
X173942219Y-104179656D01*
X173820344Y-104057781D01*
X173724584Y-103914468D01*
X173658626Y-103755229D01*
X173625000Y-103586178D01*
X173625000Y-103413822D01*
X173658626Y-103244771D01*
X173724584Y-103085532D01*
X173820344Y-102942219D01*
X173942219Y-102820344D01*
X173959695Y-102808667D01*
X174008298Y-102776191D01*
X174085532Y-102724584D01*
X174244771Y-102658626D01*
X174301121Y-102647417D01*
X174413820Y-102625000D01*
X174586180Y-102625000D01*
X174698879Y-102647417D01*
X174698879Y-102647417D01*
G37*
G36*
X56440698Y-96898935D02*
G01*
X57027610Y-97142042D01*
X57555817Y-97494979D01*
X58005021Y-97944183D01*
X58357958Y-98472390D01*
X58601065Y-99059302D01*
X58725000Y-99682365D01*
X58725000Y-100317635D01*
X58601065Y-100940698D01*
X58357958Y-101527610D01*
X58005021Y-102055817D01*
X57555817Y-102505021D01*
X57027610Y-102857958D01*
X56440698Y-103101065D01*
X55817635Y-103225000D01*
X55182365Y-103225000D01*
X54559302Y-103101065D01*
X53972390Y-102857958D01*
X53444183Y-102505021D01*
X52994979Y-102055817D01*
X52642042Y-101527610D01*
X52398935Y-100940698D01*
X52275000Y-100317635D01*
X52275000Y-99682365D01*
X52398935Y-99059302D01*
X52642042Y-98472390D01*
X52994979Y-97944183D01*
X53444183Y-97494979D01*
X53972390Y-97142042D01*
X54559302Y-96898935D01*
X55182365Y-96775000D01*
X55817635Y-96775000D01*
X56440698Y-96898935D01*
X56440698Y-96898935D01*
G37*
G36*
X251440698Y-96898935D02*
G01*
X252027610Y-97142042D01*
X252555817Y-97494979D01*
X253005021Y-97944183D01*
X253357958Y-98472390D01*
X253601065Y-99059302D01*
X253725000Y-99682365D01*
X253725000Y-100317635D01*
X253601065Y-100940698D01*
X253357958Y-101527610D01*
X253005021Y-102055817D01*
X252555817Y-102505021D01*
X252027610Y-102857958D01*
X251440698Y-103101065D01*
X250817635Y-103225000D01*
X250182365Y-103225000D01*
X249559302Y-103101065D01*
X248972390Y-102857958D01*
X248444183Y-102505021D01*
X247994979Y-102055817D01*
X247642042Y-101527610D01*
X247398935Y-100940698D01*
X247275000Y-100317635D01*
X247275000Y-99682365D01*
X247398935Y-99059302D01*
X247642042Y-98472390D01*
X247994979Y-97944183D01*
X248444183Y-97494979D01*
X248972390Y-97142042D01*
X249559302Y-96898935D01*
X250182365Y-96775000D01*
X250817635Y-96775000D01*
X251440698Y-96898935D01*
X251440698Y-96898935D01*
G37*
G36*
X69297513Y-95504303D02*
G01*
X69444827Y-95533605D01*
X69722358Y-95648562D01*
X69972131Y-95815455D01*
X70184545Y-96027869D01*
X70257906Y-96137662D01*
X70351438Y-96277642D01*
X70466395Y-96555173D01*
X70525000Y-96849802D01*
X70525000Y-97150198D01*
X70466395Y-97444827D01*
X70445621Y-97494979D01*
X70351438Y-97722358D01*
X70188378Y-97966395D01*
X70184544Y-97972132D01*
X69972132Y-98184544D01*
X69722358Y-98351438D01*
X69444827Y-98466395D01*
X69297513Y-98495697D01*
X69150199Y-98525000D01*
X68849801Y-98525000D01*
X68702488Y-98495698D01*
X68555173Y-98466395D01*
X68277642Y-98351438D01*
X68027868Y-98184544D01*
X67815456Y-97972132D01*
X67811623Y-97966395D01*
X67648562Y-97722358D01*
X67554379Y-97494979D01*
X67533605Y-97444827D01*
X67475000Y-97150198D01*
X67475000Y-96849802D01*
X67533605Y-96555173D01*
X67648562Y-96277642D01*
X67742094Y-96137662D01*
X67815455Y-96027869D01*
X68027869Y-95815455D01*
X68277642Y-95648562D01*
X68555173Y-95533605D01*
X68702487Y-95504303D01*
X68849801Y-95475000D01*
X69150199Y-95475000D01*
X69297513Y-95504303D01*
X69297513Y-95504303D01*
G37*
G36*
X196297513Y-95004303D02*
G01*
X196444827Y-95033605D01*
X196722358Y-95148562D01*
X196972131Y-95315455D01*
X197184545Y-95527869D01*
X197351438Y-95777642D01*
X197466395Y-96055174D01*
X197525000Y-96349801D01*
X197525000Y-96650199D01*
X197495697Y-96797513D01*
X197466395Y-96944827D01*
X197381328Y-97150198D01*
X197351438Y-97222358D01*
X197184545Y-97472131D01*
X196972131Y-97684545D01*
X196913130Y-97723968D01*
X196722358Y-97851438D01*
X196444827Y-97966395D01*
X196297512Y-97995698D01*
X196150199Y-98025000D01*
X195849801Y-98025000D01*
X195702488Y-97995698D01*
X195555173Y-97966395D01*
X195277642Y-97851438D01*
X195086870Y-97723968D01*
X195027869Y-97684545D01*
X194815455Y-97472131D01*
X194648562Y-97222358D01*
X194618672Y-97150198D01*
X194533605Y-96944827D01*
X194504303Y-96797513D01*
X194475000Y-96650199D01*
X194475000Y-96349801D01*
X194533605Y-96055174D01*
X194648562Y-95777642D01*
X194815455Y-95527869D01*
X195027869Y-95315455D01*
X195277642Y-95148562D01*
X195555173Y-95033605D01*
X195702487Y-95004303D01*
X195849801Y-94975000D01*
X196150199Y-94975000D01*
X196297513Y-95004303D01*
X196297513Y-95004303D01*
G37*
G36*
X205375000Y-97875000D02*
G01*
X203625000Y-97875000D01*
X203625000Y-96125000D01*
X205375000Y-96125000D01*
X205375000Y-97875000D01*
X205375000Y-97875000D01*
G37*
G36*
X202131530Y-96137661D02*
G01*
X202267464Y-96178897D01*
X202296472Y-96187696D01*
X202404350Y-96245359D01*
X202448476Y-96268944D01*
X202547002Y-96349802D01*
X202581712Y-96378288D01*
X202691055Y-96511523D01*
X202772304Y-96663528D01*
X202772305Y-96663532D01*
X202822339Y-96828470D01*
X202839233Y-97000000D01*
X202822339Y-97171530D01*
X202806920Y-97222358D01*
X202772304Y-97336472D01*
X202739049Y-97398687D01*
X202691056Y-97488476D01*
X202581712Y-97621712D01*
X202448476Y-97731056D01*
X202404350Y-97754641D01*
X202296472Y-97812304D01*
X202267464Y-97821104D01*
X202131530Y-97862339D01*
X202002979Y-97875000D01*
X201917021Y-97875000D01*
X201788470Y-97862339D01*
X201652536Y-97821104D01*
X201623528Y-97812304D01*
X201515650Y-97754641D01*
X201471524Y-97731056D01*
X201338288Y-97621712D01*
X201228944Y-97488476D01*
X201180951Y-97398687D01*
X201147696Y-97336472D01*
X201113080Y-97222358D01*
X201097661Y-97171530D01*
X201080767Y-97000000D01*
X201097661Y-96828470D01*
X201147695Y-96663532D01*
X201147696Y-96663528D01*
X201228945Y-96511523D01*
X201338288Y-96378288D01*
X201372998Y-96349802D01*
X201471524Y-96268944D01*
X201515650Y-96245359D01*
X201623528Y-96187696D01*
X201652536Y-96178897D01*
X201788470Y-96137661D01*
X201917021Y-96125000D01*
X202002979Y-96125000D01*
X202131530Y-96137661D01*
X202131530Y-96137661D01*
G37*
M02*
