G04 #@! TF.GenerationSoftware,KiCad,Pcbnew,5.1.6*
G04 #@! TF.CreationDate,2020-07-29T11:54:06+02:00*
G04 #@! TF.ProjectId,Power supply,506f7765-7220-4737-9570-706c792e6b69,rev?*
G04 #@! TF.SameCoordinates,Original*
G04 #@! TF.FileFunction,Soldermask,Bot*
G04 #@! TF.FilePolarity,Negative*
%FSLAX46Y46*%
G04 Gerber Fmt 4.6, Leading zero omitted, Abs format (unit mm)*
G04 Created by KiCad (PCBNEW 5.1.6) date 2020-07-29 11:54:06*
%MOMM*%
%LPD*%
G01*
G04 APERTURE LIST*
%ADD10C,0.100000*%
G04 APERTURE END LIST*
D10*
G36*
X170379487Y-274248996D02*
G01*
X170616253Y-274347068D01*
X170616255Y-274347069D01*
X170829339Y-274489447D01*
X171010553Y-274670661D01*
X171152932Y-274883747D01*
X171251004Y-275120513D01*
X171301000Y-275371861D01*
X171301000Y-275628139D01*
X171251004Y-275879487D01*
X171152932Y-276116253D01*
X171152931Y-276116255D01*
X171010553Y-276329339D01*
X170829339Y-276510553D01*
X170616255Y-276652931D01*
X170616254Y-276652932D01*
X170616253Y-276652932D01*
X170379487Y-276751004D01*
X170128139Y-276801000D01*
X169871861Y-276801000D01*
X169620513Y-276751004D01*
X169383747Y-276652932D01*
X169383746Y-276652932D01*
X169383745Y-276652931D01*
X169170661Y-276510553D01*
X168989447Y-276329339D01*
X168847069Y-276116255D01*
X168847068Y-276116253D01*
X168748996Y-275879487D01*
X168699000Y-275628139D01*
X168699000Y-275371861D01*
X168748996Y-275120513D01*
X168847068Y-274883747D01*
X168989447Y-274670661D01*
X169170661Y-274489447D01*
X169383745Y-274347069D01*
X169383747Y-274347068D01*
X169620513Y-274248996D01*
X169871861Y-274199000D01*
X170128139Y-274199000D01*
X170379487Y-274248996D01*
G37*
G36*
X170379487Y-269248996D02*
G01*
X170616253Y-269347068D01*
X170616255Y-269347069D01*
X170829339Y-269489447D01*
X171010553Y-269670661D01*
X171152932Y-269883747D01*
X171251004Y-270120513D01*
X171301000Y-270371861D01*
X171301000Y-270628139D01*
X171251004Y-270879487D01*
X171152932Y-271116253D01*
X171152931Y-271116255D01*
X171010553Y-271329339D01*
X170829339Y-271510553D01*
X170616255Y-271652931D01*
X170616254Y-271652932D01*
X170616253Y-271652932D01*
X170379487Y-271751004D01*
X170128139Y-271801000D01*
X169871861Y-271801000D01*
X169620513Y-271751004D01*
X169383747Y-271652932D01*
X169383746Y-271652932D01*
X169383745Y-271652931D01*
X169170661Y-271510553D01*
X168989447Y-271329339D01*
X168847069Y-271116255D01*
X168847068Y-271116253D01*
X168748996Y-270879487D01*
X168699000Y-270628139D01*
X168699000Y-270371861D01*
X168748996Y-270120513D01*
X168847068Y-269883747D01*
X168989447Y-269670661D01*
X169170661Y-269489447D01*
X169383745Y-269347069D01*
X169383747Y-269347068D01*
X169620513Y-269248996D01*
X169871861Y-269199000D01*
X170128139Y-269199000D01*
X170379487Y-269248996D01*
G37*
G36*
X170379487Y-264248996D02*
G01*
X170616253Y-264347068D01*
X170616255Y-264347069D01*
X170829339Y-264489447D01*
X171010553Y-264670661D01*
X171152932Y-264883747D01*
X171251004Y-265120513D01*
X171301000Y-265371861D01*
X171301000Y-265628139D01*
X171251004Y-265879487D01*
X171152932Y-266116253D01*
X171152931Y-266116255D01*
X171010553Y-266329339D01*
X170829339Y-266510553D01*
X170616255Y-266652931D01*
X170616254Y-266652932D01*
X170616253Y-266652932D01*
X170379487Y-266751004D01*
X170128139Y-266801000D01*
X169871861Y-266801000D01*
X169620513Y-266751004D01*
X169383747Y-266652932D01*
X169383746Y-266652932D01*
X169383745Y-266652931D01*
X169170661Y-266510553D01*
X168989447Y-266329339D01*
X168847069Y-266116255D01*
X168847068Y-266116253D01*
X168748996Y-265879487D01*
X168699000Y-265628139D01*
X168699000Y-265371861D01*
X168748996Y-265120513D01*
X168847068Y-264883747D01*
X168989447Y-264670661D01*
X169170661Y-264489447D01*
X169383745Y-264347069D01*
X169383747Y-264347068D01*
X169620513Y-264248996D01*
X169871861Y-264199000D01*
X170128139Y-264199000D01*
X170379487Y-264248996D01*
G37*
G36*
X171301000Y-261801000D02*
G01*
X168699000Y-261801000D01*
X168699000Y-259199000D01*
X171301000Y-259199000D01*
X171301000Y-261801000D01*
G37*
G36*
X122094239Y-253811467D02*
G01*
X122408282Y-253873934D01*
X122999926Y-254119001D01*
X123532392Y-254474784D01*
X123985216Y-254927608D01*
X124340999Y-255460074D01*
X124586066Y-256051718D01*
X124711000Y-256679804D01*
X124711000Y-257320196D01*
X124586066Y-257948282D01*
X124340999Y-258539926D01*
X123985216Y-259072392D01*
X123532392Y-259525216D01*
X122999926Y-259880999D01*
X122408282Y-260126066D01*
X122094239Y-260188533D01*
X121780197Y-260251000D01*
X121139803Y-260251000D01*
X120825761Y-260188533D01*
X120511718Y-260126066D01*
X119920074Y-259880999D01*
X119387608Y-259525216D01*
X118934784Y-259072392D01*
X118579001Y-258539926D01*
X118333934Y-257948282D01*
X118209000Y-257320196D01*
X118209000Y-256679804D01*
X118333934Y-256051718D01*
X118579001Y-255460074D01*
X118934784Y-254927608D01*
X119387608Y-254474784D01*
X119920074Y-254119001D01*
X120511718Y-253873934D01*
X120825761Y-253811467D01*
X121139803Y-253749000D01*
X121780197Y-253749000D01*
X122094239Y-253811467D01*
G37*
G36*
X33194239Y-253811467D02*
G01*
X33508282Y-253873934D01*
X34099926Y-254119001D01*
X34632392Y-254474784D01*
X35085216Y-254927608D01*
X35440999Y-255460074D01*
X35686066Y-256051718D01*
X35811000Y-256679804D01*
X35811000Y-257320196D01*
X35686066Y-257948282D01*
X35440999Y-258539926D01*
X35085216Y-259072392D01*
X34632392Y-259525216D01*
X34099926Y-259880999D01*
X33508282Y-260126066D01*
X33194239Y-260188533D01*
X32880197Y-260251000D01*
X32239803Y-260251000D01*
X31925761Y-260188533D01*
X31611718Y-260126066D01*
X31020074Y-259880999D01*
X30487608Y-259525216D01*
X30034784Y-259072392D01*
X29679001Y-258539926D01*
X29433934Y-257948282D01*
X29309000Y-257320196D01*
X29309000Y-256679804D01*
X29433934Y-256051718D01*
X29679001Y-255460074D01*
X30034784Y-254927608D01*
X30487608Y-254474784D01*
X31020074Y-254119001D01*
X31611718Y-253873934D01*
X31925761Y-253811467D01*
X32239803Y-253749000D01*
X32880197Y-253749000D01*
X33194239Y-253811467D01*
G37*
G36*
X188774239Y-253811467D02*
G01*
X189088282Y-253873934D01*
X189679926Y-254119001D01*
X190212392Y-254474784D01*
X190665216Y-254927608D01*
X191020999Y-255460074D01*
X191266066Y-256051718D01*
X191391000Y-256679804D01*
X191391000Y-257320196D01*
X191266066Y-257948282D01*
X191020999Y-258539926D01*
X190665216Y-259072392D01*
X190212392Y-259525216D01*
X189679926Y-259880999D01*
X189088282Y-260126066D01*
X188774239Y-260188533D01*
X188460197Y-260251000D01*
X187819803Y-260251000D01*
X187505761Y-260188533D01*
X187191718Y-260126066D01*
X186600074Y-259880999D01*
X186067608Y-259525216D01*
X185614784Y-259072392D01*
X185259001Y-258539926D01*
X185013934Y-257948282D01*
X184889000Y-257320196D01*
X184889000Y-256679804D01*
X185013934Y-256051718D01*
X185259001Y-255460074D01*
X185614784Y-254927608D01*
X186067608Y-254474784D01*
X186600074Y-254119001D01*
X187191718Y-253873934D01*
X187505761Y-253811467D01*
X187819803Y-253749000D01*
X188460197Y-253749000D01*
X188774239Y-253811467D01*
G37*
G36*
X141819729Y-248922599D02*
G01*
X142127178Y-249015863D01*
X142410514Y-249167309D01*
X142410517Y-249167311D01*
X142410518Y-249167312D01*
X142658871Y-249371129D01*
X142658873Y-249371132D01*
X142862689Y-249619482D01*
X143014137Y-249902821D01*
X143107401Y-250210270D01*
X143131000Y-250449878D01*
X143131000Y-251550121D01*
X143107401Y-251789730D01*
X143014137Y-252097179D01*
X142862689Y-252380518D01*
X142658871Y-252628871D01*
X142410518Y-252832689D01*
X142127179Y-252984137D01*
X141819730Y-253077401D01*
X141500000Y-253108891D01*
X141180271Y-253077401D01*
X140872822Y-252984137D01*
X140589483Y-252832689D01*
X140341130Y-252628871D01*
X140137312Y-252380519D01*
X140066180Y-252247441D01*
X139985863Y-252097179D01*
X139892599Y-251789730D01*
X139869000Y-251550122D01*
X139869000Y-250449879D01*
X139892599Y-250210271D01*
X139985863Y-249902822D01*
X140137309Y-249619486D01*
X140137313Y-249619481D01*
X140341129Y-249371129D01*
X140589481Y-249167312D01*
X140589480Y-249167312D01*
X140589482Y-249167311D01*
X140872821Y-249015863D01*
X141180270Y-248922599D01*
X141500000Y-248891109D01*
X141819729Y-248922599D01*
G37*
G36*
X137859729Y-248922599D02*
G01*
X138167178Y-249015863D01*
X138450514Y-249167309D01*
X138450517Y-249167311D01*
X138450518Y-249167312D01*
X138698871Y-249371129D01*
X138698873Y-249371132D01*
X138902689Y-249619482D01*
X139054137Y-249902821D01*
X139147401Y-250210270D01*
X139171000Y-250449878D01*
X139171000Y-251550121D01*
X139147401Y-251789730D01*
X139054137Y-252097179D01*
X138902689Y-252380518D01*
X138698871Y-252628871D01*
X138450518Y-252832689D01*
X138167179Y-252984137D01*
X137859730Y-253077401D01*
X137540000Y-253108891D01*
X137220271Y-253077401D01*
X136912822Y-252984137D01*
X136629483Y-252832689D01*
X136381130Y-252628871D01*
X136177312Y-252380519D01*
X136106180Y-252247441D01*
X136025863Y-252097179D01*
X135932599Y-251789730D01*
X135909000Y-251550122D01*
X135909000Y-250449879D01*
X135932599Y-250210271D01*
X136025863Y-249902822D01*
X136177309Y-249619486D01*
X136177313Y-249619481D01*
X136381129Y-249371129D01*
X136629481Y-249167312D01*
X136629480Y-249167312D01*
X136629482Y-249167311D01*
X136912821Y-249015863D01*
X137220270Y-248922599D01*
X137540000Y-248891109D01*
X137859729Y-248922599D01*
G37*
G36*
X145779729Y-248922599D02*
G01*
X146087178Y-249015863D01*
X146370514Y-249167309D01*
X146370517Y-249167311D01*
X146370518Y-249167312D01*
X146618871Y-249371129D01*
X146618873Y-249371132D01*
X146822689Y-249619482D01*
X146974137Y-249902821D01*
X147067401Y-250210270D01*
X147091000Y-250449878D01*
X147091000Y-251550121D01*
X147067401Y-251789730D01*
X146974137Y-252097179D01*
X146822689Y-252380518D01*
X146618871Y-252628871D01*
X146370518Y-252832689D01*
X146087179Y-252984137D01*
X145779730Y-253077401D01*
X145460000Y-253108891D01*
X145140271Y-253077401D01*
X144832822Y-252984137D01*
X144549483Y-252832689D01*
X144301130Y-252628871D01*
X144097312Y-252380519D01*
X144026180Y-252247441D01*
X143945863Y-252097179D01*
X143852599Y-251789730D01*
X143829000Y-251550122D01*
X143829000Y-250449879D01*
X143852599Y-250210271D01*
X143945863Y-249902822D01*
X144097309Y-249619486D01*
X144097313Y-249619481D01*
X144301129Y-249371129D01*
X144549481Y-249167312D01*
X144549480Y-249167312D01*
X144549482Y-249167311D01*
X144832821Y-249015863D01*
X145140270Y-248922599D01*
X145460000Y-248891109D01*
X145779729Y-248922599D01*
G37*
G36*
X135087850Y-248902530D02*
G01*
X135116413Y-248911194D01*
X135142734Y-248925263D01*
X135165804Y-248944196D01*
X135184737Y-248967266D01*
X135198806Y-248993587D01*
X135207470Y-249022150D01*
X135211000Y-249057990D01*
X135211000Y-252942010D01*
X135207470Y-252977850D01*
X135198806Y-253006413D01*
X135184737Y-253032734D01*
X135165804Y-253055804D01*
X135142734Y-253074737D01*
X135116413Y-253088806D01*
X135087850Y-253097470D01*
X135052010Y-253101000D01*
X132107990Y-253101000D01*
X132072150Y-253097470D01*
X132043587Y-253088806D01*
X132017266Y-253074737D01*
X131994196Y-253055804D01*
X131975263Y-253032734D01*
X131961194Y-253006413D01*
X131952530Y-252977850D01*
X131949000Y-252942010D01*
X131949000Y-249057990D01*
X131952530Y-249022150D01*
X131961194Y-248993587D01*
X131975263Y-248967266D01*
X131994196Y-248944196D01*
X132017266Y-248925263D01*
X132043587Y-248911194D01*
X132072150Y-248902530D01*
X132107990Y-248899000D01*
X135052010Y-248899000D01*
X135087850Y-248902530D01*
G37*
G36*
X194703551Y-242848250D02*
G01*
X194861517Y-242896168D01*
X195019481Y-242944086D01*
X195019483Y-242944087D01*
X195310640Y-243099714D01*
X195565845Y-243309155D01*
X195775286Y-243564360D01*
X195930913Y-243855517D01*
X196026750Y-244171449D01*
X196059109Y-244500000D01*
X196026750Y-244828551D01*
X195930913Y-245144483D01*
X195775286Y-245435640D01*
X195565845Y-245690845D01*
X195310640Y-245900286D01*
X195019483Y-246055913D01*
X195019481Y-246055914D01*
X194861517Y-246103831D01*
X194703551Y-246151750D01*
X194457335Y-246176000D01*
X191542665Y-246176000D01*
X191296449Y-246151750D01*
X191138483Y-246103831D01*
X190980519Y-246055914D01*
X190980517Y-246055913D01*
X190689360Y-245900286D01*
X190434155Y-245690845D01*
X190224714Y-245435640D01*
X190069087Y-245144483D01*
X189973250Y-244828551D01*
X189940891Y-244500000D01*
X189973250Y-244171449D01*
X190069087Y-243855517D01*
X190224714Y-243564360D01*
X190434155Y-243309155D01*
X190689360Y-243099714D01*
X190980517Y-242944087D01*
X190980519Y-242944086D01*
X191138483Y-242896168D01*
X191296449Y-242848250D01*
X191542665Y-242824000D01*
X194457335Y-242824000D01*
X194703551Y-242848250D01*
G37*
G36*
X154814795Y-239420156D02*
G01*
X154921150Y-239441311D01*
X155021334Y-239482809D01*
X155121520Y-239524307D01*
X155301844Y-239644795D01*
X155455205Y-239798156D01*
X155575693Y-239978480D01*
X155575693Y-239978481D01*
X155658689Y-240178850D01*
X155701000Y-240391561D01*
X155701000Y-240608439D01*
X155658689Y-240821150D01*
X155639188Y-240868229D01*
X155575693Y-241021520D01*
X155455205Y-241201844D01*
X155301844Y-241355205D01*
X155121520Y-241475693D01*
X154921150Y-241558689D01*
X154814795Y-241579844D01*
X154708440Y-241601000D01*
X154491560Y-241601000D01*
X154385205Y-241579844D01*
X154278850Y-241558689D01*
X154078480Y-241475693D01*
X153898156Y-241355205D01*
X153744795Y-241201844D01*
X153624307Y-241021520D01*
X153560812Y-240868229D01*
X153541311Y-240821150D01*
X153499000Y-240608439D01*
X153499000Y-240391561D01*
X153541311Y-240178850D01*
X153624307Y-239978481D01*
X153624307Y-239978480D01*
X153744795Y-239798156D01*
X153898156Y-239644795D01*
X154078480Y-239524307D01*
X154178666Y-239482809D01*
X154278850Y-239441311D01*
X154385205Y-239420156D01*
X154491560Y-239399000D01*
X154708440Y-239399000D01*
X154814795Y-239420156D01*
G37*
G36*
X176914795Y-239420156D02*
G01*
X177021150Y-239441311D01*
X177121334Y-239482809D01*
X177221520Y-239524307D01*
X177401844Y-239644795D01*
X177555205Y-239798156D01*
X177675693Y-239978480D01*
X177675693Y-239978481D01*
X177758689Y-240178850D01*
X177801000Y-240391561D01*
X177801000Y-240608439D01*
X177758689Y-240821150D01*
X177739188Y-240868229D01*
X177675693Y-241021520D01*
X177555205Y-241201844D01*
X177401844Y-241355205D01*
X177221520Y-241475693D01*
X177021150Y-241558689D01*
X176914795Y-241579844D01*
X176808440Y-241601000D01*
X176591560Y-241601000D01*
X176485205Y-241579844D01*
X176378850Y-241558689D01*
X176178480Y-241475693D01*
X175998156Y-241355205D01*
X175844795Y-241201844D01*
X175724307Y-241021520D01*
X175660812Y-240868229D01*
X175641311Y-240821150D01*
X175599000Y-240608439D01*
X175599000Y-240391561D01*
X175641311Y-240178850D01*
X175724307Y-239978481D01*
X175724307Y-239978480D01*
X175844795Y-239798156D01*
X175998156Y-239644795D01*
X176178480Y-239524307D01*
X176278666Y-239482809D01*
X176378850Y-239441311D01*
X176485205Y-239420156D01*
X176591560Y-239399000D01*
X176808440Y-239399000D01*
X176914795Y-239420156D01*
G37*
G36*
X149248228Y-239801703D02*
G01*
X149403100Y-239865853D01*
X149542481Y-239958985D01*
X149661015Y-240077519D01*
X149754147Y-240216900D01*
X149818297Y-240371772D01*
X149851000Y-240536184D01*
X149851000Y-240703816D01*
X149818297Y-240868228D01*
X149754147Y-241023100D01*
X149661015Y-241162481D01*
X149542481Y-241281015D01*
X149403100Y-241374147D01*
X149248228Y-241438297D01*
X149083816Y-241471000D01*
X148916184Y-241471000D01*
X148751772Y-241438297D01*
X148596900Y-241374147D01*
X148457519Y-241281015D01*
X148338985Y-241162481D01*
X148245853Y-241023100D01*
X148181703Y-240868228D01*
X148149000Y-240703816D01*
X148149000Y-240536184D01*
X148181703Y-240371772D01*
X148245853Y-240216900D01*
X148338985Y-240077519D01*
X148457519Y-239958985D01*
X148596900Y-239865853D01*
X148751772Y-239801703D01*
X148916184Y-239769000D01*
X149083816Y-239769000D01*
X149248228Y-239801703D01*
G37*
G36*
X154814795Y-231920156D02*
G01*
X154921150Y-231941311D01*
X155121520Y-232024307D01*
X155301844Y-232144795D01*
X155455205Y-232298156D01*
X155575693Y-232478480D01*
X155658689Y-232678851D01*
X155701000Y-232891560D01*
X155701000Y-233108440D01*
X155658689Y-233321149D01*
X155575693Y-233521520D01*
X155455205Y-233701844D01*
X155301844Y-233855205D01*
X155121520Y-233975693D01*
X155021334Y-234017191D01*
X154921150Y-234058689D01*
X154814794Y-234079845D01*
X154708440Y-234101000D01*
X154491560Y-234101000D01*
X154385206Y-234079845D01*
X154278850Y-234058689D01*
X154178666Y-234017191D01*
X154078480Y-233975693D01*
X153898156Y-233855205D01*
X153744795Y-233701844D01*
X153624307Y-233521520D01*
X153541311Y-233321149D01*
X153499000Y-233108440D01*
X153499000Y-232891560D01*
X153541311Y-232678851D01*
X153624307Y-232478480D01*
X153744795Y-232298156D01*
X153898156Y-232144795D01*
X154078480Y-232024307D01*
X154278850Y-231941311D01*
X154385205Y-231920156D01*
X154491560Y-231899000D01*
X154708440Y-231899000D01*
X154814795Y-231920156D01*
G37*
G36*
X180114795Y-231920156D02*
G01*
X180221150Y-231941311D01*
X180421520Y-232024307D01*
X180601844Y-232144795D01*
X180755205Y-232298156D01*
X180875693Y-232478480D01*
X180958689Y-232678851D01*
X181001000Y-232891560D01*
X181001000Y-233108440D01*
X180958689Y-233321149D01*
X180875693Y-233521520D01*
X180755205Y-233701844D01*
X180601844Y-233855205D01*
X180421520Y-233975693D01*
X180321334Y-234017191D01*
X180221150Y-234058689D01*
X180114794Y-234079845D01*
X180008440Y-234101000D01*
X179791560Y-234101000D01*
X179685206Y-234079845D01*
X179578850Y-234058689D01*
X179478666Y-234017191D01*
X179378480Y-233975693D01*
X179198156Y-233855205D01*
X179044795Y-233701844D01*
X178924307Y-233521520D01*
X178841311Y-233321149D01*
X178799000Y-233108440D01*
X178799000Y-232891560D01*
X178841311Y-232678851D01*
X178924307Y-232478480D01*
X179044795Y-232298156D01*
X179198156Y-232144795D01*
X179378480Y-232024307D01*
X179578850Y-231941311D01*
X179685205Y-231920156D01*
X179791560Y-231899000D01*
X180008440Y-231899000D01*
X180114795Y-231920156D01*
G37*
G36*
X173714795Y-231920156D02*
G01*
X173821150Y-231941311D01*
X174021520Y-232024307D01*
X174201844Y-232144795D01*
X174355205Y-232298156D01*
X174475693Y-232478480D01*
X174558689Y-232678851D01*
X174601000Y-232891560D01*
X174601000Y-233108440D01*
X174558689Y-233321149D01*
X174475693Y-233521520D01*
X174355205Y-233701844D01*
X174201844Y-233855205D01*
X174021520Y-233975693D01*
X173921334Y-234017191D01*
X173821150Y-234058689D01*
X173714794Y-234079845D01*
X173608440Y-234101000D01*
X173391560Y-234101000D01*
X173285206Y-234079845D01*
X173178850Y-234058689D01*
X173078666Y-234017191D01*
X172978480Y-233975693D01*
X172798156Y-233855205D01*
X172644795Y-233701844D01*
X172524307Y-233521520D01*
X172441311Y-233321149D01*
X172399000Y-233108440D01*
X172399000Y-232891560D01*
X172441311Y-232678851D01*
X172524307Y-232478480D01*
X172644795Y-232298156D01*
X172798156Y-232144795D01*
X172978480Y-232024307D01*
X173178850Y-231941311D01*
X173285205Y-231920156D01*
X173391560Y-231899000D01*
X173608440Y-231899000D01*
X173714795Y-231920156D01*
G37*
G36*
X149851000Y-233851000D02*
G01*
X148149000Y-233851000D01*
X148149000Y-232149000D01*
X149851000Y-232149000D01*
X149851000Y-233851000D01*
G37*
G36*
X193375256Y-224141298D02*
G01*
X193481579Y-224162447D01*
X193782042Y-224286903D01*
X194052451Y-224467585D01*
X194282415Y-224697549D01*
X194463097Y-224967958D01*
X194587553Y-225268421D01*
X194651000Y-225587391D01*
X194651000Y-225912609D01*
X194587553Y-226231579D01*
X194463097Y-226532042D01*
X194282415Y-226802451D01*
X194052451Y-227032415D01*
X193782042Y-227213097D01*
X193481579Y-227337553D01*
X193375256Y-227358702D01*
X193162611Y-227401000D01*
X192837389Y-227401000D01*
X192624744Y-227358702D01*
X192518421Y-227337553D01*
X192217958Y-227213097D01*
X191947549Y-227032415D01*
X191717585Y-226802451D01*
X191536903Y-226532042D01*
X191412447Y-226231579D01*
X191349000Y-225912609D01*
X191349000Y-225587391D01*
X191412447Y-225268421D01*
X191536903Y-224967958D01*
X191717585Y-224697549D01*
X191947549Y-224467585D01*
X192217958Y-224286903D01*
X192518421Y-224162447D01*
X192624744Y-224141298D01*
X192837389Y-224099000D01*
X193162611Y-224099000D01*
X193375256Y-224141298D01*
G37*
G36*
X147351000Y-220851000D02*
G01*
X145649000Y-220851000D01*
X145649000Y-219149000D01*
X147351000Y-219149000D01*
X147351000Y-220851000D01*
G37*
G36*
X148748228Y-219181703D02*
G01*
X148903100Y-219245853D01*
X149042481Y-219338985D01*
X149161015Y-219457519D01*
X149254147Y-219596900D01*
X149318297Y-219751772D01*
X149351000Y-219916184D01*
X149351000Y-220083816D01*
X149318297Y-220248228D01*
X149254147Y-220403100D01*
X149161015Y-220542481D01*
X149042481Y-220661015D01*
X148903100Y-220754147D01*
X148748228Y-220818297D01*
X148583816Y-220851000D01*
X148416184Y-220851000D01*
X148251772Y-220818297D01*
X148096900Y-220754147D01*
X147957519Y-220661015D01*
X147838985Y-220542481D01*
X147745853Y-220403100D01*
X147681703Y-220248228D01*
X147649000Y-220083816D01*
X147649000Y-219916184D01*
X147681703Y-219751772D01*
X147745853Y-219596900D01*
X147838985Y-219457519D01*
X147957519Y-219338985D01*
X148096900Y-219245853D01*
X148251772Y-219181703D01*
X148416184Y-219149000D01*
X148583816Y-219149000D01*
X148748228Y-219181703D01*
G37*
G36*
X154342916Y-218707334D02*
G01*
X154451492Y-218740271D01*
X154451495Y-218740272D01*
X154487601Y-218759571D01*
X154551557Y-218793756D01*
X154639264Y-218865736D01*
X154702383Y-218942646D01*
X154719702Y-218959965D01*
X154740077Y-218973579D01*
X154762716Y-218982957D01*
X154786749Y-218987737D01*
X154811253Y-218987737D01*
X154835286Y-218982957D01*
X154857925Y-218973579D01*
X154878299Y-218959966D01*
X154895626Y-218942639D01*
X154909240Y-218922264D01*
X154918618Y-218899625D01*
X154923398Y-218875592D01*
X154924000Y-218863340D01*
X154924000Y-218699000D01*
X156076000Y-218699000D01*
X156076000Y-220301000D01*
X154924000Y-220301000D01*
X154924000Y-220136660D01*
X154921598Y-220112274D01*
X154914485Y-220088825D01*
X154902934Y-220067214D01*
X154887389Y-220048272D01*
X154868447Y-220032727D01*
X154846836Y-220021176D01*
X154823387Y-220014063D01*
X154799001Y-220011661D01*
X154774615Y-220014063D01*
X154751166Y-220021176D01*
X154729555Y-220032727D01*
X154702381Y-220057356D01*
X154639264Y-220134264D01*
X154551556Y-220206244D01*
X154487600Y-220240429D01*
X154451494Y-220259728D01*
X154451491Y-220259729D01*
X154342915Y-220292666D01*
X154230000Y-220303787D01*
X154117084Y-220292666D01*
X154008508Y-220259729D01*
X154008505Y-220259728D01*
X153972399Y-220240429D01*
X153908443Y-220206244D01*
X153820736Y-220134264D01*
X153748756Y-220046556D01*
X153705239Y-219965140D01*
X153691625Y-219944766D01*
X153674298Y-219927439D01*
X153653924Y-219913825D01*
X153631285Y-219904448D01*
X153607251Y-219899668D01*
X153582747Y-219899668D01*
X153558714Y-219904449D01*
X153536075Y-219913826D01*
X153515701Y-219927440D01*
X153498374Y-219944767D01*
X153484762Y-219965140D01*
X153441244Y-220046557D01*
X153369264Y-220134264D01*
X153281556Y-220206244D01*
X153217600Y-220240429D01*
X153181494Y-220259728D01*
X153181491Y-220259729D01*
X153072915Y-220292666D01*
X152960000Y-220303787D01*
X152847084Y-220292666D01*
X152738508Y-220259729D01*
X152738505Y-220259728D01*
X152702399Y-220240429D01*
X152638443Y-220206244D01*
X152550736Y-220134264D01*
X152478756Y-220046556D01*
X152435239Y-219965140D01*
X152425272Y-219946494D01*
X152419492Y-219927440D01*
X152392334Y-219837915D01*
X152384000Y-219753297D01*
X152384000Y-219246702D01*
X152392334Y-219162084D01*
X152425271Y-219053508D01*
X152425272Y-219053505D01*
X152478756Y-218953445D01*
X152478757Y-218953443D01*
X152550737Y-218865736D01*
X152638444Y-218793756D01*
X152702400Y-218759571D01*
X152738506Y-218740272D01*
X152738509Y-218740271D01*
X152847085Y-218707334D01*
X152960000Y-218696213D01*
X153072916Y-218707334D01*
X153181492Y-218740271D01*
X153181495Y-218740272D01*
X153217601Y-218759571D01*
X153281557Y-218793756D01*
X153369264Y-218865736D01*
X153441244Y-218953443D01*
X153457019Y-218982957D01*
X153484761Y-219034859D01*
X153498375Y-219055234D01*
X153515702Y-219072561D01*
X153536076Y-219086174D01*
X153558715Y-219095552D01*
X153582748Y-219100332D01*
X153607252Y-219100332D01*
X153631285Y-219095552D01*
X153653924Y-219086174D01*
X153674299Y-219072560D01*
X153691626Y-219055233D01*
X153705239Y-219034859D01*
X153748756Y-218953445D01*
X153748757Y-218953443D01*
X153820737Y-218865736D01*
X153908444Y-218793756D01*
X153972400Y-218759571D01*
X154008506Y-218740272D01*
X154008509Y-218740271D01*
X154117085Y-218707334D01*
X154230000Y-218696213D01*
X154342916Y-218707334D01*
G37*
G36*
X175777395Y-215985546D02*
G01*
X175950466Y-216057234D01*
X175950467Y-216057235D01*
X176106227Y-216161310D01*
X176238690Y-216293773D01*
X176238691Y-216293775D01*
X176342766Y-216449534D01*
X176414454Y-216622605D01*
X176451000Y-216806333D01*
X176451000Y-216993667D01*
X176414454Y-217177395D01*
X176342766Y-217350466D01*
X176342765Y-217350467D01*
X176238690Y-217506227D01*
X176106227Y-217638690D01*
X176027818Y-217691081D01*
X175950466Y-217742766D01*
X175777395Y-217814454D01*
X175593667Y-217851000D01*
X175406333Y-217851000D01*
X175222605Y-217814454D01*
X175049534Y-217742766D01*
X174972182Y-217691081D01*
X174893773Y-217638690D01*
X174761310Y-217506227D01*
X174657235Y-217350467D01*
X174657234Y-217350466D01*
X174585546Y-217177395D01*
X174549000Y-216993667D01*
X174549000Y-216806333D01*
X174585546Y-216622605D01*
X174657234Y-216449534D01*
X174761309Y-216293775D01*
X174761310Y-216293773D01*
X174893773Y-216161310D01*
X175049533Y-216057235D01*
X175049534Y-216057234D01*
X175222605Y-215985546D01*
X175406333Y-215949000D01*
X175593667Y-215949000D01*
X175777395Y-215985546D01*
G37*
G36*
X146248228Y-214681703D02*
G01*
X146403100Y-214745853D01*
X146542481Y-214838985D01*
X146661015Y-214957519D01*
X146754147Y-215096900D01*
X146818297Y-215251772D01*
X146851000Y-215416184D01*
X146851000Y-215583816D01*
X146818297Y-215748228D01*
X146754147Y-215903100D01*
X146661015Y-216042481D01*
X146542481Y-216161015D01*
X146403100Y-216254147D01*
X146248228Y-216318297D01*
X146083816Y-216351000D01*
X145916184Y-216351000D01*
X145751772Y-216318297D01*
X145596900Y-216254147D01*
X145457519Y-216161015D01*
X145338985Y-216042481D01*
X145245853Y-215903100D01*
X145181703Y-215748228D01*
X145149000Y-215583816D01*
X145149000Y-215416184D01*
X145181703Y-215251772D01*
X145245853Y-215096900D01*
X145338985Y-214957519D01*
X145457519Y-214838985D01*
X145596900Y-214745853D01*
X145751772Y-214681703D01*
X145916184Y-214649000D01*
X146083816Y-214649000D01*
X146248228Y-214681703D01*
G37*
G36*
X156408228Y-214681703D02*
G01*
X156563100Y-214745853D01*
X156702481Y-214838985D01*
X156821015Y-214957519D01*
X156914147Y-215096900D01*
X156978297Y-215251772D01*
X157011000Y-215416184D01*
X157011000Y-215583816D01*
X156978297Y-215748228D01*
X156914147Y-215903100D01*
X156821015Y-216042481D01*
X156702481Y-216161015D01*
X156563100Y-216254147D01*
X156408228Y-216318297D01*
X156243816Y-216351000D01*
X156076184Y-216351000D01*
X155911772Y-216318297D01*
X155756900Y-216254147D01*
X155617519Y-216161015D01*
X155498985Y-216042481D01*
X155405853Y-215903100D01*
X155341703Y-215748228D01*
X155309000Y-215583816D01*
X155309000Y-215416184D01*
X155341703Y-215251772D01*
X155405853Y-215096900D01*
X155498985Y-214957519D01*
X155617519Y-214838985D01*
X155756900Y-214745853D01*
X155911772Y-214681703D01*
X156076184Y-214649000D01*
X156243816Y-214649000D01*
X156408228Y-214681703D01*
G37*
G36*
X78216228Y-204936091D02*
G01*
X78560829Y-205004636D01*
X79534649Y-205408005D01*
X80411064Y-205993607D01*
X81156393Y-206738936D01*
X81741995Y-207615351D01*
X82145364Y-208589171D01*
X82157812Y-208651750D01*
X82343212Y-209583816D01*
X82351000Y-209622973D01*
X82351000Y-210677027D01*
X82145364Y-211710829D01*
X81741995Y-212684649D01*
X81156393Y-213561064D01*
X80411064Y-214306393D01*
X79534649Y-214891995D01*
X78560829Y-215295364D01*
X78216228Y-215363909D01*
X77527029Y-215501000D01*
X76472971Y-215501000D01*
X75783772Y-215363909D01*
X75439171Y-215295364D01*
X74465351Y-214891995D01*
X73588936Y-214306393D01*
X72843607Y-213561064D01*
X72258005Y-212684649D01*
X71854636Y-211710829D01*
X71649000Y-210677027D01*
X71649000Y-209622973D01*
X71656789Y-209583816D01*
X71842188Y-208651750D01*
X71854636Y-208589171D01*
X72258005Y-207615351D01*
X72843607Y-206738936D01*
X73588936Y-205993607D01*
X74465351Y-205408005D01*
X75439171Y-205004636D01*
X75783772Y-204936091D01*
X76472971Y-204799000D01*
X77527029Y-204799000D01*
X78216228Y-204936091D01*
G37*
G36*
X168277395Y-213085546D02*
G01*
X168450466Y-213157234D01*
X168527818Y-213208919D01*
X168606227Y-213261310D01*
X168738690Y-213393773D01*
X168738691Y-213393775D01*
X168842766Y-213549534D01*
X168914454Y-213722605D01*
X168951000Y-213906333D01*
X168951000Y-214093667D01*
X168914454Y-214277395D01*
X168842766Y-214450466D01*
X168842765Y-214450467D01*
X168738690Y-214606227D01*
X168606227Y-214738690D01*
X168527818Y-214791081D01*
X168450466Y-214842766D01*
X168277395Y-214914454D01*
X168093667Y-214951000D01*
X167906333Y-214951000D01*
X167722605Y-214914454D01*
X167549534Y-214842766D01*
X167472182Y-214791081D01*
X167393773Y-214738690D01*
X167261310Y-214606227D01*
X167157235Y-214450467D01*
X167157234Y-214450466D01*
X167085546Y-214277395D01*
X167049000Y-214093667D01*
X167049000Y-213906333D01*
X167085546Y-213722605D01*
X167157234Y-213549534D01*
X167261309Y-213393775D01*
X167261310Y-213393773D01*
X167393773Y-213261310D01*
X167472182Y-213208919D01*
X167549534Y-213157234D01*
X167722605Y-213085546D01*
X167906333Y-213049000D01*
X168093667Y-213049000D01*
X168277395Y-213085546D01*
G37*
G36*
X156408228Y-211681703D02*
G01*
X156563100Y-211745853D01*
X156702481Y-211838985D01*
X156821015Y-211957519D01*
X156914147Y-212096900D01*
X156978297Y-212251772D01*
X157011000Y-212416184D01*
X157011000Y-212583816D01*
X156978297Y-212748228D01*
X156914147Y-212903100D01*
X156821015Y-213042481D01*
X156702481Y-213161015D01*
X156563100Y-213254147D01*
X156408228Y-213318297D01*
X156243816Y-213351000D01*
X156076184Y-213351000D01*
X155911772Y-213318297D01*
X155756900Y-213254147D01*
X155617519Y-213161015D01*
X155498985Y-213042481D01*
X155405853Y-212903100D01*
X155341703Y-212748228D01*
X155309000Y-212583816D01*
X155309000Y-212416184D01*
X155341703Y-212251772D01*
X155405853Y-212096900D01*
X155498985Y-211957519D01*
X155617519Y-211838985D01*
X155756900Y-211745853D01*
X155911772Y-211681703D01*
X156076184Y-211649000D01*
X156243816Y-211649000D01*
X156408228Y-211681703D01*
G37*
G36*
X146248228Y-211681703D02*
G01*
X146403100Y-211745853D01*
X146542481Y-211838985D01*
X146661015Y-211957519D01*
X146754147Y-212096900D01*
X146818297Y-212251772D01*
X146851000Y-212416184D01*
X146851000Y-212583816D01*
X146818297Y-212748228D01*
X146754147Y-212903100D01*
X146661015Y-213042481D01*
X146542481Y-213161015D01*
X146403100Y-213254147D01*
X146248228Y-213318297D01*
X146083816Y-213351000D01*
X145916184Y-213351000D01*
X145751772Y-213318297D01*
X145596900Y-213254147D01*
X145457519Y-213161015D01*
X145338985Y-213042481D01*
X145245853Y-212903100D01*
X145181703Y-212748228D01*
X145149000Y-212583816D01*
X145149000Y-212416184D01*
X145181703Y-212251772D01*
X145245853Y-212096900D01*
X145338985Y-211957519D01*
X145457519Y-211838985D01*
X145596900Y-211745853D01*
X145751772Y-211681703D01*
X145916184Y-211649000D01*
X146083816Y-211649000D01*
X146248228Y-211681703D01*
G37*
G36*
X156408228Y-208681703D02*
G01*
X156563100Y-208745853D01*
X156702481Y-208838985D01*
X156821015Y-208957519D01*
X156914147Y-209096900D01*
X156978297Y-209251772D01*
X157011000Y-209416184D01*
X157011000Y-209583816D01*
X156978297Y-209748228D01*
X156914147Y-209903100D01*
X156821015Y-210042481D01*
X156702481Y-210161015D01*
X156563100Y-210254147D01*
X156408228Y-210318297D01*
X156243816Y-210351000D01*
X156076184Y-210351000D01*
X155911772Y-210318297D01*
X155756900Y-210254147D01*
X155617519Y-210161015D01*
X155498985Y-210042481D01*
X155405853Y-209903100D01*
X155341703Y-209748228D01*
X155309000Y-209583816D01*
X155309000Y-209416184D01*
X155341703Y-209251772D01*
X155405853Y-209096900D01*
X155498985Y-208957519D01*
X155617519Y-208838985D01*
X155756900Y-208745853D01*
X155911772Y-208681703D01*
X156076184Y-208649000D01*
X156243816Y-208649000D01*
X156408228Y-208681703D01*
G37*
G36*
X146248228Y-208681703D02*
G01*
X146403100Y-208745853D01*
X146542481Y-208838985D01*
X146661015Y-208957519D01*
X146754147Y-209096900D01*
X146818297Y-209251772D01*
X146851000Y-209416184D01*
X146851000Y-209583816D01*
X146818297Y-209748228D01*
X146754147Y-209903100D01*
X146661015Y-210042481D01*
X146542481Y-210161015D01*
X146403100Y-210254147D01*
X146248228Y-210318297D01*
X146083816Y-210351000D01*
X145916184Y-210351000D01*
X145751772Y-210318297D01*
X145596900Y-210254147D01*
X145457519Y-210161015D01*
X145338985Y-210042481D01*
X145245853Y-209903100D01*
X145181703Y-209748228D01*
X145149000Y-209583816D01*
X145149000Y-209416184D01*
X145181703Y-209251772D01*
X145245853Y-209096900D01*
X145338985Y-208957519D01*
X145457519Y-208838985D01*
X145596900Y-208745853D01*
X145751772Y-208681703D01*
X145916184Y-208649000D01*
X146083816Y-208649000D01*
X146248228Y-208681703D01*
G37*
G36*
X194703551Y-205348250D02*
G01*
X194861517Y-205396169D01*
X195019481Y-205444086D01*
X195019483Y-205444087D01*
X195310640Y-205599714D01*
X195565845Y-205809155D01*
X195775286Y-206064360D01*
X195875459Y-206251771D01*
X195930914Y-206355519D01*
X195978832Y-206513483D01*
X196026750Y-206671449D01*
X196059109Y-207000000D01*
X196026750Y-207328551D01*
X196026749Y-207328553D01*
X195939750Y-207615353D01*
X195930913Y-207644483D01*
X195775286Y-207935640D01*
X195565845Y-208190845D01*
X195310640Y-208400286D01*
X195019483Y-208555913D01*
X195019481Y-208555914D01*
X194909843Y-208589172D01*
X194703551Y-208651750D01*
X194457335Y-208676000D01*
X191542665Y-208676000D01*
X191296449Y-208651750D01*
X191090157Y-208589172D01*
X190980519Y-208555914D01*
X190980517Y-208555913D01*
X190689360Y-208400286D01*
X190434155Y-208190845D01*
X190224714Y-207935640D01*
X190069087Y-207644483D01*
X190060251Y-207615353D01*
X189973251Y-207328553D01*
X189973250Y-207328551D01*
X189940891Y-207000000D01*
X189973250Y-206671449D01*
X190021169Y-206513483D01*
X190069086Y-206355519D01*
X190124541Y-206251771D01*
X190224714Y-206064360D01*
X190434155Y-205809155D01*
X190689360Y-205599714D01*
X190980517Y-205444087D01*
X190980519Y-205444086D01*
X191138483Y-205396169D01*
X191296449Y-205348250D01*
X191542665Y-205324000D01*
X194457335Y-205324000D01*
X194703551Y-205348250D01*
G37*
G36*
X149248228Y-205681703D02*
G01*
X149403100Y-205745853D01*
X149542481Y-205838985D01*
X149661015Y-205957519D01*
X149754147Y-206096900D01*
X149818297Y-206251772D01*
X149851000Y-206416184D01*
X149851000Y-206583816D01*
X149818297Y-206748228D01*
X149754147Y-206903100D01*
X149661015Y-207042481D01*
X149542481Y-207161015D01*
X149403100Y-207254147D01*
X149248228Y-207318297D01*
X149083816Y-207351000D01*
X148916184Y-207351000D01*
X148751772Y-207318297D01*
X148596900Y-207254147D01*
X148457519Y-207161015D01*
X148338985Y-207042481D01*
X148245853Y-206903100D01*
X148181703Y-206748228D01*
X148149000Y-206583816D01*
X148149000Y-206416184D01*
X148181703Y-206251772D01*
X148245853Y-206096900D01*
X148338985Y-205957519D01*
X148457519Y-205838985D01*
X148596900Y-205745853D01*
X148751772Y-205681703D01*
X148916184Y-205649000D01*
X149083816Y-205649000D01*
X149248228Y-205681703D01*
G37*
G36*
X146748228Y-205681703D02*
G01*
X146903100Y-205745853D01*
X147042481Y-205838985D01*
X147161015Y-205957519D01*
X147254147Y-206096900D01*
X147318297Y-206251772D01*
X147351000Y-206416184D01*
X147351000Y-206583816D01*
X147318297Y-206748228D01*
X147254147Y-206903100D01*
X147161015Y-207042481D01*
X147042481Y-207161015D01*
X146903100Y-207254147D01*
X146748228Y-207318297D01*
X146583816Y-207351000D01*
X146416184Y-207351000D01*
X146251772Y-207318297D01*
X146096900Y-207254147D01*
X145957519Y-207161015D01*
X145838985Y-207042481D01*
X145745853Y-206903100D01*
X145681703Y-206748228D01*
X145649000Y-206583816D01*
X145649000Y-206416184D01*
X145681703Y-206251772D01*
X145745853Y-206096900D01*
X145838985Y-205957519D01*
X145957519Y-205838985D01*
X146096900Y-205745853D01*
X146251772Y-205681703D01*
X146416184Y-205649000D01*
X146583816Y-205649000D01*
X146748228Y-205681703D01*
G37*
G36*
X148351000Y-204351000D02*
G01*
X146649000Y-204351000D01*
X146649000Y-202649000D01*
X148351000Y-202649000D01*
X148351000Y-204351000D01*
G37*
G36*
X150288228Y-202681703D02*
G01*
X150443100Y-202745853D01*
X150582481Y-202838985D01*
X150701015Y-202957519D01*
X150794147Y-203096900D01*
X150858297Y-203251772D01*
X150891000Y-203416184D01*
X150891000Y-203583816D01*
X150858297Y-203748228D01*
X150794147Y-203903100D01*
X150701015Y-204042481D01*
X150582481Y-204161015D01*
X150443100Y-204254147D01*
X150288228Y-204318297D01*
X150123816Y-204351000D01*
X149956184Y-204351000D01*
X149791772Y-204318297D01*
X149636900Y-204254147D01*
X149497519Y-204161015D01*
X149378985Y-204042481D01*
X149285853Y-203903100D01*
X149221703Y-203748228D01*
X149189000Y-203583816D01*
X149189000Y-203416184D01*
X149221703Y-203251772D01*
X149285853Y-203096900D01*
X149378985Y-202957519D01*
X149497519Y-202838985D01*
X149636900Y-202745853D01*
X149791772Y-202681703D01*
X149956184Y-202649000D01*
X150123816Y-202649000D01*
X150288228Y-202681703D01*
G37*
G36*
X152828228Y-202681703D02*
G01*
X152983100Y-202745853D01*
X153122481Y-202838985D01*
X153241015Y-202957519D01*
X153334147Y-203096900D01*
X153398297Y-203251772D01*
X153431000Y-203416184D01*
X153431000Y-203583816D01*
X153398297Y-203748228D01*
X153334147Y-203903100D01*
X153241015Y-204042481D01*
X153122481Y-204161015D01*
X152983100Y-204254147D01*
X152828228Y-204318297D01*
X152663816Y-204351000D01*
X152496184Y-204351000D01*
X152331772Y-204318297D01*
X152176900Y-204254147D01*
X152037519Y-204161015D01*
X151918985Y-204042481D01*
X151825853Y-203903100D01*
X151761703Y-203748228D01*
X151729000Y-203583816D01*
X151729000Y-203416184D01*
X151761703Y-203251772D01*
X151825853Y-203096900D01*
X151918985Y-202957519D01*
X152037519Y-202838985D01*
X152176900Y-202745853D01*
X152331772Y-202681703D01*
X152496184Y-202649000D01*
X152663816Y-202649000D01*
X152828228Y-202681703D01*
G37*
G36*
X155368228Y-202681703D02*
G01*
X155523100Y-202745853D01*
X155662481Y-202838985D01*
X155781015Y-202957519D01*
X155874147Y-203096900D01*
X155938297Y-203251772D01*
X155971000Y-203416184D01*
X155971000Y-203583816D01*
X155938297Y-203748228D01*
X155874147Y-203903100D01*
X155781015Y-204042481D01*
X155662481Y-204161015D01*
X155523100Y-204254147D01*
X155368228Y-204318297D01*
X155203816Y-204351000D01*
X155036184Y-204351000D01*
X154871772Y-204318297D01*
X154716900Y-204254147D01*
X154577519Y-204161015D01*
X154458985Y-204042481D01*
X154365853Y-203903100D01*
X154301703Y-203748228D01*
X154269000Y-203583816D01*
X154269000Y-203416184D01*
X154301703Y-203251772D01*
X154365853Y-203096900D01*
X154458985Y-202957519D01*
X154577519Y-202838985D01*
X154716900Y-202745853D01*
X154871772Y-202681703D01*
X155036184Y-202649000D01*
X155203816Y-202649000D01*
X155368228Y-202681703D01*
G37*
G36*
X150288228Y-195061703D02*
G01*
X150443100Y-195125853D01*
X150582481Y-195218985D01*
X150701015Y-195337519D01*
X150794147Y-195476900D01*
X150858297Y-195631772D01*
X150891000Y-195796184D01*
X150891000Y-195963816D01*
X150858297Y-196128228D01*
X150794147Y-196283100D01*
X150701015Y-196422481D01*
X150582481Y-196541015D01*
X150443100Y-196634147D01*
X150288228Y-196698297D01*
X150123816Y-196731000D01*
X149956184Y-196731000D01*
X149791772Y-196698297D01*
X149636900Y-196634147D01*
X149497519Y-196541015D01*
X149378985Y-196422481D01*
X149285853Y-196283100D01*
X149221703Y-196128228D01*
X149189000Y-195963816D01*
X149189000Y-195796184D01*
X149221703Y-195631772D01*
X149285853Y-195476900D01*
X149378985Y-195337519D01*
X149497519Y-195218985D01*
X149636900Y-195125853D01*
X149791772Y-195061703D01*
X149956184Y-195029000D01*
X150123816Y-195029000D01*
X150288228Y-195061703D01*
G37*
G36*
X152828228Y-195061703D02*
G01*
X152983100Y-195125853D01*
X153122481Y-195218985D01*
X153241015Y-195337519D01*
X153334147Y-195476900D01*
X153398297Y-195631772D01*
X153431000Y-195796184D01*
X153431000Y-195963816D01*
X153398297Y-196128228D01*
X153334147Y-196283100D01*
X153241015Y-196422481D01*
X153122481Y-196541015D01*
X152983100Y-196634147D01*
X152828228Y-196698297D01*
X152663816Y-196731000D01*
X152496184Y-196731000D01*
X152331772Y-196698297D01*
X152176900Y-196634147D01*
X152037519Y-196541015D01*
X151918985Y-196422481D01*
X151825853Y-196283100D01*
X151761703Y-196128228D01*
X151729000Y-195963816D01*
X151729000Y-195796184D01*
X151761703Y-195631772D01*
X151825853Y-195476900D01*
X151918985Y-195337519D01*
X152037519Y-195218985D01*
X152176900Y-195125853D01*
X152331772Y-195061703D01*
X152496184Y-195029000D01*
X152663816Y-195029000D01*
X152828228Y-195061703D01*
G37*
G36*
X155368228Y-195061703D02*
G01*
X155523100Y-195125853D01*
X155662481Y-195218985D01*
X155781015Y-195337519D01*
X155874147Y-195476900D01*
X155938297Y-195631772D01*
X155971000Y-195796184D01*
X155971000Y-195963816D01*
X155938297Y-196128228D01*
X155874147Y-196283100D01*
X155781015Y-196422481D01*
X155662481Y-196541015D01*
X155523100Y-196634147D01*
X155368228Y-196698297D01*
X155203816Y-196731000D01*
X155036184Y-196731000D01*
X154871772Y-196698297D01*
X154716900Y-196634147D01*
X154577519Y-196541015D01*
X154458985Y-196422481D01*
X154365853Y-196283100D01*
X154301703Y-196128228D01*
X154269000Y-195963816D01*
X154269000Y-195796184D01*
X154301703Y-195631772D01*
X154365853Y-195476900D01*
X154458985Y-195337519D01*
X154577519Y-195218985D01*
X154716900Y-195125853D01*
X154871772Y-195061703D01*
X155036184Y-195029000D01*
X155203816Y-195029000D01*
X155368228Y-195061703D01*
G37*
G36*
X147748228Y-195061703D02*
G01*
X147903100Y-195125853D01*
X148042481Y-195218985D01*
X148161015Y-195337519D01*
X148254147Y-195476900D01*
X148318297Y-195631772D01*
X148351000Y-195796184D01*
X148351000Y-195963816D01*
X148318297Y-196128228D01*
X148254147Y-196283100D01*
X148161015Y-196422481D01*
X148042481Y-196541015D01*
X147903100Y-196634147D01*
X147748228Y-196698297D01*
X147583816Y-196731000D01*
X147416184Y-196731000D01*
X147251772Y-196698297D01*
X147096900Y-196634147D01*
X146957519Y-196541015D01*
X146838985Y-196422481D01*
X146745853Y-196283100D01*
X146681703Y-196128228D01*
X146649000Y-195963816D01*
X146649000Y-195796184D01*
X146681703Y-195631772D01*
X146745853Y-195476900D01*
X146838985Y-195337519D01*
X146957519Y-195218985D01*
X147096900Y-195125853D01*
X147251772Y-195061703D01*
X147416184Y-195029000D01*
X147583816Y-195029000D01*
X147748228Y-195061703D01*
G37*
G36*
X149748228Y-191181703D02*
G01*
X149903100Y-191245853D01*
X150042481Y-191338985D01*
X150161015Y-191457519D01*
X150254147Y-191596900D01*
X150318297Y-191751772D01*
X150351000Y-191916184D01*
X150351000Y-192083816D01*
X150318297Y-192248228D01*
X150254147Y-192403100D01*
X150161015Y-192542481D01*
X150042481Y-192661015D01*
X149903100Y-192754147D01*
X149748228Y-192818297D01*
X149583816Y-192851000D01*
X149416184Y-192851000D01*
X149251772Y-192818297D01*
X149096900Y-192754147D01*
X148957519Y-192661015D01*
X148838985Y-192542481D01*
X148745853Y-192403100D01*
X148681703Y-192248228D01*
X148649000Y-192083816D01*
X148649000Y-191916184D01*
X148681703Y-191751772D01*
X148745853Y-191596900D01*
X148838985Y-191457519D01*
X148957519Y-191338985D01*
X149096900Y-191245853D01*
X149251772Y-191181703D01*
X149416184Y-191149000D01*
X149583816Y-191149000D01*
X149748228Y-191181703D01*
G37*
G36*
X155248228Y-191181703D02*
G01*
X155403100Y-191245853D01*
X155542481Y-191338985D01*
X155661015Y-191457519D01*
X155754147Y-191596900D01*
X155818297Y-191751772D01*
X155851000Y-191916184D01*
X155851000Y-192083816D01*
X155818297Y-192248228D01*
X155754147Y-192403100D01*
X155661015Y-192542481D01*
X155542481Y-192661015D01*
X155403100Y-192754147D01*
X155248228Y-192818297D01*
X155083816Y-192851000D01*
X154916184Y-192851000D01*
X154751772Y-192818297D01*
X154596900Y-192754147D01*
X154457519Y-192661015D01*
X154338985Y-192542481D01*
X154245853Y-192403100D01*
X154181703Y-192248228D01*
X154149000Y-192083816D01*
X154149000Y-191916184D01*
X154181703Y-191751772D01*
X154245853Y-191596900D01*
X154338985Y-191457519D01*
X154457519Y-191338985D01*
X154596900Y-191245853D01*
X154751772Y-191181703D01*
X154916184Y-191149000D01*
X155083816Y-191149000D01*
X155248228Y-191181703D01*
G37*
G36*
X147248228Y-191181703D02*
G01*
X147403100Y-191245853D01*
X147542481Y-191338985D01*
X147661015Y-191457519D01*
X147754147Y-191596900D01*
X147818297Y-191751772D01*
X147851000Y-191916184D01*
X147851000Y-192083816D01*
X147818297Y-192248228D01*
X147754147Y-192403100D01*
X147661015Y-192542481D01*
X147542481Y-192661015D01*
X147403100Y-192754147D01*
X147248228Y-192818297D01*
X147083816Y-192851000D01*
X146916184Y-192851000D01*
X146751772Y-192818297D01*
X146596900Y-192754147D01*
X146457519Y-192661015D01*
X146338985Y-192542481D01*
X146245853Y-192403100D01*
X146181703Y-192248228D01*
X146149000Y-192083816D01*
X146149000Y-191916184D01*
X146181703Y-191751772D01*
X146245853Y-191596900D01*
X146338985Y-191457519D01*
X146457519Y-191338985D01*
X146596900Y-191245853D01*
X146751772Y-191181703D01*
X146916184Y-191149000D01*
X147083816Y-191149000D01*
X147248228Y-191181703D01*
G37*
G36*
X152748228Y-191181703D02*
G01*
X152903100Y-191245853D01*
X153042481Y-191338985D01*
X153161015Y-191457519D01*
X153254147Y-191596900D01*
X153318297Y-191751772D01*
X153351000Y-191916184D01*
X153351000Y-192083816D01*
X153318297Y-192248228D01*
X153254147Y-192403100D01*
X153161015Y-192542481D01*
X153042481Y-192661015D01*
X152903100Y-192754147D01*
X152748228Y-192818297D01*
X152583816Y-192851000D01*
X152416184Y-192851000D01*
X152251772Y-192818297D01*
X152096900Y-192754147D01*
X151957519Y-192661015D01*
X151838985Y-192542481D01*
X151745853Y-192403100D01*
X151681703Y-192248228D01*
X151649000Y-192083816D01*
X151649000Y-191916184D01*
X151681703Y-191751772D01*
X151745853Y-191596900D01*
X151838985Y-191457519D01*
X151957519Y-191338985D01*
X152096900Y-191245853D01*
X152251772Y-191181703D01*
X152416184Y-191149000D01*
X152583816Y-191149000D01*
X152748228Y-191181703D01*
G37*
G36*
X160051000Y-172051000D02*
G01*
X155949000Y-172051000D01*
X155949000Y-167949000D01*
X160051000Y-167949000D01*
X160051000Y-172051000D01*
G37*
G36*
X132598254Y-168027818D02*
G01*
X132971511Y-168182426D01*
X132971513Y-168182427D01*
X133307436Y-168406884D01*
X133593116Y-168692564D01*
X133817574Y-169028489D01*
X133972182Y-169401746D01*
X134051000Y-169797993D01*
X134051000Y-170202007D01*
X133972182Y-170598254D01*
X133817574Y-170971511D01*
X133817573Y-170971513D01*
X133593116Y-171307436D01*
X133307436Y-171593116D01*
X132971513Y-171817573D01*
X132971512Y-171817574D01*
X132971511Y-171817574D01*
X132598254Y-171972182D01*
X132202007Y-172051000D01*
X131797993Y-172051000D01*
X131401746Y-171972182D01*
X131028489Y-171817574D01*
X131028488Y-171817574D01*
X131028487Y-171817573D01*
X130692564Y-171593116D01*
X130406884Y-171307436D01*
X130182427Y-170971513D01*
X130182426Y-170971511D01*
X130027818Y-170598254D01*
X129949000Y-170202007D01*
X129949000Y-169797993D01*
X130027818Y-169401746D01*
X130182426Y-169028489D01*
X130406884Y-168692564D01*
X130692564Y-168406884D01*
X131028487Y-168182427D01*
X131028489Y-168182426D01*
X131401746Y-168027818D01*
X131797993Y-167949000D01*
X132202007Y-167949000D01*
X132598254Y-168027818D01*
G37*
G36*
X144051000Y-172051000D02*
G01*
X139949000Y-172051000D01*
X139949000Y-167949000D01*
X144051000Y-167949000D01*
X144051000Y-172051000D01*
G37*
G36*
X168598254Y-168027818D02*
G01*
X168971511Y-168182426D01*
X168971513Y-168182427D01*
X169307436Y-168406884D01*
X169593116Y-168692564D01*
X169817574Y-169028489D01*
X169972182Y-169401746D01*
X170051000Y-169797993D01*
X170051000Y-170202007D01*
X169972182Y-170598254D01*
X169817574Y-170971511D01*
X169817573Y-170971513D01*
X169593116Y-171307436D01*
X169307436Y-171593116D01*
X168971513Y-171817573D01*
X168971512Y-171817574D01*
X168971511Y-171817574D01*
X168598254Y-171972182D01*
X168202007Y-172051000D01*
X167797993Y-172051000D01*
X167401746Y-171972182D01*
X167028489Y-171817574D01*
X167028488Y-171817574D01*
X167028487Y-171817573D01*
X166692564Y-171593116D01*
X166406884Y-171307436D01*
X166182427Y-170971513D01*
X166182426Y-170971511D01*
X166027818Y-170598254D01*
X165949000Y-170202007D01*
X165949000Y-169797993D01*
X166027818Y-169401746D01*
X166182426Y-169028489D01*
X166406884Y-168692564D01*
X166692564Y-168406884D01*
X167028487Y-168182427D01*
X167028489Y-168182426D01*
X167401746Y-168027818D01*
X167797993Y-167949000D01*
X168202007Y-167949000D01*
X168598254Y-168027818D01*
G37*
G36*
X33194239Y-160111467D02*
G01*
X33508282Y-160173934D01*
X34099926Y-160419001D01*
X34632392Y-160774784D01*
X35085216Y-161227608D01*
X35440999Y-161760074D01*
X35686066Y-162351718D01*
X35811000Y-162979804D01*
X35811000Y-163620196D01*
X35686066Y-164248282D01*
X35440999Y-164839926D01*
X35085216Y-165372392D01*
X34632392Y-165825216D01*
X34099926Y-166180999D01*
X33508282Y-166426066D01*
X33194239Y-166488533D01*
X32880197Y-166551000D01*
X32239803Y-166551000D01*
X31925761Y-166488533D01*
X31611718Y-166426066D01*
X31020074Y-166180999D01*
X30487608Y-165825216D01*
X30034784Y-165372392D01*
X29679001Y-164839926D01*
X29433934Y-164248282D01*
X29309000Y-163620196D01*
X29309000Y-162979804D01*
X29433934Y-162351718D01*
X29679001Y-161760074D01*
X30034784Y-161227608D01*
X30487608Y-160774784D01*
X31020074Y-160419001D01*
X31611718Y-160173934D01*
X31925761Y-160111467D01*
X32239803Y-160049000D01*
X32880197Y-160049000D01*
X33194239Y-160111467D01*
G37*
G36*
X59748228Y-146841703D02*
G01*
X59903100Y-146905853D01*
X60042481Y-146998985D01*
X60161015Y-147117519D01*
X60254147Y-147256900D01*
X60318297Y-147411772D01*
X60351000Y-147576184D01*
X60351000Y-147743816D01*
X60318297Y-147908228D01*
X60254147Y-148063100D01*
X60161015Y-148202481D01*
X60042481Y-148321015D01*
X59903100Y-148414147D01*
X59748228Y-148478297D01*
X59583816Y-148511000D01*
X59416184Y-148511000D01*
X59251772Y-148478297D01*
X59096900Y-148414147D01*
X58957519Y-148321015D01*
X58838985Y-148202481D01*
X58745853Y-148063100D01*
X58681703Y-147908228D01*
X58649000Y-147743816D01*
X58649000Y-147576184D01*
X58681703Y-147411772D01*
X58745853Y-147256900D01*
X58838985Y-147117519D01*
X58957519Y-146998985D01*
X59096900Y-146905853D01*
X59251772Y-146841703D01*
X59416184Y-146809000D01*
X59583816Y-146809000D01*
X59748228Y-146841703D01*
G37*
G36*
X65248228Y-146841703D02*
G01*
X65403100Y-146905853D01*
X65542481Y-146998985D01*
X65661015Y-147117519D01*
X65754147Y-147256900D01*
X65818297Y-147411772D01*
X65851000Y-147576184D01*
X65851000Y-147743816D01*
X65818297Y-147908228D01*
X65754147Y-148063100D01*
X65661015Y-148202481D01*
X65542481Y-148321015D01*
X65403100Y-148414147D01*
X65248228Y-148478297D01*
X65083816Y-148511000D01*
X64916184Y-148511000D01*
X64751772Y-148478297D01*
X64596900Y-148414147D01*
X64457519Y-148321015D01*
X64338985Y-148202481D01*
X64245853Y-148063100D01*
X64181703Y-147908228D01*
X64149000Y-147743816D01*
X64149000Y-147576184D01*
X64181703Y-147411772D01*
X64245853Y-147256900D01*
X64338985Y-147117519D01*
X64457519Y-146998985D01*
X64596900Y-146905853D01*
X64751772Y-146841703D01*
X64916184Y-146809000D01*
X65083816Y-146809000D01*
X65248228Y-146841703D01*
G37*
G36*
X114551000Y-147003500D02*
G01*
X112449000Y-147003500D01*
X112449000Y-144996500D01*
X114551000Y-144996500D01*
X114551000Y-147003500D01*
G37*
G36*
X98225331Y-141728211D02*
G01*
X98553092Y-141863974D01*
X98848070Y-142061072D01*
X99098928Y-142311930D01*
X99296026Y-142606908D01*
X99431789Y-142934669D01*
X99501000Y-143282616D01*
X99501000Y-143637384D01*
X99431789Y-143985331D01*
X99296026Y-144313092D01*
X99098928Y-144608070D01*
X98848070Y-144858928D01*
X98553092Y-145056026D01*
X98225331Y-145191789D01*
X97877384Y-145261000D01*
X97522616Y-145261000D01*
X97174669Y-145191789D01*
X96846908Y-145056026D01*
X96551930Y-144858928D01*
X96301072Y-144608070D01*
X96103974Y-144313092D01*
X95968211Y-143985331D01*
X95899000Y-143637384D01*
X95899000Y-143282616D01*
X95968211Y-142934669D01*
X96103974Y-142606908D01*
X96301072Y-142311930D01*
X96551930Y-142061072D01*
X96846908Y-141863974D01*
X97174669Y-141728211D01*
X97522616Y-141659000D01*
X97877384Y-141659000D01*
X98225331Y-141728211D01*
G37*
G36*
X113645936Y-142461340D02*
G01*
X113744220Y-142471020D01*
X113933381Y-142528401D01*
X114107712Y-142621583D01*
X114260515Y-142746985D01*
X114385917Y-142899788D01*
X114479099Y-143074119D01*
X114536480Y-143263280D01*
X114555855Y-143460000D01*
X114536480Y-143656720D01*
X114479099Y-143845881D01*
X114385917Y-144020212D01*
X114260515Y-144173015D01*
X114107712Y-144298417D01*
X113933381Y-144391599D01*
X113744220Y-144448980D01*
X113645936Y-144458660D01*
X113596795Y-144463500D01*
X113403205Y-144463500D01*
X113354064Y-144458660D01*
X113255780Y-144448980D01*
X113066619Y-144391599D01*
X112892288Y-144298417D01*
X112739485Y-144173015D01*
X112614083Y-144020212D01*
X112520901Y-143845881D01*
X112463520Y-143656720D01*
X112444145Y-143460000D01*
X112463520Y-143263280D01*
X112520901Y-143074119D01*
X112614083Y-142899788D01*
X112739485Y-142746985D01*
X112892288Y-142621583D01*
X113066619Y-142528401D01*
X113255780Y-142471020D01*
X113354064Y-142461340D01*
X113403205Y-142456500D01*
X113596795Y-142456500D01*
X113645936Y-142461340D01*
G37*
G36*
X168598254Y-140027818D02*
G01*
X168971511Y-140182426D01*
X168971513Y-140182427D01*
X169236952Y-140359788D01*
X169307436Y-140406884D01*
X169593116Y-140692564D01*
X169817574Y-141028489D01*
X169972182Y-141401746D01*
X170051000Y-141797993D01*
X170051000Y-142202007D01*
X169972182Y-142598254D01*
X169847282Y-142899789D01*
X169817573Y-142971513D01*
X169593116Y-143307436D01*
X169307436Y-143593116D01*
X168971513Y-143817573D01*
X168971512Y-143817574D01*
X168971511Y-143817574D01*
X168598254Y-143972182D01*
X168202007Y-144051000D01*
X167797993Y-144051000D01*
X167401746Y-143972182D01*
X167028489Y-143817574D01*
X167028488Y-143817574D01*
X167028487Y-143817573D01*
X166692564Y-143593116D01*
X166406884Y-143307436D01*
X166182427Y-142971513D01*
X166152718Y-142899789D01*
X166027818Y-142598254D01*
X165949000Y-142202007D01*
X165949000Y-141797993D01*
X166027818Y-141401746D01*
X166182426Y-141028489D01*
X166406884Y-140692564D01*
X166692564Y-140406884D01*
X166763048Y-140359788D01*
X167028487Y-140182427D01*
X167028489Y-140182426D01*
X167401746Y-140027818D01*
X167797993Y-139949000D01*
X168202007Y-139949000D01*
X168598254Y-140027818D01*
G37*
G36*
X144051000Y-144051000D02*
G01*
X139949000Y-144051000D01*
X139949000Y-139949000D01*
X144051000Y-139949000D01*
X144051000Y-144051000D01*
G37*
G36*
X160051000Y-144051000D02*
G01*
X155949000Y-144051000D01*
X155949000Y-139949000D01*
X160051000Y-139949000D01*
X160051000Y-144051000D01*
G37*
G36*
X132598254Y-140027818D02*
G01*
X132971511Y-140182426D01*
X132971513Y-140182427D01*
X133236952Y-140359788D01*
X133307436Y-140406884D01*
X133593116Y-140692564D01*
X133817574Y-141028489D01*
X133972182Y-141401746D01*
X134051000Y-141797993D01*
X134051000Y-142202007D01*
X133972182Y-142598254D01*
X133847282Y-142899789D01*
X133817573Y-142971513D01*
X133593116Y-143307436D01*
X133307436Y-143593116D01*
X132971513Y-143817573D01*
X132971512Y-143817574D01*
X132971511Y-143817574D01*
X132598254Y-143972182D01*
X132202007Y-144051000D01*
X131797993Y-144051000D01*
X131401746Y-143972182D01*
X131028489Y-143817574D01*
X131028488Y-143817574D01*
X131028487Y-143817573D01*
X130692564Y-143593116D01*
X130406884Y-143307436D01*
X130182427Y-142971513D01*
X130152718Y-142899789D01*
X130027818Y-142598254D01*
X129949000Y-142202007D01*
X129949000Y-141797993D01*
X130027818Y-141401746D01*
X130182426Y-141028489D01*
X130406884Y-140692564D01*
X130692564Y-140406884D01*
X130763048Y-140359788D01*
X131028487Y-140182427D01*
X131028489Y-140182426D01*
X131401746Y-140027818D01*
X131797993Y-139949000D01*
X132202007Y-139949000D01*
X132598254Y-140027818D01*
G37*
G36*
X113645936Y-139921340D02*
G01*
X113744220Y-139931020D01*
X113933381Y-139988401D01*
X114107712Y-140081583D01*
X114260515Y-140206985D01*
X114385917Y-140359788D01*
X114479099Y-140534119D01*
X114536480Y-140723280D01*
X114555855Y-140920000D01*
X114536480Y-141116720D01*
X114479099Y-141305881D01*
X114385917Y-141480212D01*
X114260515Y-141633015D01*
X114107712Y-141758417D01*
X113933381Y-141851599D01*
X113744220Y-141908980D01*
X113645936Y-141918660D01*
X113596795Y-141923500D01*
X113403205Y-141923500D01*
X113354064Y-141918660D01*
X113255780Y-141908980D01*
X113066619Y-141851599D01*
X112892288Y-141758417D01*
X112739485Y-141633015D01*
X112614083Y-141480212D01*
X112520901Y-141305881D01*
X112463520Y-141116720D01*
X112444145Y-140920000D01*
X112463520Y-140723280D01*
X112520901Y-140534119D01*
X112614083Y-140359788D01*
X112739485Y-140206985D01*
X112892288Y-140081583D01*
X113066619Y-139988401D01*
X113255780Y-139931020D01*
X113354064Y-139921340D01*
X113403205Y-139916500D01*
X113596795Y-139916500D01*
X113645936Y-139921340D01*
G37*
G36*
X59748228Y-136681703D02*
G01*
X59903100Y-136745853D01*
X60042481Y-136838985D01*
X60161015Y-136957519D01*
X60254147Y-137096900D01*
X60318297Y-137251772D01*
X60351000Y-137416184D01*
X60351000Y-137583816D01*
X60318297Y-137748228D01*
X60254147Y-137903100D01*
X60161015Y-138042481D01*
X60042481Y-138161015D01*
X59903100Y-138254147D01*
X59748228Y-138318297D01*
X59583816Y-138351000D01*
X59416184Y-138351000D01*
X59251772Y-138318297D01*
X59096900Y-138254147D01*
X58957519Y-138161015D01*
X58838985Y-138042481D01*
X58745853Y-137903100D01*
X58681703Y-137748228D01*
X58649000Y-137583816D01*
X58649000Y-137416184D01*
X58681703Y-137251772D01*
X58745853Y-137096900D01*
X58838985Y-136957519D01*
X58957519Y-136838985D01*
X59096900Y-136745853D01*
X59251772Y-136681703D01*
X59416184Y-136649000D01*
X59583816Y-136649000D01*
X59748228Y-136681703D01*
G37*
G36*
X65248228Y-136681703D02*
G01*
X65403100Y-136745853D01*
X65542481Y-136838985D01*
X65661015Y-136957519D01*
X65754147Y-137096900D01*
X65818297Y-137251772D01*
X65851000Y-137416184D01*
X65851000Y-137583816D01*
X65818297Y-137748228D01*
X65754147Y-137903100D01*
X65661015Y-138042481D01*
X65542481Y-138161015D01*
X65403100Y-138254147D01*
X65248228Y-138318297D01*
X65083816Y-138351000D01*
X64916184Y-138351000D01*
X64751772Y-138318297D01*
X64596900Y-138254147D01*
X64457519Y-138161015D01*
X64338985Y-138042481D01*
X64245853Y-137903100D01*
X64181703Y-137748228D01*
X64149000Y-137583816D01*
X64149000Y-137416184D01*
X64181703Y-137251772D01*
X64245853Y-137096900D01*
X64338985Y-136957519D01*
X64457519Y-136838985D01*
X64596900Y-136745853D01*
X64751772Y-136681703D01*
X64916184Y-136649000D01*
X65083816Y-136649000D01*
X65248228Y-136681703D01*
G37*
G36*
X188774239Y-130111467D02*
G01*
X189088282Y-130173934D01*
X189679926Y-130419001D01*
X190212392Y-130774784D01*
X190665216Y-131227608D01*
X191020999Y-131760074D01*
X191266066Y-132351718D01*
X191391000Y-132979804D01*
X191391000Y-133620196D01*
X191266066Y-134248282D01*
X191020999Y-134839926D01*
X190665216Y-135372392D01*
X190212392Y-135825216D01*
X189679926Y-136180999D01*
X189088282Y-136426066D01*
X188774239Y-136488533D01*
X188460197Y-136551000D01*
X187819803Y-136551000D01*
X187505761Y-136488533D01*
X187191718Y-136426066D01*
X186600074Y-136180999D01*
X186067608Y-135825216D01*
X185614784Y-135372392D01*
X185259001Y-134839926D01*
X185013934Y-134248282D01*
X184889000Y-133620196D01*
X184889000Y-132979804D01*
X185013934Y-132351718D01*
X185259001Y-131760074D01*
X185614784Y-131227608D01*
X186067608Y-130774784D01*
X186600074Y-130419001D01*
X187191718Y-130173934D01*
X187505761Y-130111467D01*
X187819803Y-130049000D01*
X188460197Y-130049000D01*
X188774239Y-130111467D01*
G37*
G36*
X122094239Y-130111467D02*
G01*
X122408282Y-130173934D01*
X122999926Y-130419001D01*
X123532392Y-130774784D01*
X123985216Y-131227608D01*
X124340999Y-131760074D01*
X124586066Y-132351718D01*
X124711000Y-132979804D01*
X124711000Y-133620196D01*
X124586066Y-134248282D01*
X124340999Y-134839926D01*
X123985216Y-135372392D01*
X123532392Y-135825216D01*
X122999926Y-136180999D01*
X122408282Y-136426066D01*
X122094239Y-136488533D01*
X121780197Y-136551000D01*
X121139803Y-136551000D01*
X120825761Y-136488533D01*
X120511718Y-136426066D01*
X119920074Y-136180999D01*
X119387608Y-135825216D01*
X118934784Y-135372392D01*
X118579001Y-134839926D01*
X118333934Y-134248282D01*
X118209000Y-133620196D01*
X118209000Y-132979804D01*
X118333934Y-132351718D01*
X118579001Y-131760074D01*
X118934784Y-131227608D01*
X119387608Y-130774784D01*
X119920074Y-130419001D01*
X120511718Y-130173934D01*
X120825761Y-130111467D01*
X121139803Y-130049000D01*
X121780197Y-130049000D01*
X122094239Y-130111467D01*
G37*
G36*
X57237395Y-131585546D02*
G01*
X57410466Y-131657234D01*
X57410467Y-131657235D01*
X57566227Y-131761310D01*
X57698690Y-131893773D01*
X57698691Y-131893775D01*
X57802766Y-132049534D01*
X57874454Y-132222605D01*
X57911000Y-132406333D01*
X57911000Y-132593667D01*
X57874454Y-132777395D01*
X57802766Y-132950466D01*
X57783163Y-132979804D01*
X57698690Y-133106227D01*
X57566227Y-133238690D01*
X57487818Y-133291081D01*
X57410466Y-133342766D01*
X57237395Y-133414454D01*
X57053667Y-133451000D01*
X56866333Y-133451000D01*
X56682605Y-133414454D01*
X56509534Y-133342766D01*
X56432182Y-133291081D01*
X56353773Y-133238690D01*
X56221310Y-133106227D01*
X56136837Y-132979804D01*
X56117234Y-132950466D01*
X56045546Y-132777395D01*
X56009000Y-132593667D01*
X56009000Y-132406333D01*
X56045546Y-132222605D01*
X56117234Y-132049534D01*
X56221309Y-131893775D01*
X56221310Y-131893773D01*
X56353773Y-131761310D01*
X56509533Y-131657235D01*
X56509534Y-131657234D01*
X56682605Y-131585546D01*
X56866333Y-131549000D01*
X57053667Y-131549000D01*
X57237395Y-131585546D01*
G37*
G36*
X65951000Y-133451000D02*
G01*
X64049000Y-133451000D01*
X64049000Y-131549000D01*
X65951000Y-131549000D01*
X65951000Y-133451000D01*
G37*
G36*
X67817395Y-131585546D02*
G01*
X67990466Y-131657234D01*
X67990467Y-131657235D01*
X68146227Y-131761310D01*
X68278690Y-131893773D01*
X68278691Y-131893775D01*
X68382766Y-132049534D01*
X68454454Y-132222605D01*
X68491000Y-132406333D01*
X68491000Y-132593667D01*
X68454454Y-132777395D01*
X68382766Y-132950466D01*
X68363163Y-132979804D01*
X68278690Y-133106227D01*
X68146227Y-133238690D01*
X68067818Y-133291081D01*
X67990466Y-133342766D01*
X67817395Y-133414454D01*
X67633667Y-133451000D01*
X67446333Y-133451000D01*
X67262605Y-133414454D01*
X67089534Y-133342766D01*
X67012182Y-133291081D01*
X66933773Y-133238690D01*
X66801310Y-133106227D01*
X66716837Y-132979804D01*
X66697234Y-132950466D01*
X66625546Y-132777395D01*
X66589000Y-132593667D01*
X66589000Y-132406333D01*
X66625546Y-132222605D01*
X66697234Y-132049534D01*
X66801309Y-131893775D01*
X66801310Y-131893773D01*
X66933773Y-131761310D01*
X67089533Y-131657235D01*
X67089534Y-131657234D01*
X67262605Y-131585546D01*
X67446333Y-131549000D01*
X67633667Y-131549000D01*
X67817395Y-131585546D01*
G37*
G36*
X60451000Y-133451000D02*
G01*
X58549000Y-133451000D01*
X58549000Y-131549000D01*
X60451000Y-131549000D01*
X60451000Y-133451000D01*
G37*
G36*
X83248228Y-128181703D02*
G01*
X83403100Y-128245853D01*
X83542481Y-128338985D01*
X83661015Y-128457519D01*
X83754147Y-128596900D01*
X83818297Y-128751772D01*
X83851000Y-128916184D01*
X83851000Y-129083816D01*
X83818297Y-129248228D01*
X83754147Y-129403100D01*
X83661015Y-129542481D01*
X83542481Y-129661015D01*
X83403100Y-129754147D01*
X83248228Y-129818297D01*
X83083816Y-129851000D01*
X82916184Y-129851000D01*
X82751772Y-129818297D01*
X82596900Y-129754147D01*
X82457519Y-129661015D01*
X82338985Y-129542481D01*
X82245853Y-129403100D01*
X82181703Y-129248228D01*
X82149000Y-129083816D01*
X82149000Y-128916184D01*
X82181703Y-128751772D01*
X82245853Y-128596900D01*
X82338985Y-128457519D01*
X82457519Y-128338985D01*
X82596900Y-128245853D01*
X82751772Y-128181703D01*
X82916184Y-128149000D01*
X83083816Y-128149000D01*
X83248228Y-128181703D01*
G37*
G36*
X86248228Y-128181703D02*
G01*
X86403100Y-128245853D01*
X86542481Y-128338985D01*
X86661015Y-128457519D01*
X86754147Y-128596900D01*
X86818297Y-128751772D01*
X86851000Y-128916184D01*
X86851000Y-129083816D01*
X86818297Y-129248228D01*
X86754147Y-129403100D01*
X86661015Y-129542481D01*
X86542481Y-129661015D01*
X86403100Y-129754147D01*
X86248228Y-129818297D01*
X86083816Y-129851000D01*
X85916184Y-129851000D01*
X85751772Y-129818297D01*
X85596900Y-129754147D01*
X85457519Y-129661015D01*
X85338985Y-129542481D01*
X85245853Y-129403100D01*
X85181703Y-129248228D01*
X85149000Y-129083816D01*
X85149000Y-128916184D01*
X85181703Y-128751772D01*
X85245853Y-128596900D01*
X85338985Y-128457519D01*
X85457519Y-128338985D01*
X85596900Y-128245853D01*
X85751772Y-128181703D01*
X85916184Y-128149000D01*
X86083816Y-128149000D01*
X86248228Y-128181703D01*
G37*
G36*
X89851000Y-129851000D02*
G01*
X88149000Y-129851000D01*
X88149000Y-128149000D01*
X89851000Y-128149000D01*
X89851000Y-129851000D01*
G37*
G36*
X80248228Y-128181703D02*
G01*
X80403100Y-128245853D01*
X80542481Y-128338985D01*
X80661015Y-128457519D01*
X80754147Y-128596900D01*
X80818297Y-128751772D01*
X80851000Y-128916184D01*
X80851000Y-129083816D01*
X80818297Y-129248228D01*
X80754147Y-129403100D01*
X80661015Y-129542481D01*
X80542481Y-129661015D01*
X80403100Y-129754147D01*
X80248228Y-129818297D01*
X80083816Y-129851000D01*
X79916184Y-129851000D01*
X79751772Y-129818297D01*
X79596900Y-129754147D01*
X79457519Y-129661015D01*
X79338985Y-129542481D01*
X79245853Y-129403100D01*
X79181703Y-129248228D01*
X79149000Y-129083816D01*
X79149000Y-128916184D01*
X79181703Y-128751772D01*
X79245853Y-128596900D01*
X79338985Y-128457519D01*
X79457519Y-128338985D01*
X79596900Y-128245853D01*
X79751772Y-128181703D01*
X79916184Y-128149000D01*
X80083816Y-128149000D01*
X80248228Y-128181703D01*
G37*
G36*
X101248228Y-128181703D02*
G01*
X101403100Y-128245853D01*
X101542481Y-128338985D01*
X101661015Y-128457519D01*
X101754147Y-128596900D01*
X101818297Y-128751772D01*
X101851000Y-128916184D01*
X101851000Y-129083816D01*
X101818297Y-129248228D01*
X101754147Y-129403100D01*
X101661015Y-129542481D01*
X101542481Y-129661015D01*
X101403100Y-129754147D01*
X101248228Y-129818297D01*
X101083816Y-129851000D01*
X100916184Y-129851000D01*
X100751772Y-129818297D01*
X100596900Y-129754147D01*
X100457519Y-129661015D01*
X100338985Y-129542481D01*
X100245853Y-129403100D01*
X100181703Y-129248228D01*
X100149000Y-129083816D01*
X100149000Y-128916184D01*
X100181703Y-128751772D01*
X100245853Y-128596900D01*
X100338985Y-128457519D01*
X100457519Y-128338985D01*
X100596900Y-128245853D01*
X100751772Y-128181703D01*
X100916184Y-128149000D01*
X101083816Y-128149000D01*
X101248228Y-128181703D01*
G37*
G36*
X95248228Y-128181703D02*
G01*
X95403100Y-128245853D01*
X95542481Y-128338985D01*
X95661015Y-128457519D01*
X95754147Y-128596900D01*
X95818297Y-128751772D01*
X95851000Y-128916184D01*
X95851000Y-129083816D01*
X95818297Y-129248228D01*
X95754147Y-129403100D01*
X95661015Y-129542481D01*
X95542481Y-129661015D01*
X95403100Y-129754147D01*
X95248228Y-129818297D01*
X95083816Y-129851000D01*
X94916184Y-129851000D01*
X94751772Y-129818297D01*
X94596900Y-129754147D01*
X94457519Y-129661015D01*
X94338985Y-129542481D01*
X94245853Y-129403100D01*
X94181703Y-129248228D01*
X94149000Y-129083816D01*
X94149000Y-128916184D01*
X94181703Y-128751772D01*
X94245853Y-128596900D01*
X94338985Y-128457519D01*
X94457519Y-128338985D01*
X94596900Y-128245853D01*
X94751772Y-128181703D01*
X94916184Y-128149000D01*
X95083816Y-128149000D01*
X95248228Y-128181703D01*
G37*
G36*
X98388228Y-128181703D02*
G01*
X98543100Y-128245853D01*
X98682481Y-128338985D01*
X98801015Y-128457519D01*
X98894147Y-128596900D01*
X98958297Y-128751772D01*
X98991000Y-128916184D01*
X98991000Y-129083816D01*
X98958297Y-129248228D01*
X98894147Y-129403100D01*
X98801015Y-129542481D01*
X98682481Y-129661015D01*
X98543100Y-129754147D01*
X98388228Y-129818297D01*
X98223816Y-129851000D01*
X98056184Y-129851000D01*
X97891772Y-129818297D01*
X97736900Y-129754147D01*
X97597519Y-129661015D01*
X97478985Y-129542481D01*
X97385853Y-129403100D01*
X97321703Y-129248228D01*
X97289000Y-129083816D01*
X97289000Y-128916184D01*
X97321703Y-128751772D01*
X97385853Y-128596900D01*
X97478985Y-128457519D01*
X97597519Y-128338985D01*
X97736900Y-128245853D01*
X97891772Y-128181703D01*
X98056184Y-128149000D01*
X98223816Y-128149000D01*
X98388228Y-128181703D01*
G37*
G36*
X92851000Y-129851000D02*
G01*
X91149000Y-129851000D01*
X91149000Y-128149000D01*
X92851000Y-128149000D01*
X92851000Y-129851000D01*
G37*
G36*
X106748228Y-121841703D02*
G01*
X106903100Y-121905853D01*
X107042481Y-121998985D01*
X107161015Y-122117519D01*
X107254147Y-122256900D01*
X107318297Y-122411772D01*
X107351000Y-122576184D01*
X107351000Y-122743816D01*
X107318297Y-122908228D01*
X107254147Y-123063100D01*
X107161015Y-123202481D01*
X107042481Y-123321015D01*
X106903100Y-123414147D01*
X106748228Y-123478297D01*
X106583816Y-123511000D01*
X106416184Y-123511000D01*
X106251772Y-123478297D01*
X106096900Y-123414147D01*
X105957519Y-123321015D01*
X105838985Y-123202481D01*
X105745853Y-123063100D01*
X105681703Y-122908228D01*
X105649000Y-122743816D01*
X105649000Y-122576184D01*
X105681703Y-122411772D01*
X105745853Y-122256900D01*
X105838985Y-122117519D01*
X105957519Y-121998985D01*
X106096900Y-121905853D01*
X106251772Y-121841703D01*
X106416184Y-121809000D01*
X106583816Y-121809000D01*
X106748228Y-121841703D01*
G37*
G36*
X49748228Y-121841703D02*
G01*
X49903100Y-121905853D01*
X50042481Y-121998985D01*
X50161015Y-122117519D01*
X50254147Y-122256900D01*
X50318297Y-122411772D01*
X50351000Y-122576184D01*
X50351000Y-122743816D01*
X50318297Y-122908228D01*
X50254147Y-123063100D01*
X50161015Y-123202481D01*
X50042481Y-123321015D01*
X49903100Y-123414147D01*
X49748228Y-123478297D01*
X49583816Y-123511000D01*
X49416184Y-123511000D01*
X49251772Y-123478297D01*
X49096900Y-123414147D01*
X48957519Y-123321015D01*
X48838985Y-123202481D01*
X48745853Y-123063100D01*
X48681703Y-122908228D01*
X48649000Y-122743816D01*
X48649000Y-122576184D01*
X48681703Y-122411772D01*
X48745853Y-122256900D01*
X48838985Y-122117519D01*
X48957519Y-121998985D01*
X49096900Y-121905853D01*
X49251772Y-121841703D01*
X49416184Y-121809000D01*
X49583816Y-121809000D01*
X49748228Y-121841703D01*
G37*
G36*
X46748228Y-121841703D02*
G01*
X46903100Y-121905853D01*
X47042481Y-121998985D01*
X47161015Y-122117519D01*
X47254147Y-122256900D01*
X47318297Y-122411772D01*
X47351000Y-122576184D01*
X47351000Y-122743816D01*
X47318297Y-122908228D01*
X47254147Y-123063100D01*
X47161015Y-123202481D01*
X47042481Y-123321015D01*
X46903100Y-123414147D01*
X46748228Y-123478297D01*
X46583816Y-123511000D01*
X46416184Y-123511000D01*
X46251772Y-123478297D01*
X46096900Y-123414147D01*
X45957519Y-123321015D01*
X45838985Y-123202481D01*
X45745853Y-123063100D01*
X45681703Y-122908228D01*
X45649000Y-122743816D01*
X45649000Y-122576184D01*
X45681703Y-122411772D01*
X45745853Y-122256900D01*
X45838985Y-122117519D01*
X45957519Y-121998985D01*
X46096900Y-121905853D01*
X46251772Y-121841703D01*
X46416184Y-121809000D01*
X46583816Y-121809000D01*
X46748228Y-121841703D01*
G37*
G36*
X109748228Y-121841703D02*
G01*
X109903100Y-121905853D01*
X110042481Y-121998985D01*
X110161015Y-122117519D01*
X110254147Y-122256900D01*
X110318297Y-122411772D01*
X110351000Y-122576184D01*
X110351000Y-122743816D01*
X110318297Y-122908228D01*
X110254147Y-123063100D01*
X110161015Y-123202481D01*
X110042481Y-123321015D01*
X109903100Y-123414147D01*
X109748228Y-123478297D01*
X109583816Y-123511000D01*
X109416184Y-123511000D01*
X109251772Y-123478297D01*
X109096900Y-123414147D01*
X108957519Y-123321015D01*
X108838985Y-123202481D01*
X108745853Y-123063100D01*
X108681703Y-122908228D01*
X108649000Y-122743816D01*
X108649000Y-122576184D01*
X108681703Y-122411772D01*
X108745853Y-122256900D01*
X108838985Y-122117519D01*
X108957519Y-121998985D01*
X109096900Y-121905853D01*
X109251772Y-121841703D01*
X109416184Y-121809000D01*
X109583816Y-121809000D01*
X109748228Y-121841703D01*
G37*
G36*
X121748228Y-121181703D02*
G01*
X121903100Y-121245853D01*
X122042481Y-121338985D01*
X122161015Y-121457519D01*
X122254147Y-121596900D01*
X122318297Y-121751772D01*
X122351000Y-121916184D01*
X122351000Y-122083816D01*
X122318297Y-122248228D01*
X122254147Y-122403100D01*
X122161015Y-122542481D01*
X122042481Y-122661015D01*
X121903100Y-122754147D01*
X121748228Y-122818297D01*
X121583816Y-122851000D01*
X121416184Y-122851000D01*
X121251772Y-122818297D01*
X121096900Y-122754147D01*
X120957519Y-122661015D01*
X120838985Y-122542481D01*
X120745853Y-122403100D01*
X120681703Y-122248228D01*
X120649000Y-122083816D01*
X120649000Y-121916184D01*
X120681703Y-121751772D01*
X120745853Y-121596900D01*
X120838985Y-121457519D01*
X120957519Y-121338985D01*
X121096900Y-121245853D01*
X121251772Y-121181703D01*
X121416184Y-121149000D01*
X121583816Y-121149000D01*
X121748228Y-121181703D01*
G37*
G36*
X54351000Y-122851000D02*
G01*
X52649000Y-122851000D01*
X52649000Y-121149000D01*
X54351000Y-121149000D01*
X54351000Y-122851000D01*
G37*
G36*
X61748228Y-121181703D02*
G01*
X61903100Y-121245853D01*
X62042481Y-121338985D01*
X62161015Y-121457519D01*
X62254147Y-121596900D01*
X62318297Y-121751772D01*
X62351000Y-121916184D01*
X62351000Y-122083816D01*
X62318297Y-122248228D01*
X62254147Y-122403100D01*
X62161015Y-122542481D01*
X62042481Y-122661015D01*
X61903100Y-122754147D01*
X61748228Y-122818297D01*
X61583816Y-122851000D01*
X61416184Y-122851000D01*
X61251772Y-122818297D01*
X61096900Y-122754147D01*
X60957519Y-122661015D01*
X60838985Y-122542481D01*
X60745853Y-122403100D01*
X60681703Y-122248228D01*
X60649000Y-122083816D01*
X60649000Y-121916184D01*
X60681703Y-121751772D01*
X60745853Y-121596900D01*
X60838985Y-121457519D01*
X60957519Y-121338985D01*
X61096900Y-121245853D01*
X61251772Y-121181703D01*
X61416184Y-121149000D01*
X61583816Y-121149000D01*
X61748228Y-121181703D01*
G37*
G36*
X64351000Y-122851000D02*
G01*
X62649000Y-122851000D01*
X62649000Y-121149000D01*
X64351000Y-121149000D01*
X64351000Y-122851000D01*
G37*
G36*
X114351000Y-122851000D02*
G01*
X112649000Y-122851000D01*
X112649000Y-121149000D01*
X114351000Y-121149000D01*
X114351000Y-122851000D01*
G37*
G36*
X115748228Y-121181703D02*
G01*
X115903100Y-121245853D01*
X116042481Y-121338985D01*
X116161015Y-121457519D01*
X116254147Y-121596900D01*
X116318297Y-121751772D01*
X116351000Y-121916184D01*
X116351000Y-122083816D01*
X116318297Y-122248228D01*
X116254147Y-122403100D01*
X116161015Y-122542481D01*
X116042481Y-122661015D01*
X115903100Y-122754147D01*
X115748228Y-122818297D01*
X115583816Y-122851000D01*
X115416184Y-122851000D01*
X115251772Y-122818297D01*
X115096900Y-122754147D01*
X114957519Y-122661015D01*
X114838985Y-122542481D01*
X114745853Y-122403100D01*
X114681703Y-122248228D01*
X114649000Y-122083816D01*
X114649000Y-121916184D01*
X114681703Y-121751772D01*
X114745853Y-121596900D01*
X114838985Y-121457519D01*
X114957519Y-121338985D01*
X115096900Y-121245853D01*
X115251772Y-121181703D01*
X115416184Y-121149000D01*
X115583816Y-121149000D01*
X115748228Y-121181703D01*
G37*
G36*
X55748228Y-121181703D02*
G01*
X55903100Y-121245853D01*
X56042481Y-121338985D01*
X56161015Y-121457519D01*
X56254147Y-121596900D01*
X56318297Y-121751772D01*
X56351000Y-121916184D01*
X56351000Y-122083816D01*
X56318297Y-122248228D01*
X56254147Y-122403100D01*
X56161015Y-122542481D01*
X56042481Y-122661015D01*
X55903100Y-122754147D01*
X55748228Y-122818297D01*
X55583816Y-122851000D01*
X55416184Y-122851000D01*
X55251772Y-122818297D01*
X55096900Y-122754147D01*
X54957519Y-122661015D01*
X54838985Y-122542481D01*
X54745853Y-122403100D01*
X54681703Y-122248228D01*
X54649000Y-122083816D01*
X54649000Y-121916184D01*
X54681703Y-121751772D01*
X54745853Y-121596900D01*
X54838985Y-121457519D01*
X54957519Y-121338985D01*
X55096900Y-121245853D01*
X55251772Y-121181703D01*
X55416184Y-121149000D01*
X55583816Y-121149000D01*
X55748228Y-121181703D01*
G37*
G36*
X124351000Y-122851000D02*
G01*
X122649000Y-122851000D01*
X122649000Y-121149000D01*
X124351000Y-121149000D01*
X124351000Y-122851000D01*
G37*
G36*
X101851000Y-119691000D02*
G01*
X100149000Y-119691000D01*
X100149000Y-117989000D01*
X101851000Y-117989000D01*
X101851000Y-119691000D01*
G37*
G36*
X83248228Y-118021703D02*
G01*
X83403100Y-118085853D01*
X83542481Y-118178985D01*
X83661015Y-118297519D01*
X83754147Y-118436900D01*
X83818297Y-118591772D01*
X83851000Y-118756184D01*
X83851000Y-118923816D01*
X83818297Y-119088228D01*
X83754147Y-119243100D01*
X83661015Y-119382481D01*
X83542481Y-119501015D01*
X83403100Y-119594147D01*
X83248228Y-119658297D01*
X83083816Y-119691000D01*
X82916184Y-119691000D01*
X82751772Y-119658297D01*
X82596900Y-119594147D01*
X82457519Y-119501015D01*
X82338985Y-119382481D01*
X82245853Y-119243100D01*
X82181703Y-119088228D01*
X82149000Y-118923816D01*
X82149000Y-118756184D01*
X82181703Y-118591772D01*
X82245853Y-118436900D01*
X82338985Y-118297519D01*
X82457519Y-118178985D01*
X82596900Y-118085853D01*
X82751772Y-118021703D01*
X82916184Y-117989000D01*
X83083816Y-117989000D01*
X83248228Y-118021703D01*
G37*
G36*
X86248228Y-118021703D02*
G01*
X86403100Y-118085853D01*
X86542481Y-118178985D01*
X86661015Y-118297519D01*
X86754147Y-118436900D01*
X86818297Y-118591772D01*
X86851000Y-118756184D01*
X86851000Y-118923816D01*
X86818297Y-119088228D01*
X86754147Y-119243100D01*
X86661015Y-119382481D01*
X86542481Y-119501015D01*
X86403100Y-119594147D01*
X86248228Y-119658297D01*
X86083816Y-119691000D01*
X85916184Y-119691000D01*
X85751772Y-119658297D01*
X85596900Y-119594147D01*
X85457519Y-119501015D01*
X85338985Y-119382481D01*
X85245853Y-119243100D01*
X85181703Y-119088228D01*
X85149000Y-118923816D01*
X85149000Y-118756184D01*
X85181703Y-118591772D01*
X85245853Y-118436900D01*
X85338985Y-118297519D01*
X85457519Y-118178985D01*
X85596900Y-118085853D01*
X85751772Y-118021703D01*
X85916184Y-117989000D01*
X86083816Y-117989000D01*
X86248228Y-118021703D01*
G37*
G36*
X98388228Y-118021703D02*
G01*
X98543100Y-118085853D01*
X98682481Y-118178985D01*
X98801015Y-118297519D01*
X98894147Y-118436900D01*
X98958297Y-118591772D01*
X98991000Y-118756184D01*
X98991000Y-118923816D01*
X98958297Y-119088228D01*
X98894147Y-119243100D01*
X98801015Y-119382481D01*
X98682481Y-119501015D01*
X98543100Y-119594147D01*
X98388228Y-119658297D01*
X98223816Y-119691000D01*
X98056184Y-119691000D01*
X97891772Y-119658297D01*
X97736900Y-119594147D01*
X97597519Y-119501015D01*
X97478985Y-119382481D01*
X97385853Y-119243100D01*
X97321703Y-119088228D01*
X97289000Y-118923816D01*
X97289000Y-118756184D01*
X97321703Y-118591772D01*
X97385853Y-118436900D01*
X97478985Y-118297519D01*
X97597519Y-118178985D01*
X97736900Y-118085853D01*
X97891772Y-118021703D01*
X98056184Y-117989000D01*
X98223816Y-117989000D01*
X98388228Y-118021703D01*
G37*
G36*
X92248228Y-118021703D02*
G01*
X92403100Y-118085853D01*
X92542481Y-118178985D01*
X92661015Y-118297519D01*
X92754147Y-118436900D01*
X92818297Y-118591772D01*
X92851000Y-118756184D01*
X92851000Y-118923816D01*
X92818297Y-119088228D01*
X92754147Y-119243100D01*
X92661015Y-119382481D01*
X92542481Y-119501015D01*
X92403100Y-119594147D01*
X92248228Y-119658297D01*
X92083816Y-119691000D01*
X91916184Y-119691000D01*
X91751772Y-119658297D01*
X91596900Y-119594147D01*
X91457519Y-119501015D01*
X91338985Y-119382481D01*
X91245853Y-119243100D01*
X91181703Y-119088228D01*
X91149000Y-118923816D01*
X91149000Y-118756184D01*
X91181703Y-118591772D01*
X91245853Y-118436900D01*
X91338985Y-118297519D01*
X91457519Y-118178985D01*
X91596900Y-118085853D01*
X91751772Y-118021703D01*
X91916184Y-117989000D01*
X92083816Y-117989000D01*
X92248228Y-118021703D01*
G37*
G36*
X80851000Y-119691000D02*
G01*
X79149000Y-119691000D01*
X79149000Y-117989000D01*
X80851000Y-117989000D01*
X80851000Y-119691000D01*
G37*
G36*
X89248228Y-118021703D02*
G01*
X89403100Y-118085853D01*
X89542481Y-118178985D01*
X89661015Y-118297519D01*
X89754147Y-118436900D01*
X89818297Y-118591772D01*
X89851000Y-118756184D01*
X89851000Y-118923816D01*
X89818297Y-119088228D01*
X89754147Y-119243100D01*
X89661015Y-119382481D01*
X89542481Y-119501015D01*
X89403100Y-119594147D01*
X89248228Y-119658297D01*
X89083816Y-119691000D01*
X88916184Y-119691000D01*
X88751772Y-119658297D01*
X88596900Y-119594147D01*
X88457519Y-119501015D01*
X88338985Y-119382481D01*
X88245853Y-119243100D01*
X88181703Y-119088228D01*
X88149000Y-118923816D01*
X88149000Y-118756184D01*
X88181703Y-118591772D01*
X88245853Y-118436900D01*
X88338985Y-118297519D01*
X88457519Y-118178985D01*
X88596900Y-118085853D01*
X88751772Y-118021703D01*
X88916184Y-117989000D01*
X89083816Y-117989000D01*
X89248228Y-118021703D01*
G37*
G36*
X95248228Y-118021703D02*
G01*
X95403100Y-118085853D01*
X95542481Y-118178985D01*
X95661015Y-118297519D01*
X95754147Y-118436900D01*
X95818297Y-118591772D01*
X95851000Y-118756184D01*
X95851000Y-118923816D01*
X95818297Y-119088228D01*
X95754147Y-119243100D01*
X95661015Y-119382481D01*
X95542481Y-119501015D01*
X95403100Y-119594147D01*
X95248228Y-119658297D01*
X95083816Y-119691000D01*
X94916184Y-119691000D01*
X94751772Y-119658297D01*
X94596900Y-119594147D01*
X94457519Y-119501015D01*
X94338985Y-119382481D01*
X94245853Y-119243100D01*
X94181703Y-119088228D01*
X94149000Y-118923816D01*
X94149000Y-118756184D01*
X94181703Y-118591772D01*
X94245853Y-118436900D01*
X94338985Y-118297519D01*
X94457519Y-118178985D01*
X94596900Y-118085853D01*
X94751772Y-118021703D01*
X94916184Y-117989000D01*
X95083816Y-117989000D01*
X95248228Y-118021703D01*
G37*
G36*
X113564549Y-115371116D02*
G01*
X113675734Y-115393232D01*
X113885203Y-115479997D01*
X114073720Y-115605960D01*
X114234040Y-115766280D01*
X114360003Y-115954797D01*
X114446768Y-116164266D01*
X114491000Y-116386636D01*
X114491000Y-116613364D01*
X114446768Y-116835734D01*
X114360003Y-117045203D01*
X114234040Y-117233720D01*
X114073720Y-117394040D01*
X113885203Y-117520003D01*
X113675734Y-117606768D01*
X113564549Y-117628884D01*
X113453365Y-117651000D01*
X113226635Y-117651000D01*
X113115451Y-117628884D01*
X113004266Y-117606768D01*
X112794797Y-117520003D01*
X112606280Y-117394040D01*
X112445960Y-117233720D01*
X112319997Y-117045203D01*
X112233232Y-116835734D01*
X112189000Y-116613364D01*
X112189000Y-116386636D01*
X112233232Y-116164266D01*
X112319997Y-115954797D01*
X112445960Y-115766280D01*
X112606280Y-115605960D01*
X112794797Y-115479997D01*
X113004266Y-115393232D01*
X113115451Y-115371116D01*
X113226635Y-115349000D01*
X113453365Y-115349000D01*
X113564549Y-115371116D01*
G37*
G36*
X124651000Y-117651000D02*
G01*
X122349000Y-117651000D01*
X122349000Y-115349000D01*
X124651000Y-115349000D01*
X124651000Y-117651000D01*
G37*
G36*
X64651000Y-117651000D02*
G01*
X62349000Y-117651000D01*
X62349000Y-115349000D01*
X64651000Y-115349000D01*
X64651000Y-117651000D01*
G37*
G36*
X53564549Y-115371116D02*
G01*
X53675734Y-115393232D01*
X53885203Y-115479997D01*
X54073720Y-115605960D01*
X54234040Y-115766280D01*
X54360003Y-115954797D01*
X54446768Y-116164266D01*
X54491000Y-116386636D01*
X54491000Y-116613364D01*
X54446768Y-116835734D01*
X54360003Y-117045203D01*
X54234040Y-117233720D01*
X54073720Y-117394040D01*
X53885203Y-117520003D01*
X53675734Y-117606768D01*
X53564549Y-117628884D01*
X53453365Y-117651000D01*
X53226635Y-117651000D01*
X53115451Y-117628884D01*
X53004266Y-117606768D01*
X52794797Y-117520003D01*
X52606280Y-117394040D01*
X52445960Y-117233720D01*
X52319997Y-117045203D01*
X52233232Y-116835734D01*
X52189000Y-116613364D01*
X52189000Y-116386636D01*
X52233232Y-116164266D01*
X52319997Y-115954797D01*
X52445960Y-115766280D01*
X52606280Y-115605960D01*
X52794797Y-115479997D01*
X53004266Y-115393232D01*
X53115451Y-115371116D01*
X53226635Y-115349000D01*
X53453365Y-115349000D01*
X53564549Y-115371116D01*
G37*
G36*
X86248228Y-115181703D02*
G01*
X86403100Y-115245853D01*
X86542481Y-115338985D01*
X86661015Y-115457519D01*
X86754147Y-115596900D01*
X86818297Y-115751772D01*
X86851000Y-115916184D01*
X86851000Y-116083816D01*
X86818297Y-116248228D01*
X86754147Y-116403100D01*
X86661015Y-116542481D01*
X86542481Y-116661015D01*
X86403100Y-116754147D01*
X86248228Y-116818297D01*
X86083816Y-116851000D01*
X85916184Y-116851000D01*
X85751772Y-116818297D01*
X85596900Y-116754147D01*
X85457519Y-116661015D01*
X85338985Y-116542481D01*
X85245853Y-116403100D01*
X85181703Y-116248228D01*
X85149000Y-116083816D01*
X85149000Y-115916184D01*
X85181703Y-115751772D01*
X85245853Y-115596900D01*
X85338985Y-115457519D01*
X85457519Y-115338985D01*
X85596900Y-115245853D01*
X85751772Y-115181703D01*
X85916184Y-115149000D01*
X86083816Y-115149000D01*
X86248228Y-115181703D01*
G37*
G36*
X83748228Y-115181703D02*
G01*
X83903100Y-115245853D01*
X84042481Y-115338985D01*
X84161015Y-115457519D01*
X84254147Y-115596900D01*
X84318297Y-115751772D01*
X84351000Y-115916184D01*
X84351000Y-116083816D01*
X84318297Y-116248228D01*
X84254147Y-116403100D01*
X84161015Y-116542481D01*
X84042481Y-116661015D01*
X83903100Y-116754147D01*
X83748228Y-116818297D01*
X83583816Y-116851000D01*
X83416184Y-116851000D01*
X83251772Y-116818297D01*
X83096900Y-116754147D01*
X82957519Y-116661015D01*
X82838985Y-116542481D01*
X82745853Y-116403100D01*
X82681703Y-116248228D01*
X82649000Y-116083816D01*
X82649000Y-115916184D01*
X82681703Y-115751772D01*
X82745853Y-115596900D01*
X82838985Y-115457519D01*
X82957519Y-115338985D01*
X83096900Y-115245853D01*
X83251772Y-115181703D01*
X83416184Y-115149000D01*
X83583816Y-115149000D01*
X83748228Y-115181703D01*
G37*
G36*
X95248228Y-115181703D02*
G01*
X95403100Y-115245853D01*
X95542481Y-115338985D01*
X95661015Y-115457519D01*
X95754147Y-115596900D01*
X95818297Y-115751772D01*
X95851000Y-115916184D01*
X95851000Y-116083816D01*
X95818297Y-116248228D01*
X95754147Y-116403100D01*
X95661015Y-116542481D01*
X95542481Y-116661015D01*
X95403100Y-116754147D01*
X95248228Y-116818297D01*
X95083816Y-116851000D01*
X94916184Y-116851000D01*
X94751772Y-116818297D01*
X94596900Y-116754147D01*
X94457519Y-116661015D01*
X94338985Y-116542481D01*
X94245853Y-116403100D01*
X94181703Y-116248228D01*
X94149000Y-116083816D01*
X94149000Y-115916184D01*
X94181703Y-115751772D01*
X94245853Y-115596900D01*
X94338985Y-115457519D01*
X94457519Y-115338985D01*
X94596900Y-115245853D01*
X94751772Y-115181703D01*
X94916184Y-115149000D01*
X95083816Y-115149000D01*
X95248228Y-115181703D01*
G37*
G36*
X97748228Y-115181703D02*
G01*
X97903100Y-115245853D01*
X98042481Y-115338985D01*
X98161015Y-115457519D01*
X98254147Y-115596900D01*
X98318297Y-115751772D01*
X98351000Y-115916184D01*
X98351000Y-116083816D01*
X98318297Y-116248228D01*
X98254147Y-116403100D01*
X98161015Y-116542481D01*
X98042481Y-116661015D01*
X97903100Y-116754147D01*
X97748228Y-116818297D01*
X97583816Y-116851000D01*
X97416184Y-116851000D01*
X97251772Y-116818297D01*
X97096900Y-116754147D01*
X96957519Y-116661015D01*
X96838985Y-116542481D01*
X96745853Y-116403100D01*
X96681703Y-116248228D01*
X96649000Y-116083816D01*
X96649000Y-115916184D01*
X96681703Y-115751772D01*
X96745853Y-115596900D01*
X96838985Y-115457519D01*
X96957519Y-115338985D01*
X97096900Y-115245853D01*
X97251772Y-115181703D01*
X97416184Y-115149000D01*
X97583816Y-115149000D01*
X97748228Y-115181703D01*
G37*
G36*
X120736719Y-111463520D02*
G01*
X120925880Y-111520901D01*
X120925883Y-111520902D01*
X121018333Y-111570318D01*
X121100212Y-111614083D01*
X121253015Y-111739485D01*
X121378417Y-111892288D01*
X121471599Y-112066619D01*
X121528980Y-112255780D01*
X121543500Y-112403206D01*
X121543500Y-112596793D01*
X121528980Y-112744219D01*
X121480785Y-112903097D01*
X121471598Y-112933383D01*
X121427656Y-113015592D01*
X121378417Y-113107712D01*
X121253015Y-113260515D01*
X121100212Y-113385917D01*
X120925881Y-113479099D01*
X120736720Y-113536480D01*
X120540000Y-113555855D01*
X120343281Y-113536480D01*
X120154120Y-113479099D01*
X119979788Y-113385917D01*
X119826985Y-113260515D01*
X119701583Y-113107712D01*
X119608401Y-112933381D01*
X119551020Y-112744220D01*
X119536500Y-112596794D01*
X119536500Y-112403207D01*
X119551020Y-112255781D01*
X119608401Y-112066620D01*
X119608402Y-112066617D01*
X119666716Y-111957520D01*
X119701583Y-111892288D01*
X119826985Y-111739485D01*
X119979788Y-111614083D01*
X120154119Y-111520901D01*
X120343280Y-111463520D01*
X120540000Y-111444145D01*
X120736719Y-111463520D01*
G37*
G36*
X118196719Y-111463520D02*
G01*
X118385880Y-111520901D01*
X118385883Y-111520902D01*
X118478333Y-111570318D01*
X118560212Y-111614083D01*
X118713015Y-111739485D01*
X118838417Y-111892288D01*
X118931599Y-112066619D01*
X118988980Y-112255780D01*
X119003500Y-112403206D01*
X119003500Y-112596793D01*
X118988980Y-112744219D01*
X118940785Y-112903097D01*
X118931598Y-112933383D01*
X118887656Y-113015592D01*
X118838417Y-113107712D01*
X118713015Y-113260515D01*
X118560212Y-113385917D01*
X118385881Y-113479099D01*
X118196720Y-113536480D01*
X118000000Y-113555855D01*
X117803281Y-113536480D01*
X117614120Y-113479099D01*
X117439788Y-113385917D01*
X117286985Y-113260515D01*
X117161583Y-113107712D01*
X117068401Y-112933381D01*
X117011020Y-112744220D01*
X116996500Y-112596794D01*
X116996500Y-112403207D01*
X117011020Y-112255781D01*
X117068401Y-112066620D01*
X117068402Y-112066617D01*
X117126716Y-111957520D01*
X117161583Y-111892288D01*
X117286985Y-111739485D01*
X117439788Y-111614083D01*
X117614119Y-111520901D01*
X117803280Y-111463520D01*
X118000000Y-111444145D01*
X118196719Y-111463520D01*
G37*
G36*
X60736719Y-111463520D02*
G01*
X60925880Y-111520901D01*
X60925883Y-111520902D01*
X61018333Y-111570318D01*
X61100212Y-111614083D01*
X61253015Y-111739485D01*
X61378417Y-111892288D01*
X61471599Y-112066619D01*
X61528980Y-112255780D01*
X61543500Y-112403206D01*
X61543500Y-112596793D01*
X61528980Y-112744219D01*
X61480785Y-112903097D01*
X61471598Y-112933383D01*
X61427656Y-113015592D01*
X61378417Y-113107712D01*
X61253015Y-113260515D01*
X61100212Y-113385917D01*
X60925881Y-113479099D01*
X60736720Y-113536480D01*
X60540000Y-113555855D01*
X60343281Y-113536480D01*
X60154120Y-113479099D01*
X59979788Y-113385917D01*
X59826985Y-113260515D01*
X59701583Y-113107712D01*
X59608401Y-112933381D01*
X59551020Y-112744220D01*
X59536500Y-112596794D01*
X59536500Y-112403207D01*
X59551020Y-112255781D01*
X59608401Y-112066620D01*
X59608402Y-112066617D01*
X59666716Y-111957520D01*
X59701583Y-111892288D01*
X59826985Y-111739485D01*
X59979788Y-111614083D01*
X60154119Y-111520901D01*
X60343280Y-111463520D01*
X60540000Y-111444145D01*
X60736719Y-111463520D01*
G37*
G36*
X58196719Y-111463520D02*
G01*
X58385880Y-111520901D01*
X58385883Y-111520902D01*
X58478333Y-111570318D01*
X58560212Y-111614083D01*
X58713015Y-111739485D01*
X58838417Y-111892288D01*
X58931599Y-112066619D01*
X58988980Y-112255780D01*
X59003500Y-112403206D01*
X59003500Y-112596793D01*
X58988980Y-112744219D01*
X58940785Y-112903097D01*
X58931598Y-112933383D01*
X58887656Y-113015592D01*
X58838417Y-113107712D01*
X58713015Y-113260515D01*
X58560212Y-113385917D01*
X58385881Y-113479099D01*
X58196720Y-113536480D01*
X58000000Y-113555855D01*
X57803281Y-113536480D01*
X57614120Y-113479099D01*
X57439788Y-113385917D01*
X57286985Y-113260515D01*
X57161583Y-113107712D01*
X57068401Y-112933381D01*
X57011020Y-112744220D01*
X56996500Y-112596794D01*
X56996500Y-112403207D01*
X57011020Y-112255781D01*
X57068401Y-112066620D01*
X57068402Y-112066617D01*
X57126716Y-111957520D01*
X57161583Y-111892288D01*
X57286985Y-111739485D01*
X57439788Y-111614083D01*
X57614119Y-111520901D01*
X57803280Y-111463520D01*
X58000000Y-111444145D01*
X58196719Y-111463520D01*
G37*
G36*
X116463500Y-113551000D02*
G01*
X114456500Y-113551000D01*
X114456500Y-111449000D01*
X116463500Y-111449000D01*
X116463500Y-113551000D01*
G37*
G36*
X56463500Y-113551000D02*
G01*
X54456500Y-113551000D01*
X54456500Y-111449000D01*
X56463500Y-111449000D01*
X56463500Y-113551000D01*
G37*
G36*
X172600318Y-111095153D02*
G01*
X172818885Y-111185687D01*
X172818887Y-111185688D01*
X173015593Y-111317122D01*
X173182878Y-111484407D01*
X173269524Y-111614083D01*
X173314313Y-111681115D01*
X173404847Y-111899682D01*
X173451000Y-112131710D01*
X173451000Y-112368290D01*
X173404847Y-112600318D01*
X173345241Y-112744218D01*
X173314312Y-112818887D01*
X173182878Y-113015593D01*
X173015593Y-113182878D01*
X172818887Y-113314312D01*
X172818886Y-113314313D01*
X172818885Y-113314313D01*
X172600318Y-113404847D01*
X172368290Y-113451000D01*
X172131710Y-113451000D01*
X171899682Y-113404847D01*
X171681115Y-113314313D01*
X171681114Y-113314313D01*
X171681113Y-113314312D01*
X171484407Y-113182878D01*
X171317122Y-113015593D01*
X171185688Y-112818887D01*
X171154759Y-112744218D01*
X171095153Y-112600318D01*
X171049000Y-112368290D01*
X171049000Y-112131710D01*
X171095153Y-111899682D01*
X171185687Y-111681115D01*
X171230476Y-111614083D01*
X171317122Y-111484407D01*
X171484407Y-111317122D01*
X171681113Y-111185688D01*
X171681115Y-111185687D01*
X171899682Y-111095153D01*
X172131710Y-111049000D01*
X172368290Y-111049000D01*
X172600318Y-111095153D01*
G37*
G36*
X187600318Y-111095153D02*
G01*
X187818885Y-111185687D01*
X187818887Y-111185688D01*
X188015593Y-111317122D01*
X188182878Y-111484407D01*
X188269524Y-111614083D01*
X188314313Y-111681115D01*
X188404847Y-111899682D01*
X188451000Y-112131710D01*
X188451000Y-112368290D01*
X188404847Y-112600318D01*
X188345241Y-112744218D01*
X188314312Y-112818887D01*
X188182878Y-113015593D01*
X188015593Y-113182878D01*
X187818887Y-113314312D01*
X187818886Y-113314313D01*
X187818885Y-113314313D01*
X187600318Y-113404847D01*
X187368290Y-113451000D01*
X187131710Y-113451000D01*
X186899682Y-113404847D01*
X186681115Y-113314313D01*
X186681114Y-113314313D01*
X186681113Y-113314312D01*
X186484407Y-113182878D01*
X186317122Y-113015593D01*
X186185688Y-112818887D01*
X186154759Y-112744218D01*
X186095153Y-112600318D01*
X186049000Y-112368290D01*
X186049000Y-112131710D01*
X186095153Y-111899682D01*
X186185687Y-111681115D01*
X186230476Y-111614083D01*
X186317122Y-111484407D01*
X186484407Y-111317122D01*
X186681113Y-111185688D01*
X186681115Y-111185687D01*
X186899682Y-111095153D01*
X187131710Y-111049000D01*
X187368290Y-111049000D01*
X187600318Y-111095153D01*
G37*
G36*
X163451000Y-113451000D02*
G01*
X161049000Y-113451000D01*
X161049000Y-111049000D01*
X163451000Y-111049000D01*
X163451000Y-113451000D01*
G37*
G36*
X180100318Y-111095153D02*
G01*
X180318885Y-111185687D01*
X180318887Y-111185688D01*
X180515593Y-111317122D01*
X180682878Y-111484407D01*
X180769524Y-111614083D01*
X180814313Y-111681115D01*
X180904847Y-111899682D01*
X180951000Y-112131710D01*
X180951000Y-112368290D01*
X180904847Y-112600318D01*
X180845241Y-112744218D01*
X180814312Y-112818887D01*
X180682878Y-113015593D01*
X180515593Y-113182878D01*
X180318887Y-113314312D01*
X180318886Y-113314313D01*
X180318885Y-113314313D01*
X180100318Y-113404847D01*
X179868290Y-113451000D01*
X179631710Y-113451000D01*
X179399682Y-113404847D01*
X179181115Y-113314313D01*
X179181114Y-113314313D01*
X179181113Y-113314312D01*
X178984407Y-113182878D01*
X178817122Y-113015593D01*
X178685688Y-112818887D01*
X178654759Y-112744218D01*
X178595153Y-112600318D01*
X178549000Y-112368290D01*
X178549000Y-112131710D01*
X178595153Y-111899682D01*
X178685687Y-111681115D01*
X178730476Y-111614083D01*
X178817122Y-111484407D01*
X178984407Y-111317122D01*
X179181113Y-111185688D01*
X179181115Y-111185687D01*
X179399682Y-111095153D01*
X179631710Y-111049000D01*
X179868290Y-111049000D01*
X180100318Y-111095153D01*
G37*
G36*
X109748228Y-111681703D02*
G01*
X109903100Y-111745853D01*
X110042481Y-111838985D01*
X110161015Y-111957519D01*
X110254147Y-112096900D01*
X110318297Y-112251772D01*
X110351000Y-112416184D01*
X110351000Y-112583816D01*
X110318297Y-112748228D01*
X110254147Y-112903100D01*
X110161015Y-113042481D01*
X110042481Y-113161015D01*
X109903100Y-113254147D01*
X109748228Y-113318297D01*
X109583816Y-113351000D01*
X109416184Y-113351000D01*
X109251772Y-113318297D01*
X109096900Y-113254147D01*
X108957519Y-113161015D01*
X108838985Y-113042481D01*
X108745853Y-112903100D01*
X108681703Y-112748228D01*
X108649000Y-112583816D01*
X108649000Y-112416184D01*
X108681703Y-112251772D01*
X108745853Y-112096900D01*
X108838985Y-111957519D01*
X108957519Y-111838985D01*
X109096900Y-111745853D01*
X109251772Y-111681703D01*
X109416184Y-111649000D01*
X109583816Y-111649000D01*
X109748228Y-111681703D01*
G37*
G36*
X49748228Y-111681703D02*
G01*
X49903100Y-111745853D01*
X50042481Y-111838985D01*
X50161015Y-111957519D01*
X50254147Y-112096900D01*
X50318297Y-112251772D01*
X50351000Y-112416184D01*
X50351000Y-112583816D01*
X50318297Y-112748228D01*
X50254147Y-112903100D01*
X50161015Y-113042481D01*
X50042481Y-113161015D01*
X49903100Y-113254147D01*
X49748228Y-113318297D01*
X49583816Y-113351000D01*
X49416184Y-113351000D01*
X49251772Y-113318297D01*
X49096900Y-113254147D01*
X48957519Y-113161015D01*
X48838985Y-113042481D01*
X48745853Y-112903100D01*
X48681703Y-112748228D01*
X48649000Y-112583816D01*
X48649000Y-112416184D01*
X48681703Y-112251772D01*
X48745853Y-112096900D01*
X48838985Y-111957519D01*
X48957519Y-111838985D01*
X49096900Y-111745853D01*
X49251772Y-111681703D01*
X49416184Y-111649000D01*
X49583816Y-111649000D01*
X49748228Y-111681703D01*
G37*
G36*
X46748228Y-111681703D02*
G01*
X46903100Y-111745853D01*
X47042481Y-111838985D01*
X47161015Y-111957519D01*
X47254147Y-112096900D01*
X47318297Y-112251772D01*
X47351000Y-112416184D01*
X47351000Y-112583816D01*
X47318297Y-112748228D01*
X47254147Y-112903100D01*
X47161015Y-113042481D01*
X47042481Y-113161015D01*
X46903100Y-113254147D01*
X46748228Y-113318297D01*
X46583816Y-113351000D01*
X46416184Y-113351000D01*
X46251772Y-113318297D01*
X46096900Y-113254147D01*
X45957519Y-113161015D01*
X45838985Y-113042481D01*
X45745853Y-112903100D01*
X45681703Y-112748228D01*
X45649000Y-112583816D01*
X45649000Y-112416184D01*
X45681703Y-112251772D01*
X45745853Y-112096900D01*
X45838985Y-111957519D01*
X45957519Y-111838985D01*
X46096900Y-111745853D01*
X46251772Y-111681703D01*
X46416184Y-111649000D01*
X46583816Y-111649000D01*
X46748228Y-111681703D01*
G37*
G36*
X106748228Y-111681703D02*
G01*
X106903100Y-111745853D01*
X107042481Y-111838985D01*
X107161015Y-111957519D01*
X107254147Y-112096900D01*
X107318297Y-112251772D01*
X107351000Y-112416184D01*
X107351000Y-112583816D01*
X107318297Y-112748228D01*
X107254147Y-112903100D01*
X107161015Y-113042481D01*
X107042481Y-113161015D01*
X106903100Y-113254147D01*
X106748228Y-113318297D01*
X106583816Y-113351000D01*
X106416184Y-113351000D01*
X106251772Y-113318297D01*
X106096900Y-113254147D01*
X105957519Y-113161015D01*
X105838985Y-113042481D01*
X105745853Y-112903100D01*
X105681703Y-112748228D01*
X105649000Y-112583816D01*
X105649000Y-112416184D01*
X105681703Y-112251772D01*
X105745853Y-112096900D01*
X105838985Y-111957519D01*
X105957519Y-111838985D01*
X106096900Y-111745853D01*
X106251772Y-111681703D01*
X106416184Y-111649000D01*
X106583816Y-111649000D01*
X106748228Y-111681703D01*
G37*
G36*
X81048156Y-99672794D02*
G01*
X81769140Y-99816206D01*
X82560972Y-100144193D01*
X83273601Y-100620357D01*
X83879643Y-101226399D01*
X84355807Y-101939028D01*
X84683794Y-102730860D01*
X84851000Y-103571464D01*
X84851000Y-104428536D01*
X84683794Y-105269140D01*
X84355807Y-106060972D01*
X83879643Y-106773601D01*
X83273601Y-107379643D01*
X82560972Y-107855807D01*
X81769140Y-108183794D01*
X81048156Y-108327206D01*
X80928537Y-108351000D01*
X80071463Y-108351000D01*
X79951844Y-108327206D01*
X79230860Y-108183794D01*
X78439028Y-107855807D01*
X77726399Y-107379643D01*
X77120357Y-106773601D01*
X76644193Y-106060972D01*
X76316206Y-105269140D01*
X76149000Y-104428536D01*
X76149000Y-103571464D01*
X76316206Y-102730860D01*
X76644193Y-101939028D01*
X77120357Y-101226399D01*
X77726399Y-100620357D01*
X78439028Y-100144193D01*
X79230860Y-99816206D01*
X79951844Y-99672794D01*
X80071463Y-99649000D01*
X80928537Y-99649000D01*
X81048156Y-99672794D01*
G37*
G36*
X161048156Y-99672794D02*
G01*
X161769140Y-99816206D01*
X162560972Y-100144193D01*
X163273601Y-100620357D01*
X163879643Y-101226399D01*
X164355807Y-101939028D01*
X164683794Y-102730860D01*
X164851000Y-103571464D01*
X164851000Y-104428536D01*
X164683794Y-105269140D01*
X164355807Y-106060972D01*
X163879643Y-106773601D01*
X163273601Y-107379643D01*
X162560972Y-107855807D01*
X161769140Y-108183794D01*
X161048156Y-108327206D01*
X160928537Y-108351000D01*
X160071463Y-108351000D01*
X159951844Y-108327206D01*
X159230860Y-108183794D01*
X158439028Y-107855807D01*
X157726399Y-107379643D01*
X157120357Y-106773601D01*
X156644193Y-106060972D01*
X156316206Y-105269140D01*
X156149000Y-104428536D01*
X156149000Y-103571464D01*
X156316206Y-102730860D01*
X156644193Y-101939028D01*
X157120357Y-101226399D01*
X157726399Y-100620357D01*
X158439028Y-100144193D01*
X159230860Y-99816206D01*
X159951844Y-99672794D01*
X160071463Y-99649000D01*
X160928537Y-99649000D01*
X161048156Y-99672794D01*
G37*
M02*
