G04 #@! TF.GenerationSoftware,KiCad,Pcbnew,5.1.6*
G04 #@! TF.CreationDate,2020-07-29T11:54:06+02:00*
G04 #@! TF.ProjectId,Power supply,506f7765-7220-4737-9570-706c792e6b69,rev?*
G04 #@! TF.SameCoordinates,Original*
G04 #@! TF.FileFunction,Profile,NP*
%FSLAX46Y46*%
G04 Gerber Fmt 4.6, Leading zero omitted, Abs format (unit mm)*
G04 Created by KiCad (PCBNEW 5.1.6) date 2020-07-29 11:54:06*
%MOMM*%
%LPD*%
G01*
G04 APERTURE LIST*
G04 #@! TA.AperFunction,Profile*
%ADD10C,0.050000*%
G04 #@! TD*
G04 #@! TA.AperFunction,Profile*
%ADD11C,0.200000*%
G04 #@! TD*
G04 APERTURE END LIST*
D10*
X31000000Y-212300000D02*
G75*
G02*
X30000000Y-213300000I-1000000J0D01*
G01*
X30000000Y-213300000D02*
X29000000Y-213300000D01*
X31000000Y-208300000D02*
X31000000Y-212300000D01*
X29000000Y-213300000D02*
G75*
G02*
X28000000Y-212300000I0J1000000D01*
G01*
X28000000Y-212300000D02*
X28000000Y-208300000D01*
X28000000Y-208300000D02*
G75*
G02*
X29000000Y-207300000I1000000J0D01*
G01*
X29000000Y-207300000D02*
X30000000Y-207300000D01*
X30000000Y-207300000D02*
G75*
G02*
X31000000Y-208300000I0J-1000000D01*
G01*
X123000000Y-212150000D02*
X123000000Y-208150000D01*
X126000000Y-208150000D02*
X126000000Y-212150000D01*
X126000000Y-212150000D02*
G75*
G02*
X125000000Y-213150000I-1000000J0D01*
G01*
X124000000Y-213150000D02*
G75*
G02*
X123000000Y-212150000I0J1000000D01*
G01*
X124000000Y-207150000D02*
X125000000Y-207150000D01*
X125000000Y-213150000D02*
X124000000Y-213150000D01*
X123000000Y-208150000D02*
G75*
G02*
X124000000Y-207150000I1000000J0D01*
G01*
X125000000Y-207150000D02*
G75*
G02*
X126000000Y-208150000I0J-1000000D01*
G01*
X66000000Y-208250000D02*
X66000000Y-212250000D01*
X63000000Y-212250000D02*
X63000000Y-208250000D01*
X63000000Y-208250000D02*
G75*
G02*
X64000000Y-207250000I1000000J0D01*
G01*
X65000000Y-207250000D02*
G75*
G02*
X66000000Y-208250000I0J-1000000D01*
G01*
X65000000Y-213250000D02*
X64000000Y-213250000D01*
X64000000Y-207250000D02*
X65000000Y-207250000D01*
X66000000Y-212250000D02*
G75*
G02*
X65000000Y-213250000I-1000000J0D01*
G01*
X64000000Y-213250000D02*
G75*
G02*
X63000000Y-212250000I0J1000000D01*
G01*
X89000000Y-207250000D02*
X90000000Y-207250000D01*
X88000000Y-212250000D02*
X88000000Y-208250000D01*
X90000000Y-213250000D02*
X89000000Y-213250000D01*
X91000000Y-208250000D02*
X91000000Y-212250000D01*
X91000000Y-212250000D02*
G75*
G02*
X90000000Y-213250000I-1000000J0D01*
G01*
X89000000Y-213250000D02*
G75*
G02*
X88000000Y-212250000I0J1000000D01*
G01*
X90000000Y-207250000D02*
G75*
G02*
X91000000Y-208250000I0J-1000000D01*
G01*
X88000000Y-208250000D02*
G75*
G02*
X89000000Y-207250000I1000000J0D01*
G01*
D11*
X20000000Y-99300001D02*
X200700000Y-99300001D01*
X20000000Y-280000000D02*
X20000000Y-99300001D01*
X200700000Y-280000000D02*
X20000000Y-280000000D01*
X200700000Y-99300001D02*
X200700000Y-280000000D01*
M02*
