M48
; DRILL file {KiCad (5.1.2)-1} date 12.05.2020 16:12:35
; FORMAT={-:-/ absolute / inch / decimal}
; #@! TF.CreationDate,2020-05-12T16:12:35+02:00
; #@! TF.GenerationSoftware,Kicad,Pcbnew,(5.1.2)-1
; #@! TF.FileFunction,Plated,1,2,PTH
FMAT,2
INCH
T1C0.0079
T2C0.0118
T3C0.0157
T4C0.0197
T5C0.0362
T6C0.0394
T7C0.0400
T8C0.0433
T9C0.0630
T10C0.0917
T11C0.1260
%
G90
G05
T1
X3.189Y-4.0945
X3.2776Y-4.065
X3.3169Y-4.2618
X3.3661Y-4.4892
X3.4252Y-4.1732
X3.4252Y-4.2618
X3.4252Y-4.3602
X3.4252Y-4.498
X3.4547Y-4.498
X3.5226Y-3.8002
X3.563Y-4.1634
X3.6024Y-4.2618
X3.6269Y-4.2411
X3.6417Y-4.1654
X3.6417Y-4.3898
X3.6516Y-4.2323
X3.7441Y-4.2323
X3.7598Y-4.1831
X3.7598Y-4.1339
X4.0955Y-3.8002
X4.3051Y-4.4173
X4.3533Y-4.1484
X4.4094Y-4.1732
X4.4606Y-4.126
X4.4872Y-4.1496
X5.9515Y-4.2411
X5.9734Y-4.3209
X5.9774Y-4.0089
X5.9941Y-4.2717
X6.2598Y-4.0148
X6.2908Y-3.8962
X6.3583Y-3.7992
X6.4469Y-3.8583
X6.4862Y-3.7598
T2
X2.7657Y-4.1437
X2.7677Y-4.2165
X2.9764Y-3.8425
X2.9764Y-3.8898
X2.9764Y-3.937
X3.0709Y-3.8425
X3.0709Y-3.8898
X3.0709Y-3.937
X3.1732Y-3.8425
X3.1732Y-3.8898
X3.1732Y-3.937
X3.1791Y-4.2913
X3.1791Y-4.3543
X3.1791Y-4.4094
X3.378Y-3.8425
X3.378Y-3.8898
X3.378Y-3.937
X3.4724Y-3.8425
X3.4724Y-3.8898
X3.4724Y-3.937
X3.5748Y-3.8425
X3.5748Y-3.8878
X3.5748Y-3.937
X3.6417Y-4.0157
X3.6516Y-4.5177
X3.7106Y-4.4488
X3.7598Y-4.311
X3.7894Y-3.9567
X3.8189Y-4.5177
X3.878Y-4.4193
X3.8878Y-4.0157
X3.8952Y-4.3127
X3.9665Y-4.4193
X3.9665Y-4.5177
X3.9862Y-3.9567
X4.0945Y-4.2126
X4.0945Y-4.4488
X4.1535Y-4.0748
X4.1929Y-4.2126
X4.1929Y-4.4488
X4.2126Y-4.0748
X4.2717Y-4.0748
X4.2913Y-4.2126
X4.2913Y-4.4488
X4.3012Y-4.5177
X4.3602Y-4.0551
X4.6063Y-4.0551
X4.7244Y-4.4488
X4.8228Y-3.7992
X4.8228Y-4.3504
X4.9213Y-3.8976
X4.9213Y-4.4488
X5.0197Y-3.7992
X5.0197Y-4.1732
X5.0197Y-4.3504
X5.1181Y-3.8976
X5.1181Y-4.4488
X5.2165Y-3.7992
X5.2165Y-4.3504
X5.2362Y-4.1732
X5.315Y-3.8976
X5.315Y-4.4488
X5.4134Y-3.7992
X5.4134Y-4.3504
X5.5118Y-3.8976
X5.5118Y-4.4488
X5.6004Y-3.7992
X5.6102Y-4.3504
X5.7087Y-3.8976
X5.7717Y-4.3622
X5.8169Y-3.7992
X5.9055Y-3.8976
X5.9252Y-4.3799
X6.0827Y-4.2815
X6.0827Y-4.3602
X6.0827Y-4.4587
X6.3071Y-4.3937
X6.3544Y-4.2756
X6.5846Y-3.8681
X6.9291Y-3.878
X6.9291Y-3.9272
X7.0472Y-3.878
X7.0472Y-3.9272
X7.2736Y-4.065
X7.4508Y-4.0059
X7.4508Y-4.0748
X7.5098Y-4.124
X7.5492Y-3.75
X7.5689Y-4.0059
X7.5689Y-4.0748
X8.1339Y-4.315
X8.1693Y-3.75
X8.4646Y-4.063
X8.4646Y-4.2047
X8.4646Y-4.378
X8.4646Y-4.5197
X8.4724Y-3.8425
X8.4724Y-3.8898
X8.4724Y-3.937
X8.5236Y-4.063
X8.5236Y-4.2047
X8.5236Y-4.378
X8.5236Y-4.5197
X8.5669Y-3.8425
X8.5669Y-3.8898
X8.5669Y-3.937
X8.5827Y-4.063
X8.5827Y-4.2047
X8.5827Y-4.378
X8.5827Y-4.5197
X8.622Y-4.1142
X8.622Y-4.1654
X8.622Y-4.4291
X8.622Y-4.4803
X8.6693Y-3.8425
X8.6693Y-3.8898
X8.6693Y-3.937
X8.7638Y-3.8425
X8.7638Y-3.8898
X8.7638Y-3.937
X8.7913Y-4.4488
X8.7913Y-4.5079
X8.7913Y-4.5669
X8.8071Y-4.0453
X8.8504Y-4.4173
X8.8661Y-3.8425
X8.8661Y-3.8898
X8.8661Y-3.937
X8.9055Y-4.4173
X8.9606Y-4.4488
X8.9606Y-4.5079
X8.9606Y-4.5669
X9.2402Y-4.4488
X9.2402Y-4.5079
X9.2402Y-4.5669
X9.2913Y-4.4173
X9.3504Y-4.4173
X9.4016Y-4.4488
X9.4016Y-4.5079
X9.4016Y-4.5669
T3
X7.1457Y-3.8583
T4
X9.7677Y-3.937
X9.7954Y-3.8702
X9.7954Y-4.0038
X9.8622Y-3.8425
X9.8622Y-4.0315
X9.929Y-3.8702
X9.929Y-4.0038
X9.9567Y-3.937
X2.0906Y-3.937
X2.1182Y-3.8702
X2.1182Y-4.0038
X2.185Y-3.8425
X2.185Y-4.0315
X2.2519Y-3.8702
X2.2519Y-4.0038
X2.2795Y-3.937
T5
X6.7717Y-4.0748
X6.7717Y-4.1535
X6.8701Y-4.0748
X6.8701Y-4.1535
T6
X7.313Y-4.5177
X7.4114Y-4.5177
X7.9512Y-3.8189
X8.0512Y-3.8189
X7.9429Y-4.5177
X8.0413Y-4.5177
X9.685Y-4.5079
X9.7835Y-4.5079
X9.8819Y-4.5079
T7
X2.2114Y-4.3488
X2.2114Y-4.4488
X2.3114Y-4.3488
X2.3114Y-4.4488
X2.4114Y-4.3488
X2.4114Y-4.4488
T8
X2.7264Y-4.311
X2.7264Y-4.4882
X2.9823Y-4.311
X2.9823Y-4.4882
T9
X2.7165Y-3.8189
X7.7165Y-3.7992
T10
X6.5839Y-4.2602
X7.0579Y-4.2602
T11
X9.8622Y-3.937
X2.185Y-3.937
T0
M30
