G04 #@! TF.GenerationSoftware,KiCad,Pcbnew,(5.1.2)-1*
G04 #@! TF.CreationDate,2020-05-12T16:12:36+02:00*
G04 #@! TF.ProjectId,Controller,436f6e74-726f-46c6-9c65-722e6b696361,rev?*
G04 #@! TF.SameCoordinates,Original*
G04 #@! TF.FileFunction,Legend,Bot*
G04 #@! TF.FilePolarity,Positive*
%FSLAX46Y46*%
G04 Gerber Fmt 4.6, Leading zero omitted, Abs format (unit mm)*
G04 Created by KiCad (PCBNEW (5.1.2)-1) date 2020-05-12 16:12:36*
%MOMM*%
%LPD*%
G04 APERTURE LIST*
%ADD10C,0.120000*%
%ADD11C,0.200000*%
%ADD12C,0.150000*%
%ADD13C,0.300000*%
G04 APERTURE END LIST*
D10*
X84250000Y-104500000D02*
X83750000Y-105000000D01*
X84250000Y-104250000D02*
X84250000Y-104500000D01*
X84250000Y-103500000D02*
X84250000Y-104250000D01*
X84500000Y-103250000D02*
X84250000Y-103500000D01*
X84250000Y-105000000D02*
X84500000Y-104750000D01*
X84250000Y-106000000D02*
X84250000Y-105000000D01*
X84000000Y-106250000D02*
X84250000Y-106000000D01*
X159000000Y-94500000D02*
X159250000Y-94750000D01*
X155250000Y-94750000D02*
X155750000Y-94250000D01*
X161000000Y-94250000D02*
X161500000Y-94750000D01*
X155750000Y-94250000D02*
X161000000Y-94250000D01*
X156750000Y-94500000D02*
X159000000Y-94500000D01*
X156250000Y-95000000D02*
X156750000Y-94500000D01*
X156250000Y-96250000D02*
X156250000Y-95000000D01*
D11*
X205535714Y-98952380D02*
X206011904Y-98952380D01*
X206059523Y-99428571D01*
X206011904Y-99380952D01*
X205916666Y-99333333D01*
X205678571Y-99333333D01*
X205583333Y-99380952D01*
X205535714Y-99428571D01*
X205488095Y-99523809D01*
X205488095Y-99761904D01*
X205535714Y-99857142D01*
X205583333Y-99904761D01*
X205678571Y-99952380D01*
X205916666Y-99952380D01*
X206011904Y-99904761D01*
X206059523Y-99857142D01*
X205202380Y-98952380D02*
X204869047Y-99952380D01*
X204535714Y-98952380D01*
X203773809Y-99952380D02*
X203773809Y-98952380D01*
X203773809Y-99904761D02*
X203869047Y-99952380D01*
X204059523Y-99952380D01*
X204154761Y-99904761D01*
X204202380Y-99857142D01*
X204250000Y-99761904D01*
X204250000Y-99476190D01*
X204202380Y-99380952D01*
X204154761Y-99333333D01*
X204059523Y-99285714D01*
X203869047Y-99285714D01*
X203773809Y-99333333D01*
X203297619Y-99571428D02*
X202535714Y-99571428D01*
X202059523Y-99285714D02*
X201297619Y-99571428D01*
X202059523Y-99857142D01*
X200345238Y-98952380D02*
X200821428Y-98952380D01*
X200869047Y-99428571D01*
X200821428Y-99380952D01*
X200726190Y-99333333D01*
X200488095Y-99333333D01*
X200392857Y-99380952D01*
X200345238Y-99428571D01*
X200297619Y-99523809D01*
X200297619Y-99761904D01*
X200345238Y-99857142D01*
X200392857Y-99904761D01*
X200488095Y-99952380D01*
X200726190Y-99952380D01*
X200821428Y-99904761D01*
X200869047Y-99857142D01*
X200011904Y-98952380D02*
X199678571Y-99952380D01*
X199345238Y-98952380D01*
D12*
X153940476Y-99702380D02*
X153940476Y-98702380D01*
X153559523Y-98702380D01*
X153464285Y-98750000D01*
X153416666Y-98797619D01*
X153369047Y-98892857D01*
X153369047Y-99035714D01*
X153416666Y-99130952D01*
X153464285Y-99178571D01*
X153559523Y-99226190D01*
X153940476Y-99226190D01*
X152940476Y-99702380D02*
X152940476Y-98702380D01*
X152702380Y-98702380D01*
X152559523Y-98750000D01*
X152464285Y-98845238D01*
X152416666Y-98940476D01*
X152369047Y-99130952D01*
X152369047Y-99273809D01*
X152416666Y-99464285D01*
X152464285Y-99559523D01*
X152559523Y-99654761D01*
X152702380Y-99702380D01*
X152940476Y-99702380D01*
X151750000Y-98702380D02*
X151559523Y-98702380D01*
X151464285Y-98750000D01*
X151369047Y-98845238D01*
X151321428Y-99035714D01*
X151321428Y-99369047D01*
X151369047Y-99559523D01*
X151464285Y-99654761D01*
X151559523Y-99702380D01*
X151750000Y-99702380D01*
X151845238Y-99654761D01*
X151940476Y-99559523D01*
X151988095Y-99369047D01*
X151988095Y-99035714D01*
X151940476Y-98845238D01*
X151845238Y-98750000D01*
X151750000Y-98702380D01*
X150892857Y-98702380D02*
X150892857Y-99511904D01*
X150845238Y-99607142D01*
X150797619Y-99654761D01*
X150702380Y-99702380D01*
X150511904Y-99702380D01*
X150416666Y-99654761D01*
X150369047Y-99607142D01*
X150321428Y-99511904D01*
X150321428Y-98702380D01*
X149988095Y-98702380D02*
X149416666Y-98702380D01*
X149702380Y-99702380D02*
X149702380Y-98702380D01*
D11*
X257207142Y-100778571D02*
X257778571Y-101178571D01*
X257207142Y-101464285D02*
X258407142Y-101464285D01*
X258407142Y-101007142D01*
X258350000Y-100892857D01*
X258292857Y-100835714D01*
X258178571Y-100778571D01*
X258007142Y-100778571D01*
X257892857Y-100835714D01*
X257835714Y-100892857D01*
X257778571Y-101007142D01*
X257778571Y-101464285D01*
X257835714Y-100264285D02*
X257835714Y-99864285D01*
X257207142Y-99692857D02*
X257207142Y-100264285D01*
X258407142Y-100264285D01*
X258407142Y-99692857D01*
X258407142Y-99350000D02*
X257207142Y-98950000D01*
X258407142Y-98550000D01*
X257321428Y-98150000D02*
X257264285Y-98092857D01*
X257207142Y-98150000D01*
X257264285Y-98207142D01*
X257321428Y-98150000D01*
X257207142Y-98150000D01*
X257835714Y-96264285D02*
X257778571Y-96092857D01*
X257721428Y-96035714D01*
X257607142Y-95978571D01*
X257435714Y-95978571D01*
X257321428Y-96035714D01*
X257264285Y-96092857D01*
X257207142Y-96207142D01*
X257207142Y-96664285D01*
X258407142Y-96664285D01*
X258407142Y-96264285D01*
X258350000Y-96150000D01*
X258292857Y-96092857D01*
X258178571Y-96035714D01*
X258064285Y-96035714D01*
X257950000Y-96092857D01*
X257892857Y-96150000D01*
X257835714Y-96264285D01*
X257835714Y-96664285D01*
X256407142Y-102292857D02*
X256407142Y-102178571D01*
X256350000Y-102064285D01*
X256292857Y-102007142D01*
X256178571Y-101950000D01*
X255950000Y-101892857D01*
X255664285Y-101892857D01*
X255435714Y-101950000D01*
X255321428Y-102007142D01*
X255264285Y-102064285D01*
X255207142Y-102178571D01*
X255207142Y-102292857D01*
X255264285Y-102407142D01*
X255321428Y-102464285D01*
X255435714Y-102521428D01*
X255664285Y-102578571D01*
X255950000Y-102578571D01*
X256178571Y-102521428D01*
X256292857Y-102464285D01*
X256350000Y-102407142D01*
X256407142Y-102292857D01*
X256407142Y-101492857D02*
X256407142Y-100750000D01*
X255950000Y-101150000D01*
X255950000Y-100978571D01*
X255892857Y-100864285D01*
X255835714Y-100807142D01*
X255721428Y-100750000D01*
X255435714Y-100750000D01*
X255321428Y-100807142D01*
X255264285Y-100864285D01*
X255207142Y-100978571D01*
X255207142Y-101321428D01*
X255264285Y-101435714D01*
X255321428Y-101492857D01*
X256464285Y-99378571D02*
X254921428Y-100407142D01*
X256292857Y-99035714D02*
X256350000Y-98978571D01*
X256407142Y-98864285D01*
X256407142Y-98578571D01*
X256350000Y-98464285D01*
X256292857Y-98407142D01*
X256178571Y-98350000D01*
X256064285Y-98350000D01*
X255892857Y-98407142D01*
X255207142Y-99092857D01*
X255207142Y-98350000D01*
X256407142Y-97607142D02*
X256407142Y-97492857D01*
X256350000Y-97378571D01*
X256292857Y-97321428D01*
X256178571Y-97264285D01*
X255950000Y-97207142D01*
X255664285Y-97207142D01*
X255435714Y-97264285D01*
X255321428Y-97321428D01*
X255264285Y-97378571D01*
X255207142Y-97492857D01*
X255207142Y-97607142D01*
X255264285Y-97721428D01*
X255321428Y-97778571D01*
X255435714Y-97835714D01*
X255664285Y-97892857D01*
X255950000Y-97892857D01*
X256178571Y-97835714D01*
X256292857Y-97778571D01*
X256350000Y-97721428D01*
X256407142Y-97607142D01*
X256292857Y-96750000D02*
X256350000Y-96692857D01*
X256407142Y-96578571D01*
X256407142Y-96292857D01*
X256350000Y-96178571D01*
X256292857Y-96121428D01*
X256178571Y-96064285D01*
X256064285Y-96064285D01*
X255892857Y-96121428D01*
X255207142Y-96807142D01*
X255207142Y-96064285D01*
X256407142Y-95321428D02*
X256407142Y-95207142D01*
X256350000Y-95092857D01*
X256292857Y-95035714D01*
X256178571Y-94978571D01*
X255950000Y-94921428D01*
X255664285Y-94921428D01*
X255435714Y-94978571D01*
X255321428Y-95035714D01*
X255264285Y-95092857D01*
X255207142Y-95207142D01*
X255207142Y-95321428D01*
X255264285Y-95435714D01*
X255321428Y-95492857D01*
X255435714Y-95550000D01*
X255664285Y-95607142D01*
X255950000Y-95607142D01*
X256178571Y-95550000D01*
X256292857Y-95492857D01*
X256350000Y-95435714D01*
X256407142Y-95321428D01*
X51407142Y-106685714D02*
X51407142Y-105885714D01*
X50207142Y-106400000D01*
X50264285Y-104571428D02*
X50207142Y-104400000D01*
X50207142Y-104114285D01*
X50264285Y-104000000D01*
X50321428Y-103942857D01*
X50435714Y-103885714D01*
X50550000Y-103885714D01*
X50664285Y-103942857D01*
X50721428Y-104000000D01*
X50778571Y-104114285D01*
X50835714Y-104342857D01*
X50892857Y-104457142D01*
X50950000Y-104514285D01*
X51064285Y-104571428D01*
X51178571Y-104571428D01*
X51292857Y-104514285D01*
X51350000Y-104457142D01*
X51407142Y-104342857D01*
X51407142Y-104057142D01*
X51350000Y-103885714D01*
X50264285Y-102914285D02*
X50207142Y-103028571D01*
X50207142Y-103257142D01*
X50264285Y-103371428D01*
X50378571Y-103428571D01*
X50835714Y-103428571D01*
X50950000Y-103371428D01*
X51007142Y-103257142D01*
X51007142Y-103028571D01*
X50950000Y-102914285D01*
X50835714Y-102857142D01*
X50721428Y-102857142D01*
X50607142Y-103428571D01*
X51007142Y-101828571D02*
X50035714Y-101828571D01*
X49921428Y-101885714D01*
X49864285Y-101942857D01*
X49807142Y-102057142D01*
X49807142Y-102228571D01*
X49864285Y-102342857D01*
X50264285Y-101828571D02*
X50207142Y-101942857D01*
X50207142Y-102171428D01*
X50264285Y-102285714D01*
X50321428Y-102342857D01*
X50435714Y-102400000D01*
X50778571Y-102400000D01*
X50892857Y-102342857D01*
X50950000Y-102285714D01*
X51007142Y-102171428D01*
X51007142Y-101942857D01*
X50950000Y-101828571D01*
X50207142Y-101257142D02*
X51007142Y-101257142D01*
X50892857Y-101257142D02*
X50950000Y-101200000D01*
X51007142Y-101085714D01*
X51007142Y-100914285D01*
X50950000Y-100800000D01*
X50835714Y-100742857D01*
X50207142Y-100742857D01*
X50835714Y-100742857D02*
X50950000Y-100685714D01*
X51007142Y-100571428D01*
X51007142Y-100400000D01*
X50950000Y-100285714D01*
X50835714Y-100228571D01*
X50207142Y-100228571D01*
X50264285Y-99200000D02*
X50207142Y-99314285D01*
X50207142Y-99542857D01*
X50264285Y-99657142D01*
X50378571Y-99714285D01*
X50835714Y-99714285D01*
X50950000Y-99657142D01*
X51007142Y-99542857D01*
X51007142Y-99314285D01*
X50950000Y-99200000D01*
X50835714Y-99142857D01*
X50721428Y-99142857D01*
X50607142Y-99714285D01*
X51007142Y-98628571D02*
X50207142Y-98628571D01*
X50892857Y-98628571D02*
X50950000Y-98571428D01*
X51007142Y-98457142D01*
X51007142Y-98285714D01*
X50950000Y-98171428D01*
X50835714Y-98114285D01*
X50207142Y-98114285D01*
X51007142Y-97714285D02*
X51007142Y-97257142D01*
X51407142Y-97542857D02*
X50378571Y-97542857D01*
X50264285Y-97485714D01*
X50207142Y-97371428D01*
X50207142Y-97257142D01*
X48321428Y-108400000D02*
X48264285Y-108457142D01*
X48207142Y-108628571D01*
X48207142Y-108742857D01*
X48264285Y-108914285D01*
X48378571Y-109028571D01*
X48492857Y-109085714D01*
X48721428Y-109142857D01*
X48892857Y-109142857D01*
X49121428Y-109085714D01*
X49235714Y-109028571D01*
X49350000Y-108914285D01*
X49407142Y-108742857D01*
X49407142Y-108628571D01*
X49350000Y-108457142D01*
X49292857Y-108400000D01*
X48207142Y-107714285D02*
X48264285Y-107828571D01*
X48378571Y-107885714D01*
X49407142Y-107885714D01*
X48207142Y-107085714D02*
X48264285Y-107200000D01*
X48321428Y-107257142D01*
X48435714Y-107314285D01*
X48778571Y-107314285D01*
X48892857Y-107257142D01*
X48950000Y-107200000D01*
X49007142Y-107085714D01*
X49007142Y-106914285D01*
X48950000Y-106800000D01*
X48892857Y-106742857D01*
X48778571Y-106685714D01*
X48435714Y-106685714D01*
X48321428Y-106742857D01*
X48264285Y-106800000D01*
X48207142Y-106914285D01*
X48207142Y-107085714D01*
X48264285Y-105657142D02*
X48207142Y-105771428D01*
X48207142Y-106000000D01*
X48264285Y-106114285D01*
X48321428Y-106171428D01*
X48435714Y-106228571D01*
X48778571Y-106228571D01*
X48892857Y-106171428D01*
X48950000Y-106114285D01*
X49007142Y-106000000D01*
X49007142Y-105771428D01*
X48950000Y-105657142D01*
X48207142Y-105142857D02*
X49407142Y-105142857D01*
X48664285Y-105028571D02*
X48207142Y-104685714D01*
X49007142Y-104685714D02*
X48550000Y-105142857D01*
X48321428Y-102571428D02*
X48264285Y-102628571D01*
X48207142Y-102800000D01*
X48207142Y-102914285D01*
X48264285Y-103085714D01*
X48378571Y-103200000D01*
X48492857Y-103257142D01*
X48721428Y-103314285D01*
X48892857Y-103314285D01*
X49121428Y-103257142D01*
X49235714Y-103200000D01*
X49350000Y-103085714D01*
X49407142Y-102914285D01*
X49407142Y-102800000D01*
X49350000Y-102628571D01*
X49292857Y-102571428D01*
X48207142Y-101885714D02*
X48264285Y-102000000D01*
X48321428Y-102057142D01*
X48435714Y-102114285D01*
X48778571Y-102114285D01*
X48892857Y-102057142D01*
X48950000Y-102000000D01*
X49007142Y-101885714D01*
X49007142Y-101714285D01*
X48950000Y-101600000D01*
X48892857Y-101542857D01*
X48778571Y-101485714D01*
X48435714Y-101485714D01*
X48321428Y-101542857D01*
X48264285Y-101600000D01*
X48207142Y-101714285D01*
X48207142Y-101885714D01*
X49007142Y-100971428D02*
X48207142Y-100971428D01*
X48892857Y-100971428D02*
X48950000Y-100914285D01*
X49007142Y-100800000D01*
X49007142Y-100628571D01*
X48950000Y-100514285D01*
X48835714Y-100457142D01*
X48207142Y-100457142D01*
X49007142Y-100057142D02*
X49007142Y-99600000D01*
X49407142Y-99885714D02*
X48378571Y-99885714D01*
X48264285Y-99828571D01*
X48207142Y-99714285D01*
X48207142Y-99600000D01*
X48207142Y-99200000D02*
X49007142Y-99200000D01*
X48778571Y-99200000D02*
X48892857Y-99142857D01*
X48950000Y-99085714D01*
X49007142Y-98971428D01*
X49007142Y-98857142D01*
X48207142Y-98285714D02*
X48264285Y-98400000D01*
X48321428Y-98457142D01*
X48435714Y-98514285D01*
X48778571Y-98514285D01*
X48892857Y-98457142D01*
X48950000Y-98400000D01*
X49007142Y-98285714D01*
X49007142Y-98114285D01*
X48950000Y-98000000D01*
X48892857Y-97942857D01*
X48778571Y-97885714D01*
X48435714Y-97885714D01*
X48321428Y-97942857D01*
X48264285Y-98000000D01*
X48207142Y-98114285D01*
X48207142Y-98285714D01*
X48207142Y-97200000D02*
X48264285Y-97314285D01*
X48378571Y-97371428D01*
X49407142Y-97371428D01*
X48207142Y-96571428D02*
X48264285Y-96685714D01*
X48378571Y-96742857D01*
X49407142Y-96742857D01*
X48264285Y-95657142D02*
X48207142Y-95771428D01*
X48207142Y-96000000D01*
X48264285Y-96114285D01*
X48378571Y-96171428D01*
X48835714Y-96171428D01*
X48950000Y-96114285D01*
X49007142Y-96000000D01*
X49007142Y-95771428D01*
X48950000Y-95657142D01*
X48835714Y-95600000D01*
X48721428Y-95600000D01*
X48607142Y-96171428D01*
X48207142Y-95085714D02*
X49007142Y-95085714D01*
X48778571Y-95085714D02*
X48892857Y-95028571D01*
X48950000Y-94971428D01*
X49007142Y-94857142D01*
X49007142Y-94742857D01*
D10*
X161500000Y-111800000D02*
X159912779Y-112740000D01*
X163000000Y-111800000D02*
X161500000Y-111800000D01*
D12*
X196761904Y-98750000D02*
X196857142Y-98702380D01*
X197000000Y-98702380D01*
X197142857Y-98750000D01*
X197238095Y-98845238D01*
X197285714Y-98940476D01*
X197333333Y-99130952D01*
X197333333Y-99273809D01*
X197285714Y-99464285D01*
X197238095Y-99559523D01*
X197142857Y-99654761D01*
X197000000Y-99702380D01*
X196904761Y-99702380D01*
X196761904Y-99654761D01*
X196714285Y-99607142D01*
X196714285Y-99273809D01*
X196904761Y-99273809D01*
X196285714Y-99702380D02*
X196285714Y-98702380D01*
X195714285Y-99702380D01*
X195714285Y-98702380D01*
X195238095Y-99702380D02*
X195238095Y-98702380D01*
X195000000Y-98702380D01*
X194857142Y-98750000D01*
X194761904Y-98845238D01*
X194714285Y-98940476D01*
X194666666Y-99130952D01*
X194666666Y-99273809D01*
X194714285Y-99464285D01*
X194761904Y-99559523D01*
X194857142Y-99654761D01*
X195000000Y-99702380D01*
X195238095Y-99702380D01*
X98000000Y-99752380D02*
X98476190Y-99752380D01*
X98476190Y-98752380D01*
X97714285Y-99466666D02*
X97238095Y-99466666D01*
X97809523Y-99752380D02*
X97476190Y-98752380D01*
X97142857Y-99752380D01*
X96952380Y-98752380D02*
X96380952Y-98752380D01*
X96666666Y-99752380D02*
X96666666Y-98752380D01*
X103585714Y-99228571D02*
X103442857Y-99276190D01*
X103395238Y-99323809D01*
X103347619Y-99419047D01*
X103347619Y-99561904D01*
X103395238Y-99657142D01*
X103442857Y-99704761D01*
X103538095Y-99752380D01*
X103919047Y-99752380D01*
X103919047Y-98752380D01*
X103585714Y-98752380D01*
X103490476Y-98800000D01*
X103442857Y-98847619D01*
X103395238Y-98942857D01*
X103395238Y-99038095D01*
X103442857Y-99133333D01*
X103490476Y-99180952D01*
X103585714Y-99228571D01*
X103919047Y-99228571D01*
X102442857Y-99752380D02*
X102919047Y-99752380D01*
X102919047Y-98752380D01*
X102157142Y-99466666D02*
X101680952Y-99466666D01*
X102252380Y-99752380D02*
X101919047Y-98752380D01*
X101585714Y-99752380D01*
X101252380Y-99752380D02*
X101252380Y-98752380D01*
X100680952Y-99752380D01*
X100680952Y-98752380D01*
X100204761Y-99752380D02*
X100204761Y-98752380D01*
X99633333Y-99752380D02*
X100061904Y-99180952D01*
X99633333Y-98752380D02*
X100204761Y-99323809D01*
X107214285Y-99704761D02*
X107071428Y-99752380D01*
X106833333Y-99752380D01*
X106738095Y-99704761D01*
X106690476Y-99657142D01*
X106642857Y-99561904D01*
X106642857Y-99466666D01*
X106690476Y-99371428D01*
X106738095Y-99323809D01*
X106833333Y-99276190D01*
X107023809Y-99228571D01*
X107119047Y-99180952D01*
X107166666Y-99133333D01*
X107214285Y-99038095D01*
X107214285Y-98942857D01*
X107166666Y-98847619D01*
X107119047Y-98800000D01*
X107023809Y-98752380D01*
X106785714Y-98752380D01*
X106642857Y-98800000D01*
X106214285Y-99752380D02*
X106214285Y-98752380D01*
X105976190Y-98752380D01*
X105833333Y-98800000D01*
X105738095Y-98895238D01*
X105690476Y-98990476D01*
X105642857Y-99180952D01*
X105642857Y-99323809D01*
X105690476Y-99514285D01*
X105738095Y-99609523D01*
X105833333Y-99704761D01*
X105976190Y-99752380D01*
X106214285Y-99752380D01*
X105261904Y-99466666D02*
X104785714Y-99466666D01*
X105357142Y-99752380D02*
X105023809Y-98752380D01*
X104690476Y-99752380D01*
X111440476Y-99704761D02*
X111297619Y-99752380D01*
X111059523Y-99752380D01*
X110964285Y-99704761D01*
X110916666Y-99657142D01*
X110869047Y-99561904D01*
X110869047Y-99466666D01*
X110916666Y-99371428D01*
X110964285Y-99323809D01*
X111059523Y-99276190D01*
X111250000Y-99228571D01*
X111345238Y-99180952D01*
X111392857Y-99133333D01*
X111440476Y-99038095D01*
X111440476Y-98942857D01*
X111392857Y-98847619D01*
X111345238Y-98800000D01*
X111250000Y-98752380D01*
X111011904Y-98752380D01*
X110869047Y-98800000D01*
X109869047Y-99657142D02*
X109916666Y-99704761D01*
X110059523Y-99752380D01*
X110154761Y-99752380D01*
X110297619Y-99704761D01*
X110392857Y-99609523D01*
X110440476Y-99514285D01*
X110488095Y-99323809D01*
X110488095Y-99180952D01*
X110440476Y-98990476D01*
X110392857Y-98895238D01*
X110297619Y-98800000D01*
X110154761Y-98752380D01*
X110059523Y-98752380D01*
X109916666Y-98800000D01*
X109869047Y-98847619D01*
X108964285Y-99752380D02*
X109440476Y-99752380D01*
X109440476Y-98752380D01*
X115690476Y-99702380D02*
X116261904Y-99702380D01*
X115976190Y-99702380D02*
X115976190Y-98702380D01*
X116071428Y-98845238D01*
X116166666Y-98940476D01*
X116261904Y-98988095D01*
X115261904Y-99702380D02*
X115261904Y-98702380D01*
X114880952Y-98702380D01*
X114785714Y-98750000D01*
X114738095Y-98797619D01*
X114690476Y-98892857D01*
X114690476Y-99035714D01*
X114738095Y-99130952D01*
X114785714Y-99178571D01*
X114880952Y-99226190D01*
X115261904Y-99226190D01*
X114261904Y-99702380D02*
X114261904Y-98702380D01*
X113880952Y-98702380D01*
X113785714Y-98750000D01*
X113738095Y-98797619D01*
X113690476Y-98892857D01*
X113690476Y-99035714D01*
X113738095Y-99130952D01*
X113785714Y-99178571D01*
X113880952Y-99226190D01*
X114261904Y-99226190D01*
X113309523Y-99654761D02*
X113166666Y-99702380D01*
X112928571Y-99702380D01*
X112833333Y-99654761D01*
X112785714Y-99607142D01*
X112738095Y-99511904D01*
X112738095Y-99416666D01*
X112785714Y-99321428D01*
X112833333Y-99273809D01*
X112928571Y-99226190D01*
X113119047Y-99178571D01*
X113214285Y-99130952D01*
X113261904Y-99083333D01*
X113309523Y-98988095D01*
X113309523Y-98892857D01*
X113261904Y-98797619D01*
X113214285Y-98750000D01*
X113119047Y-98702380D01*
X112880952Y-98702380D01*
X112738095Y-98750000D01*
X119809523Y-98702380D02*
X119190476Y-98702380D01*
X119523809Y-99083333D01*
X119380952Y-99083333D01*
X119285714Y-99130952D01*
X119238095Y-99178571D01*
X119190476Y-99273809D01*
X119190476Y-99511904D01*
X119238095Y-99607142D01*
X119285714Y-99654761D01*
X119380952Y-99702380D01*
X119666666Y-99702380D01*
X119761904Y-99654761D01*
X119809523Y-99607142D01*
X118809523Y-98797619D02*
X118761904Y-98750000D01*
X118666666Y-98702380D01*
X118428571Y-98702380D01*
X118333333Y-98750000D01*
X118285714Y-98797619D01*
X118238095Y-98892857D01*
X118238095Y-98988095D01*
X118285714Y-99130952D01*
X118857142Y-99702380D01*
X118238095Y-99702380D01*
X117809523Y-99702380D02*
X117809523Y-98702380D01*
X117238095Y-99702380D02*
X117666666Y-99130952D01*
X117238095Y-98702380D02*
X117809523Y-99273809D01*
X146892857Y-98702380D02*
X146559523Y-99702380D01*
X146226190Y-98702380D01*
X145559523Y-99178571D02*
X145416666Y-99226190D01*
X145369047Y-99273809D01*
X145321428Y-99369047D01*
X145321428Y-99511904D01*
X145369047Y-99607142D01*
X145416666Y-99654761D01*
X145511904Y-99702380D01*
X145892857Y-99702380D01*
X145892857Y-98702380D01*
X145559523Y-98702380D01*
X145464285Y-98750000D01*
X145416666Y-98797619D01*
X145369047Y-98892857D01*
X145369047Y-98988095D01*
X145416666Y-99083333D01*
X145464285Y-99130952D01*
X145559523Y-99178571D01*
X145892857Y-99178571D01*
X144940476Y-99416666D02*
X144464285Y-99416666D01*
X145035714Y-99702380D02*
X144702380Y-98702380D01*
X144369047Y-99702380D01*
X144178571Y-98702380D02*
X143607142Y-98702380D01*
X143892857Y-99702380D02*
X143892857Y-98702380D01*
D11*
X182371428Y-112514285D02*
X182371428Y-113276190D01*
X182752380Y-112895238D02*
X181990476Y-112895238D01*
X181752380Y-114228571D02*
X181752380Y-113752380D01*
X182228571Y-113704761D01*
X182180952Y-113752380D01*
X182133333Y-113847619D01*
X182133333Y-114085714D01*
X182180952Y-114180952D01*
X182228571Y-114228571D01*
X182323809Y-114276190D01*
X182561904Y-114276190D01*
X182657142Y-114228571D01*
X182704761Y-114180952D01*
X182752380Y-114085714D01*
X182752380Y-113847619D01*
X182704761Y-113752380D01*
X182657142Y-113704761D01*
X181752380Y-114561904D02*
X182752380Y-114895238D01*
X181752380Y-115228571D01*
X198371428Y-111661904D02*
X198371428Y-112423809D01*
X198752380Y-112042857D02*
X197990476Y-112042857D01*
X197752380Y-113376190D02*
X197752380Y-112900000D01*
X198228571Y-112852380D01*
X198180952Y-112900000D01*
X198133333Y-112995238D01*
X198133333Y-113233333D01*
X198180952Y-113328571D01*
X198228571Y-113376190D01*
X198323809Y-113423809D01*
X198561904Y-113423809D01*
X198657142Y-113376190D01*
X198704761Y-113328571D01*
X198752380Y-113233333D01*
X198752380Y-112995238D01*
X198704761Y-112900000D01*
X198657142Y-112852380D01*
X197752380Y-113709523D02*
X198752380Y-114042857D01*
X197752380Y-114376190D01*
X198752380Y-115138095D02*
X197752380Y-115138095D01*
X198704761Y-115138095D02*
X198752380Y-115042857D01*
X198752380Y-114852380D01*
X198704761Y-114757142D01*
X198657142Y-114709523D01*
X198561904Y-114661904D01*
X198276190Y-114661904D01*
X198180952Y-114709523D01*
X198133333Y-114757142D01*
X198085714Y-114852380D01*
X198085714Y-115042857D01*
X198133333Y-115138095D01*
X254428571Y-114761904D02*
X254428571Y-114000000D01*
X254047619Y-114380952D02*
X254809523Y-114380952D01*
X254047619Y-113000000D02*
X254047619Y-113571428D01*
X254047619Y-113285714D02*
X255047619Y-113285714D01*
X254904761Y-113380952D01*
X254809523Y-113476190D01*
X254761904Y-113571428D01*
X255047619Y-112095238D02*
X255047619Y-112571428D01*
X254571428Y-112619047D01*
X254619047Y-112571428D01*
X254666666Y-112476190D01*
X254666666Y-112238095D01*
X254619047Y-112142857D01*
X254571428Y-112095238D01*
X254476190Y-112047619D01*
X254238095Y-112047619D01*
X254142857Y-112095238D01*
X254095238Y-112142857D01*
X254047619Y-112238095D01*
X254047619Y-112476190D01*
X254095238Y-112571428D01*
X254142857Y-112619047D01*
X255047619Y-111761904D02*
X254047619Y-111428571D01*
X255047619Y-111095238D01*
D12*
X234761904Y-99321428D02*
X234000000Y-99321428D01*
X234380952Y-99702380D02*
X234380952Y-98940476D01*
X233000000Y-99702380D02*
X233571428Y-99702380D01*
X233285714Y-99702380D02*
X233285714Y-98702380D01*
X233380952Y-98845238D01*
X233476190Y-98940476D01*
X233571428Y-98988095D01*
X232095238Y-98702380D02*
X232571428Y-98702380D01*
X232619047Y-99178571D01*
X232571428Y-99130952D01*
X232476190Y-99083333D01*
X232238095Y-99083333D01*
X232142857Y-99130952D01*
X232095238Y-99178571D01*
X232047619Y-99273809D01*
X232047619Y-99511904D01*
X232095238Y-99607142D01*
X232142857Y-99654761D01*
X232238095Y-99702380D01*
X232476190Y-99702380D01*
X232571428Y-99654761D01*
X232619047Y-99607142D01*
X231761904Y-98702380D02*
X231428571Y-99702380D01*
X231095238Y-98702380D01*
X188583333Y-98452380D02*
X188250000Y-99452380D01*
X187916666Y-98452380D01*
X187250000Y-98928571D02*
X187107142Y-98976190D01*
X187059523Y-99023809D01*
X187011904Y-99119047D01*
X187011904Y-99261904D01*
X187059523Y-99357142D01*
X187107142Y-99404761D01*
X187202380Y-99452380D01*
X187583333Y-99452380D01*
X187583333Y-98452380D01*
X187250000Y-98452380D01*
X187154761Y-98500000D01*
X187107142Y-98547619D01*
X187059523Y-98642857D01*
X187059523Y-98738095D01*
X187107142Y-98833333D01*
X187154761Y-98880952D01*
X187250000Y-98928571D01*
X187583333Y-98928571D01*
X186583333Y-98452380D02*
X186583333Y-99261904D01*
X186535714Y-99357142D01*
X186488095Y-99404761D01*
X186392857Y-99452380D01*
X186202380Y-99452380D01*
X186107142Y-99404761D01*
X186059523Y-99357142D01*
X186011904Y-99261904D01*
X186011904Y-98452380D01*
X185583333Y-99404761D02*
X185440476Y-99452380D01*
X185202380Y-99452380D01*
X185107142Y-99404761D01*
X185059523Y-99357142D01*
X185011904Y-99261904D01*
X185011904Y-99166666D01*
X185059523Y-99071428D01*
X185107142Y-99023809D01*
X185202380Y-98976190D01*
X185392857Y-98928571D01*
X185488095Y-98880952D01*
X185535714Y-98833333D01*
X185583333Y-98738095D01*
X185583333Y-98642857D01*
X185535714Y-98547619D01*
X185488095Y-98500000D01*
X185392857Y-98452380D01*
X185154761Y-98452380D01*
X185011904Y-98500000D01*
D13*
X74492857Y-117042857D02*
X74892857Y-116471428D01*
X75178571Y-117042857D02*
X75178571Y-115842857D01*
X74721428Y-115842857D01*
X74607142Y-115900000D01*
X74550000Y-115957142D01*
X74492857Y-116071428D01*
X74492857Y-116242857D01*
X74550000Y-116357142D01*
X74607142Y-116414285D01*
X74721428Y-116471428D01*
X75178571Y-116471428D01*
X73978571Y-116414285D02*
X73578571Y-116414285D01*
X73407142Y-117042857D02*
X73978571Y-117042857D01*
X73978571Y-115842857D01*
X73407142Y-115842857D01*
X72950000Y-116985714D02*
X72778571Y-117042857D01*
X72492857Y-117042857D01*
X72378571Y-116985714D01*
X72321428Y-116928571D01*
X72264285Y-116814285D01*
X72264285Y-116700000D01*
X72321428Y-116585714D01*
X72378571Y-116528571D01*
X72492857Y-116471428D01*
X72721428Y-116414285D01*
X72835714Y-116357142D01*
X72892857Y-116300000D01*
X72950000Y-116185714D01*
X72950000Y-116071428D01*
X72892857Y-115957142D01*
X72835714Y-115900000D01*
X72721428Y-115842857D01*
X72435714Y-115842857D01*
X72264285Y-115900000D01*
X71750000Y-116414285D02*
X71350000Y-116414285D01*
X71178571Y-117042857D02*
X71750000Y-117042857D01*
X71750000Y-115842857D01*
X71178571Y-115842857D01*
X70835714Y-115842857D02*
X70150000Y-115842857D01*
X70492857Y-117042857D02*
X70492857Y-115842857D01*
X59671428Y-106542857D02*
X59671428Y-105342857D01*
X59157142Y-106485714D02*
X58985714Y-106542857D01*
X58700000Y-106542857D01*
X58585714Y-106485714D01*
X58528571Y-106428571D01*
X58471428Y-106314285D01*
X58471428Y-106200000D01*
X58528571Y-106085714D01*
X58585714Y-106028571D01*
X58700000Y-105971428D01*
X58928571Y-105914285D01*
X59042857Y-105857142D01*
X59100000Y-105800000D01*
X59157142Y-105685714D01*
X59157142Y-105571428D01*
X59100000Y-105457142D01*
X59042857Y-105400000D01*
X58928571Y-105342857D01*
X58642857Y-105342857D01*
X58471428Y-105400000D01*
X57957142Y-106542857D02*
X57957142Y-105342857D01*
X57500000Y-105342857D01*
X57385714Y-105400000D01*
X57328571Y-105457142D01*
X57271428Y-105571428D01*
X57271428Y-105742857D01*
X57328571Y-105857142D01*
X57385714Y-105914285D01*
X57500000Y-105971428D01*
X57957142Y-105971428D01*
D10*
X111650000Y-116000000D02*
X112050000Y-115600000D01*
X109650000Y-116000000D02*
X111650000Y-116000000D01*
X98300000Y-110400000D02*
X96300000Y-110400000D01*
X99100000Y-111400000D02*
X98300000Y-110400000D01*
X101300000Y-111400000D02*
X99100000Y-111400000D01*
X243150000Y-117250000D02*
X243150000Y-114750000D01*
X245650000Y-117250000D02*
X243150000Y-117250000D01*
X252800000Y-111750000D02*
X248500000Y-111750000D01*
X252800000Y-114700000D02*
X252800000Y-111750000D01*
X253550000Y-114700000D02*
X252800000Y-114700000D01*
X244200000Y-111750000D02*
X248500000Y-111750000D01*
X244200000Y-114700000D02*
X244200000Y-111750000D01*
X243450000Y-114700000D02*
X244200000Y-114700000D01*
X253550000Y-116950000D02*
X251750000Y-116950000D01*
X253550000Y-116200000D02*
X253550000Y-116950000D01*
X251750000Y-116200000D02*
X253550000Y-116200000D01*
X251750000Y-116950000D02*
X251750000Y-116200000D01*
X245250000Y-116950000D02*
X243450000Y-116950000D01*
X245250000Y-116200000D02*
X245250000Y-116950000D01*
X243450000Y-116200000D02*
X245250000Y-116200000D01*
X243450000Y-116950000D02*
X243450000Y-116200000D01*
X250250000Y-116950000D02*
X246750000Y-116950000D01*
X250250000Y-116200000D02*
X250250000Y-116950000D01*
X246750000Y-116200000D02*
X250250000Y-116200000D01*
X246750000Y-116950000D02*
X246750000Y-116200000D01*
X253550000Y-116950000D02*
X243450000Y-116950000D01*
X253550000Y-111000000D02*
X253550000Y-116950000D01*
X243450000Y-111000000D02*
X253550000Y-111000000D01*
X243450000Y-116950000D02*
X243450000Y-111000000D01*
X168490000Y-96662779D02*
X168490000Y-96337221D01*
X169510000Y-96662779D02*
X169510000Y-96337221D01*
X233950000Y-97000000D02*
G75*
G03X233950000Y-97000000I-1200000J0D01*
G01*
X189200000Y-96500000D02*
G75*
G03X189200000Y-96500000I-1200000J0D01*
G01*
X146200000Y-97000000D02*
G75*
G03X146200000Y-97000000I-1200000J0D01*
G01*
X102950000Y-97000000D02*
G75*
G03X102950000Y-97000000I-1200000J0D01*
G01*
X98700000Y-97000000D02*
G75*
G03X98700000Y-97000000I-1200000J0D01*
G01*
X111450000Y-97000000D02*
G75*
G03X111450000Y-97000000I-1200000J0D01*
G01*
X107200000Y-97000000D02*
G75*
G03X107200000Y-97000000I-1200000J0D01*
G01*
X152950000Y-97000000D02*
G75*
G03X152950000Y-97000000I-1200000J0D01*
G01*
X119950000Y-97000000D02*
G75*
G03X119950000Y-97000000I-1200000J0D01*
G01*
X115700000Y-97000000D02*
G75*
G03X115700000Y-97000000I-1200000J0D01*
G01*
X172500000Y-101180000D02*
X172000000Y-101680000D01*
X171500000Y-101180000D02*
X172500000Y-101180000D01*
X172000000Y-101680000D02*
X171500000Y-101180000D01*
X179410000Y-118620000D02*
X179410000Y-110260000D01*
X167090000Y-118620000D02*
X179410000Y-118620000D01*
X167090000Y-110260000D02*
X167090000Y-118620000D01*
X179410000Y-101900000D02*
X179410000Y-106160000D01*
X167090000Y-101900000D02*
X179410000Y-101900000D01*
X167090000Y-106160000D02*
X167090000Y-101900000D01*
X205830000Y-97000000D02*
X205830000Y-95670000D01*
X205830000Y-95670000D02*
X204500000Y-95670000D01*
X203230000Y-95670000D02*
X200630000Y-95670000D01*
X200630000Y-98330000D02*
X200630000Y-95670000D01*
X203230000Y-98330000D02*
X200630000Y-98330000D01*
X203230000Y-98330000D02*
X203230000Y-95670000D01*
X160340000Y-96950000D02*
X160340000Y-95550000D01*
X162660000Y-95550000D02*
X162660000Y-97450000D01*
X159990000Y-99912779D02*
X159990000Y-99587221D01*
X161010000Y-99912779D02*
X161010000Y-99587221D01*
X163010000Y-99587221D02*
X163010000Y-99912779D01*
X161990000Y-99587221D02*
X161990000Y-99912779D01*
D12*
X149625000Y-115750000D02*
X148025000Y-115750000D01*
X149625000Y-105675000D02*
X155375000Y-105675000D01*
X149625000Y-116325000D02*
X155375000Y-116325000D01*
X149625000Y-105675000D02*
X149625000Y-106325000D01*
X155375000Y-105675000D02*
X155375000Y-106325000D01*
X155375000Y-116325000D02*
X155375000Y-115675000D01*
X149625000Y-116325000D02*
X149625000Y-115750000D01*
X93375000Y-105350000D02*
X94800000Y-105350000D01*
X86125000Y-105125000D02*
X86450000Y-105125000D01*
X86125000Y-112375000D02*
X86450000Y-112375000D01*
X93375000Y-112375000D02*
X93050000Y-112375000D01*
X93375000Y-105125000D02*
X93050000Y-105125000D01*
X93375000Y-112375000D02*
X93375000Y-112050000D01*
X86125000Y-112375000D02*
X86125000Y-112050000D01*
X86125000Y-105125000D02*
X86125000Y-105450000D01*
X93375000Y-105125000D02*
X93375000Y-105350000D01*
D10*
X115240000Y-114162779D02*
X115240000Y-113837221D01*
X116260000Y-114162779D02*
X116260000Y-113837221D01*
X97412779Y-104010000D02*
X97087221Y-104010000D01*
X97412779Y-102990000D02*
X97087221Y-102990000D01*
X82337221Y-103490000D02*
X82662779Y-103490000D01*
X82337221Y-104510000D02*
X82662779Y-104510000D01*
D12*
X120000000Y-112000000D02*
X120000000Y-108000000D01*
X124500000Y-116500000D02*
X120000000Y-112000000D01*
X142000000Y-116500000D02*
X124500000Y-116500000D01*
X142000000Y-108000000D02*
X142000000Y-116500000D01*
X120000000Y-99000000D02*
X120000000Y-103000000D01*
X124500000Y-94500000D02*
X120000000Y-99000000D01*
X142000000Y-94500000D02*
X124500000Y-94500000D01*
X142000000Y-103000000D02*
X142000000Y-94500000D01*
D10*
X68587221Y-102490000D02*
X68912779Y-102490000D01*
X68587221Y-103510000D02*
X68912779Y-103510000D01*
X75587221Y-106490000D02*
X75912779Y-106490000D01*
X75587221Y-107510000D02*
X75912779Y-107510000D01*
X173960000Y-96613748D02*
X173960000Y-99386252D01*
X170540000Y-96613748D02*
X170540000Y-99386252D01*
X187460000Y-105363748D02*
X187460000Y-108136252D01*
X184040000Y-105363748D02*
X184040000Y-108136252D01*
X97412779Y-107010000D02*
X97087221Y-107010000D01*
X97412779Y-105990000D02*
X97087221Y-105990000D01*
X117000000Y-111500000D02*
X117000000Y-115400000D01*
X119000000Y-111500000D02*
X119000000Y-115400000D01*
X117000000Y-111500000D02*
X119000000Y-111500000D01*
X75912779Y-105510000D02*
X75587221Y-105510000D01*
X75912779Y-104490000D02*
X75587221Y-104490000D01*
X73860000Y-103100000D02*
X73860000Y-105550000D01*
X70640000Y-104900000D02*
X70640000Y-103100000D01*
X72412779Y-107510000D02*
X72087221Y-107510000D01*
X72412779Y-106490000D02*
X72087221Y-106490000D01*
X97490000Y-108912779D02*
X97490000Y-108587221D01*
X98510000Y-108912779D02*
X98510000Y-108587221D01*
X158740000Y-96412779D02*
X158740000Y-96087221D01*
X159760000Y-96412779D02*
X159760000Y-96087221D01*
X118510000Y-109587221D02*
X118510000Y-109912779D01*
X117490000Y-109587221D02*
X117490000Y-109912779D01*
X97412779Y-105510000D02*
X97087221Y-105510000D01*
X97412779Y-104490000D02*
X97087221Y-104490000D01*
X82337221Y-104990000D02*
X82662779Y-104990000D01*
X82337221Y-106010000D02*
X82662779Y-106010000D01*
X159912779Y-113760000D02*
X159587221Y-113760000D01*
X159912779Y-112740000D02*
X159587221Y-112740000D01*
X159912779Y-115260000D02*
X159587221Y-115260000D01*
X159912779Y-114240000D02*
X159587221Y-114240000D01*
X189587221Y-106490000D02*
X189912779Y-106490000D01*
X189587221Y-107510000D02*
X189912779Y-107510000D01*
X206087221Y-101490000D02*
X206412779Y-101490000D01*
X206087221Y-102510000D02*
X206412779Y-102510000D01*
X238412779Y-102760000D02*
X238087221Y-102760000D01*
X238412779Y-101740000D02*
X238087221Y-101740000D01*
X83985000Y-107735000D02*
X81700000Y-107735000D01*
X83985000Y-106265000D02*
X83985000Y-107735000D01*
X81700000Y-106265000D02*
X83985000Y-106265000D01*
X161265000Y-112515000D02*
X163550000Y-112515000D01*
X161265000Y-113985000D02*
X161265000Y-112515000D01*
X163550000Y-113985000D02*
X161265000Y-113985000D01*
X161265000Y-114015000D02*
X163550000Y-114015000D01*
X161265000Y-115485000D02*
X161265000Y-114015000D01*
X163550000Y-115485000D02*
X161265000Y-115485000D01*
X166515000Y-97985000D02*
X166515000Y-95700000D01*
X167985000Y-97985000D02*
X166515000Y-97985000D01*
X167985000Y-95700000D02*
X167985000Y-97985000D01*
X191235000Y-109735000D02*
X188950000Y-109735000D01*
X191235000Y-108265000D02*
X191235000Y-109735000D01*
X188950000Y-108265000D02*
X191235000Y-108265000D01*
X201515000Y-101265000D02*
X203800000Y-101265000D01*
X201515000Y-102735000D02*
X201515000Y-101265000D01*
X203800000Y-102735000D02*
X201515000Y-102735000D01*
X242985000Y-102985000D02*
X240700000Y-102985000D01*
X242985000Y-101515000D02*
X242985000Y-102985000D01*
X240700000Y-101515000D02*
X242985000Y-101515000D01*
X158260000Y-96087221D02*
X158260000Y-96412779D01*
X157240000Y-96087221D02*
X157240000Y-96412779D01*
X159510000Y-99587221D02*
X159510000Y-99912779D01*
X158490000Y-99587221D02*
X158490000Y-99912779D01*
X164260000Y-96087221D02*
X164260000Y-96412779D01*
X163240000Y-96087221D02*
X163240000Y-96412779D01*
X75587221Y-102490000D02*
X75912779Y-102490000D01*
X75587221Y-103510000D02*
X75912779Y-103510000D01*
X159912779Y-109010000D02*
X159587221Y-109010000D01*
X159912779Y-107990000D02*
X159587221Y-107990000D01*
X184510000Y-96337221D02*
X184510000Y-96662779D01*
X183490000Y-96337221D02*
X183490000Y-96662779D01*
X190240000Y-96162779D02*
X190240000Y-95837221D01*
X191260000Y-96162779D02*
X191260000Y-95837221D01*
X159510000Y-110587221D02*
X159510000Y-110912779D01*
X158490000Y-110587221D02*
X158490000Y-110912779D01*
X147110000Y-112337221D02*
X147110000Y-112662779D01*
X146090000Y-112337221D02*
X146090000Y-112662779D01*
X209010000Y-95837221D02*
X209010000Y-96162779D01*
X207990000Y-95837221D02*
X207990000Y-96162779D01*
X111440000Y-114162779D02*
X111440000Y-113837221D01*
X112460000Y-114162779D02*
X112460000Y-113837221D01*
X109940000Y-114162779D02*
X109940000Y-113837221D01*
X110960000Y-114162779D02*
X110960000Y-113837221D01*
X82337221Y-108490000D02*
X82662779Y-108490000D01*
X82337221Y-109510000D02*
X82662779Y-109510000D01*
X95990000Y-108912779D02*
X95990000Y-108587221D01*
X97010000Y-108912779D02*
X97010000Y-108587221D01*
X82337221Y-111490000D02*
X82662779Y-111490000D01*
X82337221Y-112510000D02*
X82662779Y-112510000D01*
X82337221Y-109990000D02*
X82662779Y-109990000D01*
X82337221Y-111010000D02*
X82662779Y-111010000D01*
D12*
X230270000Y-101290000D02*
X227730000Y-101290000D01*
X230270000Y-98750000D02*
X230270000Y-101290000D01*
D10*
X230330000Y-96675000D02*
X209950000Y-96675000D01*
X230330000Y-94015000D02*
X209950000Y-94015000D01*
X219220000Y-94015000D02*
X219220000Y-88015000D01*
X229380000Y-88015000D02*
X228620000Y-88015000D01*
X218460000Y-88015000D02*
X218460000Y-94015000D01*
X224300000Y-94015000D02*
X224300000Y-88015000D01*
X215030000Y-96675000D02*
X215030000Y-94015000D01*
X211600000Y-94015000D02*
X211600000Y-88015000D01*
X217570000Y-96675000D02*
X217570000Y-94015000D01*
X209950000Y-96675000D02*
X209950000Y-94015000D01*
X220110000Y-96675000D02*
X220110000Y-94015000D01*
X222650000Y-96675000D02*
X222650000Y-94015000D01*
X229380000Y-94015000D02*
X229380000Y-88015000D01*
X213380000Y-88015000D02*
X213380000Y-94015000D01*
X229200000Y-94015000D02*
X229200000Y-88015000D01*
X226840000Y-88015000D02*
X226080000Y-88015000D01*
X225190000Y-96675000D02*
X225190000Y-94015000D01*
X210840000Y-88015000D02*
X210840000Y-94015000D01*
X229080000Y-94015000D02*
X229080000Y-88015000D01*
X227730000Y-96675000D02*
X227730000Y-94015000D01*
X229320000Y-94015000D02*
X229320000Y-88015000D01*
X211600000Y-88015000D02*
X210840000Y-88015000D01*
X219220000Y-88015000D02*
X218460000Y-88015000D01*
X214140000Y-94015000D02*
X214140000Y-88015000D01*
X226840000Y-94015000D02*
X226840000Y-88015000D01*
X215920000Y-88015000D02*
X215920000Y-94015000D01*
X226080000Y-88015000D02*
X226080000Y-94015000D01*
X216680000Y-88015000D02*
X215920000Y-88015000D01*
X224300000Y-88015000D02*
X223540000Y-88015000D01*
X221760000Y-94015000D02*
X221760000Y-88015000D01*
X228960000Y-94015000D02*
X228960000Y-88015000D01*
X216680000Y-94015000D02*
X216680000Y-88015000D01*
X214140000Y-88015000D02*
X213380000Y-88015000D01*
X221760000Y-88015000D02*
X221000000Y-88015000D01*
X228720000Y-94015000D02*
X228720000Y-88015000D01*
X221000000Y-88015000D02*
X221000000Y-94015000D01*
X223540000Y-88015000D02*
X223540000Y-94015000D01*
X212490000Y-96675000D02*
X212490000Y-94015000D01*
X228620000Y-88015000D02*
X228620000Y-94015000D01*
X228840000Y-94015000D02*
X228840000Y-88015000D01*
X230330000Y-94015000D02*
X230330000Y-96675000D01*
D12*
X96300000Y-110650000D02*
X96300000Y-110750000D01*
X97700000Y-110650000D02*
X97700000Y-110750000D01*
X96300000Y-113850000D02*
X96300000Y-113750000D01*
X97700000Y-113850000D02*
X97700000Y-113750000D01*
X97700000Y-110650000D02*
X96300000Y-110650000D01*
X97700000Y-113850000D02*
X96300000Y-113850000D01*
D10*
X113755000Y-110110000D02*
X113755000Y-111925000D01*
X114010000Y-110110000D02*
X113755000Y-110110000D01*
X114010000Y-106250000D02*
X114010000Y-110110000D01*
X114010000Y-102390000D02*
X113755000Y-102390000D01*
X114010000Y-106250000D02*
X114010000Y-102390000D01*
X103490000Y-110110000D02*
X103745000Y-110110000D01*
X103490000Y-106250000D02*
X103490000Y-110110000D01*
X103490000Y-102390000D02*
X103745000Y-102390000D01*
X103490000Y-106250000D02*
X103490000Y-102390000D01*
X197700000Y-96500000D02*
G75*
G03X197700000Y-96500000I-1700000J0D01*
G01*
X70700000Y-97000000D02*
G75*
G03X70700000Y-97000000I-1700000J0D01*
G01*
X69000000Y-112500000D02*
X69000000Y-111000000D01*
X70250000Y-108500000D02*
X74750000Y-108500000D01*
X76000000Y-111000000D02*
X76000000Y-112500000D01*
X74750000Y-115000000D02*
X70250000Y-115000000D01*
X186510000Y-99670000D02*
X185050000Y-99670000D01*
X186510000Y-102830000D02*
X184350000Y-102830000D01*
X186510000Y-102830000D02*
X186510000Y-101900000D01*
X186510000Y-99670000D02*
X186510000Y-100600000D01*
D12*
X205750000Y-103950000D02*
X207500000Y-103950000D01*
X205750000Y-109705000D02*
X200250000Y-109705000D01*
X205750000Y-103295000D02*
X200250000Y-103295000D01*
X205750000Y-109705000D02*
X205750000Y-108955000D01*
X200250000Y-109705000D02*
X200250000Y-108955000D01*
X200250000Y-103295000D02*
X200250000Y-104045000D01*
X205750000Y-103295000D02*
X205750000Y-103950000D01*
X238000000Y-100550000D02*
X236250000Y-100550000D01*
X238000000Y-94795000D02*
X243500000Y-94795000D01*
X238000000Y-101205000D02*
X243500000Y-101205000D01*
X238000000Y-94795000D02*
X238000000Y-95545000D01*
X243500000Y-94795000D02*
X243500000Y-95545000D01*
X243500000Y-101205000D02*
X243500000Y-100455000D01*
X238000000Y-101205000D02*
X238000000Y-100550000D01*
D10*
X113040000Y-114508578D02*
X113040000Y-113991422D01*
X114460000Y-114508578D02*
X114460000Y-113991422D01*
X83960000Y-114241422D02*
X83960000Y-114758578D01*
X82540000Y-114241422D02*
X82540000Y-114758578D01*
X100960000Y-108741422D02*
X100960000Y-109258578D01*
X99540000Y-108741422D02*
X99540000Y-109258578D01*
X182900000Y-117500000D02*
X182900000Y-116250000D01*
X184150000Y-117500000D02*
X182900000Y-117500000D01*
X190050000Y-112000000D02*
X187000000Y-112000000D01*
X190050000Y-114950000D02*
X190050000Y-112000000D01*
X190800000Y-114950000D02*
X190050000Y-114950000D01*
X183950000Y-112000000D02*
X187000000Y-112000000D01*
X183950000Y-114950000D02*
X183950000Y-112000000D01*
X183200000Y-114950000D02*
X183950000Y-114950000D01*
X190800000Y-117200000D02*
X189000000Y-117200000D01*
X190800000Y-116450000D02*
X190800000Y-117200000D01*
X189000000Y-116450000D02*
X190800000Y-116450000D01*
X189000000Y-117200000D02*
X189000000Y-116450000D01*
X185000000Y-117200000D02*
X183200000Y-117200000D01*
X185000000Y-116450000D02*
X185000000Y-117200000D01*
X183200000Y-116450000D02*
X185000000Y-116450000D01*
X183200000Y-117200000D02*
X183200000Y-116450000D01*
X187500000Y-117200000D02*
X186500000Y-117200000D01*
X187500000Y-116450000D02*
X187500000Y-117200000D01*
X186500000Y-116450000D02*
X187500000Y-116450000D01*
X186500000Y-117200000D02*
X186500000Y-116450000D01*
X190810000Y-117210000D02*
X183190000Y-117210000D01*
X190810000Y-111240000D02*
X190810000Y-117210000D01*
X183190000Y-111240000D02*
X190810000Y-111240000D01*
X183190000Y-117210000D02*
X183190000Y-111240000D01*
X198900000Y-117500000D02*
X198900000Y-116250000D01*
X200150000Y-117500000D02*
X198900000Y-117500000D01*
X206050000Y-112000000D02*
X203000000Y-112000000D01*
X206050000Y-114950000D02*
X206050000Y-112000000D01*
X206800000Y-114950000D02*
X206050000Y-114950000D01*
X199950000Y-112000000D02*
X203000000Y-112000000D01*
X199950000Y-114950000D02*
X199950000Y-112000000D01*
X199200000Y-114950000D02*
X199950000Y-114950000D01*
X206800000Y-117200000D02*
X205000000Y-117200000D01*
X206800000Y-116450000D02*
X206800000Y-117200000D01*
X205000000Y-116450000D02*
X206800000Y-116450000D01*
X205000000Y-117200000D02*
X205000000Y-116450000D01*
X201000000Y-117200000D02*
X199200000Y-117200000D01*
X201000000Y-116450000D02*
X201000000Y-117200000D01*
X199200000Y-116450000D02*
X201000000Y-116450000D01*
X199200000Y-117200000D02*
X199200000Y-116450000D01*
X203500000Y-117200000D02*
X202500000Y-117200000D01*
X203500000Y-116450000D02*
X203500000Y-117200000D01*
X202500000Y-116450000D02*
X203500000Y-116450000D01*
X202500000Y-117200000D02*
X202500000Y-116450000D01*
X206810000Y-117210000D02*
X199190000Y-117210000D01*
X206810000Y-111240000D02*
X206810000Y-117210000D01*
X199190000Y-111240000D02*
X206810000Y-111240000D01*
X199190000Y-117210000D02*
X199190000Y-111240000D01*
X66600000Y-107055000D02*
X50820000Y-107055000D01*
X50820000Y-107055000D02*
X50820000Y-116405000D01*
X50820000Y-116405000D02*
X66600000Y-116405000D01*
X66600000Y-116405000D02*
X66600000Y-107055000D01*
X66850000Y-116655000D02*
X64310000Y-116655000D01*
X66850000Y-116655000D02*
X66850000Y-114115000D01*
X93330000Y-94015000D02*
X93330000Y-96675000D01*
X91840000Y-94015000D02*
X91840000Y-88015000D01*
X91620000Y-88015000D02*
X91620000Y-94015000D01*
X75490000Y-96675000D02*
X75490000Y-94015000D01*
X86540000Y-88015000D02*
X86540000Y-94015000D01*
X84000000Y-88015000D02*
X84000000Y-94015000D01*
X91720000Y-94015000D02*
X91720000Y-88015000D01*
X84760000Y-88015000D02*
X84000000Y-88015000D01*
X77140000Y-88015000D02*
X76380000Y-88015000D01*
X79680000Y-94015000D02*
X79680000Y-88015000D01*
X91960000Y-94015000D02*
X91960000Y-88015000D01*
X84760000Y-94015000D02*
X84760000Y-88015000D01*
X87300000Y-88015000D02*
X86540000Y-88015000D01*
X79680000Y-88015000D02*
X78920000Y-88015000D01*
X89080000Y-88015000D02*
X89080000Y-94015000D01*
X78920000Y-88015000D02*
X78920000Y-94015000D01*
X89840000Y-94015000D02*
X89840000Y-88015000D01*
X77140000Y-94015000D02*
X77140000Y-88015000D01*
X82220000Y-88015000D02*
X81460000Y-88015000D01*
X74600000Y-88015000D02*
X73840000Y-88015000D01*
X92320000Y-94015000D02*
X92320000Y-88015000D01*
X90730000Y-96675000D02*
X90730000Y-94015000D01*
X92080000Y-94015000D02*
X92080000Y-88015000D01*
X73840000Y-88015000D02*
X73840000Y-94015000D01*
X88190000Y-96675000D02*
X88190000Y-94015000D01*
X89840000Y-88015000D02*
X89080000Y-88015000D01*
X92200000Y-94015000D02*
X92200000Y-88015000D01*
X76380000Y-88015000D02*
X76380000Y-94015000D01*
X92380000Y-94015000D02*
X92380000Y-88015000D01*
X85650000Y-96675000D02*
X85650000Y-94015000D01*
X83110000Y-96675000D02*
X83110000Y-94015000D01*
X72950000Y-96675000D02*
X72950000Y-94015000D01*
X80570000Y-96675000D02*
X80570000Y-94015000D01*
X74600000Y-94015000D02*
X74600000Y-88015000D01*
X78030000Y-96675000D02*
X78030000Y-94015000D01*
X87300000Y-94015000D02*
X87300000Y-88015000D01*
X81460000Y-88015000D02*
X81460000Y-94015000D01*
X92380000Y-88015000D02*
X91620000Y-88015000D01*
X82220000Y-94015000D02*
X82220000Y-88015000D01*
X93330000Y-94015000D02*
X72950000Y-94015000D01*
X93330000Y-96675000D02*
X72950000Y-96675000D01*
D12*
X93270000Y-98750000D02*
X93270000Y-101290000D01*
X93270000Y-101290000D02*
X90730000Y-101290000D01*
X197000000Y-116250000D02*
X196750000Y-116250000D01*
X192000000Y-116250000D02*
X192250000Y-116250000D01*
X197000000Y-107250000D02*
X196750000Y-107250000D01*
X192000000Y-107250000D02*
X192250000Y-107250000D01*
X197000000Y-107250000D02*
X197000000Y-116250000D01*
X192000000Y-107250000D02*
X192000000Y-116250000D01*
X252750000Y-104750000D02*
X252750000Y-105000000D01*
X252750000Y-109750000D02*
X252750000Y-109500000D01*
X243750000Y-104750000D02*
X243750000Y-105000000D01*
X243750000Y-109750000D02*
X243750000Y-109500000D01*
X243750000Y-104750000D02*
X252750000Y-104750000D01*
X243750000Y-109750000D02*
X252750000Y-109750000D01*
D10*
X182500000Y-99750000D02*
X182500000Y-95850000D01*
X180500000Y-99750000D02*
X180500000Y-95850000D01*
X182500000Y-99750000D02*
X180500000Y-99750000D01*
X178695563Y-95740000D02*
X179760000Y-96804437D01*
X176304437Y-95740000D02*
X175240000Y-96804437D01*
X176304437Y-95740000D02*
X176440000Y-95740000D01*
X178695563Y-95740000D02*
X178560000Y-95740000D01*
X179760000Y-96804437D02*
X179760000Y-100260000D01*
X175240000Y-96804437D02*
X175240000Y-100260000D01*
X175240000Y-100260000D02*
X176440000Y-100260000D01*
X179760000Y-100260000D02*
X178560000Y-100260000D01*
X191945563Y-98740000D02*
X193010000Y-99804437D01*
X189554437Y-98740000D02*
X188490000Y-99804437D01*
X189554437Y-98740000D02*
X189690000Y-98740000D01*
X191945563Y-98740000D02*
X191810000Y-98740000D01*
X193010000Y-99804437D02*
X193010000Y-103260000D01*
X188490000Y-99804437D02*
X188490000Y-103260000D01*
X188490000Y-103260000D02*
X189690000Y-103260000D01*
X193010000Y-103260000D02*
X191810000Y-103260000D01*
X210340000Y-102654437D02*
X211404437Y-101590000D01*
X210340000Y-107345563D02*
X211404437Y-108410000D01*
X210340000Y-107345563D02*
X210340000Y-106060000D01*
X210340000Y-102654437D02*
X210340000Y-103940000D01*
X211404437Y-101590000D02*
X217160000Y-101590000D01*
X211404437Y-108410000D02*
X217160000Y-108410000D01*
X217160000Y-108410000D02*
X217160000Y-106060000D01*
X217160000Y-101590000D02*
X217160000Y-103940000D01*
X210340000Y-110654437D02*
X211404437Y-109590000D01*
X210340000Y-115345563D02*
X211404437Y-116410000D01*
X210340000Y-115345563D02*
X210340000Y-114060000D01*
X210340000Y-110654437D02*
X210340000Y-111940000D01*
X211404437Y-109590000D02*
X217160000Y-109590000D01*
X211404437Y-116410000D02*
X217160000Y-116410000D01*
X217160000Y-116410000D02*
X217160000Y-114060000D01*
X217160000Y-109590000D02*
X217160000Y-111940000D01*
X225491422Y-102040000D02*
X226008578Y-102040000D01*
X225491422Y-103460000D02*
X226008578Y-103460000D01*
X233365000Y-105125000D02*
X234615000Y-105125000D01*
X233990000Y-104500000D02*
X233990000Y-105750000D01*
X240945563Y-105990000D02*
X242010000Y-107054437D01*
X232554437Y-105990000D02*
X231490000Y-107054437D01*
X232554437Y-105990000D02*
X235240000Y-105990000D01*
X240945563Y-105990000D02*
X238260000Y-105990000D01*
X242010000Y-107054437D02*
X242010000Y-116510000D01*
X231490000Y-107054437D02*
X231490000Y-116510000D01*
X231490000Y-116510000D02*
X235240000Y-116510000D01*
X242010000Y-116510000D02*
X238260000Y-116510000D01*
X222115000Y-105125000D02*
X223365000Y-105125000D01*
X222740000Y-104500000D02*
X222740000Y-105750000D01*
X229695563Y-105990000D02*
X230760000Y-107054437D01*
X221304437Y-105990000D02*
X220240000Y-107054437D01*
X221304437Y-105990000D02*
X223990000Y-105990000D01*
X229695563Y-105990000D02*
X227010000Y-105990000D01*
X230760000Y-107054437D02*
X230760000Y-116510000D01*
X220240000Y-107054437D02*
X220240000Y-116510000D01*
X220240000Y-116510000D02*
X223990000Y-116510000D01*
X230760000Y-116510000D02*
X227010000Y-116510000D01*
D12*
X255083333Y-115952380D02*
X255083333Y-116666666D01*
X255130952Y-116809523D01*
X255226190Y-116904761D01*
X255369047Y-116952380D01*
X255464285Y-116952380D01*
X254654761Y-116047619D02*
X254607142Y-116000000D01*
X254511904Y-115952380D01*
X254273809Y-115952380D01*
X254178571Y-116000000D01*
X254130952Y-116047619D01*
X254083333Y-116142857D01*
X254083333Y-116238095D01*
X254130952Y-116380952D01*
X254702380Y-116952380D01*
X254083333Y-116952380D01*
X169452380Y-99333333D02*
X168976190Y-99000000D01*
X169452380Y-98761904D02*
X168452380Y-98761904D01*
X168452380Y-99142857D01*
X168500000Y-99238095D01*
X168547619Y-99285714D01*
X168642857Y-99333333D01*
X168785714Y-99333333D01*
X168880952Y-99285714D01*
X168928571Y-99238095D01*
X168976190Y-99142857D01*
X168976190Y-98761904D01*
X168785714Y-100190476D02*
X169452380Y-100190476D01*
X168404761Y-99952380D02*
X169119047Y-99714285D01*
X169119047Y-100333333D01*
X166333333Y-102202380D02*
X166333333Y-102916666D01*
X166380952Y-103059523D01*
X166476190Y-103154761D01*
X166619047Y-103202380D01*
X166714285Y-103202380D01*
X165952380Y-102202380D02*
X165285714Y-102202380D01*
X165714285Y-103202380D01*
X198952380Y-96166666D02*
X199666666Y-96166666D01*
X199809523Y-96119047D01*
X199904761Y-96023809D01*
X199952380Y-95880952D01*
X199952380Y-95785714D01*
X199952380Y-96642857D02*
X198952380Y-96642857D01*
X198952380Y-97023809D01*
X199000000Y-97119047D01*
X199047619Y-97166666D01*
X199142857Y-97214285D01*
X199285714Y-97214285D01*
X199380952Y-97166666D01*
X199428571Y-97119047D01*
X199476190Y-97023809D01*
X199476190Y-96642857D01*
X199952380Y-98166666D02*
X199952380Y-97595238D01*
X199952380Y-97880952D02*
X198952380Y-97880952D01*
X199095238Y-97785714D01*
X199190476Y-97690476D01*
X199238095Y-97595238D01*
X155511904Y-94952380D02*
X155511904Y-95761904D01*
X155464285Y-95857142D01*
X155416666Y-95904761D01*
X155321428Y-95952380D01*
X155130952Y-95952380D01*
X155035714Y-95904761D01*
X154988095Y-95857142D01*
X154940476Y-95761904D01*
X154940476Y-94952380D01*
X153988095Y-94952380D02*
X154464285Y-94952380D01*
X154511904Y-95428571D01*
X154464285Y-95380952D01*
X154369047Y-95333333D01*
X154130952Y-95333333D01*
X154035714Y-95380952D01*
X153988095Y-95428571D01*
X153940476Y-95523809D01*
X153940476Y-95761904D01*
X153988095Y-95857142D01*
X154035714Y-95904761D01*
X154130952Y-95952380D01*
X154369047Y-95952380D01*
X154464285Y-95904761D01*
X154511904Y-95857142D01*
X160952380Y-102107142D02*
X160476190Y-101773809D01*
X160952380Y-101535714D02*
X159952380Y-101535714D01*
X159952380Y-101916666D01*
X160000000Y-102011904D01*
X160047619Y-102059523D01*
X160142857Y-102107142D01*
X160285714Y-102107142D01*
X160380952Y-102059523D01*
X160428571Y-102011904D01*
X160476190Y-101916666D01*
X160476190Y-101535714D01*
X160952380Y-103059523D02*
X160952380Y-102488095D01*
X160952380Y-102773809D02*
X159952380Y-102773809D01*
X160095238Y-102678571D01*
X160190476Y-102583333D01*
X160238095Y-102488095D01*
X160380952Y-103630952D02*
X160333333Y-103535714D01*
X160285714Y-103488095D01*
X160190476Y-103440476D01*
X160142857Y-103440476D01*
X160047619Y-103488095D01*
X160000000Y-103535714D01*
X159952380Y-103630952D01*
X159952380Y-103821428D01*
X160000000Y-103916666D01*
X160047619Y-103964285D01*
X160142857Y-104011904D01*
X160190476Y-104011904D01*
X160285714Y-103964285D01*
X160333333Y-103916666D01*
X160380952Y-103821428D01*
X160380952Y-103630952D01*
X160428571Y-103535714D01*
X160476190Y-103488095D01*
X160571428Y-103440476D01*
X160761904Y-103440476D01*
X160857142Y-103488095D01*
X160904761Y-103535714D01*
X160952380Y-103630952D01*
X160952380Y-103821428D01*
X160904761Y-103916666D01*
X160857142Y-103964285D01*
X160761904Y-104011904D01*
X160571428Y-104011904D01*
X160476190Y-103964285D01*
X160428571Y-103916666D01*
X160380952Y-103821428D01*
X162952380Y-102107142D02*
X162476190Y-101773809D01*
X162952380Y-101535714D02*
X161952380Y-101535714D01*
X161952380Y-101916666D01*
X162000000Y-102011904D01*
X162047619Y-102059523D01*
X162142857Y-102107142D01*
X162285714Y-102107142D01*
X162380952Y-102059523D01*
X162428571Y-102011904D01*
X162476190Y-101916666D01*
X162476190Y-101535714D01*
X162952380Y-103059523D02*
X162952380Y-102488095D01*
X162952380Y-102773809D02*
X161952380Y-102773809D01*
X162095238Y-102678571D01*
X162190476Y-102583333D01*
X162238095Y-102488095D01*
X161952380Y-103678571D02*
X161952380Y-103773809D01*
X162000000Y-103869047D01*
X162047619Y-103916666D01*
X162142857Y-103964285D01*
X162333333Y-104011904D01*
X162571428Y-104011904D01*
X162761904Y-103964285D01*
X162857142Y-103916666D01*
X162904761Y-103869047D01*
X162952380Y-103773809D01*
X162952380Y-103678571D01*
X162904761Y-103583333D01*
X162857142Y-103535714D01*
X162761904Y-103488095D01*
X162571428Y-103440476D01*
X162333333Y-103440476D01*
X162142857Y-103488095D01*
X162047619Y-103535714D01*
X162000000Y-103583333D01*
X161952380Y-103678571D01*
X149361904Y-116252380D02*
X149361904Y-117061904D01*
X149314285Y-117157142D01*
X149266666Y-117204761D01*
X149171428Y-117252380D01*
X148980952Y-117252380D01*
X148885714Y-117204761D01*
X148838095Y-117157142D01*
X148790476Y-117061904D01*
X148790476Y-116252380D01*
X147790476Y-117252380D02*
X148361904Y-117252380D01*
X148076190Y-117252380D02*
X148076190Y-116252380D01*
X148171428Y-116395238D01*
X148266666Y-116490476D01*
X148361904Y-116538095D01*
X93061904Y-102152380D02*
X93061904Y-102961904D01*
X93014285Y-103057142D01*
X92966666Y-103104761D01*
X92871428Y-103152380D01*
X92680952Y-103152380D01*
X92585714Y-103104761D01*
X92538095Y-103057142D01*
X92490476Y-102961904D01*
X92490476Y-102152380D01*
X92061904Y-102247619D02*
X92014285Y-102200000D01*
X91919047Y-102152380D01*
X91680952Y-102152380D01*
X91585714Y-102200000D01*
X91538095Y-102247619D01*
X91490476Y-102342857D01*
X91490476Y-102438095D01*
X91538095Y-102580952D01*
X92109523Y-103152380D01*
X91490476Y-103152380D01*
X116892857Y-117252380D02*
X117226190Y-116776190D01*
X117464285Y-117252380D02*
X117464285Y-116252380D01*
X117083333Y-116252380D01*
X116988095Y-116300000D01*
X116940476Y-116347619D01*
X116892857Y-116442857D01*
X116892857Y-116585714D01*
X116940476Y-116680952D01*
X116988095Y-116728571D01*
X117083333Y-116776190D01*
X117464285Y-116776190D01*
X115940476Y-117252380D02*
X116511904Y-117252380D01*
X116226190Y-117252380D02*
X116226190Y-116252380D01*
X116321428Y-116395238D01*
X116416666Y-116490476D01*
X116511904Y-116538095D01*
X115607142Y-116252380D02*
X114940476Y-116252380D01*
X115369047Y-117252380D01*
X100892857Y-103952380D02*
X101226190Y-103476190D01*
X101464285Y-103952380D02*
X101464285Y-102952380D01*
X101083333Y-102952380D01*
X100988095Y-103000000D01*
X100940476Y-103047619D01*
X100892857Y-103142857D01*
X100892857Y-103285714D01*
X100940476Y-103380952D01*
X100988095Y-103428571D01*
X101083333Y-103476190D01*
X101464285Y-103476190D01*
X99940476Y-103952380D02*
X100511904Y-103952380D01*
X100226190Y-103952380D02*
X100226190Y-102952380D01*
X100321428Y-103095238D01*
X100416666Y-103190476D01*
X100511904Y-103238095D01*
X99083333Y-102952380D02*
X99273809Y-102952380D01*
X99369047Y-103000000D01*
X99416666Y-103047619D01*
X99511904Y-103190476D01*
X99559523Y-103380952D01*
X99559523Y-103761904D01*
X99511904Y-103857142D01*
X99464285Y-103904761D01*
X99369047Y-103952380D01*
X99178571Y-103952380D01*
X99083333Y-103904761D01*
X99035714Y-103857142D01*
X98988095Y-103761904D01*
X98988095Y-103523809D01*
X99035714Y-103428571D01*
X99083333Y-103380952D01*
X99178571Y-103333333D01*
X99369047Y-103333333D01*
X99464285Y-103380952D01*
X99511904Y-103428571D01*
X99559523Y-103523809D01*
X83142857Y-102857142D02*
X83190476Y-102904761D01*
X83333333Y-102952380D01*
X83428571Y-102952380D01*
X83571428Y-102904761D01*
X83666666Y-102809523D01*
X83714285Y-102714285D01*
X83761904Y-102523809D01*
X83761904Y-102380952D01*
X83714285Y-102190476D01*
X83666666Y-102095238D01*
X83571428Y-102000000D01*
X83428571Y-101952380D01*
X83333333Y-101952380D01*
X83190476Y-102000000D01*
X83142857Y-102047619D01*
X82761904Y-102047619D02*
X82714285Y-102000000D01*
X82619047Y-101952380D01*
X82380952Y-101952380D01*
X82285714Y-102000000D01*
X82238095Y-102047619D01*
X82190476Y-102142857D01*
X82190476Y-102238095D01*
X82238095Y-102380952D01*
X82809523Y-102952380D01*
X82190476Y-102952380D01*
X81857142Y-101952380D02*
X81190476Y-101952380D01*
X81619047Y-102952380D01*
X144642857Y-109107142D02*
X144690476Y-109154761D01*
X144833333Y-109202380D01*
X144928571Y-109202380D01*
X145071428Y-109154761D01*
X145166666Y-109059523D01*
X145214285Y-108964285D01*
X145261904Y-108773809D01*
X145261904Y-108630952D01*
X145214285Y-108440476D01*
X145166666Y-108345238D01*
X145071428Y-108250000D01*
X144928571Y-108202380D01*
X144833333Y-108202380D01*
X144690476Y-108250000D01*
X144642857Y-108297619D01*
X144261904Y-108297619D02*
X144214285Y-108250000D01*
X144119047Y-108202380D01*
X143880952Y-108202380D01*
X143785714Y-108250000D01*
X143738095Y-108297619D01*
X143690476Y-108392857D01*
X143690476Y-108488095D01*
X143738095Y-108630952D01*
X144309523Y-109202380D01*
X143690476Y-109202380D01*
X142833333Y-108202380D02*
X143023809Y-108202380D01*
X143119047Y-108250000D01*
X143166666Y-108297619D01*
X143261904Y-108440476D01*
X143309523Y-108630952D01*
X143309523Y-109011904D01*
X143261904Y-109107142D01*
X143214285Y-109154761D01*
X143119047Y-109202380D01*
X142928571Y-109202380D01*
X142833333Y-109154761D01*
X142785714Y-109107142D01*
X142738095Y-109011904D01*
X142738095Y-108773809D01*
X142785714Y-108678571D01*
X142833333Y-108630952D01*
X142928571Y-108583333D01*
X143119047Y-108583333D01*
X143214285Y-108630952D01*
X143261904Y-108678571D01*
X143309523Y-108773809D01*
X69392857Y-101952380D02*
X69726190Y-101476190D01*
X69964285Y-101952380D02*
X69964285Y-100952380D01*
X69583333Y-100952380D01*
X69488095Y-101000000D01*
X69440476Y-101047619D01*
X69392857Y-101142857D01*
X69392857Y-101285714D01*
X69440476Y-101380952D01*
X69488095Y-101428571D01*
X69583333Y-101476190D01*
X69964285Y-101476190D01*
X68440476Y-101952380D02*
X69011904Y-101952380D01*
X68726190Y-101952380D02*
X68726190Y-100952380D01*
X68821428Y-101095238D01*
X68916666Y-101190476D01*
X69011904Y-101238095D01*
X68107142Y-100952380D02*
X67488095Y-100952380D01*
X67821428Y-101333333D01*
X67678571Y-101333333D01*
X67583333Y-101380952D01*
X67535714Y-101428571D01*
X67488095Y-101523809D01*
X67488095Y-101761904D01*
X67535714Y-101857142D01*
X67583333Y-101904761D01*
X67678571Y-101952380D01*
X67964285Y-101952380D01*
X68059523Y-101904761D01*
X68107142Y-101857142D01*
X79392857Y-107452380D02*
X79726190Y-106976190D01*
X79964285Y-107452380D02*
X79964285Y-106452380D01*
X79583333Y-106452380D01*
X79488095Y-106500000D01*
X79440476Y-106547619D01*
X79392857Y-106642857D01*
X79392857Y-106785714D01*
X79440476Y-106880952D01*
X79488095Y-106928571D01*
X79583333Y-106976190D01*
X79964285Y-106976190D01*
X78440476Y-107452380D02*
X79011904Y-107452380D01*
X78726190Y-107452380D02*
X78726190Y-106452380D01*
X78821428Y-106595238D01*
X78916666Y-106690476D01*
X79011904Y-106738095D01*
X78059523Y-106547619D02*
X78011904Y-106500000D01*
X77916666Y-106452380D01*
X77678571Y-106452380D01*
X77583333Y-106500000D01*
X77535714Y-106547619D01*
X77488095Y-106642857D01*
X77488095Y-106738095D01*
X77535714Y-106880952D01*
X78107142Y-107452380D01*
X77488095Y-107452380D01*
X169833333Y-101178571D02*
X170166666Y-101178571D01*
X170166666Y-101702380D02*
X170166666Y-100702380D01*
X169690476Y-100702380D01*
X168880952Y-101035714D02*
X168880952Y-101702380D01*
X169119047Y-100654761D02*
X169357142Y-101369047D01*
X168738095Y-101369047D01*
X183028571Y-106416666D02*
X183028571Y-106083333D01*
X183552380Y-106083333D02*
X182552380Y-106083333D01*
X182552380Y-106559523D01*
X182552380Y-106845238D02*
X182552380Y-107464285D01*
X182933333Y-107130952D01*
X182933333Y-107273809D01*
X182980952Y-107369047D01*
X183028571Y-107416666D01*
X183123809Y-107464285D01*
X183361904Y-107464285D01*
X183457142Y-107416666D01*
X183504761Y-107369047D01*
X183552380Y-107273809D01*
X183552380Y-106988095D01*
X183504761Y-106892857D01*
X183457142Y-106845238D01*
X99866666Y-107052380D02*
X100200000Y-106576190D01*
X100438095Y-107052380D02*
X100438095Y-106052380D01*
X100057142Y-106052380D01*
X99961904Y-106100000D01*
X99914285Y-106147619D01*
X99866666Y-106242857D01*
X99866666Y-106385714D01*
X99914285Y-106480952D01*
X99961904Y-106528571D01*
X100057142Y-106576190D01*
X100438095Y-106576190D01*
X99295238Y-106480952D02*
X99390476Y-106433333D01*
X99438095Y-106385714D01*
X99485714Y-106290476D01*
X99485714Y-106242857D01*
X99438095Y-106147619D01*
X99390476Y-106100000D01*
X99295238Y-106052380D01*
X99104761Y-106052380D01*
X99009523Y-106100000D01*
X98961904Y-106147619D01*
X98914285Y-106242857D01*
X98914285Y-106290476D01*
X98961904Y-106385714D01*
X99009523Y-106433333D01*
X99104761Y-106480952D01*
X99295238Y-106480952D01*
X99390476Y-106528571D01*
X99438095Y-106576190D01*
X99485714Y-106671428D01*
X99485714Y-106861904D01*
X99438095Y-106957142D01*
X99390476Y-107004761D01*
X99295238Y-107052380D01*
X99104761Y-107052380D01*
X99009523Y-107004761D01*
X98961904Y-106957142D01*
X98914285Y-106861904D01*
X98914285Y-106671428D01*
X98961904Y-106576190D01*
X99009523Y-106528571D01*
X99104761Y-106480952D01*
X120352380Y-113861904D02*
X119352380Y-113861904D01*
X119352380Y-114100000D01*
X119400000Y-114242857D01*
X119495238Y-114338095D01*
X119590476Y-114385714D01*
X119780952Y-114433333D01*
X119923809Y-114433333D01*
X120114285Y-114385714D01*
X120209523Y-114338095D01*
X120304761Y-114242857D01*
X120352380Y-114100000D01*
X120352380Y-113861904D01*
X120352380Y-115385714D02*
X120352380Y-114814285D01*
X120352380Y-115100000D02*
X119352380Y-115100000D01*
X119495238Y-115004761D01*
X119590476Y-114909523D01*
X119638095Y-114814285D01*
X79392857Y-105452380D02*
X79726190Y-104976190D01*
X79964285Y-105452380D02*
X79964285Y-104452380D01*
X79583333Y-104452380D01*
X79488095Y-104500000D01*
X79440476Y-104547619D01*
X79392857Y-104642857D01*
X79392857Y-104785714D01*
X79440476Y-104880952D01*
X79488095Y-104928571D01*
X79583333Y-104976190D01*
X79964285Y-104976190D01*
X78440476Y-105452380D02*
X79011904Y-105452380D01*
X78726190Y-105452380D02*
X78726190Y-104452380D01*
X78821428Y-104595238D01*
X78916666Y-104690476D01*
X79011904Y-104738095D01*
X77488095Y-105452380D02*
X78059523Y-105452380D01*
X77773809Y-105452380D02*
X77773809Y-104452380D01*
X77869047Y-104595238D01*
X77964285Y-104690476D01*
X78059523Y-104738095D01*
X73261904Y-100952380D02*
X73261904Y-101761904D01*
X73214285Y-101857142D01*
X73166666Y-101904761D01*
X73071428Y-101952380D01*
X72880952Y-101952380D01*
X72785714Y-101904761D01*
X72738095Y-101857142D01*
X72690476Y-101761904D01*
X72690476Y-100952380D01*
X71785714Y-101285714D02*
X71785714Y-101952380D01*
X72023809Y-100904761D02*
X72261904Y-101619047D01*
X71642857Y-101619047D01*
X69942857Y-107357142D02*
X69990476Y-107404761D01*
X70133333Y-107452380D01*
X70228571Y-107452380D01*
X70371428Y-107404761D01*
X70466666Y-107309523D01*
X70514285Y-107214285D01*
X70561904Y-107023809D01*
X70561904Y-106880952D01*
X70514285Y-106690476D01*
X70466666Y-106595238D01*
X70371428Y-106500000D01*
X70228571Y-106452380D01*
X70133333Y-106452380D01*
X69990476Y-106500000D01*
X69942857Y-106547619D01*
X69561904Y-106547619D02*
X69514285Y-106500000D01*
X69419047Y-106452380D01*
X69180952Y-106452380D01*
X69085714Y-106500000D01*
X69038095Y-106547619D01*
X68990476Y-106642857D01*
X68990476Y-106738095D01*
X69038095Y-106880952D01*
X69609523Y-107452380D01*
X68990476Y-107452380D01*
X68133333Y-106785714D02*
X68133333Y-107452380D01*
X68371428Y-106404761D02*
X68609523Y-107119047D01*
X67990476Y-107119047D01*
X101257142Y-112357142D02*
X101304761Y-112309523D01*
X101352380Y-112166666D01*
X101352380Y-112071428D01*
X101304761Y-111928571D01*
X101209523Y-111833333D01*
X101114285Y-111785714D01*
X100923809Y-111738095D01*
X100780952Y-111738095D01*
X100590476Y-111785714D01*
X100495238Y-111833333D01*
X100400000Y-111928571D01*
X100352380Y-112071428D01*
X100352380Y-112166666D01*
X100400000Y-112309523D01*
X100447619Y-112357142D01*
X101352380Y-113309523D02*
X101352380Y-112738095D01*
X101352380Y-113023809D02*
X100352380Y-113023809D01*
X100495238Y-112928571D01*
X100590476Y-112833333D01*
X100638095Y-112738095D01*
X100352380Y-114166666D02*
X100352380Y-113976190D01*
X100400000Y-113880952D01*
X100447619Y-113833333D01*
X100590476Y-113738095D01*
X100780952Y-113690476D01*
X101161904Y-113690476D01*
X101257142Y-113738095D01*
X101304761Y-113785714D01*
X101352380Y-113880952D01*
X101352380Y-114071428D01*
X101304761Y-114166666D01*
X101257142Y-114214285D01*
X101161904Y-114261904D01*
X100923809Y-114261904D01*
X100828571Y-114214285D01*
X100780952Y-114166666D01*
X100733333Y-114071428D01*
X100733333Y-113880952D01*
X100780952Y-113785714D01*
X100828571Y-113738095D01*
X100923809Y-113690476D01*
X155892857Y-97452380D02*
X156226190Y-96976190D01*
X156464285Y-97452380D02*
X156464285Y-96452380D01*
X156083333Y-96452380D01*
X155988095Y-96500000D01*
X155940476Y-96547619D01*
X155892857Y-96642857D01*
X155892857Y-96785714D01*
X155940476Y-96880952D01*
X155988095Y-96928571D01*
X156083333Y-96976190D01*
X156464285Y-96976190D01*
X154940476Y-97452380D02*
X155511904Y-97452380D01*
X155226190Y-97452380D02*
X155226190Y-96452380D01*
X155321428Y-96595238D01*
X155416666Y-96690476D01*
X155511904Y-96738095D01*
X154035714Y-96452380D02*
X154511904Y-96452380D01*
X154559523Y-96928571D01*
X154511904Y-96880952D01*
X154416666Y-96833333D01*
X154178571Y-96833333D01*
X154083333Y-96880952D01*
X154035714Y-96928571D01*
X153988095Y-97023809D01*
X153988095Y-97261904D01*
X154035714Y-97357142D01*
X154083333Y-97404761D01*
X154178571Y-97452380D01*
X154416666Y-97452380D01*
X154511904Y-97404761D01*
X154559523Y-97357142D01*
X117022380Y-109107142D02*
X116546190Y-108773809D01*
X117022380Y-108535714D02*
X116022380Y-108535714D01*
X116022380Y-108916666D01*
X116070000Y-109011904D01*
X116117619Y-109059523D01*
X116212857Y-109107142D01*
X116355714Y-109107142D01*
X116450952Y-109059523D01*
X116498571Y-109011904D01*
X116546190Y-108916666D01*
X116546190Y-108535714D01*
X117022380Y-110059523D02*
X117022380Y-109488095D01*
X117022380Y-109773809D02*
X116022380Y-109773809D01*
X116165238Y-109678571D01*
X116260476Y-109583333D01*
X116308095Y-109488095D01*
X116355714Y-110916666D02*
X117022380Y-110916666D01*
X115974761Y-110678571D02*
X116689047Y-110440476D01*
X116689047Y-111059523D01*
X99866666Y-105452380D02*
X100200000Y-104976190D01*
X100438095Y-105452380D02*
X100438095Y-104452380D01*
X100057142Y-104452380D01*
X99961904Y-104500000D01*
X99914285Y-104547619D01*
X99866666Y-104642857D01*
X99866666Y-104785714D01*
X99914285Y-104880952D01*
X99961904Y-104928571D01*
X100057142Y-104976190D01*
X100438095Y-104976190D01*
X99390476Y-105452380D02*
X99200000Y-105452380D01*
X99104761Y-105404761D01*
X99057142Y-105357142D01*
X98961904Y-105214285D01*
X98914285Y-105023809D01*
X98914285Y-104642857D01*
X98961904Y-104547619D01*
X99009523Y-104500000D01*
X99104761Y-104452380D01*
X99295238Y-104452380D01*
X99390476Y-104500000D01*
X99438095Y-104547619D01*
X99485714Y-104642857D01*
X99485714Y-104880952D01*
X99438095Y-104976190D01*
X99390476Y-105023809D01*
X99295238Y-105071428D01*
X99104761Y-105071428D01*
X99009523Y-105023809D01*
X98961904Y-104976190D01*
X98914285Y-104880952D01*
X85566666Y-103302380D02*
X85900000Y-102826190D01*
X86138095Y-103302380D02*
X86138095Y-102302380D01*
X85757142Y-102302380D01*
X85661904Y-102350000D01*
X85614285Y-102397619D01*
X85566666Y-102492857D01*
X85566666Y-102635714D01*
X85614285Y-102730952D01*
X85661904Y-102778571D01*
X85757142Y-102826190D01*
X86138095Y-102826190D01*
X85233333Y-102302380D02*
X84566666Y-102302380D01*
X84995238Y-103302380D01*
X162466666Y-111552380D02*
X162800000Y-111076190D01*
X163038095Y-111552380D02*
X163038095Y-110552380D01*
X162657142Y-110552380D01*
X162561904Y-110600000D01*
X162514285Y-110647619D01*
X162466666Y-110742857D01*
X162466666Y-110885714D01*
X162514285Y-110980952D01*
X162561904Y-111028571D01*
X162657142Y-111076190D01*
X163038095Y-111076190D01*
X161609523Y-110552380D02*
X161800000Y-110552380D01*
X161895238Y-110600000D01*
X161942857Y-110647619D01*
X162038095Y-110790476D01*
X162085714Y-110980952D01*
X162085714Y-111361904D01*
X162038095Y-111457142D01*
X161990476Y-111504761D01*
X161895238Y-111552380D01*
X161704761Y-111552380D01*
X161609523Y-111504761D01*
X161561904Y-111457142D01*
X161514285Y-111361904D01*
X161514285Y-111123809D01*
X161561904Y-111028571D01*
X161609523Y-110980952D01*
X161704761Y-110933333D01*
X161895238Y-110933333D01*
X161990476Y-110980952D01*
X162038095Y-111028571D01*
X162085714Y-111123809D01*
X159916666Y-116652380D02*
X160250000Y-116176190D01*
X160488095Y-116652380D02*
X160488095Y-115652380D01*
X160107142Y-115652380D01*
X160011904Y-115700000D01*
X159964285Y-115747619D01*
X159916666Y-115842857D01*
X159916666Y-115985714D01*
X159964285Y-116080952D01*
X160011904Y-116128571D01*
X160107142Y-116176190D01*
X160488095Y-116176190D01*
X159011904Y-115652380D02*
X159488095Y-115652380D01*
X159535714Y-116128571D01*
X159488095Y-116080952D01*
X159392857Y-116033333D01*
X159154761Y-116033333D01*
X159059523Y-116080952D01*
X159011904Y-116128571D01*
X158964285Y-116223809D01*
X158964285Y-116461904D01*
X159011904Y-116557142D01*
X159059523Y-116604761D01*
X159154761Y-116652380D01*
X159392857Y-116652380D01*
X159488095Y-116604761D01*
X159535714Y-116557142D01*
X189916666Y-106202380D02*
X190250000Y-105726190D01*
X190488095Y-106202380D02*
X190488095Y-105202380D01*
X190107142Y-105202380D01*
X190011904Y-105250000D01*
X189964285Y-105297619D01*
X189916666Y-105392857D01*
X189916666Y-105535714D01*
X189964285Y-105630952D01*
X190011904Y-105678571D01*
X190107142Y-105726190D01*
X190488095Y-105726190D01*
X189583333Y-105202380D02*
X188964285Y-105202380D01*
X189297619Y-105583333D01*
X189154761Y-105583333D01*
X189059523Y-105630952D01*
X189011904Y-105678571D01*
X188964285Y-105773809D01*
X188964285Y-106011904D01*
X189011904Y-106107142D01*
X189059523Y-106154761D01*
X189154761Y-106202380D01*
X189440476Y-106202380D01*
X189535714Y-106154761D01*
X189583333Y-106107142D01*
X208916666Y-102452380D02*
X209250000Y-101976190D01*
X209488095Y-102452380D02*
X209488095Y-101452380D01*
X209107142Y-101452380D01*
X209011904Y-101500000D01*
X208964285Y-101547619D01*
X208916666Y-101642857D01*
X208916666Y-101785714D01*
X208964285Y-101880952D01*
X209011904Y-101928571D01*
X209107142Y-101976190D01*
X209488095Y-101976190D01*
X208535714Y-101547619D02*
X208488095Y-101500000D01*
X208392857Y-101452380D01*
X208154761Y-101452380D01*
X208059523Y-101500000D01*
X208011904Y-101547619D01*
X207964285Y-101642857D01*
X207964285Y-101738095D01*
X208011904Y-101880952D01*
X208583333Y-102452380D01*
X207964285Y-102452380D01*
X238416666Y-104202380D02*
X238750000Y-103726190D01*
X238988095Y-104202380D02*
X238988095Y-103202380D01*
X238607142Y-103202380D01*
X238511904Y-103250000D01*
X238464285Y-103297619D01*
X238416666Y-103392857D01*
X238416666Y-103535714D01*
X238464285Y-103630952D01*
X238511904Y-103678571D01*
X238607142Y-103726190D01*
X238988095Y-103726190D01*
X237464285Y-104202380D02*
X238035714Y-104202380D01*
X237750000Y-104202380D02*
X237750000Y-103202380D01*
X237845238Y-103345238D01*
X237940476Y-103440476D01*
X238035714Y-103488095D01*
X86066666Y-104702380D02*
X86542857Y-104702380D01*
X86542857Y-103702380D01*
X85733333Y-104702380D02*
X85733333Y-103702380D01*
X85495238Y-103702380D01*
X85352380Y-103750000D01*
X85257142Y-103845238D01*
X85209523Y-103940476D01*
X85161904Y-104130952D01*
X85161904Y-104273809D01*
X85209523Y-104464285D01*
X85257142Y-104559523D01*
X85352380Y-104654761D01*
X85495238Y-104702380D01*
X85733333Y-104702380D01*
X84828571Y-103702380D02*
X84161904Y-103702380D01*
X84590476Y-104702380D01*
X165866666Y-113852380D02*
X166342857Y-113852380D01*
X166342857Y-112852380D01*
X165533333Y-113852380D02*
X165533333Y-112852380D01*
X165295238Y-112852380D01*
X165152380Y-112900000D01*
X165057142Y-112995238D01*
X165009523Y-113090476D01*
X164961904Y-113280952D01*
X164961904Y-113423809D01*
X165009523Y-113614285D01*
X165057142Y-113709523D01*
X165152380Y-113804761D01*
X165295238Y-113852380D01*
X165533333Y-113852380D01*
X164104761Y-112852380D02*
X164295238Y-112852380D01*
X164390476Y-112900000D01*
X164438095Y-112947619D01*
X164533333Y-113090476D01*
X164580952Y-113280952D01*
X164580952Y-113661904D01*
X164533333Y-113757142D01*
X164485714Y-113804761D01*
X164390476Y-113852380D01*
X164200000Y-113852380D01*
X164104761Y-113804761D01*
X164057142Y-113757142D01*
X164009523Y-113661904D01*
X164009523Y-113423809D01*
X164057142Y-113328571D01*
X164104761Y-113280952D01*
X164200000Y-113233333D01*
X164390476Y-113233333D01*
X164485714Y-113280952D01*
X164533333Y-113328571D01*
X164580952Y-113423809D01*
X165866666Y-115252380D02*
X166342857Y-115252380D01*
X166342857Y-114252380D01*
X165533333Y-115252380D02*
X165533333Y-114252380D01*
X165295238Y-114252380D01*
X165152380Y-114300000D01*
X165057142Y-114395238D01*
X165009523Y-114490476D01*
X164961904Y-114680952D01*
X164961904Y-114823809D01*
X165009523Y-115014285D01*
X165057142Y-115109523D01*
X165152380Y-115204761D01*
X165295238Y-115252380D01*
X165533333Y-115252380D01*
X164057142Y-114252380D02*
X164533333Y-114252380D01*
X164580952Y-114728571D01*
X164533333Y-114680952D01*
X164438095Y-114633333D01*
X164200000Y-114633333D01*
X164104761Y-114680952D01*
X164057142Y-114728571D01*
X164009523Y-114823809D01*
X164009523Y-115061904D01*
X164057142Y-115157142D01*
X164104761Y-115204761D01*
X164200000Y-115252380D01*
X164438095Y-115252380D01*
X164533333Y-115204761D01*
X164580952Y-115157142D01*
X167702380Y-98833333D02*
X167702380Y-98357142D01*
X166702380Y-98357142D01*
X167702380Y-99166666D02*
X166702380Y-99166666D01*
X166702380Y-99404761D01*
X166750000Y-99547619D01*
X166845238Y-99642857D01*
X166940476Y-99690476D01*
X167130952Y-99738095D01*
X167273809Y-99738095D01*
X167464285Y-99690476D01*
X167559523Y-99642857D01*
X167654761Y-99547619D01*
X167702380Y-99404761D01*
X167702380Y-99166666D01*
X167035714Y-100595238D02*
X167702380Y-100595238D01*
X166654761Y-100357142D02*
X167369047Y-100119047D01*
X167369047Y-100738095D01*
X190466666Y-111052380D02*
X190942857Y-111052380D01*
X190942857Y-110052380D01*
X190133333Y-111052380D02*
X190133333Y-110052380D01*
X189895238Y-110052380D01*
X189752380Y-110100000D01*
X189657142Y-110195238D01*
X189609523Y-110290476D01*
X189561904Y-110480952D01*
X189561904Y-110623809D01*
X189609523Y-110814285D01*
X189657142Y-110909523D01*
X189752380Y-111004761D01*
X189895238Y-111052380D01*
X190133333Y-111052380D01*
X189228571Y-110052380D02*
X188609523Y-110052380D01*
X188942857Y-110433333D01*
X188800000Y-110433333D01*
X188704761Y-110480952D01*
X188657142Y-110528571D01*
X188609523Y-110623809D01*
X188609523Y-110861904D01*
X188657142Y-110957142D01*
X188704761Y-111004761D01*
X188800000Y-111052380D01*
X189085714Y-111052380D01*
X189180952Y-111004761D01*
X189228571Y-110957142D01*
X201166666Y-102452380D02*
X201642857Y-102452380D01*
X201642857Y-101452380D01*
X200833333Y-102452380D02*
X200833333Y-101452380D01*
X200595238Y-101452380D01*
X200452380Y-101500000D01*
X200357142Y-101595238D01*
X200309523Y-101690476D01*
X200261904Y-101880952D01*
X200261904Y-102023809D01*
X200309523Y-102214285D01*
X200357142Y-102309523D01*
X200452380Y-102404761D01*
X200595238Y-102452380D01*
X200833333Y-102452380D01*
X199880952Y-101547619D02*
X199833333Y-101500000D01*
X199738095Y-101452380D01*
X199500000Y-101452380D01*
X199404761Y-101500000D01*
X199357142Y-101547619D01*
X199309523Y-101642857D01*
X199309523Y-101738095D01*
X199357142Y-101880952D01*
X199928571Y-102452380D01*
X199309523Y-102452380D01*
X242416666Y-104202380D02*
X242892857Y-104202380D01*
X242892857Y-103202380D01*
X242083333Y-104202380D02*
X242083333Y-103202380D01*
X241845238Y-103202380D01*
X241702380Y-103250000D01*
X241607142Y-103345238D01*
X241559523Y-103440476D01*
X241511904Y-103630952D01*
X241511904Y-103773809D01*
X241559523Y-103964285D01*
X241607142Y-104059523D01*
X241702380Y-104154761D01*
X241845238Y-104202380D01*
X242083333Y-104202380D01*
X240559523Y-104202380D02*
X241130952Y-104202380D01*
X240845238Y-104202380D02*
X240845238Y-103202380D01*
X240940476Y-103345238D01*
X241035714Y-103440476D01*
X241130952Y-103488095D01*
X158107142Y-98607142D02*
X158154761Y-98559523D01*
X158202380Y-98416666D01*
X158202380Y-98321428D01*
X158154761Y-98178571D01*
X158059523Y-98083333D01*
X157964285Y-98035714D01*
X157773809Y-97988095D01*
X157630952Y-97988095D01*
X157440476Y-98035714D01*
X157345238Y-98083333D01*
X157250000Y-98178571D01*
X157202380Y-98321428D01*
X157202380Y-98416666D01*
X157250000Y-98559523D01*
X157297619Y-98607142D01*
X157297619Y-98988095D02*
X157250000Y-99035714D01*
X157202380Y-99130952D01*
X157202380Y-99369047D01*
X157250000Y-99464285D01*
X157297619Y-99511904D01*
X157392857Y-99559523D01*
X157488095Y-99559523D01*
X157630952Y-99511904D01*
X158202380Y-98940476D01*
X158202380Y-99559523D01*
X157202380Y-100464285D02*
X157202380Y-99988095D01*
X157678571Y-99940476D01*
X157630952Y-99988095D01*
X157583333Y-100083333D01*
X157583333Y-100321428D01*
X157630952Y-100416666D01*
X157678571Y-100464285D01*
X157773809Y-100511904D01*
X158011904Y-100511904D01*
X158107142Y-100464285D01*
X158154761Y-100416666D01*
X158202380Y-100321428D01*
X158202380Y-100083333D01*
X158154761Y-99988095D01*
X158107142Y-99940476D01*
X159357142Y-102107142D02*
X159404761Y-102059523D01*
X159452380Y-101916666D01*
X159452380Y-101821428D01*
X159404761Y-101678571D01*
X159309523Y-101583333D01*
X159214285Y-101535714D01*
X159023809Y-101488095D01*
X158880952Y-101488095D01*
X158690476Y-101535714D01*
X158595238Y-101583333D01*
X158500000Y-101678571D01*
X158452380Y-101821428D01*
X158452380Y-101916666D01*
X158500000Y-102059523D01*
X158547619Y-102107142D01*
X158547619Y-102488095D02*
X158500000Y-102535714D01*
X158452380Y-102630952D01*
X158452380Y-102869047D01*
X158500000Y-102964285D01*
X158547619Y-103011904D01*
X158642857Y-103059523D01*
X158738095Y-103059523D01*
X158880952Y-103011904D01*
X159452380Y-102440476D01*
X159452380Y-103059523D01*
X158452380Y-103392857D02*
X158452380Y-104011904D01*
X158833333Y-103678571D01*
X158833333Y-103821428D01*
X158880952Y-103916666D01*
X158928571Y-103964285D01*
X159023809Y-104011904D01*
X159261904Y-104011904D01*
X159357142Y-103964285D01*
X159404761Y-103916666D01*
X159452380Y-103821428D01*
X159452380Y-103535714D01*
X159404761Y-103440476D01*
X159357142Y-103392857D01*
X165357142Y-96607142D02*
X165404761Y-96559523D01*
X165452380Y-96416666D01*
X165452380Y-96321428D01*
X165404761Y-96178571D01*
X165309523Y-96083333D01*
X165214285Y-96035714D01*
X165023809Y-95988095D01*
X164880952Y-95988095D01*
X164690476Y-96035714D01*
X164595238Y-96083333D01*
X164500000Y-96178571D01*
X164452380Y-96321428D01*
X164452380Y-96416666D01*
X164500000Y-96559523D01*
X164547619Y-96607142D01*
X164547619Y-96988095D02*
X164500000Y-97035714D01*
X164452380Y-97130952D01*
X164452380Y-97369047D01*
X164500000Y-97464285D01*
X164547619Y-97511904D01*
X164642857Y-97559523D01*
X164738095Y-97559523D01*
X164880952Y-97511904D01*
X165452380Y-96940476D01*
X165452380Y-97559523D01*
X164547619Y-97940476D02*
X164500000Y-97988095D01*
X164452380Y-98083333D01*
X164452380Y-98321428D01*
X164500000Y-98416666D01*
X164547619Y-98464285D01*
X164642857Y-98511904D01*
X164738095Y-98511904D01*
X164880952Y-98464285D01*
X165452380Y-97892857D01*
X165452380Y-98511904D01*
X79392857Y-103357142D02*
X79440476Y-103404761D01*
X79583333Y-103452380D01*
X79678571Y-103452380D01*
X79821428Y-103404761D01*
X79916666Y-103309523D01*
X79964285Y-103214285D01*
X80011904Y-103023809D01*
X80011904Y-102880952D01*
X79964285Y-102690476D01*
X79916666Y-102595238D01*
X79821428Y-102500000D01*
X79678571Y-102452380D01*
X79583333Y-102452380D01*
X79440476Y-102500000D01*
X79392857Y-102547619D01*
X79011904Y-102547619D02*
X78964285Y-102500000D01*
X78869047Y-102452380D01*
X78630952Y-102452380D01*
X78535714Y-102500000D01*
X78488095Y-102547619D01*
X78440476Y-102642857D01*
X78440476Y-102738095D01*
X78488095Y-102880952D01*
X79059523Y-103452380D01*
X78440476Y-103452380D01*
X77488095Y-103452380D02*
X78059523Y-103452380D01*
X77773809Y-103452380D02*
X77773809Y-102452380D01*
X77869047Y-102595238D01*
X77964285Y-102690476D01*
X78059523Y-102738095D01*
X160392857Y-107427142D02*
X160440476Y-107474761D01*
X160583333Y-107522380D01*
X160678571Y-107522380D01*
X160821428Y-107474761D01*
X160916666Y-107379523D01*
X160964285Y-107284285D01*
X161011904Y-107093809D01*
X161011904Y-106950952D01*
X160964285Y-106760476D01*
X160916666Y-106665238D01*
X160821428Y-106570000D01*
X160678571Y-106522380D01*
X160583333Y-106522380D01*
X160440476Y-106570000D01*
X160392857Y-106617619D01*
X159440476Y-107522380D02*
X160011904Y-107522380D01*
X159726190Y-107522380D02*
X159726190Y-106522380D01*
X159821428Y-106665238D01*
X159916666Y-106760476D01*
X160011904Y-106808095D01*
X159107142Y-106522380D02*
X158488095Y-106522380D01*
X158821428Y-106903333D01*
X158678571Y-106903333D01*
X158583333Y-106950952D01*
X158535714Y-106998571D01*
X158488095Y-107093809D01*
X158488095Y-107331904D01*
X158535714Y-107427142D01*
X158583333Y-107474761D01*
X158678571Y-107522380D01*
X158964285Y-107522380D01*
X159059523Y-107474761D01*
X159107142Y-107427142D01*
X185857142Y-95857142D02*
X185904761Y-95809523D01*
X185952380Y-95666666D01*
X185952380Y-95571428D01*
X185904761Y-95428571D01*
X185809523Y-95333333D01*
X185714285Y-95285714D01*
X185523809Y-95238095D01*
X185380952Y-95238095D01*
X185190476Y-95285714D01*
X185095238Y-95333333D01*
X185000000Y-95428571D01*
X184952380Y-95571428D01*
X184952380Y-95666666D01*
X185000000Y-95809523D01*
X185047619Y-95857142D01*
X185952380Y-96809523D02*
X185952380Y-96238095D01*
X185952380Y-96523809D02*
X184952380Y-96523809D01*
X185095238Y-96428571D01*
X185190476Y-96333333D01*
X185238095Y-96238095D01*
X185047619Y-97190476D02*
X185000000Y-97238095D01*
X184952380Y-97333333D01*
X184952380Y-97571428D01*
X185000000Y-97666666D01*
X185047619Y-97714285D01*
X185142857Y-97761904D01*
X185238095Y-97761904D01*
X185380952Y-97714285D01*
X185952380Y-97142857D01*
X185952380Y-97761904D01*
X193107142Y-95357142D02*
X193154761Y-95309523D01*
X193202380Y-95166666D01*
X193202380Y-95071428D01*
X193154761Y-94928571D01*
X193059523Y-94833333D01*
X192964285Y-94785714D01*
X192773809Y-94738095D01*
X192630952Y-94738095D01*
X192440476Y-94785714D01*
X192345238Y-94833333D01*
X192250000Y-94928571D01*
X192202380Y-95071428D01*
X192202380Y-95166666D01*
X192250000Y-95309523D01*
X192297619Y-95357142D01*
X193202380Y-96309523D02*
X193202380Y-95738095D01*
X193202380Y-96023809D02*
X192202380Y-96023809D01*
X192345238Y-95928571D01*
X192440476Y-95833333D01*
X192488095Y-95738095D01*
X192202380Y-96928571D02*
X192202380Y-97023809D01*
X192250000Y-97119047D01*
X192297619Y-97166666D01*
X192392857Y-97214285D01*
X192583333Y-97261904D01*
X192821428Y-97261904D01*
X193011904Y-97214285D01*
X193107142Y-97166666D01*
X193154761Y-97119047D01*
X193202380Y-97023809D01*
X193202380Y-96928571D01*
X193154761Y-96833333D01*
X193107142Y-96785714D01*
X193011904Y-96738095D01*
X192821428Y-96690476D01*
X192583333Y-96690476D01*
X192392857Y-96738095D01*
X192297619Y-96785714D01*
X192250000Y-96833333D01*
X192202380Y-96928571D01*
X160757142Y-110033333D02*
X160804761Y-109985714D01*
X160852380Y-109842857D01*
X160852380Y-109747619D01*
X160804761Y-109604761D01*
X160709523Y-109509523D01*
X160614285Y-109461904D01*
X160423809Y-109414285D01*
X160280952Y-109414285D01*
X160090476Y-109461904D01*
X159995238Y-109509523D01*
X159900000Y-109604761D01*
X159852380Y-109747619D01*
X159852380Y-109842857D01*
X159900000Y-109985714D01*
X159947619Y-110033333D01*
X160280952Y-110604761D02*
X160233333Y-110509523D01*
X160185714Y-110461904D01*
X160090476Y-110414285D01*
X160042857Y-110414285D01*
X159947619Y-110461904D01*
X159900000Y-110509523D01*
X159852380Y-110604761D01*
X159852380Y-110795238D01*
X159900000Y-110890476D01*
X159947619Y-110938095D01*
X160042857Y-110985714D01*
X160090476Y-110985714D01*
X160185714Y-110938095D01*
X160233333Y-110890476D01*
X160280952Y-110795238D01*
X160280952Y-110604761D01*
X160328571Y-110509523D01*
X160376190Y-110461904D01*
X160471428Y-110414285D01*
X160661904Y-110414285D01*
X160757142Y-110461904D01*
X160804761Y-110509523D01*
X160852380Y-110604761D01*
X160852380Y-110795238D01*
X160804761Y-110890476D01*
X160757142Y-110938095D01*
X160661904Y-110985714D01*
X160471428Y-110985714D01*
X160376190Y-110938095D01*
X160328571Y-110890476D01*
X160280952Y-110795238D01*
X146766666Y-115157142D02*
X146814285Y-115204761D01*
X146957142Y-115252380D01*
X147052380Y-115252380D01*
X147195238Y-115204761D01*
X147290476Y-115109523D01*
X147338095Y-115014285D01*
X147385714Y-114823809D01*
X147385714Y-114680952D01*
X147338095Y-114490476D01*
X147290476Y-114395238D01*
X147195238Y-114300000D01*
X147052380Y-114252380D01*
X146957142Y-114252380D01*
X146814285Y-114300000D01*
X146766666Y-114347619D01*
X146433333Y-114252380D02*
X145766666Y-114252380D01*
X146195238Y-115252380D01*
X208666666Y-98607142D02*
X208714285Y-98654761D01*
X208857142Y-98702380D01*
X208952380Y-98702380D01*
X209095238Y-98654761D01*
X209190476Y-98559523D01*
X209238095Y-98464285D01*
X209285714Y-98273809D01*
X209285714Y-98130952D01*
X209238095Y-97940476D01*
X209190476Y-97845238D01*
X209095238Y-97750000D01*
X208952380Y-97702380D01*
X208857142Y-97702380D01*
X208714285Y-97750000D01*
X208666666Y-97797619D01*
X207809523Y-97702380D02*
X208000000Y-97702380D01*
X208095238Y-97750000D01*
X208142857Y-97797619D01*
X208238095Y-97940476D01*
X208285714Y-98130952D01*
X208285714Y-98511904D01*
X208238095Y-98607142D01*
X208190476Y-98654761D01*
X208095238Y-98702380D01*
X207904761Y-98702380D01*
X207809523Y-98654761D01*
X207761904Y-98607142D01*
X207714285Y-98511904D01*
X207714285Y-98273809D01*
X207761904Y-98178571D01*
X207809523Y-98130952D01*
X207904761Y-98083333D01*
X208095238Y-98083333D01*
X208190476Y-98130952D01*
X208238095Y-98178571D01*
X208285714Y-98273809D01*
X111492857Y-117157142D02*
X111540476Y-117204761D01*
X111683333Y-117252380D01*
X111778571Y-117252380D01*
X111921428Y-117204761D01*
X112016666Y-117109523D01*
X112064285Y-117014285D01*
X112111904Y-116823809D01*
X112111904Y-116680952D01*
X112064285Y-116490476D01*
X112016666Y-116395238D01*
X111921428Y-116300000D01*
X111778571Y-116252380D01*
X111683333Y-116252380D01*
X111540476Y-116300000D01*
X111492857Y-116347619D01*
X111111904Y-116347619D02*
X111064285Y-116300000D01*
X110969047Y-116252380D01*
X110730952Y-116252380D01*
X110635714Y-116300000D01*
X110588095Y-116347619D01*
X110540476Y-116442857D01*
X110540476Y-116538095D01*
X110588095Y-116680952D01*
X111159523Y-117252380D01*
X110540476Y-117252380D01*
X109921428Y-116252380D02*
X109826190Y-116252380D01*
X109730952Y-116300000D01*
X109683333Y-116347619D01*
X109635714Y-116442857D01*
X109588095Y-116633333D01*
X109588095Y-116871428D01*
X109635714Y-117061904D01*
X109683333Y-117157142D01*
X109730952Y-117204761D01*
X109826190Y-117252380D01*
X109921428Y-117252380D01*
X110016666Y-117204761D01*
X110064285Y-117157142D01*
X110111904Y-117061904D01*
X110159523Y-116871428D01*
X110159523Y-116633333D01*
X110111904Y-116442857D01*
X110064285Y-116347619D01*
X110016666Y-116300000D01*
X109921428Y-116252380D01*
X108892857Y-114157142D02*
X108940476Y-114204761D01*
X109083333Y-114252380D01*
X109178571Y-114252380D01*
X109321428Y-114204761D01*
X109416666Y-114109523D01*
X109464285Y-114014285D01*
X109511904Y-113823809D01*
X109511904Y-113680952D01*
X109464285Y-113490476D01*
X109416666Y-113395238D01*
X109321428Y-113300000D01*
X109178571Y-113252380D01*
X109083333Y-113252380D01*
X108940476Y-113300000D01*
X108892857Y-113347619D01*
X107940476Y-114252380D02*
X108511904Y-114252380D01*
X108226190Y-114252380D02*
X108226190Y-113252380D01*
X108321428Y-113395238D01*
X108416666Y-113490476D01*
X108511904Y-113538095D01*
X107464285Y-114252380D02*
X107273809Y-114252380D01*
X107178571Y-114204761D01*
X107130952Y-114157142D01*
X107035714Y-114014285D01*
X106988095Y-113823809D01*
X106988095Y-113442857D01*
X107035714Y-113347619D01*
X107083333Y-113300000D01*
X107178571Y-113252380D01*
X107369047Y-113252380D01*
X107464285Y-113300000D01*
X107511904Y-113347619D01*
X107559523Y-113442857D01*
X107559523Y-113680952D01*
X107511904Y-113776190D01*
X107464285Y-113823809D01*
X107369047Y-113871428D01*
X107178571Y-113871428D01*
X107083333Y-113823809D01*
X107035714Y-113776190D01*
X106988095Y-113680952D01*
X79742857Y-109357142D02*
X79790476Y-109404761D01*
X79933333Y-109452380D01*
X80028571Y-109452380D01*
X80171428Y-109404761D01*
X80266666Y-109309523D01*
X80314285Y-109214285D01*
X80361904Y-109023809D01*
X80361904Y-108880952D01*
X80314285Y-108690476D01*
X80266666Y-108595238D01*
X80171428Y-108500000D01*
X80028571Y-108452380D01*
X79933333Y-108452380D01*
X79790476Y-108500000D01*
X79742857Y-108547619D01*
X78790476Y-109452380D02*
X79361904Y-109452380D01*
X79076190Y-109452380D02*
X79076190Y-108452380D01*
X79171428Y-108595238D01*
X79266666Y-108690476D01*
X79361904Y-108738095D01*
X78219047Y-108880952D02*
X78314285Y-108833333D01*
X78361904Y-108785714D01*
X78409523Y-108690476D01*
X78409523Y-108642857D01*
X78361904Y-108547619D01*
X78314285Y-108500000D01*
X78219047Y-108452380D01*
X78028571Y-108452380D01*
X77933333Y-108500000D01*
X77885714Y-108547619D01*
X77838095Y-108642857D01*
X77838095Y-108690476D01*
X77885714Y-108785714D01*
X77933333Y-108833333D01*
X78028571Y-108880952D01*
X78219047Y-108880952D01*
X78314285Y-108928571D01*
X78361904Y-108976190D01*
X78409523Y-109071428D01*
X78409523Y-109261904D01*
X78361904Y-109357142D01*
X78314285Y-109404761D01*
X78219047Y-109452380D01*
X78028571Y-109452380D01*
X77933333Y-109404761D01*
X77885714Y-109357142D01*
X77838095Y-109261904D01*
X77838095Y-109071428D01*
X77885714Y-108976190D01*
X77933333Y-108928571D01*
X78028571Y-108880952D01*
X99857142Y-112357142D02*
X99904761Y-112309523D01*
X99952380Y-112166666D01*
X99952380Y-112071428D01*
X99904761Y-111928571D01*
X99809523Y-111833333D01*
X99714285Y-111785714D01*
X99523809Y-111738095D01*
X99380952Y-111738095D01*
X99190476Y-111785714D01*
X99095238Y-111833333D01*
X99000000Y-111928571D01*
X98952380Y-112071428D01*
X98952380Y-112166666D01*
X99000000Y-112309523D01*
X99047619Y-112357142D01*
X99952380Y-113309523D02*
X99952380Y-112738095D01*
X99952380Y-113023809D02*
X98952380Y-113023809D01*
X99095238Y-112928571D01*
X99190476Y-112833333D01*
X99238095Y-112738095D01*
X98952380Y-113642857D02*
X98952380Y-114309523D01*
X99952380Y-113880952D01*
X79742857Y-112357142D02*
X79790476Y-112404761D01*
X79933333Y-112452380D01*
X80028571Y-112452380D01*
X80171428Y-112404761D01*
X80266666Y-112309523D01*
X80314285Y-112214285D01*
X80361904Y-112023809D01*
X80361904Y-111880952D01*
X80314285Y-111690476D01*
X80266666Y-111595238D01*
X80171428Y-111500000D01*
X80028571Y-111452380D01*
X79933333Y-111452380D01*
X79790476Y-111500000D01*
X79742857Y-111547619D01*
X78790476Y-112452380D02*
X79361904Y-112452380D01*
X79076190Y-112452380D02*
X79076190Y-111452380D01*
X79171428Y-111595238D01*
X79266666Y-111690476D01*
X79361904Y-111738095D01*
X77885714Y-111452380D02*
X78361904Y-111452380D01*
X78409523Y-111928571D01*
X78361904Y-111880952D01*
X78266666Y-111833333D01*
X78028571Y-111833333D01*
X77933333Y-111880952D01*
X77885714Y-111928571D01*
X77838095Y-112023809D01*
X77838095Y-112261904D01*
X77885714Y-112357142D01*
X77933333Y-112404761D01*
X78028571Y-112452380D01*
X78266666Y-112452380D01*
X78361904Y-112404761D01*
X78409523Y-112357142D01*
X79742857Y-110957142D02*
X79790476Y-111004761D01*
X79933333Y-111052380D01*
X80028571Y-111052380D01*
X80171428Y-111004761D01*
X80266666Y-110909523D01*
X80314285Y-110814285D01*
X80361904Y-110623809D01*
X80361904Y-110480952D01*
X80314285Y-110290476D01*
X80266666Y-110195238D01*
X80171428Y-110100000D01*
X80028571Y-110052380D01*
X79933333Y-110052380D01*
X79790476Y-110100000D01*
X79742857Y-110147619D01*
X78790476Y-111052380D02*
X79361904Y-111052380D01*
X79076190Y-111052380D02*
X79076190Y-110052380D01*
X79171428Y-110195238D01*
X79266666Y-110290476D01*
X79361904Y-110338095D01*
X77933333Y-110385714D02*
X77933333Y-111052380D01*
X78171428Y-110004761D02*
X78409523Y-110719047D01*
X77790476Y-110719047D01*
X220833333Y-101702380D02*
X220833333Y-102416666D01*
X220880952Y-102559523D01*
X220976190Y-102654761D01*
X221119047Y-102702380D01*
X221214285Y-102702380D01*
X219928571Y-102035714D02*
X219928571Y-102702380D01*
X220166666Y-101654761D02*
X220404761Y-102369047D01*
X219785714Y-102369047D01*
X97476190Y-114976190D02*
X97476190Y-115452380D01*
X97809523Y-114452380D02*
X97476190Y-114976190D01*
X97142857Y-114452380D01*
X96285714Y-115452380D02*
X96857142Y-115452380D01*
X96571428Y-115452380D02*
X96571428Y-114452380D01*
X96666666Y-114595238D01*
X96761904Y-114690476D01*
X96857142Y-114738095D01*
X115611904Y-110652380D02*
X115611904Y-111461904D01*
X115564285Y-111557142D01*
X115516666Y-111604761D01*
X115421428Y-111652380D01*
X115230952Y-111652380D01*
X115135714Y-111604761D01*
X115088095Y-111557142D01*
X115040476Y-111461904D01*
X115040476Y-110652380D01*
X114659523Y-110652380D02*
X114040476Y-110652380D01*
X114373809Y-111033333D01*
X114230952Y-111033333D01*
X114135714Y-111080952D01*
X114088095Y-111128571D01*
X114040476Y-111223809D01*
X114040476Y-111461904D01*
X114088095Y-111557142D01*
X114135714Y-111604761D01*
X114230952Y-111652380D01*
X114516666Y-111652380D01*
X114611904Y-111604761D01*
X114659523Y-111557142D01*
X73833333Y-112104761D02*
X73690476Y-112152380D01*
X73452380Y-112152380D01*
X73357142Y-112104761D01*
X73309523Y-112057142D01*
X73261904Y-111961904D01*
X73261904Y-111866666D01*
X73309523Y-111771428D01*
X73357142Y-111723809D01*
X73452380Y-111676190D01*
X73642857Y-111628571D01*
X73738095Y-111580952D01*
X73785714Y-111533333D01*
X73833333Y-111438095D01*
X73833333Y-111342857D01*
X73785714Y-111247619D01*
X73738095Y-111200000D01*
X73642857Y-111152380D01*
X73404761Y-111152380D01*
X73261904Y-111200000D01*
X72928571Y-111152380D02*
X72690476Y-112152380D01*
X72500000Y-111438095D01*
X72309523Y-112152380D01*
X72071428Y-111152380D01*
X71166666Y-112152380D02*
X71738095Y-112152380D01*
X71452380Y-112152380D02*
X71452380Y-111152380D01*
X71547619Y-111295238D01*
X71642857Y-111390476D01*
X71738095Y-111438095D01*
X183095238Y-103047619D02*
X183190476Y-103000000D01*
X183285714Y-102904761D01*
X183428571Y-102761904D01*
X183523809Y-102714285D01*
X183619047Y-102714285D01*
X183571428Y-102952380D02*
X183666666Y-102904761D01*
X183761904Y-102809523D01*
X183809523Y-102619047D01*
X183809523Y-102285714D01*
X183761904Y-102095238D01*
X183666666Y-102000000D01*
X183571428Y-101952380D01*
X183380952Y-101952380D01*
X183285714Y-102000000D01*
X183190476Y-102095238D01*
X183142857Y-102285714D01*
X183142857Y-102619047D01*
X183190476Y-102809523D01*
X183285714Y-102904761D01*
X183380952Y-102952380D01*
X183571428Y-102952380D01*
X182809523Y-101952380D02*
X182190476Y-101952380D01*
X182523809Y-102333333D01*
X182380952Y-102333333D01*
X182285714Y-102380952D01*
X182238095Y-102428571D01*
X182190476Y-102523809D01*
X182190476Y-102761904D01*
X182238095Y-102857142D01*
X182285714Y-102904761D01*
X182380952Y-102952380D01*
X182666666Y-102952380D01*
X182761904Y-102904761D01*
X182809523Y-102857142D01*
X199095238Y-103797619D02*
X199190476Y-103750000D01*
X199285714Y-103654761D01*
X199428571Y-103511904D01*
X199523809Y-103464285D01*
X199619047Y-103464285D01*
X199571428Y-103702380D02*
X199666666Y-103654761D01*
X199761904Y-103559523D01*
X199809523Y-103369047D01*
X199809523Y-103035714D01*
X199761904Y-102845238D01*
X199666666Y-102750000D01*
X199571428Y-102702380D01*
X199380952Y-102702380D01*
X199285714Y-102750000D01*
X199190476Y-102845238D01*
X199142857Y-103035714D01*
X199142857Y-103369047D01*
X199190476Y-103559523D01*
X199285714Y-103654761D01*
X199380952Y-103702380D01*
X199571428Y-103702380D01*
X198761904Y-102797619D02*
X198714285Y-102750000D01*
X198619047Y-102702380D01*
X198380952Y-102702380D01*
X198285714Y-102750000D01*
X198238095Y-102797619D01*
X198190476Y-102892857D01*
X198190476Y-102988095D01*
X198238095Y-103130952D01*
X198809523Y-103702380D01*
X198190476Y-103702380D01*
X244595238Y-102547619D02*
X244690476Y-102500000D01*
X244785714Y-102404761D01*
X244928571Y-102261904D01*
X245023809Y-102214285D01*
X245119047Y-102214285D01*
X245071428Y-102452380D02*
X245166666Y-102404761D01*
X245261904Y-102309523D01*
X245309523Y-102119047D01*
X245309523Y-101785714D01*
X245261904Y-101595238D01*
X245166666Y-101500000D01*
X245071428Y-101452380D01*
X244880952Y-101452380D01*
X244785714Y-101500000D01*
X244690476Y-101595238D01*
X244642857Y-101785714D01*
X244642857Y-102119047D01*
X244690476Y-102309523D01*
X244785714Y-102404761D01*
X244880952Y-102452380D01*
X245071428Y-102452380D01*
X243690476Y-102452380D02*
X244261904Y-102452380D01*
X243976190Y-102452380D02*
X243976190Y-101452380D01*
X244071428Y-101595238D01*
X244166666Y-101690476D01*
X244261904Y-101738095D01*
X114016666Y-117252380D02*
X114492857Y-117252380D01*
X114492857Y-116252380D01*
X113778571Y-116252380D02*
X113159523Y-116252380D01*
X113492857Y-116633333D01*
X113350000Y-116633333D01*
X113254761Y-116680952D01*
X113207142Y-116728571D01*
X113159523Y-116823809D01*
X113159523Y-117061904D01*
X113207142Y-117157142D01*
X113254761Y-117204761D01*
X113350000Y-117252380D01*
X113635714Y-117252380D01*
X113730952Y-117204761D01*
X113778571Y-117157142D01*
X81416666Y-114952380D02*
X81892857Y-114952380D01*
X81892857Y-113952380D01*
X81130952Y-114047619D02*
X81083333Y-114000000D01*
X80988095Y-113952380D01*
X80750000Y-113952380D01*
X80654761Y-114000000D01*
X80607142Y-114047619D01*
X80559523Y-114142857D01*
X80559523Y-114238095D01*
X80607142Y-114380952D01*
X81178571Y-114952380D01*
X80559523Y-114952380D01*
X102266666Y-109452380D02*
X102742857Y-109452380D01*
X102742857Y-108452380D01*
X101409523Y-109452380D02*
X101980952Y-109452380D01*
X101695238Y-109452380D02*
X101695238Y-108452380D01*
X101790476Y-108595238D01*
X101885714Y-108690476D01*
X101980952Y-108738095D01*
X182133333Y-116452380D02*
X182133333Y-117166666D01*
X182180952Y-117309523D01*
X182276190Y-117404761D01*
X182419047Y-117452380D01*
X182514285Y-117452380D01*
X181228571Y-116452380D02*
X181419047Y-116452380D01*
X181514285Y-116500000D01*
X181561904Y-116547619D01*
X181657142Y-116690476D01*
X181704761Y-116880952D01*
X181704761Y-117261904D01*
X181657142Y-117357142D01*
X181609523Y-117404761D01*
X181514285Y-117452380D01*
X181323809Y-117452380D01*
X181228571Y-117404761D01*
X181180952Y-117357142D01*
X181133333Y-117261904D01*
X181133333Y-117023809D01*
X181180952Y-116928571D01*
X181228571Y-116880952D01*
X181323809Y-116833333D01*
X181514285Y-116833333D01*
X181609523Y-116880952D01*
X181657142Y-116928571D01*
X181704761Y-117023809D01*
X198333333Y-116452380D02*
X198333333Y-117166666D01*
X198380952Y-117309523D01*
X198476190Y-117404761D01*
X198619047Y-117452380D01*
X198714285Y-117452380D01*
X197380952Y-116452380D02*
X197857142Y-116452380D01*
X197904761Y-116928571D01*
X197857142Y-116880952D01*
X197761904Y-116833333D01*
X197523809Y-116833333D01*
X197428571Y-116880952D01*
X197380952Y-116928571D01*
X197333333Y-117023809D01*
X197333333Y-117261904D01*
X197380952Y-117357142D01*
X197428571Y-117404761D01*
X197523809Y-117452380D01*
X197761904Y-117452380D01*
X197857142Y-117404761D01*
X197904761Y-117357142D01*
X50083333Y-115252380D02*
X50083333Y-115966666D01*
X50130952Y-116109523D01*
X50226190Y-116204761D01*
X50369047Y-116252380D01*
X50464285Y-116252380D01*
X49702380Y-115252380D02*
X49083333Y-115252380D01*
X49416666Y-115633333D01*
X49273809Y-115633333D01*
X49178571Y-115680952D01*
X49130952Y-115728571D01*
X49083333Y-115823809D01*
X49083333Y-116061904D01*
X49130952Y-116157142D01*
X49178571Y-116204761D01*
X49273809Y-116252380D01*
X49559523Y-116252380D01*
X49654761Y-116204761D01*
X49702380Y-116157142D01*
X72333333Y-94452380D02*
X72333333Y-95166666D01*
X72380952Y-95309523D01*
X72476190Y-95404761D01*
X72619047Y-95452380D01*
X72714285Y-95452380D01*
X71333333Y-95452380D02*
X71904761Y-95452380D01*
X71619047Y-95452380D02*
X71619047Y-94452380D01*
X71714285Y-94595238D01*
X71809523Y-94690476D01*
X71904761Y-94738095D01*
X194933333Y-104928571D02*
X195266666Y-104928571D01*
X195266666Y-105452380D02*
X195266666Y-104452380D01*
X194790476Y-104452380D01*
X194457142Y-104547619D02*
X194409523Y-104500000D01*
X194314285Y-104452380D01*
X194076190Y-104452380D01*
X193980952Y-104500000D01*
X193933333Y-104547619D01*
X193885714Y-104642857D01*
X193885714Y-104738095D01*
X193933333Y-104880952D01*
X194504761Y-105452380D01*
X193885714Y-105452380D01*
X255233333Y-107328571D02*
X255566666Y-107328571D01*
X255566666Y-107852380D02*
X255566666Y-106852380D01*
X255090476Y-106852380D01*
X254185714Y-107852380D02*
X254757142Y-107852380D01*
X254471428Y-107852380D02*
X254471428Y-106852380D01*
X254566666Y-106995238D01*
X254661904Y-107090476D01*
X254757142Y-107138095D01*
X182238095Y-101202380D02*
X182238095Y-100202380D01*
X182000000Y-100202380D01*
X181857142Y-100250000D01*
X181761904Y-100345238D01*
X181714285Y-100440476D01*
X181666666Y-100630952D01*
X181666666Y-100773809D01*
X181714285Y-100964285D01*
X181761904Y-101059523D01*
X181857142Y-101154761D01*
X182000000Y-101202380D01*
X182238095Y-101202380D01*
X181285714Y-100297619D02*
X181238095Y-100250000D01*
X181142857Y-100202380D01*
X180904761Y-100202380D01*
X180809523Y-100250000D01*
X180761904Y-100297619D01*
X180714285Y-100392857D01*
X180714285Y-100488095D01*
X180761904Y-100630952D01*
X181333333Y-101202380D01*
X180714285Y-101202380D01*
X175892857Y-101607142D02*
X175940476Y-101654761D01*
X176083333Y-101702380D01*
X176178571Y-101702380D01*
X176321428Y-101654761D01*
X176416666Y-101559523D01*
X176464285Y-101464285D01*
X176511904Y-101273809D01*
X176511904Y-101130952D01*
X176464285Y-100940476D01*
X176416666Y-100845238D01*
X176321428Y-100750000D01*
X176178571Y-100702380D01*
X176083333Y-100702380D01*
X175940476Y-100750000D01*
X175892857Y-100797619D01*
X174940476Y-101702380D02*
X175511904Y-101702380D01*
X175226190Y-101702380D02*
X175226190Y-100702380D01*
X175321428Y-100845238D01*
X175416666Y-100940476D01*
X175511904Y-100988095D01*
X173988095Y-101702380D02*
X174559523Y-101702380D01*
X174273809Y-101702380D02*
X174273809Y-100702380D01*
X174369047Y-100845238D01*
X174464285Y-100940476D01*
X174559523Y-100988095D01*
X194416666Y-101357142D02*
X194464285Y-101404761D01*
X194607142Y-101452380D01*
X194702380Y-101452380D01*
X194845238Y-101404761D01*
X194940476Y-101309523D01*
X194988095Y-101214285D01*
X195035714Y-101023809D01*
X195035714Y-100880952D01*
X194988095Y-100690476D01*
X194940476Y-100595238D01*
X194845238Y-100500000D01*
X194702380Y-100452380D01*
X194607142Y-100452380D01*
X194464285Y-100500000D01*
X194416666Y-100547619D01*
X193940476Y-101452380D02*
X193750000Y-101452380D01*
X193654761Y-101404761D01*
X193607142Y-101357142D01*
X193511904Y-101214285D01*
X193464285Y-101023809D01*
X193464285Y-100642857D01*
X193511904Y-100547619D01*
X193559523Y-100500000D01*
X193654761Y-100452380D01*
X193845238Y-100452380D01*
X193940476Y-100500000D01*
X193988095Y-100547619D01*
X194035714Y-100642857D01*
X194035714Y-100880952D01*
X193988095Y-100976190D01*
X193940476Y-101023809D01*
X193845238Y-101071428D01*
X193654761Y-101071428D01*
X193559523Y-101023809D01*
X193511904Y-100976190D01*
X193464285Y-100880952D01*
X209766666Y-108757142D02*
X209814285Y-108804761D01*
X209957142Y-108852380D01*
X210052380Y-108852380D01*
X210195238Y-108804761D01*
X210290476Y-108709523D01*
X210338095Y-108614285D01*
X210385714Y-108423809D01*
X210385714Y-108280952D01*
X210338095Y-108090476D01*
X210290476Y-107995238D01*
X210195238Y-107900000D01*
X210052380Y-107852380D01*
X209957142Y-107852380D01*
X209814285Y-107900000D01*
X209766666Y-107947619D01*
X208861904Y-107852380D02*
X209338095Y-107852380D01*
X209385714Y-108328571D01*
X209338095Y-108280952D01*
X209242857Y-108233333D01*
X209004761Y-108233333D01*
X208909523Y-108280952D01*
X208861904Y-108328571D01*
X208814285Y-108423809D01*
X208814285Y-108661904D01*
X208861904Y-108757142D01*
X208909523Y-108804761D01*
X209004761Y-108852380D01*
X209242857Y-108852380D01*
X209338095Y-108804761D01*
X209385714Y-108757142D01*
X209666666Y-116607142D02*
X209714285Y-116654761D01*
X209857142Y-116702380D01*
X209952380Y-116702380D01*
X210095238Y-116654761D01*
X210190476Y-116559523D01*
X210238095Y-116464285D01*
X210285714Y-116273809D01*
X210285714Y-116130952D01*
X210238095Y-115940476D01*
X210190476Y-115845238D01*
X210095238Y-115750000D01*
X209952380Y-115702380D01*
X209857142Y-115702380D01*
X209714285Y-115750000D01*
X209666666Y-115797619D01*
X208809523Y-116035714D02*
X208809523Y-116702380D01*
X209047619Y-115654761D02*
X209285714Y-116369047D01*
X208666666Y-116369047D01*
X228666666Y-103107142D02*
X228714285Y-103154761D01*
X228857142Y-103202380D01*
X228952380Y-103202380D01*
X229095238Y-103154761D01*
X229190476Y-103059523D01*
X229238095Y-102964285D01*
X229285714Y-102773809D01*
X229285714Y-102630952D01*
X229238095Y-102440476D01*
X229190476Y-102345238D01*
X229095238Y-102250000D01*
X228952380Y-102202380D01*
X228857142Y-102202380D01*
X228714285Y-102250000D01*
X228666666Y-102297619D01*
X228333333Y-102202380D02*
X227714285Y-102202380D01*
X228047619Y-102583333D01*
X227904761Y-102583333D01*
X227809523Y-102630952D01*
X227761904Y-102678571D01*
X227714285Y-102773809D01*
X227714285Y-103011904D01*
X227761904Y-103107142D01*
X227809523Y-103154761D01*
X227904761Y-103202380D01*
X228190476Y-103202380D01*
X228285714Y-103154761D01*
X228333333Y-103107142D01*
X240416666Y-105607142D02*
X240464285Y-105654761D01*
X240607142Y-105702380D01*
X240702380Y-105702380D01*
X240845238Y-105654761D01*
X240940476Y-105559523D01*
X240988095Y-105464285D01*
X241035714Y-105273809D01*
X241035714Y-105130952D01*
X240988095Y-104940476D01*
X240940476Y-104845238D01*
X240845238Y-104750000D01*
X240702380Y-104702380D01*
X240607142Y-104702380D01*
X240464285Y-104750000D01*
X240416666Y-104797619D01*
X240035714Y-104797619D02*
X239988095Y-104750000D01*
X239892857Y-104702380D01*
X239654761Y-104702380D01*
X239559523Y-104750000D01*
X239511904Y-104797619D01*
X239464285Y-104892857D01*
X239464285Y-104988095D01*
X239511904Y-105130952D01*
X240083333Y-105702380D01*
X239464285Y-105702380D01*
X228916666Y-105607142D02*
X228964285Y-105654761D01*
X229107142Y-105702380D01*
X229202380Y-105702380D01*
X229345238Y-105654761D01*
X229440476Y-105559523D01*
X229488095Y-105464285D01*
X229535714Y-105273809D01*
X229535714Y-105130952D01*
X229488095Y-104940476D01*
X229440476Y-104845238D01*
X229345238Y-104750000D01*
X229202380Y-104702380D01*
X229107142Y-104702380D01*
X228964285Y-104750000D01*
X228916666Y-104797619D01*
X227964285Y-105702380D02*
X228535714Y-105702380D01*
X228250000Y-105702380D02*
X228250000Y-104702380D01*
X228345238Y-104845238D01*
X228440476Y-104940476D01*
X228535714Y-104988095D01*
M02*
