G04 #@! TF.GenerationSoftware,KiCad,Pcbnew,(5.1.2)-1*
G04 #@! TF.CreationDate,2020-05-12T16:12:36+02:00*
G04 #@! TF.ProjectId,Controller,436f6e74-726f-46c6-9c65-722e6b696361,rev?*
G04 #@! TF.SameCoordinates,Original*
G04 #@! TF.FileFunction,Copper,L1,Top*
G04 #@! TF.FilePolarity,Positive*
%FSLAX46Y46*%
G04 Gerber Fmt 4.6, Leading zero omitted, Abs format (unit mm)*
G04 Created by KiCad (PCBNEW (5.1.2)-1) date 2020-05-12 16:12:36*
%MOMM*%
%LPD*%
G04 APERTURE LIST*
%ADD10C,1.750000*%
%ADD11R,1.750000X1.750000*%
%ADD12C,3.500000*%
%ADD13C,1.700000*%
%ADD14R,1.700000X1.700000*%
%ADD15O,1.700000X1.700000*%
%ADD16C,0.100000*%
%ADD17C,2.000000*%
%ADD18C,3.000000*%
%ADD19O,1.700000X2.000000*%
%ADD20R,1.727200X1.727200*%
%ADD21O,1.727200X1.727200*%
%ADD22C,0.800000*%
%ADD23C,6.400000*%
%ADD24C,0.600000*%
%ADD25C,0.450000*%
%ADD26C,0.500000*%
%ADD27C,0.200000*%
G04 APERTURE END LIST*
D10*
X251000000Y-114500000D03*
X248500000Y-114500000D03*
D11*
X246000000Y-114500000D03*
D12*
X179270000Y-108210000D03*
X167230000Y-108210000D03*
D13*
X172000000Y-105500000D03*
X174500000Y-105500000D03*
X174500000Y-103500000D03*
D14*
X172000000Y-103500000D03*
D15*
X201960000Y-97000000D03*
D14*
X204500000Y-97000000D03*
D16*
G36*
X159774504Y-102611204D02*
G01*
X159798773Y-102614804D01*
X159822571Y-102620765D01*
X159845671Y-102629030D01*
X159867849Y-102639520D01*
X159888893Y-102652133D01*
X159908598Y-102666747D01*
X159926777Y-102683223D01*
X159943253Y-102701402D01*
X159957867Y-102721107D01*
X159970480Y-102742151D01*
X159980970Y-102764329D01*
X159989235Y-102787429D01*
X159995196Y-102811227D01*
X159998796Y-102835496D01*
X160000000Y-102860000D01*
X160000000Y-104560000D01*
X159998796Y-104584504D01*
X159995196Y-104608773D01*
X159989235Y-104632571D01*
X159980970Y-104655671D01*
X159970480Y-104677849D01*
X159957867Y-104698893D01*
X159943253Y-104718598D01*
X159926777Y-104736777D01*
X159908598Y-104753253D01*
X159888893Y-104767867D01*
X159867849Y-104780480D01*
X159845671Y-104790970D01*
X159822571Y-104799235D01*
X159798773Y-104805196D01*
X159774504Y-104808796D01*
X159750000Y-104810000D01*
X158250000Y-104810000D01*
X158225496Y-104808796D01*
X158201227Y-104805196D01*
X158177429Y-104799235D01*
X158154329Y-104790970D01*
X158132151Y-104780480D01*
X158111107Y-104767867D01*
X158091402Y-104753253D01*
X158073223Y-104736777D01*
X158056747Y-104718598D01*
X158042133Y-104698893D01*
X158029520Y-104677849D01*
X158019030Y-104655671D01*
X158010765Y-104632571D01*
X158004804Y-104608773D01*
X158001204Y-104584504D01*
X158000000Y-104560000D01*
X158000000Y-102860000D01*
X158001204Y-102835496D01*
X158004804Y-102811227D01*
X158010765Y-102787429D01*
X158019030Y-102764329D01*
X158029520Y-102742151D01*
X158042133Y-102721107D01*
X158056747Y-102701402D01*
X158073223Y-102683223D01*
X158091402Y-102666747D01*
X158111107Y-102652133D01*
X158132151Y-102639520D01*
X158154329Y-102629030D01*
X158177429Y-102620765D01*
X158201227Y-102614804D01*
X158225496Y-102611204D01*
X158250000Y-102610000D01*
X159750000Y-102610000D01*
X159774504Y-102611204D01*
X159774504Y-102611204D01*
G37*
D17*
X159000000Y-103710000D03*
D16*
G36*
X159774504Y-107691204D02*
G01*
X159798773Y-107694804D01*
X159822571Y-107700765D01*
X159845671Y-107709030D01*
X159867849Y-107719520D01*
X159888893Y-107732133D01*
X159908598Y-107746747D01*
X159926777Y-107763223D01*
X159943253Y-107781402D01*
X159957867Y-107801107D01*
X159970480Y-107822151D01*
X159980970Y-107844329D01*
X159989235Y-107867429D01*
X159995196Y-107891227D01*
X159998796Y-107915496D01*
X160000000Y-107940000D01*
X160000000Y-109640000D01*
X159998796Y-109664504D01*
X159995196Y-109688773D01*
X159989235Y-109712571D01*
X159980970Y-109735671D01*
X159970480Y-109757849D01*
X159957867Y-109778893D01*
X159943253Y-109798598D01*
X159926777Y-109816777D01*
X159908598Y-109833253D01*
X159888893Y-109847867D01*
X159867849Y-109860480D01*
X159845671Y-109870970D01*
X159822571Y-109879235D01*
X159798773Y-109885196D01*
X159774504Y-109888796D01*
X159750000Y-109890000D01*
X158250000Y-109890000D01*
X158225496Y-109888796D01*
X158201227Y-109885196D01*
X158177429Y-109879235D01*
X158154329Y-109870970D01*
X158132151Y-109860480D01*
X158111107Y-109847867D01*
X158091402Y-109833253D01*
X158073223Y-109816777D01*
X158056747Y-109798598D01*
X158042133Y-109778893D01*
X158029520Y-109757849D01*
X158019030Y-109735671D01*
X158010765Y-109712571D01*
X158004804Y-109688773D01*
X158001204Y-109664504D01*
X158000000Y-109640000D01*
X158000000Y-107940000D01*
X158001204Y-107915496D01*
X158004804Y-107891227D01*
X158010765Y-107867429D01*
X158019030Y-107844329D01*
X158029520Y-107822151D01*
X158042133Y-107801107D01*
X158056747Y-107781402D01*
X158073223Y-107763223D01*
X158091402Y-107746747D01*
X158111107Y-107732133D01*
X158132151Y-107719520D01*
X158154329Y-107709030D01*
X158177429Y-107700765D01*
X158201227Y-107694804D01*
X158225496Y-107691204D01*
X158250000Y-107690000D01*
X159750000Y-107690000D01*
X159774504Y-107691204D01*
X159774504Y-107691204D01*
G37*
D17*
X159000000Y-108790000D03*
D18*
X196000000Y-96500000D03*
X69000000Y-97000000D03*
D17*
X69250000Y-109500000D03*
X69250000Y-114000000D03*
X75750000Y-109500000D03*
X75750000Y-114000000D03*
D19*
X188250000Y-114750000D03*
D16*
G36*
X186374504Y-113751204D02*
G01*
X186398773Y-113754804D01*
X186422571Y-113760765D01*
X186445671Y-113769030D01*
X186467849Y-113779520D01*
X186488893Y-113792133D01*
X186508598Y-113806747D01*
X186526777Y-113823223D01*
X186543253Y-113841402D01*
X186557867Y-113861107D01*
X186570480Y-113882151D01*
X186580970Y-113904329D01*
X186589235Y-113927429D01*
X186595196Y-113951227D01*
X186598796Y-113975496D01*
X186600000Y-114000000D01*
X186600000Y-115500000D01*
X186598796Y-115524504D01*
X186595196Y-115548773D01*
X186589235Y-115572571D01*
X186580970Y-115595671D01*
X186570480Y-115617849D01*
X186557867Y-115638893D01*
X186543253Y-115658598D01*
X186526777Y-115676777D01*
X186508598Y-115693253D01*
X186488893Y-115707867D01*
X186467849Y-115720480D01*
X186445671Y-115730970D01*
X186422571Y-115739235D01*
X186398773Y-115745196D01*
X186374504Y-115748796D01*
X186350000Y-115750000D01*
X185150000Y-115750000D01*
X185125496Y-115748796D01*
X185101227Y-115745196D01*
X185077429Y-115739235D01*
X185054329Y-115730970D01*
X185032151Y-115720480D01*
X185011107Y-115707867D01*
X184991402Y-115693253D01*
X184973223Y-115676777D01*
X184956747Y-115658598D01*
X184942133Y-115638893D01*
X184929520Y-115617849D01*
X184919030Y-115595671D01*
X184910765Y-115572571D01*
X184904804Y-115548773D01*
X184901204Y-115524504D01*
X184900000Y-115500000D01*
X184900000Y-114000000D01*
X184901204Y-113975496D01*
X184904804Y-113951227D01*
X184910765Y-113927429D01*
X184919030Y-113904329D01*
X184929520Y-113882151D01*
X184942133Y-113861107D01*
X184956747Y-113841402D01*
X184973223Y-113823223D01*
X184991402Y-113806747D01*
X185011107Y-113792133D01*
X185032151Y-113779520D01*
X185054329Y-113769030D01*
X185077429Y-113760765D01*
X185101227Y-113754804D01*
X185125496Y-113751204D01*
X185150000Y-113750000D01*
X186350000Y-113750000D01*
X186374504Y-113751204D01*
X186374504Y-113751204D01*
G37*
D13*
X185750000Y-114750000D03*
D19*
X204250000Y-114750000D03*
D16*
G36*
X202374504Y-113751204D02*
G01*
X202398773Y-113754804D01*
X202422571Y-113760765D01*
X202445671Y-113769030D01*
X202467849Y-113779520D01*
X202488893Y-113792133D01*
X202508598Y-113806747D01*
X202526777Y-113823223D01*
X202543253Y-113841402D01*
X202557867Y-113861107D01*
X202570480Y-113882151D01*
X202580970Y-113904329D01*
X202589235Y-113927429D01*
X202595196Y-113951227D01*
X202598796Y-113975496D01*
X202600000Y-114000000D01*
X202600000Y-115500000D01*
X202598796Y-115524504D01*
X202595196Y-115548773D01*
X202589235Y-115572571D01*
X202580970Y-115595671D01*
X202570480Y-115617849D01*
X202557867Y-115638893D01*
X202543253Y-115658598D01*
X202526777Y-115676777D01*
X202508598Y-115693253D01*
X202488893Y-115707867D01*
X202467849Y-115720480D01*
X202445671Y-115730970D01*
X202422571Y-115739235D01*
X202398773Y-115745196D01*
X202374504Y-115748796D01*
X202350000Y-115750000D01*
X201150000Y-115750000D01*
X201125496Y-115748796D01*
X201101227Y-115745196D01*
X201077429Y-115739235D01*
X201054329Y-115730970D01*
X201032151Y-115720480D01*
X201011107Y-115707867D01*
X200991402Y-115693253D01*
X200973223Y-115676777D01*
X200956747Y-115658598D01*
X200942133Y-115638893D01*
X200929520Y-115617849D01*
X200919030Y-115595671D01*
X200910765Y-115572571D01*
X200904804Y-115548773D01*
X200901204Y-115524504D01*
X200900000Y-115500000D01*
X200900000Y-114000000D01*
X200901204Y-113975496D01*
X200904804Y-113951227D01*
X200910765Y-113927429D01*
X200919030Y-113904329D01*
X200929520Y-113882151D01*
X200942133Y-113861107D01*
X200956747Y-113841402D01*
X200973223Y-113823223D01*
X200991402Y-113806747D01*
X201011107Y-113792133D01*
X201032151Y-113779520D01*
X201054329Y-113769030D01*
X201077429Y-113760765D01*
X201101227Y-113754804D01*
X201125496Y-113751204D01*
X201150000Y-113750000D01*
X202350000Y-113750000D01*
X202374504Y-113751204D01*
X202374504Y-113751204D01*
G37*
D13*
X201750000Y-114750000D03*
D20*
X61250000Y-113000000D03*
D21*
X61250000Y-110460000D03*
X58710000Y-113000000D03*
X58710000Y-110460000D03*
X56170000Y-113000000D03*
X56170000Y-110460000D03*
D22*
X248802944Y-98302944D03*
X248100000Y-100000000D03*
X248802944Y-101697056D03*
X250500000Y-102400000D03*
X252197056Y-101697056D03*
X252900000Y-100000000D03*
X252197056Y-98302944D03*
X250500000Y-97600000D03*
D23*
X250500000Y-100000000D03*
D22*
X53802944Y-98302944D03*
X53100000Y-100000000D03*
X53802944Y-101697056D03*
X55500000Y-102400000D03*
X57197056Y-101697056D03*
X57900000Y-100000000D03*
X57197056Y-98302944D03*
X55500000Y-97600000D03*
D23*
X55500000Y-100000000D03*
D24*
X90800000Y-98750000D03*
D25*
X87000000Y-110750000D03*
D24*
X78000000Y-97600000D03*
X78000000Y-98800000D03*
X78000000Y-100000000D03*
X75600000Y-97600000D03*
X75600000Y-98800000D03*
X75600000Y-100000000D03*
X127500000Y-96500000D03*
X132500000Y-96500000D03*
X137500000Y-96500000D03*
X140000000Y-99000000D03*
X135000000Y-99000000D03*
X130000000Y-99000000D03*
X125000000Y-99000000D03*
X122500000Y-96500000D03*
X137500000Y-110500000D03*
X140000000Y-113000000D03*
X135000000Y-113000000D03*
X130000000Y-113000000D03*
X132500000Y-110500000D03*
X125000000Y-113000000D03*
X127500000Y-110500000D03*
X122500000Y-110500000D03*
X120000000Y-113000000D03*
X142500000Y-110500000D03*
X160200000Y-111600018D03*
X191750000Y-95250000D03*
X98500000Y-112250000D03*
X80750010Y-112000000D03*
X80750001Y-110600022D03*
X184749994Y-103250000D03*
X70250000Y-105250000D03*
X80750000Y-109000000D03*
X237500000Y-112200000D03*
X236000000Y-112200000D03*
X234700000Y-113000000D03*
X234700000Y-114500000D03*
X234700000Y-116000000D03*
X238800000Y-116000000D03*
X238800000Y-114500000D03*
X238800000Y-113000000D03*
X227600000Y-116000000D03*
X227600000Y-114500000D03*
X227600000Y-113000000D03*
X226200000Y-112200000D03*
X224800000Y-112200000D03*
X223300000Y-113000000D03*
X223300000Y-114500000D03*
X223300000Y-116000000D03*
X218000000Y-103200000D03*
X216500000Y-103200000D03*
X215000000Y-103200000D03*
X215000000Y-106800000D03*
X216500000Y-106800000D03*
X218000000Y-106800000D03*
X219000000Y-104500000D03*
X219000000Y-105800000D03*
X215000000Y-111200000D03*
X216500000Y-111200000D03*
X218000000Y-111200000D03*
X219000000Y-112500000D03*
X219000000Y-113800000D03*
X218000000Y-114800000D03*
X216500000Y-114800000D03*
X215000000Y-114800000D03*
X90800000Y-97600000D03*
X90800000Y-100000000D03*
X88200000Y-97600000D03*
X88200000Y-98800000D03*
X88200000Y-100000000D03*
X85800000Y-97600000D03*
X85800000Y-98800000D03*
X85800000Y-100000000D03*
X80600000Y-97600000D03*
X80600000Y-98800000D03*
X80600000Y-100000000D03*
D25*
X84250000Y-108250000D03*
X87000000Y-108250000D03*
D24*
X100750000Y-112250000D03*
X100750000Y-114750000D03*
X97000000Y-114750000D03*
X92750000Y-114750000D03*
X94250000Y-113000000D03*
X109000000Y-113000000D03*
X106500000Y-113000000D03*
X109250000Y-114750000D03*
X154500000Y-108750000D03*
X154500000Y-110750000D03*
X154500000Y-113250000D03*
X150500000Y-111250000D03*
X179000000Y-98500000D03*
X179000000Y-99750000D03*
X176000000Y-98500000D03*
X176000000Y-99750000D03*
X192250000Y-101750000D03*
X192250000Y-103500000D03*
X190750000Y-104750000D03*
X189250000Y-101750000D03*
X189250000Y-103500000D03*
X222600000Y-97600000D03*
X222600000Y-98800000D03*
X222600000Y-100000000D03*
X220200000Y-97600000D03*
X220200000Y-98800000D03*
X220200000Y-100000000D03*
X217600000Y-97600000D03*
X217600000Y-98800000D03*
X217600000Y-100000000D03*
X225200000Y-97600000D03*
X225200000Y-98800000D03*
X225200000Y-100000000D03*
X215200000Y-97600000D03*
X215200000Y-98800000D03*
X215200000Y-100000000D03*
X206600000Y-109600000D03*
X207500000Y-95250000D03*
X223700000Y-102750000D03*
X104000000Y-113000000D03*
X70300000Y-107100000D03*
X133000000Y-106000000D03*
X127500000Y-106000000D03*
X146600000Y-110800000D03*
X161400728Y-108599272D03*
X106500000Y-107000000D03*
X104000000Y-107000000D03*
X109000000Y-107000000D03*
X142250000Y-96500000D03*
X147750000Y-96500000D03*
X150000000Y-99000000D03*
X108500000Y-103500000D03*
X107000000Y-103500000D03*
X105500000Y-103500000D03*
X101250000Y-100500000D03*
X98750000Y-102000000D03*
X96250000Y-100500000D03*
X92500000Y-102000000D03*
D25*
X161500000Y-96500000D03*
X163750000Y-98000000D03*
X159787500Y-98962500D03*
D24*
X95500000Y-109499992D03*
X98938088Y-109543546D03*
D25*
X95100000Y-107500000D03*
X92750022Y-107500000D03*
D24*
X145000000Y-99000000D03*
X167250000Y-98250000D03*
D25*
X164749990Y-95500000D03*
D22*
X181500000Y-98000000D03*
D24*
X110750000Y-103000000D03*
X117000018Y-103000018D03*
D25*
X89473206Y-96525010D03*
X104025024Y-96525010D03*
X87750000Y-114250000D03*
X85500000Y-114025010D03*
X87000000Y-114250000D03*
X112000010Y-106000000D03*
X95499992Y-106249988D03*
X113300000Y-104800000D03*
X95500000Y-104999994D03*
X87000000Y-106000000D03*
X83250000Y-103250000D03*
X110574990Y-105369323D03*
X113974990Y-105400010D03*
X92499999Y-105800000D03*
X92122757Y-107724990D03*
X151169191Y-107724990D03*
X152250000Y-108500000D03*
X91499992Y-108250000D03*
X109350000Y-112199960D03*
X92500000Y-111500000D03*
X151724992Y-109749992D03*
X81000000Y-104000030D03*
X159000000Y-101974990D03*
X90500000Y-105750000D03*
X151824990Y-101824990D03*
D26*
X164749990Y-95500000D02*
X179000000Y-95500000D01*
X179000000Y-95500000D02*
X181100001Y-97600001D01*
X181100001Y-97600001D02*
X181500000Y-98000000D01*
X110750000Y-103000000D02*
X117000000Y-103000000D01*
X117000000Y-103000000D02*
X117000018Y-103000018D01*
D27*
X89473206Y-96525010D02*
X104025024Y-96525010D01*
X79250000Y-113500000D02*
X86000000Y-113500000D01*
X77000000Y-111250000D02*
X79250000Y-113500000D01*
X64250000Y-111250000D02*
X77000000Y-111250000D01*
X62000000Y-109000000D02*
X64250000Y-111250000D01*
X58710000Y-110460000D02*
X60170000Y-109000000D01*
X60170000Y-109000000D02*
X62000000Y-109000000D01*
X86000000Y-113500000D02*
X87000000Y-113500000D01*
X87000000Y-113500000D02*
X87750000Y-114250000D01*
X85181802Y-114025010D02*
X85500000Y-114025010D01*
X79025010Y-114025010D02*
X85181802Y-114025010D01*
X76750000Y-111750000D02*
X79025010Y-114025010D01*
X58710000Y-113000000D02*
X59960000Y-111750000D01*
X59960000Y-111750000D02*
X76750000Y-111750000D01*
X86775001Y-114474999D02*
X87000000Y-114250000D01*
X62313600Y-113000000D02*
X63063600Y-112250000D01*
X61250000Y-113000000D02*
X62313600Y-113000000D01*
X63063600Y-112250000D02*
X76559300Y-112250000D01*
X76559300Y-112250000D02*
X79059300Y-114750000D01*
X79059300Y-114750000D02*
X86500000Y-114750000D01*
X86500000Y-114750000D02*
X86775001Y-114474999D01*
X95749980Y-106000000D02*
X95724991Y-106024989D01*
X112000010Y-106000000D02*
X95749980Y-106000000D01*
X95724991Y-106024989D02*
X95499992Y-106249988D01*
X95699994Y-104800000D02*
X95500000Y-104999994D01*
X113300000Y-104800000D02*
X95699994Y-104800000D01*
X87000000Y-106000000D02*
X86000000Y-106000000D01*
X83474999Y-103474999D02*
X83250000Y-103250000D01*
X86000000Y-106000000D02*
X83474999Y-103474999D01*
X110574990Y-105369323D02*
X113944303Y-105369323D01*
X113944303Y-105369323D02*
X113974990Y-105400010D01*
X95752001Y-105525007D02*
X95907685Y-105369323D01*
X95907685Y-105369323D02*
X110256792Y-105369323D01*
X110256792Y-105369323D02*
X110574990Y-105369323D01*
X92499999Y-105800000D02*
X92774992Y-105525007D01*
X92774992Y-105525007D02*
X95752001Y-105525007D01*
X150850993Y-107724990D02*
X151169191Y-107724990D01*
X95802012Y-107724990D02*
X150850993Y-107724990D01*
X95277002Y-108250000D02*
X95802012Y-107724990D01*
X92122757Y-107724990D02*
X92647767Y-108250000D01*
X92647767Y-108250000D02*
X95277002Y-108250000D01*
X151931802Y-108500000D02*
X151681802Y-108250000D01*
X96000000Y-108250000D02*
X95500000Y-108750000D01*
X152250000Y-108500000D02*
X151931802Y-108500000D01*
X151681802Y-108250000D02*
X96000000Y-108250000D01*
X95500000Y-108750000D02*
X91999992Y-108750000D01*
X91999992Y-108750000D02*
X91499992Y-108250000D01*
X92818198Y-111500000D02*
X92500000Y-111500000D01*
X109350000Y-112199960D02*
X108650040Y-111500000D01*
X108650040Y-111500000D02*
X92818198Y-111500000D01*
X151724992Y-109749992D02*
X100250008Y-109749992D01*
X100250008Y-109749992D02*
X99775001Y-110224999D01*
X99775001Y-110224999D02*
X87224969Y-110224999D01*
X81224999Y-104225029D02*
X81000000Y-104000030D01*
X87224969Y-110224999D02*
X81224999Y-104225029D01*
X75750000Y-109500000D02*
X69250000Y-109500000D01*
X159000000Y-103710000D02*
X159000000Y-101974990D01*
X149449991Y-104199989D02*
X149399980Y-104250000D01*
X149399980Y-104250000D02*
X92000000Y-104250000D01*
X92000000Y-104250000D02*
X90724999Y-105525001D01*
X90724999Y-105525001D02*
X90500000Y-105750000D01*
X149674990Y-103974990D02*
X151824990Y-101824990D01*
X149449991Y-104199989D02*
X149674990Y-103974990D01*
G36*
X259175001Y-117675000D02*
G01*
X46825000Y-117675000D01*
X46825000Y-110835906D01*
X54755491Y-110835906D01*
X54856006Y-111104640D01*
X55007017Y-111348601D01*
X55202721Y-111558414D01*
X55435597Y-111726015D01*
X55696696Y-111844964D01*
X55794095Y-111874503D01*
X56019998Y-111765009D01*
X56019998Y-111845544D01*
X55941895Y-111853236D01*
X55722555Y-111919772D01*
X55520411Y-112027821D01*
X55343230Y-112173230D01*
X55197821Y-112350411D01*
X55089772Y-112552555D01*
X55023236Y-112771895D01*
X55000770Y-113000000D01*
X55023236Y-113228105D01*
X55089772Y-113447445D01*
X55197821Y-113649589D01*
X55343230Y-113826770D01*
X55520411Y-113972179D01*
X55722555Y-114080228D01*
X55941895Y-114146764D01*
X56112837Y-114163600D01*
X56227163Y-114163600D01*
X56398105Y-114146764D01*
X56617445Y-114080228D01*
X56819589Y-113972179D01*
X56996770Y-113826770D01*
X57142179Y-113649589D01*
X57250228Y-113447445D01*
X57316764Y-113228105D01*
X57339230Y-113000000D01*
X57316764Y-112771895D01*
X57250228Y-112552555D01*
X57142179Y-112350411D01*
X56996770Y-112173230D01*
X56819589Y-112027821D01*
X56617445Y-111919772D01*
X56398105Y-111853236D01*
X56320002Y-111845544D01*
X56320002Y-111765009D01*
X56545905Y-111874503D01*
X56643304Y-111844964D01*
X56904403Y-111726015D01*
X57137279Y-111558414D01*
X57332983Y-111348601D01*
X57483994Y-111104640D01*
X57584509Y-110835906D01*
X57475900Y-110610002D01*
X57555544Y-110610002D01*
X57563236Y-110688105D01*
X57629772Y-110907445D01*
X57737821Y-111109589D01*
X57883230Y-111286770D01*
X58060411Y-111432179D01*
X58262555Y-111540228D01*
X58481895Y-111606764D01*
X58652837Y-111623600D01*
X58767163Y-111623600D01*
X58938105Y-111606764D01*
X59157445Y-111540228D01*
X59359589Y-111432179D01*
X59536770Y-111286770D01*
X59682179Y-111109589D01*
X59790228Y-110907445D01*
X59856764Y-110688105D01*
X59879230Y-110460000D01*
X59856764Y-110231895D01*
X59790228Y-110012555D01*
X59766856Y-109968829D01*
X60335686Y-109400000D01*
X60764711Y-109400000D01*
X60600411Y-109487821D01*
X60423230Y-109633230D01*
X60277821Y-109810411D01*
X60169772Y-110012555D01*
X60103236Y-110231895D01*
X60080770Y-110460000D01*
X60103236Y-110688105D01*
X60169772Y-110907445D01*
X60277821Y-111109589D01*
X60423230Y-111286770D01*
X60500276Y-111350000D01*
X59979646Y-111350000D01*
X59960000Y-111348065D01*
X59940353Y-111350000D01*
X59881586Y-111355788D01*
X59806186Y-111378660D01*
X59759127Y-111403814D01*
X59736697Y-111415803D01*
X59691049Y-111453265D01*
X59691047Y-111453267D01*
X59675789Y-111465789D01*
X59663267Y-111481047D01*
X59201170Y-111943144D01*
X59157445Y-111919772D01*
X58938105Y-111853236D01*
X58767163Y-111836400D01*
X58652837Y-111836400D01*
X58481895Y-111853236D01*
X58262555Y-111919772D01*
X58060411Y-112027821D01*
X57883230Y-112173230D01*
X57737821Y-112350411D01*
X57629772Y-112552555D01*
X57563236Y-112771895D01*
X57540770Y-113000000D01*
X57563236Y-113228105D01*
X57629772Y-113447445D01*
X57737821Y-113649589D01*
X57883230Y-113826770D01*
X58060411Y-113972179D01*
X58262555Y-114080228D01*
X58481895Y-114146764D01*
X58652837Y-114163600D01*
X58767163Y-114163600D01*
X58938105Y-114146764D01*
X59157445Y-114080228D01*
X59359589Y-113972179D01*
X59536770Y-113826770D01*
X59682179Y-113649589D01*
X59790228Y-113447445D01*
X59856764Y-113228105D01*
X59879230Y-113000000D01*
X59856764Y-112771895D01*
X59790228Y-112552555D01*
X59766856Y-112508830D01*
X60084949Y-112190737D01*
X60084949Y-113863600D01*
X60090741Y-113922410D01*
X60107896Y-113978960D01*
X60135753Y-114031077D01*
X60173242Y-114076758D01*
X60218923Y-114114247D01*
X60271040Y-114142104D01*
X60327590Y-114159259D01*
X60386400Y-114165051D01*
X62113600Y-114165051D01*
X62172410Y-114159259D01*
X62228960Y-114142104D01*
X62281077Y-114114247D01*
X62326758Y-114076758D01*
X62364247Y-114031077D01*
X62392104Y-113978960D01*
X62409259Y-113922410D01*
X62414227Y-113871961D01*
X67950000Y-113871961D01*
X67950000Y-114128039D01*
X67999958Y-114379196D01*
X68097955Y-114615781D01*
X68240224Y-114828702D01*
X68421298Y-115009776D01*
X68634219Y-115152045D01*
X68870804Y-115250042D01*
X69121961Y-115300000D01*
X69378039Y-115300000D01*
X69629196Y-115250042D01*
X69865781Y-115152045D01*
X70078702Y-115009776D01*
X70259776Y-114828702D01*
X70402045Y-114615781D01*
X70500042Y-114379196D01*
X70550000Y-114128039D01*
X70550000Y-113871961D01*
X74450000Y-113871961D01*
X74450000Y-114128039D01*
X74499958Y-114379196D01*
X74597955Y-114615781D01*
X74740224Y-114828702D01*
X74921298Y-115009776D01*
X75134219Y-115152045D01*
X75370804Y-115250042D01*
X75621961Y-115300000D01*
X75878039Y-115300000D01*
X76129196Y-115250042D01*
X76365781Y-115152045D01*
X76578702Y-115009776D01*
X76759776Y-114828702D01*
X76902045Y-114615781D01*
X77000042Y-114379196D01*
X77050000Y-114128039D01*
X77050000Y-113871961D01*
X77000042Y-113620804D01*
X76902045Y-113384219D01*
X76759776Y-113171298D01*
X76578702Y-112990224D01*
X76365781Y-112847955D01*
X76129196Y-112749958D01*
X75878039Y-112700000D01*
X75621961Y-112700000D01*
X75370804Y-112749958D01*
X75134219Y-112847955D01*
X74921298Y-112990224D01*
X74740224Y-113171298D01*
X74597955Y-113384219D01*
X74499958Y-113620804D01*
X74450000Y-113871961D01*
X70550000Y-113871961D01*
X70500042Y-113620804D01*
X70402045Y-113384219D01*
X70259776Y-113171298D01*
X70078702Y-112990224D01*
X69865781Y-112847955D01*
X69629196Y-112749958D01*
X69378039Y-112700000D01*
X69121961Y-112700000D01*
X68870804Y-112749958D01*
X68634219Y-112847955D01*
X68421298Y-112990224D01*
X68240224Y-113171298D01*
X68097955Y-113384219D01*
X67999958Y-113620804D01*
X67950000Y-113871961D01*
X62414227Y-113871961D01*
X62415051Y-113863600D01*
X62415051Y-113387224D01*
X62467414Y-113371340D01*
X62536903Y-113334197D01*
X62597811Y-113284211D01*
X62610337Y-113268948D01*
X63229286Y-112650000D01*
X76393615Y-112650000D01*
X78762567Y-115018953D01*
X78775089Y-115034211D01*
X78790347Y-115046733D01*
X78790349Y-115046735D01*
X78835997Y-115084197D01*
X78905485Y-115121340D01*
X78980886Y-115144212D01*
X79059300Y-115151935D01*
X79078946Y-115150000D01*
X86480354Y-115150000D01*
X86500000Y-115151935D01*
X86519646Y-115150000D01*
X86519647Y-115150000D01*
X86578414Y-115144212D01*
X86653814Y-115121340D01*
X86723303Y-115084197D01*
X86784211Y-115034211D01*
X86796737Y-115018948D01*
X87040686Y-114775000D01*
X87051708Y-114775000D01*
X87153137Y-114754824D01*
X87248681Y-114715249D01*
X87334668Y-114657794D01*
X87375000Y-114617462D01*
X87415332Y-114657794D01*
X87501319Y-114715249D01*
X87596863Y-114754824D01*
X87698292Y-114775000D01*
X87801708Y-114775000D01*
X87903137Y-114754824D01*
X87998681Y-114715249D01*
X88084668Y-114657794D01*
X88157794Y-114584668D01*
X88215249Y-114498681D01*
X88254824Y-114403137D01*
X88275000Y-114301708D01*
X88275000Y-114198292D01*
X88254824Y-114096863D01*
X88215249Y-114001319D01*
X88214368Y-114000000D01*
X184598549Y-114000000D01*
X184598549Y-115500000D01*
X184609145Y-115607583D01*
X184640526Y-115711031D01*
X184691485Y-115806370D01*
X184760065Y-115889935D01*
X184843630Y-115958515D01*
X184938969Y-116009474D01*
X185042417Y-116040855D01*
X185150000Y-116051451D01*
X186350000Y-116051451D01*
X186457583Y-116040855D01*
X186561031Y-116009474D01*
X186656370Y-115958515D01*
X186739935Y-115889935D01*
X186808515Y-115806370D01*
X186859474Y-115711031D01*
X186890855Y-115607583D01*
X186901451Y-115500000D01*
X186901451Y-115426256D01*
X187013672Y-115657623D01*
X187185233Y-115884261D01*
X187397712Y-116073074D01*
X187642944Y-116216807D01*
X187876234Y-116301000D01*
X188100000Y-116191317D01*
X188100000Y-114900000D01*
X188400000Y-114900000D01*
X188400000Y-116191317D01*
X188623766Y-116301000D01*
X188857056Y-116216807D01*
X189102288Y-116073074D01*
X189314767Y-115884261D01*
X189486328Y-115657623D01*
X189610377Y-115401870D01*
X189682148Y-115126830D01*
X189550000Y-114900000D01*
X188400000Y-114900000D01*
X188100000Y-114900000D01*
X188080000Y-114900000D01*
X188080000Y-114600000D01*
X188100000Y-114600000D01*
X188100000Y-113308683D01*
X188400000Y-113308683D01*
X188400000Y-114600000D01*
X189550000Y-114600000D01*
X189682148Y-114373170D01*
X189610377Y-114098130D01*
X189562781Y-114000000D01*
X200598549Y-114000000D01*
X200598549Y-115500000D01*
X200609145Y-115607583D01*
X200640526Y-115711031D01*
X200691485Y-115806370D01*
X200760065Y-115889935D01*
X200843630Y-115958515D01*
X200938969Y-116009474D01*
X201042417Y-116040855D01*
X201150000Y-116051451D01*
X202350000Y-116051451D01*
X202457583Y-116040855D01*
X202561031Y-116009474D01*
X202656370Y-115958515D01*
X202739935Y-115889935D01*
X202808515Y-115806370D01*
X202859474Y-115711031D01*
X202890855Y-115607583D01*
X202901451Y-115500000D01*
X202901451Y-115426256D01*
X203013672Y-115657623D01*
X203185233Y-115884261D01*
X203397712Y-116073074D01*
X203642944Y-116216807D01*
X203876234Y-116301000D01*
X204100000Y-116191317D01*
X204100000Y-114900000D01*
X204400000Y-114900000D01*
X204400000Y-116191317D01*
X204623766Y-116301000D01*
X204857056Y-116216807D01*
X205102288Y-116073074D01*
X205314767Y-115884261D01*
X205486328Y-115657623D01*
X205610377Y-115401870D01*
X205682148Y-115126830D01*
X205550000Y-114900000D01*
X204400000Y-114900000D01*
X204100000Y-114900000D01*
X204080000Y-114900000D01*
X204080000Y-114600000D01*
X204100000Y-114600000D01*
X204100000Y-113308683D01*
X204400000Y-113308683D01*
X204400000Y-114600000D01*
X205550000Y-114600000D01*
X205682148Y-114373170D01*
X205610377Y-114098130D01*
X205486328Y-113842377D01*
X205321778Y-113625000D01*
X244823549Y-113625000D01*
X244823549Y-115375000D01*
X244829341Y-115433810D01*
X244846496Y-115490360D01*
X244874353Y-115542477D01*
X244911842Y-115588158D01*
X244957523Y-115625647D01*
X245009640Y-115653504D01*
X245066190Y-115670659D01*
X245125000Y-115676451D01*
X246875000Y-115676451D01*
X246933810Y-115670659D01*
X246990360Y-115653504D01*
X247042477Y-115625647D01*
X247088158Y-115588158D01*
X247125647Y-115542477D01*
X247125881Y-115542039D01*
X247670094Y-115542039D01*
X247754647Y-115781085D01*
X248018897Y-115901881D01*
X248301635Y-115968803D01*
X248591995Y-115979279D01*
X248878821Y-115932908D01*
X249151088Y-115831471D01*
X249245353Y-115781085D01*
X249329906Y-115542039D01*
X250170094Y-115542039D01*
X250254647Y-115781085D01*
X250518897Y-115901881D01*
X250801635Y-115968803D01*
X251091995Y-115979279D01*
X251378821Y-115932908D01*
X251651088Y-115831471D01*
X251745353Y-115781085D01*
X251829906Y-115542039D01*
X251000000Y-114712132D01*
X250170094Y-115542039D01*
X249329906Y-115542039D01*
X248500000Y-114712132D01*
X247670094Y-115542039D01*
X247125881Y-115542039D01*
X247153504Y-115490360D01*
X247170659Y-115433810D01*
X247176451Y-115375000D01*
X247176451Y-115165909D01*
X247218915Y-115245353D01*
X247457961Y-115329906D01*
X248287868Y-114500000D01*
X248712132Y-114500000D01*
X249542039Y-115329906D01*
X249750000Y-115256348D01*
X249957961Y-115329906D01*
X250787868Y-114500000D01*
X251212132Y-114500000D01*
X252042039Y-115329906D01*
X252281085Y-115245353D01*
X252401881Y-114981103D01*
X252468803Y-114698365D01*
X252479279Y-114408005D01*
X252432908Y-114121179D01*
X252331471Y-113848912D01*
X252281085Y-113754647D01*
X252042039Y-113670094D01*
X251212132Y-114500000D01*
X250787868Y-114500000D01*
X249957961Y-113670094D01*
X249750000Y-113743652D01*
X249542039Y-113670094D01*
X248712132Y-114500000D01*
X248287868Y-114500000D01*
X247457961Y-113670094D01*
X247218915Y-113754647D01*
X247176451Y-113847540D01*
X247176451Y-113625000D01*
X247170659Y-113566190D01*
X247153504Y-113509640D01*
X247125882Y-113457961D01*
X247670094Y-113457961D01*
X248500000Y-114287868D01*
X249329906Y-113457961D01*
X250170094Y-113457961D01*
X251000000Y-114287868D01*
X251829906Y-113457961D01*
X251745353Y-113218915D01*
X251481103Y-113098119D01*
X251198365Y-113031197D01*
X250908005Y-113020721D01*
X250621179Y-113067092D01*
X250348912Y-113168529D01*
X250254647Y-113218915D01*
X250170094Y-113457961D01*
X249329906Y-113457961D01*
X249245353Y-113218915D01*
X248981103Y-113098119D01*
X248698365Y-113031197D01*
X248408005Y-113020721D01*
X248121179Y-113067092D01*
X247848912Y-113168529D01*
X247754647Y-113218915D01*
X247670094Y-113457961D01*
X247125882Y-113457961D01*
X247125647Y-113457523D01*
X247088158Y-113411842D01*
X247042477Y-113374353D01*
X246990360Y-113346496D01*
X246933810Y-113329341D01*
X246875000Y-113323549D01*
X245125000Y-113323549D01*
X245066190Y-113329341D01*
X245009640Y-113346496D01*
X244957523Y-113374353D01*
X244911842Y-113411842D01*
X244874353Y-113457523D01*
X244846496Y-113509640D01*
X244829341Y-113566190D01*
X244823549Y-113625000D01*
X205321778Y-113625000D01*
X205314767Y-113615739D01*
X205102288Y-113426926D01*
X204857056Y-113283193D01*
X204623766Y-113199000D01*
X204400000Y-113308683D01*
X204100000Y-113308683D01*
X203876234Y-113199000D01*
X203642944Y-113283193D01*
X203397712Y-113426926D01*
X203185233Y-113615739D01*
X203013672Y-113842377D01*
X202901451Y-114073744D01*
X202901451Y-114000000D01*
X202890855Y-113892417D01*
X202859474Y-113788969D01*
X202808515Y-113693630D01*
X202739935Y-113610065D01*
X202656370Y-113541485D01*
X202561031Y-113490526D01*
X202457583Y-113459145D01*
X202350000Y-113448549D01*
X201150000Y-113448549D01*
X201042417Y-113459145D01*
X200938969Y-113490526D01*
X200843630Y-113541485D01*
X200760065Y-113610065D01*
X200691485Y-113693630D01*
X200640526Y-113788969D01*
X200609145Y-113892417D01*
X200598549Y-114000000D01*
X189562781Y-114000000D01*
X189486328Y-113842377D01*
X189314767Y-113615739D01*
X189102288Y-113426926D01*
X188857056Y-113283193D01*
X188623766Y-113199000D01*
X188400000Y-113308683D01*
X188100000Y-113308683D01*
X187876234Y-113199000D01*
X187642944Y-113283193D01*
X187397712Y-113426926D01*
X187185233Y-113615739D01*
X187013672Y-113842377D01*
X186901451Y-114073744D01*
X186901451Y-114000000D01*
X186890855Y-113892417D01*
X186859474Y-113788969D01*
X186808515Y-113693630D01*
X186739935Y-113610065D01*
X186656370Y-113541485D01*
X186561031Y-113490526D01*
X186457583Y-113459145D01*
X186350000Y-113448549D01*
X185150000Y-113448549D01*
X185042417Y-113459145D01*
X184938969Y-113490526D01*
X184843630Y-113541485D01*
X184760065Y-113610065D01*
X184691485Y-113693630D01*
X184640526Y-113788969D01*
X184609145Y-113892417D01*
X184598549Y-114000000D01*
X88214368Y-114000000D01*
X88157794Y-113915332D01*
X88084668Y-113842206D01*
X87998681Y-113784751D01*
X87903137Y-113745176D01*
X87801708Y-113725000D01*
X87790686Y-113725000D01*
X87296735Y-113231050D01*
X87284211Y-113215789D01*
X87223303Y-113165803D01*
X87153814Y-113128660D01*
X87078414Y-113105788D01*
X87019647Y-113100000D01*
X87019646Y-113100000D01*
X87000000Y-113098065D01*
X86980354Y-113100000D01*
X79415685Y-113100000D01*
X77763977Y-111448292D01*
X91975000Y-111448292D01*
X91975000Y-111551708D01*
X91995176Y-111653137D01*
X92034751Y-111748681D01*
X92092206Y-111834668D01*
X92165332Y-111907794D01*
X92251319Y-111965249D01*
X92346863Y-112004824D01*
X92448292Y-112025000D01*
X92551708Y-112025000D01*
X92653137Y-112004824D01*
X92748681Y-111965249D01*
X92834668Y-111907794D01*
X92842462Y-111900000D01*
X108484355Y-111900000D01*
X108825000Y-112240646D01*
X108825000Y-112251668D01*
X108845176Y-112353097D01*
X108884751Y-112448641D01*
X108942206Y-112534628D01*
X109015332Y-112607754D01*
X109101319Y-112665209D01*
X109196863Y-112704784D01*
X109298292Y-112724960D01*
X109401708Y-112724960D01*
X109503137Y-112704784D01*
X109598681Y-112665209D01*
X109684668Y-112607754D01*
X109757794Y-112534628D01*
X109815249Y-112448641D01*
X109854824Y-112353097D01*
X109875000Y-112251668D01*
X109875000Y-112148252D01*
X109854824Y-112046823D01*
X109815249Y-111951279D01*
X109757794Y-111865292D01*
X109684668Y-111792166D01*
X109598681Y-111734711D01*
X109503137Y-111695136D01*
X109401708Y-111674960D01*
X109390686Y-111674960D01*
X108946777Y-111231052D01*
X108934251Y-111215789D01*
X108873343Y-111165803D01*
X108803854Y-111128660D01*
X108728454Y-111105788D01*
X108669687Y-111100000D01*
X108669686Y-111100000D01*
X108650040Y-111098065D01*
X108630394Y-111100000D01*
X92842462Y-111100000D01*
X92834668Y-111092206D01*
X92748681Y-111034751D01*
X92653137Y-110995176D01*
X92551708Y-110975000D01*
X92448292Y-110975000D01*
X92346863Y-110995176D01*
X92251319Y-111034751D01*
X92165332Y-111092206D01*
X92092206Y-111165332D01*
X92034751Y-111251319D01*
X91995176Y-111346863D01*
X91975000Y-111448292D01*
X77763977Y-111448292D01*
X77296735Y-110981050D01*
X77284211Y-110965789D01*
X77223303Y-110915803D01*
X77153814Y-110878660D01*
X77078414Y-110855788D01*
X77019647Y-110850000D01*
X77019646Y-110850000D01*
X77000000Y-110848065D01*
X76980354Y-110850000D01*
X64415685Y-110850000D01*
X62937646Y-109371961D01*
X67950000Y-109371961D01*
X67950000Y-109628039D01*
X67999958Y-109879196D01*
X68097955Y-110115781D01*
X68240224Y-110328702D01*
X68421298Y-110509776D01*
X68634219Y-110652045D01*
X68870804Y-110750042D01*
X69121961Y-110800000D01*
X69378039Y-110800000D01*
X69629196Y-110750042D01*
X69865781Y-110652045D01*
X70078702Y-110509776D01*
X70259776Y-110328702D01*
X70402045Y-110115781D01*
X70491425Y-109900000D01*
X74508575Y-109900000D01*
X74597955Y-110115781D01*
X74740224Y-110328702D01*
X74921298Y-110509776D01*
X75134219Y-110652045D01*
X75370804Y-110750042D01*
X75621961Y-110800000D01*
X75878039Y-110800000D01*
X76129196Y-110750042D01*
X76365781Y-110652045D01*
X76578702Y-110509776D01*
X76759776Y-110328702D01*
X76902045Y-110115781D01*
X77000042Y-109879196D01*
X77050000Y-109628039D01*
X77050000Y-109371961D01*
X77000042Y-109120804D01*
X76902045Y-108884219D01*
X76759776Y-108671298D01*
X76578702Y-108490224D01*
X76365781Y-108347955D01*
X76129196Y-108249958D01*
X75878039Y-108200000D01*
X75621961Y-108200000D01*
X75370804Y-108249958D01*
X75134219Y-108347955D01*
X74921298Y-108490224D01*
X74740224Y-108671298D01*
X74597955Y-108884219D01*
X74508575Y-109100000D01*
X70491425Y-109100000D01*
X70402045Y-108884219D01*
X70259776Y-108671298D01*
X70078702Y-108490224D01*
X69865781Y-108347955D01*
X69629196Y-108249958D01*
X69378039Y-108200000D01*
X69121961Y-108200000D01*
X68870804Y-108249958D01*
X68634219Y-108347955D01*
X68421298Y-108490224D01*
X68240224Y-108671298D01*
X68097955Y-108884219D01*
X67999958Y-109120804D01*
X67950000Y-109371961D01*
X62937646Y-109371961D01*
X62296737Y-108731052D01*
X62284211Y-108715789D01*
X62223303Y-108665803D01*
X62153814Y-108628660D01*
X62078414Y-108605788D01*
X62019647Y-108600000D01*
X62019646Y-108600000D01*
X62000000Y-108598065D01*
X61980354Y-108600000D01*
X60189647Y-108600000D01*
X60170000Y-108598065D01*
X60091586Y-108605788D01*
X60016186Y-108628660D01*
X59946697Y-108665803D01*
X59901049Y-108703265D01*
X59901047Y-108703267D01*
X59885789Y-108715789D01*
X59873267Y-108731047D01*
X59201171Y-109403144D01*
X59157445Y-109379772D01*
X58938105Y-109313236D01*
X58767163Y-109296400D01*
X58652837Y-109296400D01*
X58481895Y-109313236D01*
X58262555Y-109379772D01*
X58060411Y-109487821D01*
X57883230Y-109633230D01*
X57737821Y-109810411D01*
X57629772Y-110012555D01*
X57563236Y-110231895D01*
X57555544Y-110309998D01*
X57475900Y-110309998D01*
X57584509Y-110084094D01*
X57483994Y-109815360D01*
X57332983Y-109571399D01*
X57137279Y-109361586D01*
X56904403Y-109193985D01*
X56643304Y-109075036D01*
X56545905Y-109045497D01*
X56320000Y-109154992D01*
X56320000Y-110310000D01*
X56340000Y-110310000D01*
X56340000Y-110610000D01*
X56320000Y-110610000D01*
X56320000Y-110630000D01*
X56020000Y-110630000D01*
X56020000Y-110610000D01*
X54864101Y-110610000D01*
X54755491Y-110835906D01*
X46825000Y-110835906D01*
X46825000Y-110084094D01*
X54755491Y-110084094D01*
X54864101Y-110310000D01*
X56020000Y-110310000D01*
X56020000Y-109154992D01*
X55794095Y-109045497D01*
X55696696Y-109075036D01*
X55435597Y-109193985D01*
X55202721Y-109361586D01*
X55007017Y-109571399D01*
X54856006Y-109815360D01*
X54755491Y-110084094D01*
X46825000Y-110084094D01*
X46825000Y-103948322D01*
X80475000Y-103948322D01*
X80475000Y-104051738D01*
X80495176Y-104153167D01*
X80534751Y-104248711D01*
X80592206Y-104334698D01*
X80665332Y-104407824D01*
X80751319Y-104465279D01*
X80846863Y-104504854D01*
X80948292Y-104525030D01*
X80959315Y-104525030D01*
X86928236Y-110493952D01*
X86940758Y-110509210D01*
X86956016Y-110521732D01*
X86956018Y-110521734D01*
X86974018Y-110536506D01*
X87001666Y-110559196D01*
X87071155Y-110596339D01*
X87146555Y-110619211D01*
X87224969Y-110626934D01*
X87244615Y-110624999D01*
X99755355Y-110624999D01*
X99775001Y-110626934D01*
X99794647Y-110624999D01*
X99794648Y-110624999D01*
X99853415Y-110619211D01*
X99928815Y-110596339D01*
X99998304Y-110559196D01*
X100059212Y-110509210D01*
X100071738Y-110493947D01*
X100415693Y-110149992D01*
X151382530Y-110149992D01*
X151390324Y-110157786D01*
X151476311Y-110215241D01*
X151571855Y-110254816D01*
X151673284Y-110274992D01*
X151776700Y-110274992D01*
X151878129Y-110254816D01*
X151973673Y-110215241D01*
X152059660Y-110157786D01*
X152132786Y-110084660D01*
X152190241Y-109998673D01*
X152229816Y-109903129D01*
X152232427Y-109890000D01*
X157397097Y-109890000D01*
X157408682Y-110007621D01*
X157442990Y-110120721D01*
X157498704Y-110224955D01*
X157573683Y-110316317D01*
X157665045Y-110391296D01*
X157769279Y-110447010D01*
X157882379Y-110481318D01*
X158000000Y-110492903D01*
X158700000Y-110490000D01*
X158850000Y-110340000D01*
X158850000Y-108940000D01*
X159150000Y-108940000D01*
X159150000Y-110340000D01*
X159300000Y-110490000D01*
X160000000Y-110492903D01*
X160117621Y-110481318D01*
X160230721Y-110447010D01*
X160334955Y-110391296D01*
X160426317Y-110316317D01*
X160501296Y-110224955D01*
X160557010Y-110120721D01*
X160591318Y-110007621D01*
X160602903Y-109890000D01*
X160602853Y-109876140D01*
X165775992Y-109876140D01*
X165966177Y-110204699D01*
X166379607Y-110412931D01*
X166825717Y-110536506D01*
X167287364Y-110570674D01*
X167746806Y-110514123D01*
X168186387Y-110369026D01*
X168493823Y-110204699D01*
X168684008Y-109876140D01*
X177815992Y-109876140D01*
X178006177Y-110204699D01*
X178419607Y-110412931D01*
X178865717Y-110536506D01*
X179327364Y-110570674D01*
X179786806Y-110514123D01*
X180226387Y-110369026D01*
X180533823Y-110204699D01*
X180724008Y-109876140D01*
X179270000Y-108422132D01*
X177815992Y-109876140D01*
X168684008Y-109876140D01*
X167230000Y-108422132D01*
X165775992Y-109876140D01*
X160602853Y-109876140D01*
X160600000Y-109090000D01*
X160450000Y-108940000D01*
X159150000Y-108940000D01*
X158850000Y-108940000D01*
X157550000Y-108940000D01*
X157400000Y-109090000D01*
X157397097Y-109890000D01*
X152232427Y-109890000D01*
X152249992Y-109801700D01*
X152249992Y-109698284D01*
X152229816Y-109596855D01*
X152190241Y-109501311D01*
X152132786Y-109415324D01*
X152059660Y-109342198D01*
X151973673Y-109284743D01*
X151878129Y-109245168D01*
X151776700Y-109224992D01*
X151673284Y-109224992D01*
X151571855Y-109245168D01*
X151476311Y-109284743D01*
X151390324Y-109342198D01*
X151382530Y-109349992D01*
X100269643Y-109349992D01*
X100250007Y-109348058D01*
X100230371Y-109349992D01*
X100230361Y-109349992D01*
X100171594Y-109355780D01*
X100096194Y-109378652D01*
X100026705Y-109415795D01*
X99965797Y-109465781D01*
X99953271Y-109481044D01*
X99609316Y-109824999D01*
X87390655Y-109824999D01*
X85763948Y-108198292D01*
X90974992Y-108198292D01*
X90974992Y-108301708D01*
X90995168Y-108403137D01*
X91034743Y-108498681D01*
X91092198Y-108584668D01*
X91165324Y-108657794D01*
X91251311Y-108715249D01*
X91346855Y-108754824D01*
X91448284Y-108775000D01*
X91459307Y-108775000D01*
X91703259Y-109018953D01*
X91715781Y-109034211D01*
X91731039Y-109046733D01*
X91731041Y-109046735D01*
X91776689Y-109084197D01*
X91846178Y-109121340D01*
X91921578Y-109144212D01*
X91999992Y-109151935D01*
X92019639Y-109150000D01*
X95480354Y-109150000D01*
X95500000Y-109151935D01*
X95519646Y-109150000D01*
X95519647Y-109150000D01*
X95578414Y-109144212D01*
X95653814Y-109121340D01*
X95723303Y-109084197D01*
X95784211Y-109034211D01*
X95796737Y-109018948D01*
X96165686Y-108650000D01*
X151516117Y-108650000D01*
X151635061Y-108768943D01*
X151647591Y-108784211D01*
X151708499Y-108834197D01*
X151777988Y-108871340D01*
X151853388Y-108894212D01*
X151907034Y-108899496D01*
X151915332Y-108907794D01*
X152001319Y-108965249D01*
X152096863Y-109004824D01*
X152198292Y-109025000D01*
X152301708Y-109025000D01*
X152403137Y-109004824D01*
X152498681Y-108965249D01*
X152584668Y-108907794D01*
X152657794Y-108834668D01*
X152715249Y-108748681D01*
X152754824Y-108653137D01*
X152775000Y-108551708D01*
X152775000Y-108448292D01*
X152754824Y-108346863D01*
X152715249Y-108251319D01*
X152657794Y-108165332D01*
X152584668Y-108092206D01*
X152498681Y-108034751D01*
X152403137Y-107995176D01*
X152301708Y-107975000D01*
X152198292Y-107975000D01*
X152096863Y-107995176D01*
X152023182Y-108025695D01*
X151978537Y-107981050D01*
X151966013Y-107965789D01*
X151905105Y-107915803D01*
X151835616Y-107878660D01*
X151760216Y-107855788D01*
X151701449Y-107850000D01*
X151701448Y-107850000D01*
X151681802Y-107848065D01*
X151679959Y-107848247D01*
X151694191Y-107776698D01*
X151694191Y-107690000D01*
X157397097Y-107690000D01*
X157400000Y-108490000D01*
X157550000Y-108640000D01*
X158850000Y-108640000D01*
X158850000Y-107240000D01*
X159150000Y-107240000D01*
X159150000Y-108640000D01*
X160450000Y-108640000D01*
X160600000Y-108490000D01*
X160600807Y-108267364D01*
X164869326Y-108267364D01*
X164925877Y-108726806D01*
X165070974Y-109166387D01*
X165235301Y-109473823D01*
X165563860Y-109664008D01*
X167017868Y-108210000D01*
X167442132Y-108210000D01*
X168896140Y-109664008D01*
X169224699Y-109473823D01*
X169432931Y-109060393D01*
X169556506Y-108614283D01*
X169582182Y-108267364D01*
X176909326Y-108267364D01*
X176965877Y-108726806D01*
X177110974Y-109166387D01*
X177275301Y-109473823D01*
X177603860Y-109664008D01*
X179057868Y-108210000D01*
X179482132Y-108210000D01*
X180936140Y-109664008D01*
X181264699Y-109473823D01*
X181472931Y-109060393D01*
X181596506Y-108614283D01*
X181630674Y-108152636D01*
X181574123Y-107693194D01*
X181429026Y-107253613D01*
X181264699Y-106946177D01*
X180936140Y-106755992D01*
X179482132Y-108210000D01*
X179057868Y-108210000D01*
X177603860Y-106755992D01*
X177275301Y-106946177D01*
X177067069Y-107359607D01*
X176943494Y-107805717D01*
X176909326Y-108267364D01*
X169582182Y-108267364D01*
X169590674Y-108152636D01*
X169534123Y-107693194D01*
X169389026Y-107253613D01*
X169224699Y-106946177D01*
X168896140Y-106755992D01*
X167442132Y-108210000D01*
X167017868Y-108210000D01*
X165563860Y-106755992D01*
X165235301Y-106946177D01*
X165027069Y-107359607D01*
X164903494Y-107805717D01*
X164869326Y-108267364D01*
X160600807Y-108267364D01*
X160602903Y-107690000D01*
X160591318Y-107572379D01*
X160557010Y-107459279D01*
X160501296Y-107355045D01*
X160426317Y-107263683D01*
X160334955Y-107188704D01*
X160230721Y-107132990D01*
X160117621Y-107098682D01*
X160000000Y-107087097D01*
X159300000Y-107090000D01*
X159150000Y-107240000D01*
X158850000Y-107240000D01*
X158700000Y-107090000D01*
X158000000Y-107087097D01*
X157882379Y-107098682D01*
X157769279Y-107132990D01*
X157665045Y-107188704D01*
X157573683Y-107263683D01*
X157498704Y-107355045D01*
X157442990Y-107459279D01*
X157408682Y-107572379D01*
X157397097Y-107690000D01*
X151694191Y-107690000D01*
X151694191Y-107673282D01*
X151674015Y-107571853D01*
X151634440Y-107476309D01*
X151576985Y-107390322D01*
X151503859Y-107317196D01*
X151417872Y-107259741D01*
X151322328Y-107220166D01*
X151220899Y-107199990D01*
X151117483Y-107199990D01*
X151016054Y-107220166D01*
X150920510Y-107259741D01*
X150834523Y-107317196D01*
X150826729Y-107324990D01*
X95821647Y-107324990D01*
X95802011Y-107323056D01*
X95782375Y-107324990D01*
X95782365Y-107324990D01*
X95723598Y-107330778D01*
X95648198Y-107353650D01*
X95578709Y-107390793D01*
X95578707Y-107390794D01*
X95578708Y-107390794D01*
X95533061Y-107428255D01*
X95533059Y-107428257D01*
X95517801Y-107440779D01*
X95505279Y-107456037D01*
X95111317Y-107850000D01*
X92813453Y-107850000D01*
X92647757Y-107684305D01*
X92647757Y-107673282D01*
X92627581Y-107571853D01*
X92588006Y-107476309D01*
X92530551Y-107390322D01*
X92457425Y-107317196D01*
X92371438Y-107259741D01*
X92275894Y-107220166D01*
X92174465Y-107199990D01*
X92071049Y-107199990D01*
X91969620Y-107220166D01*
X91874076Y-107259741D01*
X91788089Y-107317196D01*
X91714963Y-107390322D01*
X91657508Y-107476309D01*
X91617933Y-107571853D01*
X91597757Y-107673282D01*
X91597757Y-107734162D01*
X91551700Y-107725000D01*
X91448284Y-107725000D01*
X91346855Y-107745176D01*
X91251311Y-107784751D01*
X91165324Y-107842206D01*
X91092198Y-107915332D01*
X91034743Y-108001319D01*
X90995168Y-108096863D01*
X90974992Y-108198292D01*
X85763948Y-108198292D01*
X81525000Y-103959345D01*
X81525000Y-103948322D01*
X81504824Y-103846893D01*
X81465249Y-103751349D01*
X81407794Y-103665362D01*
X81334668Y-103592236D01*
X81248681Y-103534781D01*
X81153137Y-103495206D01*
X81051708Y-103475030D01*
X80948292Y-103475030D01*
X80846863Y-103495206D01*
X80751319Y-103534781D01*
X80665332Y-103592236D01*
X80592206Y-103665362D01*
X80534751Y-103751349D01*
X80495176Y-103846893D01*
X80475000Y-103948322D01*
X46825000Y-103948322D01*
X46825000Y-103198292D01*
X82725000Y-103198292D01*
X82725000Y-103301708D01*
X82745176Y-103403137D01*
X82784751Y-103498681D01*
X82842206Y-103584668D01*
X82915332Y-103657794D01*
X83001319Y-103715249D01*
X83096863Y-103754824D01*
X83198292Y-103775000D01*
X83209315Y-103775000D01*
X85703263Y-106268948D01*
X85715789Y-106284211D01*
X85769635Y-106328401D01*
X85776697Y-106334197D01*
X85846186Y-106371340D01*
X85921586Y-106394212D01*
X86000000Y-106401935D01*
X86019647Y-106400000D01*
X86657538Y-106400000D01*
X86665332Y-106407794D01*
X86751319Y-106465249D01*
X86846863Y-106504824D01*
X86948292Y-106525000D01*
X87051708Y-106525000D01*
X87153137Y-106504824D01*
X87248681Y-106465249D01*
X87334668Y-106407794D01*
X87407794Y-106334668D01*
X87465249Y-106248681D01*
X87504824Y-106153137D01*
X87525000Y-106051708D01*
X87525000Y-105948292D01*
X87504824Y-105846863D01*
X87465249Y-105751319D01*
X87429818Y-105698292D01*
X89975000Y-105698292D01*
X89975000Y-105801708D01*
X89995176Y-105903137D01*
X90034751Y-105998681D01*
X90092206Y-106084668D01*
X90165332Y-106157794D01*
X90251319Y-106215249D01*
X90346863Y-106254824D01*
X90448292Y-106275000D01*
X90551708Y-106275000D01*
X90653137Y-106254824D01*
X90748681Y-106215249D01*
X90834668Y-106157794D01*
X90907794Y-106084668D01*
X90965249Y-105998681D01*
X91004824Y-105903137D01*
X91025000Y-105801708D01*
X91025000Y-105790685D01*
X92165685Y-104650000D01*
X95107532Y-104650000D01*
X95092206Y-104665326D01*
X95034751Y-104751313D01*
X94995176Y-104846857D01*
X94975000Y-104948286D01*
X94975000Y-105051702D01*
X94989582Y-105125007D01*
X92794639Y-105125007D01*
X92774992Y-105123072D01*
X92696578Y-105130795D01*
X92621178Y-105153667D01*
X92551689Y-105190810D01*
X92506041Y-105228272D01*
X92506039Y-105228274D01*
X92490781Y-105240796D01*
X92478262Y-105256051D01*
X92459313Y-105275000D01*
X92448291Y-105275000D01*
X92346862Y-105295176D01*
X92251318Y-105334751D01*
X92165331Y-105392206D01*
X92092205Y-105465332D01*
X92034750Y-105551319D01*
X91995175Y-105646863D01*
X91974999Y-105748292D01*
X91974999Y-105851708D01*
X91995175Y-105953137D01*
X92034750Y-106048681D01*
X92092205Y-106134668D01*
X92165331Y-106207794D01*
X92251318Y-106265249D01*
X92346862Y-106304824D01*
X92448291Y-106325000D01*
X92551707Y-106325000D01*
X92653136Y-106304824D01*
X92748680Y-106265249D01*
X92834667Y-106207794D01*
X92907793Y-106134668D01*
X92965248Y-106048681D01*
X93004823Y-105953137D01*
X93010419Y-105925007D01*
X95085725Y-105925007D01*
X95034743Y-106001307D01*
X94995168Y-106096851D01*
X94974992Y-106198280D01*
X94974992Y-106301696D01*
X94995168Y-106403125D01*
X95034743Y-106498669D01*
X95092198Y-106584656D01*
X95165324Y-106657782D01*
X95251311Y-106715237D01*
X95346855Y-106754812D01*
X95448284Y-106774988D01*
X95551700Y-106774988D01*
X95653129Y-106754812D01*
X95748673Y-106715237D01*
X95834660Y-106657782D01*
X95907786Y-106584656D01*
X95935045Y-106543860D01*
X165775992Y-106543860D01*
X167230000Y-107997868D01*
X168684008Y-106543860D01*
X168672605Y-106524159D01*
X171187973Y-106524159D01*
X171269491Y-106760655D01*
X171529469Y-106878948D01*
X171807529Y-106944248D01*
X172092986Y-106954046D01*
X172374870Y-106907967D01*
X172642347Y-106807780D01*
X172730509Y-106760655D01*
X172812027Y-106524159D01*
X172000000Y-105712132D01*
X171187973Y-106524159D01*
X168672605Y-106524159D01*
X168493823Y-106215301D01*
X168080393Y-106007069D01*
X167634283Y-105883494D01*
X167172636Y-105849326D01*
X166713194Y-105905877D01*
X166273613Y-106050974D01*
X165966177Y-106215301D01*
X165775992Y-106543860D01*
X95935045Y-106543860D01*
X95965241Y-106498669D01*
X96004816Y-106403125D01*
X96005438Y-106400000D01*
X111657548Y-106400000D01*
X111665342Y-106407794D01*
X111751329Y-106465249D01*
X111846873Y-106504824D01*
X111948302Y-106525000D01*
X112051718Y-106525000D01*
X112153147Y-106504824D01*
X112248691Y-106465249D01*
X112334678Y-106407794D01*
X112407804Y-106334668D01*
X112465259Y-106248681D01*
X112504834Y-106153137D01*
X112525010Y-106051708D01*
X112525010Y-105948292D01*
X112504834Y-105846863D01*
X112472716Y-105769323D01*
X113601841Y-105769323D01*
X113640322Y-105807804D01*
X113726309Y-105865259D01*
X113821853Y-105904834D01*
X113923282Y-105925010D01*
X114026698Y-105925010D01*
X114128127Y-105904834D01*
X114223671Y-105865259D01*
X114309658Y-105807804D01*
X114382784Y-105734678D01*
X114440239Y-105648691D01*
X114463312Y-105592986D01*
X170545954Y-105592986D01*
X170592033Y-105874870D01*
X170692220Y-106142347D01*
X170739345Y-106230509D01*
X170975841Y-106312027D01*
X171787868Y-105500000D01*
X171773726Y-105485858D01*
X171985858Y-105273726D01*
X172000000Y-105287868D01*
X172014143Y-105273726D01*
X172226275Y-105485858D01*
X172212132Y-105500000D01*
X173024159Y-106312027D01*
X173260655Y-106230509D01*
X173378948Y-105970531D01*
X173404710Y-105860831D01*
X173480884Y-106044729D01*
X173606737Y-106233082D01*
X173766918Y-106393263D01*
X173955271Y-106519116D01*
X174164557Y-106605806D01*
X174386735Y-106650000D01*
X174613265Y-106650000D01*
X174835443Y-106605806D01*
X174984992Y-106543860D01*
X177815992Y-106543860D01*
X179270000Y-107997868D01*
X180724008Y-106543860D01*
X180533823Y-106215301D01*
X180120393Y-106007069D01*
X179674283Y-105883494D01*
X179212636Y-105849326D01*
X178753194Y-105905877D01*
X178313613Y-106050974D01*
X178006177Y-106215301D01*
X177815992Y-106543860D01*
X174984992Y-106543860D01*
X175044729Y-106519116D01*
X175233082Y-106393263D01*
X175393263Y-106233082D01*
X175519116Y-106044729D01*
X175605806Y-105835443D01*
X175650000Y-105613265D01*
X175650000Y-105386735D01*
X175605806Y-105164557D01*
X175519116Y-104955271D01*
X175393263Y-104766918D01*
X175233082Y-104606737D01*
X175073338Y-104500000D01*
X175233082Y-104393263D01*
X175393263Y-104233082D01*
X175519116Y-104044729D01*
X175605806Y-103835443D01*
X175650000Y-103613265D01*
X175650000Y-103386735D01*
X175605806Y-103164557D01*
X175519116Y-102955271D01*
X175393263Y-102766918D01*
X175233082Y-102606737D01*
X175044729Y-102480884D01*
X174835443Y-102394194D01*
X174613265Y-102350000D01*
X174386735Y-102350000D01*
X174164557Y-102394194D01*
X173955271Y-102480884D01*
X173766918Y-102606737D01*
X173606737Y-102766918D01*
X173480884Y-102955271D01*
X173394194Y-103164557D01*
X173350000Y-103386735D01*
X173350000Y-103613265D01*
X173394194Y-103835443D01*
X173480884Y-104044729D01*
X173606737Y-104233082D01*
X173766918Y-104393263D01*
X173926662Y-104500000D01*
X173766918Y-104606737D01*
X173606737Y-104766918D01*
X173480884Y-104955271D01*
X173408691Y-105129559D01*
X173407967Y-105125130D01*
X173307780Y-104857653D01*
X173260655Y-104769491D01*
X173024161Y-104687974D01*
X173135991Y-104576144D01*
X173090134Y-104530287D01*
X173100647Y-104517477D01*
X173128504Y-104465360D01*
X173145659Y-104408810D01*
X173151451Y-104350000D01*
X173151451Y-102650000D01*
X173145659Y-102591190D01*
X173128504Y-102534640D01*
X173100647Y-102482523D01*
X173063158Y-102436842D01*
X173017477Y-102399353D01*
X172965360Y-102371496D01*
X172908810Y-102354341D01*
X172850000Y-102348549D01*
X171150000Y-102348549D01*
X171091190Y-102354341D01*
X171034640Y-102371496D01*
X170982523Y-102399353D01*
X170936842Y-102436842D01*
X170899353Y-102482523D01*
X170871496Y-102534640D01*
X170854341Y-102591190D01*
X170848549Y-102650000D01*
X170848549Y-104350000D01*
X170854341Y-104408810D01*
X170871496Y-104465360D01*
X170899353Y-104517477D01*
X170909866Y-104530287D01*
X170864009Y-104576144D01*
X170975839Y-104687974D01*
X170739345Y-104769491D01*
X170621052Y-105029469D01*
X170555752Y-105307529D01*
X170545954Y-105592986D01*
X114463312Y-105592986D01*
X114479814Y-105553147D01*
X114499990Y-105451718D01*
X114499990Y-105348302D01*
X114479814Y-105246873D01*
X114440239Y-105151329D01*
X114382784Y-105065342D01*
X114309658Y-104992216D01*
X114223671Y-104934761D01*
X114128127Y-104895186D01*
X114026698Y-104875010D01*
X113923282Y-104875010D01*
X113821853Y-104895186D01*
X113815857Y-104897669D01*
X113825000Y-104851708D01*
X113825000Y-104748292D01*
X113805448Y-104650000D01*
X149380334Y-104650000D01*
X149399980Y-104651935D01*
X149419626Y-104650000D01*
X149419627Y-104650000D01*
X149478394Y-104644212D01*
X149553794Y-104621340D01*
X149623283Y-104584197D01*
X149684191Y-104534211D01*
X149696717Y-104518948D01*
X149746727Y-104468938D01*
X149943935Y-104271729D01*
X149943940Y-104271725D01*
X151355665Y-102860000D01*
X157698549Y-102860000D01*
X157698549Y-104560000D01*
X157709145Y-104667583D01*
X157740526Y-104771031D01*
X157791485Y-104866370D01*
X157860065Y-104949935D01*
X157943630Y-105018515D01*
X158038969Y-105069474D01*
X158142417Y-105100855D01*
X158250000Y-105111451D01*
X159750000Y-105111451D01*
X159857583Y-105100855D01*
X159961031Y-105069474D01*
X160056370Y-105018515D01*
X160139935Y-104949935D01*
X160208515Y-104866370D01*
X160259474Y-104771031D01*
X160290855Y-104667583D01*
X160301451Y-104560000D01*
X160301451Y-102860000D01*
X160290855Y-102752417D01*
X160259474Y-102648969D01*
X160208515Y-102553630D01*
X160139935Y-102470065D01*
X160056370Y-102401485D01*
X159961031Y-102350526D01*
X159857583Y-102319145D01*
X159750000Y-102308549D01*
X159408535Y-102308549D01*
X159465249Y-102223671D01*
X159504824Y-102128127D01*
X159525000Y-102026698D01*
X159525000Y-101923282D01*
X159504824Y-101821853D01*
X159465249Y-101726309D01*
X159407794Y-101640322D01*
X159334668Y-101567196D01*
X159248681Y-101509741D01*
X159153137Y-101470166D01*
X159051708Y-101449990D01*
X158948292Y-101449990D01*
X158846863Y-101470166D01*
X158751319Y-101509741D01*
X158665332Y-101567196D01*
X158592206Y-101640322D01*
X158534751Y-101726309D01*
X158495176Y-101821853D01*
X158475000Y-101923282D01*
X158475000Y-102026698D01*
X158495176Y-102128127D01*
X158534751Y-102223671D01*
X158591465Y-102308549D01*
X158250000Y-102308549D01*
X158142417Y-102319145D01*
X158038969Y-102350526D01*
X157943630Y-102401485D01*
X157860065Y-102470065D01*
X157791485Y-102553630D01*
X157740526Y-102648969D01*
X157709145Y-102752417D01*
X157698549Y-102860000D01*
X151355665Y-102860000D01*
X151865676Y-102349990D01*
X151876698Y-102349990D01*
X151978127Y-102329814D01*
X152073671Y-102290239D01*
X152159658Y-102232784D01*
X152232784Y-102159658D01*
X152290239Y-102073671D01*
X152329814Y-101978127D01*
X152349990Y-101876698D01*
X152349990Y-101773282D01*
X152329814Y-101671853D01*
X152290239Y-101576309D01*
X152232784Y-101490322D01*
X152159658Y-101417196D01*
X152073671Y-101359741D01*
X151978127Y-101320166D01*
X151876698Y-101299990D01*
X151773282Y-101299990D01*
X151671853Y-101320166D01*
X151576309Y-101359741D01*
X151490322Y-101417196D01*
X151417196Y-101490322D01*
X151359741Y-101576309D01*
X151320166Y-101671853D01*
X151299990Y-101773282D01*
X151299990Y-101784304D01*
X149378255Y-103706040D01*
X149378251Y-103706045D01*
X149234295Y-103850000D01*
X92019647Y-103850000D01*
X92000000Y-103848065D01*
X91980353Y-103850000D01*
X91921586Y-103855788D01*
X91846186Y-103878660D01*
X91776697Y-103915803D01*
X91715789Y-103965789D01*
X91703265Y-103981050D01*
X90459315Y-105225000D01*
X90448292Y-105225000D01*
X90346863Y-105245176D01*
X90251319Y-105284751D01*
X90165332Y-105342206D01*
X90092206Y-105415332D01*
X90034751Y-105501319D01*
X89995176Y-105596863D01*
X89975000Y-105698292D01*
X87429818Y-105698292D01*
X87407794Y-105665332D01*
X87334668Y-105592206D01*
X87248681Y-105534751D01*
X87153137Y-105495176D01*
X87051708Y-105475000D01*
X86948292Y-105475000D01*
X86846863Y-105495176D01*
X86751319Y-105534751D01*
X86665332Y-105592206D01*
X86657538Y-105600000D01*
X86165685Y-105600000D01*
X83775000Y-103209315D01*
X83775000Y-103198292D01*
X83754824Y-103096863D01*
X83715249Y-103001319D01*
X83674882Y-102940905D01*
X110150000Y-102940905D01*
X110150000Y-103059095D01*
X110173058Y-103175014D01*
X110218287Y-103284207D01*
X110283950Y-103382478D01*
X110367522Y-103466050D01*
X110465793Y-103531713D01*
X110574986Y-103576942D01*
X110690905Y-103600000D01*
X110809095Y-103600000D01*
X110925014Y-103576942D01*
X110990058Y-103550000D01*
X116759916Y-103550000D01*
X116825004Y-103576960D01*
X116940923Y-103600018D01*
X117059113Y-103600018D01*
X117175032Y-103576960D01*
X117284225Y-103531731D01*
X117382496Y-103466068D01*
X117466068Y-103382496D01*
X117531731Y-103284225D01*
X117576960Y-103175032D01*
X117600018Y-103059113D01*
X117600018Y-102940923D01*
X117576960Y-102825004D01*
X117531731Y-102715811D01*
X117466068Y-102617540D01*
X117382496Y-102533968D01*
X117284225Y-102468305D01*
X117175032Y-102423076D01*
X117059113Y-102400018D01*
X116940923Y-102400018D01*
X116825004Y-102423076D01*
X116760003Y-102450000D01*
X110990058Y-102450000D01*
X110925014Y-102423058D01*
X110809095Y-102400000D01*
X110690905Y-102400000D01*
X110574986Y-102423058D01*
X110465793Y-102468287D01*
X110367522Y-102533950D01*
X110283950Y-102617522D01*
X110218287Y-102715793D01*
X110173058Y-102824986D01*
X110150000Y-102940905D01*
X83674882Y-102940905D01*
X83657794Y-102915332D01*
X83584668Y-102842206D01*
X83498681Y-102784751D01*
X83403137Y-102745176D01*
X83301708Y-102725000D01*
X83198292Y-102725000D01*
X83096863Y-102745176D01*
X83001319Y-102784751D01*
X82915332Y-102842206D01*
X82842206Y-102915332D01*
X82784751Y-103001319D01*
X82745176Y-103096863D01*
X82725000Y-103198292D01*
X46825000Y-103198292D01*
X46825000Y-98488045D01*
X67724087Y-98488045D01*
X67884169Y-98791005D01*
X68255017Y-98974280D01*
X68654494Y-99081683D01*
X69067249Y-99109090D01*
X69477420Y-99055445D01*
X69869244Y-98922810D01*
X70115831Y-98791005D01*
X70275913Y-98488045D01*
X69000000Y-97212132D01*
X67724087Y-98488045D01*
X46825000Y-98488045D01*
X46825000Y-97067249D01*
X66890910Y-97067249D01*
X66944555Y-97477420D01*
X67077190Y-97869244D01*
X67208995Y-98115831D01*
X67511955Y-98275913D01*
X68787868Y-97000000D01*
X69212132Y-97000000D01*
X70488045Y-98275913D01*
X70791005Y-98115831D01*
X70974280Y-97744983D01*
X71081683Y-97345506D01*
X71109090Y-96932751D01*
X71055445Y-96522580D01*
X71038765Y-96473302D01*
X88948206Y-96473302D01*
X88948206Y-96576718D01*
X88968382Y-96678147D01*
X89007957Y-96773691D01*
X89065412Y-96859678D01*
X89138538Y-96932804D01*
X89224525Y-96990259D01*
X89320069Y-97029834D01*
X89421498Y-97050010D01*
X89524914Y-97050010D01*
X89626343Y-97029834D01*
X89721887Y-96990259D01*
X89807874Y-96932804D01*
X89815668Y-96925010D01*
X103682562Y-96925010D01*
X103690356Y-96932804D01*
X103776343Y-96990259D01*
X103871887Y-97029834D01*
X103973316Y-97050010D01*
X104076732Y-97050010D01*
X104178161Y-97029834D01*
X104273705Y-96990259D01*
X104359692Y-96932804D01*
X104432818Y-96859678D01*
X104490273Y-96773691D01*
X104529848Y-96678147D01*
X104550024Y-96576718D01*
X104550024Y-96473302D01*
X104529848Y-96371873D01*
X104490273Y-96276329D01*
X104432818Y-96190342D01*
X104359692Y-96117216D01*
X104273705Y-96059761D01*
X104178161Y-96020186D01*
X104076732Y-96000010D01*
X103973316Y-96000010D01*
X103871887Y-96020186D01*
X103776343Y-96059761D01*
X103690356Y-96117216D01*
X103682562Y-96125010D01*
X89815668Y-96125010D01*
X89807874Y-96117216D01*
X89721887Y-96059761D01*
X89626343Y-96020186D01*
X89524914Y-96000010D01*
X89421498Y-96000010D01*
X89320069Y-96020186D01*
X89224525Y-96059761D01*
X89138538Y-96117216D01*
X89065412Y-96190342D01*
X89007957Y-96276329D01*
X88968382Y-96371873D01*
X88948206Y-96473302D01*
X71038765Y-96473302D01*
X70922810Y-96130756D01*
X70791005Y-95884169D01*
X70488045Y-95724087D01*
X69212132Y-97000000D01*
X68787868Y-97000000D01*
X67511955Y-95724087D01*
X67208995Y-95884169D01*
X67025720Y-96255017D01*
X66918317Y-96654494D01*
X66890910Y-97067249D01*
X46825000Y-97067249D01*
X46825000Y-95511955D01*
X67724087Y-95511955D01*
X69000000Y-96787868D01*
X70275913Y-95511955D01*
X70269597Y-95500000D01*
X164197329Y-95500000D01*
X164207948Y-95607819D01*
X164239398Y-95711494D01*
X164290469Y-95807042D01*
X164359200Y-95890790D01*
X164442948Y-95959521D01*
X164538496Y-96010592D01*
X164642171Y-96042042D01*
X164722972Y-96050000D01*
X178772183Y-96050000D01*
X180730196Y-98008014D01*
X180730201Y-98008018D01*
X180802203Y-98080021D01*
X180826901Y-98204182D01*
X180879668Y-98331574D01*
X180956274Y-98446224D01*
X181053776Y-98543726D01*
X181168426Y-98620332D01*
X181295818Y-98673099D01*
X181431056Y-98700000D01*
X181568944Y-98700000D01*
X181704182Y-98673099D01*
X181831574Y-98620332D01*
X181946224Y-98543726D01*
X182043726Y-98446224D01*
X182120332Y-98331574D01*
X182173099Y-98204182D01*
X182200000Y-98068944D01*
X182200000Y-97988045D01*
X194724087Y-97988045D01*
X194884169Y-98291005D01*
X195255017Y-98474280D01*
X195654494Y-98581683D01*
X196067249Y-98609090D01*
X196477420Y-98555445D01*
X196869244Y-98422810D01*
X197115831Y-98291005D01*
X197275913Y-97988045D01*
X196000000Y-96712132D01*
X194724087Y-97988045D01*
X182200000Y-97988045D01*
X182200000Y-97931056D01*
X182173099Y-97795818D01*
X182120332Y-97668426D01*
X182043726Y-97553776D01*
X181946224Y-97456274D01*
X181831574Y-97379668D01*
X181704182Y-97326901D01*
X181580021Y-97302203D01*
X181508018Y-97230201D01*
X181508014Y-97230196D01*
X180845067Y-96567249D01*
X193890910Y-96567249D01*
X193944555Y-96977420D01*
X194077190Y-97369244D01*
X194208995Y-97615831D01*
X194511955Y-97775913D01*
X195787868Y-96500000D01*
X196212132Y-96500000D01*
X197488045Y-97775913D01*
X197791005Y-97615831D01*
X197974280Y-97244983D01*
X198040145Y-97000000D01*
X200804436Y-97000000D01*
X200826640Y-97225439D01*
X200892398Y-97442215D01*
X200999184Y-97641997D01*
X201142893Y-97817107D01*
X201318003Y-97960816D01*
X201517785Y-98067602D01*
X201734561Y-98133360D01*
X201903508Y-98150000D01*
X202016492Y-98150000D01*
X202185439Y-98133360D01*
X202402215Y-98067602D01*
X202601997Y-97960816D01*
X202777107Y-97817107D01*
X202920816Y-97641997D01*
X203027602Y-97442215D01*
X203093360Y-97225439D01*
X203115564Y-97000000D01*
X203093360Y-96774561D01*
X203027602Y-96557785D01*
X202920816Y-96358003D01*
X202777107Y-96182893D01*
X202737027Y-96150000D01*
X203348549Y-96150000D01*
X203348549Y-97850000D01*
X203354341Y-97908810D01*
X203371496Y-97965360D01*
X203399353Y-98017477D01*
X203436842Y-98063158D01*
X203482523Y-98100647D01*
X203534640Y-98128504D01*
X203591190Y-98145659D01*
X203650000Y-98151451D01*
X205350000Y-98151451D01*
X205408810Y-98145659D01*
X205465360Y-98128504D01*
X205517477Y-98100647D01*
X205563158Y-98063158D01*
X205600647Y-98017477D01*
X205628504Y-97965360D01*
X205645659Y-97908810D01*
X205651451Y-97850000D01*
X205651451Y-96150000D01*
X205645659Y-96091190D01*
X205628504Y-96034640D01*
X205600647Y-95982523D01*
X205563158Y-95936842D01*
X205517477Y-95899353D01*
X205465360Y-95871496D01*
X205408810Y-95854341D01*
X205350000Y-95848549D01*
X203650000Y-95848549D01*
X203591190Y-95854341D01*
X203534640Y-95871496D01*
X203482523Y-95899353D01*
X203436842Y-95936842D01*
X203399353Y-95982523D01*
X203371496Y-96034640D01*
X203354341Y-96091190D01*
X203348549Y-96150000D01*
X202737027Y-96150000D01*
X202601997Y-96039184D01*
X202402215Y-95932398D01*
X202185439Y-95866640D01*
X202016492Y-95850000D01*
X201903508Y-95850000D01*
X201734561Y-95866640D01*
X201517785Y-95932398D01*
X201318003Y-96039184D01*
X201142893Y-96182893D01*
X200999184Y-96358003D01*
X200892398Y-96557785D01*
X200826640Y-96774561D01*
X200804436Y-97000000D01*
X198040145Y-97000000D01*
X198081683Y-96845506D01*
X198109090Y-96432751D01*
X198055445Y-96022580D01*
X197922810Y-95630756D01*
X197791005Y-95384169D01*
X197488045Y-95224087D01*
X196212132Y-96500000D01*
X195787868Y-96500000D01*
X194511955Y-95224087D01*
X194208995Y-95384169D01*
X194025720Y-95755017D01*
X193918317Y-96154494D01*
X193890910Y-96567249D01*
X180845067Y-96567249D01*
X179408013Y-95130196D01*
X179390790Y-95109210D01*
X179307042Y-95040479D01*
X179253677Y-95011955D01*
X194724087Y-95011955D01*
X196000000Y-96287868D01*
X197275913Y-95011955D01*
X197115831Y-94708995D01*
X196744983Y-94525720D01*
X196345506Y-94418317D01*
X195932751Y-94390910D01*
X195522580Y-94444555D01*
X195130756Y-94577190D01*
X194884169Y-94708995D01*
X194724087Y-95011955D01*
X179253677Y-95011955D01*
X179211494Y-94989408D01*
X179107819Y-94957958D01*
X179027018Y-94950000D01*
X179027008Y-94950000D01*
X179000000Y-94947340D01*
X178972992Y-94950000D01*
X164722972Y-94950000D01*
X164642171Y-94957958D01*
X164538496Y-94989408D01*
X164442948Y-95040479D01*
X164359200Y-95109210D01*
X164290469Y-95192958D01*
X164239398Y-95288506D01*
X164207948Y-95392181D01*
X164197329Y-95500000D01*
X70269597Y-95500000D01*
X70115831Y-95208995D01*
X69744983Y-95025720D01*
X69345506Y-94918317D01*
X68932751Y-94890910D01*
X68522580Y-94944555D01*
X68130756Y-95077190D01*
X67884169Y-95208995D01*
X67724087Y-95511955D01*
X46825000Y-95511955D01*
X46825000Y-94325000D01*
X259175000Y-94325000D01*
X259175001Y-117675000D01*
X259175001Y-117675000D01*
G37*
X259175001Y-117675000D02*
X46825000Y-117675000D01*
X46825000Y-110835906D01*
X54755491Y-110835906D01*
X54856006Y-111104640D01*
X55007017Y-111348601D01*
X55202721Y-111558414D01*
X55435597Y-111726015D01*
X55696696Y-111844964D01*
X55794095Y-111874503D01*
X56019998Y-111765009D01*
X56019998Y-111845544D01*
X55941895Y-111853236D01*
X55722555Y-111919772D01*
X55520411Y-112027821D01*
X55343230Y-112173230D01*
X55197821Y-112350411D01*
X55089772Y-112552555D01*
X55023236Y-112771895D01*
X55000770Y-113000000D01*
X55023236Y-113228105D01*
X55089772Y-113447445D01*
X55197821Y-113649589D01*
X55343230Y-113826770D01*
X55520411Y-113972179D01*
X55722555Y-114080228D01*
X55941895Y-114146764D01*
X56112837Y-114163600D01*
X56227163Y-114163600D01*
X56398105Y-114146764D01*
X56617445Y-114080228D01*
X56819589Y-113972179D01*
X56996770Y-113826770D01*
X57142179Y-113649589D01*
X57250228Y-113447445D01*
X57316764Y-113228105D01*
X57339230Y-113000000D01*
X57316764Y-112771895D01*
X57250228Y-112552555D01*
X57142179Y-112350411D01*
X56996770Y-112173230D01*
X56819589Y-112027821D01*
X56617445Y-111919772D01*
X56398105Y-111853236D01*
X56320002Y-111845544D01*
X56320002Y-111765009D01*
X56545905Y-111874503D01*
X56643304Y-111844964D01*
X56904403Y-111726015D01*
X57137279Y-111558414D01*
X57332983Y-111348601D01*
X57483994Y-111104640D01*
X57584509Y-110835906D01*
X57475900Y-110610002D01*
X57555544Y-110610002D01*
X57563236Y-110688105D01*
X57629772Y-110907445D01*
X57737821Y-111109589D01*
X57883230Y-111286770D01*
X58060411Y-111432179D01*
X58262555Y-111540228D01*
X58481895Y-111606764D01*
X58652837Y-111623600D01*
X58767163Y-111623600D01*
X58938105Y-111606764D01*
X59157445Y-111540228D01*
X59359589Y-111432179D01*
X59536770Y-111286770D01*
X59682179Y-111109589D01*
X59790228Y-110907445D01*
X59856764Y-110688105D01*
X59879230Y-110460000D01*
X59856764Y-110231895D01*
X59790228Y-110012555D01*
X59766856Y-109968829D01*
X60335686Y-109400000D01*
X60764711Y-109400000D01*
X60600411Y-109487821D01*
X60423230Y-109633230D01*
X60277821Y-109810411D01*
X60169772Y-110012555D01*
X60103236Y-110231895D01*
X60080770Y-110460000D01*
X60103236Y-110688105D01*
X60169772Y-110907445D01*
X60277821Y-111109589D01*
X60423230Y-111286770D01*
X60500276Y-111350000D01*
X59979646Y-111350000D01*
X59960000Y-111348065D01*
X59940353Y-111350000D01*
X59881586Y-111355788D01*
X59806186Y-111378660D01*
X59759127Y-111403814D01*
X59736697Y-111415803D01*
X59691049Y-111453265D01*
X59691047Y-111453267D01*
X59675789Y-111465789D01*
X59663267Y-111481047D01*
X59201170Y-111943144D01*
X59157445Y-111919772D01*
X58938105Y-111853236D01*
X58767163Y-111836400D01*
X58652837Y-111836400D01*
X58481895Y-111853236D01*
X58262555Y-111919772D01*
X58060411Y-112027821D01*
X57883230Y-112173230D01*
X57737821Y-112350411D01*
X57629772Y-112552555D01*
X57563236Y-112771895D01*
X57540770Y-113000000D01*
X57563236Y-113228105D01*
X57629772Y-113447445D01*
X57737821Y-113649589D01*
X57883230Y-113826770D01*
X58060411Y-113972179D01*
X58262555Y-114080228D01*
X58481895Y-114146764D01*
X58652837Y-114163600D01*
X58767163Y-114163600D01*
X58938105Y-114146764D01*
X59157445Y-114080228D01*
X59359589Y-113972179D01*
X59536770Y-113826770D01*
X59682179Y-113649589D01*
X59790228Y-113447445D01*
X59856764Y-113228105D01*
X59879230Y-113000000D01*
X59856764Y-112771895D01*
X59790228Y-112552555D01*
X59766856Y-112508830D01*
X60084949Y-112190737D01*
X60084949Y-113863600D01*
X60090741Y-113922410D01*
X60107896Y-113978960D01*
X60135753Y-114031077D01*
X60173242Y-114076758D01*
X60218923Y-114114247D01*
X60271040Y-114142104D01*
X60327590Y-114159259D01*
X60386400Y-114165051D01*
X62113600Y-114165051D01*
X62172410Y-114159259D01*
X62228960Y-114142104D01*
X62281077Y-114114247D01*
X62326758Y-114076758D01*
X62364247Y-114031077D01*
X62392104Y-113978960D01*
X62409259Y-113922410D01*
X62414227Y-113871961D01*
X67950000Y-113871961D01*
X67950000Y-114128039D01*
X67999958Y-114379196D01*
X68097955Y-114615781D01*
X68240224Y-114828702D01*
X68421298Y-115009776D01*
X68634219Y-115152045D01*
X68870804Y-115250042D01*
X69121961Y-115300000D01*
X69378039Y-115300000D01*
X69629196Y-115250042D01*
X69865781Y-115152045D01*
X70078702Y-115009776D01*
X70259776Y-114828702D01*
X70402045Y-114615781D01*
X70500042Y-114379196D01*
X70550000Y-114128039D01*
X70550000Y-113871961D01*
X74450000Y-113871961D01*
X74450000Y-114128039D01*
X74499958Y-114379196D01*
X74597955Y-114615781D01*
X74740224Y-114828702D01*
X74921298Y-115009776D01*
X75134219Y-115152045D01*
X75370804Y-115250042D01*
X75621961Y-115300000D01*
X75878039Y-115300000D01*
X76129196Y-115250042D01*
X76365781Y-115152045D01*
X76578702Y-115009776D01*
X76759776Y-114828702D01*
X76902045Y-114615781D01*
X77000042Y-114379196D01*
X77050000Y-114128039D01*
X77050000Y-113871961D01*
X77000042Y-113620804D01*
X76902045Y-113384219D01*
X76759776Y-113171298D01*
X76578702Y-112990224D01*
X76365781Y-112847955D01*
X76129196Y-112749958D01*
X75878039Y-112700000D01*
X75621961Y-112700000D01*
X75370804Y-112749958D01*
X75134219Y-112847955D01*
X74921298Y-112990224D01*
X74740224Y-113171298D01*
X74597955Y-113384219D01*
X74499958Y-113620804D01*
X74450000Y-113871961D01*
X70550000Y-113871961D01*
X70500042Y-113620804D01*
X70402045Y-113384219D01*
X70259776Y-113171298D01*
X70078702Y-112990224D01*
X69865781Y-112847955D01*
X69629196Y-112749958D01*
X69378039Y-112700000D01*
X69121961Y-112700000D01*
X68870804Y-112749958D01*
X68634219Y-112847955D01*
X68421298Y-112990224D01*
X68240224Y-113171298D01*
X68097955Y-113384219D01*
X67999958Y-113620804D01*
X67950000Y-113871961D01*
X62414227Y-113871961D01*
X62415051Y-113863600D01*
X62415051Y-113387224D01*
X62467414Y-113371340D01*
X62536903Y-113334197D01*
X62597811Y-113284211D01*
X62610337Y-113268948D01*
X63229286Y-112650000D01*
X76393615Y-112650000D01*
X78762567Y-115018953D01*
X78775089Y-115034211D01*
X78790347Y-115046733D01*
X78790349Y-115046735D01*
X78835997Y-115084197D01*
X78905485Y-115121340D01*
X78980886Y-115144212D01*
X79059300Y-115151935D01*
X79078946Y-115150000D01*
X86480354Y-115150000D01*
X86500000Y-115151935D01*
X86519646Y-115150000D01*
X86519647Y-115150000D01*
X86578414Y-115144212D01*
X86653814Y-115121340D01*
X86723303Y-115084197D01*
X86784211Y-115034211D01*
X86796737Y-115018948D01*
X87040686Y-114775000D01*
X87051708Y-114775000D01*
X87153137Y-114754824D01*
X87248681Y-114715249D01*
X87334668Y-114657794D01*
X87375000Y-114617462D01*
X87415332Y-114657794D01*
X87501319Y-114715249D01*
X87596863Y-114754824D01*
X87698292Y-114775000D01*
X87801708Y-114775000D01*
X87903137Y-114754824D01*
X87998681Y-114715249D01*
X88084668Y-114657794D01*
X88157794Y-114584668D01*
X88215249Y-114498681D01*
X88254824Y-114403137D01*
X88275000Y-114301708D01*
X88275000Y-114198292D01*
X88254824Y-114096863D01*
X88215249Y-114001319D01*
X88214368Y-114000000D01*
X184598549Y-114000000D01*
X184598549Y-115500000D01*
X184609145Y-115607583D01*
X184640526Y-115711031D01*
X184691485Y-115806370D01*
X184760065Y-115889935D01*
X184843630Y-115958515D01*
X184938969Y-116009474D01*
X185042417Y-116040855D01*
X185150000Y-116051451D01*
X186350000Y-116051451D01*
X186457583Y-116040855D01*
X186561031Y-116009474D01*
X186656370Y-115958515D01*
X186739935Y-115889935D01*
X186808515Y-115806370D01*
X186859474Y-115711031D01*
X186890855Y-115607583D01*
X186901451Y-115500000D01*
X186901451Y-115426256D01*
X187013672Y-115657623D01*
X187185233Y-115884261D01*
X187397712Y-116073074D01*
X187642944Y-116216807D01*
X187876234Y-116301000D01*
X188100000Y-116191317D01*
X188100000Y-114900000D01*
X188400000Y-114900000D01*
X188400000Y-116191317D01*
X188623766Y-116301000D01*
X188857056Y-116216807D01*
X189102288Y-116073074D01*
X189314767Y-115884261D01*
X189486328Y-115657623D01*
X189610377Y-115401870D01*
X189682148Y-115126830D01*
X189550000Y-114900000D01*
X188400000Y-114900000D01*
X188100000Y-114900000D01*
X188080000Y-114900000D01*
X188080000Y-114600000D01*
X188100000Y-114600000D01*
X188100000Y-113308683D01*
X188400000Y-113308683D01*
X188400000Y-114600000D01*
X189550000Y-114600000D01*
X189682148Y-114373170D01*
X189610377Y-114098130D01*
X189562781Y-114000000D01*
X200598549Y-114000000D01*
X200598549Y-115500000D01*
X200609145Y-115607583D01*
X200640526Y-115711031D01*
X200691485Y-115806370D01*
X200760065Y-115889935D01*
X200843630Y-115958515D01*
X200938969Y-116009474D01*
X201042417Y-116040855D01*
X201150000Y-116051451D01*
X202350000Y-116051451D01*
X202457583Y-116040855D01*
X202561031Y-116009474D01*
X202656370Y-115958515D01*
X202739935Y-115889935D01*
X202808515Y-115806370D01*
X202859474Y-115711031D01*
X202890855Y-115607583D01*
X202901451Y-115500000D01*
X202901451Y-115426256D01*
X203013672Y-115657623D01*
X203185233Y-115884261D01*
X203397712Y-116073074D01*
X203642944Y-116216807D01*
X203876234Y-116301000D01*
X204100000Y-116191317D01*
X204100000Y-114900000D01*
X204400000Y-114900000D01*
X204400000Y-116191317D01*
X204623766Y-116301000D01*
X204857056Y-116216807D01*
X205102288Y-116073074D01*
X205314767Y-115884261D01*
X205486328Y-115657623D01*
X205610377Y-115401870D01*
X205682148Y-115126830D01*
X205550000Y-114900000D01*
X204400000Y-114900000D01*
X204100000Y-114900000D01*
X204080000Y-114900000D01*
X204080000Y-114600000D01*
X204100000Y-114600000D01*
X204100000Y-113308683D01*
X204400000Y-113308683D01*
X204400000Y-114600000D01*
X205550000Y-114600000D01*
X205682148Y-114373170D01*
X205610377Y-114098130D01*
X205486328Y-113842377D01*
X205321778Y-113625000D01*
X244823549Y-113625000D01*
X244823549Y-115375000D01*
X244829341Y-115433810D01*
X244846496Y-115490360D01*
X244874353Y-115542477D01*
X244911842Y-115588158D01*
X244957523Y-115625647D01*
X245009640Y-115653504D01*
X245066190Y-115670659D01*
X245125000Y-115676451D01*
X246875000Y-115676451D01*
X246933810Y-115670659D01*
X246990360Y-115653504D01*
X247042477Y-115625647D01*
X247088158Y-115588158D01*
X247125647Y-115542477D01*
X247125881Y-115542039D01*
X247670094Y-115542039D01*
X247754647Y-115781085D01*
X248018897Y-115901881D01*
X248301635Y-115968803D01*
X248591995Y-115979279D01*
X248878821Y-115932908D01*
X249151088Y-115831471D01*
X249245353Y-115781085D01*
X249329906Y-115542039D01*
X250170094Y-115542039D01*
X250254647Y-115781085D01*
X250518897Y-115901881D01*
X250801635Y-115968803D01*
X251091995Y-115979279D01*
X251378821Y-115932908D01*
X251651088Y-115831471D01*
X251745353Y-115781085D01*
X251829906Y-115542039D01*
X251000000Y-114712132D01*
X250170094Y-115542039D01*
X249329906Y-115542039D01*
X248500000Y-114712132D01*
X247670094Y-115542039D01*
X247125881Y-115542039D01*
X247153504Y-115490360D01*
X247170659Y-115433810D01*
X247176451Y-115375000D01*
X247176451Y-115165909D01*
X247218915Y-115245353D01*
X247457961Y-115329906D01*
X248287868Y-114500000D01*
X248712132Y-114500000D01*
X249542039Y-115329906D01*
X249750000Y-115256348D01*
X249957961Y-115329906D01*
X250787868Y-114500000D01*
X251212132Y-114500000D01*
X252042039Y-115329906D01*
X252281085Y-115245353D01*
X252401881Y-114981103D01*
X252468803Y-114698365D01*
X252479279Y-114408005D01*
X252432908Y-114121179D01*
X252331471Y-113848912D01*
X252281085Y-113754647D01*
X252042039Y-113670094D01*
X251212132Y-114500000D01*
X250787868Y-114500000D01*
X249957961Y-113670094D01*
X249750000Y-113743652D01*
X249542039Y-113670094D01*
X248712132Y-114500000D01*
X248287868Y-114500000D01*
X247457961Y-113670094D01*
X247218915Y-113754647D01*
X247176451Y-113847540D01*
X247176451Y-113625000D01*
X247170659Y-113566190D01*
X247153504Y-113509640D01*
X247125882Y-113457961D01*
X247670094Y-113457961D01*
X248500000Y-114287868D01*
X249329906Y-113457961D01*
X250170094Y-113457961D01*
X251000000Y-114287868D01*
X251829906Y-113457961D01*
X251745353Y-113218915D01*
X251481103Y-113098119D01*
X251198365Y-113031197D01*
X250908005Y-113020721D01*
X250621179Y-113067092D01*
X250348912Y-113168529D01*
X250254647Y-113218915D01*
X250170094Y-113457961D01*
X249329906Y-113457961D01*
X249245353Y-113218915D01*
X248981103Y-113098119D01*
X248698365Y-113031197D01*
X248408005Y-113020721D01*
X248121179Y-113067092D01*
X247848912Y-113168529D01*
X247754647Y-113218915D01*
X247670094Y-113457961D01*
X247125882Y-113457961D01*
X247125647Y-113457523D01*
X247088158Y-113411842D01*
X247042477Y-113374353D01*
X246990360Y-113346496D01*
X246933810Y-113329341D01*
X246875000Y-113323549D01*
X245125000Y-113323549D01*
X245066190Y-113329341D01*
X245009640Y-113346496D01*
X244957523Y-113374353D01*
X244911842Y-113411842D01*
X244874353Y-113457523D01*
X244846496Y-113509640D01*
X244829341Y-113566190D01*
X244823549Y-113625000D01*
X205321778Y-113625000D01*
X205314767Y-113615739D01*
X205102288Y-113426926D01*
X204857056Y-113283193D01*
X204623766Y-113199000D01*
X204400000Y-113308683D01*
X204100000Y-113308683D01*
X203876234Y-113199000D01*
X203642944Y-113283193D01*
X203397712Y-113426926D01*
X203185233Y-113615739D01*
X203013672Y-113842377D01*
X202901451Y-114073744D01*
X202901451Y-114000000D01*
X202890855Y-113892417D01*
X202859474Y-113788969D01*
X202808515Y-113693630D01*
X202739935Y-113610065D01*
X202656370Y-113541485D01*
X202561031Y-113490526D01*
X202457583Y-113459145D01*
X202350000Y-113448549D01*
X201150000Y-113448549D01*
X201042417Y-113459145D01*
X200938969Y-113490526D01*
X200843630Y-113541485D01*
X200760065Y-113610065D01*
X200691485Y-113693630D01*
X200640526Y-113788969D01*
X200609145Y-113892417D01*
X200598549Y-114000000D01*
X189562781Y-114000000D01*
X189486328Y-113842377D01*
X189314767Y-113615739D01*
X189102288Y-113426926D01*
X188857056Y-113283193D01*
X188623766Y-113199000D01*
X188400000Y-113308683D01*
X188100000Y-113308683D01*
X187876234Y-113199000D01*
X187642944Y-113283193D01*
X187397712Y-113426926D01*
X187185233Y-113615739D01*
X187013672Y-113842377D01*
X186901451Y-114073744D01*
X186901451Y-114000000D01*
X186890855Y-113892417D01*
X186859474Y-113788969D01*
X186808515Y-113693630D01*
X186739935Y-113610065D01*
X186656370Y-113541485D01*
X186561031Y-113490526D01*
X186457583Y-113459145D01*
X186350000Y-113448549D01*
X185150000Y-113448549D01*
X185042417Y-113459145D01*
X184938969Y-113490526D01*
X184843630Y-113541485D01*
X184760065Y-113610065D01*
X184691485Y-113693630D01*
X184640526Y-113788969D01*
X184609145Y-113892417D01*
X184598549Y-114000000D01*
X88214368Y-114000000D01*
X88157794Y-113915332D01*
X88084668Y-113842206D01*
X87998681Y-113784751D01*
X87903137Y-113745176D01*
X87801708Y-113725000D01*
X87790686Y-113725000D01*
X87296735Y-113231050D01*
X87284211Y-113215789D01*
X87223303Y-113165803D01*
X87153814Y-113128660D01*
X87078414Y-113105788D01*
X87019647Y-113100000D01*
X87019646Y-113100000D01*
X87000000Y-113098065D01*
X86980354Y-113100000D01*
X79415685Y-113100000D01*
X77763977Y-111448292D01*
X91975000Y-111448292D01*
X91975000Y-111551708D01*
X91995176Y-111653137D01*
X92034751Y-111748681D01*
X92092206Y-111834668D01*
X92165332Y-111907794D01*
X92251319Y-111965249D01*
X92346863Y-112004824D01*
X92448292Y-112025000D01*
X92551708Y-112025000D01*
X92653137Y-112004824D01*
X92748681Y-111965249D01*
X92834668Y-111907794D01*
X92842462Y-111900000D01*
X108484355Y-111900000D01*
X108825000Y-112240646D01*
X108825000Y-112251668D01*
X108845176Y-112353097D01*
X108884751Y-112448641D01*
X108942206Y-112534628D01*
X109015332Y-112607754D01*
X109101319Y-112665209D01*
X109196863Y-112704784D01*
X109298292Y-112724960D01*
X109401708Y-112724960D01*
X109503137Y-112704784D01*
X109598681Y-112665209D01*
X109684668Y-112607754D01*
X109757794Y-112534628D01*
X109815249Y-112448641D01*
X109854824Y-112353097D01*
X109875000Y-112251668D01*
X109875000Y-112148252D01*
X109854824Y-112046823D01*
X109815249Y-111951279D01*
X109757794Y-111865292D01*
X109684668Y-111792166D01*
X109598681Y-111734711D01*
X109503137Y-111695136D01*
X109401708Y-111674960D01*
X109390686Y-111674960D01*
X108946777Y-111231052D01*
X108934251Y-111215789D01*
X108873343Y-111165803D01*
X108803854Y-111128660D01*
X108728454Y-111105788D01*
X108669687Y-111100000D01*
X108669686Y-111100000D01*
X108650040Y-111098065D01*
X108630394Y-111100000D01*
X92842462Y-111100000D01*
X92834668Y-111092206D01*
X92748681Y-111034751D01*
X92653137Y-110995176D01*
X92551708Y-110975000D01*
X92448292Y-110975000D01*
X92346863Y-110995176D01*
X92251319Y-111034751D01*
X92165332Y-111092206D01*
X92092206Y-111165332D01*
X92034751Y-111251319D01*
X91995176Y-111346863D01*
X91975000Y-111448292D01*
X77763977Y-111448292D01*
X77296735Y-110981050D01*
X77284211Y-110965789D01*
X77223303Y-110915803D01*
X77153814Y-110878660D01*
X77078414Y-110855788D01*
X77019647Y-110850000D01*
X77019646Y-110850000D01*
X77000000Y-110848065D01*
X76980354Y-110850000D01*
X64415685Y-110850000D01*
X62937646Y-109371961D01*
X67950000Y-109371961D01*
X67950000Y-109628039D01*
X67999958Y-109879196D01*
X68097955Y-110115781D01*
X68240224Y-110328702D01*
X68421298Y-110509776D01*
X68634219Y-110652045D01*
X68870804Y-110750042D01*
X69121961Y-110800000D01*
X69378039Y-110800000D01*
X69629196Y-110750042D01*
X69865781Y-110652045D01*
X70078702Y-110509776D01*
X70259776Y-110328702D01*
X70402045Y-110115781D01*
X70491425Y-109900000D01*
X74508575Y-109900000D01*
X74597955Y-110115781D01*
X74740224Y-110328702D01*
X74921298Y-110509776D01*
X75134219Y-110652045D01*
X75370804Y-110750042D01*
X75621961Y-110800000D01*
X75878039Y-110800000D01*
X76129196Y-110750042D01*
X76365781Y-110652045D01*
X76578702Y-110509776D01*
X76759776Y-110328702D01*
X76902045Y-110115781D01*
X77000042Y-109879196D01*
X77050000Y-109628039D01*
X77050000Y-109371961D01*
X77000042Y-109120804D01*
X76902045Y-108884219D01*
X76759776Y-108671298D01*
X76578702Y-108490224D01*
X76365781Y-108347955D01*
X76129196Y-108249958D01*
X75878039Y-108200000D01*
X75621961Y-108200000D01*
X75370804Y-108249958D01*
X75134219Y-108347955D01*
X74921298Y-108490224D01*
X74740224Y-108671298D01*
X74597955Y-108884219D01*
X74508575Y-109100000D01*
X70491425Y-109100000D01*
X70402045Y-108884219D01*
X70259776Y-108671298D01*
X70078702Y-108490224D01*
X69865781Y-108347955D01*
X69629196Y-108249958D01*
X69378039Y-108200000D01*
X69121961Y-108200000D01*
X68870804Y-108249958D01*
X68634219Y-108347955D01*
X68421298Y-108490224D01*
X68240224Y-108671298D01*
X68097955Y-108884219D01*
X67999958Y-109120804D01*
X67950000Y-109371961D01*
X62937646Y-109371961D01*
X62296737Y-108731052D01*
X62284211Y-108715789D01*
X62223303Y-108665803D01*
X62153814Y-108628660D01*
X62078414Y-108605788D01*
X62019647Y-108600000D01*
X62019646Y-108600000D01*
X62000000Y-108598065D01*
X61980354Y-108600000D01*
X60189647Y-108600000D01*
X60170000Y-108598065D01*
X60091586Y-108605788D01*
X60016186Y-108628660D01*
X59946697Y-108665803D01*
X59901049Y-108703265D01*
X59901047Y-108703267D01*
X59885789Y-108715789D01*
X59873267Y-108731047D01*
X59201171Y-109403144D01*
X59157445Y-109379772D01*
X58938105Y-109313236D01*
X58767163Y-109296400D01*
X58652837Y-109296400D01*
X58481895Y-109313236D01*
X58262555Y-109379772D01*
X58060411Y-109487821D01*
X57883230Y-109633230D01*
X57737821Y-109810411D01*
X57629772Y-110012555D01*
X57563236Y-110231895D01*
X57555544Y-110309998D01*
X57475900Y-110309998D01*
X57584509Y-110084094D01*
X57483994Y-109815360D01*
X57332983Y-109571399D01*
X57137279Y-109361586D01*
X56904403Y-109193985D01*
X56643304Y-109075036D01*
X56545905Y-109045497D01*
X56320000Y-109154992D01*
X56320000Y-110310000D01*
X56340000Y-110310000D01*
X56340000Y-110610000D01*
X56320000Y-110610000D01*
X56320000Y-110630000D01*
X56020000Y-110630000D01*
X56020000Y-110610000D01*
X54864101Y-110610000D01*
X54755491Y-110835906D01*
X46825000Y-110835906D01*
X46825000Y-110084094D01*
X54755491Y-110084094D01*
X54864101Y-110310000D01*
X56020000Y-110310000D01*
X56020000Y-109154992D01*
X55794095Y-109045497D01*
X55696696Y-109075036D01*
X55435597Y-109193985D01*
X55202721Y-109361586D01*
X55007017Y-109571399D01*
X54856006Y-109815360D01*
X54755491Y-110084094D01*
X46825000Y-110084094D01*
X46825000Y-103948322D01*
X80475000Y-103948322D01*
X80475000Y-104051738D01*
X80495176Y-104153167D01*
X80534751Y-104248711D01*
X80592206Y-104334698D01*
X80665332Y-104407824D01*
X80751319Y-104465279D01*
X80846863Y-104504854D01*
X80948292Y-104525030D01*
X80959315Y-104525030D01*
X86928236Y-110493952D01*
X86940758Y-110509210D01*
X86956016Y-110521732D01*
X86956018Y-110521734D01*
X86974018Y-110536506D01*
X87001666Y-110559196D01*
X87071155Y-110596339D01*
X87146555Y-110619211D01*
X87224969Y-110626934D01*
X87244615Y-110624999D01*
X99755355Y-110624999D01*
X99775001Y-110626934D01*
X99794647Y-110624999D01*
X99794648Y-110624999D01*
X99853415Y-110619211D01*
X99928815Y-110596339D01*
X99998304Y-110559196D01*
X100059212Y-110509210D01*
X100071738Y-110493947D01*
X100415693Y-110149992D01*
X151382530Y-110149992D01*
X151390324Y-110157786D01*
X151476311Y-110215241D01*
X151571855Y-110254816D01*
X151673284Y-110274992D01*
X151776700Y-110274992D01*
X151878129Y-110254816D01*
X151973673Y-110215241D01*
X152059660Y-110157786D01*
X152132786Y-110084660D01*
X152190241Y-109998673D01*
X152229816Y-109903129D01*
X152232427Y-109890000D01*
X157397097Y-109890000D01*
X157408682Y-110007621D01*
X157442990Y-110120721D01*
X157498704Y-110224955D01*
X157573683Y-110316317D01*
X157665045Y-110391296D01*
X157769279Y-110447010D01*
X157882379Y-110481318D01*
X158000000Y-110492903D01*
X158700000Y-110490000D01*
X158850000Y-110340000D01*
X158850000Y-108940000D01*
X159150000Y-108940000D01*
X159150000Y-110340000D01*
X159300000Y-110490000D01*
X160000000Y-110492903D01*
X160117621Y-110481318D01*
X160230721Y-110447010D01*
X160334955Y-110391296D01*
X160426317Y-110316317D01*
X160501296Y-110224955D01*
X160557010Y-110120721D01*
X160591318Y-110007621D01*
X160602903Y-109890000D01*
X160602853Y-109876140D01*
X165775992Y-109876140D01*
X165966177Y-110204699D01*
X166379607Y-110412931D01*
X166825717Y-110536506D01*
X167287364Y-110570674D01*
X167746806Y-110514123D01*
X168186387Y-110369026D01*
X168493823Y-110204699D01*
X168684008Y-109876140D01*
X177815992Y-109876140D01*
X178006177Y-110204699D01*
X178419607Y-110412931D01*
X178865717Y-110536506D01*
X179327364Y-110570674D01*
X179786806Y-110514123D01*
X180226387Y-110369026D01*
X180533823Y-110204699D01*
X180724008Y-109876140D01*
X179270000Y-108422132D01*
X177815992Y-109876140D01*
X168684008Y-109876140D01*
X167230000Y-108422132D01*
X165775992Y-109876140D01*
X160602853Y-109876140D01*
X160600000Y-109090000D01*
X160450000Y-108940000D01*
X159150000Y-108940000D01*
X158850000Y-108940000D01*
X157550000Y-108940000D01*
X157400000Y-109090000D01*
X157397097Y-109890000D01*
X152232427Y-109890000D01*
X152249992Y-109801700D01*
X152249992Y-109698284D01*
X152229816Y-109596855D01*
X152190241Y-109501311D01*
X152132786Y-109415324D01*
X152059660Y-109342198D01*
X151973673Y-109284743D01*
X151878129Y-109245168D01*
X151776700Y-109224992D01*
X151673284Y-109224992D01*
X151571855Y-109245168D01*
X151476311Y-109284743D01*
X151390324Y-109342198D01*
X151382530Y-109349992D01*
X100269643Y-109349992D01*
X100250007Y-109348058D01*
X100230371Y-109349992D01*
X100230361Y-109349992D01*
X100171594Y-109355780D01*
X100096194Y-109378652D01*
X100026705Y-109415795D01*
X99965797Y-109465781D01*
X99953271Y-109481044D01*
X99609316Y-109824999D01*
X87390655Y-109824999D01*
X85763948Y-108198292D01*
X90974992Y-108198292D01*
X90974992Y-108301708D01*
X90995168Y-108403137D01*
X91034743Y-108498681D01*
X91092198Y-108584668D01*
X91165324Y-108657794D01*
X91251311Y-108715249D01*
X91346855Y-108754824D01*
X91448284Y-108775000D01*
X91459307Y-108775000D01*
X91703259Y-109018953D01*
X91715781Y-109034211D01*
X91731039Y-109046733D01*
X91731041Y-109046735D01*
X91776689Y-109084197D01*
X91846178Y-109121340D01*
X91921578Y-109144212D01*
X91999992Y-109151935D01*
X92019639Y-109150000D01*
X95480354Y-109150000D01*
X95500000Y-109151935D01*
X95519646Y-109150000D01*
X95519647Y-109150000D01*
X95578414Y-109144212D01*
X95653814Y-109121340D01*
X95723303Y-109084197D01*
X95784211Y-109034211D01*
X95796737Y-109018948D01*
X96165686Y-108650000D01*
X151516117Y-108650000D01*
X151635061Y-108768943D01*
X151647591Y-108784211D01*
X151708499Y-108834197D01*
X151777988Y-108871340D01*
X151853388Y-108894212D01*
X151907034Y-108899496D01*
X151915332Y-108907794D01*
X152001319Y-108965249D01*
X152096863Y-109004824D01*
X152198292Y-109025000D01*
X152301708Y-109025000D01*
X152403137Y-109004824D01*
X152498681Y-108965249D01*
X152584668Y-108907794D01*
X152657794Y-108834668D01*
X152715249Y-108748681D01*
X152754824Y-108653137D01*
X152775000Y-108551708D01*
X152775000Y-108448292D01*
X152754824Y-108346863D01*
X152715249Y-108251319D01*
X152657794Y-108165332D01*
X152584668Y-108092206D01*
X152498681Y-108034751D01*
X152403137Y-107995176D01*
X152301708Y-107975000D01*
X152198292Y-107975000D01*
X152096863Y-107995176D01*
X152023182Y-108025695D01*
X151978537Y-107981050D01*
X151966013Y-107965789D01*
X151905105Y-107915803D01*
X151835616Y-107878660D01*
X151760216Y-107855788D01*
X151701449Y-107850000D01*
X151701448Y-107850000D01*
X151681802Y-107848065D01*
X151679959Y-107848247D01*
X151694191Y-107776698D01*
X151694191Y-107690000D01*
X157397097Y-107690000D01*
X157400000Y-108490000D01*
X157550000Y-108640000D01*
X158850000Y-108640000D01*
X158850000Y-107240000D01*
X159150000Y-107240000D01*
X159150000Y-108640000D01*
X160450000Y-108640000D01*
X160600000Y-108490000D01*
X160600807Y-108267364D01*
X164869326Y-108267364D01*
X164925877Y-108726806D01*
X165070974Y-109166387D01*
X165235301Y-109473823D01*
X165563860Y-109664008D01*
X167017868Y-108210000D01*
X167442132Y-108210000D01*
X168896140Y-109664008D01*
X169224699Y-109473823D01*
X169432931Y-109060393D01*
X169556506Y-108614283D01*
X169582182Y-108267364D01*
X176909326Y-108267364D01*
X176965877Y-108726806D01*
X177110974Y-109166387D01*
X177275301Y-109473823D01*
X177603860Y-109664008D01*
X179057868Y-108210000D01*
X179482132Y-108210000D01*
X180936140Y-109664008D01*
X181264699Y-109473823D01*
X181472931Y-109060393D01*
X181596506Y-108614283D01*
X181630674Y-108152636D01*
X181574123Y-107693194D01*
X181429026Y-107253613D01*
X181264699Y-106946177D01*
X180936140Y-106755992D01*
X179482132Y-108210000D01*
X179057868Y-108210000D01*
X177603860Y-106755992D01*
X177275301Y-106946177D01*
X177067069Y-107359607D01*
X176943494Y-107805717D01*
X176909326Y-108267364D01*
X169582182Y-108267364D01*
X169590674Y-108152636D01*
X169534123Y-107693194D01*
X169389026Y-107253613D01*
X169224699Y-106946177D01*
X168896140Y-106755992D01*
X167442132Y-108210000D01*
X167017868Y-108210000D01*
X165563860Y-106755992D01*
X165235301Y-106946177D01*
X165027069Y-107359607D01*
X164903494Y-107805717D01*
X164869326Y-108267364D01*
X160600807Y-108267364D01*
X160602903Y-107690000D01*
X160591318Y-107572379D01*
X160557010Y-107459279D01*
X160501296Y-107355045D01*
X160426317Y-107263683D01*
X160334955Y-107188704D01*
X160230721Y-107132990D01*
X160117621Y-107098682D01*
X160000000Y-107087097D01*
X159300000Y-107090000D01*
X159150000Y-107240000D01*
X158850000Y-107240000D01*
X158700000Y-107090000D01*
X158000000Y-107087097D01*
X157882379Y-107098682D01*
X157769279Y-107132990D01*
X157665045Y-107188704D01*
X157573683Y-107263683D01*
X157498704Y-107355045D01*
X157442990Y-107459279D01*
X157408682Y-107572379D01*
X157397097Y-107690000D01*
X151694191Y-107690000D01*
X151694191Y-107673282D01*
X151674015Y-107571853D01*
X151634440Y-107476309D01*
X151576985Y-107390322D01*
X151503859Y-107317196D01*
X151417872Y-107259741D01*
X151322328Y-107220166D01*
X151220899Y-107199990D01*
X151117483Y-107199990D01*
X151016054Y-107220166D01*
X150920510Y-107259741D01*
X150834523Y-107317196D01*
X150826729Y-107324990D01*
X95821647Y-107324990D01*
X95802011Y-107323056D01*
X95782375Y-107324990D01*
X95782365Y-107324990D01*
X95723598Y-107330778D01*
X95648198Y-107353650D01*
X95578709Y-107390793D01*
X95578707Y-107390794D01*
X95578708Y-107390794D01*
X95533061Y-107428255D01*
X95533059Y-107428257D01*
X95517801Y-107440779D01*
X95505279Y-107456037D01*
X95111317Y-107850000D01*
X92813453Y-107850000D01*
X92647757Y-107684305D01*
X92647757Y-107673282D01*
X92627581Y-107571853D01*
X92588006Y-107476309D01*
X92530551Y-107390322D01*
X92457425Y-107317196D01*
X92371438Y-107259741D01*
X92275894Y-107220166D01*
X92174465Y-107199990D01*
X92071049Y-107199990D01*
X91969620Y-107220166D01*
X91874076Y-107259741D01*
X91788089Y-107317196D01*
X91714963Y-107390322D01*
X91657508Y-107476309D01*
X91617933Y-107571853D01*
X91597757Y-107673282D01*
X91597757Y-107734162D01*
X91551700Y-107725000D01*
X91448284Y-107725000D01*
X91346855Y-107745176D01*
X91251311Y-107784751D01*
X91165324Y-107842206D01*
X91092198Y-107915332D01*
X91034743Y-108001319D01*
X90995168Y-108096863D01*
X90974992Y-108198292D01*
X85763948Y-108198292D01*
X81525000Y-103959345D01*
X81525000Y-103948322D01*
X81504824Y-103846893D01*
X81465249Y-103751349D01*
X81407794Y-103665362D01*
X81334668Y-103592236D01*
X81248681Y-103534781D01*
X81153137Y-103495206D01*
X81051708Y-103475030D01*
X80948292Y-103475030D01*
X80846863Y-103495206D01*
X80751319Y-103534781D01*
X80665332Y-103592236D01*
X80592206Y-103665362D01*
X80534751Y-103751349D01*
X80495176Y-103846893D01*
X80475000Y-103948322D01*
X46825000Y-103948322D01*
X46825000Y-103198292D01*
X82725000Y-103198292D01*
X82725000Y-103301708D01*
X82745176Y-103403137D01*
X82784751Y-103498681D01*
X82842206Y-103584668D01*
X82915332Y-103657794D01*
X83001319Y-103715249D01*
X83096863Y-103754824D01*
X83198292Y-103775000D01*
X83209315Y-103775000D01*
X85703263Y-106268948D01*
X85715789Y-106284211D01*
X85769635Y-106328401D01*
X85776697Y-106334197D01*
X85846186Y-106371340D01*
X85921586Y-106394212D01*
X86000000Y-106401935D01*
X86019647Y-106400000D01*
X86657538Y-106400000D01*
X86665332Y-106407794D01*
X86751319Y-106465249D01*
X86846863Y-106504824D01*
X86948292Y-106525000D01*
X87051708Y-106525000D01*
X87153137Y-106504824D01*
X87248681Y-106465249D01*
X87334668Y-106407794D01*
X87407794Y-106334668D01*
X87465249Y-106248681D01*
X87504824Y-106153137D01*
X87525000Y-106051708D01*
X87525000Y-105948292D01*
X87504824Y-105846863D01*
X87465249Y-105751319D01*
X87429818Y-105698292D01*
X89975000Y-105698292D01*
X89975000Y-105801708D01*
X89995176Y-105903137D01*
X90034751Y-105998681D01*
X90092206Y-106084668D01*
X90165332Y-106157794D01*
X90251319Y-106215249D01*
X90346863Y-106254824D01*
X90448292Y-106275000D01*
X90551708Y-106275000D01*
X90653137Y-106254824D01*
X90748681Y-106215249D01*
X90834668Y-106157794D01*
X90907794Y-106084668D01*
X90965249Y-105998681D01*
X91004824Y-105903137D01*
X91025000Y-105801708D01*
X91025000Y-105790685D01*
X92165685Y-104650000D01*
X95107532Y-104650000D01*
X95092206Y-104665326D01*
X95034751Y-104751313D01*
X94995176Y-104846857D01*
X94975000Y-104948286D01*
X94975000Y-105051702D01*
X94989582Y-105125007D01*
X92794639Y-105125007D01*
X92774992Y-105123072D01*
X92696578Y-105130795D01*
X92621178Y-105153667D01*
X92551689Y-105190810D01*
X92506041Y-105228272D01*
X92506039Y-105228274D01*
X92490781Y-105240796D01*
X92478262Y-105256051D01*
X92459313Y-105275000D01*
X92448291Y-105275000D01*
X92346862Y-105295176D01*
X92251318Y-105334751D01*
X92165331Y-105392206D01*
X92092205Y-105465332D01*
X92034750Y-105551319D01*
X91995175Y-105646863D01*
X91974999Y-105748292D01*
X91974999Y-105851708D01*
X91995175Y-105953137D01*
X92034750Y-106048681D01*
X92092205Y-106134668D01*
X92165331Y-106207794D01*
X92251318Y-106265249D01*
X92346862Y-106304824D01*
X92448291Y-106325000D01*
X92551707Y-106325000D01*
X92653136Y-106304824D01*
X92748680Y-106265249D01*
X92834667Y-106207794D01*
X92907793Y-106134668D01*
X92965248Y-106048681D01*
X93004823Y-105953137D01*
X93010419Y-105925007D01*
X95085725Y-105925007D01*
X95034743Y-106001307D01*
X94995168Y-106096851D01*
X94974992Y-106198280D01*
X94974992Y-106301696D01*
X94995168Y-106403125D01*
X95034743Y-106498669D01*
X95092198Y-106584656D01*
X95165324Y-106657782D01*
X95251311Y-106715237D01*
X95346855Y-106754812D01*
X95448284Y-106774988D01*
X95551700Y-106774988D01*
X95653129Y-106754812D01*
X95748673Y-106715237D01*
X95834660Y-106657782D01*
X95907786Y-106584656D01*
X95935045Y-106543860D01*
X165775992Y-106543860D01*
X167230000Y-107997868D01*
X168684008Y-106543860D01*
X168672605Y-106524159D01*
X171187973Y-106524159D01*
X171269491Y-106760655D01*
X171529469Y-106878948D01*
X171807529Y-106944248D01*
X172092986Y-106954046D01*
X172374870Y-106907967D01*
X172642347Y-106807780D01*
X172730509Y-106760655D01*
X172812027Y-106524159D01*
X172000000Y-105712132D01*
X171187973Y-106524159D01*
X168672605Y-106524159D01*
X168493823Y-106215301D01*
X168080393Y-106007069D01*
X167634283Y-105883494D01*
X167172636Y-105849326D01*
X166713194Y-105905877D01*
X166273613Y-106050974D01*
X165966177Y-106215301D01*
X165775992Y-106543860D01*
X95935045Y-106543860D01*
X95965241Y-106498669D01*
X96004816Y-106403125D01*
X96005438Y-106400000D01*
X111657548Y-106400000D01*
X111665342Y-106407794D01*
X111751329Y-106465249D01*
X111846873Y-106504824D01*
X111948302Y-106525000D01*
X112051718Y-106525000D01*
X112153147Y-106504824D01*
X112248691Y-106465249D01*
X112334678Y-106407794D01*
X112407804Y-106334668D01*
X112465259Y-106248681D01*
X112504834Y-106153137D01*
X112525010Y-106051708D01*
X112525010Y-105948292D01*
X112504834Y-105846863D01*
X112472716Y-105769323D01*
X113601841Y-105769323D01*
X113640322Y-105807804D01*
X113726309Y-105865259D01*
X113821853Y-105904834D01*
X113923282Y-105925010D01*
X114026698Y-105925010D01*
X114128127Y-105904834D01*
X114223671Y-105865259D01*
X114309658Y-105807804D01*
X114382784Y-105734678D01*
X114440239Y-105648691D01*
X114463312Y-105592986D01*
X170545954Y-105592986D01*
X170592033Y-105874870D01*
X170692220Y-106142347D01*
X170739345Y-106230509D01*
X170975841Y-106312027D01*
X171787868Y-105500000D01*
X171773726Y-105485858D01*
X171985858Y-105273726D01*
X172000000Y-105287868D01*
X172014143Y-105273726D01*
X172226275Y-105485858D01*
X172212132Y-105500000D01*
X173024159Y-106312027D01*
X173260655Y-106230509D01*
X173378948Y-105970531D01*
X173404710Y-105860831D01*
X173480884Y-106044729D01*
X173606737Y-106233082D01*
X173766918Y-106393263D01*
X173955271Y-106519116D01*
X174164557Y-106605806D01*
X174386735Y-106650000D01*
X174613265Y-106650000D01*
X174835443Y-106605806D01*
X174984992Y-106543860D01*
X177815992Y-106543860D01*
X179270000Y-107997868D01*
X180724008Y-106543860D01*
X180533823Y-106215301D01*
X180120393Y-106007069D01*
X179674283Y-105883494D01*
X179212636Y-105849326D01*
X178753194Y-105905877D01*
X178313613Y-106050974D01*
X178006177Y-106215301D01*
X177815992Y-106543860D01*
X174984992Y-106543860D01*
X175044729Y-106519116D01*
X175233082Y-106393263D01*
X175393263Y-106233082D01*
X175519116Y-106044729D01*
X175605806Y-105835443D01*
X175650000Y-105613265D01*
X175650000Y-105386735D01*
X175605806Y-105164557D01*
X175519116Y-104955271D01*
X175393263Y-104766918D01*
X175233082Y-104606737D01*
X175073338Y-104500000D01*
X175233082Y-104393263D01*
X175393263Y-104233082D01*
X175519116Y-104044729D01*
X175605806Y-103835443D01*
X175650000Y-103613265D01*
X175650000Y-103386735D01*
X175605806Y-103164557D01*
X175519116Y-102955271D01*
X175393263Y-102766918D01*
X175233082Y-102606737D01*
X175044729Y-102480884D01*
X174835443Y-102394194D01*
X174613265Y-102350000D01*
X174386735Y-102350000D01*
X174164557Y-102394194D01*
X173955271Y-102480884D01*
X173766918Y-102606737D01*
X173606737Y-102766918D01*
X173480884Y-102955271D01*
X173394194Y-103164557D01*
X173350000Y-103386735D01*
X173350000Y-103613265D01*
X173394194Y-103835443D01*
X173480884Y-104044729D01*
X173606737Y-104233082D01*
X173766918Y-104393263D01*
X173926662Y-104500000D01*
X173766918Y-104606737D01*
X173606737Y-104766918D01*
X173480884Y-104955271D01*
X173408691Y-105129559D01*
X173407967Y-105125130D01*
X173307780Y-104857653D01*
X173260655Y-104769491D01*
X173024161Y-104687974D01*
X173135991Y-104576144D01*
X173090134Y-104530287D01*
X173100647Y-104517477D01*
X173128504Y-104465360D01*
X173145659Y-104408810D01*
X173151451Y-104350000D01*
X173151451Y-102650000D01*
X173145659Y-102591190D01*
X173128504Y-102534640D01*
X173100647Y-102482523D01*
X173063158Y-102436842D01*
X173017477Y-102399353D01*
X172965360Y-102371496D01*
X172908810Y-102354341D01*
X172850000Y-102348549D01*
X171150000Y-102348549D01*
X171091190Y-102354341D01*
X171034640Y-102371496D01*
X170982523Y-102399353D01*
X170936842Y-102436842D01*
X170899353Y-102482523D01*
X170871496Y-102534640D01*
X170854341Y-102591190D01*
X170848549Y-102650000D01*
X170848549Y-104350000D01*
X170854341Y-104408810D01*
X170871496Y-104465360D01*
X170899353Y-104517477D01*
X170909866Y-104530287D01*
X170864009Y-104576144D01*
X170975839Y-104687974D01*
X170739345Y-104769491D01*
X170621052Y-105029469D01*
X170555752Y-105307529D01*
X170545954Y-105592986D01*
X114463312Y-105592986D01*
X114479814Y-105553147D01*
X114499990Y-105451718D01*
X114499990Y-105348302D01*
X114479814Y-105246873D01*
X114440239Y-105151329D01*
X114382784Y-105065342D01*
X114309658Y-104992216D01*
X114223671Y-104934761D01*
X114128127Y-104895186D01*
X114026698Y-104875010D01*
X113923282Y-104875010D01*
X113821853Y-104895186D01*
X113815857Y-104897669D01*
X113825000Y-104851708D01*
X113825000Y-104748292D01*
X113805448Y-104650000D01*
X149380334Y-104650000D01*
X149399980Y-104651935D01*
X149419626Y-104650000D01*
X149419627Y-104650000D01*
X149478394Y-104644212D01*
X149553794Y-104621340D01*
X149623283Y-104584197D01*
X149684191Y-104534211D01*
X149696717Y-104518948D01*
X149746727Y-104468938D01*
X149943935Y-104271729D01*
X149943940Y-104271725D01*
X151355665Y-102860000D01*
X157698549Y-102860000D01*
X157698549Y-104560000D01*
X157709145Y-104667583D01*
X157740526Y-104771031D01*
X157791485Y-104866370D01*
X157860065Y-104949935D01*
X157943630Y-105018515D01*
X158038969Y-105069474D01*
X158142417Y-105100855D01*
X158250000Y-105111451D01*
X159750000Y-105111451D01*
X159857583Y-105100855D01*
X159961031Y-105069474D01*
X160056370Y-105018515D01*
X160139935Y-104949935D01*
X160208515Y-104866370D01*
X160259474Y-104771031D01*
X160290855Y-104667583D01*
X160301451Y-104560000D01*
X160301451Y-102860000D01*
X160290855Y-102752417D01*
X160259474Y-102648969D01*
X160208515Y-102553630D01*
X160139935Y-102470065D01*
X160056370Y-102401485D01*
X159961031Y-102350526D01*
X159857583Y-102319145D01*
X159750000Y-102308549D01*
X159408535Y-102308549D01*
X159465249Y-102223671D01*
X159504824Y-102128127D01*
X159525000Y-102026698D01*
X159525000Y-101923282D01*
X159504824Y-101821853D01*
X159465249Y-101726309D01*
X159407794Y-101640322D01*
X159334668Y-101567196D01*
X159248681Y-101509741D01*
X159153137Y-101470166D01*
X159051708Y-101449990D01*
X158948292Y-101449990D01*
X158846863Y-101470166D01*
X158751319Y-101509741D01*
X158665332Y-101567196D01*
X158592206Y-101640322D01*
X158534751Y-101726309D01*
X158495176Y-101821853D01*
X158475000Y-101923282D01*
X158475000Y-102026698D01*
X158495176Y-102128127D01*
X158534751Y-102223671D01*
X158591465Y-102308549D01*
X158250000Y-102308549D01*
X158142417Y-102319145D01*
X158038969Y-102350526D01*
X157943630Y-102401485D01*
X157860065Y-102470065D01*
X157791485Y-102553630D01*
X157740526Y-102648969D01*
X157709145Y-102752417D01*
X157698549Y-102860000D01*
X151355665Y-102860000D01*
X151865676Y-102349990D01*
X151876698Y-102349990D01*
X151978127Y-102329814D01*
X152073671Y-102290239D01*
X152159658Y-102232784D01*
X152232784Y-102159658D01*
X152290239Y-102073671D01*
X152329814Y-101978127D01*
X152349990Y-101876698D01*
X152349990Y-101773282D01*
X152329814Y-101671853D01*
X152290239Y-101576309D01*
X152232784Y-101490322D01*
X152159658Y-101417196D01*
X152073671Y-101359741D01*
X151978127Y-101320166D01*
X151876698Y-101299990D01*
X151773282Y-101299990D01*
X151671853Y-101320166D01*
X151576309Y-101359741D01*
X151490322Y-101417196D01*
X151417196Y-101490322D01*
X151359741Y-101576309D01*
X151320166Y-101671853D01*
X151299990Y-101773282D01*
X151299990Y-101784304D01*
X149378255Y-103706040D01*
X149378251Y-103706045D01*
X149234295Y-103850000D01*
X92019647Y-103850000D01*
X92000000Y-103848065D01*
X91980353Y-103850000D01*
X91921586Y-103855788D01*
X91846186Y-103878660D01*
X91776697Y-103915803D01*
X91715789Y-103965789D01*
X91703265Y-103981050D01*
X90459315Y-105225000D01*
X90448292Y-105225000D01*
X90346863Y-105245176D01*
X90251319Y-105284751D01*
X90165332Y-105342206D01*
X90092206Y-105415332D01*
X90034751Y-105501319D01*
X89995176Y-105596863D01*
X89975000Y-105698292D01*
X87429818Y-105698292D01*
X87407794Y-105665332D01*
X87334668Y-105592206D01*
X87248681Y-105534751D01*
X87153137Y-105495176D01*
X87051708Y-105475000D01*
X86948292Y-105475000D01*
X86846863Y-105495176D01*
X86751319Y-105534751D01*
X86665332Y-105592206D01*
X86657538Y-105600000D01*
X86165685Y-105600000D01*
X83775000Y-103209315D01*
X83775000Y-103198292D01*
X83754824Y-103096863D01*
X83715249Y-103001319D01*
X83674882Y-102940905D01*
X110150000Y-102940905D01*
X110150000Y-103059095D01*
X110173058Y-103175014D01*
X110218287Y-103284207D01*
X110283950Y-103382478D01*
X110367522Y-103466050D01*
X110465793Y-103531713D01*
X110574986Y-103576942D01*
X110690905Y-103600000D01*
X110809095Y-103600000D01*
X110925014Y-103576942D01*
X110990058Y-103550000D01*
X116759916Y-103550000D01*
X116825004Y-103576960D01*
X116940923Y-103600018D01*
X117059113Y-103600018D01*
X117175032Y-103576960D01*
X117284225Y-103531731D01*
X117382496Y-103466068D01*
X117466068Y-103382496D01*
X117531731Y-103284225D01*
X117576960Y-103175032D01*
X117600018Y-103059113D01*
X117600018Y-102940923D01*
X117576960Y-102825004D01*
X117531731Y-102715811D01*
X117466068Y-102617540D01*
X117382496Y-102533968D01*
X117284225Y-102468305D01*
X117175032Y-102423076D01*
X117059113Y-102400018D01*
X116940923Y-102400018D01*
X116825004Y-102423076D01*
X116760003Y-102450000D01*
X110990058Y-102450000D01*
X110925014Y-102423058D01*
X110809095Y-102400000D01*
X110690905Y-102400000D01*
X110574986Y-102423058D01*
X110465793Y-102468287D01*
X110367522Y-102533950D01*
X110283950Y-102617522D01*
X110218287Y-102715793D01*
X110173058Y-102824986D01*
X110150000Y-102940905D01*
X83674882Y-102940905D01*
X83657794Y-102915332D01*
X83584668Y-102842206D01*
X83498681Y-102784751D01*
X83403137Y-102745176D01*
X83301708Y-102725000D01*
X83198292Y-102725000D01*
X83096863Y-102745176D01*
X83001319Y-102784751D01*
X82915332Y-102842206D01*
X82842206Y-102915332D01*
X82784751Y-103001319D01*
X82745176Y-103096863D01*
X82725000Y-103198292D01*
X46825000Y-103198292D01*
X46825000Y-98488045D01*
X67724087Y-98488045D01*
X67884169Y-98791005D01*
X68255017Y-98974280D01*
X68654494Y-99081683D01*
X69067249Y-99109090D01*
X69477420Y-99055445D01*
X69869244Y-98922810D01*
X70115831Y-98791005D01*
X70275913Y-98488045D01*
X69000000Y-97212132D01*
X67724087Y-98488045D01*
X46825000Y-98488045D01*
X46825000Y-97067249D01*
X66890910Y-97067249D01*
X66944555Y-97477420D01*
X67077190Y-97869244D01*
X67208995Y-98115831D01*
X67511955Y-98275913D01*
X68787868Y-97000000D01*
X69212132Y-97000000D01*
X70488045Y-98275913D01*
X70791005Y-98115831D01*
X70974280Y-97744983D01*
X71081683Y-97345506D01*
X71109090Y-96932751D01*
X71055445Y-96522580D01*
X71038765Y-96473302D01*
X88948206Y-96473302D01*
X88948206Y-96576718D01*
X88968382Y-96678147D01*
X89007957Y-96773691D01*
X89065412Y-96859678D01*
X89138538Y-96932804D01*
X89224525Y-96990259D01*
X89320069Y-97029834D01*
X89421498Y-97050010D01*
X89524914Y-97050010D01*
X89626343Y-97029834D01*
X89721887Y-96990259D01*
X89807874Y-96932804D01*
X89815668Y-96925010D01*
X103682562Y-96925010D01*
X103690356Y-96932804D01*
X103776343Y-96990259D01*
X103871887Y-97029834D01*
X103973316Y-97050010D01*
X104076732Y-97050010D01*
X104178161Y-97029834D01*
X104273705Y-96990259D01*
X104359692Y-96932804D01*
X104432818Y-96859678D01*
X104490273Y-96773691D01*
X104529848Y-96678147D01*
X104550024Y-96576718D01*
X104550024Y-96473302D01*
X104529848Y-96371873D01*
X104490273Y-96276329D01*
X104432818Y-96190342D01*
X104359692Y-96117216D01*
X104273705Y-96059761D01*
X104178161Y-96020186D01*
X104076732Y-96000010D01*
X103973316Y-96000010D01*
X103871887Y-96020186D01*
X103776343Y-96059761D01*
X103690356Y-96117216D01*
X103682562Y-96125010D01*
X89815668Y-96125010D01*
X89807874Y-96117216D01*
X89721887Y-96059761D01*
X89626343Y-96020186D01*
X89524914Y-96000010D01*
X89421498Y-96000010D01*
X89320069Y-96020186D01*
X89224525Y-96059761D01*
X89138538Y-96117216D01*
X89065412Y-96190342D01*
X89007957Y-96276329D01*
X88968382Y-96371873D01*
X88948206Y-96473302D01*
X71038765Y-96473302D01*
X70922810Y-96130756D01*
X70791005Y-95884169D01*
X70488045Y-95724087D01*
X69212132Y-97000000D01*
X68787868Y-97000000D01*
X67511955Y-95724087D01*
X67208995Y-95884169D01*
X67025720Y-96255017D01*
X66918317Y-96654494D01*
X66890910Y-97067249D01*
X46825000Y-97067249D01*
X46825000Y-95511955D01*
X67724087Y-95511955D01*
X69000000Y-96787868D01*
X70275913Y-95511955D01*
X70269597Y-95500000D01*
X164197329Y-95500000D01*
X164207948Y-95607819D01*
X164239398Y-95711494D01*
X164290469Y-95807042D01*
X164359200Y-95890790D01*
X164442948Y-95959521D01*
X164538496Y-96010592D01*
X164642171Y-96042042D01*
X164722972Y-96050000D01*
X178772183Y-96050000D01*
X180730196Y-98008014D01*
X180730201Y-98008018D01*
X180802203Y-98080021D01*
X180826901Y-98204182D01*
X180879668Y-98331574D01*
X180956274Y-98446224D01*
X181053776Y-98543726D01*
X181168426Y-98620332D01*
X181295818Y-98673099D01*
X181431056Y-98700000D01*
X181568944Y-98700000D01*
X181704182Y-98673099D01*
X181831574Y-98620332D01*
X181946224Y-98543726D01*
X182043726Y-98446224D01*
X182120332Y-98331574D01*
X182173099Y-98204182D01*
X182200000Y-98068944D01*
X182200000Y-97988045D01*
X194724087Y-97988045D01*
X194884169Y-98291005D01*
X195255017Y-98474280D01*
X195654494Y-98581683D01*
X196067249Y-98609090D01*
X196477420Y-98555445D01*
X196869244Y-98422810D01*
X197115831Y-98291005D01*
X197275913Y-97988045D01*
X196000000Y-96712132D01*
X194724087Y-97988045D01*
X182200000Y-97988045D01*
X182200000Y-97931056D01*
X182173099Y-97795818D01*
X182120332Y-97668426D01*
X182043726Y-97553776D01*
X181946224Y-97456274D01*
X181831574Y-97379668D01*
X181704182Y-97326901D01*
X181580021Y-97302203D01*
X181508018Y-97230201D01*
X181508014Y-97230196D01*
X180845067Y-96567249D01*
X193890910Y-96567249D01*
X193944555Y-96977420D01*
X194077190Y-97369244D01*
X194208995Y-97615831D01*
X194511955Y-97775913D01*
X195787868Y-96500000D01*
X196212132Y-96500000D01*
X197488045Y-97775913D01*
X197791005Y-97615831D01*
X197974280Y-97244983D01*
X198040145Y-97000000D01*
X200804436Y-97000000D01*
X200826640Y-97225439D01*
X200892398Y-97442215D01*
X200999184Y-97641997D01*
X201142893Y-97817107D01*
X201318003Y-97960816D01*
X201517785Y-98067602D01*
X201734561Y-98133360D01*
X201903508Y-98150000D01*
X202016492Y-98150000D01*
X202185439Y-98133360D01*
X202402215Y-98067602D01*
X202601997Y-97960816D01*
X202777107Y-97817107D01*
X202920816Y-97641997D01*
X203027602Y-97442215D01*
X203093360Y-97225439D01*
X203115564Y-97000000D01*
X203093360Y-96774561D01*
X203027602Y-96557785D01*
X202920816Y-96358003D01*
X202777107Y-96182893D01*
X202737027Y-96150000D01*
X203348549Y-96150000D01*
X203348549Y-97850000D01*
X203354341Y-97908810D01*
X203371496Y-97965360D01*
X203399353Y-98017477D01*
X203436842Y-98063158D01*
X203482523Y-98100647D01*
X203534640Y-98128504D01*
X203591190Y-98145659D01*
X203650000Y-98151451D01*
X205350000Y-98151451D01*
X205408810Y-98145659D01*
X205465360Y-98128504D01*
X205517477Y-98100647D01*
X205563158Y-98063158D01*
X205600647Y-98017477D01*
X205628504Y-97965360D01*
X205645659Y-97908810D01*
X205651451Y-97850000D01*
X205651451Y-96150000D01*
X205645659Y-96091190D01*
X205628504Y-96034640D01*
X205600647Y-95982523D01*
X205563158Y-95936842D01*
X205517477Y-95899353D01*
X205465360Y-95871496D01*
X205408810Y-95854341D01*
X205350000Y-95848549D01*
X203650000Y-95848549D01*
X203591190Y-95854341D01*
X203534640Y-95871496D01*
X203482523Y-95899353D01*
X203436842Y-95936842D01*
X203399353Y-95982523D01*
X203371496Y-96034640D01*
X203354341Y-96091190D01*
X203348549Y-96150000D01*
X202737027Y-96150000D01*
X202601997Y-96039184D01*
X202402215Y-95932398D01*
X202185439Y-95866640D01*
X202016492Y-95850000D01*
X201903508Y-95850000D01*
X201734561Y-95866640D01*
X201517785Y-95932398D01*
X201318003Y-96039184D01*
X201142893Y-96182893D01*
X200999184Y-96358003D01*
X200892398Y-96557785D01*
X200826640Y-96774561D01*
X200804436Y-97000000D01*
X198040145Y-97000000D01*
X198081683Y-96845506D01*
X198109090Y-96432751D01*
X198055445Y-96022580D01*
X197922810Y-95630756D01*
X197791005Y-95384169D01*
X197488045Y-95224087D01*
X196212132Y-96500000D01*
X195787868Y-96500000D01*
X194511955Y-95224087D01*
X194208995Y-95384169D01*
X194025720Y-95755017D01*
X193918317Y-96154494D01*
X193890910Y-96567249D01*
X180845067Y-96567249D01*
X179408013Y-95130196D01*
X179390790Y-95109210D01*
X179307042Y-95040479D01*
X179253677Y-95011955D01*
X194724087Y-95011955D01*
X196000000Y-96287868D01*
X197275913Y-95011955D01*
X197115831Y-94708995D01*
X196744983Y-94525720D01*
X196345506Y-94418317D01*
X195932751Y-94390910D01*
X195522580Y-94444555D01*
X195130756Y-94577190D01*
X194884169Y-94708995D01*
X194724087Y-95011955D01*
X179253677Y-95011955D01*
X179211494Y-94989408D01*
X179107819Y-94957958D01*
X179027018Y-94950000D01*
X179027008Y-94950000D01*
X179000000Y-94947340D01*
X178972992Y-94950000D01*
X164722972Y-94950000D01*
X164642171Y-94957958D01*
X164538496Y-94989408D01*
X164442948Y-95040479D01*
X164359200Y-95109210D01*
X164290469Y-95192958D01*
X164239398Y-95288506D01*
X164207948Y-95392181D01*
X164197329Y-95500000D01*
X70269597Y-95500000D01*
X70115831Y-95208995D01*
X69744983Y-95025720D01*
X69345506Y-94918317D01*
X68932751Y-94890910D01*
X68522580Y-94944555D01*
X68130756Y-95077190D01*
X67884169Y-95208995D01*
X67724087Y-95511955D01*
X46825000Y-95511955D01*
X46825000Y-94325000D01*
X259175000Y-94325000D01*
X259175001Y-117675000D01*
M02*
