G04 #@! TF.GenerationSoftware,KiCad,Pcbnew,(5.1.4)-1*
G04 #@! TF.CreationDate,2019-11-12T21:59:56+01:00*
G04 #@! TF.ProjectId,Controller,436f6e74-726f-46c6-9c65-722e6b696361,rev?*
G04 #@! TF.SameCoordinates,Original*
G04 #@! TF.FileFunction,Copper,L1,Top*
G04 #@! TF.FilePolarity,Positive*
%FSLAX46Y46*%
G04 Gerber Fmt 4.6, Leading zero omitted, Abs format (unit mm)*
G04 Created by KiCad (PCBNEW (5.1.4)-1) date 2019-11-12 21:59:56*
%MOMM*%
%LPD*%
G04 APERTURE LIST*
%ADD10C,1.500000*%
%ADD11C,3.500000*%
%ADD12C,1.700000*%
%ADD13C,3.000000*%
%ADD14C,2.000000*%
%ADD15O,1.700000X2.000000*%
%ADD16C,0.100000*%
%ADD17R,1.727200X1.727200*%
%ADD18O,1.727200X1.727200*%
%ADD19C,0.800000*%
%ADD20C,6.400000*%
%ADD21C,0.600000*%
%ADD22C,0.450000*%
%ADD23C,0.500000*%
%ADD24C,0.200000*%
G04 APERTURE END LIST*
D10*
X163200000Y-105600000D03*
X166600000Y-105600000D03*
D11*
X167980000Y-110640000D03*
X180020000Y-110640000D03*
D12*
X175250000Y-110150000D03*
X172750000Y-110150000D03*
X172750000Y-113350000D03*
X175250000Y-113350000D03*
D13*
X232750000Y-95750000D03*
X205250000Y-95750000D03*
X194250000Y-95750000D03*
X182500000Y-95750000D03*
X145000000Y-96000000D03*
X101750000Y-96000000D03*
X97500000Y-96000000D03*
X110250000Y-96000000D03*
X199500000Y-95750000D03*
X106000000Y-96000000D03*
X155500000Y-96000000D03*
X118750000Y-96000000D03*
X69000000Y-96000000D03*
X114500000Y-96000000D03*
D14*
X75750000Y-114000000D03*
X75750000Y-109500000D03*
X69250000Y-114000000D03*
X69250000Y-109500000D03*
D15*
X188250000Y-114750000D03*
D16*
G36*
X186374504Y-113751204D02*
G01*
X186398773Y-113754804D01*
X186422571Y-113760765D01*
X186445671Y-113769030D01*
X186467849Y-113779520D01*
X186488893Y-113792133D01*
X186508598Y-113806747D01*
X186526777Y-113823223D01*
X186543253Y-113841402D01*
X186557867Y-113861107D01*
X186570480Y-113882151D01*
X186580970Y-113904329D01*
X186589235Y-113927429D01*
X186595196Y-113951227D01*
X186598796Y-113975496D01*
X186600000Y-114000000D01*
X186600000Y-115500000D01*
X186598796Y-115524504D01*
X186595196Y-115548773D01*
X186589235Y-115572571D01*
X186580970Y-115595671D01*
X186570480Y-115617849D01*
X186557867Y-115638893D01*
X186543253Y-115658598D01*
X186526777Y-115676777D01*
X186508598Y-115693253D01*
X186488893Y-115707867D01*
X186467849Y-115720480D01*
X186445671Y-115730970D01*
X186422571Y-115739235D01*
X186398773Y-115745196D01*
X186374504Y-115748796D01*
X186350000Y-115750000D01*
X185150000Y-115750000D01*
X185125496Y-115748796D01*
X185101227Y-115745196D01*
X185077429Y-115739235D01*
X185054329Y-115730970D01*
X185032151Y-115720480D01*
X185011107Y-115707867D01*
X184991402Y-115693253D01*
X184973223Y-115676777D01*
X184956747Y-115658598D01*
X184942133Y-115638893D01*
X184929520Y-115617849D01*
X184919030Y-115595671D01*
X184910765Y-115572571D01*
X184904804Y-115548773D01*
X184901204Y-115524504D01*
X184900000Y-115500000D01*
X184900000Y-114000000D01*
X184901204Y-113975496D01*
X184904804Y-113951227D01*
X184910765Y-113927429D01*
X184919030Y-113904329D01*
X184929520Y-113882151D01*
X184942133Y-113861107D01*
X184956747Y-113841402D01*
X184973223Y-113823223D01*
X184991402Y-113806747D01*
X185011107Y-113792133D01*
X185032151Y-113779520D01*
X185054329Y-113769030D01*
X185077429Y-113760765D01*
X185101227Y-113754804D01*
X185125496Y-113751204D01*
X185150000Y-113750000D01*
X186350000Y-113750000D01*
X186374504Y-113751204D01*
X186374504Y-113751204D01*
G37*
D12*
X185750000Y-114750000D03*
D15*
X204250000Y-114750000D03*
D16*
G36*
X202374504Y-113751204D02*
G01*
X202398773Y-113754804D01*
X202422571Y-113760765D01*
X202445671Y-113769030D01*
X202467849Y-113779520D01*
X202488893Y-113792133D01*
X202508598Y-113806747D01*
X202526777Y-113823223D01*
X202543253Y-113841402D01*
X202557867Y-113861107D01*
X202570480Y-113882151D01*
X202580970Y-113904329D01*
X202589235Y-113927429D01*
X202595196Y-113951227D01*
X202598796Y-113975496D01*
X202600000Y-114000000D01*
X202600000Y-115500000D01*
X202598796Y-115524504D01*
X202595196Y-115548773D01*
X202589235Y-115572571D01*
X202580970Y-115595671D01*
X202570480Y-115617849D01*
X202557867Y-115638893D01*
X202543253Y-115658598D01*
X202526777Y-115676777D01*
X202508598Y-115693253D01*
X202488893Y-115707867D01*
X202467849Y-115720480D01*
X202445671Y-115730970D01*
X202422571Y-115739235D01*
X202398773Y-115745196D01*
X202374504Y-115748796D01*
X202350000Y-115750000D01*
X201150000Y-115750000D01*
X201125496Y-115748796D01*
X201101227Y-115745196D01*
X201077429Y-115739235D01*
X201054329Y-115730970D01*
X201032151Y-115720480D01*
X201011107Y-115707867D01*
X200991402Y-115693253D01*
X200973223Y-115676777D01*
X200956747Y-115658598D01*
X200942133Y-115638893D01*
X200929520Y-115617849D01*
X200919030Y-115595671D01*
X200910765Y-115572571D01*
X200904804Y-115548773D01*
X200901204Y-115524504D01*
X200900000Y-115500000D01*
X200900000Y-114000000D01*
X200901204Y-113975496D01*
X200904804Y-113951227D01*
X200910765Y-113927429D01*
X200919030Y-113904329D01*
X200929520Y-113882151D01*
X200942133Y-113861107D01*
X200956747Y-113841402D01*
X200973223Y-113823223D01*
X200991402Y-113806747D01*
X201011107Y-113792133D01*
X201032151Y-113779520D01*
X201054329Y-113769030D01*
X201077429Y-113760765D01*
X201101227Y-113754804D01*
X201125496Y-113751204D01*
X201150000Y-113750000D01*
X202350000Y-113750000D01*
X202374504Y-113751204D01*
X202374504Y-113751204D01*
G37*
D12*
X201750000Y-114750000D03*
D17*
X61250000Y-113000000D03*
D18*
X61250000Y-110460000D03*
X58710000Y-113000000D03*
X58710000Y-110460000D03*
X56170000Y-113000000D03*
X56170000Y-110460000D03*
D15*
X249750000Y-114500000D03*
D16*
G36*
X247874504Y-113501204D02*
G01*
X247898773Y-113504804D01*
X247922571Y-113510765D01*
X247945671Y-113519030D01*
X247967849Y-113529520D01*
X247988893Y-113542133D01*
X248008598Y-113556747D01*
X248026777Y-113573223D01*
X248043253Y-113591402D01*
X248057867Y-113611107D01*
X248070480Y-113632151D01*
X248080970Y-113654329D01*
X248089235Y-113677429D01*
X248095196Y-113701227D01*
X248098796Y-113725496D01*
X248100000Y-113750000D01*
X248100000Y-115250000D01*
X248098796Y-115274504D01*
X248095196Y-115298773D01*
X248089235Y-115322571D01*
X248080970Y-115345671D01*
X248070480Y-115367849D01*
X248057867Y-115388893D01*
X248043253Y-115408598D01*
X248026777Y-115426777D01*
X248008598Y-115443253D01*
X247988893Y-115457867D01*
X247967849Y-115470480D01*
X247945671Y-115480970D01*
X247922571Y-115489235D01*
X247898773Y-115495196D01*
X247874504Y-115498796D01*
X247850000Y-115500000D01*
X246650000Y-115500000D01*
X246625496Y-115498796D01*
X246601227Y-115495196D01*
X246577429Y-115489235D01*
X246554329Y-115480970D01*
X246532151Y-115470480D01*
X246511107Y-115457867D01*
X246491402Y-115443253D01*
X246473223Y-115426777D01*
X246456747Y-115408598D01*
X246442133Y-115388893D01*
X246429520Y-115367849D01*
X246419030Y-115345671D01*
X246410765Y-115322571D01*
X246404804Y-115298773D01*
X246401204Y-115274504D01*
X246400000Y-115250000D01*
X246400000Y-113750000D01*
X246401204Y-113725496D01*
X246404804Y-113701227D01*
X246410765Y-113677429D01*
X246419030Y-113654329D01*
X246429520Y-113632151D01*
X246442133Y-113611107D01*
X246456747Y-113591402D01*
X246473223Y-113573223D01*
X246491402Y-113556747D01*
X246511107Y-113542133D01*
X246532151Y-113529520D01*
X246554329Y-113519030D01*
X246577429Y-113510765D01*
X246601227Y-113504804D01*
X246625496Y-113501204D01*
X246650000Y-113500000D01*
X247850000Y-113500000D01*
X247874504Y-113501204D01*
X247874504Y-113501204D01*
G37*
D12*
X247250000Y-114500000D03*
D19*
X248802944Y-98302944D03*
X248100000Y-100000000D03*
X248802944Y-101697056D03*
X250500000Y-102400000D03*
X252197056Y-101697056D03*
X252900000Y-100000000D03*
X252197056Y-98302944D03*
X250500000Y-97600000D03*
D20*
X250500000Y-100000000D03*
D19*
X53802944Y-98302944D03*
X53100000Y-100000000D03*
X53802944Y-101697056D03*
X55500000Y-102400000D03*
X57197056Y-101697056D03*
X57900000Y-100000000D03*
X57197056Y-98302944D03*
X55500000Y-97600000D03*
D20*
X55500000Y-100000000D03*
D21*
X78000000Y-96600000D03*
X78000000Y-97800000D03*
X78000000Y-99000000D03*
X75600000Y-96600000D03*
X75600000Y-97800000D03*
X75600000Y-99000000D03*
X127500000Y-96500000D03*
X132500000Y-96500000D03*
X137500000Y-96500000D03*
X140000000Y-99000000D03*
X135000000Y-99000000D03*
X130000000Y-99000000D03*
X125000000Y-99000000D03*
X122500000Y-96500000D03*
X137500000Y-110500000D03*
X140000000Y-113000000D03*
X135000000Y-113000000D03*
X130000000Y-113000000D03*
X132500000Y-110500000D03*
X125000000Y-113000000D03*
X127500000Y-110500000D03*
X122500000Y-110500000D03*
X120000000Y-113000000D03*
X142500000Y-110500000D03*
X175000000Y-95000000D03*
X171000000Y-95000000D03*
X167000000Y-95000000D03*
X163000000Y-95000000D03*
X159000000Y-95000000D03*
X160200000Y-111600018D03*
X178500000Y-93750000D03*
X190750000Y-93750000D03*
X98500000Y-112250000D03*
X80750010Y-112000000D03*
X80750001Y-110600022D03*
X99000000Y-109500000D03*
X184749994Y-103250000D03*
X70250000Y-105250000D03*
X80750000Y-109000000D03*
X168200000Y-101400000D03*
X167250000Y-98250000D03*
X83300000Y-104200000D03*
X237500000Y-112200000D03*
X236000000Y-112200000D03*
X234700000Y-113000000D03*
X234700000Y-114500000D03*
X234700000Y-116000000D03*
X238800000Y-116000000D03*
X238800000Y-114500000D03*
X238800000Y-113000000D03*
X227600000Y-116000000D03*
X227600000Y-114500000D03*
X227600000Y-113000000D03*
X226200000Y-112200000D03*
X224800000Y-112200000D03*
X223300000Y-113000000D03*
X223300000Y-114500000D03*
X223300000Y-116000000D03*
X218000000Y-103200000D03*
X216500000Y-103200000D03*
X215000000Y-103200000D03*
X215000000Y-106800000D03*
X216500000Y-106800000D03*
X218000000Y-106800000D03*
X219000000Y-104500000D03*
X219000000Y-105800000D03*
X215000000Y-111200000D03*
X216500000Y-111200000D03*
X218000000Y-111200000D03*
X219000000Y-112500000D03*
X219000000Y-113800000D03*
X218000000Y-114800000D03*
X216500000Y-114800000D03*
X215000000Y-114800000D03*
X90800000Y-96600000D03*
X90800000Y-97800000D03*
X90800000Y-99000000D03*
X88200000Y-96600000D03*
X88200000Y-97800000D03*
X88200000Y-99000000D03*
X85800000Y-96600000D03*
X85800000Y-97800000D03*
X85800000Y-99000000D03*
X80600000Y-96600000D03*
X80600000Y-97800000D03*
X80600000Y-99000000D03*
X163800000Y-101500000D03*
D22*
X92700000Y-107400000D03*
X95100000Y-107400000D03*
X84250000Y-108250000D03*
X87000000Y-108250000D03*
D21*
X100750000Y-112250000D03*
X100750000Y-114750000D03*
X97000000Y-114750000D03*
X92750000Y-114750000D03*
X94250000Y-113000000D03*
X109000000Y-113000000D03*
X106500000Y-113000000D03*
X109250000Y-114750000D03*
X154500000Y-108750000D03*
X154500000Y-110750000D03*
X154500000Y-113250000D03*
X150500000Y-111250000D03*
X180000000Y-102000000D03*
X180000000Y-103250000D03*
X178500000Y-104750000D03*
X177000000Y-102000000D03*
X177000000Y-103250000D03*
X192250000Y-101750000D03*
X192250000Y-103500000D03*
X190750000Y-104750000D03*
X189250000Y-101750000D03*
X189250000Y-103500000D03*
X222600000Y-96600000D03*
X222600000Y-97800000D03*
X222600000Y-99000000D03*
X220200000Y-96600000D03*
X220200000Y-97800000D03*
X220200000Y-99000000D03*
X217600000Y-96600000D03*
X217600000Y-97800000D03*
X217600000Y-99000000D03*
X225200000Y-96600000D03*
X225200000Y-97800000D03*
X225200000Y-99000000D03*
X215200000Y-96600000D03*
X215200000Y-97800000D03*
X215200000Y-99000000D03*
X206600000Y-109600000D03*
X208500000Y-94000000D03*
X223700000Y-101700000D03*
X104000000Y-113000000D03*
X70300000Y-107100000D03*
X95500000Y-109500000D03*
X133000000Y-106000000D03*
X127500000Y-106000000D03*
X146600000Y-110800000D03*
X161400728Y-108599272D03*
X106500000Y-107000000D03*
X104000000Y-107000000D03*
X109000000Y-107000000D03*
X142500000Y-96500000D03*
X145000000Y-99000000D03*
X147500000Y-96500000D03*
X150000000Y-99000000D03*
X152500000Y-96500000D03*
X109250000Y-99750000D03*
X106500000Y-99750000D03*
X104000000Y-99750000D03*
X101250000Y-99750000D03*
X98750000Y-102000000D03*
X96000000Y-99750000D03*
X92500000Y-102000000D03*
D19*
X186425000Y-99325000D03*
D21*
X168250008Y-98500000D03*
X111250000Y-106750000D03*
X115000000Y-106749982D03*
D22*
X89473206Y-95778194D03*
X87750000Y-111750000D03*
X85500000Y-114025010D03*
X87000000Y-114250000D03*
X95499992Y-106600000D03*
X112000010Y-106000000D03*
X113300000Y-104800000D03*
X95500000Y-104724990D03*
X86000000Y-105000000D03*
X89500000Y-106000000D03*
X92499999Y-105800000D03*
X110574990Y-105369323D03*
X113974990Y-105400010D03*
X164500000Y-103800000D03*
X90250002Y-108250000D03*
X92100000Y-108000000D03*
X151249994Y-108000000D03*
X151775010Y-109000002D03*
X92000000Y-109000000D03*
X162500000Y-99300000D03*
X88500000Y-108250000D03*
X89500000Y-108250000D03*
X164750000Y-99300000D03*
X109350000Y-112199960D03*
X92500000Y-111500000D03*
D23*
X186425000Y-99325000D02*
X185600000Y-98500000D01*
X185600000Y-98500000D02*
X168250008Y-98500000D01*
X111250018Y-106749982D02*
X111250000Y-106750000D01*
X115000000Y-106749982D02*
X111250018Y-106749982D01*
D24*
X96500000Y-98500000D02*
X93778194Y-95778194D01*
X93778194Y-95778194D02*
X89791404Y-95778194D01*
X89791404Y-95778194D02*
X89473206Y-95778194D01*
X103500000Y-98500000D02*
X96500000Y-98500000D01*
X106000000Y-96000000D02*
X103500000Y-98500000D01*
X79250000Y-113500000D02*
X86000000Y-113500000D01*
X77000000Y-111250000D02*
X79250000Y-113500000D01*
X64250000Y-111250000D02*
X77000000Y-111250000D01*
X62000000Y-109000000D02*
X64250000Y-111250000D01*
X60170000Y-109000000D02*
X62000000Y-109000000D01*
X58710000Y-110460000D02*
X60170000Y-109000000D01*
X86000000Y-113500000D02*
X87750000Y-111750000D01*
X85181802Y-114025010D02*
X85500000Y-114025010D01*
X79025010Y-114025010D02*
X85181802Y-114025010D01*
X76750000Y-111750000D02*
X79025010Y-114025010D01*
X58710000Y-113000000D02*
X59960000Y-111750000D01*
X59960000Y-111750000D02*
X76750000Y-111750000D01*
X86775001Y-114474999D02*
X87000000Y-114250000D01*
X62313600Y-113000000D02*
X63063600Y-112250000D01*
X61250000Y-113000000D02*
X62313600Y-113000000D01*
X63063600Y-112250000D02*
X76559300Y-112250000D01*
X76559300Y-112250000D02*
X79059300Y-114750000D01*
X79059300Y-114750000D02*
X86500000Y-114750000D01*
X86500000Y-114750000D02*
X86775001Y-114474999D01*
X95499992Y-106600000D02*
X96099992Y-106000000D01*
X96099992Y-106000000D02*
X111681812Y-106000000D01*
X111681812Y-106000000D02*
X112000010Y-106000000D01*
X95575010Y-104800000D02*
X95500000Y-104724990D01*
X113300000Y-104800000D02*
X95575010Y-104800000D01*
X75750000Y-109500000D02*
X69250000Y-109500000D01*
X89500000Y-106000000D02*
X87000000Y-106000000D01*
X87000000Y-106000000D02*
X86000000Y-105000000D01*
X110544313Y-105400000D02*
X110574990Y-105369323D01*
X92499999Y-105800000D02*
X92899999Y-105400000D01*
X92899999Y-105400000D02*
X110544313Y-105400000D01*
X110574990Y-105369323D02*
X113944303Y-105369323D01*
X113944303Y-105369323D02*
X113974990Y-105400010D01*
X90475001Y-108025001D02*
X90250002Y-108250000D01*
X90924999Y-107575003D02*
X90475001Y-108025001D01*
X164100011Y-104199989D02*
X95247999Y-104199989D01*
X164500000Y-103800000D02*
X164100011Y-104199989D01*
X95247999Y-104199989D02*
X95197988Y-104250000D01*
X95197988Y-104250000D02*
X92715901Y-104250000D01*
X92715901Y-104250000D02*
X90924999Y-106040902D01*
X90924999Y-106040902D02*
X90924999Y-107575003D01*
X94750000Y-108000000D02*
X92100000Y-108000000D01*
X94750000Y-108000000D02*
X151249994Y-108000000D01*
X92474999Y-108525001D02*
X92000000Y-109000000D01*
X151775010Y-109000002D02*
X151300009Y-108525001D01*
X151300009Y-108525001D02*
X92474999Y-108525001D01*
X162500000Y-101000000D02*
X162500000Y-99300000D01*
X160250000Y-103250000D02*
X162500000Y-101000000D01*
X92256750Y-103250000D02*
X160250000Y-103250000D01*
X90099989Y-105406761D02*
X92256750Y-103250000D01*
X88500000Y-108250000D02*
X90099989Y-106650011D01*
X90099989Y-106650011D02*
X90099989Y-105406761D01*
X90500000Y-107250000D02*
X89500000Y-108250000D01*
X90500000Y-105750000D02*
X90500000Y-107250000D01*
X92500000Y-103750000D02*
X90500000Y-105750000D01*
X162750000Y-103750000D02*
X92500000Y-103750000D01*
X164750000Y-99300000D02*
X164750000Y-101750000D01*
X164750000Y-101750000D02*
X162750000Y-103750000D01*
X92818198Y-111500000D02*
X92500000Y-111500000D01*
X108650040Y-111500000D02*
X92818198Y-111500000D01*
X109350000Y-112199960D02*
X108650040Y-111500000D01*
G36*
X259175001Y-117675000D02*
G01*
X46825000Y-117675000D01*
X46825000Y-115131374D01*
X68330758Y-115131374D01*
X68430467Y-115383184D01*
X68716061Y-115516489D01*
X69022172Y-115591517D01*
X69337040Y-115605383D01*
X69648562Y-115557555D01*
X69944768Y-115449872D01*
X70069533Y-115383184D01*
X70169242Y-115131374D01*
X74830758Y-115131374D01*
X74930467Y-115383184D01*
X75216061Y-115516489D01*
X75522172Y-115591517D01*
X75837040Y-115605383D01*
X76148562Y-115557555D01*
X76444768Y-115449872D01*
X76569533Y-115383184D01*
X76669242Y-115131374D01*
X75750000Y-114212132D01*
X74830758Y-115131374D01*
X70169242Y-115131374D01*
X69250000Y-114212132D01*
X68330758Y-115131374D01*
X46825000Y-115131374D01*
X46825000Y-110835906D01*
X54755491Y-110835906D01*
X54856006Y-111104640D01*
X55007017Y-111348601D01*
X55202721Y-111558414D01*
X55435597Y-111726015D01*
X55696696Y-111844964D01*
X55794095Y-111874503D01*
X56019998Y-111765009D01*
X56019998Y-111845544D01*
X55941895Y-111853236D01*
X55722555Y-111919772D01*
X55520411Y-112027821D01*
X55343230Y-112173230D01*
X55197821Y-112350411D01*
X55089772Y-112552555D01*
X55023236Y-112771895D01*
X55000770Y-113000000D01*
X55023236Y-113228105D01*
X55089772Y-113447445D01*
X55197821Y-113649589D01*
X55343230Y-113826770D01*
X55520411Y-113972179D01*
X55722555Y-114080228D01*
X55941895Y-114146764D01*
X56112837Y-114163600D01*
X56227163Y-114163600D01*
X56398105Y-114146764D01*
X56617445Y-114080228D01*
X56819589Y-113972179D01*
X56996770Y-113826770D01*
X57142179Y-113649589D01*
X57250228Y-113447445D01*
X57316764Y-113228105D01*
X57339230Y-113000000D01*
X57316764Y-112771895D01*
X57250228Y-112552555D01*
X57142179Y-112350411D01*
X56996770Y-112173230D01*
X56819589Y-112027821D01*
X56617445Y-111919772D01*
X56398105Y-111853236D01*
X56320002Y-111845544D01*
X56320002Y-111765009D01*
X56545905Y-111874503D01*
X56643304Y-111844964D01*
X56904403Y-111726015D01*
X57137279Y-111558414D01*
X57332983Y-111348601D01*
X57483994Y-111104640D01*
X57584509Y-110835906D01*
X57475900Y-110610002D01*
X57555544Y-110610002D01*
X57563236Y-110688105D01*
X57629772Y-110907445D01*
X57737821Y-111109589D01*
X57883230Y-111286770D01*
X58060411Y-111432179D01*
X58262555Y-111540228D01*
X58481895Y-111606764D01*
X58652837Y-111623600D01*
X58767163Y-111623600D01*
X58938105Y-111606764D01*
X59157445Y-111540228D01*
X59359589Y-111432179D01*
X59536770Y-111286770D01*
X59682179Y-111109589D01*
X59790228Y-110907445D01*
X59856764Y-110688105D01*
X59879230Y-110460000D01*
X59856764Y-110231895D01*
X59790228Y-110012555D01*
X59766856Y-109968829D01*
X60335686Y-109400000D01*
X60764711Y-109400000D01*
X60600411Y-109487821D01*
X60423230Y-109633230D01*
X60277821Y-109810411D01*
X60169772Y-110012555D01*
X60103236Y-110231895D01*
X60080770Y-110460000D01*
X60103236Y-110688105D01*
X60169772Y-110907445D01*
X60277821Y-111109589D01*
X60423230Y-111286770D01*
X60500276Y-111350000D01*
X59979646Y-111350000D01*
X59960000Y-111348065D01*
X59940353Y-111350000D01*
X59881586Y-111355788D01*
X59806186Y-111378660D01*
X59759127Y-111403814D01*
X59736697Y-111415803D01*
X59691049Y-111453265D01*
X59691047Y-111453267D01*
X59675789Y-111465789D01*
X59663267Y-111481047D01*
X59201170Y-111943144D01*
X59157445Y-111919772D01*
X58938105Y-111853236D01*
X58767163Y-111836400D01*
X58652837Y-111836400D01*
X58481895Y-111853236D01*
X58262555Y-111919772D01*
X58060411Y-112027821D01*
X57883230Y-112173230D01*
X57737821Y-112350411D01*
X57629772Y-112552555D01*
X57563236Y-112771895D01*
X57540770Y-113000000D01*
X57563236Y-113228105D01*
X57629772Y-113447445D01*
X57737821Y-113649589D01*
X57883230Y-113826770D01*
X58060411Y-113972179D01*
X58262555Y-114080228D01*
X58481895Y-114146764D01*
X58652837Y-114163600D01*
X58767163Y-114163600D01*
X58938105Y-114146764D01*
X59157445Y-114080228D01*
X59359589Y-113972179D01*
X59536770Y-113826770D01*
X59682179Y-113649589D01*
X59790228Y-113447445D01*
X59856764Y-113228105D01*
X59879230Y-113000000D01*
X59856764Y-112771895D01*
X59790228Y-112552555D01*
X59766856Y-112508830D01*
X60084949Y-112190737D01*
X60084949Y-113863600D01*
X60090741Y-113922410D01*
X60107896Y-113978960D01*
X60135753Y-114031077D01*
X60173242Y-114076758D01*
X60218923Y-114114247D01*
X60271040Y-114142104D01*
X60327590Y-114159259D01*
X60386400Y-114165051D01*
X62113600Y-114165051D01*
X62172410Y-114159259D01*
X62228960Y-114142104D01*
X62281077Y-114114247D01*
X62314229Y-114087040D01*
X67644617Y-114087040D01*
X67692445Y-114398562D01*
X67800128Y-114694768D01*
X67866816Y-114819533D01*
X68118626Y-114919242D01*
X69037868Y-114000000D01*
X69462132Y-114000000D01*
X70381374Y-114919242D01*
X70633184Y-114819533D01*
X70766489Y-114533939D01*
X70841517Y-114227828D01*
X70847716Y-114087040D01*
X74144617Y-114087040D01*
X74192445Y-114398562D01*
X74300128Y-114694768D01*
X74366816Y-114819533D01*
X74618626Y-114919242D01*
X75537868Y-114000000D01*
X74618626Y-113080758D01*
X74366816Y-113180467D01*
X74233511Y-113466061D01*
X74158483Y-113772172D01*
X74144617Y-114087040D01*
X70847716Y-114087040D01*
X70855383Y-113912960D01*
X70807555Y-113601438D01*
X70699872Y-113305232D01*
X70633184Y-113180467D01*
X70381374Y-113080758D01*
X69462132Y-114000000D01*
X69037868Y-114000000D01*
X68118626Y-113080758D01*
X67866816Y-113180467D01*
X67733511Y-113466061D01*
X67658483Y-113772172D01*
X67644617Y-114087040D01*
X62314229Y-114087040D01*
X62326758Y-114076758D01*
X62364247Y-114031077D01*
X62392104Y-113978960D01*
X62409259Y-113922410D01*
X62415051Y-113863600D01*
X62415051Y-113387224D01*
X62467414Y-113371340D01*
X62536903Y-113334197D01*
X62597811Y-113284211D01*
X62610337Y-113268948D01*
X63229286Y-112650000D01*
X68417327Y-112650000D01*
X68330758Y-112868626D01*
X69250000Y-113787868D01*
X70169242Y-112868626D01*
X70082673Y-112650000D01*
X74917327Y-112650000D01*
X74830758Y-112868626D01*
X75750000Y-113787868D01*
X75764143Y-113773726D01*
X75976275Y-113985858D01*
X75962132Y-114000000D01*
X76881374Y-114919242D01*
X77133184Y-114819533D01*
X77266489Y-114533939D01*
X77341517Y-114227828D01*
X77355383Y-113912960D01*
X77307555Y-113601438D01*
X77286137Y-113542522D01*
X78762567Y-115018953D01*
X78775089Y-115034211D01*
X78790347Y-115046733D01*
X78790349Y-115046735D01*
X78835997Y-115084197D01*
X78905485Y-115121340D01*
X78980886Y-115144212D01*
X79059300Y-115151935D01*
X79078946Y-115150000D01*
X86480354Y-115150000D01*
X86500000Y-115151935D01*
X86519646Y-115150000D01*
X86519647Y-115150000D01*
X86578414Y-115144212D01*
X86653814Y-115121340D01*
X86723303Y-115084197D01*
X86784211Y-115034211D01*
X86796737Y-115018948D01*
X87040686Y-114775000D01*
X87051708Y-114775000D01*
X87153137Y-114754824D01*
X87248681Y-114715249D01*
X87334668Y-114657794D01*
X87407794Y-114584668D01*
X87465249Y-114498681D01*
X87504824Y-114403137D01*
X87525000Y-114301708D01*
X87525000Y-114198292D01*
X87504824Y-114096863D01*
X87465249Y-114001319D01*
X87407794Y-113915332D01*
X87334668Y-113842206D01*
X87248681Y-113784751D01*
X87153137Y-113745176D01*
X87051708Y-113725000D01*
X86948292Y-113725000D01*
X86846863Y-113745176D01*
X86751319Y-113784751D01*
X86665332Y-113842206D01*
X86592206Y-113915332D01*
X86534751Y-114001319D01*
X86495176Y-114096863D01*
X86475000Y-114198292D01*
X86475000Y-114209314D01*
X86334315Y-114350000D01*
X85914261Y-114350000D01*
X85965249Y-114273691D01*
X86004824Y-114178147D01*
X86025000Y-114076718D01*
X86025000Y-113973302D01*
X86010596Y-113900891D01*
X86019646Y-113900000D01*
X86019647Y-113900000D01*
X86078414Y-113894212D01*
X86153814Y-113871340D01*
X86223303Y-113834197D01*
X86284211Y-113784211D01*
X86296737Y-113768948D01*
X86828950Y-113236735D01*
X171600000Y-113236735D01*
X171600000Y-113463265D01*
X171644194Y-113685443D01*
X171730884Y-113894729D01*
X171856737Y-114083082D01*
X172016918Y-114243263D01*
X172205271Y-114369116D01*
X172414557Y-114455806D01*
X172636735Y-114500000D01*
X172863265Y-114500000D01*
X173085443Y-114455806D01*
X173294729Y-114369116D01*
X173483082Y-114243263D01*
X173643263Y-114083082D01*
X173769116Y-113894729D01*
X173855806Y-113685443D01*
X173900000Y-113463265D01*
X173900000Y-113236735D01*
X174100000Y-113236735D01*
X174100000Y-113463265D01*
X174144194Y-113685443D01*
X174230884Y-113894729D01*
X174356737Y-114083082D01*
X174516918Y-114243263D01*
X174705271Y-114369116D01*
X174914557Y-114455806D01*
X175136735Y-114500000D01*
X175363265Y-114500000D01*
X175585443Y-114455806D01*
X175794729Y-114369116D01*
X175983082Y-114243263D01*
X176143263Y-114083082D01*
X176198776Y-114000000D01*
X184598549Y-114000000D01*
X184598549Y-115500000D01*
X184609145Y-115607583D01*
X184640526Y-115711031D01*
X184691485Y-115806370D01*
X184760065Y-115889935D01*
X184843630Y-115958515D01*
X184938969Y-116009474D01*
X185042417Y-116040855D01*
X185150000Y-116051451D01*
X186350000Y-116051451D01*
X186457583Y-116040855D01*
X186561031Y-116009474D01*
X186656370Y-115958515D01*
X186739935Y-115889935D01*
X186808515Y-115806370D01*
X186859474Y-115711031D01*
X186890855Y-115607583D01*
X186901451Y-115500000D01*
X186901451Y-115426256D01*
X187013672Y-115657623D01*
X187185233Y-115884261D01*
X187397712Y-116073074D01*
X187642944Y-116216807D01*
X187876234Y-116301000D01*
X188100000Y-116191317D01*
X188100000Y-114900000D01*
X188400000Y-114900000D01*
X188400000Y-116191317D01*
X188623766Y-116301000D01*
X188857056Y-116216807D01*
X189102288Y-116073074D01*
X189314767Y-115884261D01*
X189486328Y-115657623D01*
X189610377Y-115401870D01*
X189682148Y-115126830D01*
X189550000Y-114900000D01*
X188400000Y-114900000D01*
X188100000Y-114900000D01*
X188080000Y-114900000D01*
X188080000Y-114600000D01*
X188100000Y-114600000D01*
X188100000Y-113308683D01*
X188400000Y-113308683D01*
X188400000Y-114600000D01*
X189550000Y-114600000D01*
X189682148Y-114373170D01*
X189610377Y-114098130D01*
X189562781Y-114000000D01*
X200598549Y-114000000D01*
X200598549Y-115500000D01*
X200609145Y-115607583D01*
X200640526Y-115711031D01*
X200691485Y-115806370D01*
X200760065Y-115889935D01*
X200843630Y-115958515D01*
X200938969Y-116009474D01*
X201042417Y-116040855D01*
X201150000Y-116051451D01*
X202350000Y-116051451D01*
X202457583Y-116040855D01*
X202561031Y-116009474D01*
X202656370Y-115958515D01*
X202739935Y-115889935D01*
X202808515Y-115806370D01*
X202859474Y-115711031D01*
X202890855Y-115607583D01*
X202901451Y-115500000D01*
X202901451Y-115426256D01*
X203013672Y-115657623D01*
X203185233Y-115884261D01*
X203397712Y-116073074D01*
X203642944Y-116216807D01*
X203876234Y-116301000D01*
X204100000Y-116191317D01*
X204100000Y-114900000D01*
X204400000Y-114900000D01*
X204400000Y-116191317D01*
X204623766Y-116301000D01*
X204857056Y-116216807D01*
X205102288Y-116073074D01*
X205314767Y-115884261D01*
X205486328Y-115657623D01*
X205610377Y-115401870D01*
X205682148Y-115126830D01*
X205550000Y-114900000D01*
X204400000Y-114900000D01*
X204100000Y-114900000D01*
X204080000Y-114900000D01*
X204080000Y-114600000D01*
X204100000Y-114600000D01*
X204100000Y-113308683D01*
X204400000Y-113308683D01*
X204400000Y-114600000D01*
X205550000Y-114600000D01*
X205682148Y-114373170D01*
X205610377Y-114098130D01*
X205486328Y-113842377D01*
X205416401Y-113750000D01*
X246098549Y-113750000D01*
X246098549Y-115250000D01*
X246109145Y-115357583D01*
X246140526Y-115461031D01*
X246191485Y-115556370D01*
X246260065Y-115639935D01*
X246343630Y-115708515D01*
X246438969Y-115759474D01*
X246542417Y-115790855D01*
X246650000Y-115801451D01*
X247850000Y-115801451D01*
X247957583Y-115790855D01*
X248061031Y-115759474D01*
X248156370Y-115708515D01*
X248239935Y-115639935D01*
X248308515Y-115556370D01*
X248359474Y-115461031D01*
X248390855Y-115357583D01*
X248401451Y-115250000D01*
X248401451Y-115176256D01*
X248513672Y-115407623D01*
X248685233Y-115634261D01*
X248897712Y-115823074D01*
X249142944Y-115966807D01*
X249376234Y-116051000D01*
X249600000Y-115941317D01*
X249600000Y-114650000D01*
X249900000Y-114650000D01*
X249900000Y-115941317D01*
X250123766Y-116051000D01*
X250357056Y-115966807D01*
X250602288Y-115823074D01*
X250814767Y-115634261D01*
X250986328Y-115407623D01*
X251110377Y-115151870D01*
X251182148Y-114876830D01*
X251050000Y-114650000D01*
X249900000Y-114650000D01*
X249600000Y-114650000D01*
X249580000Y-114650000D01*
X249580000Y-114350000D01*
X249600000Y-114350000D01*
X249600000Y-113058683D01*
X249900000Y-113058683D01*
X249900000Y-114350000D01*
X251050000Y-114350000D01*
X251182148Y-114123170D01*
X251110377Y-113848130D01*
X250986328Y-113592377D01*
X250814767Y-113365739D01*
X250602288Y-113176926D01*
X250357056Y-113033193D01*
X250123766Y-112949000D01*
X249900000Y-113058683D01*
X249600000Y-113058683D01*
X249376234Y-112949000D01*
X249142944Y-113033193D01*
X248897712Y-113176926D01*
X248685233Y-113365739D01*
X248513672Y-113592377D01*
X248401451Y-113823744D01*
X248401451Y-113750000D01*
X248390855Y-113642417D01*
X248359474Y-113538969D01*
X248308515Y-113443630D01*
X248239935Y-113360065D01*
X248156370Y-113291485D01*
X248061031Y-113240526D01*
X247957583Y-113209145D01*
X247850000Y-113198549D01*
X246650000Y-113198549D01*
X246542417Y-113209145D01*
X246438969Y-113240526D01*
X246343630Y-113291485D01*
X246260065Y-113360065D01*
X246191485Y-113443630D01*
X246140526Y-113538969D01*
X246109145Y-113642417D01*
X246098549Y-113750000D01*
X205416401Y-113750000D01*
X205314767Y-113615739D01*
X205102288Y-113426926D01*
X204857056Y-113283193D01*
X204623766Y-113199000D01*
X204400000Y-113308683D01*
X204100000Y-113308683D01*
X203876234Y-113199000D01*
X203642944Y-113283193D01*
X203397712Y-113426926D01*
X203185233Y-113615739D01*
X203013672Y-113842377D01*
X202901451Y-114073744D01*
X202901451Y-114000000D01*
X202890855Y-113892417D01*
X202859474Y-113788969D01*
X202808515Y-113693630D01*
X202739935Y-113610065D01*
X202656370Y-113541485D01*
X202561031Y-113490526D01*
X202457583Y-113459145D01*
X202350000Y-113448549D01*
X201150000Y-113448549D01*
X201042417Y-113459145D01*
X200938969Y-113490526D01*
X200843630Y-113541485D01*
X200760065Y-113610065D01*
X200691485Y-113693630D01*
X200640526Y-113788969D01*
X200609145Y-113892417D01*
X200598549Y-114000000D01*
X189562781Y-114000000D01*
X189486328Y-113842377D01*
X189314767Y-113615739D01*
X189102288Y-113426926D01*
X188857056Y-113283193D01*
X188623766Y-113199000D01*
X188400000Y-113308683D01*
X188100000Y-113308683D01*
X187876234Y-113199000D01*
X187642944Y-113283193D01*
X187397712Y-113426926D01*
X187185233Y-113615739D01*
X187013672Y-113842377D01*
X186901451Y-114073744D01*
X186901451Y-114000000D01*
X186890855Y-113892417D01*
X186859474Y-113788969D01*
X186808515Y-113693630D01*
X186739935Y-113610065D01*
X186656370Y-113541485D01*
X186561031Y-113490526D01*
X186457583Y-113459145D01*
X186350000Y-113448549D01*
X185150000Y-113448549D01*
X185042417Y-113459145D01*
X184938969Y-113490526D01*
X184843630Y-113541485D01*
X184760065Y-113610065D01*
X184691485Y-113693630D01*
X184640526Y-113788969D01*
X184609145Y-113892417D01*
X184598549Y-114000000D01*
X176198776Y-114000000D01*
X176269116Y-113894729D01*
X176355806Y-113685443D01*
X176400000Y-113463265D01*
X176400000Y-113236735D01*
X176355806Y-113014557D01*
X176269116Y-112805271D01*
X176143263Y-112616918D01*
X175983082Y-112456737D01*
X175794729Y-112330884D01*
X175734993Y-112306140D01*
X178565992Y-112306140D01*
X178756177Y-112634699D01*
X179169607Y-112842931D01*
X179615717Y-112966506D01*
X180077364Y-113000674D01*
X180536806Y-112944123D01*
X180976387Y-112799026D01*
X181283823Y-112634699D01*
X181474008Y-112306140D01*
X180020000Y-110852132D01*
X178565992Y-112306140D01*
X175734993Y-112306140D01*
X175585443Y-112244194D01*
X175363265Y-112200000D01*
X175136735Y-112200000D01*
X174914557Y-112244194D01*
X174705271Y-112330884D01*
X174516918Y-112456737D01*
X174356737Y-112616918D01*
X174230884Y-112805271D01*
X174144194Y-113014557D01*
X174100000Y-113236735D01*
X173900000Y-113236735D01*
X173855806Y-113014557D01*
X173769116Y-112805271D01*
X173643263Y-112616918D01*
X173483082Y-112456737D01*
X173294729Y-112330884D01*
X173085443Y-112244194D01*
X172863265Y-112200000D01*
X172636735Y-112200000D01*
X172414557Y-112244194D01*
X172205271Y-112330884D01*
X172016918Y-112456737D01*
X171856737Y-112616918D01*
X171730884Y-112805271D01*
X171644194Y-113014557D01*
X171600000Y-113236735D01*
X86828950Y-113236735D01*
X87790685Y-112275000D01*
X87801708Y-112275000D01*
X87903137Y-112254824D01*
X87998681Y-112215249D01*
X88084668Y-112157794D01*
X88157794Y-112084668D01*
X88215249Y-111998681D01*
X88254824Y-111903137D01*
X88275000Y-111801708D01*
X88275000Y-111698292D01*
X88254824Y-111596863D01*
X88215249Y-111501319D01*
X88179818Y-111448292D01*
X91975000Y-111448292D01*
X91975000Y-111551708D01*
X91995176Y-111653137D01*
X92034751Y-111748681D01*
X92092206Y-111834668D01*
X92165332Y-111907794D01*
X92251319Y-111965249D01*
X92346863Y-112004824D01*
X92448292Y-112025000D01*
X92551708Y-112025000D01*
X92653137Y-112004824D01*
X92748681Y-111965249D01*
X92834668Y-111907794D01*
X92842462Y-111900000D01*
X108484355Y-111900000D01*
X108825000Y-112240646D01*
X108825000Y-112251668D01*
X108845176Y-112353097D01*
X108884751Y-112448641D01*
X108942206Y-112534628D01*
X109015332Y-112607754D01*
X109101319Y-112665209D01*
X109196863Y-112704784D01*
X109298292Y-112724960D01*
X109401708Y-112724960D01*
X109503137Y-112704784D01*
X109598681Y-112665209D01*
X109684668Y-112607754D01*
X109757794Y-112534628D01*
X109815249Y-112448641D01*
X109854824Y-112353097D01*
X109864164Y-112306140D01*
X166525992Y-112306140D01*
X166716177Y-112634699D01*
X167129607Y-112842931D01*
X167575717Y-112966506D01*
X168037364Y-113000674D01*
X168496806Y-112944123D01*
X168936387Y-112799026D01*
X169243823Y-112634699D01*
X169434008Y-112306140D01*
X167980000Y-110852132D01*
X166525992Y-112306140D01*
X109864164Y-112306140D01*
X109875000Y-112251668D01*
X109875000Y-112148252D01*
X109854824Y-112046823D01*
X109815249Y-111951279D01*
X109757794Y-111865292D01*
X109684668Y-111792166D01*
X109598681Y-111734711D01*
X109503137Y-111695136D01*
X109401708Y-111674960D01*
X109390686Y-111674960D01*
X108946777Y-111231052D01*
X108934251Y-111215789D01*
X108873343Y-111165803D01*
X108803854Y-111128660D01*
X108728454Y-111105788D01*
X108669687Y-111100000D01*
X108669686Y-111100000D01*
X108650040Y-111098065D01*
X108630394Y-111100000D01*
X92842462Y-111100000D01*
X92834668Y-111092206D01*
X92748681Y-111034751D01*
X92653137Y-110995176D01*
X92551708Y-110975000D01*
X92448292Y-110975000D01*
X92346863Y-110995176D01*
X92251319Y-111034751D01*
X92165332Y-111092206D01*
X92092206Y-111165332D01*
X92034751Y-111251319D01*
X91995176Y-111346863D01*
X91975000Y-111448292D01*
X88179818Y-111448292D01*
X88157794Y-111415332D01*
X88084668Y-111342206D01*
X87998681Y-111284751D01*
X87903137Y-111245176D01*
X87801708Y-111225000D01*
X87698292Y-111225000D01*
X87596863Y-111245176D01*
X87501319Y-111284751D01*
X87415332Y-111342206D01*
X87342206Y-111415332D01*
X87284751Y-111501319D01*
X87245176Y-111596863D01*
X87225000Y-111698292D01*
X87225000Y-111709315D01*
X85834315Y-113100000D01*
X79415685Y-113100000D01*
X77296735Y-110981050D01*
X77284211Y-110965789D01*
X77223303Y-110915803D01*
X77153814Y-110878660D01*
X77078414Y-110855788D01*
X77019647Y-110850000D01*
X77019646Y-110850000D01*
X77000000Y-110848065D01*
X76980354Y-110850000D01*
X64415685Y-110850000D01*
X62937646Y-109371961D01*
X67950000Y-109371961D01*
X67950000Y-109628039D01*
X67999958Y-109879196D01*
X68097955Y-110115781D01*
X68240224Y-110328702D01*
X68421298Y-110509776D01*
X68634219Y-110652045D01*
X68870804Y-110750042D01*
X69121961Y-110800000D01*
X69378039Y-110800000D01*
X69629196Y-110750042D01*
X69865781Y-110652045D01*
X70078702Y-110509776D01*
X70259776Y-110328702D01*
X70402045Y-110115781D01*
X70491425Y-109900000D01*
X74508575Y-109900000D01*
X74597955Y-110115781D01*
X74740224Y-110328702D01*
X74921298Y-110509776D01*
X75134219Y-110652045D01*
X75370804Y-110750042D01*
X75621961Y-110800000D01*
X75878039Y-110800000D01*
X76129196Y-110750042D01*
X76256371Y-110697364D01*
X165619326Y-110697364D01*
X165675877Y-111156806D01*
X165820974Y-111596387D01*
X165985301Y-111903823D01*
X166313860Y-112094008D01*
X167767868Y-110640000D01*
X168192132Y-110640000D01*
X169646140Y-112094008D01*
X169974699Y-111903823D01*
X170182931Y-111490393D01*
X170306506Y-111044283D01*
X170340674Y-110582636D01*
X170284123Y-110123194D01*
X170255585Y-110036735D01*
X171600000Y-110036735D01*
X171600000Y-110263265D01*
X171644194Y-110485443D01*
X171730884Y-110694729D01*
X171856737Y-110883082D01*
X172016918Y-111043263D01*
X172205271Y-111169116D01*
X172414557Y-111255806D01*
X172636735Y-111300000D01*
X172863265Y-111300000D01*
X173085443Y-111255806D01*
X173282554Y-111174159D01*
X174437973Y-111174159D01*
X174519491Y-111410655D01*
X174779469Y-111528948D01*
X175057529Y-111594248D01*
X175342986Y-111604046D01*
X175624870Y-111557967D01*
X175892347Y-111457780D01*
X175980509Y-111410655D01*
X176062027Y-111174159D01*
X175250000Y-110362132D01*
X174437973Y-111174159D01*
X173282554Y-111174159D01*
X173294729Y-111169116D01*
X173483082Y-111043263D01*
X173643263Y-110883082D01*
X173769116Y-110694729D01*
X173841309Y-110520441D01*
X173842033Y-110524870D01*
X173942220Y-110792347D01*
X173989345Y-110880509D01*
X174225841Y-110962027D01*
X175037868Y-110150000D01*
X175462132Y-110150000D01*
X176274159Y-110962027D01*
X176510655Y-110880509D01*
X176593988Y-110697364D01*
X177659326Y-110697364D01*
X177715877Y-111156806D01*
X177860974Y-111596387D01*
X178025301Y-111903823D01*
X178353860Y-112094008D01*
X179807868Y-110640000D01*
X180232132Y-110640000D01*
X181686140Y-112094008D01*
X182014699Y-111903823D01*
X182222931Y-111490393D01*
X182346506Y-111044283D01*
X182380674Y-110582636D01*
X182324123Y-110123194D01*
X182179026Y-109683613D01*
X182014699Y-109376177D01*
X181686140Y-109185992D01*
X180232132Y-110640000D01*
X179807868Y-110640000D01*
X178353860Y-109185992D01*
X178025301Y-109376177D01*
X177817069Y-109789607D01*
X177693494Y-110235717D01*
X177659326Y-110697364D01*
X176593988Y-110697364D01*
X176628948Y-110620531D01*
X176694248Y-110342471D01*
X176704046Y-110057014D01*
X176657967Y-109775130D01*
X176557780Y-109507653D01*
X176510655Y-109419491D01*
X176274159Y-109337973D01*
X175462132Y-110150000D01*
X175037868Y-110150000D01*
X174225841Y-109337973D01*
X173989345Y-109419491D01*
X173871052Y-109679469D01*
X173845290Y-109789169D01*
X173769116Y-109605271D01*
X173643263Y-109416918D01*
X173483082Y-109256737D01*
X173294729Y-109130884D01*
X173282555Y-109125841D01*
X174437973Y-109125841D01*
X175250000Y-109937868D01*
X176062027Y-109125841D01*
X176009641Y-108973860D01*
X178565992Y-108973860D01*
X180020000Y-110427868D01*
X181474008Y-108973860D01*
X181283823Y-108645301D01*
X180870393Y-108437069D01*
X180424283Y-108313494D01*
X179962636Y-108279326D01*
X179503194Y-108335877D01*
X179063613Y-108480974D01*
X178756177Y-108645301D01*
X178565992Y-108973860D01*
X176009641Y-108973860D01*
X175980509Y-108889345D01*
X175720531Y-108771052D01*
X175442471Y-108705752D01*
X175157014Y-108695954D01*
X174875130Y-108742033D01*
X174607653Y-108842220D01*
X174519491Y-108889345D01*
X174437973Y-109125841D01*
X173282555Y-109125841D01*
X173085443Y-109044194D01*
X172863265Y-109000000D01*
X172636735Y-109000000D01*
X172414557Y-109044194D01*
X172205271Y-109130884D01*
X172016918Y-109256737D01*
X171856737Y-109416918D01*
X171730884Y-109605271D01*
X171644194Y-109814557D01*
X171600000Y-110036735D01*
X170255585Y-110036735D01*
X170139026Y-109683613D01*
X169974699Y-109376177D01*
X169646140Y-109185992D01*
X168192132Y-110640000D01*
X167767868Y-110640000D01*
X166313860Y-109185992D01*
X165985301Y-109376177D01*
X165777069Y-109789607D01*
X165653494Y-110235717D01*
X165619326Y-110697364D01*
X76256371Y-110697364D01*
X76365781Y-110652045D01*
X76578702Y-110509776D01*
X76759776Y-110328702D01*
X76902045Y-110115781D01*
X77000042Y-109879196D01*
X77050000Y-109628039D01*
X77050000Y-109371961D01*
X77000042Y-109120804D01*
X76928585Y-108948292D01*
X91475000Y-108948292D01*
X91475000Y-109051708D01*
X91495176Y-109153137D01*
X91534751Y-109248681D01*
X91592206Y-109334668D01*
X91665332Y-109407794D01*
X91751319Y-109465249D01*
X91846863Y-109504824D01*
X91948292Y-109525000D01*
X92051708Y-109525000D01*
X92153137Y-109504824D01*
X92248681Y-109465249D01*
X92334668Y-109407794D01*
X92407794Y-109334668D01*
X92465249Y-109248681D01*
X92504824Y-109153137D01*
X92525000Y-109051708D01*
X92525000Y-109040686D01*
X92640685Y-108925001D01*
X151134324Y-108925001D01*
X151250010Y-109040687D01*
X151250010Y-109051710D01*
X151270186Y-109153139D01*
X151309761Y-109248683D01*
X151367216Y-109334670D01*
X151440342Y-109407796D01*
X151526329Y-109465251D01*
X151621873Y-109504826D01*
X151723302Y-109525002D01*
X151826718Y-109525002D01*
X151928147Y-109504826D01*
X152023691Y-109465251D01*
X152109678Y-109407796D01*
X152182804Y-109334670D01*
X152240259Y-109248683D01*
X152279834Y-109153139D01*
X152300010Y-109051710D01*
X152300010Y-108973860D01*
X166525992Y-108973860D01*
X167980000Y-110427868D01*
X169434008Y-108973860D01*
X169243823Y-108645301D01*
X168830393Y-108437069D01*
X168384283Y-108313494D01*
X167922636Y-108279326D01*
X167463194Y-108335877D01*
X167023613Y-108480974D01*
X166716177Y-108645301D01*
X166525992Y-108973860D01*
X152300010Y-108973860D01*
X152300010Y-108948294D01*
X152279834Y-108846865D01*
X152240259Y-108751321D01*
X152182804Y-108665334D01*
X152109678Y-108592208D01*
X152023691Y-108534753D01*
X151928147Y-108495178D01*
X151826718Y-108475002D01*
X151815695Y-108475002D01*
X151664827Y-108324134D01*
X151715243Y-108248681D01*
X151754818Y-108153137D01*
X151774994Y-108051708D01*
X151774994Y-107948292D01*
X151754818Y-107846863D01*
X151715243Y-107751319D01*
X151657788Y-107665332D01*
X151584662Y-107592206D01*
X151498675Y-107534751D01*
X151403131Y-107495176D01*
X151301702Y-107475000D01*
X151198286Y-107475000D01*
X151096857Y-107495176D01*
X151001313Y-107534751D01*
X150915326Y-107592206D01*
X150907532Y-107600000D01*
X92442462Y-107600000D01*
X92434668Y-107592206D01*
X92348681Y-107534751D01*
X92253137Y-107495176D01*
X92151708Y-107475000D01*
X92048292Y-107475000D01*
X91946863Y-107495176D01*
X91851319Y-107534751D01*
X91765332Y-107592206D01*
X91692206Y-107665332D01*
X91634751Y-107751319D01*
X91595176Y-107846863D01*
X91575000Y-107948292D01*
X91575000Y-108051708D01*
X91595176Y-108153137D01*
X91634751Y-108248681D01*
X91692206Y-108334668D01*
X91765332Y-108407794D01*
X91851319Y-108465249D01*
X91898684Y-108484868D01*
X91846863Y-108495176D01*
X91751319Y-108534751D01*
X91665332Y-108592206D01*
X91592206Y-108665332D01*
X91534751Y-108751319D01*
X91495176Y-108846863D01*
X91475000Y-108948292D01*
X76928585Y-108948292D01*
X76902045Y-108884219D01*
X76759776Y-108671298D01*
X76578702Y-108490224D01*
X76365781Y-108347955D01*
X76129196Y-108249958D01*
X75878039Y-108200000D01*
X75621961Y-108200000D01*
X75370804Y-108249958D01*
X75134219Y-108347955D01*
X74921298Y-108490224D01*
X74740224Y-108671298D01*
X74597955Y-108884219D01*
X74508575Y-109100000D01*
X70491425Y-109100000D01*
X70402045Y-108884219D01*
X70259776Y-108671298D01*
X70078702Y-108490224D01*
X69865781Y-108347955D01*
X69629196Y-108249958D01*
X69378039Y-108200000D01*
X69121961Y-108200000D01*
X68870804Y-108249958D01*
X68634219Y-108347955D01*
X68421298Y-108490224D01*
X68240224Y-108671298D01*
X68097955Y-108884219D01*
X67999958Y-109120804D01*
X67950000Y-109371961D01*
X62937646Y-109371961D01*
X62296735Y-108731050D01*
X62284211Y-108715789D01*
X62223303Y-108665803D01*
X62153814Y-108628660D01*
X62078414Y-108605788D01*
X62019647Y-108600000D01*
X62019646Y-108600000D01*
X62000000Y-108598065D01*
X61980354Y-108600000D01*
X60189647Y-108600000D01*
X60170000Y-108598065D01*
X60091586Y-108605788D01*
X60016186Y-108628660D01*
X59946697Y-108665803D01*
X59901049Y-108703265D01*
X59901047Y-108703267D01*
X59885789Y-108715789D01*
X59873267Y-108731047D01*
X59201171Y-109403144D01*
X59157445Y-109379772D01*
X58938105Y-109313236D01*
X58767163Y-109296400D01*
X58652837Y-109296400D01*
X58481895Y-109313236D01*
X58262555Y-109379772D01*
X58060411Y-109487821D01*
X57883230Y-109633230D01*
X57737821Y-109810411D01*
X57629772Y-110012555D01*
X57563236Y-110231895D01*
X57555544Y-110309998D01*
X57475900Y-110309998D01*
X57584509Y-110084094D01*
X57483994Y-109815360D01*
X57332983Y-109571399D01*
X57137279Y-109361586D01*
X56904403Y-109193985D01*
X56643304Y-109075036D01*
X56545905Y-109045497D01*
X56320000Y-109154992D01*
X56320000Y-110310000D01*
X56340000Y-110310000D01*
X56340000Y-110610000D01*
X56320000Y-110610000D01*
X56320000Y-110630000D01*
X56020000Y-110630000D01*
X56020000Y-110610000D01*
X54864101Y-110610000D01*
X54755491Y-110835906D01*
X46825000Y-110835906D01*
X46825000Y-110084094D01*
X54755491Y-110084094D01*
X54864101Y-110310000D01*
X56020000Y-110310000D01*
X56020000Y-109154992D01*
X55794095Y-109045497D01*
X55696696Y-109075036D01*
X55435597Y-109193985D01*
X55202721Y-109361586D01*
X55007017Y-109571399D01*
X54856006Y-109815360D01*
X54755491Y-110084094D01*
X46825000Y-110084094D01*
X46825000Y-104948292D01*
X85475000Y-104948292D01*
X85475000Y-105051708D01*
X85495176Y-105153137D01*
X85534751Y-105248681D01*
X85592206Y-105334668D01*
X85665332Y-105407794D01*
X85751319Y-105465249D01*
X85846863Y-105504824D01*
X85948292Y-105525000D01*
X85959315Y-105525000D01*
X86703263Y-106268948D01*
X86715789Y-106284211D01*
X86765627Y-106325112D01*
X86776697Y-106334197D01*
X86846186Y-106371340D01*
X86921586Y-106394212D01*
X87000000Y-106401935D01*
X87019647Y-106400000D01*
X89157538Y-106400000D01*
X89165332Y-106407794D01*
X89251319Y-106465249D01*
X89346863Y-106504824D01*
X89448292Y-106525000D01*
X89551708Y-106525000D01*
X89653137Y-106504824D01*
X89698124Y-106486190D01*
X88459315Y-107725000D01*
X88448292Y-107725000D01*
X88346863Y-107745176D01*
X88251319Y-107784751D01*
X88165332Y-107842206D01*
X88092206Y-107915332D01*
X88034751Y-108001319D01*
X87995176Y-108096863D01*
X87975000Y-108198292D01*
X87975000Y-108301708D01*
X87995176Y-108403137D01*
X88034751Y-108498681D01*
X88092206Y-108584668D01*
X88165332Y-108657794D01*
X88251319Y-108715249D01*
X88346863Y-108754824D01*
X88448292Y-108775000D01*
X88551708Y-108775000D01*
X88653137Y-108754824D01*
X88748681Y-108715249D01*
X88834668Y-108657794D01*
X88907794Y-108584668D01*
X88965249Y-108498681D01*
X89000000Y-108414783D01*
X89034751Y-108498681D01*
X89092206Y-108584668D01*
X89165332Y-108657794D01*
X89251319Y-108715249D01*
X89346863Y-108754824D01*
X89448292Y-108775000D01*
X89551708Y-108775000D01*
X89653137Y-108754824D01*
X89748681Y-108715249D01*
X89834668Y-108657794D01*
X89875001Y-108617461D01*
X89915334Y-108657794D01*
X90001321Y-108715249D01*
X90096865Y-108754824D01*
X90198294Y-108775000D01*
X90301710Y-108775000D01*
X90403139Y-108754824D01*
X90498683Y-108715249D01*
X90584670Y-108657794D01*
X90657796Y-108584668D01*
X90715251Y-108498681D01*
X90754826Y-108403137D01*
X90775002Y-108301708D01*
X90775002Y-108290685D01*
X91193952Y-107871736D01*
X91209210Y-107859214D01*
X91223169Y-107842206D01*
X91259195Y-107798307D01*
X91284311Y-107751319D01*
X91296339Y-107728817D01*
X91319211Y-107653417D01*
X91324999Y-107594650D01*
X91324999Y-107594640D01*
X91326933Y-107575004D01*
X91324999Y-107555368D01*
X91324999Y-106206587D01*
X92881587Y-104650000D01*
X94979631Y-104650000D01*
X94975000Y-104673282D01*
X94975000Y-104776698D01*
X94995176Y-104878127D01*
X95034751Y-104973671D01*
X95052344Y-105000000D01*
X92919634Y-105000000D01*
X92899998Y-104998066D01*
X92880362Y-105000000D01*
X92880352Y-105000000D01*
X92821585Y-105005788D01*
X92746185Y-105028660D01*
X92676696Y-105065803D01*
X92615788Y-105115789D01*
X92603264Y-105131050D01*
X92459314Y-105275000D01*
X92448291Y-105275000D01*
X92346862Y-105295176D01*
X92251318Y-105334751D01*
X92165331Y-105392206D01*
X92092205Y-105465332D01*
X92034750Y-105551319D01*
X91995175Y-105646863D01*
X91974999Y-105748292D01*
X91974999Y-105851708D01*
X91995175Y-105953137D01*
X92034750Y-106048681D01*
X92092205Y-106134668D01*
X92165331Y-106207794D01*
X92251318Y-106265249D01*
X92346862Y-106304824D01*
X92448291Y-106325000D01*
X92551707Y-106325000D01*
X92653136Y-106304824D01*
X92748680Y-106265249D01*
X92834667Y-106207794D01*
X92907793Y-106134668D01*
X92965248Y-106048681D01*
X93004823Y-105953137D01*
X93024999Y-105851708D01*
X93024999Y-105840685D01*
X93065684Y-105800000D01*
X95734306Y-105800000D01*
X95459307Y-106075000D01*
X95448284Y-106075000D01*
X95346855Y-106095176D01*
X95251311Y-106134751D01*
X95165324Y-106192206D01*
X95092198Y-106265332D01*
X95034743Y-106351319D01*
X94995168Y-106446863D01*
X94974992Y-106548292D01*
X94974992Y-106651708D01*
X94995168Y-106753137D01*
X95034743Y-106848681D01*
X95092198Y-106934668D01*
X95165324Y-107007794D01*
X95251311Y-107065249D01*
X95346855Y-107104824D01*
X95448284Y-107125000D01*
X95551700Y-107125000D01*
X95653129Y-107104824D01*
X95748673Y-107065249D01*
X95834660Y-107007794D01*
X95907786Y-106934668D01*
X95965241Y-106848681D01*
X96004816Y-106753137D01*
X96024992Y-106651708D01*
X96024992Y-106640685D01*
X96265678Y-106400000D01*
X110762249Y-106400000D01*
X110718287Y-106465793D01*
X110673058Y-106574986D01*
X110650000Y-106690905D01*
X110650000Y-106809095D01*
X110673058Y-106925014D01*
X110718287Y-107034207D01*
X110783950Y-107132478D01*
X110867522Y-107216050D01*
X110965793Y-107281713D01*
X111074986Y-107326942D01*
X111190905Y-107350000D01*
X111309095Y-107350000D01*
X111425014Y-107326942D01*
X111490102Y-107299982D01*
X114759942Y-107299982D01*
X114824986Y-107326924D01*
X114940905Y-107349982D01*
X115059095Y-107349982D01*
X115175014Y-107326924D01*
X115284207Y-107281695D01*
X115382478Y-107216032D01*
X115466050Y-107132460D01*
X115531713Y-107034189D01*
X115576942Y-106924996D01*
X115600000Y-106809077D01*
X115600000Y-106690887D01*
X115576942Y-106574968D01*
X115531713Y-106465775D01*
X115466050Y-106367504D01*
X115382478Y-106283932D01*
X115284207Y-106218269D01*
X115175014Y-106173040D01*
X115059095Y-106149982D01*
X114940905Y-106149982D01*
X114824986Y-106173040D01*
X114759942Y-106199982D01*
X112485430Y-106199982D01*
X112504834Y-106153137D01*
X112525010Y-106051708D01*
X112525010Y-105948292D01*
X112504834Y-105846863D01*
X112472716Y-105769323D01*
X113601841Y-105769323D01*
X113640322Y-105807804D01*
X113726309Y-105865259D01*
X113821853Y-105904834D01*
X113923282Y-105925010D01*
X114026698Y-105925010D01*
X114128127Y-105904834D01*
X114223671Y-105865259D01*
X114309658Y-105807804D01*
X114382784Y-105734678D01*
X114440239Y-105648691D01*
X114479814Y-105553147D01*
X114499990Y-105451718D01*
X114499990Y-105348302D01*
X114479814Y-105246873D01*
X114440239Y-105151329D01*
X114382784Y-105065342D01*
X114309658Y-104992216D01*
X114223671Y-104934761D01*
X114128127Y-104895186D01*
X114026698Y-104875010D01*
X113923282Y-104875010D01*
X113821853Y-104895186D01*
X113815857Y-104897669D01*
X113825000Y-104851708D01*
X113825000Y-104748292D01*
X113804824Y-104646863D01*
X113785408Y-104599989D01*
X162870456Y-104599989D01*
X162702638Y-104669502D01*
X162530664Y-104784411D01*
X162384411Y-104930664D01*
X162269502Y-105102638D01*
X162190350Y-105293726D01*
X162150000Y-105496584D01*
X162150000Y-105703416D01*
X162190350Y-105906274D01*
X162269502Y-106097362D01*
X162384411Y-106269336D01*
X162530664Y-106415589D01*
X162702638Y-106530498D01*
X162893726Y-106609650D01*
X163096584Y-106650000D01*
X163303416Y-106650000D01*
X163506274Y-106609650D01*
X163697362Y-106530498D01*
X163869336Y-106415589D01*
X164015589Y-106269336D01*
X164130498Y-106097362D01*
X164209650Y-105906274D01*
X164250000Y-105703416D01*
X164250000Y-105496584D01*
X165550000Y-105496584D01*
X165550000Y-105703416D01*
X165590350Y-105906274D01*
X165669502Y-106097362D01*
X165784411Y-106269336D01*
X165930664Y-106415589D01*
X166102638Y-106530498D01*
X166293726Y-106609650D01*
X166496584Y-106650000D01*
X166703416Y-106650000D01*
X166906274Y-106609650D01*
X167097362Y-106530498D01*
X167269336Y-106415589D01*
X167415589Y-106269336D01*
X167530498Y-106097362D01*
X167609650Y-105906274D01*
X167650000Y-105703416D01*
X167650000Y-105496584D01*
X167609650Y-105293726D01*
X167530498Y-105102638D01*
X167415589Y-104930664D01*
X167269336Y-104784411D01*
X167097362Y-104669502D01*
X166906274Y-104590350D01*
X166703416Y-104550000D01*
X166496584Y-104550000D01*
X166293726Y-104590350D01*
X166102638Y-104669502D01*
X165930664Y-104784411D01*
X165784411Y-104930664D01*
X165669502Y-105102638D01*
X165590350Y-105293726D01*
X165550000Y-105496584D01*
X164250000Y-105496584D01*
X164209650Y-105293726D01*
X164130498Y-105102638D01*
X164015589Y-104930664D01*
X163869336Y-104784411D01*
X163697362Y-104669502D01*
X163529544Y-104599989D01*
X164080365Y-104599989D01*
X164100011Y-104601924D01*
X164119657Y-104599989D01*
X164119658Y-104599989D01*
X164178425Y-104594201D01*
X164253825Y-104571329D01*
X164323314Y-104534186D01*
X164384222Y-104484200D01*
X164396748Y-104468937D01*
X164540685Y-104325000D01*
X164551708Y-104325000D01*
X164653137Y-104304824D01*
X164748681Y-104265249D01*
X164834668Y-104207794D01*
X164907794Y-104134668D01*
X164965249Y-104048681D01*
X165004824Y-103953137D01*
X165025000Y-103851708D01*
X165025000Y-103748292D01*
X165004824Y-103646863D01*
X164965249Y-103551319D01*
X164907794Y-103465332D01*
X164834668Y-103392206D01*
X164748681Y-103334751D01*
X164653137Y-103295176D01*
X164551708Y-103275000D01*
X164448292Y-103275000D01*
X164346863Y-103295176D01*
X164251319Y-103334751D01*
X164165332Y-103392206D01*
X164092206Y-103465332D01*
X164034751Y-103551319D01*
X163995176Y-103646863D01*
X163975000Y-103748292D01*
X163975000Y-103759315D01*
X163934326Y-103799989D01*
X163265696Y-103799989D01*
X165018953Y-102046733D01*
X165034211Y-102034211D01*
X165084197Y-101973303D01*
X165121340Y-101903814D01*
X165144212Y-101828414D01*
X165150000Y-101769647D01*
X165150000Y-101769637D01*
X165151934Y-101750001D01*
X165150000Y-101730365D01*
X165150000Y-99642462D01*
X165157794Y-99634668D01*
X165215249Y-99548681D01*
X165254824Y-99453137D01*
X165275000Y-99351708D01*
X165275000Y-99248292D01*
X165254824Y-99146863D01*
X165215249Y-99051319D01*
X165157794Y-98965332D01*
X165084668Y-98892206D01*
X164998681Y-98834751D01*
X164903137Y-98795176D01*
X164801708Y-98775000D01*
X164698292Y-98775000D01*
X164596863Y-98795176D01*
X164501319Y-98834751D01*
X164415332Y-98892206D01*
X164342206Y-98965332D01*
X164284751Y-99051319D01*
X164245176Y-99146863D01*
X164225000Y-99248292D01*
X164225000Y-99351708D01*
X164245176Y-99453137D01*
X164284751Y-99548681D01*
X164342206Y-99634668D01*
X164350000Y-99642462D01*
X164350001Y-101584313D01*
X162584315Y-103350000D01*
X160715685Y-103350000D01*
X162768949Y-101296736D01*
X162784211Y-101284211D01*
X162834197Y-101223303D01*
X162871340Y-101153814D01*
X162894212Y-101078414D01*
X162900000Y-101019647D01*
X162900000Y-101019646D01*
X162901935Y-101000000D01*
X162900000Y-100980353D01*
X162900000Y-99642462D01*
X162907794Y-99634668D01*
X162965249Y-99548681D01*
X163004824Y-99453137D01*
X163025000Y-99351708D01*
X163025000Y-99248292D01*
X163004824Y-99146863D01*
X162965249Y-99051319D01*
X162907794Y-98965332D01*
X162834668Y-98892206D01*
X162748681Y-98834751D01*
X162653137Y-98795176D01*
X162551708Y-98775000D01*
X162448292Y-98775000D01*
X162346863Y-98795176D01*
X162251319Y-98834751D01*
X162165332Y-98892206D01*
X162092206Y-98965332D01*
X162034751Y-99051319D01*
X161995176Y-99146863D01*
X161975000Y-99248292D01*
X161975000Y-99351708D01*
X161995176Y-99453137D01*
X162034751Y-99548681D01*
X162092206Y-99634668D01*
X162100001Y-99642463D01*
X162100000Y-100834315D01*
X160084315Y-102850000D01*
X92276397Y-102850000D01*
X92256750Y-102848065D01*
X92237103Y-102850000D01*
X92178336Y-102855788D01*
X92102936Y-102878660D01*
X92033447Y-102915803D01*
X91972539Y-102965789D01*
X91960015Y-102981050D01*
X89831037Y-105110028D01*
X89815779Y-105122550D01*
X89803257Y-105137808D01*
X89803254Y-105137811D01*
X89765792Y-105183459D01*
X89728650Y-105252947D01*
X89705777Y-105328348D01*
X89698054Y-105406761D01*
X89699990Y-105426417D01*
X89699990Y-105514583D01*
X89653137Y-105495176D01*
X89551708Y-105475000D01*
X89448292Y-105475000D01*
X89346863Y-105495176D01*
X89251319Y-105534751D01*
X89165332Y-105592206D01*
X89157538Y-105600000D01*
X87165685Y-105600000D01*
X86525000Y-104959315D01*
X86525000Y-104948292D01*
X86504824Y-104846863D01*
X86465249Y-104751319D01*
X86407794Y-104665332D01*
X86334668Y-104592206D01*
X86248681Y-104534751D01*
X86153137Y-104495176D01*
X86051708Y-104475000D01*
X85948292Y-104475000D01*
X85846863Y-104495176D01*
X85751319Y-104534751D01*
X85665332Y-104592206D01*
X85592206Y-104665332D01*
X85534751Y-104751319D01*
X85495176Y-104846863D01*
X85475000Y-104948292D01*
X46825000Y-104948292D01*
X46825000Y-97488045D01*
X67724087Y-97488045D01*
X67884169Y-97791005D01*
X68255017Y-97974280D01*
X68654494Y-98081683D01*
X69067249Y-98109090D01*
X69477420Y-98055445D01*
X69869244Y-97922810D01*
X70115831Y-97791005D01*
X70275913Y-97488045D01*
X69000000Y-96212132D01*
X67724087Y-97488045D01*
X46825000Y-97488045D01*
X46825000Y-96067249D01*
X66890910Y-96067249D01*
X66944555Y-96477420D01*
X67077190Y-96869244D01*
X67208995Y-97115831D01*
X67511955Y-97275913D01*
X68787868Y-96000000D01*
X69212132Y-96000000D01*
X70488045Y-97275913D01*
X70791005Y-97115831D01*
X70974280Y-96744983D01*
X71081683Y-96345506D01*
X71109090Y-95932751D01*
X71082114Y-95726486D01*
X88948206Y-95726486D01*
X88948206Y-95829902D01*
X88968382Y-95931331D01*
X89007957Y-96026875D01*
X89065412Y-96112862D01*
X89138538Y-96185988D01*
X89224525Y-96243443D01*
X89320069Y-96283018D01*
X89421498Y-96303194D01*
X89524914Y-96303194D01*
X89626343Y-96283018D01*
X89721887Y-96243443D01*
X89807874Y-96185988D01*
X89815668Y-96178194D01*
X93612509Y-96178194D01*
X96203267Y-98768953D01*
X96215789Y-98784211D01*
X96231047Y-98796733D01*
X96231049Y-98796735D01*
X96276697Y-98834197D01*
X96346186Y-98871340D01*
X96421586Y-98894212D01*
X96460707Y-98898065D01*
X96500000Y-98901935D01*
X96519646Y-98900000D01*
X103480354Y-98900000D01*
X103500000Y-98901935D01*
X103519646Y-98900000D01*
X103519647Y-98900000D01*
X103578414Y-98894212D01*
X103653814Y-98871340D01*
X103723303Y-98834197D01*
X103784211Y-98784211D01*
X103796737Y-98768948D01*
X104124780Y-98440905D01*
X167650008Y-98440905D01*
X167650008Y-98559095D01*
X167673066Y-98675014D01*
X167718295Y-98784207D01*
X167783958Y-98882478D01*
X167867530Y-98966050D01*
X167965801Y-99031713D01*
X168074994Y-99076942D01*
X168190913Y-99100000D01*
X168309103Y-99100000D01*
X168425022Y-99076942D01*
X168490066Y-99050000D01*
X185372183Y-99050000D01*
X185727203Y-99405021D01*
X185751901Y-99529182D01*
X185804668Y-99656574D01*
X185881274Y-99771224D01*
X185978776Y-99868726D01*
X186093426Y-99945332D01*
X186220818Y-99998099D01*
X186356056Y-100025000D01*
X186493944Y-100025000D01*
X186629182Y-99998099D01*
X186756574Y-99945332D01*
X186871224Y-99868726D01*
X186968726Y-99771224D01*
X187045332Y-99656574D01*
X187098099Y-99529182D01*
X187125000Y-99393944D01*
X187125000Y-99256056D01*
X187098099Y-99120818D01*
X187045332Y-98993426D01*
X186968726Y-98878776D01*
X186871224Y-98781274D01*
X186756574Y-98704668D01*
X186629182Y-98651901D01*
X186505021Y-98627203D01*
X186008013Y-98130196D01*
X185990790Y-98109210D01*
X185907042Y-98040479D01*
X185811494Y-97989408D01*
X185707819Y-97957958D01*
X185627018Y-97950000D01*
X185627008Y-97950000D01*
X185600000Y-97947340D01*
X185572992Y-97950000D01*
X168490066Y-97950000D01*
X168425022Y-97923058D01*
X168309103Y-97900000D01*
X168190913Y-97900000D01*
X168074994Y-97923058D01*
X167965801Y-97968287D01*
X167867530Y-98033950D01*
X167783958Y-98117522D01*
X167718295Y-98215793D01*
X167673066Y-98324986D01*
X167650008Y-98440905D01*
X104124780Y-98440905D01*
X105041376Y-97524309D01*
X105147380Y-97595139D01*
X105474959Y-97730827D01*
X105822716Y-97800000D01*
X106177284Y-97800000D01*
X106525041Y-97730827D01*
X106852620Y-97595139D01*
X107147433Y-97398151D01*
X107398151Y-97147433D01*
X107595139Y-96852620D01*
X107730827Y-96525041D01*
X107800000Y-96177284D01*
X107800000Y-95822716D01*
X108450000Y-95822716D01*
X108450000Y-96177284D01*
X108519173Y-96525041D01*
X108654861Y-96852620D01*
X108851849Y-97147433D01*
X109102567Y-97398151D01*
X109397380Y-97595139D01*
X109724959Y-97730827D01*
X110072716Y-97800000D01*
X110427284Y-97800000D01*
X110775041Y-97730827D01*
X111102620Y-97595139D01*
X111397433Y-97398151D01*
X111648151Y-97147433D01*
X111845139Y-96852620D01*
X111980827Y-96525041D01*
X112050000Y-96177284D01*
X112050000Y-95822716D01*
X112700000Y-95822716D01*
X112700000Y-96177284D01*
X112769173Y-96525041D01*
X112904861Y-96852620D01*
X113101849Y-97147433D01*
X113352567Y-97398151D01*
X113647380Y-97595139D01*
X113974959Y-97730827D01*
X114322716Y-97800000D01*
X114677284Y-97800000D01*
X115025041Y-97730827D01*
X115352620Y-97595139D01*
X115647433Y-97398151D01*
X115898151Y-97147433D01*
X116095139Y-96852620D01*
X116230827Y-96525041D01*
X116300000Y-96177284D01*
X116300000Y-95822716D01*
X116950000Y-95822716D01*
X116950000Y-96177284D01*
X117019173Y-96525041D01*
X117154861Y-96852620D01*
X117351849Y-97147433D01*
X117602567Y-97398151D01*
X117897380Y-97595139D01*
X118224959Y-97730827D01*
X118572716Y-97800000D01*
X118927284Y-97800000D01*
X119275041Y-97730827D01*
X119602620Y-97595139D01*
X119897433Y-97398151D01*
X120148151Y-97147433D01*
X120345139Y-96852620D01*
X120480827Y-96525041D01*
X120550000Y-96177284D01*
X120550000Y-95822716D01*
X143200000Y-95822716D01*
X143200000Y-96177284D01*
X143269173Y-96525041D01*
X143404861Y-96852620D01*
X143601849Y-97147433D01*
X143852567Y-97398151D01*
X144147380Y-97595139D01*
X144474959Y-97730827D01*
X144822716Y-97800000D01*
X145177284Y-97800000D01*
X145525041Y-97730827D01*
X145852620Y-97595139D01*
X146147433Y-97398151D01*
X146398151Y-97147433D01*
X146595139Y-96852620D01*
X146730827Y-96525041D01*
X146800000Y-96177284D01*
X146800000Y-95822716D01*
X153700000Y-95822716D01*
X153700000Y-96177284D01*
X153769173Y-96525041D01*
X153904861Y-96852620D01*
X154101849Y-97147433D01*
X154352567Y-97398151D01*
X154647380Y-97595139D01*
X154974959Y-97730827D01*
X155322716Y-97800000D01*
X155677284Y-97800000D01*
X156025041Y-97730827D01*
X156352620Y-97595139D01*
X156647433Y-97398151D01*
X156898151Y-97147433D01*
X157095139Y-96852620D01*
X157230827Y-96525041D01*
X157300000Y-96177284D01*
X157300000Y-95822716D01*
X157250273Y-95572716D01*
X180700000Y-95572716D01*
X180700000Y-95927284D01*
X180769173Y-96275041D01*
X180904861Y-96602620D01*
X181101849Y-96897433D01*
X181352567Y-97148151D01*
X181647380Y-97345139D01*
X181974959Y-97480827D01*
X182322716Y-97550000D01*
X182677284Y-97550000D01*
X183025041Y-97480827D01*
X183352620Y-97345139D01*
X183647433Y-97148151D01*
X183898151Y-96897433D01*
X184095139Y-96602620D01*
X184230827Y-96275041D01*
X184300000Y-95927284D01*
X184300000Y-95572716D01*
X192450000Y-95572716D01*
X192450000Y-95927284D01*
X192519173Y-96275041D01*
X192654861Y-96602620D01*
X192851849Y-96897433D01*
X193102567Y-97148151D01*
X193397380Y-97345139D01*
X193724959Y-97480827D01*
X194072716Y-97550000D01*
X194427284Y-97550000D01*
X194775041Y-97480827D01*
X195102620Y-97345139D01*
X195262897Y-97238045D01*
X198224087Y-97238045D01*
X198384169Y-97541005D01*
X198755017Y-97724280D01*
X199154494Y-97831683D01*
X199567249Y-97859090D01*
X199977420Y-97805445D01*
X200369244Y-97672810D01*
X200615831Y-97541005D01*
X200775913Y-97238045D01*
X199500000Y-95962132D01*
X198224087Y-97238045D01*
X195262897Y-97238045D01*
X195397433Y-97148151D01*
X195648151Y-96897433D01*
X195845139Y-96602620D01*
X195980827Y-96275041D01*
X196050000Y-95927284D01*
X196050000Y-95817249D01*
X197390910Y-95817249D01*
X197444555Y-96227420D01*
X197577190Y-96619244D01*
X197708995Y-96865831D01*
X198011955Y-97025913D01*
X199287868Y-95750000D01*
X199712132Y-95750000D01*
X200988045Y-97025913D01*
X201291005Y-96865831D01*
X201474280Y-96494983D01*
X201581683Y-96095506D01*
X201609090Y-95682751D01*
X201594699Y-95572716D01*
X203450000Y-95572716D01*
X203450000Y-95927284D01*
X203519173Y-96275041D01*
X203654861Y-96602620D01*
X203851849Y-96897433D01*
X204102567Y-97148151D01*
X204397380Y-97345139D01*
X204724959Y-97480827D01*
X205072716Y-97550000D01*
X205427284Y-97550000D01*
X205775041Y-97480827D01*
X206102620Y-97345139D01*
X206397433Y-97148151D01*
X206648151Y-96897433D01*
X206845139Y-96602620D01*
X206980827Y-96275041D01*
X207050000Y-95927284D01*
X207050000Y-95572716D01*
X230950000Y-95572716D01*
X230950000Y-95927284D01*
X231019173Y-96275041D01*
X231154861Y-96602620D01*
X231351849Y-96897433D01*
X231602567Y-97148151D01*
X231897380Y-97345139D01*
X232224959Y-97480827D01*
X232572716Y-97550000D01*
X232927284Y-97550000D01*
X233275041Y-97480827D01*
X233602620Y-97345139D01*
X233897433Y-97148151D01*
X234148151Y-96897433D01*
X234345139Y-96602620D01*
X234480827Y-96275041D01*
X234550000Y-95927284D01*
X234550000Y-95572716D01*
X234480827Y-95224959D01*
X234345139Y-94897380D01*
X234148151Y-94602567D01*
X233897433Y-94351849D01*
X233602620Y-94154861D01*
X233275041Y-94019173D01*
X232927284Y-93950000D01*
X232572716Y-93950000D01*
X232224959Y-94019173D01*
X231897380Y-94154861D01*
X231602567Y-94351849D01*
X231351849Y-94602567D01*
X231154861Y-94897380D01*
X231019173Y-95224959D01*
X230950000Y-95572716D01*
X207050000Y-95572716D01*
X206980827Y-95224959D01*
X206845139Y-94897380D01*
X206648151Y-94602567D01*
X206397433Y-94351849D01*
X206102620Y-94154861D01*
X205775041Y-94019173D01*
X205427284Y-93950000D01*
X205072716Y-93950000D01*
X204724959Y-94019173D01*
X204397380Y-94154861D01*
X204102567Y-94351849D01*
X203851849Y-94602567D01*
X203654861Y-94897380D01*
X203519173Y-95224959D01*
X203450000Y-95572716D01*
X201594699Y-95572716D01*
X201555445Y-95272580D01*
X201422810Y-94880756D01*
X201291005Y-94634169D01*
X200988045Y-94474087D01*
X199712132Y-95750000D01*
X199287868Y-95750000D01*
X198011955Y-94474087D01*
X197708995Y-94634169D01*
X197525720Y-95005017D01*
X197418317Y-95404494D01*
X197390910Y-95817249D01*
X196050000Y-95817249D01*
X196050000Y-95572716D01*
X195980827Y-95224959D01*
X195845139Y-94897380D01*
X195648151Y-94602567D01*
X195397433Y-94351849D01*
X195262898Y-94261955D01*
X198224087Y-94261955D01*
X199500000Y-95537868D01*
X200775913Y-94261955D01*
X200615831Y-93958995D01*
X200244983Y-93775720D01*
X199845506Y-93668317D01*
X199432751Y-93640910D01*
X199022580Y-93694555D01*
X198630756Y-93827190D01*
X198384169Y-93958995D01*
X198224087Y-94261955D01*
X195262898Y-94261955D01*
X195102620Y-94154861D01*
X194775041Y-94019173D01*
X194427284Y-93950000D01*
X194072716Y-93950000D01*
X193724959Y-94019173D01*
X193397380Y-94154861D01*
X193102567Y-94351849D01*
X192851849Y-94602567D01*
X192654861Y-94897380D01*
X192519173Y-95224959D01*
X192450000Y-95572716D01*
X184300000Y-95572716D01*
X184230827Y-95224959D01*
X184095139Y-94897380D01*
X183898151Y-94602567D01*
X183647433Y-94351849D01*
X183352620Y-94154861D01*
X183025041Y-94019173D01*
X182677284Y-93950000D01*
X182322716Y-93950000D01*
X181974959Y-94019173D01*
X181647380Y-94154861D01*
X181352567Y-94351849D01*
X181101849Y-94602567D01*
X180904861Y-94897380D01*
X180769173Y-95224959D01*
X180700000Y-95572716D01*
X157250273Y-95572716D01*
X157230827Y-95474959D01*
X157095139Y-95147380D01*
X156898151Y-94852567D01*
X156647433Y-94601849D01*
X156352620Y-94404861D01*
X156025041Y-94269173D01*
X155677284Y-94200000D01*
X155322716Y-94200000D01*
X154974959Y-94269173D01*
X154647380Y-94404861D01*
X154352567Y-94601849D01*
X154101849Y-94852567D01*
X153904861Y-95147380D01*
X153769173Y-95474959D01*
X153700000Y-95822716D01*
X146800000Y-95822716D01*
X146730827Y-95474959D01*
X146595139Y-95147380D01*
X146398151Y-94852567D01*
X146147433Y-94601849D01*
X145852620Y-94404861D01*
X145525041Y-94269173D01*
X145177284Y-94200000D01*
X144822716Y-94200000D01*
X144474959Y-94269173D01*
X144147380Y-94404861D01*
X143852567Y-94601849D01*
X143601849Y-94852567D01*
X143404861Y-95147380D01*
X143269173Y-95474959D01*
X143200000Y-95822716D01*
X120550000Y-95822716D01*
X120480827Y-95474959D01*
X120345139Y-95147380D01*
X120148151Y-94852567D01*
X119897433Y-94601849D01*
X119602620Y-94404861D01*
X119275041Y-94269173D01*
X118927284Y-94200000D01*
X118572716Y-94200000D01*
X118224959Y-94269173D01*
X117897380Y-94404861D01*
X117602567Y-94601849D01*
X117351849Y-94852567D01*
X117154861Y-95147380D01*
X117019173Y-95474959D01*
X116950000Y-95822716D01*
X116300000Y-95822716D01*
X116230827Y-95474959D01*
X116095139Y-95147380D01*
X115898151Y-94852567D01*
X115647433Y-94601849D01*
X115352620Y-94404861D01*
X115025041Y-94269173D01*
X114677284Y-94200000D01*
X114322716Y-94200000D01*
X113974959Y-94269173D01*
X113647380Y-94404861D01*
X113352567Y-94601849D01*
X113101849Y-94852567D01*
X112904861Y-95147380D01*
X112769173Y-95474959D01*
X112700000Y-95822716D01*
X112050000Y-95822716D01*
X111980827Y-95474959D01*
X111845139Y-95147380D01*
X111648151Y-94852567D01*
X111397433Y-94601849D01*
X111102620Y-94404861D01*
X110775041Y-94269173D01*
X110427284Y-94200000D01*
X110072716Y-94200000D01*
X109724959Y-94269173D01*
X109397380Y-94404861D01*
X109102567Y-94601849D01*
X108851849Y-94852567D01*
X108654861Y-95147380D01*
X108519173Y-95474959D01*
X108450000Y-95822716D01*
X107800000Y-95822716D01*
X107730827Y-95474959D01*
X107595139Y-95147380D01*
X107398151Y-94852567D01*
X107147433Y-94601849D01*
X106852620Y-94404861D01*
X106525041Y-94269173D01*
X106177284Y-94200000D01*
X105822716Y-94200000D01*
X105474959Y-94269173D01*
X105147380Y-94404861D01*
X104852567Y-94601849D01*
X104601849Y-94852567D01*
X104404861Y-95147380D01*
X104269173Y-95474959D01*
X104200000Y-95822716D01*
X104200000Y-96177284D01*
X104269173Y-96525041D01*
X104404861Y-96852620D01*
X104475691Y-96958624D01*
X103334315Y-98100000D01*
X96665686Y-98100000D01*
X94388402Y-95822716D01*
X95700000Y-95822716D01*
X95700000Y-96177284D01*
X95769173Y-96525041D01*
X95904861Y-96852620D01*
X96101849Y-97147433D01*
X96352567Y-97398151D01*
X96647380Y-97595139D01*
X96974959Y-97730827D01*
X97322716Y-97800000D01*
X97677284Y-97800000D01*
X98025041Y-97730827D01*
X98352620Y-97595139D01*
X98647433Y-97398151D01*
X98898151Y-97147433D01*
X99095139Y-96852620D01*
X99230827Y-96525041D01*
X99300000Y-96177284D01*
X99300000Y-95822716D01*
X99950000Y-95822716D01*
X99950000Y-96177284D01*
X100019173Y-96525041D01*
X100154861Y-96852620D01*
X100351849Y-97147433D01*
X100602567Y-97398151D01*
X100897380Y-97595139D01*
X101224959Y-97730827D01*
X101572716Y-97800000D01*
X101927284Y-97800000D01*
X102275041Y-97730827D01*
X102602620Y-97595139D01*
X102897433Y-97398151D01*
X103148151Y-97147433D01*
X103345139Y-96852620D01*
X103480827Y-96525041D01*
X103550000Y-96177284D01*
X103550000Y-95822716D01*
X103480827Y-95474959D01*
X103345139Y-95147380D01*
X103148151Y-94852567D01*
X102897433Y-94601849D01*
X102602620Y-94404861D01*
X102275041Y-94269173D01*
X101927284Y-94200000D01*
X101572716Y-94200000D01*
X101224959Y-94269173D01*
X100897380Y-94404861D01*
X100602567Y-94601849D01*
X100351849Y-94852567D01*
X100154861Y-95147380D01*
X100019173Y-95474959D01*
X99950000Y-95822716D01*
X99300000Y-95822716D01*
X99230827Y-95474959D01*
X99095139Y-95147380D01*
X98898151Y-94852567D01*
X98647433Y-94601849D01*
X98352620Y-94404861D01*
X98025041Y-94269173D01*
X97677284Y-94200000D01*
X97322716Y-94200000D01*
X96974959Y-94269173D01*
X96647380Y-94404861D01*
X96352567Y-94601849D01*
X96101849Y-94852567D01*
X95904861Y-95147380D01*
X95769173Y-95474959D01*
X95700000Y-95822716D01*
X94388402Y-95822716D01*
X94074931Y-95509246D01*
X94062405Y-95493983D01*
X94001497Y-95443997D01*
X93932008Y-95406854D01*
X93856608Y-95383982D01*
X93797841Y-95378194D01*
X93797840Y-95378194D01*
X93778194Y-95376259D01*
X93758548Y-95378194D01*
X89815668Y-95378194D01*
X89807874Y-95370400D01*
X89721887Y-95312945D01*
X89626343Y-95273370D01*
X89524914Y-95253194D01*
X89421498Y-95253194D01*
X89320069Y-95273370D01*
X89224525Y-95312945D01*
X89138538Y-95370400D01*
X89065412Y-95443526D01*
X89007957Y-95529513D01*
X88968382Y-95625057D01*
X88948206Y-95726486D01*
X71082114Y-95726486D01*
X71055445Y-95522580D01*
X70922810Y-95130756D01*
X70791005Y-94884169D01*
X70488045Y-94724087D01*
X69212132Y-96000000D01*
X68787868Y-96000000D01*
X67511955Y-94724087D01*
X67208995Y-94884169D01*
X67025720Y-95255017D01*
X66918317Y-95654494D01*
X66890910Y-96067249D01*
X46825000Y-96067249D01*
X46825000Y-94511955D01*
X67724087Y-94511955D01*
X69000000Y-95787868D01*
X70275913Y-94511955D01*
X70115831Y-94208995D01*
X69744983Y-94025720D01*
X69345506Y-93918317D01*
X68932751Y-93890910D01*
X68522580Y-93944555D01*
X68130756Y-94077190D01*
X67884169Y-94208995D01*
X67724087Y-94511955D01*
X46825000Y-94511955D01*
X46825000Y-93325000D01*
X259175000Y-93325000D01*
X259175001Y-117675000D01*
X259175001Y-117675000D01*
G37*
X259175001Y-117675000D02*
X46825000Y-117675000D01*
X46825000Y-115131374D01*
X68330758Y-115131374D01*
X68430467Y-115383184D01*
X68716061Y-115516489D01*
X69022172Y-115591517D01*
X69337040Y-115605383D01*
X69648562Y-115557555D01*
X69944768Y-115449872D01*
X70069533Y-115383184D01*
X70169242Y-115131374D01*
X74830758Y-115131374D01*
X74930467Y-115383184D01*
X75216061Y-115516489D01*
X75522172Y-115591517D01*
X75837040Y-115605383D01*
X76148562Y-115557555D01*
X76444768Y-115449872D01*
X76569533Y-115383184D01*
X76669242Y-115131374D01*
X75750000Y-114212132D01*
X74830758Y-115131374D01*
X70169242Y-115131374D01*
X69250000Y-114212132D01*
X68330758Y-115131374D01*
X46825000Y-115131374D01*
X46825000Y-110835906D01*
X54755491Y-110835906D01*
X54856006Y-111104640D01*
X55007017Y-111348601D01*
X55202721Y-111558414D01*
X55435597Y-111726015D01*
X55696696Y-111844964D01*
X55794095Y-111874503D01*
X56019998Y-111765009D01*
X56019998Y-111845544D01*
X55941895Y-111853236D01*
X55722555Y-111919772D01*
X55520411Y-112027821D01*
X55343230Y-112173230D01*
X55197821Y-112350411D01*
X55089772Y-112552555D01*
X55023236Y-112771895D01*
X55000770Y-113000000D01*
X55023236Y-113228105D01*
X55089772Y-113447445D01*
X55197821Y-113649589D01*
X55343230Y-113826770D01*
X55520411Y-113972179D01*
X55722555Y-114080228D01*
X55941895Y-114146764D01*
X56112837Y-114163600D01*
X56227163Y-114163600D01*
X56398105Y-114146764D01*
X56617445Y-114080228D01*
X56819589Y-113972179D01*
X56996770Y-113826770D01*
X57142179Y-113649589D01*
X57250228Y-113447445D01*
X57316764Y-113228105D01*
X57339230Y-113000000D01*
X57316764Y-112771895D01*
X57250228Y-112552555D01*
X57142179Y-112350411D01*
X56996770Y-112173230D01*
X56819589Y-112027821D01*
X56617445Y-111919772D01*
X56398105Y-111853236D01*
X56320002Y-111845544D01*
X56320002Y-111765009D01*
X56545905Y-111874503D01*
X56643304Y-111844964D01*
X56904403Y-111726015D01*
X57137279Y-111558414D01*
X57332983Y-111348601D01*
X57483994Y-111104640D01*
X57584509Y-110835906D01*
X57475900Y-110610002D01*
X57555544Y-110610002D01*
X57563236Y-110688105D01*
X57629772Y-110907445D01*
X57737821Y-111109589D01*
X57883230Y-111286770D01*
X58060411Y-111432179D01*
X58262555Y-111540228D01*
X58481895Y-111606764D01*
X58652837Y-111623600D01*
X58767163Y-111623600D01*
X58938105Y-111606764D01*
X59157445Y-111540228D01*
X59359589Y-111432179D01*
X59536770Y-111286770D01*
X59682179Y-111109589D01*
X59790228Y-110907445D01*
X59856764Y-110688105D01*
X59879230Y-110460000D01*
X59856764Y-110231895D01*
X59790228Y-110012555D01*
X59766856Y-109968829D01*
X60335686Y-109400000D01*
X60764711Y-109400000D01*
X60600411Y-109487821D01*
X60423230Y-109633230D01*
X60277821Y-109810411D01*
X60169772Y-110012555D01*
X60103236Y-110231895D01*
X60080770Y-110460000D01*
X60103236Y-110688105D01*
X60169772Y-110907445D01*
X60277821Y-111109589D01*
X60423230Y-111286770D01*
X60500276Y-111350000D01*
X59979646Y-111350000D01*
X59960000Y-111348065D01*
X59940353Y-111350000D01*
X59881586Y-111355788D01*
X59806186Y-111378660D01*
X59759127Y-111403814D01*
X59736697Y-111415803D01*
X59691049Y-111453265D01*
X59691047Y-111453267D01*
X59675789Y-111465789D01*
X59663267Y-111481047D01*
X59201170Y-111943144D01*
X59157445Y-111919772D01*
X58938105Y-111853236D01*
X58767163Y-111836400D01*
X58652837Y-111836400D01*
X58481895Y-111853236D01*
X58262555Y-111919772D01*
X58060411Y-112027821D01*
X57883230Y-112173230D01*
X57737821Y-112350411D01*
X57629772Y-112552555D01*
X57563236Y-112771895D01*
X57540770Y-113000000D01*
X57563236Y-113228105D01*
X57629772Y-113447445D01*
X57737821Y-113649589D01*
X57883230Y-113826770D01*
X58060411Y-113972179D01*
X58262555Y-114080228D01*
X58481895Y-114146764D01*
X58652837Y-114163600D01*
X58767163Y-114163600D01*
X58938105Y-114146764D01*
X59157445Y-114080228D01*
X59359589Y-113972179D01*
X59536770Y-113826770D01*
X59682179Y-113649589D01*
X59790228Y-113447445D01*
X59856764Y-113228105D01*
X59879230Y-113000000D01*
X59856764Y-112771895D01*
X59790228Y-112552555D01*
X59766856Y-112508830D01*
X60084949Y-112190737D01*
X60084949Y-113863600D01*
X60090741Y-113922410D01*
X60107896Y-113978960D01*
X60135753Y-114031077D01*
X60173242Y-114076758D01*
X60218923Y-114114247D01*
X60271040Y-114142104D01*
X60327590Y-114159259D01*
X60386400Y-114165051D01*
X62113600Y-114165051D01*
X62172410Y-114159259D01*
X62228960Y-114142104D01*
X62281077Y-114114247D01*
X62314229Y-114087040D01*
X67644617Y-114087040D01*
X67692445Y-114398562D01*
X67800128Y-114694768D01*
X67866816Y-114819533D01*
X68118626Y-114919242D01*
X69037868Y-114000000D01*
X69462132Y-114000000D01*
X70381374Y-114919242D01*
X70633184Y-114819533D01*
X70766489Y-114533939D01*
X70841517Y-114227828D01*
X70847716Y-114087040D01*
X74144617Y-114087040D01*
X74192445Y-114398562D01*
X74300128Y-114694768D01*
X74366816Y-114819533D01*
X74618626Y-114919242D01*
X75537868Y-114000000D01*
X74618626Y-113080758D01*
X74366816Y-113180467D01*
X74233511Y-113466061D01*
X74158483Y-113772172D01*
X74144617Y-114087040D01*
X70847716Y-114087040D01*
X70855383Y-113912960D01*
X70807555Y-113601438D01*
X70699872Y-113305232D01*
X70633184Y-113180467D01*
X70381374Y-113080758D01*
X69462132Y-114000000D01*
X69037868Y-114000000D01*
X68118626Y-113080758D01*
X67866816Y-113180467D01*
X67733511Y-113466061D01*
X67658483Y-113772172D01*
X67644617Y-114087040D01*
X62314229Y-114087040D01*
X62326758Y-114076758D01*
X62364247Y-114031077D01*
X62392104Y-113978960D01*
X62409259Y-113922410D01*
X62415051Y-113863600D01*
X62415051Y-113387224D01*
X62467414Y-113371340D01*
X62536903Y-113334197D01*
X62597811Y-113284211D01*
X62610337Y-113268948D01*
X63229286Y-112650000D01*
X68417327Y-112650000D01*
X68330758Y-112868626D01*
X69250000Y-113787868D01*
X70169242Y-112868626D01*
X70082673Y-112650000D01*
X74917327Y-112650000D01*
X74830758Y-112868626D01*
X75750000Y-113787868D01*
X75764143Y-113773726D01*
X75976275Y-113985858D01*
X75962132Y-114000000D01*
X76881374Y-114919242D01*
X77133184Y-114819533D01*
X77266489Y-114533939D01*
X77341517Y-114227828D01*
X77355383Y-113912960D01*
X77307555Y-113601438D01*
X77286137Y-113542522D01*
X78762567Y-115018953D01*
X78775089Y-115034211D01*
X78790347Y-115046733D01*
X78790349Y-115046735D01*
X78835997Y-115084197D01*
X78905485Y-115121340D01*
X78980886Y-115144212D01*
X79059300Y-115151935D01*
X79078946Y-115150000D01*
X86480354Y-115150000D01*
X86500000Y-115151935D01*
X86519646Y-115150000D01*
X86519647Y-115150000D01*
X86578414Y-115144212D01*
X86653814Y-115121340D01*
X86723303Y-115084197D01*
X86784211Y-115034211D01*
X86796737Y-115018948D01*
X87040686Y-114775000D01*
X87051708Y-114775000D01*
X87153137Y-114754824D01*
X87248681Y-114715249D01*
X87334668Y-114657794D01*
X87407794Y-114584668D01*
X87465249Y-114498681D01*
X87504824Y-114403137D01*
X87525000Y-114301708D01*
X87525000Y-114198292D01*
X87504824Y-114096863D01*
X87465249Y-114001319D01*
X87407794Y-113915332D01*
X87334668Y-113842206D01*
X87248681Y-113784751D01*
X87153137Y-113745176D01*
X87051708Y-113725000D01*
X86948292Y-113725000D01*
X86846863Y-113745176D01*
X86751319Y-113784751D01*
X86665332Y-113842206D01*
X86592206Y-113915332D01*
X86534751Y-114001319D01*
X86495176Y-114096863D01*
X86475000Y-114198292D01*
X86475000Y-114209314D01*
X86334315Y-114350000D01*
X85914261Y-114350000D01*
X85965249Y-114273691D01*
X86004824Y-114178147D01*
X86025000Y-114076718D01*
X86025000Y-113973302D01*
X86010596Y-113900891D01*
X86019646Y-113900000D01*
X86019647Y-113900000D01*
X86078414Y-113894212D01*
X86153814Y-113871340D01*
X86223303Y-113834197D01*
X86284211Y-113784211D01*
X86296737Y-113768948D01*
X86828950Y-113236735D01*
X171600000Y-113236735D01*
X171600000Y-113463265D01*
X171644194Y-113685443D01*
X171730884Y-113894729D01*
X171856737Y-114083082D01*
X172016918Y-114243263D01*
X172205271Y-114369116D01*
X172414557Y-114455806D01*
X172636735Y-114500000D01*
X172863265Y-114500000D01*
X173085443Y-114455806D01*
X173294729Y-114369116D01*
X173483082Y-114243263D01*
X173643263Y-114083082D01*
X173769116Y-113894729D01*
X173855806Y-113685443D01*
X173900000Y-113463265D01*
X173900000Y-113236735D01*
X174100000Y-113236735D01*
X174100000Y-113463265D01*
X174144194Y-113685443D01*
X174230884Y-113894729D01*
X174356737Y-114083082D01*
X174516918Y-114243263D01*
X174705271Y-114369116D01*
X174914557Y-114455806D01*
X175136735Y-114500000D01*
X175363265Y-114500000D01*
X175585443Y-114455806D01*
X175794729Y-114369116D01*
X175983082Y-114243263D01*
X176143263Y-114083082D01*
X176198776Y-114000000D01*
X184598549Y-114000000D01*
X184598549Y-115500000D01*
X184609145Y-115607583D01*
X184640526Y-115711031D01*
X184691485Y-115806370D01*
X184760065Y-115889935D01*
X184843630Y-115958515D01*
X184938969Y-116009474D01*
X185042417Y-116040855D01*
X185150000Y-116051451D01*
X186350000Y-116051451D01*
X186457583Y-116040855D01*
X186561031Y-116009474D01*
X186656370Y-115958515D01*
X186739935Y-115889935D01*
X186808515Y-115806370D01*
X186859474Y-115711031D01*
X186890855Y-115607583D01*
X186901451Y-115500000D01*
X186901451Y-115426256D01*
X187013672Y-115657623D01*
X187185233Y-115884261D01*
X187397712Y-116073074D01*
X187642944Y-116216807D01*
X187876234Y-116301000D01*
X188100000Y-116191317D01*
X188100000Y-114900000D01*
X188400000Y-114900000D01*
X188400000Y-116191317D01*
X188623766Y-116301000D01*
X188857056Y-116216807D01*
X189102288Y-116073074D01*
X189314767Y-115884261D01*
X189486328Y-115657623D01*
X189610377Y-115401870D01*
X189682148Y-115126830D01*
X189550000Y-114900000D01*
X188400000Y-114900000D01*
X188100000Y-114900000D01*
X188080000Y-114900000D01*
X188080000Y-114600000D01*
X188100000Y-114600000D01*
X188100000Y-113308683D01*
X188400000Y-113308683D01*
X188400000Y-114600000D01*
X189550000Y-114600000D01*
X189682148Y-114373170D01*
X189610377Y-114098130D01*
X189562781Y-114000000D01*
X200598549Y-114000000D01*
X200598549Y-115500000D01*
X200609145Y-115607583D01*
X200640526Y-115711031D01*
X200691485Y-115806370D01*
X200760065Y-115889935D01*
X200843630Y-115958515D01*
X200938969Y-116009474D01*
X201042417Y-116040855D01*
X201150000Y-116051451D01*
X202350000Y-116051451D01*
X202457583Y-116040855D01*
X202561031Y-116009474D01*
X202656370Y-115958515D01*
X202739935Y-115889935D01*
X202808515Y-115806370D01*
X202859474Y-115711031D01*
X202890855Y-115607583D01*
X202901451Y-115500000D01*
X202901451Y-115426256D01*
X203013672Y-115657623D01*
X203185233Y-115884261D01*
X203397712Y-116073074D01*
X203642944Y-116216807D01*
X203876234Y-116301000D01*
X204100000Y-116191317D01*
X204100000Y-114900000D01*
X204400000Y-114900000D01*
X204400000Y-116191317D01*
X204623766Y-116301000D01*
X204857056Y-116216807D01*
X205102288Y-116073074D01*
X205314767Y-115884261D01*
X205486328Y-115657623D01*
X205610377Y-115401870D01*
X205682148Y-115126830D01*
X205550000Y-114900000D01*
X204400000Y-114900000D01*
X204100000Y-114900000D01*
X204080000Y-114900000D01*
X204080000Y-114600000D01*
X204100000Y-114600000D01*
X204100000Y-113308683D01*
X204400000Y-113308683D01*
X204400000Y-114600000D01*
X205550000Y-114600000D01*
X205682148Y-114373170D01*
X205610377Y-114098130D01*
X205486328Y-113842377D01*
X205416401Y-113750000D01*
X246098549Y-113750000D01*
X246098549Y-115250000D01*
X246109145Y-115357583D01*
X246140526Y-115461031D01*
X246191485Y-115556370D01*
X246260065Y-115639935D01*
X246343630Y-115708515D01*
X246438969Y-115759474D01*
X246542417Y-115790855D01*
X246650000Y-115801451D01*
X247850000Y-115801451D01*
X247957583Y-115790855D01*
X248061031Y-115759474D01*
X248156370Y-115708515D01*
X248239935Y-115639935D01*
X248308515Y-115556370D01*
X248359474Y-115461031D01*
X248390855Y-115357583D01*
X248401451Y-115250000D01*
X248401451Y-115176256D01*
X248513672Y-115407623D01*
X248685233Y-115634261D01*
X248897712Y-115823074D01*
X249142944Y-115966807D01*
X249376234Y-116051000D01*
X249600000Y-115941317D01*
X249600000Y-114650000D01*
X249900000Y-114650000D01*
X249900000Y-115941317D01*
X250123766Y-116051000D01*
X250357056Y-115966807D01*
X250602288Y-115823074D01*
X250814767Y-115634261D01*
X250986328Y-115407623D01*
X251110377Y-115151870D01*
X251182148Y-114876830D01*
X251050000Y-114650000D01*
X249900000Y-114650000D01*
X249600000Y-114650000D01*
X249580000Y-114650000D01*
X249580000Y-114350000D01*
X249600000Y-114350000D01*
X249600000Y-113058683D01*
X249900000Y-113058683D01*
X249900000Y-114350000D01*
X251050000Y-114350000D01*
X251182148Y-114123170D01*
X251110377Y-113848130D01*
X250986328Y-113592377D01*
X250814767Y-113365739D01*
X250602288Y-113176926D01*
X250357056Y-113033193D01*
X250123766Y-112949000D01*
X249900000Y-113058683D01*
X249600000Y-113058683D01*
X249376234Y-112949000D01*
X249142944Y-113033193D01*
X248897712Y-113176926D01*
X248685233Y-113365739D01*
X248513672Y-113592377D01*
X248401451Y-113823744D01*
X248401451Y-113750000D01*
X248390855Y-113642417D01*
X248359474Y-113538969D01*
X248308515Y-113443630D01*
X248239935Y-113360065D01*
X248156370Y-113291485D01*
X248061031Y-113240526D01*
X247957583Y-113209145D01*
X247850000Y-113198549D01*
X246650000Y-113198549D01*
X246542417Y-113209145D01*
X246438969Y-113240526D01*
X246343630Y-113291485D01*
X246260065Y-113360065D01*
X246191485Y-113443630D01*
X246140526Y-113538969D01*
X246109145Y-113642417D01*
X246098549Y-113750000D01*
X205416401Y-113750000D01*
X205314767Y-113615739D01*
X205102288Y-113426926D01*
X204857056Y-113283193D01*
X204623766Y-113199000D01*
X204400000Y-113308683D01*
X204100000Y-113308683D01*
X203876234Y-113199000D01*
X203642944Y-113283193D01*
X203397712Y-113426926D01*
X203185233Y-113615739D01*
X203013672Y-113842377D01*
X202901451Y-114073744D01*
X202901451Y-114000000D01*
X202890855Y-113892417D01*
X202859474Y-113788969D01*
X202808515Y-113693630D01*
X202739935Y-113610065D01*
X202656370Y-113541485D01*
X202561031Y-113490526D01*
X202457583Y-113459145D01*
X202350000Y-113448549D01*
X201150000Y-113448549D01*
X201042417Y-113459145D01*
X200938969Y-113490526D01*
X200843630Y-113541485D01*
X200760065Y-113610065D01*
X200691485Y-113693630D01*
X200640526Y-113788969D01*
X200609145Y-113892417D01*
X200598549Y-114000000D01*
X189562781Y-114000000D01*
X189486328Y-113842377D01*
X189314767Y-113615739D01*
X189102288Y-113426926D01*
X188857056Y-113283193D01*
X188623766Y-113199000D01*
X188400000Y-113308683D01*
X188100000Y-113308683D01*
X187876234Y-113199000D01*
X187642944Y-113283193D01*
X187397712Y-113426926D01*
X187185233Y-113615739D01*
X187013672Y-113842377D01*
X186901451Y-114073744D01*
X186901451Y-114000000D01*
X186890855Y-113892417D01*
X186859474Y-113788969D01*
X186808515Y-113693630D01*
X186739935Y-113610065D01*
X186656370Y-113541485D01*
X186561031Y-113490526D01*
X186457583Y-113459145D01*
X186350000Y-113448549D01*
X185150000Y-113448549D01*
X185042417Y-113459145D01*
X184938969Y-113490526D01*
X184843630Y-113541485D01*
X184760065Y-113610065D01*
X184691485Y-113693630D01*
X184640526Y-113788969D01*
X184609145Y-113892417D01*
X184598549Y-114000000D01*
X176198776Y-114000000D01*
X176269116Y-113894729D01*
X176355806Y-113685443D01*
X176400000Y-113463265D01*
X176400000Y-113236735D01*
X176355806Y-113014557D01*
X176269116Y-112805271D01*
X176143263Y-112616918D01*
X175983082Y-112456737D01*
X175794729Y-112330884D01*
X175734993Y-112306140D01*
X178565992Y-112306140D01*
X178756177Y-112634699D01*
X179169607Y-112842931D01*
X179615717Y-112966506D01*
X180077364Y-113000674D01*
X180536806Y-112944123D01*
X180976387Y-112799026D01*
X181283823Y-112634699D01*
X181474008Y-112306140D01*
X180020000Y-110852132D01*
X178565992Y-112306140D01*
X175734993Y-112306140D01*
X175585443Y-112244194D01*
X175363265Y-112200000D01*
X175136735Y-112200000D01*
X174914557Y-112244194D01*
X174705271Y-112330884D01*
X174516918Y-112456737D01*
X174356737Y-112616918D01*
X174230884Y-112805271D01*
X174144194Y-113014557D01*
X174100000Y-113236735D01*
X173900000Y-113236735D01*
X173855806Y-113014557D01*
X173769116Y-112805271D01*
X173643263Y-112616918D01*
X173483082Y-112456737D01*
X173294729Y-112330884D01*
X173085443Y-112244194D01*
X172863265Y-112200000D01*
X172636735Y-112200000D01*
X172414557Y-112244194D01*
X172205271Y-112330884D01*
X172016918Y-112456737D01*
X171856737Y-112616918D01*
X171730884Y-112805271D01*
X171644194Y-113014557D01*
X171600000Y-113236735D01*
X86828950Y-113236735D01*
X87790685Y-112275000D01*
X87801708Y-112275000D01*
X87903137Y-112254824D01*
X87998681Y-112215249D01*
X88084668Y-112157794D01*
X88157794Y-112084668D01*
X88215249Y-111998681D01*
X88254824Y-111903137D01*
X88275000Y-111801708D01*
X88275000Y-111698292D01*
X88254824Y-111596863D01*
X88215249Y-111501319D01*
X88179818Y-111448292D01*
X91975000Y-111448292D01*
X91975000Y-111551708D01*
X91995176Y-111653137D01*
X92034751Y-111748681D01*
X92092206Y-111834668D01*
X92165332Y-111907794D01*
X92251319Y-111965249D01*
X92346863Y-112004824D01*
X92448292Y-112025000D01*
X92551708Y-112025000D01*
X92653137Y-112004824D01*
X92748681Y-111965249D01*
X92834668Y-111907794D01*
X92842462Y-111900000D01*
X108484355Y-111900000D01*
X108825000Y-112240646D01*
X108825000Y-112251668D01*
X108845176Y-112353097D01*
X108884751Y-112448641D01*
X108942206Y-112534628D01*
X109015332Y-112607754D01*
X109101319Y-112665209D01*
X109196863Y-112704784D01*
X109298292Y-112724960D01*
X109401708Y-112724960D01*
X109503137Y-112704784D01*
X109598681Y-112665209D01*
X109684668Y-112607754D01*
X109757794Y-112534628D01*
X109815249Y-112448641D01*
X109854824Y-112353097D01*
X109864164Y-112306140D01*
X166525992Y-112306140D01*
X166716177Y-112634699D01*
X167129607Y-112842931D01*
X167575717Y-112966506D01*
X168037364Y-113000674D01*
X168496806Y-112944123D01*
X168936387Y-112799026D01*
X169243823Y-112634699D01*
X169434008Y-112306140D01*
X167980000Y-110852132D01*
X166525992Y-112306140D01*
X109864164Y-112306140D01*
X109875000Y-112251668D01*
X109875000Y-112148252D01*
X109854824Y-112046823D01*
X109815249Y-111951279D01*
X109757794Y-111865292D01*
X109684668Y-111792166D01*
X109598681Y-111734711D01*
X109503137Y-111695136D01*
X109401708Y-111674960D01*
X109390686Y-111674960D01*
X108946777Y-111231052D01*
X108934251Y-111215789D01*
X108873343Y-111165803D01*
X108803854Y-111128660D01*
X108728454Y-111105788D01*
X108669687Y-111100000D01*
X108669686Y-111100000D01*
X108650040Y-111098065D01*
X108630394Y-111100000D01*
X92842462Y-111100000D01*
X92834668Y-111092206D01*
X92748681Y-111034751D01*
X92653137Y-110995176D01*
X92551708Y-110975000D01*
X92448292Y-110975000D01*
X92346863Y-110995176D01*
X92251319Y-111034751D01*
X92165332Y-111092206D01*
X92092206Y-111165332D01*
X92034751Y-111251319D01*
X91995176Y-111346863D01*
X91975000Y-111448292D01*
X88179818Y-111448292D01*
X88157794Y-111415332D01*
X88084668Y-111342206D01*
X87998681Y-111284751D01*
X87903137Y-111245176D01*
X87801708Y-111225000D01*
X87698292Y-111225000D01*
X87596863Y-111245176D01*
X87501319Y-111284751D01*
X87415332Y-111342206D01*
X87342206Y-111415332D01*
X87284751Y-111501319D01*
X87245176Y-111596863D01*
X87225000Y-111698292D01*
X87225000Y-111709315D01*
X85834315Y-113100000D01*
X79415685Y-113100000D01*
X77296735Y-110981050D01*
X77284211Y-110965789D01*
X77223303Y-110915803D01*
X77153814Y-110878660D01*
X77078414Y-110855788D01*
X77019647Y-110850000D01*
X77019646Y-110850000D01*
X77000000Y-110848065D01*
X76980354Y-110850000D01*
X64415685Y-110850000D01*
X62937646Y-109371961D01*
X67950000Y-109371961D01*
X67950000Y-109628039D01*
X67999958Y-109879196D01*
X68097955Y-110115781D01*
X68240224Y-110328702D01*
X68421298Y-110509776D01*
X68634219Y-110652045D01*
X68870804Y-110750042D01*
X69121961Y-110800000D01*
X69378039Y-110800000D01*
X69629196Y-110750042D01*
X69865781Y-110652045D01*
X70078702Y-110509776D01*
X70259776Y-110328702D01*
X70402045Y-110115781D01*
X70491425Y-109900000D01*
X74508575Y-109900000D01*
X74597955Y-110115781D01*
X74740224Y-110328702D01*
X74921298Y-110509776D01*
X75134219Y-110652045D01*
X75370804Y-110750042D01*
X75621961Y-110800000D01*
X75878039Y-110800000D01*
X76129196Y-110750042D01*
X76256371Y-110697364D01*
X165619326Y-110697364D01*
X165675877Y-111156806D01*
X165820974Y-111596387D01*
X165985301Y-111903823D01*
X166313860Y-112094008D01*
X167767868Y-110640000D01*
X168192132Y-110640000D01*
X169646140Y-112094008D01*
X169974699Y-111903823D01*
X170182931Y-111490393D01*
X170306506Y-111044283D01*
X170340674Y-110582636D01*
X170284123Y-110123194D01*
X170255585Y-110036735D01*
X171600000Y-110036735D01*
X171600000Y-110263265D01*
X171644194Y-110485443D01*
X171730884Y-110694729D01*
X171856737Y-110883082D01*
X172016918Y-111043263D01*
X172205271Y-111169116D01*
X172414557Y-111255806D01*
X172636735Y-111300000D01*
X172863265Y-111300000D01*
X173085443Y-111255806D01*
X173282554Y-111174159D01*
X174437973Y-111174159D01*
X174519491Y-111410655D01*
X174779469Y-111528948D01*
X175057529Y-111594248D01*
X175342986Y-111604046D01*
X175624870Y-111557967D01*
X175892347Y-111457780D01*
X175980509Y-111410655D01*
X176062027Y-111174159D01*
X175250000Y-110362132D01*
X174437973Y-111174159D01*
X173282554Y-111174159D01*
X173294729Y-111169116D01*
X173483082Y-111043263D01*
X173643263Y-110883082D01*
X173769116Y-110694729D01*
X173841309Y-110520441D01*
X173842033Y-110524870D01*
X173942220Y-110792347D01*
X173989345Y-110880509D01*
X174225841Y-110962027D01*
X175037868Y-110150000D01*
X175462132Y-110150000D01*
X176274159Y-110962027D01*
X176510655Y-110880509D01*
X176593988Y-110697364D01*
X177659326Y-110697364D01*
X177715877Y-111156806D01*
X177860974Y-111596387D01*
X178025301Y-111903823D01*
X178353860Y-112094008D01*
X179807868Y-110640000D01*
X180232132Y-110640000D01*
X181686140Y-112094008D01*
X182014699Y-111903823D01*
X182222931Y-111490393D01*
X182346506Y-111044283D01*
X182380674Y-110582636D01*
X182324123Y-110123194D01*
X182179026Y-109683613D01*
X182014699Y-109376177D01*
X181686140Y-109185992D01*
X180232132Y-110640000D01*
X179807868Y-110640000D01*
X178353860Y-109185992D01*
X178025301Y-109376177D01*
X177817069Y-109789607D01*
X177693494Y-110235717D01*
X177659326Y-110697364D01*
X176593988Y-110697364D01*
X176628948Y-110620531D01*
X176694248Y-110342471D01*
X176704046Y-110057014D01*
X176657967Y-109775130D01*
X176557780Y-109507653D01*
X176510655Y-109419491D01*
X176274159Y-109337973D01*
X175462132Y-110150000D01*
X175037868Y-110150000D01*
X174225841Y-109337973D01*
X173989345Y-109419491D01*
X173871052Y-109679469D01*
X173845290Y-109789169D01*
X173769116Y-109605271D01*
X173643263Y-109416918D01*
X173483082Y-109256737D01*
X173294729Y-109130884D01*
X173282555Y-109125841D01*
X174437973Y-109125841D01*
X175250000Y-109937868D01*
X176062027Y-109125841D01*
X176009641Y-108973860D01*
X178565992Y-108973860D01*
X180020000Y-110427868D01*
X181474008Y-108973860D01*
X181283823Y-108645301D01*
X180870393Y-108437069D01*
X180424283Y-108313494D01*
X179962636Y-108279326D01*
X179503194Y-108335877D01*
X179063613Y-108480974D01*
X178756177Y-108645301D01*
X178565992Y-108973860D01*
X176009641Y-108973860D01*
X175980509Y-108889345D01*
X175720531Y-108771052D01*
X175442471Y-108705752D01*
X175157014Y-108695954D01*
X174875130Y-108742033D01*
X174607653Y-108842220D01*
X174519491Y-108889345D01*
X174437973Y-109125841D01*
X173282555Y-109125841D01*
X173085443Y-109044194D01*
X172863265Y-109000000D01*
X172636735Y-109000000D01*
X172414557Y-109044194D01*
X172205271Y-109130884D01*
X172016918Y-109256737D01*
X171856737Y-109416918D01*
X171730884Y-109605271D01*
X171644194Y-109814557D01*
X171600000Y-110036735D01*
X170255585Y-110036735D01*
X170139026Y-109683613D01*
X169974699Y-109376177D01*
X169646140Y-109185992D01*
X168192132Y-110640000D01*
X167767868Y-110640000D01*
X166313860Y-109185992D01*
X165985301Y-109376177D01*
X165777069Y-109789607D01*
X165653494Y-110235717D01*
X165619326Y-110697364D01*
X76256371Y-110697364D01*
X76365781Y-110652045D01*
X76578702Y-110509776D01*
X76759776Y-110328702D01*
X76902045Y-110115781D01*
X77000042Y-109879196D01*
X77050000Y-109628039D01*
X77050000Y-109371961D01*
X77000042Y-109120804D01*
X76928585Y-108948292D01*
X91475000Y-108948292D01*
X91475000Y-109051708D01*
X91495176Y-109153137D01*
X91534751Y-109248681D01*
X91592206Y-109334668D01*
X91665332Y-109407794D01*
X91751319Y-109465249D01*
X91846863Y-109504824D01*
X91948292Y-109525000D01*
X92051708Y-109525000D01*
X92153137Y-109504824D01*
X92248681Y-109465249D01*
X92334668Y-109407794D01*
X92407794Y-109334668D01*
X92465249Y-109248681D01*
X92504824Y-109153137D01*
X92525000Y-109051708D01*
X92525000Y-109040686D01*
X92640685Y-108925001D01*
X151134324Y-108925001D01*
X151250010Y-109040687D01*
X151250010Y-109051710D01*
X151270186Y-109153139D01*
X151309761Y-109248683D01*
X151367216Y-109334670D01*
X151440342Y-109407796D01*
X151526329Y-109465251D01*
X151621873Y-109504826D01*
X151723302Y-109525002D01*
X151826718Y-109525002D01*
X151928147Y-109504826D01*
X152023691Y-109465251D01*
X152109678Y-109407796D01*
X152182804Y-109334670D01*
X152240259Y-109248683D01*
X152279834Y-109153139D01*
X152300010Y-109051710D01*
X152300010Y-108973860D01*
X166525992Y-108973860D01*
X167980000Y-110427868D01*
X169434008Y-108973860D01*
X169243823Y-108645301D01*
X168830393Y-108437069D01*
X168384283Y-108313494D01*
X167922636Y-108279326D01*
X167463194Y-108335877D01*
X167023613Y-108480974D01*
X166716177Y-108645301D01*
X166525992Y-108973860D01*
X152300010Y-108973860D01*
X152300010Y-108948294D01*
X152279834Y-108846865D01*
X152240259Y-108751321D01*
X152182804Y-108665334D01*
X152109678Y-108592208D01*
X152023691Y-108534753D01*
X151928147Y-108495178D01*
X151826718Y-108475002D01*
X151815695Y-108475002D01*
X151664827Y-108324134D01*
X151715243Y-108248681D01*
X151754818Y-108153137D01*
X151774994Y-108051708D01*
X151774994Y-107948292D01*
X151754818Y-107846863D01*
X151715243Y-107751319D01*
X151657788Y-107665332D01*
X151584662Y-107592206D01*
X151498675Y-107534751D01*
X151403131Y-107495176D01*
X151301702Y-107475000D01*
X151198286Y-107475000D01*
X151096857Y-107495176D01*
X151001313Y-107534751D01*
X150915326Y-107592206D01*
X150907532Y-107600000D01*
X92442462Y-107600000D01*
X92434668Y-107592206D01*
X92348681Y-107534751D01*
X92253137Y-107495176D01*
X92151708Y-107475000D01*
X92048292Y-107475000D01*
X91946863Y-107495176D01*
X91851319Y-107534751D01*
X91765332Y-107592206D01*
X91692206Y-107665332D01*
X91634751Y-107751319D01*
X91595176Y-107846863D01*
X91575000Y-107948292D01*
X91575000Y-108051708D01*
X91595176Y-108153137D01*
X91634751Y-108248681D01*
X91692206Y-108334668D01*
X91765332Y-108407794D01*
X91851319Y-108465249D01*
X91898684Y-108484868D01*
X91846863Y-108495176D01*
X91751319Y-108534751D01*
X91665332Y-108592206D01*
X91592206Y-108665332D01*
X91534751Y-108751319D01*
X91495176Y-108846863D01*
X91475000Y-108948292D01*
X76928585Y-108948292D01*
X76902045Y-108884219D01*
X76759776Y-108671298D01*
X76578702Y-108490224D01*
X76365781Y-108347955D01*
X76129196Y-108249958D01*
X75878039Y-108200000D01*
X75621961Y-108200000D01*
X75370804Y-108249958D01*
X75134219Y-108347955D01*
X74921298Y-108490224D01*
X74740224Y-108671298D01*
X74597955Y-108884219D01*
X74508575Y-109100000D01*
X70491425Y-109100000D01*
X70402045Y-108884219D01*
X70259776Y-108671298D01*
X70078702Y-108490224D01*
X69865781Y-108347955D01*
X69629196Y-108249958D01*
X69378039Y-108200000D01*
X69121961Y-108200000D01*
X68870804Y-108249958D01*
X68634219Y-108347955D01*
X68421298Y-108490224D01*
X68240224Y-108671298D01*
X68097955Y-108884219D01*
X67999958Y-109120804D01*
X67950000Y-109371961D01*
X62937646Y-109371961D01*
X62296735Y-108731050D01*
X62284211Y-108715789D01*
X62223303Y-108665803D01*
X62153814Y-108628660D01*
X62078414Y-108605788D01*
X62019647Y-108600000D01*
X62019646Y-108600000D01*
X62000000Y-108598065D01*
X61980354Y-108600000D01*
X60189647Y-108600000D01*
X60170000Y-108598065D01*
X60091586Y-108605788D01*
X60016186Y-108628660D01*
X59946697Y-108665803D01*
X59901049Y-108703265D01*
X59901047Y-108703267D01*
X59885789Y-108715789D01*
X59873267Y-108731047D01*
X59201171Y-109403144D01*
X59157445Y-109379772D01*
X58938105Y-109313236D01*
X58767163Y-109296400D01*
X58652837Y-109296400D01*
X58481895Y-109313236D01*
X58262555Y-109379772D01*
X58060411Y-109487821D01*
X57883230Y-109633230D01*
X57737821Y-109810411D01*
X57629772Y-110012555D01*
X57563236Y-110231895D01*
X57555544Y-110309998D01*
X57475900Y-110309998D01*
X57584509Y-110084094D01*
X57483994Y-109815360D01*
X57332983Y-109571399D01*
X57137279Y-109361586D01*
X56904403Y-109193985D01*
X56643304Y-109075036D01*
X56545905Y-109045497D01*
X56320000Y-109154992D01*
X56320000Y-110310000D01*
X56340000Y-110310000D01*
X56340000Y-110610000D01*
X56320000Y-110610000D01*
X56320000Y-110630000D01*
X56020000Y-110630000D01*
X56020000Y-110610000D01*
X54864101Y-110610000D01*
X54755491Y-110835906D01*
X46825000Y-110835906D01*
X46825000Y-110084094D01*
X54755491Y-110084094D01*
X54864101Y-110310000D01*
X56020000Y-110310000D01*
X56020000Y-109154992D01*
X55794095Y-109045497D01*
X55696696Y-109075036D01*
X55435597Y-109193985D01*
X55202721Y-109361586D01*
X55007017Y-109571399D01*
X54856006Y-109815360D01*
X54755491Y-110084094D01*
X46825000Y-110084094D01*
X46825000Y-104948292D01*
X85475000Y-104948292D01*
X85475000Y-105051708D01*
X85495176Y-105153137D01*
X85534751Y-105248681D01*
X85592206Y-105334668D01*
X85665332Y-105407794D01*
X85751319Y-105465249D01*
X85846863Y-105504824D01*
X85948292Y-105525000D01*
X85959315Y-105525000D01*
X86703263Y-106268948D01*
X86715789Y-106284211D01*
X86765627Y-106325112D01*
X86776697Y-106334197D01*
X86846186Y-106371340D01*
X86921586Y-106394212D01*
X87000000Y-106401935D01*
X87019647Y-106400000D01*
X89157538Y-106400000D01*
X89165332Y-106407794D01*
X89251319Y-106465249D01*
X89346863Y-106504824D01*
X89448292Y-106525000D01*
X89551708Y-106525000D01*
X89653137Y-106504824D01*
X89698124Y-106486190D01*
X88459315Y-107725000D01*
X88448292Y-107725000D01*
X88346863Y-107745176D01*
X88251319Y-107784751D01*
X88165332Y-107842206D01*
X88092206Y-107915332D01*
X88034751Y-108001319D01*
X87995176Y-108096863D01*
X87975000Y-108198292D01*
X87975000Y-108301708D01*
X87995176Y-108403137D01*
X88034751Y-108498681D01*
X88092206Y-108584668D01*
X88165332Y-108657794D01*
X88251319Y-108715249D01*
X88346863Y-108754824D01*
X88448292Y-108775000D01*
X88551708Y-108775000D01*
X88653137Y-108754824D01*
X88748681Y-108715249D01*
X88834668Y-108657794D01*
X88907794Y-108584668D01*
X88965249Y-108498681D01*
X89000000Y-108414783D01*
X89034751Y-108498681D01*
X89092206Y-108584668D01*
X89165332Y-108657794D01*
X89251319Y-108715249D01*
X89346863Y-108754824D01*
X89448292Y-108775000D01*
X89551708Y-108775000D01*
X89653137Y-108754824D01*
X89748681Y-108715249D01*
X89834668Y-108657794D01*
X89875001Y-108617461D01*
X89915334Y-108657794D01*
X90001321Y-108715249D01*
X90096865Y-108754824D01*
X90198294Y-108775000D01*
X90301710Y-108775000D01*
X90403139Y-108754824D01*
X90498683Y-108715249D01*
X90584670Y-108657794D01*
X90657796Y-108584668D01*
X90715251Y-108498681D01*
X90754826Y-108403137D01*
X90775002Y-108301708D01*
X90775002Y-108290685D01*
X91193952Y-107871736D01*
X91209210Y-107859214D01*
X91223169Y-107842206D01*
X91259195Y-107798307D01*
X91284311Y-107751319D01*
X91296339Y-107728817D01*
X91319211Y-107653417D01*
X91324999Y-107594650D01*
X91324999Y-107594640D01*
X91326933Y-107575004D01*
X91324999Y-107555368D01*
X91324999Y-106206587D01*
X92881587Y-104650000D01*
X94979631Y-104650000D01*
X94975000Y-104673282D01*
X94975000Y-104776698D01*
X94995176Y-104878127D01*
X95034751Y-104973671D01*
X95052344Y-105000000D01*
X92919634Y-105000000D01*
X92899998Y-104998066D01*
X92880362Y-105000000D01*
X92880352Y-105000000D01*
X92821585Y-105005788D01*
X92746185Y-105028660D01*
X92676696Y-105065803D01*
X92615788Y-105115789D01*
X92603264Y-105131050D01*
X92459314Y-105275000D01*
X92448291Y-105275000D01*
X92346862Y-105295176D01*
X92251318Y-105334751D01*
X92165331Y-105392206D01*
X92092205Y-105465332D01*
X92034750Y-105551319D01*
X91995175Y-105646863D01*
X91974999Y-105748292D01*
X91974999Y-105851708D01*
X91995175Y-105953137D01*
X92034750Y-106048681D01*
X92092205Y-106134668D01*
X92165331Y-106207794D01*
X92251318Y-106265249D01*
X92346862Y-106304824D01*
X92448291Y-106325000D01*
X92551707Y-106325000D01*
X92653136Y-106304824D01*
X92748680Y-106265249D01*
X92834667Y-106207794D01*
X92907793Y-106134668D01*
X92965248Y-106048681D01*
X93004823Y-105953137D01*
X93024999Y-105851708D01*
X93024999Y-105840685D01*
X93065684Y-105800000D01*
X95734306Y-105800000D01*
X95459307Y-106075000D01*
X95448284Y-106075000D01*
X95346855Y-106095176D01*
X95251311Y-106134751D01*
X95165324Y-106192206D01*
X95092198Y-106265332D01*
X95034743Y-106351319D01*
X94995168Y-106446863D01*
X94974992Y-106548292D01*
X94974992Y-106651708D01*
X94995168Y-106753137D01*
X95034743Y-106848681D01*
X95092198Y-106934668D01*
X95165324Y-107007794D01*
X95251311Y-107065249D01*
X95346855Y-107104824D01*
X95448284Y-107125000D01*
X95551700Y-107125000D01*
X95653129Y-107104824D01*
X95748673Y-107065249D01*
X95834660Y-107007794D01*
X95907786Y-106934668D01*
X95965241Y-106848681D01*
X96004816Y-106753137D01*
X96024992Y-106651708D01*
X96024992Y-106640685D01*
X96265678Y-106400000D01*
X110762249Y-106400000D01*
X110718287Y-106465793D01*
X110673058Y-106574986D01*
X110650000Y-106690905D01*
X110650000Y-106809095D01*
X110673058Y-106925014D01*
X110718287Y-107034207D01*
X110783950Y-107132478D01*
X110867522Y-107216050D01*
X110965793Y-107281713D01*
X111074986Y-107326942D01*
X111190905Y-107350000D01*
X111309095Y-107350000D01*
X111425014Y-107326942D01*
X111490102Y-107299982D01*
X114759942Y-107299982D01*
X114824986Y-107326924D01*
X114940905Y-107349982D01*
X115059095Y-107349982D01*
X115175014Y-107326924D01*
X115284207Y-107281695D01*
X115382478Y-107216032D01*
X115466050Y-107132460D01*
X115531713Y-107034189D01*
X115576942Y-106924996D01*
X115600000Y-106809077D01*
X115600000Y-106690887D01*
X115576942Y-106574968D01*
X115531713Y-106465775D01*
X115466050Y-106367504D01*
X115382478Y-106283932D01*
X115284207Y-106218269D01*
X115175014Y-106173040D01*
X115059095Y-106149982D01*
X114940905Y-106149982D01*
X114824986Y-106173040D01*
X114759942Y-106199982D01*
X112485430Y-106199982D01*
X112504834Y-106153137D01*
X112525010Y-106051708D01*
X112525010Y-105948292D01*
X112504834Y-105846863D01*
X112472716Y-105769323D01*
X113601841Y-105769323D01*
X113640322Y-105807804D01*
X113726309Y-105865259D01*
X113821853Y-105904834D01*
X113923282Y-105925010D01*
X114026698Y-105925010D01*
X114128127Y-105904834D01*
X114223671Y-105865259D01*
X114309658Y-105807804D01*
X114382784Y-105734678D01*
X114440239Y-105648691D01*
X114479814Y-105553147D01*
X114499990Y-105451718D01*
X114499990Y-105348302D01*
X114479814Y-105246873D01*
X114440239Y-105151329D01*
X114382784Y-105065342D01*
X114309658Y-104992216D01*
X114223671Y-104934761D01*
X114128127Y-104895186D01*
X114026698Y-104875010D01*
X113923282Y-104875010D01*
X113821853Y-104895186D01*
X113815857Y-104897669D01*
X113825000Y-104851708D01*
X113825000Y-104748292D01*
X113804824Y-104646863D01*
X113785408Y-104599989D01*
X162870456Y-104599989D01*
X162702638Y-104669502D01*
X162530664Y-104784411D01*
X162384411Y-104930664D01*
X162269502Y-105102638D01*
X162190350Y-105293726D01*
X162150000Y-105496584D01*
X162150000Y-105703416D01*
X162190350Y-105906274D01*
X162269502Y-106097362D01*
X162384411Y-106269336D01*
X162530664Y-106415589D01*
X162702638Y-106530498D01*
X162893726Y-106609650D01*
X163096584Y-106650000D01*
X163303416Y-106650000D01*
X163506274Y-106609650D01*
X163697362Y-106530498D01*
X163869336Y-106415589D01*
X164015589Y-106269336D01*
X164130498Y-106097362D01*
X164209650Y-105906274D01*
X164250000Y-105703416D01*
X164250000Y-105496584D01*
X165550000Y-105496584D01*
X165550000Y-105703416D01*
X165590350Y-105906274D01*
X165669502Y-106097362D01*
X165784411Y-106269336D01*
X165930664Y-106415589D01*
X166102638Y-106530498D01*
X166293726Y-106609650D01*
X166496584Y-106650000D01*
X166703416Y-106650000D01*
X166906274Y-106609650D01*
X167097362Y-106530498D01*
X167269336Y-106415589D01*
X167415589Y-106269336D01*
X167530498Y-106097362D01*
X167609650Y-105906274D01*
X167650000Y-105703416D01*
X167650000Y-105496584D01*
X167609650Y-105293726D01*
X167530498Y-105102638D01*
X167415589Y-104930664D01*
X167269336Y-104784411D01*
X167097362Y-104669502D01*
X166906274Y-104590350D01*
X166703416Y-104550000D01*
X166496584Y-104550000D01*
X166293726Y-104590350D01*
X166102638Y-104669502D01*
X165930664Y-104784411D01*
X165784411Y-104930664D01*
X165669502Y-105102638D01*
X165590350Y-105293726D01*
X165550000Y-105496584D01*
X164250000Y-105496584D01*
X164209650Y-105293726D01*
X164130498Y-105102638D01*
X164015589Y-104930664D01*
X163869336Y-104784411D01*
X163697362Y-104669502D01*
X163529544Y-104599989D01*
X164080365Y-104599989D01*
X164100011Y-104601924D01*
X164119657Y-104599989D01*
X164119658Y-104599989D01*
X164178425Y-104594201D01*
X164253825Y-104571329D01*
X164323314Y-104534186D01*
X164384222Y-104484200D01*
X164396748Y-104468937D01*
X164540685Y-104325000D01*
X164551708Y-104325000D01*
X164653137Y-104304824D01*
X164748681Y-104265249D01*
X164834668Y-104207794D01*
X164907794Y-104134668D01*
X164965249Y-104048681D01*
X165004824Y-103953137D01*
X165025000Y-103851708D01*
X165025000Y-103748292D01*
X165004824Y-103646863D01*
X164965249Y-103551319D01*
X164907794Y-103465332D01*
X164834668Y-103392206D01*
X164748681Y-103334751D01*
X164653137Y-103295176D01*
X164551708Y-103275000D01*
X164448292Y-103275000D01*
X164346863Y-103295176D01*
X164251319Y-103334751D01*
X164165332Y-103392206D01*
X164092206Y-103465332D01*
X164034751Y-103551319D01*
X163995176Y-103646863D01*
X163975000Y-103748292D01*
X163975000Y-103759315D01*
X163934326Y-103799989D01*
X163265696Y-103799989D01*
X165018953Y-102046733D01*
X165034211Y-102034211D01*
X165084197Y-101973303D01*
X165121340Y-101903814D01*
X165144212Y-101828414D01*
X165150000Y-101769647D01*
X165150000Y-101769637D01*
X165151934Y-101750001D01*
X165150000Y-101730365D01*
X165150000Y-99642462D01*
X165157794Y-99634668D01*
X165215249Y-99548681D01*
X165254824Y-99453137D01*
X165275000Y-99351708D01*
X165275000Y-99248292D01*
X165254824Y-99146863D01*
X165215249Y-99051319D01*
X165157794Y-98965332D01*
X165084668Y-98892206D01*
X164998681Y-98834751D01*
X164903137Y-98795176D01*
X164801708Y-98775000D01*
X164698292Y-98775000D01*
X164596863Y-98795176D01*
X164501319Y-98834751D01*
X164415332Y-98892206D01*
X164342206Y-98965332D01*
X164284751Y-99051319D01*
X164245176Y-99146863D01*
X164225000Y-99248292D01*
X164225000Y-99351708D01*
X164245176Y-99453137D01*
X164284751Y-99548681D01*
X164342206Y-99634668D01*
X164350000Y-99642462D01*
X164350001Y-101584313D01*
X162584315Y-103350000D01*
X160715685Y-103350000D01*
X162768949Y-101296736D01*
X162784211Y-101284211D01*
X162834197Y-101223303D01*
X162871340Y-101153814D01*
X162894212Y-101078414D01*
X162900000Y-101019647D01*
X162900000Y-101019646D01*
X162901935Y-101000000D01*
X162900000Y-100980353D01*
X162900000Y-99642462D01*
X162907794Y-99634668D01*
X162965249Y-99548681D01*
X163004824Y-99453137D01*
X163025000Y-99351708D01*
X163025000Y-99248292D01*
X163004824Y-99146863D01*
X162965249Y-99051319D01*
X162907794Y-98965332D01*
X162834668Y-98892206D01*
X162748681Y-98834751D01*
X162653137Y-98795176D01*
X162551708Y-98775000D01*
X162448292Y-98775000D01*
X162346863Y-98795176D01*
X162251319Y-98834751D01*
X162165332Y-98892206D01*
X162092206Y-98965332D01*
X162034751Y-99051319D01*
X161995176Y-99146863D01*
X161975000Y-99248292D01*
X161975000Y-99351708D01*
X161995176Y-99453137D01*
X162034751Y-99548681D01*
X162092206Y-99634668D01*
X162100001Y-99642463D01*
X162100000Y-100834315D01*
X160084315Y-102850000D01*
X92276397Y-102850000D01*
X92256750Y-102848065D01*
X92237103Y-102850000D01*
X92178336Y-102855788D01*
X92102936Y-102878660D01*
X92033447Y-102915803D01*
X91972539Y-102965789D01*
X91960015Y-102981050D01*
X89831037Y-105110028D01*
X89815779Y-105122550D01*
X89803257Y-105137808D01*
X89803254Y-105137811D01*
X89765792Y-105183459D01*
X89728650Y-105252947D01*
X89705777Y-105328348D01*
X89698054Y-105406761D01*
X89699990Y-105426417D01*
X89699990Y-105514583D01*
X89653137Y-105495176D01*
X89551708Y-105475000D01*
X89448292Y-105475000D01*
X89346863Y-105495176D01*
X89251319Y-105534751D01*
X89165332Y-105592206D01*
X89157538Y-105600000D01*
X87165685Y-105600000D01*
X86525000Y-104959315D01*
X86525000Y-104948292D01*
X86504824Y-104846863D01*
X86465249Y-104751319D01*
X86407794Y-104665332D01*
X86334668Y-104592206D01*
X86248681Y-104534751D01*
X86153137Y-104495176D01*
X86051708Y-104475000D01*
X85948292Y-104475000D01*
X85846863Y-104495176D01*
X85751319Y-104534751D01*
X85665332Y-104592206D01*
X85592206Y-104665332D01*
X85534751Y-104751319D01*
X85495176Y-104846863D01*
X85475000Y-104948292D01*
X46825000Y-104948292D01*
X46825000Y-97488045D01*
X67724087Y-97488045D01*
X67884169Y-97791005D01*
X68255017Y-97974280D01*
X68654494Y-98081683D01*
X69067249Y-98109090D01*
X69477420Y-98055445D01*
X69869244Y-97922810D01*
X70115831Y-97791005D01*
X70275913Y-97488045D01*
X69000000Y-96212132D01*
X67724087Y-97488045D01*
X46825000Y-97488045D01*
X46825000Y-96067249D01*
X66890910Y-96067249D01*
X66944555Y-96477420D01*
X67077190Y-96869244D01*
X67208995Y-97115831D01*
X67511955Y-97275913D01*
X68787868Y-96000000D01*
X69212132Y-96000000D01*
X70488045Y-97275913D01*
X70791005Y-97115831D01*
X70974280Y-96744983D01*
X71081683Y-96345506D01*
X71109090Y-95932751D01*
X71082114Y-95726486D01*
X88948206Y-95726486D01*
X88948206Y-95829902D01*
X88968382Y-95931331D01*
X89007957Y-96026875D01*
X89065412Y-96112862D01*
X89138538Y-96185988D01*
X89224525Y-96243443D01*
X89320069Y-96283018D01*
X89421498Y-96303194D01*
X89524914Y-96303194D01*
X89626343Y-96283018D01*
X89721887Y-96243443D01*
X89807874Y-96185988D01*
X89815668Y-96178194D01*
X93612509Y-96178194D01*
X96203267Y-98768953D01*
X96215789Y-98784211D01*
X96231047Y-98796733D01*
X96231049Y-98796735D01*
X96276697Y-98834197D01*
X96346186Y-98871340D01*
X96421586Y-98894212D01*
X96460707Y-98898065D01*
X96500000Y-98901935D01*
X96519646Y-98900000D01*
X103480354Y-98900000D01*
X103500000Y-98901935D01*
X103519646Y-98900000D01*
X103519647Y-98900000D01*
X103578414Y-98894212D01*
X103653814Y-98871340D01*
X103723303Y-98834197D01*
X103784211Y-98784211D01*
X103796737Y-98768948D01*
X104124780Y-98440905D01*
X167650008Y-98440905D01*
X167650008Y-98559095D01*
X167673066Y-98675014D01*
X167718295Y-98784207D01*
X167783958Y-98882478D01*
X167867530Y-98966050D01*
X167965801Y-99031713D01*
X168074994Y-99076942D01*
X168190913Y-99100000D01*
X168309103Y-99100000D01*
X168425022Y-99076942D01*
X168490066Y-99050000D01*
X185372183Y-99050000D01*
X185727203Y-99405021D01*
X185751901Y-99529182D01*
X185804668Y-99656574D01*
X185881274Y-99771224D01*
X185978776Y-99868726D01*
X186093426Y-99945332D01*
X186220818Y-99998099D01*
X186356056Y-100025000D01*
X186493944Y-100025000D01*
X186629182Y-99998099D01*
X186756574Y-99945332D01*
X186871224Y-99868726D01*
X186968726Y-99771224D01*
X187045332Y-99656574D01*
X187098099Y-99529182D01*
X187125000Y-99393944D01*
X187125000Y-99256056D01*
X187098099Y-99120818D01*
X187045332Y-98993426D01*
X186968726Y-98878776D01*
X186871224Y-98781274D01*
X186756574Y-98704668D01*
X186629182Y-98651901D01*
X186505021Y-98627203D01*
X186008013Y-98130196D01*
X185990790Y-98109210D01*
X185907042Y-98040479D01*
X185811494Y-97989408D01*
X185707819Y-97957958D01*
X185627018Y-97950000D01*
X185627008Y-97950000D01*
X185600000Y-97947340D01*
X185572992Y-97950000D01*
X168490066Y-97950000D01*
X168425022Y-97923058D01*
X168309103Y-97900000D01*
X168190913Y-97900000D01*
X168074994Y-97923058D01*
X167965801Y-97968287D01*
X167867530Y-98033950D01*
X167783958Y-98117522D01*
X167718295Y-98215793D01*
X167673066Y-98324986D01*
X167650008Y-98440905D01*
X104124780Y-98440905D01*
X105041376Y-97524309D01*
X105147380Y-97595139D01*
X105474959Y-97730827D01*
X105822716Y-97800000D01*
X106177284Y-97800000D01*
X106525041Y-97730827D01*
X106852620Y-97595139D01*
X107147433Y-97398151D01*
X107398151Y-97147433D01*
X107595139Y-96852620D01*
X107730827Y-96525041D01*
X107800000Y-96177284D01*
X107800000Y-95822716D01*
X108450000Y-95822716D01*
X108450000Y-96177284D01*
X108519173Y-96525041D01*
X108654861Y-96852620D01*
X108851849Y-97147433D01*
X109102567Y-97398151D01*
X109397380Y-97595139D01*
X109724959Y-97730827D01*
X110072716Y-97800000D01*
X110427284Y-97800000D01*
X110775041Y-97730827D01*
X111102620Y-97595139D01*
X111397433Y-97398151D01*
X111648151Y-97147433D01*
X111845139Y-96852620D01*
X111980827Y-96525041D01*
X112050000Y-96177284D01*
X112050000Y-95822716D01*
X112700000Y-95822716D01*
X112700000Y-96177284D01*
X112769173Y-96525041D01*
X112904861Y-96852620D01*
X113101849Y-97147433D01*
X113352567Y-97398151D01*
X113647380Y-97595139D01*
X113974959Y-97730827D01*
X114322716Y-97800000D01*
X114677284Y-97800000D01*
X115025041Y-97730827D01*
X115352620Y-97595139D01*
X115647433Y-97398151D01*
X115898151Y-97147433D01*
X116095139Y-96852620D01*
X116230827Y-96525041D01*
X116300000Y-96177284D01*
X116300000Y-95822716D01*
X116950000Y-95822716D01*
X116950000Y-96177284D01*
X117019173Y-96525041D01*
X117154861Y-96852620D01*
X117351849Y-97147433D01*
X117602567Y-97398151D01*
X117897380Y-97595139D01*
X118224959Y-97730827D01*
X118572716Y-97800000D01*
X118927284Y-97800000D01*
X119275041Y-97730827D01*
X119602620Y-97595139D01*
X119897433Y-97398151D01*
X120148151Y-97147433D01*
X120345139Y-96852620D01*
X120480827Y-96525041D01*
X120550000Y-96177284D01*
X120550000Y-95822716D01*
X143200000Y-95822716D01*
X143200000Y-96177284D01*
X143269173Y-96525041D01*
X143404861Y-96852620D01*
X143601849Y-97147433D01*
X143852567Y-97398151D01*
X144147380Y-97595139D01*
X144474959Y-97730827D01*
X144822716Y-97800000D01*
X145177284Y-97800000D01*
X145525041Y-97730827D01*
X145852620Y-97595139D01*
X146147433Y-97398151D01*
X146398151Y-97147433D01*
X146595139Y-96852620D01*
X146730827Y-96525041D01*
X146800000Y-96177284D01*
X146800000Y-95822716D01*
X153700000Y-95822716D01*
X153700000Y-96177284D01*
X153769173Y-96525041D01*
X153904861Y-96852620D01*
X154101849Y-97147433D01*
X154352567Y-97398151D01*
X154647380Y-97595139D01*
X154974959Y-97730827D01*
X155322716Y-97800000D01*
X155677284Y-97800000D01*
X156025041Y-97730827D01*
X156352620Y-97595139D01*
X156647433Y-97398151D01*
X156898151Y-97147433D01*
X157095139Y-96852620D01*
X157230827Y-96525041D01*
X157300000Y-96177284D01*
X157300000Y-95822716D01*
X157250273Y-95572716D01*
X180700000Y-95572716D01*
X180700000Y-95927284D01*
X180769173Y-96275041D01*
X180904861Y-96602620D01*
X181101849Y-96897433D01*
X181352567Y-97148151D01*
X181647380Y-97345139D01*
X181974959Y-97480827D01*
X182322716Y-97550000D01*
X182677284Y-97550000D01*
X183025041Y-97480827D01*
X183352620Y-97345139D01*
X183647433Y-97148151D01*
X183898151Y-96897433D01*
X184095139Y-96602620D01*
X184230827Y-96275041D01*
X184300000Y-95927284D01*
X184300000Y-95572716D01*
X192450000Y-95572716D01*
X192450000Y-95927284D01*
X192519173Y-96275041D01*
X192654861Y-96602620D01*
X192851849Y-96897433D01*
X193102567Y-97148151D01*
X193397380Y-97345139D01*
X193724959Y-97480827D01*
X194072716Y-97550000D01*
X194427284Y-97550000D01*
X194775041Y-97480827D01*
X195102620Y-97345139D01*
X195262897Y-97238045D01*
X198224087Y-97238045D01*
X198384169Y-97541005D01*
X198755017Y-97724280D01*
X199154494Y-97831683D01*
X199567249Y-97859090D01*
X199977420Y-97805445D01*
X200369244Y-97672810D01*
X200615831Y-97541005D01*
X200775913Y-97238045D01*
X199500000Y-95962132D01*
X198224087Y-97238045D01*
X195262897Y-97238045D01*
X195397433Y-97148151D01*
X195648151Y-96897433D01*
X195845139Y-96602620D01*
X195980827Y-96275041D01*
X196050000Y-95927284D01*
X196050000Y-95817249D01*
X197390910Y-95817249D01*
X197444555Y-96227420D01*
X197577190Y-96619244D01*
X197708995Y-96865831D01*
X198011955Y-97025913D01*
X199287868Y-95750000D01*
X199712132Y-95750000D01*
X200988045Y-97025913D01*
X201291005Y-96865831D01*
X201474280Y-96494983D01*
X201581683Y-96095506D01*
X201609090Y-95682751D01*
X201594699Y-95572716D01*
X203450000Y-95572716D01*
X203450000Y-95927284D01*
X203519173Y-96275041D01*
X203654861Y-96602620D01*
X203851849Y-96897433D01*
X204102567Y-97148151D01*
X204397380Y-97345139D01*
X204724959Y-97480827D01*
X205072716Y-97550000D01*
X205427284Y-97550000D01*
X205775041Y-97480827D01*
X206102620Y-97345139D01*
X206397433Y-97148151D01*
X206648151Y-96897433D01*
X206845139Y-96602620D01*
X206980827Y-96275041D01*
X207050000Y-95927284D01*
X207050000Y-95572716D01*
X230950000Y-95572716D01*
X230950000Y-95927284D01*
X231019173Y-96275041D01*
X231154861Y-96602620D01*
X231351849Y-96897433D01*
X231602567Y-97148151D01*
X231897380Y-97345139D01*
X232224959Y-97480827D01*
X232572716Y-97550000D01*
X232927284Y-97550000D01*
X233275041Y-97480827D01*
X233602620Y-97345139D01*
X233897433Y-97148151D01*
X234148151Y-96897433D01*
X234345139Y-96602620D01*
X234480827Y-96275041D01*
X234550000Y-95927284D01*
X234550000Y-95572716D01*
X234480827Y-95224959D01*
X234345139Y-94897380D01*
X234148151Y-94602567D01*
X233897433Y-94351849D01*
X233602620Y-94154861D01*
X233275041Y-94019173D01*
X232927284Y-93950000D01*
X232572716Y-93950000D01*
X232224959Y-94019173D01*
X231897380Y-94154861D01*
X231602567Y-94351849D01*
X231351849Y-94602567D01*
X231154861Y-94897380D01*
X231019173Y-95224959D01*
X230950000Y-95572716D01*
X207050000Y-95572716D01*
X206980827Y-95224959D01*
X206845139Y-94897380D01*
X206648151Y-94602567D01*
X206397433Y-94351849D01*
X206102620Y-94154861D01*
X205775041Y-94019173D01*
X205427284Y-93950000D01*
X205072716Y-93950000D01*
X204724959Y-94019173D01*
X204397380Y-94154861D01*
X204102567Y-94351849D01*
X203851849Y-94602567D01*
X203654861Y-94897380D01*
X203519173Y-95224959D01*
X203450000Y-95572716D01*
X201594699Y-95572716D01*
X201555445Y-95272580D01*
X201422810Y-94880756D01*
X201291005Y-94634169D01*
X200988045Y-94474087D01*
X199712132Y-95750000D01*
X199287868Y-95750000D01*
X198011955Y-94474087D01*
X197708995Y-94634169D01*
X197525720Y-95005017D01*
X197418317Y-95404494D01*
X197390910Y-95817249D01*
X196050000Y-95817249D01*
X196050000Y-95572716D01*
X195980827Y-95224959D01*
X195845139Y-94897380D01*
X195648151Y-94602567D01*
X195397433Y-94351849D01*
X195262898Y-94261955D01*
X198224087Y-94261955D01*
X199500000Y-95537868D01*
X200775913Y-94261955D01*
X200615831Y-93958995D01*
X200244983Y-93775720D01*
X199845506Y-93668317D01*
X199432751Y-93640910D01*
X199022580Y-93694555D01*
X198630756Y-93827190D01*
X198384169Y-93958995D01*
X198224087Y-94261955D01*
X195262898Y-94261955D01*
X195102620Y-94154861D01*
X194775041Y-94019173D01*
X194427284Y-93950000D01*
X194072716Y-93950000D01*
X193724959Y-94019173D01*
X193397380Y-94154861D01*
X193102567Y-94351849D01*
X192851849Y-94602567D01*
X192654861Y-94897380D01*
X192519173Y-95224959D01*
X192450000Y-95572716D01*
X184300000Y-95572716D01*
X184230827Y-95224959D01*
X184095139Y-94897380D01*
X183898151Y-94602567D01*
X183647433Y-94351849D01*
X183352620Y-94154861D01*
X183025041Y-94019173D01*
X182677284Y-93950000D01*
X182322716Y-93950000D01*
X181974959Y-94019173D01*
X181647380Y-94154861D01*
X181352567Y-94351849D01*
X181101849Y-94602567D01*
X180904861Y-94897380D01*
X180769173Y-95224959D01*
X180700000Y-95572716D01*
X157250273Y-95572716D01*
X157230827Y-95474959D01*
X157095139Y-95147380D01*
X156898151Y-94852567D01*
X156647433Y-94601849D01*
X156352620Y-94404861D01*
X156025041Y-94269173D01*
X155677284Y-94200000D01*
X155322716Y-94200000D01*
X154974959Y-94269173D01*
X154647380Y-94404861D01*
X154352567Y-94601849D01*
X154101849Y-94852567D01*
X153904861Y-95147380D01*
X153769173Y-95474959D01*
X153700000Y-95822716D01*
X146800000Y-95822716D01*
X146730827Y-95474959D01*
X146595139Y-95147380D01*
X146398151Y-94852567D01*
X146147433Y-94601849D01*
X145852620Y-94404861D01*
X145525041Y-94269173D01*
X145177284Y-94200000D01*
X144822716Y-94200000D01*
X144474959Y-94269173D01*
X144147380Y-94404861D01*
X143852567Y-94601849D01*
X143601849Y-94852567D01*
X143404861Y-95147380D01*
X143269173Y-95474959D01*
X143200000Y-95822716D01*
X120550000Y-95822716D01*
X120480827Y-95474959D01*
X120345139Y-95147380D01*
X120148151Y-94852567D01*
X119897433Y-94601849D01*
X119602620Y-94404861D01*
X119275041Y-94269173D01*
X118927284Y-94200000D01*
X118572716Y-94200000D01*
X118224959Y-94269173D01*
X117897380Y-94404861D01*
X117602567Y-94601849D01*
X117351849Y-94852567D01*
X117154861Y-95147380D01*
X117019173Y-95474959D01*
X116950000Y-95822716D01*
X116300000Y-95822716D01*
X116230827Y-95474959D01*
X116095139Y-95147380D01*
X115898151Y-94852567D01*
X115647433Y-94601849D01*
X115352620Y-94404861D01*
X115025041Y-94269173D01*
X114677284Y-94200000D01*
X114322716Y-94200000D01*
X113974959Y-94269173D01*
X113647380Y-94404861D01*
X113352567Y-94601849D01*
X113101849Y-94852567D01*
X112904861Y-95147380D01*
X112769173Y-95474959D01*
X112700000Y-95822716D01*
X112050000Y-95822716D01*
X111980827Y-95474959D01*
X111845139Y-95147380D01*
X111648151Y-94852567D01*
X111397433Y-94601849D01*
X111102620Y-94404861D01*
X110775041Y-94269173D01*
X110427284Y-94200000D01*
X110072716Y-94200000D01*
X109724959Y-94269173D01*
X109397380Y-94404861D01*
X109102567Y-94601849D01*
X108851849Y-94852567D01*
X108654861Y-95147380D01*
X108519173Y-95474959D01*
X108450000Y-95822716D01*
X107800000Y-95822716D01*
X107730827Y-95474959D01*
X107595139Y-95147380D01*
X107398151Y-94852567D01*
X107147433Y-94601849D01*
X106852620Y-94404861D01*
X106525041Y-94269173D01*
X106177284Y-94200000D01*
X105822716Y-94200000D01*
X105474959Y-94269173D01*
X105147380Y-94404861D01*
X104852567Y-94601849D01*
X104601849Y-94852567D01*
X104404861Y-95147380D01*
X104269173Y-95474959D01*
X104200000Y-95822716D01*
X104200000Y-96177284D01*
X104269173Y-96525041D01*
X104404861Y-96852620D01*
X104475691Y-96958624D01*
X103334315Y-98100000D01*
X96665686Y-98100000D01*
X94388402Y-95822716D01*
X95700000Y-95822716D01*
X95700000Y-96177284D01*
X95769173Y-96525041D01*
X95904861Y-96852620D01*
X96101849Y-97147433D01*
X96352567Y-97398151D01*
X96647380Y-97595139D01*
X96974959Y-97730827D01*
X97322716Y-97800000D01*
X97677284Y-97800000D01*
X98025041Y-97730827D01*
X98352620Y-97595139D01*
X98647433Y-97398151D01*
X98898151Y-97147433D01*
X99095139Y-96852620D01*
X99230827Y-96525041D01*
X99300000Y-96177284D01*
X99300000Y-95822716D01*
X99950000Y-95822716D01*
X99950000Y-96177284D01*
X100019173Y-96525041D01*
X100154861Y-96852620D01*
X100351849Y-97147433D01*
X100602567Y-97398151D01*
X100897380Y-97595139D01*
X101224959Y-97730827D01*
X101572716Y-97800000D01*
X101927284Y-97800000D01*
X102275041Y-97730827D01*
X102602620Y-97595139D01*
X102897433Y-97398151D01*
X103148151Y-97147433D01*
X103345139Y-96852620D01*
X103480827Y-96525041D01*
X103550000Y-96177284D01*
X103550000Y-95822716D01*
X103480827Y-95474959D01*
X103345139Y-95147380D01*
X103148151Y-94852567D01*
X102897433Y-94601849D01*
X102602620Y-94404861D01*
X102275041Y-94269173D01*
X101927284Y-94200000D01*
X101572716Y-94200000D01*
X101224959Y-94269173D01*
X100897380Y-94404861D01*
X100602567Y-94601849D01*
X100351849Y-94852567D01*
X100154861Y-95147380D01*
X100019173Y-95474959D01*
X99950000Y-95822716D01*
X99300000Y-95822716D01*
X99230827Y-95474959D01*
X99095139Y-95147380D01*
X98898151Y-94852567D01*
X98647433Y-94601849D01*
X98352620Y-94404861D01*
X98025041Y-94269173D01*
X97677284Y-94200000D01*
X97322716Y-94200000D01*
X96974959Y-94269173D01*
X96647380Y-94404861D01*
X96352567Y-94601849D01*
X96101849Y-94852567D01*
X95904861Y-95147380D01*
X95769173Y-95474959D01*
X95700000Y-95822716D01*
X94388402Y-95822716D01*
X94074931Y-95509246D01*
X94062405Y-95493983D01*
X94001497Y-95443997D01*
X93932008Y-95406854D01*
X93856608Y-95383982D01*
X93797841Y-95378194D01*
X93797840Y-95378194D01*
X93778194Y-95376259D01*
X93758548Y-95378194D01*
X89815668Y-95378194D01*
X89807874Y-95370400D01*
X89721887Y-95312945D01*
X89626343Y-95273370D01*
X89524914Y-95253194D01*
X89421498Y-95253194D01*
X89320069Y-95273370D01*
X89224525Y-95312945D01*
X89138538Y-95370400D01*
X89065412Y-95443526D01*
X89007957Y-95529513D01*
X88968382Y-95625057D01*
X88948206Y-95726486D01*
X71082114Y-95726486D01*
X71055445Y-95522580D01*
X70922810Y-95130756D01*
X70791005Y-94884169D01*
X70488045Y-94724087D01*
X69212132Y-96000000D01*
X68787868Y-96000000D01*
X67511955Y-94724087D01*
X67208995Y-94884169D01*
X67025720Y-95255017D01*
X66918317Y-95654494D01*
X66890910Y-96067249D01*
X46825000Y-96067249D01*
X46825000Y-94511955D01*
X67724087Y-94511955D01*
X69000000Y-95787868D01*
X70275913Y-94511955D01*
X70115831Y-94208995D01*
X69744983Y-94025720D01*
X69345506Y-93918317D01*
X68932751Y-93890910D01*
X68522580Y-93944555D01*
X68130756Y-94077190D01*
X67884169Y-94208995D01*
X67724087Y-94511955D01*
X46825000Y-94511955D01*
X46825000Y-93325000D01*
X259175000Y-93325000D01*
X259175001Y-117675000D01*
M02*
