G04 #@! TF.GenerationSoftware,KiCad,Pcbnew,(5.1.4)-1*
G04 #@! TF.CreationDate,2019-11-12T21:59:56+01:00*
G04 #@! TF.ProjectId,Controller,436f6e74-726f-46c6-9c65-722e6b696361,rev?*
G04 #@! TF.SameCoordinates,Original*
G04 #@! TF.FileFunction,Soldermask,Bot*
G04 #@! TF.FilePolarity,Negative*
%FSLAX46Y46*%
G04 Gerber Fmt 4.6, Leading zero omitted, Abs format (unit mm)*
G04 Created by KiCad (PCBNEW (5.1.4)-1) date 2019-11-12 21:59:56*
%MOMM*%
%LPD*%
G04 APERTURE LIST*
%ADD10C,0.100000*%
G04 APERTURE END LIST*
D10*
G36*
X237857637Y-113203735D02*
G01*
X237902678Y-113217398D01*
X237944182Y-113239582D01*
X237980562Y-113269438D01*
X238010418Y-113305818D01*
X238032602Y-113347322D01*
X238046265Y-113392363D01*
X238051000Y-113440432D01*
X238051000Y-117059568D01*
X238046265Y-117107637D01*
X238032602Y-117152678D01*
X238010418Y-117194182D01*
X237980562Y-117230562D01*
X237944182Y-117260418D01*
X237902678Y-117282602D01*
X237857637Y-117296265D01*
X237809568Y-117301000D01*
X235690432Y-117301000D01*
X235642363Y-117296265D01*
X235597322Y-117282602D01*
X235555818Y-117260418D01*
X235519438Y-117230562D01*
X235489582Y-117194182D01*
X235467398Y-117152678D01*
X235453735Y-117107637D01*
X235449000Y-117059568D01*
X235449000Y-113440432D01*
X235453735Y-113392363D01*
X235467398Y-113347322D01*
X235489582Y-113305818D01*
X235519438Y-113269438D01*
X235555818Y-113239582D01*
X235597322Y-113217398D01*
X235642363Y-113203735D01*
X235690432Y-113199000D01*
X237809568Y-113199000D01*
X237857637Y-113203735D01*
X237857637Y-113203735D01*
G37*
G36*
X226607637Y-113203735D02*
G01*
X226652678Y-113217398D01*
X226694182Y-113239582D01*
X226730562Y-113269438D01*
X226760418Y-113305818D01*
X226782602Y-113347322D01*
X226796265Y-113392363D01*
X226801000Y-113440432D01*
X226801000Y-117059568D01*
X226796265Y-117107637D01*
X226782602Y-117152678D01*
X226760418Y-117194182D01*
X226730562Y-117230562D01*
X226694182Y-117260418D01*
X226652678Y-117282602D01*
X226607637Y-117296265D01*
X226559568Y-117301000D01*
X224440432Y-117301000D01*
X224392363Y-117296265D01*
X224347322Y-117282602D01*
X224305818Y-117260418D01*
X224269438Y-117230562D01*
X224239582Y-117194182D01*
X224217398Y-117152678D01*
X224203735Y-117107637D01*
X224199000Y-117059568D01*
X224199000Y-113440432D01*
X224203735Y-113392363D01*
X224217398Y-113347322D01*
X224239582Y-113305818D01*
X224269438Y-113269438D01*
X224305818Y-113239582D01*
X224347322Y-113217398D01*
X224392363Y-113203735D01*
X224440432Y-113199000D01*
X226559568Y-113199000D01*
X226607637Y-113203735D01*
X226607637Y-113203735D01*
G37*
G36*
X196456000Y-117121000D02*
G01*
X192544000Y-117121000D01*
X192544000Y-112779000D01*
X196456000Y-112779000D01*
X196456000Y-117121000D01*
X196456000Y-117121000D01*
G37*
G36*
X83794316Y-114904053D02*
G01*
X83842462Y-114918657D01*
X83886823Y-114942369D01*
X83925714Y-114974286D01*
X83957631Y-115013177D01*
X83981343Y-115057538D01*
X83995947Y-115105684D01*
X84001000Y-115156982D01*
X84001000Y-115718018D01*
X83995947Y-115769316D01*
X83981343Y-115817462D01*
X83957631Y-115861823D01*
X83925714Y-115900714D01*
X83886823Y-115932631D01*
X83842462Y-115956343D01*
X83794316Y-115970947D01*
X83743018Y-115976000D01*
X82756982Y-115976000D01*
X82705684Y-115970947D01*
X82657538Y-115956343D01*
X82613177Y-115932631D01*
X82574286Y-115900714D01*
X82542369Y-115861823D01*
X82518657Y-115817462D01*
X82504053Y-115769316D01*
X82499000Y-115718018D01*
X82499000Y-115156982D01*
X82504053Y-115105684D01*
X82518657Y-115057538D01*
X82542369Y-115013177D01*
X82574286Y-114974286D01*
X82613177Y-114942369D01*
X82657538Y-114918657D01*
X82705684Y-114904053D01*
X82756982Y-114899000D01*
X83743018Y-114899000D01*
X83794316Y-114904053D01*
X83794316Y-114904053D01*
G37*
G36*
X118651000Y-115901000D02*
G01*
X117349000Y-115901000D01*
X117349000Y-114899000D01*
X118651000Y-114899000D01*
X118651000Y-115901000D01*
X118651000Y-115901000D01*
G37*
G36*
X188426626Y-113712037D02*
G01*
X188596465Y-113763557D01*
X188596467Y-113763558D01*
X188611389Y-113771534D01*
X188752990Y-113847222D01*
X188890185Y-113959815D01*
X189002778Y-114097009D01*
X189002779Y-114097011D01*
X189066582Y-114216376D01*
X189086443Y-114253534D01*
X189137963Y-114423373D01*
X189151000Y-114555742D01*
X189151000Y-114944257D01*
X189137963Y-115076626D01*
X189086443Y-115246466D01*
X189086442Y-115246468D01*
X189063076Y-115290183D01*
X189002778Y-115402991D01*
X188890185Y-115540185D01*
X188752991Y-115652778D01*
X188752989Y-115652779D01*
X188630937Y-115718018D01*
X188596466Y-115736443D01*
X188426627Y-115787963D01*
X188250000Y-115805359D01*
X188073374Y-115787963D01*
X187903535Y-115736443D01*
X187869065Y-115718018D01*
X187747012Y-115652779D01*
X187747010Y-115652778D01*
X187609815Y-115540185D01*
X187607991Y-115537963D01*
X187497223Y-115402993D01*
X187413558Y-115246468D01*
X187413557Y-115246466D01*
X187362037Y-115076627D01*
X187349000Y-114944258D01*
X187349000Y-114555743D01*
X187362037Y-114423374D01*
X187413557Y-114253535D01*
X187497222Y-114097010D01*
X187609815Y-113959815D01*
X187747009Y-113847222D01*
X187888610Y-113771534D01*
X187903532Y-113763558D01*
X187903534Y-113763557D01*
X188073373Y-113712037D01*
X188250000Y-113694641D01*
X188426626Y-113712037D01*
X188426626Y-113712037D01*
G37*
G36*
X204426626Y-113712037D02*
G01*
X204596465Y-113763557D01*
X204596467Y-113763558D01*
X204611389Y-113771534D01*
X204752990Y-113847222D01*
X204890185Y-113959815D01*
X205002778Y-114097009D01*
X205002779Y-114097011D01*
X205066582Y-114216376D01*
X205086443Y-114253534D01*
X205137963Y-114423373D01*
X205151000Y-114555742D01*
X205151000Y-114944257D01*
X205137963Y-115076626D01*
X205086443Y-115246466D01*
X205086442Y-115246468D01*
X205063076Y-115290183D01*
X205002778Y-115402991D01*
X204890185Y-115540185D01*
X204752991Y-115652778D01*
X204752989Y-115652779D01*
X204630937Y-115718018D01*
X204596466Y-115736443D01*
X204426627Y-115787963D01*
X204250000Y-115805359D01*
X204073374Y-115787963D01*
X203903535Y-115736443D01*
X203869065Y-115718018D01*
X203747012Y-115652779D01*
X203747010Y-115652778D01*
X203609815Y-115540185D01*
X203607991Y-115537963D01*
X203497223Y-115402993D01*
X203413558Y-115246468D01*
X203413557Y-115246466D01*
X203362037Y-115076627D01*
X203349000Y-114944258D01*
X203349000Y-114555743D01*
X203362037Y-114423374D01*
X203413557Y-114253535D01*
X203497222Y-114097010D01*
X203609815Y-113959815D01*
X203747009Y-113847222D01*
X203888610Y-113771534D01*
X203903532Y-113763558D01*
X203903534Y-113763557D01*
X204073373Y-113712037D01*
X204250000Y-113694641D01*
X204426626Y-113712037D01*
X204426626Y-113712037D01*
G37*
G36*
X202451883Y-113703872D02*
G01*
X202498258Y-113717940D01*
X202541000Y-113740786D01*
X202578466Y-113771534D01*
X202609214Y-113809000D01*
X202632060Y-113851742D01*
X202646128Y-113898117D01*
X202651000Y-113947585D01*
X202651000Y-115552415D01*
X202646128Y-115601883D01*
X202632060Y-115648258D01*
X202609214Y-115691000D01*
X202578466Y-115728466D01*
X202541000Y-115759214D01*
X202498258Y-115782060D01*
X202451883Y-115796128D01*
X202402415Y-115801000D01*
X201097585Y-115801000D01*
X201048117Y-115796128D01*
X201001742Y-115782060D01*
X200959000Y-115759214D01*
X200921534Y-115728466D01*
X200890786Y-115691000D01*
X200867940Y-115648258D01*
X200853872Y-115601883D01*
X200849000Y-115552415D01*
X200849000Y-113947585D01*
X200853872Y-113898117D01*
X200867940Y-113851742D01*
X200890786Y-113809000D01*
X200921534Y-113771534D01*
X200959000Y-113740786D01*
X201001742Y-113717940D01*
X201048117Y-113703872D01*
X201097585Y-113699000D01*
X202402415Y-113699000D01*
X202451883Y-113703872D01*
X202451883Y-113703872D01*
G37*
G36*
X186451883Y-113703872D02*
G01*
X186498258Y-113717940D01*
X186541000Y-113740786D01*
X186578466Y-113771534D01*
X186609214Y-113809000D01*
X186632060Y-113851742D01*
X186646128Y-113898117D01*
X186651000Y-113947585D01*
X186651000Y-115552415D01*
X186646128Y-115601883D01*
X186632060Y-115648258D01*
X186609214Y-115691000D01*
X186578466Y-115728466D01*
X186541000Y-115759214D01*
X186498258Y-115782060D01*
X186451883Y-115796128D01*
X186402415Y-115801000D01*
X185097585Y-115801000D01*
X185048117Y-115796128D01*
X185001742Y-115782060D01*
X184959000Y-115759214D01*
X184921534Y-115728466D01*
X184890786Y-115691000D01*
X184867940Y-115648258D01*
X184853872Y-115601883D01*
X184849000Y-115552415D01*
X184849000Y-113947585D01*
X184853872Y-113898117D01*
X184867940Y-113851742D01*
X184890786Y-113809000D01*
X184921534Y-113771534D01*
X184959000Y-113740786D01*
X185001742Y-113717940D01*
X185048117Y-113703872D01*
X185097585Y-113699000D01*
X186402415Y-113699000D01*
X186451883Y-113703872D01*
X186451883Y-113703872D01*
G37*
G36*
X114294316Y-114654053D02*
G01*
X114342462Y-114668657D01*
X114386823Y-114692369D01*
X114425714Y-114724286D01*
X114457631Y-114763177D01*
X114481343Y-114807538D01*
X114495947Y-114855684D01*
X114501000Y-114906982D01*
X114501000Y-115468018D01*
X114495947Y-115519316D01*
X114481343Y-115567462D01*
X114457631Y-115611823D01*
X114425714Y-115650714D01*
X114386823Y-115682631D01*
X114342462Y-115706343D01*
X114294316Y-115720947D01*
X114243018Y-115726000D01*
X113256982Y-115726000D01*
X113205684Y-115720947D01*
X113157538Y-115706343D01*
X113113177Y-115682631D01*
X113074286Y-115650714D01*
X113042369Y-115611823D01*
X113018657Y-115567462D01*
X113004053Y-115519316D01*
X112999000Y-115468018D01*
X112999000Y-114906982D01*
X113004053Y-114855684D01*
X113018657Y-114807538D01*
X113042369Y-114763177D01*
X113074286Y-114724286D01*
X113113177Y-114692369D01*
X113157538Y-114668657D01*
X113205684Y-114654053D01*
X113256982Y-114649000D01*
X114243018Y-114649000D01*
X114294316Y-114654053D01*
X114294316Y-114654053D01*
G37*
G36*
X249926626Y-113462037D02*
G01*
X250096465Y-113513557D01*
X250096467Y-113513558D01*
X250151582Y-113543018D01*
X250252990Y-113597222D01*
X250390185Y-113709815D01*
X250502778Y-113847009D01*
X250504911Y-113851000D01*
X250565312Y-113964000D01*
X250586443Y-114003534D01*
X250637963Y-114173373D01*
X250651000Y-114305742D01*
X250651000Y-114694257D01*
X250637963Y-114826626D01*
X250586443Y-114996466D01*
X250502778Y-115152991D01*
X250390185Y-115290185D01*
X250252991Y-115402778D01*
X250252589Y-115402993D01*
X250130937Y-115468018D01*
X250096466Y-115486443D01*
X249926627Y-115537963D01*
X249750000Y-115555359D01*
X249573374Y-115537963D01*
X249403535Y-115486443D01*
X249369065Y-115468018D01*
X249247412Y-115402993D01*
X249247010Y-115402778D01*
X249109815Y-115290185D01*
X249106380Y-115286000D01*
X248997223Y-115152993D01*
X248913558Y-114996468D01*
X248913557Y-114996466D01*
X248862037Y-114826627D01*
X248849000Y-114694258D01*
X248849000Y-114305743D01*
X248862037Y-114173374D01*
X248913557Y-114003535D01*
X248997222Y-113847010D01*
X249109815Y-113709815D01*
X249247009Y-113597222D01*
X249348417Y-113543018D01*
X249403532Y-113513558D01*
X249403534Y-113513557D01*
X249573373Y-113462037D01*
X249750000Y-113444641D01*
X249926626Y-113462037D01*
X249926626Y-113462037D01*
G37*
G36*
X247951883Y-113453872D02*
G01*
X247998258Y-113467940D01*
X248041000Y-113490786D01*
X248078466Y-113521534D01*
X248109214Y-113559000D01*
X248132060Y-113601742D01*
X248146128Y-113648117D01*
X248151000Y-113697585D01*
X248151000Y-115302415D01*
X248146128Y-115351883D01*
X248132060Y-115398258D01*
X248109214Y-115441000D01*
X248078466Y-115478466D01*
X248041000Y-115509214D01*
X247998258Y-115532060D01*
X247951883Y-115546128D01*
X247902415Y-115551000D01*
X246597585Y-115551000D01*
X246548117Y-115546128D01*
X246501742Y-115532060D01*
X246459000Y-115509214D01*
X246421534Y-115478466D01*
X246390786Y-115441000D01*
X246367940Y-115398258D01*
X246353872Y-115351883D01*
X246349000Y-115302415D01*
X246349000Y-113697585D01*
X246353872Y-113648117D01*
X246367940Y-113601742D01*
X246390786Y-113559000D01*
X246421534Y-113521534D01*
X246459000Y-113490786D01*
X246501742Y-113467940D01*
X246548117Y-113453872D01*
X246597585Y-113449000D01*
X247902415Y-113449000D01*
X247951883Y-113453872D01*
X247951883Y-113453872D01*
G37*
G36*
X149826000Y-115501000D02*
G01*
X147974000Y-115501000D01*
X147974000Y-114949000D01*
X149826000Y-114949000D01*
X149826000Y-115501000D01*
X149826000Y-115501000D01*
G37*
G36*
X157026000Y-115501000D02*
G01*
X155174000Y-115501000D01*
X155174000Y-114949000D01*
X157026000Y-114949000D01*
X157026000Y-115501000D01*
X157026000Y-115501000D01*
G37*
G36*
X160839438Y-114228572D02*
G01*
X160882895Y-114241754D01*
X160922934Y-114263156D01*
X160958036Y-114291964D01*
X160986844Y-114327066D01*
X161008246Y-114367105D01*
X161021428Y-114410562D01*
X161026000Y-114456982D01*
X161026000Y-115043018D01*
X161021428Y-115089438D01*
X161008246Y-115132895D01*
X160986844Y-115172934D01*
X160958036Y-115208036D01*
X160922934Y-115236844D01*
X160882895Y-115258246D01*
X160839438Y-115271428D01*
X160793018Y-115276000D01*
X160281982Y-115276000D01*
X160235562Y-115271428D01*
X160192105Y-115258246D01*
X160152066Y-115236844D01*
X160116964Y-115208036D01*
X160088156Y-115172934D01*
X160066754Y-115132895D01*
X160053572Y-115089438D01*
X160049000Y-115043018D01*
X160049000Y-114456982D01*
X160053572Y-114410562D01*
X160066754Y-114367105D01*
X160088156Y-114327066D01*
X160116964Y-114291964D01*
X160152066Y-114263156D01*
X160192105Y-114241754D01*
X160235562Y-114228572D01*
X160281982Y-114224000D01*
X160793018Y-114224000D01*
X160839438Y-114228572D01*
X160839438Y-114228572D01*
G37*
G36*
X159264438Y-114228572D02*
G01*
X159307895Y-114241754D01*
X159347934Y-114263156D01*
X159383036Y-114291964D01*
X159411844Y-114327066D01*
X159433246Y-114367105D01*
X159446428Y-114410562D01*
X159451000Y-114456982D01*
X159451000Y-115043018D01*
X159446428Y-115089438D01*
X159433246Y-115132895D01*
X159411844Y-115172934D01*
X159383036Y-115208036D01*
X159347934Y-115236844D01*
X159307895Y-115258246D01*
X159264438Y-115271428D01*
X159218018Y-115276000D01*
X158706982Y-115276000D01*
X158660562Y-115271428D01*
X158617105Y-115258246D01*
X158577066Y-115236844D01*
X158541964Y-115208036D01*
X158513156Y-115172934D01*
X158491754Y-115132895D01*
X158478572Y-115089438D01*
X158474000Y-115043018D01*
X158474000Y-114456982D01*
X158478572Y-114410562D01*
X158491754Y-114367105D01*
X158513156Y-114327066D01*
X158541964Y-114291964D01*
X158577066Y-114263156D01*
X158617105Y-114241754D01*
X158660562Y-114228572D01*
X158706982Y-114224000D01*
X159218018Y-114224000D01*
X159264438Y-114228572D01*
X159264438Y-114228572D01*
G37*
G36*
X110789438Y-114303572D02*
G01*
X110832895Y-114316754D01*
X110872934Y-114338156D01*
X110908036Y-114366964D01*
X110936844Y-114402066D01*
X110958246Y-114442105D01*
X110971428Y-114485562D01*
X110976000Y-114531982D01*
X110976000Y-115043018D01*
X110971428Y-115089438D01*
X110958246Y-115132895D01*
X110936844Y-115172934D01*
X110908036Y-115208036D01*
X110872934Y-115236844D01*
X110832895Y-115258246D01*
X110789438Y-115271428D01*
X110743018Y-115276000D01*
X110156982Y-115276000D01*
X110110562Y-115271428D01*
X110067105Y-115258246D01*
X110027066Y-115236844D01*
X109991964Y-115208036D01*
X109963156Y-115172934D01*
X109941754Y-115132895D01*
X109928572Y-115089438D01*
X109924000Y-115043018D01*
X109924000Y-114531982D01*
X109928572Y-114485562D01*
X109941754Y-114442105D01*
X109963156Y-114402066D01*
X109991964Y-114366964D01*
X110027066Y-114338156D01*
X110067105Y-114316754D01*
X110110562Y-114303572D01*
X110156982Y-114299000D01*
X110743018Y-114299000D01*
X110789438Y-114303572D01*
X110789438Y-114303572D01*
G37*
G36*
X112289438Y-114303572D02*
G01*
X112332895Y-114316754D01*
X112372934Y-114338156D01*
X112408036Y-114366964D01*
X112436844Y-114402066D01*
X112458246Y-114442105D01*
X112471428Y-114485562D01*
X112476000Y-114531982D01*
X112476000Y-115043018D01*
X112471428Y-115089438D01*
X112458246Y-115132895D01*
X112436844Y-115172934D01*
X112408036Y-115208036D01*
X112372934Y-115236844D01*
X112332895Y-115258246D01*
X112289438Y-115271428D01*
X112243018Y-115276000D01*
X111656982Y-115276000D01*
X111610562Y-115271428D01*
X111567105Y-115258246D01*
X111527066Y-115236844D01*
X111491964Y-115208036D01*
X111463156Y-115172934D01*
X111441754Y-115132895D01*
X111428572Y-115089438D01*
X111424000Y-115043018D01*
X111424000Y-114531982D01*
X111428572Y-114485562D01*
X111441754Y-114442105D01*
X111463156Y-114402066D01*
X111491964Y-114366964D01*
X111527066Y-114338156D01*
X111567105Y-114316754D01*
X111610562Y-114303572D01*
X111656982Y-114299000D01*
X112243018Y-114299000D01*
X112289438Y-114303572D01*
X112289438Y-114303572D01*
G37*
G36*
X162264438Y-114228572D02*
G01*
X162307895Y-114241754D01*
X162347934Y-114263156D01*
X162383036Y-114291964D01*
X162411844Y-114327066D01*
X162433246Y-114367105D01*
X162446428Y-114410562D01*
X162451000Y-114456982D01*
X162451000Y-115043018D01*
X162446428Y-115089438D01*
X162433246Y-115132895D01*
X162411844Y-115172934D01*
X162383036Y-115208036D01*
X162347934Y-115236844D01*
X162307895Y-115258246D01*
X162264438Y-115271428D01*
X162218018Y-115276000D01*
X161706982Y-115276000D01*
X161660562Y-115271428D01*
X161617105Y-115258246D01*
X161577066Y-115236844D01*
X161541964Y-115208036D01*
X161513156Y-115172934D01*
X161491754Y-115132895D01*
X161478572Y-115089438D01*
X161474000Y-115043018D01*
X161474000Y-114456982D01*
X161478572Y-114410562D01*
X161491754Y-114367105D01*
X161513156Y-114327066D01*
X161541964Y-114291964D01*
X161577066Y-114263156D01*
X161617105Y-114241754D01*
X161660562Y-114228572D01*
X161706982Y-114224000D01*
X162218018Y-114224000D01*
X162264438Y-114228572D01*
X162264438Y-114228572D01*
G37*
G36*
X163839438Y-114228572D02*
G01*
X163882895Y-114241754D01*
X163922934Y-114263156D01*
X163958036Y-114291964D01*
X163986844Y-114327066D01*
X164008246Y-114367105D01*
X164021428Y-114410562D01*
X164026000Y-114456982D01*
X164026000Y-115043018D01*
X164021428Y-115089438D01*
X164008246Y-115132895D01*
X163986844Y-115172934D01*
X163958036Y-115208036D01*
X163922934Y-115236844D01*
X163882895Y-115258246D01*
X163839438Y-115271428D01*
X163793018Y-115276000D01*
X163281982Y-115276000D01*
X163235562Y-115271428D01*
X163192105Y-115258246D01*
X163152066Y-115236844D01*
X163116964Y-115208036D01*
X163088156Y-115172934D01*
X163066754Y-115132895D01*
X163053572Y-115089438D01*
X163049000Y-115043018D01*
X163049000Y-114456982D01*
X163053572Y-114410562D01*
X163066754Y-114367105D01*
X163088156Y-114327066D01*
X163116964Y-114291964D01*
X163152066Y-114263156D01*
X163192105Y-114241754D01*
X163235562Y-114228572D01*
X163281982Y-114224000D01*
X163793018Y-114224000D01*
X163839438Y-114228572D01*
X163839438Y-114228572D01*
G37*
G36*
X75950289Y-112968250D02*
G01*
X76056566Y-112989390D01*
X76244824Y-113067369D01*
X76247835Y-113068616D01*
X76419973Y-113183635D01*
X76566365Y-113330027D01*
X76618757Y-113408437D01*
X76681384Y-113502165D01*
X76760610Y-113693434D01*
X76768149Y-113731337D01*
X76801000Y-113896486D01*
X76801000Y-114103514D01*
X76781609Y-114201000D01*
X76760610Y-114306566D01*
X76713376Y-114420599D01*
X76681384Y-114497835D01*
X76566365Y-114669973D01*
X76419973Y-114816365D01*
X76368138Y-114851000D01*
X76247835Y-114931384D01*
X76056566Y-115010610D01*
X75853514Y-115051000D01*
X75646486Y-115051000D01*
X75443434Y-115010610D01*
X75252165Y-114931384D01*
X75131862Y-114851000D01*
X75080027Y-114816365D01*
X74933635Y-114669973D01*
X74818616Y-114497835D01*
X74786624Y-114420599D01*
X74739390Y-114306566D01*
X74718391Y-114201000D01*
X74699000Y-114103514D01*
X74699000Y-113896486D01*
X74731851Y-113731337D01*
X74739390Y-113693434D01*
X74818616Y-113502165D01*
X74881243Y-113408437D01*
X74933635Y-113330027D01*
X75080027Y-113183635D01*
X75252165Y-113068616D01*
X75255176Y-113067369D01*
X75443434Y-112989390D01*
X75549711Y-112968250D01*
X75646486Y-112949000D01*
X75853514Y-112949000D01*
X75950289Y-112968250D01*
X75950289Y-112968250D01*
G37*
G36*
X69450289Y-112968250D02*
G01*
X69556566Y-112989390D01*
X69744824Y-113067369D01*
X69747835Y-113068616D01*
X69919973Y-113183635D01*
X70066365Y-113330027D01*
X70118757Y-113408437D01*
X70181384Y-113502165D01*
X70260610Y-113693434D01*
X70268149Y-113731337D01*
X70301000Y-113896486D01*
X70301000Y-114103514D01*
X70281609Y-114201000D01*
X70260610Y-114306566D01*
X70213376Y-114420599D01*
X70181384Y-114497835D01*
X70066365Y-114669973D01*
X69919973Y-114816365D01*
X69868138Y-114851000D01*
X69747835Y-114931384D01*
X69556566Y-115010610D01*
X69353514Y-115051000D01*
X69146486Y-115051000D01*
X68943434Y-115010610D01*
X68752165Y-114931384D01*
X68631862Y-114851000D01*
X68580027Y-114816365D01*
X68433635Y-114669973D01*
X68318616Y-114497835D01*
X68286624Y-114420599D01*
X68239390Y-114306566D01*
X68218391Y-114201000D01*
X68199000Y-114103514D01*
X68199000Y-113896486D01*
X68231851Y-113731337D01*
X68239390Y-113693434D01*
X68318616Y-113502165D01*
X68381243Y-113408437D01*
X68433635Y-113330027D01*
X68580027Y-113183635D01*
X68752165Y-113068616D01*
X68755176Y-113067369D01*
X68943434Y-112989390D01*
X69049711Y-112968250D01*
X69146486Y-112949000D01*
X69353514Y-112949000D01*
X69450289Y-112968250D01*
X69450289Y-112968250D01*
G37*
G36*
X157026000Y-114851000D02*
G01*
X155174000Y-114851000D01*
X155174000Y-114299000D01*
X157026000Y-114299000D01*
X157026000Y-114851000D01*
X157026000Y-114851000D01*
G37*
G36*
X149826000Y-114851000D02*
G01*
X147974000Y-114851000D01*
X147974000Y-114299000D01*
X149826000Y-114299000D01*
X149826000Y-114851000D01*
X149826000Y-114851000D01*
G37*
G36*
X173012812Y-112483624D02*
G01*
X173176784Y-112551544D01*
X173324354Y-112650147D01*
X173449853Y-112775646D01*
X173548456Y-112923216D01*
X173616376Y-113087188D01*
X173651000Y-113261259D01*
X173651000Y-113438741D01*
X173616376Y-113612812D01*
X173548456Y-113776784D01*
X173449853Y-113924354D01*
X173324354Y-114049853D01*
X173176784Y-114148456D01*
X173012812Y-114216376D01*
X172838741Y-114251000D01*
X172661259Y-114251000D01*
X172487188Y-114216376D01*
X172323216Y-114148456D01*
X172175646Y-114049853D01*
X172050147Y-113924354D01*
X171951544Y-113776784D01*
X171883624Y-113612812D01*
X171849000Y-113438741D01*
X171849000Y-113261259D01*
X171883624Y-113087188D01*
X171951544Y-112923216D01*
X172050147Y-112775646D01*
X172175646Y-112650147D01*
X172323216Y-112551544D01*
X172487188Y-112483624D01*
X172661259Y-112449000D01*
X172838741Y-112449000D01*
X173012812Y-112483624D01*
X173012812Y-112483624D01*
G37*
G36*
X175512812Y-112483624D02*
G01*
X175676784Y-112551544D01*
X175824354Y-112650147D01*
X175949853Y-112775646D01*
X176048456Y-112923216D01*
X176116376Y-113087188D01*
X176151000Y-113261259D01*
X176151000Y-113438741D01*
X176116376Y-113612812D01*
X176048456Y-113776784D01*
X175949853Y-113924354D01*
X175824354Y-114049853D01*
X175676784Y-114148456D01*
X175512812Y-114216376D01*
X175338741Y-114251000D01*
X175161259Y-114251000D01*
X174987188Y-114216376D01*
X174823216Y-114148456D01*
X174675646Y-114049853D01*
X174550147Y-113924354D01*
X174451544Y-113776784D01*
X174383624Y-113612812D01*
X174349000Y-113438741D01*
X174349000Y-113261259D01*
X174383624Y-113087188D01*
X174451544Y-112923216D01*
X174550147Y-112775646D01*
X174675646Y-112650147D01*
X174823216Y-112551544D01*
X174987188Y-112483624D01*
X175161259Y-112449000D01*
X175338741Y-112449000D01*
X175512812Y-112483624D01*
X175512812Y-112483624D01*
G37*
G36*
X157026000Y-114201000D02*
G01*
X155174000Y-114201000D01*
X155174000Y-113649000D01*
X157026000Y-113649000D01*
X157026000Y-114201000D01*
X157026000Y-114201000D01*
G37*
G36*
X149826000Y-114201000D02*
G01*
X147974000Y-114201000D01*
X147974000Y-113649000D01*
X149826000Y-113649000D01*
X149826000Y-114201000D01*
X149826000Y-114201000D01*
G37*
G36*
X83794316Y-113029053D02*
G01*
X83842462Y-113043657D01*
X83886823Y-113067369D01*
X83925714Y-113099286D01*
X83957631Y-113138177D01*
X83981343Y-113182538D01*
X83995947Y-113230684D01*
X84001000Y-113281982D01*
X84001000Y-113843018D01*
X83995947Y-113894316D01*
X83981343Y-113942462D01*
X83957631Y-113986823D01*
X83925714Y-114025714D01*
X83886823Y-114057631D01*
X83842462Y-114081343D01*
X83794316Y-114095947D01*
X83743018Y-114101000D01*
X82756982Y-114101000D01*
X82705684Y-114095947D01*
X82657538Y-114081343D01*
X82613177Y-114057631D01*
X82574286Y-114025714D01*
X82542369Y-113986823D01*
X82518657Y-113942462D01*
X82504053Y-113894316D01*
X82499000Y-113843018D01*
X82499000Y-113281982D01*
X82504053Y-113230684D01*
X82518657Y-113182538D01*
X82542369Y-113138177D01*
X82574286Y-113099286D01*
X82613177Y-113067369D01*
X82657538Y-113043657D01*
X82705684Y-113029053D01*
X82756982Y-113024000D01*
X83743018Y-113024000D01*
X83794316Y-113029053D01*
X83794316Y-113029053D01*
G37*
G36*
X56286486Y-112092448D02*
G01*
X56349293Y-112098634D01*
X56521700Y-112150933D01*
X56680584Y-112235859D01*
X56819849Y-112350151D01*
X56934141Y-112489416D01*
X57019067Y-112648300D01*
X57071366Y-112820707D01*
X57089025Y-113000000D01*
X57071366Y-113179293D01*
X57019067Y-113351700D01*
X56934141Y-113510584D01*
X56819849Y-113649849D01*
X56680584Y-113764141D01*
X56521700Y-113849067D01*
X56349293Y-113901366D01*
X56214927Y-113914600D01*
X56125073Y-113914600D01*
X55990707Y-113901366D01*
X55818300Y-113849067D01*
X55659416Y-113764141D01*
X55520151Y-113649849D01*
X55405859Y-113510584D01*
X55320933Y-113351700D01*
X55268634Y-113179293D01*
X55250975Y-113000000D01*
X55268634Y-112820707D01*
X55320933Y-112648300D01*
X55405859Y-112489416D01*
X55520151Y-112350151D01*
X55659416Y-112235859D01*
X55818300Y-112150933D01*
X55990707Y-112098634D01*
X56053514Y-112092448D01*
X56125073Y-112085400D01*
X56214927Y-112085400D01*
X56286486Y-112092448D01*
X56286486Y-112092448D01*
G37*
G36*
X58826486Y-112092448D02*
G01*
X58889293Y-112098634D01*
X59061700Y-112150933D01*
X59220584Y-112235859D01*
X59359849Y-112350151D01*
X59474141Y-112489416D01*
X59559067Y-112648300D01*
X59611366Y-112820707D01*
X59629025Y-113000000D01*
X59611366Y-113179293D01*
X59559067Y-113351700D01*
X59474141Y-113510584D01*
X59359849Y-113649849D01*
X59220584Y-113764141D01*
X59061700Y-113849067D01*
X58889293Y-113901366D01*
X58754927Y-113914600D01*
X58665073Y-113914600D01*
X58530707Y-113901366D01*
X58358300Y-113849067D01*
X58199416Y-113764141D01*
X58060151Y-113649849D01*
X57945859Y-113510584D01*
X57860933Y-113351700D01*
X57808634Y-113179293D01*
X57790975Y-113000000D01*
X57808634Y-112820707D01*
X57860933Y-112648300D01*
X57945859Y-112489416D01*
X58060151Y-112350151D01*
X58199416Y-112235859D01*
X58358300Y-112150933D01*
X58530707Y-112098634D01*
X58593514Y-112092448D01*
X58665073Y-112085400D01*
X58754927Y-112085400D01*
X58826486Y-112092448D01*
X58826486Y-112092448D01*
G37*
G36*
X62164600Y-113914600D02*
G01*
X60335400Y-113914600D01*
X60335400Y-112085400D01*
X62164600Y-112085400D01*
X62164600Y-113914600D01*
X62164600Y-113914600D01*
G37*
G36*
X114294316Y-112779053D02*
G01*
X114342462Y-112793657D01*
X114386823Y-112817369D01*
X114425714Y-112849286D01*
X114457631Y-112888177D01*
X114481343Y-112932538D01*
X114495947Y-112980684D01*
X114501000Y-113031982D01*
X114501000Y-113593018D01*
X114495947Y-113644316D01*
X114481343Y-113692462D01*
X114457631Y-113736823D01*
X114425714Y-113775714D01*
X114386823Y-113807631D01*
X114342462Y-113831343D01*
X114294316Y-113845947D01*
X114243018Y-113851000D01*
X113256982Y-113851000D01*
X113205684Y-113845947D01*
X113157538Y-113831343D01*
X113113177Y-113807631D01*
X113074286Y-113775714D01*
X113042369Y-113736823D01*
X113018657Y-113692462D01*
X113004053Y-113644316D01*
X112999000Y-113593018D01*
X112999000Y-113031982D01*
X113004053Y-112980684D01*
X113018657Y-112932538D01*
X113042369Y-112888177D01*
X113074286Y-112849286D01*
X113113177Y-112817369D01*
X113157538Y-112793657D01*
X113205684Y-112779053D01*
X113256982Y-112774000D01*
X114243018Y-112774000D01*
X114294316Y-112779053D01*
X114294316Y-112779053D01*
G37*
G36*
X89676000Y-113851000D02*
G01*
X89024000Y-113851000D01*
X89024000Y-112149000D01*
X89676000Y-112149000D01*
X89676000Y-113851000D01*
X89676000Y-113851000D01*
G37*
G36*
X90476000Y-113851000D02*
G01*
X89824000Y-113851000D01*
X89824000Y-112149000D01*
X90476000Y-112149000D01*
X90476000Y-113851000D01*
X90476000Y-113851000D01*
G37*
G36*
X91276000Y-113851000D02*
G01*
X90624000Y-113851000D01*
X90624000Y-112149000D01*
X91276000Y-112149000D01*
X91276000Y-113851000D01*
X91276000Y-113851000D01*
G37*
G36*
X92076000Y-113851000D02*
G01*
X91424000Y-113851000D01*
X91424000Y-112149000D01*
X92076000Y-112149000D01*
X92076000Y-113851000D01*
X92076000Y-113851000D01*
G37*
G36*
X88076000Y-113851000D02*
G01*
X87424000Y-113851000D01*
X87424000Y-112149000D01*
X88076000Y-112149000D01*
X88076000Y-113851000D01*
X88076000Y-113851000D01*
G37*
G36*
X92876000Y-113851000D02*
G01*
X92224000Y-113851000D01*
X92224000Y-112149000D01*
X92876000Y-112149000D01*
X92876000Y-113851000D01*
X92876000Y-113851000D01*
G37*
G36*
X217800755Y-112153899D02*
G01*
X217847400Y-112168048D01*
X217890379Y-112191021D01*
X217928057Y-112221943D01*
X217958979Y-112259621D01*
X217981952Y-112302600D01*
X217996101Y-112349245D01*
X218001000Y-112398982D01*
X218001000Y-113601018D01*
X217996101Y-113650755D01*
X217981952Y-113697400D01*
X217958979Y-113740379D01*
X217928057Y-113778057D01*
X217890379Y-113808979D01*
X217847400Y-113831952D01*
X217800755Y-113846101D01*
X217751018Y-113851000D01*
X214823982Y-113851000D01*
X214774245Y-113846101D01*
X214727600Y-113831952D01*
X214684621Y-113808979D01*
X214646943Y-113778057D01*
X214616021Y-113740379D01*
X214593048Y-113697400D01*
X214578899Y-113650755D01*
X214574000Y-113601018D01*
X214574000Y-112398982D01*
X214578899Y-112349245D01*
X214593048Y-112302600D01*
X214616021Y-112259621D01*
X214646943Y-112221943D01*
X214684621Y-112191021D01*
X214727600Y-112168048D01*
X214774245Y-112153899D01*
X214823982Y-112149000D01*
X217751018Y-112149000D01*
X217800755Y-112153899D01*
X217800755Y-112153899D01*
G37*
G36*
X88876000Y-113851000D02*
G01*
X88224000Y-113851000D01*
X88224000Y-112149000D01*
X88876000Y-112149000D01*
X88876000Y-113851000D01*
X88876000Y-113851000D01*
G37*
G36*
X212725755Y-112153899D02*
G01*
X212772400Y-112168048D01*
X212815379Y-112191021D01*
X212853057Y-112221943D01*
X212883979Y-112259621D01*
X212906952Y-112302600D01*
X212921101Y-112349245D01*
X212926000Y-112398982D01*
X212926000Y-113601018D01*
X212921101Y-113650755D01*
X212906952Y-113697400D01*
X212883979Y-113740379D01*
X212853057Y-113778057D01*
X212815379Y-113808979D01*
X212772400Y-113831952D01*
X212725755Y-113846101D01*
X212676018Y-113851000D01*
X209748982Y-113851000D01*
X209699245Y-113846101D01*
X209652600Y-113831952D01*
X209609621Y-113808979D01*
X209571943Y-113778057D01*
X209541021Y-113740379D01*
X209518048Y-113697400D01*
X209503899Y-113650755D01*
X209499000Y-113601018D01*
X209499000Y-112398982D01*
X209503899Y-112349245D01*
X209518048Y-112302600D01*
X209541021Y-112259621D01*
X209571943Y-112221943D01*
X209609621Y-112191021D01*
X209652600Y-112168048D01*
X209699245Y-112153899D01*
X209748982Y-112149000D01*
X212676018Y-112149000D01*
X212725755Y-112153899D01*
X212725755Y-112153899D01*
G37*
G36*
X87276000Y-113851000D02*
G01*
X86624000Y-113851000D01*
X86624000Y-112149000D01*
X87276000Y-112149000D01*
X87276000Y-113851000D01*
X87276000Y-113851000D01*
G37*
G36*
X163839438Y-112728572D02*
G01*
X163882895Y-112741754D01*
X163922934Y-112763156D01*
X163958036Y-112791964D01*
X163986844Y-112827066D01*
X164008246Y-112867105D01*
X164021428Y-112910562D01*
X164026000Y-112956982D01*
X164026000Y-113543018D01*
X164021428Y-113589438D01*
X164008246Y-113632895D01*
X163986844Y-113672934D01*
X163958036Y-113708036D01*
X163922934Y-113736844D01*
X163882895Y-113758246D01*
X163839438Y-113771428D01*
X163793018Y-113776000D01*
X163281982Y-113776000D01*
X163235562Y-113771428D01*
X163192105Y-113758246D01*
X163152066Y-113736844D01*
X163116964Y-113708036D01*
X163088156Y-113672934D01*
X163066754Y-113632895D01*
X163053572Y-113589438D01*
X163049000Y-113543018D01*
X163049000Y-112956982D01*
X163053572Y-112910562D01*
X163066754Y-112867105D01*
X163088156Y-112827066D01*
X163116964Y-112791964D01*
X163152066Y-112763156D01*
X163192105Y-112741754D01*
X163235562Y-112728572D01*
X163281982Y-112724000D01*
X163793018Y-112724000D01*
X163839438Y-112728572D01*
X163839438Y-112728572D01*
G37*
G36*
X146939438Y-112803572D02*
G01*
X146982895Y-112816754D01*
X147022934Y-112838156D01*
X147058036Y-112866964D01*
X147086844Y-112902066D01*
X147108246Y-112942105D01*
X147121428Y-112985562D01*
X147126000Y-113031982D01*
X147126000Y-113543018D01*
X147121428Y-113589438D01*
X147108246Y-113632895D01*
X147086844Y-113672934D01*
X147058036Y-113708036D01*
X147022934Y-113736844D01*
X146982895Y-113758246D01*
X146939438Y-113771428D01*
X146893018Y-113776000D01*
X146306982Y-113776000D01*
X146260562Y-113771428D01*
X146217105Y-113758246D01*
X146177066Y-113736844D01*
X146141964Y-113708036D01*
X146113156Y-113672934D01*
X146091754Y-113632895D01*
X146078572Y-113589438D01*
X146074000Y-113543018D01*
X146074000Y-113031982D01*
X146078572Y-112985562D01*
X146091754Y-112942105D01*
X146113156Y-112902066D01*
X146141964Y-112866964D01*
X146177066Y-112838156D01*
X146217105Y-112816754D01*
X146260562Y-112803572D01*
X146306982Y-112799000D01*
X146893018Y-112799000D01*
X146939438Y-112803572D01*
X146939438Y-112803572D01*
G37*
G36*
X159264438Y-112728572D02*
G01*
X159307895Y-112741754D01*
X159347934Y-112763156D01*
X159383036Y-112791964D01*
X159411844Y-112827066D01*
X159433246Y-112867105D01*
X159446428Y-112910562D01*
X159451000Y-112956982D01*
X159451000Y-113543018D01*
X159446428Y-113589438D01*
X159433246Y-113632895D01*
X159411844Y-113672934D01*
X159383036Y-113708036D01*
X159347934Y-113736844D01*
X159307895Y-113758246D01*
X159264438Y-113771428D01*
X159218018Y-113776000D01*
X158706982Y-113776000D01*
X158660562Y-113771428D01*
X158617105Y-113758246D01*
X158577066Y-113736844D01*
X158541964Y-113708036D01*
X158513156Y-113672934D01*
X158491754Y-113632895D01*
X158478572Y-113589438D01*
X158474000Y-113543018D01*
X158474000Y-112956982D01*
X158478572Y-112910562D01*
X158491754Y-112867105D01*
X158513156Y-112827066D01*
X158541964Y-112791964D01*
X158577066Y-112763156D01*
X158617105Y-112741754D01*
X158660562Y-112728572D01*
X158706982Y-112724000D01*
X159218018Y-112724000D01*
X159264438Y-112728572D01*
X159264438Y-112728572D01*
G37*
G36*
X160839438Y-112728572D02*
G01*
X160882895Y-112741754D01*
X160922934Y-112763156D01*
X160958036Y-112791964D01*
X160986844Y-112827066D01*
X161008246Y-112867105D01*
X161021428Y-112910562D01*
X161026000Y-112956982D01*
X161026000Y-113543018D01*
X161021428Y-113589438D01*
X161008246Y-113632895D01*
X160986844Y-113672934D01*
X160958036Y-113708036D01*
X160922934Y-113736844D01*
X160882895Y-113758246D01*
X160839438Y-113771428D01*
X160793018Y-113776000D01*
X160281982Y-113776000D01*
X160235562Y-113771428D01*
X160192105Y-113758246D01*
X160152066Y-113736844D01*
X160116964Y-113708036D01*
X160088156Y-113672934D01*
X160066754Y-113632895D01*
X160053572Y-113589438D01*
X160049000Y-113543018D01*
X160049000Y-112956982D01*
X160053572Y-112910562D01*
X160066754Y-112867105D01*
X160088156Y-112827066D01*
X160116964Y-112791964D01*
X160152066Y-112763156D01*
X160192105Y-112741754D01*
X160235562Y-112728572D01*
X160281982Y-112724000D01*
X160793018Y-112724000D01*
X160839438Y-112728572D01*
X160839438Y-112728572D01*
G37*
G36*
X162264438Y-112728572D02*
G01*
X162307895Y-112741754D01*
X162347934Y-112763156D01*
X162383036Y-112791964D01*
X162411844Y-112827066D01*
X162433246Y-112867105D01*
X162446428Y-112910562D01*
X162451000Y-112956982D01*
X162451000Y-113543018D01*
X162446428Y-113589438D01*
X162433246Y-113632895D01*
X162411844Y-113672934D01*
X162383036Y-113708036D01*
X162347934Y-113736844D01*
X162307895Y-113758246D01*
X162264438Y-113771428D01*
X162218018Y-113776000D01*
X161706982Y-113776000D01*
X161660562Y-113771428D01*
X161617105Y-113758246D01*
X161577066Y-113736844D01*
X161541964Y-113708036D01*
X161513156Y-113672934D01*
X161491754Y-113632895D01*
X161478572Y-113589438D01*
X161474000Y-113543018D01*
X161474000Y-112956982D01*
X161478572Y-112910562D01*
X161491754Y-112867105D01*
X161513156Y-112827066D01*
X161541964Y-112791964D01*
X161577066Y-112763156D01*
X161617105Y-112741754D01*
X161660562Y-112728572D01*
X161706982Y-112724000D01*
X162218018Y-112724000D01*
X162264438Y-112728572D01*
X162264438Y-112728572D01*
G37*
G36*
X98001000Y-113701000D02*
G01*
X95999000Y-113701000D01*
X95999000Y-113199000D01*
X98001000Y-113199000D01*
X98001000Y-113701000D01*
X98001000Y-113701000D01*
G37*
G36*
X110789438Y-112728572D02*
G01*
X110832895Y-112741754D01*
X110872934Y-112763156D01*
X110908036Y-112791964D01*
X110936844Y-112827066D01*
X110958246Y-112867105D01*
X110971428Y-112910562D01*
X110976000Y-112956982D01*
X110976000Y-113468018D01*
X110971428Y-113514438D01*
X110958246Y-113557895D01*
X110936844Y-113597934D01*
X110908036Y-113633036D01*
X110872934Y-113661844D01*
X110832895Y-113683246D01*
X110789438Y-113696428D01*
X110743018Y-113701000D01*
X110156982Y-113701000D01*
X110110562Y-113696428D01*
X110067105Y-113683246D01*
X110027066Y-113661844D01*
X109991964Y-113633036D01*
X109963156Y-113597934D01*
X109941754Y-113557895D01*
X109928572Y-113514438D01*
X109924000Y-113468018D01*
X109924000Y-112956982D01*
X109928572Y-112910562D01*
X109941754Y-112867105D01*
X109963156Y-112827066D01*
X109991964Y-112791964D01*
X110027066Y-112763156D01*
X110067105Y-112741754D01*
X110110562Y-112728572D01*
X110156982Y-112724000D01*
X110743018Y-112724000D01*
X110789438Y-112728572D01*
X110789438Y-112728572D01*
G37*
G36*
X112289438Y-112728572D02*
G01*
X112332895Y-112741754D01*
X112372934Y-112763156D01*
X112408036Y-112791964D01*
X112436844Y-112827066D01*
X112458246Y-112867105D01*
X112471428Y-112910562D01*
X112476000Y-112956982D01*
X112476000Y-113468018D01*
X112471428Y-113514438D01*
X112458246Y-113557895D01*
X112436844Y-113597934D01*
X112408036Y-113633036D01*
X112372934Y-113661844D01*
X112332895Y-113683246D01*
X112289438Y-113696428D01*
X112243018Y-113701000D01*
X111656982Y-113701000D01*
X111610562Y-113696428D01*
X111567105Y-113683246D01*
X111527066Y-113661844D01*
X111491964Y-113633036D01*
X111463156Y-113597934D01*
X111441754Y-113557895D01*
X111428572Y-113514438D01*
X111424000Y-113468018D01*
X111424000Y-112956982D01*
X111428572Y-112910562D01*
X111441754Y-112867105D01*
X111463156Y-112827066D01*
X111491964Y-112791964D01*
X111527066Y-112763156D01*
X111567105Y-112741754D01*
X111610562Y-112728572D01*
X111656982Y-112724000D01*
X112243018Y-112724000D01*
X112289438Y-112728572D01*
X112289438Y-112728572D01*
G37*
G36*
X149826000Y-113551000D02*
G01*
X147974000Y-113551000D01*
X147974000Y-112999000D01*
X149826000Y-112999000D01*
X149826000Y-113551000D01*
X149826000Y-113551000D01*
G37*
G36*
X157026000Y-113551000D02*
G01*
X155174000Y-113551000D01*
X155174000Y-112999000D01*
X157026000Y-112999000D01*
X157026000Y-113551000D01*
X157026000Y-113551000D01*
G37*
G36*
X157026000Y-112901000D02*
G01*
X155174000Y-112901000D01*
X155174000Y-112349000D01*
X157026000Y-112349000D01*
X157026000Y-112901000D01*
X157026000Y-112901000D01*
G37*
G36*
X149826000Y-112901000D02*
G01*
X147974000Y-112901000D01*
X147974000Y-112349000D01*
X149826000Y-112349000D01*
X149826000Y-112901000D01*
X149826000Y-112901000D01*
G37*
G36*
X118651000Y-112601000D02*
G01*
X117349000Y-112601000D01*
X117349000Y-111599000D01*
X118651000Y-111599000D01*
X118651000Y-112601000D01*
X118651000Y-112601000D01*
G37*
G36*
X83589438Y-111478572D02*
G01*
X83632895Y-111491754D01*
X83672934Y-111513156D01*
X83708036Y-111541964D01*
X83736844Y-111577066D01*
X83758246Y-111617105D01*
X83771428Y-111660562D01*
X83776000Y-111706982D01*
X83776000Y-112293018D01*
X83771428Y-112339438D01*
X83758246Y-112382895D01*
X83736844Y-112422934D01*
X83708036Y-112458036D01*
X83672934Y-112486844D01*
X83632895Y-112508246D01*
X83589438Y-112521428D01*
X83543018Y-112526000D01*
X83031982Y-112526000D01*
X82985562Y-112521428D01*
X82942105Y-112508246D01*
X82902066Y-112486844D01*
X82866964Y-112458036D01*
X82838156Y-112422934D01*
X82816754Y-112382895D01*
X82803572Y-112339438D01*
X82799000Y-112293018D01*
X82799000Y-111706982D01*
X82803572Y-111660562D01*
X82816754Y-111617105D01*
X82838156Y-111577066D01*
X82866964Y-111541964D01*
X82902066Y-111513156D01*
X82942105Y-111491754D01*
X82985562Y-111478572D01*
X83031982Y-111474000D01*
X83543018Y-111474000D01*
X83589438Y-111478572D01*
X83589438Y-111478572D01*
G37*
G36*
X82014438Y-111478572D02*
G01*
X82057895Y-111491754D01*
X82097934Y-111513156D01*
X82133036Y-111541964D01*
X82161844Y-111577066D01*
X82183246Y-111617105D01*
X82196428Y-111660562D01*
X82201000Y-111706982D01*
X82201000Y-112293018D01*
X82196428Y-112339438D01*
X82183246Y-112382895D01*
X82161844Y-112422934D01*
X82133036Y-112458036D01*
X82097934Y-112486844D01*
X82057895Y-112508246D01*
X82014438Y-112521428D01*
X81968018Y-112526000D01*
X81456982Y-112526000D01*
X81410562Y-112521428D01*
X81367105Y-112508246D01*
X81327066Y-112486844D01*
X81291964Y-112458036D01*
X81263156Y-112422934D01*
X81241754Y-112382895D01*
X81228572Y-112339438D01*
X81224000Y-112293018D01*
X81224000Y-111706982D01*
X81228572Y-111660562D01*
X81241754Y-111617105D01*
X81263156Y-111577066D01*
X81291964Y-111541964D01*
X81327066Y-111513156D01*
X81367105Y-111491754D01*
X81410562Y-111478572D01*
X81456982Y-111474000D01*
X81968018Y-111474000D01*
X82014438Y-111478572D01*
X82014438Y-111478572D01*
G37*
G36*
X98001000Y-112501000D02*
G01*
X95999000Y-112501000D01*
X95999000Y-111999000D01*
X98001000Y-111999000D01*
X98001000Y-112501000D01*
X98001000Y-112501000D01*
G37*
G36*
X168378056Y-108882895D02*
G01*
X168505333Y-108908212D01*
X168833093Y-109043974D01*
X169054577Y-109191966D01*
X169128070Y-109241072D01*
X169378928Y-109491930D01*
X169414655Y-109545400D01*
X169576026Y-109786907D01*
X169711788Y-110114667D01*
X169727191Y-110192105D01*
X169781000Y-110462617D01*
X169781000Y-110817383D01*
X169760004Y-110922934D01*
X169711788Y-111165333D01*
X169576026Y-111493093D01*
X169378927Y-111788071D01*
X169128071Y-112038927D01*
X168833093Y-112236026D01*
X168505333Y-112371788D01*
X168449494Y-112382895D01*
X168157383Y-112441000D01*
X167802617Y-112441000D01*
X167510506Y-112382895D01*
X167454667Y-112371788D01*
X167126907Y-112236026D01*
X166831929Y-112038927D01*
X166581073Y-111788071D01*
X166383974Y-111493093D01*
X166248212Y-111165333D01*
X166199996Y-110922934D01*
X166179000Y-110817383D01*
X166179000Y-110462617D01*
X166232809Y-110192105D01*
X166248212Y-110114667D01*
X166383974Y-109786907D01*
X166545345Y-109545400D01*
X166581072Y-109491930D01*
X166831930Y-109241072D01*
X166905423Y-109191966D01*
X167126907Y-109043974D01*
X167454667Y-108908212D01*
X167581944Y-108882895D01*
X167802617Y-108839000D01*
X168157383Y-108839000D01*
X168378056Y-108882895D01*
X168378056Y-108882895D01*
G37*
G36*
X180418056Y-108882895D02*
G01*
X180545333Y-108908212D01*
X180873093Y-109043974D01*
X181094577Y-109191966D01*
X181168070Y-109241072D01*
X181418928Y-109491930D01*
X181454655Y-109545400D01*
X181616026Y-109786907D01*
X181751788Y-110114667D01*
X181767191Y-110192105D01*
X181821000Y-110462617D01*
X181821000Y-110817383D01*
X181800004Y-110922934D01*
X181751788Y-111165333D01*
X181616026Y-111493093D01*
X181418927Y-111788071D01*
X181168071Y-112038927D01*
X180873093Y-112236026D01*
X180545333Y-112371788D01*
X180489494Y-112382895D01*
X180197383Y-112441000D01*
X179842617Y-112441000D01*
X179550506Y-112382895D01*
X179494667Y-112371788D01*
X179166907Y-112236026D01*
X178871929Y-112038927D01*
X178621073Y-111788071D01*
X178423974Y-111493093D01*
X178288212Y-111165333D01*
X178239996Y-110922934D01*
X178219000Y-110817383D01*
X178219000Y-110462617D01*
X178272809Y-110192105D01*
X178288212Y-110114667D01*
X178423974Y-109786907D01*
X178585345Y-109545400D01*
X178621072Y-109491930D01*
X178871930Y-109241072D01*
X178945423Y-109191966D01*
X179166907Y-109043974D01*
X179494667Y-108908212D01*
X179621944Y-108882895D01*
X179842617Y-108839000D01*
X180197383Y-108839000D01*
X180418056Y-108882895D01*
X180418056Y-108882895D01*
G37*
G36*
X157026000Y-112251000D02*
G01*
X155174000Y-112251000D01*
X155174000Y-111699000D01*
X157026000Y-111699000D01*
X157026000Y-112251000D01*
X157026000Y-112251000D01*
G37*
G36*
X149826000Y-112251000D02*
G01*
X147974000Y-112251000D01*
X147974000Y-111699000D01*
X149826000Y-111699000D01*
X149826000Y-112251000D01*
X149826000Y-112251000D01*
G37*
G36*
X146939438Y-111228572D02*
G01*
X146982895Y-111241754D01*
X147022934Y-111263156D01*
X147058036Y-111291964D01*
X147086844Y-111327066D01*
X147108246Y-111367105D01*
X147121428Y-111410562D01*
X147126000Y-111456982D01*
X147126000Y-111968018D01*
X147121428Y-112014438D01*
X147108246Y-112057895D01*
X147086844Y-112097934D01*
X147058036Y-112133036D01*
X147022934Y-112161844D01*
X146982895Y-112183246D01*
X146939438Y-112196428D01*
X146893018Y-112201000D01*
X146306982Y-112201000D01*
X146260562Y-112196428D01*
X146217105Y-112183246D01*
X146177066Y-112161844D01*
X146141964Y-112133036D01*
X146113156Y-112097934D01*
X146091754Y-112057895D01*
X146078572Y-112014438D01*
X146074000Y-111968018D01*
X146074000Y-111456982D01*
X146078572Y-111410562D01*
X146091754Y-111367105D01*
X146113156Y-111327066D01*
X146141964Y-111291964D01*
X146177066Y-111263156D01*
X146217105Y-111241754D01*
X146260562Y-111228572D01*
X146306982Y-111224000D01*
X146893018Y-111224000D01*
X146939438Y-111228572D01*
X146939438Y-111228572D01*
G37*
G36*
X159339438Y-111053572D02*
G01*
X159382895Y-111066754D01*
X159422934Y-111088156D01*
X159458036Y-111116964D01*
X159486844Y-111152066D01*
X159508246Y-111192105D01*
X159521428Y-111235562D01*
X159526000Y-111281982D01*
X159526000Y-111793018D01*
X159521428Y-111839438D01*
X159508246Y-111882895D01*
X159486844Y-111922934D01*
X159458036Y-111958036D01*
X159422934Y-111986844D01*
X159382895Y-112008246D01*
X159339438Y-112021428D01*
X159293018Y-112026000D01*
X158706982Y-112026000D01*
X158660562Y-112021428D01*
X158617105Y-112008246D01*
X158577066Y-111986844D01*
X158541964Y-111958036D01*
X158513156Y-111922934D01*
X158491754Y-111882895D01*
X158478572Y-111839438D01*
X158474000Y-111793018D01*
X158474000Y-111281982D01*
X158478572Y-111235562D01*
X158491754Y-111192105D01*
X158513156Y-111152066D01*
X158541964Y-111116964D01*
X158577066Y-111088156D01*
X158617105Y-111066754D01*
X158660562Y-111053572D01*
X158706982Y-111049000D01*
X159293018Y-111049000D01*
X159339438Y-111053572D01*
X159339438Y-111053572D01*
G37*
G36*
X112144780Y-109827251D02*
G01*
X112175330Y-109836519D01*
X112203492Y-109851572D01*
X112228173Y-109871827D01*
X112248428Y-109896508D01*
X112263481Y-109924670D01*
X112272749Y-109955220D01*
X112276000Y-109988231D01*
X112276000Y-111811769D01*
X112272749Y-111844780D01*
X112263481Y-111875330D01*
X112248428Y-111903492D01*
X112228173Y-111928173D01*
X112203492Y-111948428D01*
X112175330Y-111963481D01*
X112144780Y-111972749D01*
X112111769Y-111976000D01*
X111738231Y-111976000D01*
X111705220Y-111972749D01*
X111674670Y-111963481D01*
X111646508Y-111948428D01*
X111621827Y-111928173D01*
X111601572Y-111903492D01*
X111586519Y-111875330D01*
X111577251Y-111844780D01*
X111574000Y-111811769D01*
X111574000Y-109988231D01*
X111577251Y-109955220D01*
X111586519Y-109924670D01*
X111601572Y-109896508D01*
X111621827Y-109871827D01*
X111646508Y-109851572D01*
X111674670Y-109836519D01*
X111705220Y-109827251D01*
X111738231Y-109824000D01*
X112111769Y-109824000D01*
X112144780Y-109827251D01*
X112144780Y-109827251D01*
G37*
G36*
X110874780Y-109827251D02*
G01*
X110905330Y-109836519D01*
X110933492Y-109851572D01*
X110958173Y-109871827D01*
X110978428Y-109896508D01*
X110993481Y-109924670D01*
X111002749Y-109955220D01*
X111006000Y-109988231D01*
X111006000Y-111811769D01*
X111002749Y-111844780D01*
X110993481Y-111875330D01*
X110978428Y-111903492D01*
X110958173Y-111928173D01*
X110933492Y-111948428D01*
X110905330Y-111963481D01*
X110874780Y-111972749D01*
X110841769Y-111976000D01*
X110468231Y-111976000D01*
X110435220Y-111972749D01*
X110404670Y-111963481D01*
X110376508Y-111948428D01*
X110351827Y-111928173D01*
X110331572Y-111903492D01*
X110316519Y-111875330D01*
X110307251Y-111844780D01*
X110304000Y-111811769D01*
X110304000Y-109988231D01*
X110307251Y-109955220D01*
X110316519Y-109924670D01*
X110331572Y-109896508D01*
X110351827Y-109871827D01*
X110376508Y-109851572D01*
X110404670Y-109836519D01*
X110435220Y-109827251D01*
X110468231Y-109824000D01*
X110841769Y-109824000D01*
X110874780Y-109827251D01*
X110874780Y-109827251D01*
G37*
G36*
X109604780Y-109827251D02*
G01*
X109635330Y-109836519D01*
X109663492Y-109851572D01*
X109688173Y-109871827D01*
X109708428Y-109896508D01*
X109723481Y-109924670D01*
X109732749Y-109955220D01*
X109736000Y-109988231D01*
X109736000Y-111811769D01*
X109732749Y-111844780D01*
X109723481Y-111875330D01*
X109708428Y-111903492D01*
X109688173Y-111928173D01*
X109663492Y-111948428D01*
X109635330Y-111963481D01*
X109604780Y-111972749D01*
X109571769Y-111976000D01*
X109198231Y-111976000D01*
X109165220Y-111972749D01*
X109134670Y-111963481D01*
X109106508Y-111948428D01*
X109081827Y-111928173D01*
X109061572Y-111903492D01*
X109046519Y-111875330D01*
X109037251Y-111844780D01*
X109034000Y-111811769D01*
X109034000Y-109988231D01*
X109037251Y-109955220D01*
X109046519Y-109924670D01*
X109061572Y-109896508D01*
X109081827Y-109871827D01*
X109106508Y-109851572D01*
X109134670Y-109836519D01*
X109165220Y-109827251D01*
X109198231Y-109824000D01*
X109571769Y-109824000D01*
X109604780Y-109827251D01*
X109604780Y-109827251D01*
G37*
G36*
X108334780Y-109827251D02*
G01*
X108365330Y-109836519D01*
X108393492Y-109851572D01*
X108418173Y-109871827D01*
X108438428Y-109896508D01*
X108453481Y-109924670D01*
X108462749Y-109955220D01*
X108466000Y-109988231D01*
X108466000Y-111811769D01*
X108462749Y-111844780D01*
X108453481Y-111875330D01*
X108438428Y-111903492D01*
X108418173Y-111928173D01*
X108393492Y-111948428D01*
X108365330Y-111963481D01*
X108334780Y-111972749D01*
X108301769Y-111976000D01*
X107928231Y-111976000D01*
X107895220Y-111972749D01*
X107864670Y-111963481D01*
X107836508Y-111948428D01*
X107811827Y-111928173D01*
X107791572Y-111903492D01*
X107776519Y-111875330D01*
X107767251Y-111844780D01*
X107764000Y-111811769D01*
X107764000Y-109988231D01*
X107767251Y-109955220D01*
X107776519Y-109924670D01*
X107791572Y-109896508D01*
X107811827Y-109871827D01*
X107836508Y-109851572D01*
X107864670Y-109836519D01*
X107895220Y-109827251D01*
X107928231Y-109824000D01*
X108301769Y-109824000D01*
X108334780Y-109827251D01*
X108334780Y-109827251D01*
G37*
G36*
X105794780Y-109827251D02*
G01*
X105825330Y-109836519D01*
X105853492Y-109851572D01*
X105878173Y-109871827D01*
X105898428Y-109896508D01*
X105913481Y-109924670D01*
X105922749Y-109955220D01*
X105926000Y-109988231D01*
X105926000Y-111811769D01*
X105922749Y-111844780D01*
X105913481Y-111875330D01*
X105898428Y-111903492D01*
X105878173Y-111928173D01*
X105853492Y-111948428D01*
X105825330Y-111963481D01*
X105794780Y-111972749D01*
X105761769Y-111976000D01*
X105388231Y-111976000D01*
X105355220Y-111972749D01*
X105324670Y-111963481D01*
X105296508Y-111948428D01*
X105271827Y-111928173D01*
X105251572Y-111903492D01*
X105236519Y-111875330D01*
X105227251Y-111844780D01*
X105224000Y-111811769D01*
X105224000Y-109988231D01*
X105227251Y-109955220D01*
X105236519Y-109924670D01*
X105251572Y-109896508D01*
X105271827Y-109871827D01*
X105296508Y-109851572D01*
X105324670Y-109836519D01*
X105355220Y-109827251D01*
X105388231Y-109824000D01*
X105761769Y-109824000D01*
X105794780Y-109827251D01*
X105794780Y-109827251D01*
G37*
G36*
X107064780Y-109827251D02*
G01*
X107095330Y-109836519D01*
X107123492Y-109851572D01*
X107148173Y-109871827D01*
X107168428Y-109896508D01*
X107183481Y-109924670D01*
X107192749Y-109955220D01*
X107196000Y-109988231D01*
X107196000Y-111811769D01*
X107192749Y-111844780D01*
X107183481Y-111875330D01*
X107168428Y-111903492D01*
X107148173Y-111928173D01*
X107123492Y-111948428D01*
X107095330Y-111963481D01*
X107064780Y-111972749D01*
X107031769Y-111976000D01*
X106658231Y-111976000D01*
X106625220Y-111972749D01*
X106594670Y-111963481D01*
X106566508Y-111948428D01*
X106541827Y-111928173D01*
X106521572Y-111903492D01*
X106506519Y-111875330D01*
X106497251Y-111844780D01*
X106494000Y-111811769D01*
X106494000Y-109988231D01*
X106497251Y-109955220D01*
X106506519Y-109924670D01*
X106521572Y-109896508D01*
X106541827Y-109871827D01*
X106566508Y-109851572D01*
X106594670Y-109836519D01*
X106625220Y-109827251D01*
X106658231Y-109824000D01*
X107031769Y-109824000D01*
X107064780Y-109827251D01*
X107064780Y-109827251D01*
G37*
G36*
X113414780Y-109827251D02*
G01*
X113445330Y-109836519D01*
X113473492Y-109851572D01*
X113498173Y-109871827D01*
X113518428Y-109896508D01*
X113533481Y-109924670D01*
X113542749Y-109955220D01*
X113546000Y-109988231D01*
X113546000Y-111811769D01*
X113542749Y-111844780D01*
X113533481Y-111875330D01*
X113518428Y-111903492D01*
X113498173Y-111928173D01*
X113473492Y-111948428D01*
X113445330Y-111963481D01*
X113414780Y-111972749D01*
X113381769Y-111976000D01*
X113008231Y-111976000D01*
X112975220Y-111972749D01*
X112944670Y-111963481D01*
X112916508Y-111948428D01*
X112891827Y-111928173D01*
X112871572Y-111903492D01*
X112856519Y-111875330D01*
X112847251Y-111844780D01*
X112844000Y-111811769D01*
X112844000Y-109988231D01*
X112847251Y-109955220D01*
X112856519Y-109924670D01*
X112871572Y-109896508D01*
X112891827Y-109871827D01*
X112916508Y-109851572D01*
X112944670Y-109836519D01*
X112975220Y-109827251D01*
X113008231Y-109824000D01*
X113381769Y-109824000D01*
X113414780Y-109827251D01*
X113414780Y-109827251D01*
G37*
G36*
X104524780Y-109827251D02*
G01*
X104555330Y-109836519D01*
X104583492Y-109851572D01*
X104608173Y-109871827D01*
X104628428Y-109896508D01*
X104643481Y-109924670D01*
X104652749Y-109955220D01*
X104656000Y-109988231D01*
X104656000Y-111811769D01*
X104652749Y-111844780D01*
X104643481Y-111875330D01*
X104628428Y-111903492D01*
X104608173Y-111928173D01*
X104583492Y-111948428D01*
X104555330Y-111963481D01*
X104524780Y-111972749D01*
X104491769Y-111976000D01*
X104118231Y-111976000D01*
X104085220Y-111972749D01*
X104054670Y-111963481D01*
X104026508Y-111948428D01*
X104001827Y-111928173D01*
X103981572Y-111903492D01*
X103966519Y-111875330D01*
X103957251Y-111844780D01*
X103954000Y-111811769D01*
X103954000Y-109988231D01*
X103957251Y-109955220D01*
X103966519Y-109924670D01*
X103981572Y-109896508D01*
X104001827Y-109871827D01*
X104026508Y-109851572D01*
X104054670Y-109836519D01*
X104085220Y-109827251D01*
X104118231Y-109824000D01*
X104491769Y-109824000D01*
X104524780Y-109827251D01*
X104524780Y-109827251D01*
G37*
G36*
X86351000Y-111876000D02*
G01*
X84649000Y-111876000D01*
X84649000Y-111224000D01*
X86351000Y-111224000D01*
X86351000Y-111876000D01*
X86351000Y-111876000D01*
G37*
G36*
X94851000Y-111876000D02*
G01*
X93149000Y-111876000D01*
X93149000Y-111224000D01*
X94851000Y-111224000D01*
X94851000Y-111876000D01*
X94851000Y-111876000D01*
G37*
G36*
X157026000Y-111601000D02*
G01*
X155174000Y-111601000D01*
X155174000Y-111049000D01*
X157026000Y-111049000D01*
X157026000Y-111601000D01*
X157026000Y-111601000D01*
G37*
G36*
X149826000Y-111601000D02*
G01*
X147974000Y-111601000D01*
X147974000Y-111049000D01*
X149826000Y-111049000D01*
X149826000Y-111601000D01*
X149826000Y-111601000D01*
G37*
G36*
X56338165Y-109557538D02*
G01*
X56349293Y-109558634D01*
X56521700Y-109610933D01*
X56680584Y-109695859D01*
X56819849Y-109810151D01*
X56934141Y-109949416D01*
X57019067Y-110108300D01*
X57071366Y-110280707D01*
X57089025Y-110460000D01*
X57071366Y-110639293D01*
X57019067Y-110811700D01*
X56934141Y-110970584D01*
X56819849Y-111109849D01*
X56680584Y-111224141D01*
X56521700Y-111309067D01*
X56462365Y-111327066D01*
X56349293Y-111361366D01*
X56214927Y-111374600D01*
X56125073Y-111374600D01*
X55990707Y-111361366D01*
X55877635Y-111327066D01*
X55818300Y-111309067D01*
X55659416Y-111224141D01*
X55520151Y-111109849D01*
X55405859Y-110970584D01*
X55320933Y-110811700D01*
X55268634Y-110639293D01*
X55250975Y-110460000D01*
X55268634Y-110280707D01*
X55320933Y-110108300D01*
X55405859Y-109949416D01*
X55520151Y-109810151D01*
X55659416Y-109695859D01*
X55818300Y-109610933D01*
X55990707Y-109558634D01*
X56001835Y-109557538D01*
X56125073Y-109545400D01*
X56214927Y-109545400D01*
X56338165Y-109557538D01*
X56338165Y-109557538D01*
G37*
G36*
X58878165Y-109557538D02*
G01*
X58889293Y-109558634D01*
X59061700Y-109610933D01*
X59220584Y-109695859D01*
X59359849Y-109810151D01*
X59474141Y-109949416D01*
X59559067Y-110108300D01*
X59611366Y-110280707D01*
X59629025Y-110460000D01*
X59611366Y-110639293D01*
X59559067Y-110811700D01*
X59474141Y-110970584D01*
X59359849Y-111109849D01*
X59220584Y-111224141D01*
X59061700Y-111309067D01*
X59002365Y-111327066D01*
X58889293Y-111361366D01*
X58754927Y-111374600D01*
X58665073Y-111374600D01*
X58530707Y-111361366D01*
X58417635Y-111327066D01*
X58358300Y-111309067D01*
X58199416Y-111224141D01*
X58060151Y-111109849D01*
X57945859Y-110970584D01*
X57860933Y-110811700D01*
X57808634Y-110639293D01*
X57790975Y-110460000D01*
X57808634Y-110280707D01*
X57860933Y-110108300D01*
X57945859Y-109949416D01*
X58060151Y-109810151D01*
X58199416Y-109695859D01*
X58358300Y-109610933D01*
X58530707Y-109558634D01*
X58541835Y-109557538D01*
X58665073Y-109545400D01*
X58754927Y-109545400D01*
X58878165Y-109557538D01*
X58878165Y-109557538D01*
G37*
G36*
X61418165Y-109557538D02*
G01*
X61429293Y-109558634D01*
X61601700Y-109610933D01*
X61760584Y-109695859D01*
X61899849Y-109810151D01*
X62014141Y-109949416D01*
X62099067Y-110108300D01*
X62151366Y-110280707D01*
X62169025Y-110460000D01*
X62151366Y-110639293D01*
X62099067Y-110811700D01*
X62014141Y-110970584D01*
X61899849Y-111109849D01*
X61760584Y-111224141D01*
X61601700Y-111309067D01*
X61542365Y-111327066D01*
X61429293Y-111361366D01*
X61294927Y-111374600D01*
X61205073Y-111374600D01*
X61070707Y-111361366D01*
X60957635Y-111327066D01*
X60898300Y-111309067D01*
X60739416Y-111224141D01*
X60600151Y-111109849D01*
X60485859Y-110970584D01*
X60400933Y-110811700D01*
X60348634Y-110639293D01*
X60330975Y-110460000D01*
X60348634Y-110280707D01*
X60400933Y-110108300D01*
X60485859Y-109949416D01*
X60600151Y-109810151D01*
X60739416Y-109695859D01*
X60898300Y-109610933D01*
X61070707Y-109558634D01*
X61081835Y-109557538D01*
X61205073Y-109545400D01*
X61294927Y-109545400D01*
X61418165Y-109557538D01*
X61418165Y-109557538D01*
G37*
G36*
X98001000Y-111301000D02*
G01*
X95999000Y-111301000D01*
X95999000Y-110799000D01*
X98001000Y-110799000D01*
X98001000Y-111301000D01*
X98001000Y-111301000D01*
G37*
G36*
X94851000Y-111076000D02*
G01*
X93149000Y-111076000D01*
X93149000Y-110424000D01*
X94851000Y-110424000D01*
X94851000Y-111076000D01*
X94851000Y-111076000D01*
G37*
G36*
X86351000Y-111076000D02*
G01*
X84649000Y-111076000D01*
X84649000Y-110424000D01*
X86351000Y-110424000D01*
X86351000Y-111076000D01*
X86351000Y-111076000D01*
G37*
G36*
X175512812Y-109283624D02*
G01*
X175676784Y-109351544D01*
X175824354Y-109450147D01*
X175949853Y-109575646D01*
X176048456Y-109723216D01*
X176116376Y-109887188D01*
X176151000Y-110061259D01*
X176151000Y-110238741D01*
X176116376Y-110412812D01*
X176048456Y-110576784D01*
X175949853Y-110724354D01*
X175824354Y-110849853D01*
X175676784Y-110948456D01*
X175512812Y-111016376D01*
X175338741Y-111051000D01*
X175161259Y-111051000D01*
X174987188Y-111016376D01*
X174823216Y-110948456D01*
X174675646Y-110849853D01*
X174550147Y-110724354D01*
X174451544Y-110576784D01*
X174383624Y-110412812D01*
X174349000Y-110238741D01*
X174349000Y-110061259D01*
X174383624Y-109887188D01*
X174451544Y-109723216D01*
X174550147Y-109575646D01*
X174675646Y-109450147D01*
X174823216Y-109351544D01*
X174987188Y-109283624D01*
X175161259Y-109249000D01*
X175338741Y-109249000D01*
X175512812Y-109283624D01*
X175512812Y-109283624D01*
G37*
G36*
X173012812Y-109283624D02*
G01*
X173176784Y-109351544D01*
X173324354Y-109450147D01*
X173449853Y-109575646D01*
X173548456Y-109723216D01*
X173616376Y-109887188D01*
X173651000Y-110061259D01*
X173651000Y-110238741D01*
X173616376Y-110412812D01*
X173548456Y-110576784D01*
X173449853Y-110724354D01*
X173324354Y-110849853D01*
X173176784Y-110948456D01*
X173012812Y-111016376D01*
X172838741Y-111051000D01*
X172661259Y-111051000D01*
X172487188Y-111016376D01*
X172323216Y-110948456D01*
X172175646Y-110849853D01*
X172050147Y-110724354D01*
X171951544Y-110576784D01*
X171883624Y-110412812D01*
X171849000Y-110238741D01*
X171849000Y-110061259D01*
X171883624Y-109887188D01*
X171951544Y-109723216D01*
X172050147Y-109575646D01*
X172175646Y-109450147D01*
X172323216Y-109351544D01*
X172487188Y-109283624D01*
X172661259Y-109249000D01*
X172838741Y-109249000D01*
X173012812Y-109283624D01*
X173012812Y-109283624D01*
G37*
G36*
X118339438Y-110053572D02*
G01*
X118382895Y-110066754D01*
X118422934Y-110088156D01*
X118458036Y-110116964D01*
X118486844Y-110152066D01*
X118508246Y-110192105D01*
X118521428Y-110235562D01*
X118526000Y-110281982D01*
X118526000Y-110793018D01*
X118521428Y-110839438D01*
X118508246Y-110882895D01*
X118486844Y-110922934D01*
X118458036Y-110958036D01*
X118422934Y-110986844D01*
X118382895Y-111008246D01*
X118339438Y-111021428D01*
X118293018Y-111026000D01*
X117706982Y-111026000D01*
X117660562Y-111021428D01*
X117617105Y-111008246D01*
X117577066Y-110986844D01*
X117541964Y-110958036D01*
X117513156Y-110922934D01*
X117491754Y-110882895D01*
X117478572Y-110839438D01*
X117474000Y-110793018D01*
X117474000Y-110281982D01*
X117478572Y-110235562D01*
X117491754Y-110192105D01*
X117513156Y-110152066D01*
X117541964Y-110116964D01*
X117577066Y-110088156D01*
X117617105Y-110066754D01*
X117660562Y-110053572D01*
X117706982Y-110049000D01*
X118293018Y-110049000D01*
X118339438Y-110053572D01*
X118339438Y-110053572D01*
G37*
G36*
X82014438Y-109978572D02*
G01*
X82057895Y-109991754D01*
X82097934Y-110013156D01*
X82133036Y-110041964D01*
X82161844Y-110077066D01*
X82183246Y-110117105D01*
X82196428Y-110160562D01*
X82201000Y-110206982D01*
X82201000Y-110793018D01*
X82196428Y-110839438D01*
X82183246Y-110882895D01*
X82161844Y-110922934D01*
X82133036Y-110958036D01*
X82097934Y-110986844D01*
X82057895Y-111008246D01*
X82014438Y-111021428D01*
X81968018Y-111026000D01*
X81456982Y-111026000D01*
X81410562Y-111021428D01*
X81367105Y-111008246D01*
X81327066Y-110986844D01*
X81291964Y-110958036D01*
X81263156Y-110922934D01*
X81241754Y-110882895D01*
X81228572Y-110839438D01*
X81224000Y-110793018D01*
X81224000Y-110206982D01*
X81228572Y-110160562D01*
X81241754Y-110117105D01*
X81263156Y-110077066D01*
X81291964Y-110041964D01*
X81327066Y-110013156D01*
X81367105Y-109991754D01*
X81410562Y-109978572D01*
X81456982Y-109974000D01*
X81968018Y-109974000D01*
X82014438Y-109978572D01*
X82014438Y-109978572D01*
G37*
G36*
X83589438Y-109978572D02*
G01*
X83632895Y-109991754D01*
X83672934Y-110013156D01*
X83708036Y-110041964D01*
X83736844Y-110077066D01*
X83758246Y-110117105D01*
X83771428Y-110160562D01*
X83776000Y-110206982D01*
X83776000Y-110793018D01*
X83771428Y-110839438D01*
X83758246Y-110882895D01*
X83736844Y-110922934D01*
X83708036Y-110958036D01*
X83672934Y-110986844D01*
X83632895Y-111008246D01*
X83589438Y-111021428D01*
X83543018Y-111026000D01*
X83031982Y-111026000D01*
X82985562Y-111021428D01*
X82942105Y-111008246D01*
X82902066Y-110986844D01*
X82866964Y-110958036D01*
X82838156Y-110922934D01*
X82816754Y-110882895D01*
X82803572Y-110839438D01*
X82799000Y-110793018D01*
X82799000Y-110206982D01*
X82803572Y-110160562D01*
X82816754Y-110117105D01*
X82838156Y-110077066D01*
X82866964Y-110041964D01*
X82902066Y-110013156D01*
X82942105Y-109991754D01*
X82985562Y-109978572D01*
X83031982Y-109974000D01*
X83543018Y-109974000D01*
X83589438Y-109978572D01*
X83589438Y-109978572D01*
G37*
G36*
X157026000Y-110951000D02*
G01*
X155174000Y-110951000D01*
X155174000Y-110399000D01*
X157026000Y-110399000D01*
X157026000Y-110951000D01*
X157026000Y-110951000D01*
G37*
G36*
X149826000Y-110951000D02*
G01*
X147974000Y-110951000D01*
X147974000Y-110399000D01*
X149826000Y-110399000D01*
X149826000Y-110951000D01*
X149826000Y-110951000D01*
G37*
G36*
X196456000Y-110721000D02*
G01*
X192544000Y-110721000D01*
X192544000Y-106379000D01*
X196456000Y-106379000D01*
X196456000Y-110721000D01*
X196456000Y-110721000D01*
G37*
G36*
X75955039Y-108469195D02*
G01*
X76056566Y-108489390D01*
X76135629Y-108522139D01*
X76247835Y-108568616D01*
X76419973Y-108683635D01*
X76566365Y-108830027D01*
X76649509Y-108954461D01*
X76681384Y-109002165D01*
X76760610Y-109193434D01*
X76770086Y-109241072D01*
X76801000Y-109396486D01*
X76801000Y-109603514D01*
X76796925Y-109624000D01*
X76760610Y-109806566D01*
X76727216Y-109887187D01*
X76681384Y-109997835D01*
X76566365Y-110169973D01*
X76419973Y-110316365D01*
X76351940Y-110361823D01*
X76247835Y-110431384D01*
X76056566Y-110510610D01*
X75853514Y-110551000D01*
X75646486Y-110551000D01*
X75443434Y-110510610D01*
X75252165Y-110431384D01*
X75148060Y-110361823D01*
X75080027Y-110316365D01*
X74933635Y-110169973D01*
X74818616Y-109997835D01*
X74772784Y-109887187D01*
X74739390Y-109806566D01*
X74703075Y-109624000D01*
X74699000Y-109603514D01*
X74699000Y-109396486D01*
X74729914Y-109241072D01*
X74739390Y-109193434D01*
X74818616Y-109002165D01*
X74850491Y-108954461D01*
X74933635Y-108830027D01*
X75080027Y-108683635D01*
X75252165Y-108568616D01*
X75364371Y-108522139D01*
X75443434Y-108489390D01*
X75544961Y-108469195D01*
X75646486Y-108449000D01*
X75853514Y-108449000D01*
X75955039Y-108469195D01*
X75955039Y-108469195D01*
G37*
G36*
X69455039Y-108469195D02*
G01*
X69556566Y-108489390D01*
X69635629Y-108522139D01*
X69747835Y-108568616D01*
X69919973Y-108683635D01*
X70066365Y-108830027D01*
X70149509Y-108954461D01*
X70181384Y-109002165D01*
X70260610Y-109193434D01*
X70270086Y-109241072D01*
X70301000Y-109396486D01*
X70301000Y-109603514D01*
X70296925Y-109624000D01*
X70260610Y-109806566D01*
X70227216Y-109887187D01*
X70181384Y-109997835D01*
X70066365Y-110169973D01*
X69919973Y-110316365D01*
X69851940Y-110361823D01*
X69747835Y-110431384D01*
X69556566Y-110510610D01*
X69353514Y-110551000D01*
X69146486Y-110551000D01*
X68943434Y-110510610D01*
X68752165Y-110431384D01*
X68648060Y-110361823D01*
X68580027Y-110316365D01*
X68433635Y-110169973D01*
X68318616Y-109997835D01*
X68272784Y-109887187D01*
X68239390Y-109806566D01*
X68203075Y-109624000D01*
X68199000Y-109603514D01*
X68199000Y-109396486D01*
X68229914Y-109241072D01*
X68239390Y-109193434D01*
X68318616Y-109002165D01*
X68350491Y-108954461D01*
X68433635Y-108830027D01*
X68580027Y-108683635D01*
X68752165Y-108568616D01*
X68864371Y-108522139D01*
X68943434Y-108489390D01*
X69044961Y-108469195D01*
X69146486Y-108449000D01*
X69353514Y-108449000D01*
X69455039Y-108469195D01*
X69455039Y-108469195D01*
G37*
G36*
X100794316Y-109404053D02*
G01*
X100842462Y-109418657D01*
X100886823Y-109442369D01*
X100925714Y-109474286D01*
X100957631Y-109513177D01*
X100981343Y-109557538D01*
X100995947Y-109605684D01*
X101001000Y-109656982D01*
X101001000Y-110218018D01*
X100995947Y-110269316D01*
X100981343Y-110317462D01*
X100957631Y-110361823D01*
X100925714Y-110400714D01*
X100886823Y-110432631D01*
X100842462Y-110456343D01*
X100794316Y-110470947D01*
X100743018Y-110476000D01*
X99756982Y-110476000D01*
X99705684Y-110470947D01*
X99657538Y-110456343D01*
X99613177Y-110432631D01*
X99574286Y-110400714D01*
X99542369Y-110361823D01*
X99518657Y-110317462D01*
X99504053Y-110269316D01*
X99499000Y-110218018D01*
X99499000Y-109656982D01*
X99504053Y-109605684D01*
X99518657Y-109557538D01*
X99542369Y-109513177D01*
X99574286Y-109474286D01*
X99613177Y-109442369D01*
X99657538Y-109418657D01*
X99705684Y-109404053D01*
X99756982Y-109399000D01*
X100743018Y-109399000D01*
X100794316Y-109404053D01*
X100794316Y-109404053D01*
G37*
G36*
X159339438Y-109478572D02*
G01*
X159382895Y-109491754D01*
X159422934Y-109513156D01*
X159458036Y-109541964D01*
X159486844Y-109577066D01*
X159508246Y-109617105D01*
X159521428Y-109660562D01*
X159526000Y-109706982D01*
X159526000Y-110218018D01*
X159521428Y-110264438D01*
X159508246Y-110307895D01*
X159486844Y-110347934D01*
X159458036Y-110383036D01*
X159422934Y-110411844D01*
X159382895Y-110433246D01*
X159339438Y-110446428D01*
X159293018Y-110451000D01*
X158706982Y-110451000D01*
X158660562Y-110446428D01*
X158617105Y-110433246D01*
X158577066Y-110411844D01*
X158541964Y-110383036D01*
X158513156Y-110347934D01*
X158491754Y-110307895D01*
X158478572Y-110264438D01*
X158474000Y-110218018D01*
X158474000Y-109706982D01*
X158478572Y-109660562D01*
X158491754Y-109617105D01*
X158513156Y-109577066D01*
X158541964Y-109541964D01*
X158577066Y-109513156D01*
X158617105Y-109491754D01*
X158660562Y-109478572D01*
X158706982Y-109474000D01*
X159293018Y-109474000D01*
X159339438Y-109478572D01*
X159339438Y-109478572D01*
G37*
G36*
X157026000Y-110301000D02*
G01*
X155174000Y-110301000D01*
X155174000Y-109749000D01*
X157026000Y-109749000D01*
X157026000Y-110301000D01*
X157026000Y-110301000D01*
G37*
G36*
X149826000Y-110301000D02*
G01*
X147974000Y-110301000D01*
X147974000Y-109749000D01*
X149826000Y-109749000D01*
X149826000Y-110301000D01*
X149826000Y-110301000D01*
G37*
G36*
X94851000Y-110276000D02*
G01*
X93149000Y-110276000D01*
X93149000Y-109624000D01*
X94851000Y-109624000D01*
X94851000Y-110276000D01*
X94851000Y-110276000D01*
G37*
G36*
X86351000Y-110276000D02*
G01*
X84649000Y-110276000D01*
X84649000Y-109624000D01*
X86351000Y-109624000D01*
X86351000Y-110276000D01*
X86351000Y-110276000D01*
G37*
G36*
X98339438Y-109053572D02*
G01*
X98382895Y-109066754D01*
X98422934Y-109088156D01*
X98458036Y-109116964D01*
X98486844Y-109152066D01*
X98508246Y-109192105D01*
X98521428Y-109235562D01*
X98526000Y-109281982D01*
X98526000Y-109793018D01*
X98521428Y-109839438D01*
X98508246Y-109882895D01*
X98486844Y-109922934D01*
X98458036Y-109958036D01*
X98422934Y-109986844D01*
X98382895Y-110008246D01*
X98339438Y-110021428D01*
X98293018Y-110026000D01*
X97706982Y-110026000D01*
X97660562Y-110021428D01*
X97617105Y-110008246D01*
X97577066Y-109986844D01*
X97541964Y-109958036D01*
X97513156Y-109922934D01*
X97491754Y-109882895D01*
X97478572Y-109839438D01*
X97474000Y-109793018D01*
X97474000Y-109281982D01*
X97478572Y-109235562D01*
X97491754Y-109192105D01*
X97513156Y-109152066D01*
X97541964Y-109116964D01*
X97577066Y-109088156D01*
X97617105Y-109066754D01*
X97660562Y-109053572D01*
X97706982Y-109049000D01*
X98293018Y-109049000D01*
X98339438Y-109053572D01*
X98339438Y-109053572D01*
G37*
G36*
X96839438Y-109053572D02*
G01*
X96882895Y-109066754D01*
X96922934Y-109088156D01*
X96958036Y-109116964D01*
X96986844Y-109152066D01*
X97008246Y-109192105D01*
X97021428Y-109235562D01*
X97026000Y-109281982D01*
X97026000Y-109793018D01*
X97021428Y-109839438D01*
X97008246Y-109882895D01*
X96986844Y-109922934D01*
X96958036Y-109958036D01*
X96922934Y-109986844D01*
X96882895Y-110008246D01*
X96839438Y-110021428D01*
X96793018Y-110026000D01*
X96206982Y-110026000D01*
X96160562Y-110021428D01*
X96117105Y-110008246D01*
X96077066Y-109986844D01*
X96041964Y-109958036D01*
X96013156Y-109922934D01*
X95991754Y-109882895D01*
X95978572Y-109839438D01*
X95974000Y-109793018D01*
X95974000Y-109281982D01*
X95978572Y-109235562D01*
X95991754Y-109192105D01*
X96013156Y-109152066D01*
X96041964Y-109116964D01*
X96077066Y-109088156D01*
X96117105Y-109066754D01*
X96160562Y-109053572D01*
X96206982Y-109049000D01*
X96793018Y-109049000D01*
X96839438Y-109053572D01*
X96839438Y-109053572D01*
G37*
G36*
X149826000Y-109651000D02*
G01*
X147974000Y-109651000D01*
X147974000Y-109099000D01*
X149826000Y-109099000D01*
X149826000Y-109651000D01*
X149826000Y-109651000D01*
G37*
G36*
X157026000Y-109651000D02*
G01*
X155174000Y-109651000D01*
X155174000Y-109099000D01*
X157026000Y-109099000D01*
X157026000Y-109651000D01*
X157026000Y-109651000D01*
G37*
G36*
X83589438Y-108478572D02*
G01*
X83632895Y-108491754D01*
X83672934Y-108513156D01*
X83708036Y-108541964D01*
X83736844Y-108577066D01*
X83758246Y-108617105D01*
X83771428Y-108660562D01*
X83776000Y-108706982D01*
X83776000Y-109293018D01*
X83771428Y-109339438D01*
X83758246Y-109382895D01*
X83736844Y-109422934D01*
X83708036Y-109458036D01*
X83672934Y-109486844D01*
X83632895Y-109508246D01*
X83589438Y-109521428D01*
X83543018Y-109526000D01*
X83031982Y-109526000D01*
X82985562Y-109521428D01*
X82942105Y-109508246D01*
X82902066Y-109486844D01*
X82866964Y-109458036D01*
X82838156Y-109422934D01*
X82816754Y-109382895D01*
X82803572Y-109339438D01*
X82799000Y-109293018D01*
X82799000Y-108706982D01*
X82803572Y-108660562D01*
X82816754Y-108617105D01*
X82838156Y-108577066D01*
X82866964Y-108541964D01*
X82902066Y-108513156D01*
X82942105Y-108491754D01*
X82985562Y-108478572D01*
X83031982Y-108474000D01*
X83543018Y-108474000D01*
X83589438Y-108478572D01*
X83589438Y-108478572D01*
G37*
G36*
X82014438Y-108478572D02*
G01*
X82057895Y-108491754D01*
X82097934Y-108513156D01*
X82133036Y-108541964D01*
X82161844Y-108577066D01*
X82183246Y-108617105D01*
X82196428Y-108660562D01*
X82201000Y-108706982D01*
X82201000Y-109293018D01*
X82196428Y-109339438D01*
X82183246Y-109382895D01*
X82161844Y-109422934D01*
X82133036Y-109458036D01*
X82097934Y-109486844D01*
X82057895Y-109508246D01*
X82014438Y-109521428D01*
X81968018Y-109526000D01*
X81456982Y-109526000D01*
X81410562Y-109521428D01*
X81367105Y-109508246D01*
X81327066Y-109486844D01*
X81291964Y-109458036D01*
X81263156Y-109422934D01*
X81241754Y-109382895D01*
X81228572Y-109339438D01*
X81224000Y-109293018D01*
X81224000Y-108706982D01*
X81228572Y-108660562D01*
X81241754Y-108617105D01*
X81263156Y-108577066D01*
X81291964Y-108541964D01*
X81327066Y-108513156D01*
X81367105Y-108491754D01*
X81410562Y-108478572D01*
X81456982Y-108474000D01*
X81968018Y-108474000D01*
X82014438Y-108478572D01*
X82014438Y-108478572D01*
G37*
G36*
X189264438Y-108478572D02*
G01*
X189307895Y-108491754D01*
X189347934Y-108513156D01*
X189383036Y-108541964D01*
X189411844Y-108577066D01*
X189433246Y-108617105D01*
X189446428Y-108660562D01*
X189451000Y-108706982D01*
X189451000Y-109293018D01*
X189446428Y-109339438D01*
X189433246Y-109382895D01*
X189411844Y-109422934D01*
X189383036Y-109458036D01*
X189347934Y-109486844D01*
X189307895Y-109508246D01*
X189264438Y-109521428D01*
X189218018Y-109526000D01*
X188706982Y-109526000D01*
X188660562Y-109521428D01*
X188617105Y-109508246D01*
X188577066Y-109486844D01*
X188541964Y-109458036D01*
X188513156Y-109422934D01*
X188491754Y-109382895D01*
X188478572Y-109339438D01*
X188474000Y-109293018D01*
X188474000Y-108706982D01*
X188478572Y-108660562D01*
X188491754Y-108617105D01*
X188513156Y-108577066D01*
X188541964Y-108541964D01*
X188577066Y-108513156D01*
X188617105Y-108491754D01*
X188660562Y-108478572D01*
X188706982Y-108474000D01*
X189218018Y-108474000D01*
X189264438Y-108478572D01*
X189264438Y-108478572D01*
G37*
G36*
X190839438Y-108478572D02*
G01*
X190882895Y-108491754D01*
X190922934Y-108513156D01*
X190958036Y-108541964D01*
X190986844Y-108577066D01*
X191008246Y-108617105D01*
X191021428Y-108660562D01*
X191026000Y-108706982D01*
X191026000Y-109293018D01*
X191021428Y-109339438D01*
X191008246Y-109382895D01*
X190986844Y-109422934D01*
X190958036Y-109458036D01*
X190922934Y-109486844D01*
X190882895Y-109508246D01*
X190839438Y-109521428D01*
X190793018Y-109526000D01*
X190281982Y-109526000D01*
X190235562Y-109521428D01*
X190192105Y-109508246D01*
X190152066Y-109486844D01*
X190116964Y-109458036D01*
X190088156Y-109422934D01*
X190066754Y-109382895D01*
X190053572Y-109339438D01*
X190049000Y-109293018D01*
X190049000Y-108706982D01*
X190053572Y-108660562D01*
X190066754Y-108617105D01*
X190088156Y-108577066D01*
X190116964Y-108541964D01*
X190152066Y-108513156D01*
X190192105Y-108491754D01*
X190235562Y-108478572D01*
X190281982Y-108474000D01*
X190793018Y-108474000D01*
X190839438Y-108478572D01*
X190839438Y-108478572D01*
G37*
G36*
X187292683Y-108279092D02*
G01*
X187341208Y-108293811D01*
X187385923Y-108317712D01*
X187425120Y-108349880D01*
X187457288Y-108389077D01*
X187481189Y-108433792D01*
X187495908Y-108482317D01*
X187501000Y-108534010D01*
X187501000Y-109240990D01*
X187495908Y-109292683D01*
X187481189Y-109341208D01*
X187457288Y-109385923D01*
X187425120Y-109425120D01*
X187385923Y-109457288D01*
X187341208Y-109481189D01*
X187292683Y-109495908D01*
X187240990Y-109501000D01*
X184259010Y-109501000D01*
X184207317Y-109495908D01*
X184158792Y-109481189D01*
X184114077Y-109457288D01*
X184074880Y-109425120D01*
X184042712Y-109385923D01*
X184018811Y-109341208D01*
X184004092Y-109292683D01*
X183999000Y-109240990D01*
X183999000Y-108534010D01*
X184004092Y-108482317D01*
X184018811Y-108433792D01*
X184042712Y-108389077D01*
X184074880Y-108349880D01*
X184114077Y-108317712D01*
X184158792Y-108293811D01*
X184207317Y-108279092D01*
X184259010Y-108274000D01*
X187240990Y-108274000D01*
X187292683Y-108279092D01*
X187292683Y-108279092D01*
G37*
G36*
X86351000Y-109476000D02*
G01*
X84649000Y-109476000D01*
X84649000Y-108824000D01*
X86351000Y-108824000D01*
X86351000Y-109476000D01*
X86351000Y-109476000D01*
G37*
G36*
X94851000Y-109476000D02*
G01*
X93149000Y-109476000D01*
X93149000Y-108824000D01*
X94851000Y-108824000D01*
X94851000Y-109476000D01*
X94851000Y-109476000D01*
G37*
G36*
X118339438Y-108478572D02*
G01*
X118382895Y-108491754D01*
X118422934Y-108513156D01*
X118458036Y-108541964D01*
X118486844Y-108577066D01*
X118508246Y-108617105D01*
X118521428Y-108660562D01*
X118526000Y-108706982D01*
X118526000Y-109218018D01*
X118521428Y-109264438D01*
X118508246Y-109307895D01*
X118486844Y-109347934D01*
X118458036Y-109383036D01*
X118422934Y-109411844D01*
X118382895Y-109433246D01*
X118339438Y-109446428D01*
X118293018Y-109451000D01*
X117706982Y-109451000D01*
X117660562Y-109446428D01*
X117617105Y-109433246D01*
X117577066Y-109411844D01*
X117541964Y-109383036D01*
X117513156Y-109347934D01*
X117491754Y-109307895D01*
X117478572Y-109264438D01*
X117474000Y-109218018D01*
X117474000Y-108706982D01*
X117478572Y-108660562D01*
X117491754Y-108617105D01*
X117513156Y-108577066D01*
X117541964Y-108541964D01*
X117577066Y-108513156D01*
X117617105Y-108491754D01*
X117660562Y-108478572D01*
X117706982Y-108474000D01*
X118293018Y-108474000D01*
X118339438Y-108478572D01*
X118339438Y-108478572D01*
G37*
G36*
X226607637Y-105203735D02*
G01*
X226652678Y-105217398D01*
X226694182Y-105239582D01*
X226730562Y-105269438D01*
X226760418Y-105305818D01*
X226782602Y-105347322D01*
X226796265Y-105392363D01*
X226801000Y-105440432D01*
X226801000Y-109059568D01*
X226796265Y-109107637D01*
X226782602Y-109152678D01*
X226760418Y-109194182D01*
X226730562Y-109230562D01*
X226694182Y-109260418D01*
X226652678Y-109282602D01*
X226607637Y-109296265D01*
X226559568Y-109301000D01*
X224440432Y-109301000D01*
X224392363Y-109296265D01*
X224347322Y-109282602D01*
X224305818Y-109260418D01*
X224269438Y-109230562D01*
X224239582Y-109194182D01*
X224217398Y-109152678D01*
X224203735Y-109107637D01*
X224199000Y-109059568D01*
X224199000Y-105440432D01*
X224203735Y-105392363D01*
X224217398Y-105347322D01*
X224239582Y-105305818D01*
X224269438Y-105269438D01*
X224305818Y-105239582D01*
X224347322Y-105217398D01*
X224392363Y-105203735D01*
X224440432Y-105199000D01*
X226559568Y-105199000D01*
X226607637Y-105203735D01*
X226607637Y-105203735D01*
G37*
G36*
X237857637Y-105203735D02*
G01*
X237902678Y-105217398D01*
X237944182Y-105239582D01*
X237980562Y-105269438D01*
X238010418Y-105305818D01*
X238032602Y-105347322D01*
X238046265Y-105392363D01*
X238051000Y-105440432D01*
X238051000Y-109059568D01*
X238046265Y-109107637D01*
X238032602Y-109152678D01*
X238010418Y-109194182D01*
X237980562Y-109230562D01*
X237944182Y-109260418D01*
X237902678Y-109282602D01*
X237857637Y-109296265D01*
X237809568Y-109301000D01*
X235690432Y-109301000D01*
X235642363Y-109296265D01*
X235597322Y-109282602D01*
X235555818Y-109260418D01*
X235519438Y-109230562D01*
X235489582Y-109194182D01*
X235467398Y-109152678D01*
X235453735Y-109107637D01*
X235449000Y-109059568D01*
X235449000Y-105440432D01*
X235453735Y-105392363D01*
X235467398Y-105347322D01*
X235489582Y-105305818D01*
X235519438Y-105269438D01*
X235555818Y-105239582D01*
X235597322Y-105217398D01*
X235642363Y-105203735D01*
X235690432Y-105199000D01*
X237809568Y-105199000D01*
X237857637Y-105203735D01*
X237857637Y-105203735D01*
G37*
G36*
X253621000Y-109206000D02*
G01*
X249279000Y-109206000D01*
X249279000Y-105294000D01*
X253621000Y-105294000D01*
X253621000Y-109206000D01*
X253621000Y-109206000D01*
G37*
G36*
X247221000Y-109206000D02*
G01*
X242879000Y-109206000D01*
X242879000Y-105294000D01*
X247221000Y-105294000D01*
X247221000Y-109206000D01*
X247221000Y-109206000D01*
G37*
G36*
X160839438Y-107978572D02*
G01*
X160882895Y-107991754D01*
X160922934Y-108013156D01*
X160958036Y-108041964D01*
X160986844Y-108077066D01*
X161008246Y-108117105D01*
X161021428Y-108160562D01*
X161026000Y-108206982D01*
X161026000Y-108793018D01*
X161021428Y-108839438D01*
X161008246Y-108882895D01*
X160986844Y-108922934D01*
X160958036Y-108958036D01*
X160922934Y-108986844D01*
X160882895Y-109008246D01*
X160839438Y-109021428D01*
X160793018Y-109026000D01*
X160281982Y-109026000D01*
X160235562Y-109021428D01*
X160192105Y-109008246D01*
X160152066Y-108986844D01*
X160116964Y-108958036D01*
X160088156Y-108922934D01*
X160066754Y-108882895D01*
X160053572Y-108839438D01*
X160049000Y-108793018D01*
X160049000Y-108206982D01*
X160053572Y-108160562D01*
X160066754Y-108117105D01*
X160088156Y-108077066D01*
X160116964Y-108041964D01*
X160152066Y-108013156D01*
X160192105Y-107991754D01*
X160235562Y-107978572D01*
X160281982Y-107974000D01*
X160793018Y-107974000D01*
X160839438Y-107978572D01*
X160839438Y-107978572D01*
G37*
G36*
X159264438Y-107978572D02*
G01*
X159307895Y-107991754D01*
X159347934Y-108013156D01*
X159383036Y-108041964D01*
X159411844Y-108077066D01*
X159433246Y-108117105D01*
X159446428Y-108160562D01*
X159451000Y-108206982D01*
X159451000Y-108793018D01*
X159446428Y-108839438D01*
X159433246Y-108882895D01*
X159411844Y-108922934D01*
X159383036Y-108958036D01*
X159347934Y-108986844D01*
X159307895Y-109008246D01*
X159264438Y-109021428D01*
X159218018Y-109026000D01*
X158706982Y-109026000D01*
X158660562Y-109021428D01*
X158617105Y-109008246D01*
X158577066Y-108986844D01*
X158541964Y-108958036D01*
X158513156Y-108922934D01*
X158491754Y-108882895D01*
X158478572Y-108839438D01*
X158474000Y-108793018D01*
X158474000Y-108206982D01*
X158478572Y-108160562D01*
X158491754Y-108117105D01*
X158513156Y-108077066D01*
X158541964Y-108041964D01*
X158577066Y-108013156D01*
X158617105Y-107991754D01*
X158660562Y-107978572D01*
X158706982Y-107974000D01*
X159218018Y-107974000D01*
X159264438Y-107978572D01*
X159264438Y-107978572D01*
G37*
G36*
X149826000Y-109001000D02*
G01*
X147974000Y-109001000D01*
X147974000Y-108449000D01*
X149826000Y-108449000D01*
X149826000Y-109001000D01*
X149826000Y-109001000D01*
G37*
G36*
X157026000Y-109001000D02*
G01*
X155174000Y-109001000D01*
X155174000Y-108449000D01*
X157026000Y-108449000D01*
X157026000Y-109001000D01*
X157026000Y-109001000D01*
G37*
G36*
X200226000Y-108731000D02*
G01*
X198374000Y-108731000D01*
X198374000Y-108079000D01*
X200226000Y-108079000D01*
X200226000Y-108731000D01*
X200226000Y-108731000D01*
G37*
G36*
X207626000Y-108731000D02*
G01*
X205774000Y-108731000D01*
X205774000Y-108079000D01*
X207626000Y-108079000D01*
X207626000Y-108731000D01*
X207626000Y-108731000D01*
G37*
G36*
X86351000Y-108676000D02*
G01*
X84649000Y-108676000D01*
X84649000Y-108024000D01*
X86351000Y-108024000D01*
X86351000Y-108676000D01*
X86351000Y-108676000D01*
G37*
G36*
X94851000Y-108676000D02*
G01*
X93149000Y-108676000D01*
X93149000Y-108024000D01*
X94851000Y-108024000D01*
X94851000Y-108676000D01*
X94851000Y-108676000D01*
G37*
G36*
X100794316Y-107529053D02*
G01*
X100842462Y-107543657D01*
X100886823Y-107567369D01*
X100925714Y-107599286D01*
X100957631Y-107638177D01*
X100981343Y-107682538D01*
X100995947Y-107730684D01*
X101001000Y-107781982D01*
X101001000Y-108343018D01*
X100995947Y-108394316D01*
X100981343Y-108442462D01*
X100957631Y-108486823D01*
X100925714Y-108525714D01*
X100886823Y-108557631D01*
X100842462Y-108581343D01*
X100794316Y-108595947D01*
X100743018Y-108601000D01*
X99756982Y-108601000D01*
X99705684Y-108595947D01*
X99657538Y-108581343D01*
X99613177Y-108557631D01*
X99574286Y-108525714D01*
X99542369Y-108486823D01*
X99518657Y-108442462D01*
X99504053Y-108394316D01*
X99499000Y-108343018D01*
X99499000Y-107781982D01*
X99504053Y-107730684D01*
X99518657Y-107682538D01*
X99542369Y-107638177D01*
X99574286Y-107599286D01*
X99613177Y-107567369D01*
X99657538Y-107543657D01*
X99705684Y-107529053D01*
X99756982Y-107524000D01*
X100743018Y-107524000D01*
X100794316Y-107529053D01*
X100794316Y-107529053D01*
G37*
G36*
X96839438Y-107478572D02*
G01*
X96882895Y-107491754D01*
X96922934Y-107513156D01*
X96958036Y-107541964D01*
X96986844Y-107577066D01*
X97008246Y-107617105D01*
X97021428Y-107660562D01*
X97026000Y-107706982D01*
X97026000Y-108218018D01*
X97021428Y-108264438D01*
X97008246Y-108307895D01*
X96986844Y-108347934D01*
X96958036Y-108383036D01*
X96922934Y-108411844D01*
X96882895Y-108433246D01*
X96839438Y-108446428D01*
X96793018Y-108451000D01*
X96206982Y-108451000D01*
X96160562Y-108446428D01*
X96117105Y-108433246D01*
X96077066Y-108411844D01*
X96041964Y-108383036D01*
X96013156Y-108347934D01*
X95991754Y-108307895D01*
X95978572Y-108264438D01*
X95974000Y-108218018D01*
X95974000Y-107706982D01*
X95978572Y-107660562D01*
X95991754Y-107617105D01*
X96013156Y-107577066D01*
X96041964Y-107541964D01*
X96077066Y-107513156D01*
X96117105Y-107491754D01*
X96160562Y-107478572D01*
X96206982Y-107474000D01*
X96793018Y-107474000D01*
X96839438Y-107478572D01*
X96839438Y-107478572D01*
G37*
G36*
X98339438Y-107478572D02*
G01*
X98382895Y-107491754D01*
X98422934Y-107513156D01*
X98458036Y-107541964D01*
X98486844Y-107577066D01*
X98508246Y-107617105D01*
X98521428Y-107660562D01*
X98526000Y-107706982D01*
X98526000Y-108218018D01*
X98521428Y-108264438D01*
X98508246Y-108307895D01*
X98486844Y-108347934D01*
X98458036Y-108383036D01*
X98422934Y-108411844D01*
X98382895Y-108433246D01*
X98339438Y-108446428D01*
X98293018Y-108451000D01*
X97706982Y-108451000D01*
X97660562Y-108446428D01*
X97617105Y-108433246D01*
X97577066Y-108411844D01*
X97541964Y-108383036D01*
X97513156Y-108347934D01*
X97491754Y-108307895D01*
X97478572Y-108264438D01*
X97474000Y-108218018D01*
X97474000Y-107706982D01*
X97478572Y-107660562D01*
X97491754Y-107617105D01*
X97513156Y-107577066D01*
X97541964Y-107541964D01*
X97577066Y-107513156D01*
X97617105Y-107491754D01*
X97660562Y-107478572D01*
X97706982Y-107474000D01*
X98293018Y-107474000D01*
X98339438Y-107478572D01*
X98339438Y-107478572D01*
G37*
G36*
X157026000Y-108351000D02*
G01*
X155174000Y-108351000D01*
X155174000Y-107799000D01*
X157026000Y-107799000D01*
X157026000Y-108351000D01*
X157026000Y-108351000D01*
G37*
G36*
X149826000Y-108351000D02*
G01*
X147974000Y-108351000D01*
X147974000Y-107799000D01*
X149826000Y-107799000D01*
X149826000Y-108351000D01*
X149826000Y-108351000D01*
G37*
G36*
X83589438Y-106978572D02*
G01*
X83632895Y-106991754D01*
X83672934Y-107013156D01*
X83708036Y-107041964D01*
X83736844Y-107077066D01*
X83758246Y-107117105D01*
X83771428Y-107160562D01*
X83776000Y-107206982D01*
X83776000Y-107793018D01*
X83771428Y-107839438D01*
X83758246Y-107882895D01*
X83736844Y-107922934D01*
X83708036Y-107958036D01*
X83672934Y-107986844D01*
X83632895Y-108008246D01*
X83589438Y-108021428D01*
X83543018Y-108026000D01*
X83031982Y-108026000D01*
X82985562Y-108021428D01*
X82942105Y-108008246D01*
X82902066Y-107986844D01*
X82866964Y-107958036D01*
X82838156Y-107922934D01*
X82816754Y-107882895D01*
X82803572Y-107839438D01*
X82799000Y-107793018D01*
X82799000Y-107206982D01*
X82803572Y-107160562D01*
X82816754Y-107117105D01*
X82838156Y-107077066D01*
X82866964Y-107041964D01*
X82902066Y-107013156D01*
X82942105Y-106991754D01*
X82985562Y-106978572D01*
X83031982Y-106974000D01*
X83543018Y-106974000D01*
X83589438Y-106978572D01*
X83589438Y-106978572D01*
G37*
G36*
X82014438Y-106978572D02*
G01*
X82057895Y-106991754D01*
X82097934Y-107013156D01*
X82133036Y-107041964D01*
X82161844Y-107077066D01*
X82183246Y-107117105D01*
X82196428Y-107160562D01*
X82201000Y-107206982D01*
X82201000Y-107793018D01*
X82196428Y-107839438D01*
X82183246Y-107882895D01*
X82161844Y-107922934D01*
X82133036Y-107958036D01*
X82097934Y-107986844D01*
X82057895Y-108008246D01*
X82014438Y-108021428D01*
X81968018Y-108026000D01*
X81456982Y-108026000D01*
X81410562Y-108021428D01*
X81367105Y-108008246D01*
X81327066Y-107986844D01*
X81291964Y-107958036D01*
X81263156Y-107922934D01*
X81241754Y-107882895D01*
X81228572Y-107839438D01*
X81224000Y-107793018D01*
X81224000Y-107206982D01*
X81228572Y-107160562D01*
X81241754Y-107117105D01*
X81263156Y-107077066D01*
X81291964Y-107041964D01*
X81327066Y-107013156D01*
X81367105Y-106991754D01*
X81410562Y-106978572D01*
X81456982Y-106974000D01*
X81968018Y-106974000D01*
X82014438Y-106978572D01*
X82014438Y-106978572D01*
G37*
G36*
X86351000Y-107876000D02*
G01*
X84649000Y-107876000D01*
X84649000Y-107224000D01*
X86351000Y-107224000D01*
X86351000Y-107876000D01*
X86351000Y-107876000D01*
G37*
G36*
X94851000Y-107876000D02*
G01*
X93149000Y-107876000D01*
X93149000Y-107224000D01*
X94851000Y-107224000D01*
X94851000Y-107876000D01*
X94851000Y-107876000D01*
G37*
G36*
X157026000Y-107701000D02*
G01*
X155174000Y-107701000D01*
X155174000Y-107149000D01*
X157026000Y-107149000D01*
X157026000Y-107701000D01*
X157026000Y-107701000D01*
G37*
G36*
X149826000Y-107701000D02*
G01*
X147974000Y-107701000D01*
X147974000Y-107149000D01*
X149826000Y-107149000D01*
X149826000Y-107701000D01*
X149826000Y-107701000D01*
G37*
G36*
X71764438Y-106478572D02*
G01*
X71807895Y-106491754D01*
X71847934Y-106513156D01*
X71883036Y-106541964D01*
X71911844Y-106577066D01*
X71933246Y-106617105D01*
X71946428Y-106660562D01*
X71951000Y-106706982D01*
X71951000Y-107293018D01*
X71946428Y-107339438D01*
X71933246Y-107382895D01*
X71911844Y-107422934D01*
X71883036Y-107458036D01*
X71847934Y-107486844D01*
X71807895Y-107508246D01*
X71764438Y-107521428D01*
X71718018Y-107526000D01*
X71206982Y-107526000D01*
X71160562Y-107521428D01*
X71117105Y-107508246D01*
X71077066Y-107486844D01*
X71041964Y-107458036D01*
X71013156Y-107422934D01*
X70991754Y-107382895D01*
X70978572Y-107339438D01*
X70974000Y-107293018D01*
X70974000Y-106706982D01*
X70978572Y-106660562D01*
X70991754Y-106617105D01*
X71013156Y-106577066D01*
X71041964Y-106541964D01*
X71077066Y-106513156D01*
X71117105Y-106491754D01*
X71160562Y-106478572D01*
X71206982Y-106474000D01*
X71718018Y-106474000D01*
X71764438Y-106478572D01*
X71764438Y-106478572D01*
G37*
G36*
X73339438Y-106478572D02*
G01*
X73382895Y-106491754D01*
X73422934Y-106513156D01*
X73458036Y-106541964D01*
X73486844Y-106577066D01*
X73508246Y-106617105D01*
X73521428Y-106660562D01*
X73526000Y-106706982D01*
X73526000Y-107293018D01*
X73521428Y-107339438D01*
X73508246Y-107382895D01*
X73486844Y-107422934D01*
X73458036Y-107458036D01*
X73422934Y-107486844D01*
X73382895Y-107508246D01*
X73339438Y-107521428D01*
X73293018Y-107526000D01*
X72781982Y-107526000D01*
X72735562Y-107521428D01*
X72692105Y-107508246D01*
X72652066Y-107486844D01*
X72616964Y-107458036D01*
X72588156Y-107422934D01*
X72566754Y-107382895D01*
X72553572Y-107339438D01*
X72549000Y-107293018D01*
X72549000Y-106706982D01*
X72553572Y-106660562D01*
X72566754Y-106617105D01*
X72588156Y-106577066D01*
X72616964Y-106541964D01*
X72652066Y-106513156D01*
X72692105Y-106491754D01*
X72735562Y-106478572D01*
X72781982Y-106474000D01*
X73293018Y-106474000D01*
X73339438Y-106478572D01*
X73339438Y-106478572D01*
G37*
G36*
X75264438Y-106478572D02*
G01*
X75307895Y-106491754D01*
X75347934Y-106513156D01*
X75383036Y-106541964D01*
X75411844Y-106577066D01*
X75433246Y-106617105D01*
X75446428Y-106660562D01*
X75451000Y-106706982D01*
X75451000Y-107293018D01*
X75446428Y-107339438D01*
X75433246Y-107382895D01*
X75411844Y-107422934D01*
X75383036Y-107458036D01*
X75347934Y-107486844D01*
X75307895Y-107508246D01*
X75264438Y-107521428D01*
X75218018Y-107526000D01*
X74706982Y-107526000D01*
X74660562Y-107521428D01*
X74617105Y-107508246D01*
X74577066Y-107486844D01*
X74541964Y-107458036D01*
X74513156Y-107422934D01*
X74491754Y-107382895D01*
X74478572Y-107339438D01*
X74474000Y-107293018D01*
X74474000Y-106706982D01*
X74478572Y-106660562D01*
X74491754Y-106617105D01*
X74513156Y-106577066D01*
X74541964Y-106541964D01*
X74577066Y-106513156D01*
X74617105Y-106491754D01*
X74660562Y-106478572D01*
X74706982Y-106474000D01*
X75218018Y-106474000D01*
X75264438Y-106478572D01*
X75264438Y-106478572D01*
G37*
G36*
X76839438Y-106478572D02*
G01*
X76882895Y-106491754D01*
X76922934Y-106513156D01*
X76958036Y-106541964D01*
X76986844Y-106577066D01*
X77008246Y-106617105D01*
X77021428Y-106660562D01*
X77026000Y-106706982D01*
X77026000Y-107293018D01*
X77021428Y-107339438D01*
X77008246Y-107382895D01*
X76986844Y-107422934D01*
X76958036Y-107458036D01*
X76922934Y-107486844D01*
X76882895Y-107508246D01*
X76839438Y-107521428D01*
X76793018Y-107526000D01*
X76281982Y-107526000D01*
X76235562Y-107521428D01*
X76192105Y-107508246D01*
X76152066Y-107486844D01*
X76116964Y-107458036D01*
X76088156Y-107422934D01*
X76066754Y-107382895D01*
X76053572Y-107339438D01*
X76049000Y-107293018D01*
X76049000Y-106706982D01*
X76053572Y-106660562D01*
X76066754Y-106617105D01*
X76088156Y-106577066D01*
X76116964Y-106541964D01*
X76152066Y-106513156D01*
X76192105Y-106491754D01*
X76235562Y-106478572D01*
X76281982Y-106474000D01*
X76793018Y-106474000D01*
X76839438Y-106478572D01*
X76839438Y-106478572D01*
G37*
G36*
X189264438Y-106478572D02*
G01*
X189307895Y-106491754D01*
X189347934Y-106513156D01*
X189383036Y-106541964D01*
X189411844Y-106577066D01*
X189433246Y-106617105D01*
X189446428Y-106660562D01*
X189451000Y-106706982D01*
X189451000Y-107293018D01*
X189446428Y-107339438D01*
X189433246Y-107382895D01*
X189411844Y-107422934D01*
X189383036Y-107458036D01*
X189347934Y-107486844D01*
X189307895Y-107508246D01*
X189264438Y-107521428D01*
X189218018Y-107526000D01*
X188706982Y-107526000D01*
X188660562Y-107521428D01*
X188617105Y-107508246D01*
X188577066Y-107486844D01*
X188541964Y-107458036D01*
X188513156Y-107422934D01*
X188491754Y-107382895D01*
X188478572Y-107339438D01*
X188474000Y-107293018D01*
X188474000Y-106706982D01*
X188478572Y-106660562D01*
X188491754Y-106617105D01*
X188513156Y-106577066D01*
X188541964Y-106541964D01*
X188577066Y-106513156D01*
X188617105Y-106491754D01*
X188660562Y-106478572D01*
X188706982Y-106474000D01*
X189218018Y-106474000D01*
X189264438Y-106478572D01*
X189264438Y-106478572D01*
G37*
G36*
X190839438Y-106478572D02*
G01*
X190882895Y-106491754D01*
X190922934Y-106513156D01*
X190958036Y-106541964D01*
X190986844Y-106577066D01*
X191008246Y-106617105D01*
X191021428Y-106660562D01*
X191026000Y-106706982D01*
X191026000Y-107293018D01*
X191021428Y-107339438D01*
X191008246Y-107382895D01*
X190986844Y-107422934D01*
X190958036Y-107458036D01*
X190922934Y-107486844D01*
X190882895Y-107508246D01*
X190839438Y-107521428D01*
X190793018Y-107526000D01*
X190281982Y-107526000D01*
X190235562Y-107521428D01*
X190192105Y-107508246D01*
X190152066Y-107486844D01*
X190116964Y-107458036D01*
X190088156Y-107422934D01*
X190066754Y-107382895D01*
X190053572Y-107339438D01*
X190049000Y-107293018D01*
X190049000Y-106706982D01*
X190053572Y-106660562D01*
X190066754Y-106617105D01*
X190088156Y-106577066D01*
X190116964Y-106541964D01*
X190152066Y-106513156D01*
X190192105Y-106491754D01*
X190235562Y-106478572D01*
X190281982Y-106474000D01*
X190793018Y-106474000D01*
X190839438Y-106478572D01*
X190839438Y-106478572D01*
G37*
G36*
X207626000Y-107461000D02*
G01*
X205774000Y-107461000D01*
X205774000Y-106809000D01*
X207626000Y-106809000D01*
X207626000Y-107461000D01*
X207626000Y-107461000D01*
G37*
G36*
X200226000Y-107461000D02*
G01*
X198374000Y-107461000D01*
X198374000Y-106809000D01*
X200226000Y-106809000D01*
X200226000Y-107461000D01*
X200226000Y-107461000D01*
G37*
G36*
X126051000Y-107301000D02*
G01*
X115449000Y-107301000D01*
X115449000Y-103699000D01*
X126051000Y-103699000D01*
X126051000Y-107301000D01*
X126051000Y-107301000D01*
G37*
G36*
X146551000Y-107301000D02*
G01*
X135949000Y-107301000D01*
X135949000Y-103699000D01*
X146551000Y-103699000D01*
X146551000Y-107301000D01*
X146551000Y-107301000D01*
G37*
G36*
X94851000Y-107076000D02*
G01*
X93149000Y-107076000D01*
X93149000Y-106424000D01*
X94851000Y-106424000D01*
X94851000Y-107076000D01*
X94851000Y-107076000D01*
G37*
G36*
X86351000Y-107076000D02*
G01*
X84649000Y-107076000D01*
X84649000Y-106424000D01*
X86351000Y-106424000D01*
X86351000Y-107076000D01*
X86351000Y-107076000D01*
G37*
G36*
X157026000Y-107051000D02*
G01*
X155174000Y-107051000D01*
X155174000Y-106499000D01*
X157026000Y-106499000D01*
X157026000Y-107051000D01*
X157026000Y-107051000D01*
G37*
G36*
X149826000Y-107051000D02*
G01*
X147974000Y-107051000D01*
X147974000Y-106499000D01*
X149826000Y-106499000D01*
X149826000Y-107051000D01*
X149826000Y-107051000D01*
G37*
G36*
X98339438Y-105978572D02*
G01*
X98382895Y-105991754D01*
X98422934Y-106013156D01*
X98458036Y-106041964D01*
X98486844Y-106077066D01*
X98508246Y-106117105D01*
X98521428Y-106160562D01*
X98526000Y-106206982D01*
X98526000Y-106793018D01*
X98521428Y-106839438D01*
X98508246Y-106882895D01*
X98486844Y-106922934D01*
X98458036Y-106958036D01*
X98422934Y-106986844D01*
X98382895Y-107008246D01*
X98339438Y-107021428D01*
X98293018Y-107026000D01*
X97781982Y-107026000D01*
X97735562Y-107021428D01*
X97692105Y-107008246D01*
X97652066Y-106986844D01*
X97616964Y-106958036D01*
X97588156Y-106922934D01*
X97566754Y-106882895D01*
X97553572Y-106839438D01*
X97549000Y-106793018D01*
X97549000Y-106206982D01*
X97553572Y-106160562D01*
X97566754Y-106117105D01*
X97588156Y-106077066D01*
X97616964Y-106041964D01*
X97652066Y-106013156D01*
X97692105Y-105991754D01*
X97735562Y-105978572D01*
X97781982Y-105974000D01*
X98293018Y-105974000D01*
X98339438Y-105978572D01*
X98339438Y-105978572D01*
G37*
G36*
X96764438Y-105978572D02*
G01*
X96807895Y-105991754D01*
X96847934Y-106013156D01*
X96883036Y-106041964D01*
X96911844Y-106077066D01*
X96933246Y-106117105D01*
X96946428Y-106160562D01*
X96951000Y-106206982D01*
X96951000Y-106793018D01*
X96946428Y-106839438D01*
X96933246Y-106882895D01*
X96911844Y-106922934D01*
X96883036Y-106958036D01*
X96847934Y-106986844D01*
X96807895Y-107008246D01*
X96764438Y-107021428D01*
X96718018Y-107026000D01*
X96206982Y-107026000D01*
X96160562Y-107021428D01*
X96117105Y-107008246D01*
X96077066Y-106986844D01*
X96041964Y-106958036D01*
X96013156Y-106922934D01*
X95991754Y-106882895D01*
X95978572Y-106839438D01*
X95974000Y-106793018D01*
X95974000Y-106206982D01*
X95978572Y-106160562D01*
X95991754Y-106117105D01*
X96013156Y-106077066D01*
X96041964Y-106041964D01*
X96077066Y-106013156D01*
X96117105Y-105991754D01*
X96160562Y-105978572D01*
X96206982Y-105974000D01*
X96718018Y-105974000D01*
X96764438Y-105978572D01*
X96764438Y-105978572D01*
G37*
G36*
X82014438Y-105478572D02*
G01*
X82057895Y-105491754D01*
X82097934Y-105513156D01*
X82133036Y-105541964D01*
X82161844Y-105577066D01*
X82183246Y-105617105D01*
X82196428Y-105660562D01*
X82201000Y-105706982D01*
X82201000Y-106293018D01*
X82196428Y-106339438D01*
X82183246Y-106382895D01*
X82161844Y-106422934D01*
X82133036Y-106458036D01*
X82097934Y-106486844D01*
X82057895Y-106508246D01*
X82014438Y-106521428D01*
X81968018Y-106526000D01*
X81456982Y-106526000D01*
X81410562Y-106521428D01*
X81367105Y-106508246D01*
X81327066Y-106486844D01*
X81291964Y-106458036D01*
X81263156Y-106422934D01*
X81241754Y-106382895D01*
X81228572Y-106339438D01*
X81224000Y-106293018D01*
X81224000Y-105706982D01*
X81228572Y-105660562D01*
X81241754Y-105617105D01*
X81263156Y-105577066D01*
X81291964Y-105541964D01*
X81327066Y-105513156D01*
X81367105Y-105491754D01*
X81410562Y-105478572D01*
X81456982Y-105474000D01*
X81968018Y-105474000D01*
X82014438Y-105478572D01*
X82014438Y-105478572D01*
G37*
G36*
X83589438Y-105478572D02*
G01*
X83632895Y-105491754D01*
X83672934Y-105513156D01*
X83708036Y-105541964D01*
X83736844Y-105577066D01*
X83758246Y-105617105D01*
X83771428Y-105660562D01*
X83776000Y-105706982D01*
X83776000Y-106293018D01*
X83771428Y-106339438D01*
X83758246Y-106382895D01*
X83736844Y-106422934D01*
X83708036Y-106458036D01*
X83672934Y-106486844D01*
X83632895Y-106508246D01*
X83589438Y-106521428D01*
X83543018Y-106526000D01*
X83031982Y-106526000D01*
X82985562Y-106521428D01*
X82942105Y-106508246D01*
X82902066Y-106486844D01*
X82866964Y-106458036D01*
X82838156Y-106422934D01*
X82816754Y-106382895D01*
X82803572Y-106339438D01*
X82799000Y-106293018D01*
X82799000Y-105706982D01*
X82803572Y-105660562D01*
X82816754Y-105617105D01*
X82838156Y-105577066D01*
X82866964Y-105541964D01*
X82902066Y-105513156D01*
X82942105Y-105491754D01*
X82985562Y-105478572D01*
X83031982Y-105474000D01*
X83543018Y-105474000D01*
X83589438Y-105478572D01*
X83589438Y-105478572D01*
G37*
G36*
X166782059Y-104819521D02*
G01*
X166833644Y-104829782D01*
X166906529Y-104859972D01*
X166979416Y-104890163D01*
X167110608Y-104977822D01*
X167222178Y-105089392D01*
X167309837Y-105220584D01*
X167330073Y-105269438D01*
X167362334Y-105347322D01*
X167370218Y-105366357D01*
X167401000Y-105521108D01*
X167401000Y-105678892D01*
X167393171Y-105718250D01*
X167370555Y-105831952D01*
X167370218Y-105833643D01*
X167309837Y-105979416D01*
X167222178Y-106110608D01*
X167110608Y-106222178D01*
X166979416Y-106309837D01*
X166932184Y-106329401D01*
X166833644Y-106370218D01*
X166789493Y-106379000D01*
X166678892Y-106401000D01*
X166521108Y-106401000D01*
X166410507Y-106379000D01*
X166366356Y-106370218D01*
X166267816Y-106329401D01*
X166220584Y-106309837D01*
X166089392Y-106222178D01*
X165977822Y-106110608D01*
X165890163Y-105979416D01*
X165829782Y-105833643D01*
X165829446Y-105831952D01*
X165806829Y-105718250D01*
X165799000Y-105678892D01*
X165799000Y-105521108D01*
X165829782Y-105366357D01*
X165837667Y-105347322D01*
X165869927Y-105269438D01*
X165890163Y-105220584D01*
X165977822Y-105089392D01*
X166089392Y-104977822D01*
X166220584Y-104890163D01*
X166293470Y-104859973D01*
X166366356Y-104829782D01*
X166417941Y-104819521D01*
X166521108Y-104799000D01*
X166678892Y-104799000D01*
X166782059Y-104819521D01*
X166782059Y-104819521D01*
G37*
G36*
X163382059Y-104819521D02*
G01*
X163433644Y-104829782D01*
X163506529Y-104859972D01*
X163579416Y-104890163D01*
X163710608Y-104977822D01*
X163822178Y-105089392D01*
X163909837Y-105220584D01*
X163930073Y-105269438D01*
X163962334Y-105347322D01*
X163970218Y-105366357D01*
X164001000Y-105521108D01*
X164001000Y-105678892D01*
X163993171Y-105718250D01*
X163970555Y-105831952D01*
X163970218Y-105833643D01*
X163909837Y-105979416D01*
X163822178Y-106110608D01*
X163710608Y-106222178D01*
X163579416Y-106309837D01*
X163532184Y-106329401D01*
X163433644Y-106370218D01*
X163389493Y-106379000D01*
X163278892Y-106401000D01*
X163121108Y-106401000D01*
X163010507Y-106379000D01*
X162966356Y-106370218D01*
X162867816Y-106329401D01*
X162820584Y-106309837D01*
X162689392Y-106222178D01*
X162577822Y-106110608D01*
X162490163Y-105979416D01*
X162429782Y-105833643D01*
X162429446Y-105831952D01*
X162406829Y-105718250D01*
X162399000Y-105678892D01*
X162399000Y-105521108D01*
X162429782Y-105366357D01*
X162437667Y-105347322D01*
X162469927Y-105269438D01*
X162490163Y-105220584D01*
X162577822Y-105089392D01*
X162689392Y-104977822D01*
X162820584Y-104890163D01*
X162893470Y-104859973D01*
X162966356Y-104829782D01*
X163017941Y-104819521D01*
X163121108Y-104799000D01*
X163278892Y-104799000D01*
X163382059Y-104819521D01*
X163382059Y-104819521D01*
G37*
G36*
X86351000Y-106276000D02*
G01*
X84649000Y-106276000D01*
X84649000Y-105624000D01*
X86351000Y-105624000D01*
X86351000Y-106276000D01*
X86351000Y-106276000D01*
G37*
G36*
X94851000Y-106276000D02*
G01*
X93149000Y-106276000D01*
X93149000Y-105624000D01*
X94851000Y-105624000D01*
X94851000Y-106276000D01*
X94851000Y-106276000D01*
G37*
G36*
X207626000Y-106191000D02*
G01*
X205774000Y-106191000D01*
X205774000Y-105539000D01*
X207626000Y-105539000D01*
X207626000Y-106191000D01*
X207626000Y-106191000D01*
G37*
G36*
X200226000Y-106191000D02*
G01*
X198374000Y-106191000D01*
X198374000Y-105539000D01*
X200226000Y-105539000D01*
X200226000Y-106191000D01*
X200226000Y-106191000D01*
G37*
G36*
X212725755Y-104153899D02*
G01*
X212772400Y-104168048D01*
X212815379Y-104191021D01*
X212853057Y-104221943D01*
X212883979Y-104259621D01*
X212906952Y-104302600D01*
X212921101Y-104349245D01*
X212926000Y-104398982D01*
X212926000Y-105601018D01*
X212921101Y-105650755D01*
X212906952Y-105697400D01*
X212883979Y-105740379D01*
X212853057Y-105778057D01*
X212815379Y-105808979D01*
X212772400Y-105831952D01*
X212725755Y-105846101D01*
X212676018Y-105851000D01*
X209748982Y-105851000D01*
X209699245Y-105846101D01*
X209652600Y-105831952D01*
X209609621Y-105808979D01*
X209571943Y-105778057D01*
X209541021Y-105740379D01*
X209518048Y-105697400D01*
X209503899Y-105650755D01*
X209499000Y-105601018D01*
X209499000Y-104398982D01*
X209503899Y-104349245D01*
X209518048Y-104302600D01*
X209541021Y-104259621D01*
X209571943Y-104221943D01*
X209609621Y-104191021D01*
X209652600Y-104168048D01*
X209699245Y-104153899D01*
X209748982Y-104149000D01*
X212676018Y-104149000D01*
X212725755Y-104153899D01*
X212725755Y-104153899D01*
G37*
G36*
X217800755Y-104153899D02*
G01*
X217847400Y-104168048D01*
X217890379Y-104191021D01*
X217928057Y-104221943D01*
X217958979Y-104259621D01*
X217981952Y-104302600D01*
X217996101Y-104349245D01*
X218001000Y-104398982D01*
X218001000Y-105601018D01*
X217996101Y-105650755D01*
X217981952Y-105697400D01*
X217958979Y-105740379D01*
X217928057Y-105778057D01*
X217890379Y-105808979D01*
X217847400Y-105831952D01*
X217800755Y-105846101D01*
X217751018Y-105851000D01*
X214823982Y-105851000D01*
X214774245Y-105846101D01*
X214727600Y-105831952D01*
X214684621Y-105808979D01*
X214646943Y-105778057D01*
X214616021Y-105740379D01*
X214593048Y-105697400D01*
X214578899Y-105650755D01*
X214574000Y-105601018D01*
X214574000Y-104398982D01*
X214578899Y-104349245D01*
X214593048Y-104302600D01*
X214616021Y-104259621D01*
X214646943Y-104221943D01*
X214684621Y-104191021D01*
X214727600Y-104168048D01*
X214774245Y-104153899D01*
X214823982Y-104149000D01*
X217751018Y-104149000D01*
X217800755Y-104153899D01*
X217800755Y-104153899D01*
G37*
G36*
X73576000Y-105681000D02*
G01*
X72824000Y-105681000D01*
X72824000Y-104519000D01*
X73576000Y-104519000D01*
X73576000Y-105681000D01*
X73576000Y-105681000D01*
G37*
G36*
X71676000Y-105681000D02*
G01*
X70924000Y-105681000D01*
X70924000Y-104519000D01*
X71676000Y-104519000D01*
X71676000Y-105681000D01*
X71676000Y-105681000D01*
G37*
G36*
X72626000Y-105681000D02*
G01*
X71874000Y-105681000D01*
X71874000Y-104519000D01*
X72626000Y-104519000D01*
X72626000Y-105681000D01*
X72626000Y-105681000D01*
G37*
G36*
X98339438Y-104478572D02*
G01*
X98382895Y-104491754D01*
X98422934Y-104513156D01*
X98458036Y-104541964D01*
X98486844Y-104577066D01*
X98508246Y-104617105D01*
X98521428Y-104660562D01*
X98526000Y-104706982D01*
X98526000Y-105293018D01*
X98521428Y-105339438D01*
X98508246Y-105382895D01*
X98486844Y-105422934D01*
X98458036Y-105458036D01*
X98422934Y-105486844D01*
X98382895Y-105508246D01*
X98339438Y-105521428D01*
X98293018Y-105526000D01*
X97781982Y-105526000D01*
X97735562Y-105521428D01*
X97692105Y-105508246D01*
X97652066Y-105486844D01*
X97616964Y-105458036D01*
X97588156Y-105422934D01*
X97566754Y-105382895D01*
X97553572Y-105339438D01*
X97549000Y-105293018D01*
X97549000Y-104706982D01*
X97553572Y-104660562D01*
X97566754Y-104617105D01*
X97588156Y-104577066D01*
X97616964Y-104541964D01*
X97652066Y-104513156D01*
X97692105Y-104491754D01*
X97735562Y-104478572D01*
X97781982Y-104474000D01*
X98293018Y-104474000D01*
X98339438Y-104478572D01*
X98339438Y-104478572D01*
G37*
G36*
X75264438Y-104478572D02*
G01*
X75307895Y-104491754D01*
X75347934Y-104513156D01*
X75383036Y-104541964D01*
X75411844Y-104577066D01*
X75433246Y-104617105D01*
X75446428Y-104660562D01*
X75451000Y-104706982D01*
X75451000Y-105293018D01*
X75446428Y-105339438D01*
X75433246Y-105382895D01*
X75411844Y-105422934D01*
X75383036Y-105458036D01*
X75347934Y-105486844D01*
X75307895Y-105508246D01*
X75264438Y-105521428D01*
X75218018Y-105526000D01*
X74706982Y-105526000D01*
X74660562Y-105521428D01*
X74617105Y-105508246D01*
X74577066Y-105486844D01*
X74541964Y-105458036D01*
X74513156Y-105422934D01*
X74491754Y-105382895D01*
X74478572Y-105339438D01*
X74474000Y-105293018D01*
X74474000Y-104706982D01*
X74478572Y-104660562D01*
X74491754Y-104617105D01*
X74513156Y-104577066D01*
X74541964Y-104541964D01*
X74577066Y-104513156D01*
X74617105Y-104491754D01*
X74660562Y-104478572D01*
X74706982Y-104474000D01*
X75218018Y-104474000D01*
X75264438Y-104478572D01*
X75264438Y-104478572D01*
G37*
G36*
X76839438Y-104478572D02*
G01*
X76882895Y-104491754D01*
X76922934Y-104513156D01*
X76958036Y-104541964D01*
X76986844Y-104577066D01*
X77008246Y-104617105D01*
X77021428Y-104660562D01*
X77026000Y-104706982D01*
X77026000Y-105293018D01*
X77021428Y-105339438D01*
X77008246Y-105382895D01*
X76986844Y-105422934D01*
X76958036Y-105458036D01*
X76922934Y-105486844D01*
X76882895Y-105508246D01*
X76839438Y-105521428D01*
X76793018Y-105526000D01*
X76281982Y-105526000D01*
X76235562Y-105521428D01*
X76192105Y-105508246D01*
X76152066Y-105486844D01*
X76116964Y-105458036D01*
X76088156Y-105422934D01*
X76066754Y-105382895D01*
X76053572Y-105339438D01*
X76049000Y-105293018D01*
X76049000Y-104706982D01*
X76053572Y-104660562D01*
X76066754Y-104617105D01*
X76088156Y-104577066D01*
X76116964Y-104541964D01*
X76152066Y-104513156D01*
X76192105Y-104491754D01*
X76235562Y-104478572D01*
X76281982Y-104474000D01*
X76793018Y-104474000D01*
X76839438Y-104478572D01*
X76839438Y-104478572D01*
G37*
G36*
X96764438Y-104478572D02*
G01*
X96807895Y-104491754D01*
X96847934Y-104513156D01*
X96883036Y-104541964D01*
X96911844Y-104577066D01*
X96933246Y-104617105D01*
X96946428Y-104660562D01*
X96951000Y-104706982D01*
X96951000Y-105293018D01*
X96946428Y-105339438D01*
X96933246Y-105382895D01*
X96911844Y-105422934D01*
X96883036Y-105458036D01*
X96847934Y-105486844D01*
X96807895Y-105508246D01*
X96764438Y-105521428D01*
X96718018Y-105526000D01*
X96206982Y-105526000D01*
X96160562Y-105521428D01*
X96117105Y-105508246D01*
X96077066Y-105486844D01*
X96041964Y-105458036D01*
X96013156Y-105422934D01*
X95991754Y-105382895D01*
X95978572Y-105339438D01*
X95974000Y-105293018D01*
X95974000Y-104706982D01*
X95978572Y-104660562D01*
X95991754Y-104617105D01*
X96013156Y-104577066D01*
X96041964Y-104541964D01*
X96077066Y-104513156D01*
X96117105Y-104491754D01*
X96160562Y-104478572D01*
X96206982Y-104474000D01*
X96718018Y-104474000D01*
X96764438Y-104478572D01*
X96764438Y-104478572D01*
G37*
G36*
X90476000Y-105351000D02*
G01*
X89824000Y-105351000D01*
X89824000Y-103649000D01*
X90476000Y-103649000D01*
X90476000Y-105351000D01*
X90476000Y-105351000D01*
G37*
G36*
X92876000Y-105351000D02*
G01*
X92224000Y-105351000D01*
X92224000Y-103649000D01*
X92876000Y-103649000D01*
X92876000Y-105351000D01*
X92876000Y-105351000D01*
G37*
G36*
X92076000Y-105351000D02*
G01*
X91424000Y-105351000D01*
X91424000Y-103649000D01*
X92076000Y-103649000D01*
X92076000Y-105351000D01*
X92076000Y-105351000D01*
G37*
G36*
X91276000Y-105351000D02*
G01*
X90624000Y-105351000D01*
X90624000Y-103649000D01*
X91276000Y-103649000D01*
X91276000Y-105351000D01*
X91276000Y-105351000D01*
G37*
G36*
X89676000Y-105351000D02*
G01*
X89024000Y-105351000D01*
X89024000Y-103649000D01*
X89676000Y-103649000D01*
X89676000Y-105351000D01*
X89676000Y-105351000D01*
G37*
G36*
X88876000Y-105351000D02*
G01*
X88224000Y-105351000D01*
X88224000Y-103649000D01*
X88876000Y-103649000D01*
X88876000Y-105351000D01*
X88876000Y-105351000D01*
G37*
G36*
X88076000Y-105351000D02*
G01*
X87424000Y-105351000D01*
X87424000Y-103649000D01*
X88076000Y-103649000D01*
X88076000Y-105351000D01*
X88076000Y-105351000D01*
G37*
G36*
X87276000Y-105351000D02*
G01*
X86624000Y-105351000D01*
X86624000Y-103649000D01*
X87276000Y-103649000D01*
X87276000Y-105351000D01*
X87276000Y-105351000D01*
G37*
G36*
X187292683Y-104004092D02*
G01*
X187341208Y-104018811D01*
X187385923Y-104042712D01*
X187425120Y-104074880D01*
X187457288Y-104114077D01*
X187481189Y-104158792D01*
X187495908Y-104207317D01*
X187501000Y-104259010D01*
X187501000Y-104965990D01*
X187495908Y-105017683D01*
X187481189Y-105066208D01*
X187457288Y-105110923D01*
X187425120Y-105150120D01*
X187385923Y-105182288D01*
X187341208Y-105206189D01*
X187292683Y-105220908D01*
X187240990Y-105226000D01*
X184259010Y-105226000D01*
X184207317Y-105220908D01*
X184158792Y-105206189D01*
X184114077Y-105182288D01*
X184074880Y-105150120D01*
X184042712Y-105110923D01*
X184018811Y-105066208D01*
X184004092Y-105017683D01*
X183999000Y-104965990D01*
X183999000Y-104259010D01*
X184004092Y-104207317D01*
X184018811Y-104158792D01*
X184042712Y-104114077D01*
X184074880Y-104074880D01*
X184114077Y-104042712D01*
X184158792Y-104018811D01*
X184207317Y-104004092D01*
X184259010Y-103999000D01*
X187240990Y-103999000D01*
X187292683Y-104004092D01*
X187292683Y-104004092D01*
G37*
G36*
X200226000Y-104921000D02*
G01*
X198374000Y-104921000D01*
X198374000Y-104269000D01*
X200226000Y-104269000D01*
X200226000Y-104921000D01*
X200226000Y-104921000D01*
G37*
G36*
X207626000Y-104921000D02*
G01*
X205774000Y-104921000D01*
X205774000Y-104269000D01*
X207626000Y-104269000D01*
X207626000Y-104921000D01*
X207626000Y-104921000D01*
G37*
G36*
X168589438Y-103303572D02*
G01*
X168632895Y-103316754D01*
X168672934Y-103338156D01*
X168708036Y-103366964D01*
X168736844Y-103402066D01*
X168758246Y-103442105D01*
X168771428Y-103485562D01*
X168776000Y-103531982D01*
X168776000Y-104043018D01*
X168771428Y-104089438D01*
X168758246Y-104132895D01*
X168736844Y-104172934D01*
X168708036Y-104208036D01*
X168672934Y-104236844D01*
X168632895Y-104258246D01*
X168589438Y-104271428D01*
X168543018Y-104276000D01*
X167956982Y-104276000D01*
X167910562Y-104271428D01*
X167867105Y-104258246D01*
X167827066Y-104236844D01*
X167791964Y-104208036D01*
X167763156Y-104172934D01*
X167741754Y-104132895D01*
X167728572Y-104089438D01*
X167724000Y-104043018D01*
X167724000Y-103531982D01*
X167728572Y-103485562D01*
X167741754Y-103442105D01*
X167763156Y-103402066D01*
X167791964Y-103366964D01*
X167827066Y-103338156D01*
X167867105Y-103316754D01*
X167910562Y-103303572D01*
X167956982Y-103299000D01*
X168543018Y-103299000D01*
X168589438Y-103303572D01*
X168589438Y-103303572D01*
G37*
G36*
X170339438Y-103303572D02*
G01*
X170382895Y-103316754D01*
X170422934Y-103338156D01*
X170458036Y-103366964D01*
X170486844Y-103402066D01*
X170508246Y-103442105D01*
X170521428Y-103485562D01*
X170526000Y-103531982D01*
X170526000Y-104043018D01*
X170521428Y-104089438D01*
X170508246Y-104132895D01*
X170486844Y-104172934D01*
X170458036Y-104208036D01*
X170422934Y-104236844D01*
X170382895Y-104258246D01*
X170339438Y-104271428D01*
X170293018Y-104276000D01*
X169706982Y-104276000D01*
X169660562Y-104271428D01*
X169617105Y-104258246D01*
X169577066Y-104236844D01*
X169541964Y-104208036D01*
X169513156Y-104172934D01*
X169491754Y-104132895D01*
X169478572Y-104089438D01*
X169474000Y-104043018D01*
X169474000Y-103531982D01*
X169478572Y-103485562D01*
X169491754Y-103442105D01*
X169513156Y-103402066D01*
X169541964Y-103366964D01*
X169577066Y-103338156D01*
X169617105Y-103316754D01*
X169660562Y-103303572D01*
X169706982Y-103299000D01*
X170293018Y-103299000D01*
X170339438Y-103303572D01*
X170339438Y-103303572D01*
G37*
G36*
X174792683Y-103029092D02*
G01*
X174841208Y-103043811D01*
X174885923Y-103067712D01*
X174925120Y-103099880D01*
X174957288Y-103139077D01*
X174981189Y-103183792D01*
X174995908Y-103232317D01*
X175001000Y-103284010D01*
X175001000Y-103990990D01*
X174995908Y-104042683D01*
X174981189Y-104091208D01*
X174957288Y-104135923D01*
X174925120Y-104175120D01*
X174885923Y-104207288D01*
X174841208Y-104231189D01*
X174792683Y-104245908D01*
X174740990Y-104251000D01*
X171759010Y-104251000D01*
X171707317Y-104245908D01*
X171658792Y-104231189D01*
X171614077Y-104207288D01*
X171574880Y-104175120D01*
X171542712Y-104135923D01*
X171518811Y-104091208D01*
X171504092Y-104042683D01*
X171499000Y-103990990D01*
X171499000Y-103284010D01*
X171504092Y-103232317D01*
X171518811Y-103183792D01*
X171542712Y-103139077D01*
X171574880Y-103099880D01*
X171614077Y-103067712D01*
X171658792Y-103043811D01*
X171707317Y-103029092D01*
X171759010Y-103024000D01*
X174740990Y-103024000D01*
X174792683Y-103029092D01*
X174792683Y-103029092D01*
G37*
G36*
X191400755Y-101303899D02*
G01*
X191447400Y-101318048D01*
X191490379Y-101341021D01*
X191528057Y-101371943D01*
X191558979Y-101409621D01*
X191581952Y-101452600D01*
X191596101Y-101499245D01*
X191601000Y-101548982D01*
X191601000Y-103801018D01*
X191596101Y-103850755D01*
X191581952Y-103897400D01*
X191558979Y-103940379D01*
X191528057Y-103978057D01*
X191490379Y-104008979D01*
X191447400Y-104031952D01*
X191400755Y-104046101D01*
X191351018Y-104051000D01*
X190148982Y-104051000D01*
X190099245Y-104046101D01*
X190052600Y-104031952D01*
X190009621Y-104008979D01*
X189971943Y-103978057D01*
X189941021Y-103940379D01*
X189918048Y-103897400D01*
X189903899Y-103850755D01*
X189899000Y-103801018D01*
X189899000Y-101548982D01*
X189903899Y-101499245D01*
X189918048Y-101452600D01*
X189941021Y-101409621D01*
X189971943Y-101371943D01*
X190009621Y-101341021D01*
X190052600Y-101318048D01*
X190099245Y-101303899D01*
X190148982Y-101299000D01*
X191351018Y-101299000D01*
X191400755Y-101303899D01*
X191400755Y-101303899D01*
G37*
G36*
X179150755Y-101303899D02*
G01*
X179197400Y-101318048D01*
X179240379Y-101341021D01*
X179278057Y-101371943D01*
X179308979Y-101409621D01*
X179331952Y-101452600D01*
X179346101Y-101499245D01*
X179351000Y-101548982D01*
X179351000Y-103801018D01*
X179346101Y-103850755D01*
X179331952Y-103897400D01*
X179308979Y-103940379D01*
X179278057Y-103978057D01*
X179240379Y-104008979D01*
X179197400Y-104031952D01*
X179150755Y-104046101D01*
X179101018Y-104051000D01*
X177898982Y-104051000D01*
X177849245Y-104046101D01*
X177802600Y-104031952D01*
X177759621Y-104008979D01*
X177721943Y-103978057D01*
X177691021Y-103940379D01*
X177668048Y-103897400D01*
X177653899Y-103850755D01*
X177649000Y-103801018D01*
X177649000Y-101548982D01*
X177653899Y-101499245D01*
X177668048Y-101452600D01*
X177691021Y-101409621D01*
X177721943Y-101371943D01*
X177759621Y-101341021D01*
X177802600Y-101318048D01*
X177849245Y-101303899D01*
X177898982Y-101299000D01*
X179101018Y-101299000D01*
X179150755Y-101303899D01*
X179150755Y-101303899D01*
G37*
G36*
X75264438Y-102478572D02*
G01*
X75307895Y-102491754D01*
X75347934Y-102513156D01*
X75383036Y-102541964D01*
X75411844Y-102577066D01*
X75433246Y-102617105D01*
X75446428Y-102660562D01*
X75451000Y-102706982D01*
X75451000Y-103293018D01*
X75446428Y-103339438D01*
X75433246Y-103382895D01*
X75411844Y-103422934D01*
X75383036Y-103458036D01*
X75347934Y-103486844D01*
X75307895Y-103508246D01*
X75264438Y-103521428D01*
X75218018Y-103526000D01*
X74706982Y-103526000D01*
X74660562Y-103521428D01*
X74617105Y-103508246D01*
X74577066Y-103486844D01*
X74541964Y-103458036D01*
X74513156Y-103422934D01*
X74491754Y-103382895D01*
X74478572Y-103339438D01*
X74474000Y-103293018D01*
X74474000Y-102706982D01*
X74478572Y-102660562D01*
X74491754Y-102617105D01*
X74513156Y-102577066D01*
X74541964Y-102541964D01*
X74577066Y-102513156D01*
X74617105Y-102491754D01*
X74660562Y-102478572D01*
X74706982Y-102474000D01*
X75218018Y-102474000D01*
X75264438Y-102478572D01*
X75264438Y-102478572D01*
G37*
G36*
X76839438Y-102478572D02*
G01*
X76882895Y-102491754D01*
X76922934Y-102513156D01*
X76958036Y-102541964D01*
X76986844Y-102577066D01*
X77008246Y-102617105D01*
X77021428Y-102660562D01*
X77026000Y-102706982D01*
X77026000Y-103293018D01*
X77021428Y-103339438D01*
X77008246Y-103382895D01*
X76986844Y-103422934D01*
X76958036Y-103458036D01*
X76922934Y-103486844D01*
X76882895Y-103508246D01*
X76839438Y-103521428D01*
X76793018Y-103526000D01*
X76281982Y-103526000D01*
X76235562Y-103521428D01*
X76192105Y-103508246D01*
X76152066Y-103486844D01*
X76116964Y-103458036D01*
X76088156Y-103422934D01*
X76066754Y-103382895D01*
X76053572Y-103339438D01*
X76049000Y-103293018D01*
X76049000Y-102706982D01*
X76053572Y-102660562D01*
X76066754Y-102617105D01*
X76088156Y-102577066D01*
X76116964Y-102541964D01*
X76152066Y-102513156D01*
X76192105Y-102491754D01*
X76235562Y-102478572D01*
X76281982Y-102474000D01*
X76793018Y-102474000D01*
X76839438Y-102478572D01*
X76839438Y-102478572D01*
G37*
G36*
X73576000Y-103481000D02*
G01*
X72824000Y-103481000D01*
X72824000Y-102319000D01*
X73576000Y-102319000D01*
X73576000Y-103481000D01*
X73576000Y-103481000D01*
G37*
G36*
X71676000Y-103481000D02*
G01*
X70924000Y-103481000D01*
X70924000Y-102319000D01*
X71676000Y-102319000D01*
X71676000Y-103481000D01*
X71676000Y-103481000D01*
G37*
G36*
X161089438Y-102353572D02*
G01*
X161132895Y-102366754D01*
X161172934Y-102388156D01*
X161208036Y-102416964D01*
X161236844Y-102452066D01*
X161258246Y-102492105D01*
X161271428Y-102535562D01*
X161276000Y-102581982D01*
X161276000Y-103093018D01*
X161271428Y-103139438D01*
X161258246Y-103182895D01*
X161236844Y-103222934D01*
X161208036Y-103258036D01*
X161172934Y-103286844D01*
X161132895Y-103308246D01*
X161089438Y-103321428D01*
X161043018Y-103326000D01*
X160456982Y-103326000D01*
X160410562Y-103321428D01*
X160367105Y-103308246D01*
X160327066Y-103286844D01*
X160291964Y-103258036D01*
X160263156Y-103222934D01*
X160241754Y-103182895D01*
X160228572Y-103139438D01*
X160224000Y-103093018D01*
X160224000Y-102581982D01*
X160228572Y-102535562D01*
X160241754Y-102492105D01*
X160263156Y-102452066D01*
X160291964Y-102416964D01*
X160327066Y-102388156D01*
X160367105Y-102366754D01*
X160410562Y-102353572D01*
X160456982Y-102349000D01*
X161043018Y-102349000D01*
X161089438Y-102353572D01*
X161089438Y-102353572D01*
G37*
G36*
X56448282Y-96873934D02*
G01*
X57039926Y-97119001D01*
X57572392Y-97474784D01*
X58025216Y-97927608D01*
X58380999Y-98460074D01*
X58626066Y-99051718D01*
X58751000Y-99679804D01*
X58751000Y-100320196D01*
X58626066Y-100948282D01*
X58380999Y-101539926D01*
X58025216Y-102072392D01*
X57572392Y-102525216D01*
X57039926Y-102880999D01*
X56448282Y-103126066D01*
X55820196Y-103251000D01*
X55179804Y-103251000D01*
X54551718Y-103126066D01*
X53960074Y-102880999D01*
X53427608Y-102525216D01*
X52974784Y-102072392D01*
X52619001Y-101539926D01*
X52373934Y-100948282D01*
X52249000Y-100320196D01*
X52249000Y-99679804D01*
X52373934Y-99051718D01*
X52619001Y-98460074D01*
X52974784Y-97927608D01*
X53427608Y-97474784D01*
X53960074Y-97119001D01*
X54551718Y-96873934D01*
X55179804Y-96749000D01*
X55820196Y-96749000D01*
X56448282Y-96873934D01*
X56448282Y-96873934D01*
G37*
G36*
X251448282Y-96873934D02*
G01*
X252039926Y-97119001D01*
X252572392Y-97474784D01*
X253025216Y-97927608D01*
X253380999Y-98460074D01*
X253626066Y-99051718D01*
X253751000Y-99679804D01*
X253751000Y-100320196D01*
X253626066Y-100948282D01*
X253380999Y-101539926D01*
X253025216Y-102072392D01*
X252572392Y-102525216D01*
X252039926Y-102880999D01*
X251448282Y-103126066D01*
X250820196Y-103251000D01*
X250179804Y-103251000D01*
X249551718Y-103126066D01*
X248960074Y-102880999D01*
X248427608Y-102525216D01*
X247974784Y-102072392D01*
X247619001Y-101539926D01*
X247373934Y-100948282D01*
X247249000Y-100320196D01*
X247249000Y-99679804D01*
X247373934Y-99051718D01*
X247619001Y-98460074D01*
X247974784Y-97927608D01*
X248427608Y-97474784D01*
X248960074Y-97119001D01*
X249551718Y-96873934D01*
X250179804Y-96749000D01*
X250820196Y-96749000D01*
X251448282Y-96873934D01*
X251448282Y-96873934D01*
G37*
G36*
X164826000Y-103231000D02*
G01*
X164074000Y-103231000D01*
X164074000Y-102069000D01*
X164826000Y-102069000D01*
X164826000Y-103231000D01*
X164826000Y-103231000D01*
G37*
G36*
X162926000Y-103231000D02*
G01*
X162174000Y-103231000D01*
X162174000Y-102069000D01*
X162926000Y-102069000D01*
X162926000Y-103231000D01*
X162926000Y-103231000D01*
G37*
G36*
X183151000Y-103151000D02*
G01*
X181849000Y-103151000D01*
X181849000Y-102149000D01*
X183151000Y-102149000D01*
X183151000Y-103151000D01*
X183151000Y-103151000D01*
G37*
G36*
X170339438Y-101728572D02*
G01*
X170382895Y-101741754D01*
X170422934Y-101763156D01*
X170458036Y-101791964D01*
X170486844Y-101827066D01*
X170508246Y-101867105D01*
X170521428Y-101910562D01*
X170526000Y-101956982D01*
X170526000Y-102468018D01*
X170521428Y-102514438D01*
X170508246Y-102557895D01*
X170486844Y-102597934D01*
X170458036Y-102633036D01*
X170422934Y-102661844D01*
X170382895Y-102683246D01*
X170339438Y-102696428D01*
X170293018Y-102701000D01*
X169706982Y-102701000D01*
X169660562Y-102696428D01*
X169617105Y-102683246D01*
X169577066Y-102661844D01*
X169541964Y-102633036D01*
X169513156Y-102597934D01*
X169491754Y-102557895D01*
X169478572Y-102514438D01*
X169474000Y-102468018D01*
X169474000Y-101956982D01*
X169478572Y-101910562D01*
X169491754Y-101867105D01*
X169513156Y-101827066D01*
X169541964Y-101791964D01*
X169577066Y-101763156D01*
X169617105Y-101741754D01*
X169660562Y-101728572D01*
X169706982Y-101724000D01*
X170293018Y-101724000D01*
X170339438Y-101728572D01*
X170339438Y-101728572D01*
G37*
G36*
X168589438Y-101728572D02*
G01*
X168632895Y-101741754D01*
X168672934Y-101763156D01*
X168708036Y-101791964D01*
X168736844Y-101827066D01*
X168758246Y-101867105D01*
X168771428Y-101910562D01*
X168776000Y-101956982D01*
X168776000Y-102468018D01*
X168771428Y-102514438D01*
X168758246Y-102557895D01*
X168736844Y-102597934D01*
X168708036Y-102633036D01*
X168672934Y-102661844D01*
X168632895Y-102683246D01*
X168589438Y-102696428D01*
X168543018Y-102701000D01*
X167956982Y-102701000D01*
X167910562Y-102696428D01*
X167867105Y-102683246D01*
X167827066Y-102661844D01*
X167791964Y-102633036D01*
X167763156Y-102597934D01*
X167741754Y-102557895D01*
X167728572Y-102514438D01*
X167724000Y-102468018D01*
X167724000Y-101956982D01*
X167728572Y-101910562D01*
X167741754Y-101867105D01*
X167763156Y-101827066D01*
X167791964Y-101791964D01*
X167827066Y-101763156D01*
X167867105Y-101741754D01*
X167910562Y-101728572D01*
X167956982Y-101724000D01*
X168543018Y-101724000D01*
X168589438Y-101728572D01*
X168589438Y-101728572D01*
G37*
G36*
X104524780Y-100527251D02*
G01*
X104555330Y-100536519D01*
X104583492Y-100551572D01*
X104608173Y-100571827D01*
X104628428Y-100596508D01*
X104643481Y-100624670D01*
X104652749Y-100655220D01*
X104656000Y-100688231D01*
X104656000Y-102511769D01*
X104652749Y-102544780D01*
X104643481Y-102575330D01*
X104628428Y-102603492D01*
X104608173Y-102628173D01*
X104583492Y-102648428D01*
X104555330Y-102663481D01*
X104524780Y-102672749D01*
X104491769Y-102676000D01*
X104118231Y-102676000D01*
X104085220Y-102672749D01*
X104054670Y-102663481D01*
X104026508Y-102648428D01*
X104001827Y-102628173D01*
X103981572Y-102603492D01*
X103966519Y-102575330D01*
X103957251Y-102544780D01*
X103954000Y-102511769D01*
X103954000Y-100688231D01*
X103957251Y-100655220D01*
X103966519Y-100624670D01*
X103981572Y-100596508D01*
X104001827Y-100571827D01*
X104026508Y-100551572D01*
X104054670Y-100536519D01*
X104085220Y-100527251D01*
X104118231Y-100524000D01*
X104491769Y-100524000D01*
X104524780Y-100527251D01*
X104524780Y-100527251D01*
G37*
G36*
X113414780Y-100527251D02*
G01*
X113445330Y-100536519D01*
X113473492Y-100551572D01*
X113498173Y-100571827D01*
X113518428Y-100596508D01*
X113533481Y-100624670D01*
X113542749Y-100655220D01*
X113546000Y-100688231D01*
X113546000Y-102511769D01*
X113542749Y-102544780D01*
X113533481Y-102575330D01*
X113518428Y-102603492D01*
X113498173Y-102628173D01*
X113473492Y-102648428D01*
X113445330Y-102663481D01*
X113414780Y-102672749D01*
X113381769Y-102676000D01*
X113008231Y-102676000D01*
X112975220Y-102672749D01*
X112944670Y-102663481D01*
X112916508Y-102648428D01*
X112891827Y-102628173D01*
X112871572Y-102603492D01*
X112856519Y-102575330D01*
X112847251Y-102544780D01*
X112844000Y-102511769D01*
X112844000Y-100688231D01*
X112847251Y-100655220D01*
X112856519Y-100624670D01*
X112871572Y-100596508D01*
X112891827Y-100571827D01*
X112916508Y-100551572D01*
X112944670Y-100536519D01*
X112975220Y-100527251D01*
X113008231Y-100524000D01*
X113381769Y-100524000D01*
X113414780Y-100527251D01*
X113414780Y-100527251D01*
G37*
G36*
X112144780Y-100527251D02*
G01*
X112175330Y-100536519D01*
X112203492Y-100551572D01*
X112228173Y-100571827D01*
X112248428Y-100596508D01*
X112263481Y-100624670D01*
X112272749Y-100655220D01*
X112276000Y-100688231D01*
X112276000Y-102511769D01*
X112272749Y-102544780D01*
X112263481Y-102575330D01*
X112248428Y-102603492D01*
X112228173Y-102628173D01*
X112203492Y-102648428D01*
X112175330Y-102663481D01*
X112144780Y-102672749D01*
X112111769Y-102676000D01*
X111738231Y-102676000D01*
X111705220Y-102672749D01*
X111674670Y-102663481D01*
X111646508Y-102648428D01*
X111621827Y-102628173D01*
X111601572Y-102603492D01*
X111586519Y-102575330D01*
X111577251Y-102544780D01*
X111574000Y-102511769D01*
X111574000Y-100688231D01*
X111577251Y-100655220D01*
X111586519Y-100624670D01*
X111601572Y-100596508D01*
X111621827Y-100571827D01*
X111646508Y-100551572D01*
X111674670Y-100536519D01*
X111705220Y-100527251D01*
X111738231Y-100524000D01*
X112111769Y-100524000D01*
X112144780Y-100527251D01*
X112144780Y-100527251D01*
G37*
G36*
X110874780Y-100527251D02*
G01*
X110905330Y-100536519D01*
X110933492Y-100551572D01*
X110958173Y-100571827D01*
X110978428Y-100596508D01*
X110993481Y-100624670D01*
X111002749Y-100655220D01*
X111006000Y-100688231D01*
X111006000Y-102511769D01*
X111002749Y-102544780D01*
X110993481Y-102575330D01*
X110978428Y-102603492D01*
X110958173Y-102628173D01*
X110933492Y-102648428D01*
X110905330Y-102663481D01*
X110874780Y-102672749D01*
X110841769Y-102676000D01*
X110468231Y-102676000D01*
X110435220Y-102672749D01*
X110404670Y-102663481D01*
X110376508Y-102648428D01*
X110351827Y-102628173D01*
X110331572Y-102603492D01*
X110316519Y-102575330D01*
X110307251Y-102544780D01*
X110304000Y-102511769D01*
X110304000Y-100688231D01*
X110307251Y-100655220D01*
X110316519Y-100624670D01*
X110331572Y-100596508D01*
X110351827Y-100571827D01*
X110376508Y-100551572D01*
X110404670Y-100536519D01*
X110435220Y-100527251D01*
X110468231Y-100524000D01*
X110841769Y-100524000D01*
X110874780Y-100527251D01*
X110874780Y-100527251D01*
G37*
G36*
X109604780Y-100527251D02*
G01*
X109635330Y-100536519D01*
X109663492Y-100551572D01*
X109688173Y-100571827D01*
X109708428Y-100596508D01*
X109723481Y-100624670D01*
X109732749Y-100655220D01*
X109736000Y-100688231D01*
X109736000Y-102511769D01*
X109732749Y-102544780D01*
X109723481Y-102575330D01*
X109708428Y-102603492D01*
X109688173Y-102628173D01*
X109663492Y-102648428D01*
X109635330Y-102663481D01*
X109604780Y-102672749D01*
X109571769Y-102676000D01*
X109198231Y-102676000D01*
X109165220Y-102672749D01*
X109134670Y-102663481D01*
X109106508Y-102648428D01*
X109081827Y-102628173D01*
X109061572Y-102603492D01*
X109046519Y-102575330D01*
X109037251Y-102544780D01*
X109034000Y-102511769D01*
X109034000Y-100688231D01*
X109037251Y-100655220D01*
X109046519Y-100624670D01*
X109061572Y-100596508D01*
X109081827Y-100571827D01*
X109106508Y-100551572D01*
X109134670Y-100536519D01*
X109165220Y-100527251D01*
X109198231Y-100524000D01*
X109571769Y-100524000D01*
X109604780Y-100527251D01*
X109604780Y-100527251D01*
G37*
G36*
X108334780Y-100527251D02*
G01*
X108365330Y-100536519D01*
X108393492Y-100551572D01*
X108418173Y-100571827D01*
X108438428Y-100596508D01*
X108453481Y-100624670D01*
X108462749Y-100655220D01*
X108466000Y-100688231D01*
X108466000Y-102511769D01*
X108462749Y-102544780D01*
X108453481Y-102575330D01*
X108438428Y-102603492D01*
X108418173Y-102628173D01*
X108393492Y-102648428D01*
X108365330Y-102663481D01*
X108334780Y-102672749D01*
X108301769Y-102676000D01*
X107928231Y-102676000D01*
X107895220Y-102672749D01*
X107864670Y-102663481D01*
X107836508Y-102648428D01*
X107811827Y-102628173D01*
X107791572Y-102603492D01*
X107776519Y-102575330D01*
X107767251Y-102544780D01*
X107764000Y-102511769D01*
X107764000Y-100688231D01*
X107767251Y-100655220D01*
X107776519Y-100624670D01*
X107791572Y-100596508D01*
X107811827Y-100571827D01*
X107836508Y-100551572D01*
X107864670Y-100536519D01*
X107895220Y-100527251D01*
X107928231Y-100524000D01*
X108301769Y-100524000D01*
X108334780Y-100527251D01*
X108334780Y-100527251D01*
G37*
G36*
X107064780Y-100527251D02*
G01*
X107095330Y-100536519D01*
X107123492Y-100551572D01*
X107148173Y-100571827D01*
X107168428Y-100596508D01*
X107183481Y-100624670D01*
X107192749Y-100655220D01*
X107196000Y-100688231D01*
X107196000Y-102511769D01*
X107192749Y-102544780D01*
X107183481Y-102575330D01*
X107168428Y-102603492D01*
X107148173Y-102628173D01*
X107123492Y-102648428D01*
X107095330Y-102663481D01*
X107064780Y-102672749D01*
X107031769Y-102676000D01*
X106658231Y-102676000D01*
X106625220Y-102672749D01*
X106594670Y-102663481D01*
X106566508Y-102648428D01*
X106541827Y-102628173D01*
X106521572Y-102603492D01*
X106506519Y-102575330D01*
X106497251Y-102544780D01*
X106494000Y-102511769D01*
X106494000Y-100688231D01*
X106497251Y-100655220D01*
X106506519Y-100624670D01*
X106521572Y-100596508D01*
X106541827Y-100571827D01*
X106566508Y-100551572D01*
X106594670Y-100536519D01*
X106625220Y-100527251D01*
X106658231Y-100524000D01*
X107031769Y-100524000D01*
X107064780Y-100527251D01*
X107064780Y-100527251D01*
G37*
G36*
X105794780Y-100527251D02*
G01*
X105825330Y-100536519D01*
X105853492Y-100551572D01*
X105878173Y-100571827D01*
X105898428Y-100596508D01*
X105913481Y-100624670D01*
X105922749Y-100655220D01*
X105926000Y-100688231D01*
X105926000Y-102511769D01*
X105922749Y-102544780D01*
X105913481Y-102575330D01*
X105898428Y-102603492D01*
X105878173Y-102628173D01*
X105853492Y-102648428D01*
X105825330Y-102663481D01*
X105794780Y-102672749D01*
X105761769Y-102676000D01*
X105388231Y-102676000D01*
X105355220Y-102672749D01*
X105324670Y-102663481D01*
X105296508Y-102648428D01*
X105271827Y-102628173D01*
X105251572Y-102603492D01*
X105236519Y-102575330D01*
X105227251Y-102544780D01*
X105224000Y-102511769D01*
X105224000Y-100688231D01*
X105227251Y-100655220D01*
X105236519Y-100624670D01*
X105251572Y-100596508D01*
X105271827Y-100571827D01*
X105296508Y-100551572D01*
X105324670Y-100536519D01*
X105355220Y-100527251D01*
X105388231Y-100524000D01*
X105761769Y-100524000D01*
X105794780Y-100527251D01*
X105794780Y-100527251D01*
G37*
G36*
X185251000Y-102651000D02*
G01*
X184249000Y-102651000D01*
X184249000Y-101749000D01*
X185251000Y-101749000D01*
X185251000Y-102651000D01*
X185251000Y-102651000D01*
G37*
G36*
X205764438Y-101478572D02*
G01*
X205807895Y-101491754D01*
X205847934Y-101513156D01*
X205883036Y-101541964D01*
X205911844Y-101577066D01*
X205933246Y-101617105D01*
X205946428Y-101660562D01*
X205951000Y-101706982D01*
X205951000Y-102293018D01*
X205946428Y-102339438D01*
X205933246Y-102382895D01*
X205911844Y-102422934D01*
X205883036Y-102458036D01*
X205847934Y-102486844D01*
X205807895Y-102508246D01*
X205764438Y-102521428D01*
X205718018Y-102526000D01*
X205206982Y-102526000D01*
X205160562Y-102521428D01*
X205117105Y-102508246D01*
X205077066Y-102486844D01*
X205041964Y-102458036D01*
X205013156Y-102422934D01*
X204991754Y-102382895D01*
X204978572Y-102339438D01*
X204974000Y-102293018D01*
X204974000Y-101706982D01*
X204978572Y-101660562D01*
X204991754Y-101617105D01*
X205013156Y-101577066D01*
X205041964Y-101541964D01*
X205077066Y-101513156D01*
X205117105Y-101491754D01*
X205160562Y-101478572D01*
X205206982Y-101474000D01*
X205718018Y-101474000D01*
X205764438Y-101478572D01*
X205764438Y-101478572D01*
G37*
G36*
X207339438Y-101478572D02*
G01*
X207382895Y-101491754D01*
X207422934Y-101513156D01*
X207458036Y-101541964D01*
X207486844Y-101577066D01*
X207508246Y-101617105D01*
X207521428Y-101660562D01*
X207526000Y-101706982D01*
X207526000Y-102293018D01*
X207521428Y-102339438D01*
X207508246Y-102382895D01*
X207486844Y-102422934D01*
X207458036Y-102458036D01*
X207422934Y-102486844D01*
X207382895Y-102508246D01*
X207339438Y-102521428D01*
X207293018Y-102526000D01*
X206781982Y-102526000D01*
X206735562Y-102521428D01*
X206692105Y-102508246D01*
X206652066Y-102486844D01*
X206616964Y-102458036D01*
X206588156Y-102422934D01*
X206566754Y-102382895D01*
X206553572Y-102339438D01*
X206549000Y-102293018D01*
X206549000Y-101706982D01*
X206553572Y-101660562D01*
X206566754Y-101617105D01*
X206588156Y-101577066D01*
X206616964Y-101541964D01*
X206652066Y-101513156D01*
X206692105Y-101491754D01*
X206735562Y-101478572D01*
X206781982Y-101474000D01*
X207293018Y-101474000D01*
X207339438Y-101478572D01*
X207339438Y-101478572D01*
G37*
G36*
X204089438Y-101478572D02*
G01*
X204132895Y-101491754D01*
X204172934Y-101513156D01*
X204208036Y-101541964D01*
X204236844Y-101577066D01*
X204258246Y-101617105D01*
X204271428Y-101660562D01*
X204276000Y-101706982D01*
X204276000Y-102293018D01*
X204271428Y-102339438D01*
X204258246Y-102382895D01*
X204236844Y-102422934D01*
X204208036Y-102458036D01*
X204172934Y-102486844D01*
X204132895Y-102508246D01*
X204089438Y-102521428D01*
X204043018Y-102526000D01*
X203531982Y-102526000D01*
X203485562Y-102521428D01*
X203442105Y-102508246D01*
X203402066Y-102486844D01*
X203366964Y-102458036D01*
X203338156Y-102422934D01*
X203316754Y-102382895D01*
X203303572Y-102339438D01*
X203299000Y-102293018D01*
X203299000Y-101706982D01*
X203303572Y-101660562D01*
X203316754Y-101617105D01*
X203338156Y-101577066D01*
X203366964Y-101541964D01*
X203402066Y-101513156D01*
X203442105Y-101491754D01*
X203485562Y-101478572D01*
X203531982Y-101474000D01*
X204043018Y-101474000D01*
X204089438Y-101478572D01*
X204089438Y-101478572D01*
G37*
G36*
X202514438Y-101478572D02*
G01*
X202557895Y-101491754D01*
X202597934Y-101513156D01*
X202633036Y-101541964D01*
X202661844Y-101577066D01*
X202683246Y-101617105D01*
X202696428Y-101660562D01*
X202701000Y-101706982D01*
X202701000Y-102293018D01*
X202696428Y-102339438D01*
X202683246Y-102382895D01*
X202661844Y-102422934D01*
X202633036Y-102458036D01*
X202597934Y-102486844D01*
X202557895Y-102508246D01*
X202514438Y-102521428D01*
X202468018Y-102526000D01*
X201956982Y-102526000D01*
X201910562Y-102521428D01*
X201867105Y-102508246D01*
X201827066Y-102486844D01*
X201791964Y-102458036D01*
X201763156Y-102422934D01*
X201741754Y-102382895D01*
X201728572Y-102339438D01*
X201724000Y-102293018D01*
X201724000Y-101706982D01*
X201728572Y-101660562D01*
X201741754Y-101617105D01*
X201763156Y-101577066D01*
X201791964Y-101541964D01*
X201827066Y-101513156D01*
X201867105Y-101491754D01*
X201910562Y-101478572D01*
X201956982Y-101474000D01*
X202468018Y-101474000D01*
X202514438Y-101478572D01*
X202514438Y-101478572D01*
G37*
G36*
X225144316Y-101004053D02*
G01*
X225192462Y-101018657D01*
X225236823Y-101042369D01*
X225275714Y-101074286D01*
X225307631Y-101113177D01*
X225331343Y-101157538D01*
X225345947Y-101205684D01*
X225351000Y-101256982D01*
X225351000Y-102243018D01*
X225345947Y-102294316D01*
X225331343Y-102342462D01*
X225307631Y-102386823D01*
X225275714Y-102425714D01*
X225236823Y-102457631D01*
X225192462Y-102481343D01*
X225144316Y-102495947D01*
X225093018Y-102501000D01*
X224531982Y-102501000D01*
X224480684Y-102495947D01*
X224432538Y-102481343D01*
X224388177Y-102457631D01*
X224349286Y-102425714D01*
X224317369Y-102386823D01*
X224293657Y-102342462D01*
X224279053Y-102294316D01*
X224274000Y-102243018D01*
X224274000Y-101256982D01*
X224279053Y-101205684D01*
X224293657Y-101157538D01*
X224317369Y-101113177D01*
X224349286Y-101074286D01*
X224388177Y-101042369D01*
X224432538Y-101018657D01*
X224480684Y-101004053D01*
X224531982Y-100999000D01*
X225093018Y-100999000D01*
X225144316Y-101004053D01*
X225144316Y-101004053D01*
G37*
G36*
X227019316Y-101004053D02*
G01*
X227067462Y-101018657D01*
X227111823Y-101042369D01*
X227150714Y-101074286D01*
X227182631Y-101113177D01*
X227206343Y-101157538D01*
X227220947Y-101205684D01*
X227226000Y-101256982D01*
X227226000Y-102243018D01*
X227220947Y-102294316D01*
X227206343Y-102342462D01*
X227182631Y-102386823D01*
X227150714Y-102425714D01*
X227111823Y-102457631D01*
X227067462Y-102481343D01*
X227019316Y-102495947D01*
X226968018Y-102501000D01*
X226406982Y-102501000D01*
X226355684Y-102495947D01*
X226307538Y-102481343D01*
X226263177Y-102457631D01*
X226224286Y-102425714D01*
X226192369Y-102386823D01*
X226168657Y-102342462D01*
X226154053Y-102294316D01*
X226149000Y-102243018D01*
X226149000Y-101256982D01*
X226154053Y-101205684D01*
X226168657Y-101157538D01*
X226192369Y-101113177D01*
X226224286Y-101074286D01*
X226263177Y-101042369D01*
X226307538Y-101018657D01*
X226355684Y-101004053D01*
X226406982Y-100999000D01*
X226968018Y-100999000D01*
X227019316Y-101004053D01*
X227019316Y-101004053D01*
G37*
G36*
X237764438Y-101228572D02*
G01*
X237807895Y-101241754D01*
X237847934Y-101263156D01*
X237883036Y-101291964D01*
X237911844Y-101327066D01*
X237933246Y-101367105D01*
X237946428Y-101410562D01*
X237951000Y-101456982D01*
X237951000Y-102043018D01*
X237946428Y-102089438D01*
X237933246Y-102132895D01*
X237911844Y-102172934D01*
X237883036Y-102208036D01*
X237847934Y-102236844D01*
X237807895Y-102258246D01*
X237764438Y-102271428D01*
X237718018Y-102276000D01*
X237206982Y-102276000D01*
X237160562Y-102271428D01*
X237117105Y-102258246D01*
X237077066Y-102236844D01*
X237041964Y-102208036D01*
X237013156Y-102172934D01*
X236991754Y-102132895D01*
X236978572Y-102089438D01*
X236974000Y-102043018D01*
X236974000Y-101456982D01*
X236978572Y-101410562D01*
X236991754Y-101367105D01*
X237013156Y-101327066D01*
X237041964Y-101291964D01*
X237077066Y-101263156D01*
X237117105Y-101241754D01*
X237160562Y-101228572D01*
X237206982Y-101224000D01*
X237718018Y-101224000D01*
X237764438Y-101228572D01*
X237764438Y-101228572D01*
G37*
G36*
X241014438Y-101228572D02*
G01*
X241057895Y-101241754D01*
X241097934Y-101263156D01*
X241133036Y-101291964D01*
X241161844Y-101327066D01*
X241183246Y-101367105D01*
X241196428Y-101410562D01*
X241201000Y-101456982D01*
X241201000Y-102043018D01*
X241196428Y-102089438D01*
X241183246Y-102132895D01*
X241161844Y-102172934D01*
X241133036Y-102208036D01*
X241097934Y-102236844D01*
X241057895Y-102258246D01*
X241014438Y-102271428D01*
X240968018Y-102276000D01*
X240456982Y-102276000D01*
X240410562Y-102271428D01*
X240367105Y-102258246D01*
X240327066Y-102236844D01*
X240291964Y-102208036D01*
X240263156Y-102172934D01*
X240241754Y-102132895D01*
X240228572Y-102089438D01*
X240224000Y-102043018D01*
X240224000Y-101456982D01*
X240228572Y-101410562D01*
X240241754Y-101367105D01*
X240263156Y-101327066D01*
X240291964Y-101291964D01*
X240327066Y-101263156D01*
X240367105Y-101241754D01*
X240410562Y-101228572D01*
X240456982Y-101224000D01*
X240968018Y-101224000D01*
X241014438Y-101228572D01*
X241014438Y-101228572D01*
G37*
G36*
X242589438Y-101228572D02*
G01*
X242632895Y-101241754D01*
X242672934Y-101263156D01*
X242708036Y-101291964D01*
X242736844Y-101327066D01*
X242758246Y-101367105D01*
X242771428Y-101410562D01*
X242776000Y-101456982D01*
X242776000Y-102043018D01*
X242771428Y-102089438D01*
X242758246Y-102132895D01*
X242736844Y-102172934D01*
X242708036Y-102208036D01*
X242672934Y-102236844D01*
X242632895Y-102258246D01*
X242589438Y-102271428D01*
X242543018Y-102276000D01*
X242031982Y-102276000D01*
X241985562Y-102271428D01*
X241942105Y-102258246D01*
X241902066Y-102236844D01*
X241866964Y-102208036D01*
X241838156Y-102172934D01*
X241816754Y-102132895D01*
X241803572Y-102089438D01*
X241799000Y-102043018D01*
X241799000Y-101456982D01*
X241803572Y-101410562D01*
X241816754Y-101367105D01*
X241838156Y-101327066D01*
X241866964Y-101291964D01*
X241902066Y-101263156D01*
X241942105Y-101241754D01*
X241985562Y-101228572D01*
X242031982Y-101224000D01*
X242543018Y-101224000D01*
X242589438Y-101228572D01*
X242589438Y-101228572D01*
G37*
G36*
X239339438Y-101228572D02*
G01*
X239382895Y-101241754D01*
X239422934Y-101263156D01*
X239458036Y-101291964D01*
X239486844Y-101327066D01*
X239508246Y-101367105D01*
X239521428Y-101410562D01*
X239526000Y-101456982D01*
X239526000Y-102043018D01*
X239521428Y-102089438D01*
X239508246Y-102132895D01*
X239486844Y-102172934D01*
X239458036Y-102208036D01*
X239422934Y-102236844D01*
X239382895Y-102258246D01*
X239339438Y-102271428D01*
X239293018Y-102276000D01*
X238781982Y-102276000D01*
X238735562Y-102271428D01*
X238692105Y-102258246D01*
X238652066Y-102236844D01*
X238616964Y-102208036D01*
X238588156Y-102172934D01*
X238566754Y-102132895D01*
X238553572Y-102089438D01*
X238549000Y-102043018D01*
X238549000Y-101456982D01*
X238553572Y-101410562D01*
X238566754Y-101367105D01*
X238588156Y-101327066D01*
X238616964Y-101291964D01*
X238652066Y-101263156D01*
X238692105Y-101241754D01*
X238735562Y-101228572D01*
X238781982Y-101224000D01*
X239293018Y-101224000D01*
X239339438Y-101228572D01*
X239339438Y-101228572D01*
G37*
G36*
X161089438Y-100778572D02*
G01*
X161132895Y-100791754D01*
X161172934Y-100813156D01*
X161208036Y-100841964D01*
X161236844Y-100877066D01*
X161258246Y-100917105D01*
X161271428Y-100960562D01*
X161276000Y-101006982D01*
X161276000Y-101518018D01*
X161271428Y-101564438D01*
X161258246Y-101607895D01*
X161236844Y-101647934D01*
X161208036Y-101683036D01*
X161172934Y-101711844D01*
X161132895Y-101733246D01*
X161089438Y-101746428D01*
X161043018Y-101751000D01*
X160456982Y-101751000D01*
X160410562Y-101746428D01*
X160367105Y-101733246D01*
X160327066Y-101711844D01*
X160291964Y-101683036D01*
X160263156Y-101647934D01*
X160241754Y-101607895D01*
X160228572Y-101564438D01*
X160224000Y-101518018D01*
X160224000Y-101006982D01*
X160228572Y-100960562D01*
X160241754Y-100917105D01*
X160263156Y-100877066D01*
X160291964Y-100841964D01*
X160327066Y-100813156D01*
X160367105Y-100791754D01*
X160410562Y-100778572D01*
X160456982Y-100774000D01*
X161043018Y-100774000D01*
X161089438Y-100778572D01*
X161089438Y-100778572D01*
G37*
G36*
X71814438Y-100678572D02*
G01*
X71857895Y-100691754D01*
X71897934Y-100713156D01*
X71933036Y-100741964D01*
X71961844Y-100777066D01*
X71983246Y-100817105D01*
X71996428Y-100860562D01*
X72001000Y-100906982D01*
X72001000Y-101493018D01*
X71996428Y-101539438D01*
X71983246Y-101582895D01*
X71961844Y-101622934D01*
X71933036Y-101658036D01*
X71897934Y-101686844D01*
X71857895Y-101708246D01*
X71814438Y-101721428D01*
X71768018Y-101726000D01*
X71256982Y-101726000D01*
X71210562Y-101721428D01*
X71167105Y-101708246D01*
X71127066Y-101686844D01*
X71091964Y-101658036D01*
X71063156Y-101622934D01*
X71041754Y-101582895D01*
X71028572Y-101539438D01*
X71024000Y-101493018D01*
X71024000Y-100906982D01*
X71028572Y-100860562D01*
X71041754Y-100817105D01*
X71063156Y-100777066D01*
X71091964Y-100741964D01*
X71127066Y-100713156D01*
X71167105Y-100691754D01*
X71210562Y-100678572D01*
X71256982Y-100674000D01*
X71768018Y-100674000D01*
X71814438Y-100678572D01*
X71814438Y-100678572D01*
G37*
G36*
X73389438Y-100678572D02*
G01*
X73432895Y-100691754D01*
X73472934Y-100713156D01*
X73508036Y-100741964D01*
X73536844Y-100777066D01*
X73558246Y-100817105D01*
X73571428Y-100860562D01*
X73576000Y-100906982D01*
X73576000Y-101493018D01*
X73571428Y-101539438D01*
X73558246Y-101582895D01*
X73536844Y-101622934D01*
X73508036Y-101658036D01*
X73472934Y-101686844D01*
X73432895Y-101708246D01*
X73389438Y-101721428D01*
X73343018Y-101726000D01*
X72831982Y-101726000D01*
X72785562Y-101721428D01*
X72742105Y-101708246D01*
X72702066Y-101686844D01*
X72666964Y-101658036D01*
X72638156Y-101622934D01*
X72616754Y-101582895D01*
X72603572Y-101539438D01*
X72599000Y-101493018D01*
X72599000Y-100906982D01*
X72603572Y-100860562D01*
X72616754Y-100817105D01*
X72638156Y-100777066D01*
X72666964Y-100741964D01*
X72702066Y-100713156D01*
X72742105Y-100691754D01*
X72785562Y-100678572D01*
X72831982Y-100674000D01*
X73343018Y-100674000D01*
X73389438Y-100678572D01*
X73389438Y-100678572D01*
G37*
G36*
X187251000Y-101701000D02*
G01*
X186249000Y-101701000D01*
X186249000Y-100799000D01*
X187251000Y-100799000D01*
X187251000Y-101701000D01*
X187251000Y-101701000D01*
G37*
G36*
X162926000Y-101031000D02*
G01*
X162174000Y-101031000D01*
X162174000Y-99869000D01*
X162926000Y-99869000D01*
X162926000Y-101031000D01*
X162926000Y-101031000D01*
G37*
G36*
X163876000Y-101031000D02*
G01*
X163124000Y-101031000D01*
X163124000Y-99869000D01*
X163876000Y-99869000D01*
X163876000Y-101031000D01*
X163876000Y-101031000D01*
G37*
G36*
X164826000Y-101031000D02*
G01*
X164074000Y-101031000D01*
X164074000Y-99869000D01*
X164826000Y-99869000D01*
X164826000Y-101031000D01*
X164826000Y-101031000D01*
G37*
G36*
X185251000Y-100751000D02*
G01*
X184249000Y-100751000D01*
X184249000Y-99849000D01*
X185251000Y-99849000D01*
X185251000Y-100751000D01*
X185251000Y-100751000D01*
G37*
G36*
X191400755Y-97953899D02*
G01*
X191447400Y-97968048D01*
X191490379Y-97991021D01*
X191528057Y-98021943D01*
X191558979Y-98059621D01*
X191581952Y-98102600D01*
X191596101Y-98149245D01*
X191601000Y-98198982D01*
X191601000Y-100451018D01*
X191596101Y-100500755D01*
X191581952Y-100547400D01*
X191558979Y-100590379D01*
X191528057Y-100628057D01*
X191490379Y-100658979D01*
X191447400Y-100681952D01*
X191400755Y-100696101D01*
X191351018Y-100701000D01*
X190148982Y-100701000D01*
X190099245Y-100696101D01*
X190052600Y-100681952D01*
X190009621Y-100658979D01*
X189971943Y-100628057D01*
X189941021Y-100590379D01*
X189918048Y-100547400D01*
X189903899Y-100500755D01*
X189899000Y-100451018D01*
X189899000Y-98198982D01*
X189903899Y-98149245D01*
X189918048Y-98102600D01*
X189941021Y-98059621D01*
X189971943Y-98021943D01*
X190009621Y-97991021D01*
X190052600Y-97968048D01*
X190099245Y-97953899D01*
X190148982Y-97949000D01*
X191351018Y-97949000D01*
X191400755Y-97953899D01*
X191400755Y-97953899D01*
G37*
G36*
X179150755Y-97953899D02*
G01*
X179197400Y-97968048D01*
X179240379Y-97991021D01*
X179278057Y-98021943D01*
X179308979Y-98059621D01*
X179331952Y-98102600D01*
X179346101Y-98149245D01*
X179351000Y-98198982D01*
X179351000Y-100451018D01*
X179346101Y-100500755D01*
X179331952Y-100547400D01*
X179308979Y-100590379D01*
X179278057Y-100628057D01*
X179240379Y-100658979D01*
X179197400Y-100681952D01*
X179150755Y-100696101D01*
X179101018Y-100701000D01*
X177898982Y-100701000D01*
X177849245Y-100696101D01*
X177802600Y-100681952D01*
X177759621Y-100658979D01*
X177721943Y-100628057D01*
X177691021Y-100590379D01*
X177668048Y-100547400D01*
X177653899Y-100500755D01*
X177649000Y-100451018D01*
X177649000Y-98198982D01*
X177653899Y-98149245D01*
X177668048Y-98102600D01*
X177691021Y-98059621D01*
X177721943Y-98021943D01*
X177759621Y-97991021D01*
X177802600Y-97968048D01*
X177849245Y-97953899D01*
X177898982Y-97949000D01*
X179101018Y-97949000D01*
X179150755Y-97953899D01*
X179150755Y-97953899D01*
G37*
G36*
X174792683Y-98754092D02*
G01*
X174841208Y-98768811D01*
X174885923Y-98792712D01*
X174925120Y-98824880D01*
X174957288Y-98864077D01*
X174981189Y-98908792D01*
X174995908Y-98957317D01*
X175001000Y-99009010D01*
X175001000Y-99715990D01*
X174995908Y-99767683D01*
X174981189Y-99816208D01*
X174957288Y-99860923D01*
X174925120Y-99900120D01*
X174885923Y-99932288D01*
X174841208Y-99956189D01*
X174792683Y-99970908D01*
X174740990Y-99976000D01*
X171759010Y-99976000D01*
X171707317Y-99970908D01*
X171658792Y-99956189D01*
X171614077Y-99932288D01*
X171574880Y-99900120D01*
X171542712Y-99860923D01*
X171518811Y-99816208D01*
X171504092Y-99767683D01*
X171499000Y-99715990D01*
X171499000Y-99009010D01*
X171504092Y-98957317D01*
X171518811Y-98908792D01*
X171542712Y-98864077D01*
X171574880Y-98824880D01*
X171614077Y-98792712D01*
X171658792Y-98768811D01*
X171707317Y-98754092D01*
X171759010Y-98749000D01*
X174740990Y-98749000D01*
X174792683Y-98754092D01*
X174792683Y-98754092D01*
G37*
G36*
X183151000Y-99851000D02*
G01*
X181849000Y-99851000D01*
X181849000Y-98849000D01*
X183151000Y-98849000D01*
X183151000Y-99851000D01*
X183151000Y-99851000D01*
G37*
G36*
X245376000Y-99731000D02*
G01*
X243524000Y-99731000D01*
X243524000Y-99079000D01*
X245376000Y-99079000D01*
X245376000Y-99731000D01*
X245376000Y-99731000D01*
G37*
G36*
X237976000Y-99731000D02*
G01*
X236124000Y-99731000D01*
X236124000Y-99079000D01*
X237976000Y-99079000D01*
X237976000Y-99731000D01*
X237976000Y-99731000D01*
G37*
G36*
X229551000Y-99401000D02*
G01*
X228449000Y-99401000D01*
X228449000Y-96099000D01*
X229551000Y-96099000D01*
X229551000Y-99401000D01*
X229551000Y-99401000D01*
G37*
G36*
X227011000Y-99401000D02*
G01*
X225909000Y-99401000D01*
X225909000Y-96099000D01*
X227011000Y-96099000D01*
X227011000Y-99401000D01*
X227011000Y-99401000D01*
G37*
G36*
X87471000Y-99401000D02*
G01*
X86369000Y-99401000D01*
X86369000Y-96099000D01*
X87471000Y-96099000D01*
X87471000Y-99401000D01*
X87471000Y-99401000D01*
G37*
G36*
X219391000Y-99401000D02*
G01*
X218289000Y-99401000D01*
X218289000Y-96099000D01*
X219391000Y-96099000D01*
X219391000Y-99401000D01*
X219391000Y-99401000D01*
G37*
G36*
X82391000Y-99401000D02*
G01*
X81289000Y-99401000D01*
X81289000Y-96099000D01*
X82391000Y-96099000D01*
X82391000Y-99401000D01*
X82391000Y-99401000D01*
G37*
G36*
X79851000Y-99401000D02*
G01*
X78749000Y-99401000D01*
X78749000Y-96099000D01*
X79851000Y-96099000D01*
X79851000Y-99401000D01*
X79851000Y-99401000D01*
G37*
G36*
X77311000Y-99401000D02*
G01*
X76209000Y-99401000D01*
X76209000Y-96099000D01*
X77311000Y-96099000D01*
X77311000Y-99401000D01*
X77311000Y-99401000D01*
G37*
G36*
X74771000Y-99401000D02*
G01*
X73669000Y-99401000D01*
X73669000Y-96099000D01*
X74771000Y-96099000D01*
X74771000Y-99401000D01*
X74771000Y-99401000D01*
G37*
G36*
X90011000Y-99401000D02*
G01*
X88909000Y-99401000D01*
X88909000Y-96099000D01*
X90011000Y-96099000D01*
X90011000Y-99401000D01*
X90011000Y-99401000D01*
G37*
G36*
X92551000Y-99401000D02*
G01*
X91449000Y-99401000D01*
X91449000Y-96099000D01*
X92551000Y-96099000D01*
X92551000Y-99401000D01*
X92551000Y-99401000D01*
G37*
G36*
X211771000Y-99401000D02*
G01*
X210669000Y-99401000D01*
X210669000Y-96099000D01*
X211771000Y-96099000D01*
X211771000Y-99401000D01*
X211771000Y-99401000D01*
G37*
G36*
X214311000Y-99401000D02*
G01*
X213209000Y-99401000D01*
X213209000Y-96099000D01*
X214311000Y-96099000D01*
X214311000Y-99401000D01*
X214311000Y-99401000D01*
G37*
G36*
X216851000Y-99401000D02*
G01*
X215749000Y-99401000D01*
X215749000Y-96099000D01*
X216851000Y-96099000D01*
X216851000Y-99401000D01*
X216851000Y-99401000D01*
G37*
G36*
X221931000Y-99401000D02*
G01*
X220829000Y-99401000D01*
X220829000Y-96099000D01*
X221931000Y-96099000D01*
X221931000Y-99401000D01*
X221931000Y-99401000D01*
G37*
G36*
X84931000Y-99401000D02*
G01*
X83829000Y-99401000D01*
X83829000Y-96099000D01*
X84931000Y-96099000D01*
X84931000Y-99401000D01*
X84931000Y-99401000D01*
G37*
G36*
X224471000Y-99401000D02*
G01*
X223369000Y-99401000D01*
X223369000Y-96099000D01*
X224471000Y-96099000D01*
X224471000Y-99401000D01*
X224471000Y-99401000D01*
G37*
G36*
X162981000Y-98876000D02*
G01*
X161819000Y-98876000D01*
X161819000Y-98124000D01*
X162981000Y-98124000D01*
X162981000Y-98876000D01*
X162981000Y-98876000D01*
G37*
G36*
X165181000Y-98876000D02*
G01*
X164019000Y-98876000D01*
X164019000Y-98124000D01*
X165181000Y-98124000D01*
X165181000Y-98876000D01*
X165181000Y-98876000D01*
G37*
G36*
X166589438Y-97803572D02*
G01*
X166632895Y-97816754D01*
X166672934Y-97838156D01*
X166708036Y-97866964D01*
X166736844Y-97902066D01*
X166758246Y-97942105D01*
X166771428Y-97985562D01*
X166776000Y-98031982D01*
X166776000Y-98543018D01*
X166771428Y-98589438D01*
X166758246Y-98632895D01*
X166736844Y-98672934D01*
X166708036Y-98708036D01*
X166672934Y-98736844D01*
X166632895Y-98758246D01*
X166589438Y-98771428D01*
X166543018Y-98776000D01*
X165956982Y-98776000D01*
X165910562Y-98771428D01*
X165867105Y-98758246D01*
X165827066Y-98736844D01*
X165791964Y-98708036D01*
X165763156Y-98672934D01*
X165741754Y-98632895D01*
X165728572Y-98589438D01*
X165724000Y-98543018D01*
X165724000Y-98031982D01*
X165728572Y-97985562D01*
X165741754Y-97942105D01*
X165763156Y-97902066D01*
X165791964Y-97866964D01*
X165827066Y-97838156D01*
X165867105Y-97816754D01*
X165910562Y-97803572D01*
X165956982Y-97799000D01*
X166543018Y-97799000D01*
X166589438Y-97803572D01*
X166589438Y-97803572D01*
G37*
G36*
X161039438Y-97803572D02*
G01*
X161082895Y-97816754D01*
X161122934Y-97838156D01*
X161158036Y-97866964D01*
X161186844Y-97902066D01*
X161208246Y-97942105D01*
X161221428Y-97985562D01*
X161226000Y-98031982D01*
X161226000Y-98543018D01*
X161221428Y-98589438D01*
X161208246Y-98632895D01*
X161186844Y-98672934D01*
X161158036Y-98708036D01*
X161122934Y-98736844D01*
X161082895Y-98758246D01*
X161039438Y-98771428D01*
X160993018Y-98776000D01*
X160406982Y-98776000D01*
X160360562Y-98771428D01*
X160317105Y-98758246D01*
X160277066Y-98736844D01*
X160241964Y-98708036D01*
X160213156Y-98672934D01*
X160191754Y-98632895D01*
X160178572Y-98589438D01*
X160174000Y-98543018D01*
X160174000Y-98031982D01*
X160178572Y-97985562D01*
X160191754Y-97942105D01*
X160213156Y-97902066D01*
X160241964Y-97866964D01*
X160277066Y-97838156D01*
X160317105Y-97816754D01*
X160360562Y-97803572D01*
X160406982Y-97799000D01*
X160993018Y-97799000D01*
X161039438Y-97803572D01*
X161039438Y-97803572D01*
G37*
G36*
X159439438Y-97803572D02*
G01*
X159482895Y-97816754D01*
X159522934Y-97838156D01*
X159558036Y-97866964D01*
X159586844Y-97902066D01*
X159608246Y-97942105D01*
X159621428Y-97985562D01*
X159626000Y-98031982D01*
X159626000Y-98543018D01*
X159621428Y-98589438D01*
X159608246Y-98632895D01*
X159586844Y-98672934D01*
X159558036Y-98708036D01*
X159522934Y-98736844D01*
X159482895Y-98758246D01*
X159439438Y-98771428D01*
X159393018Y-98776000D01*
X158806982Y-98776000D01*
X158760562Y-98771428D01*
X158717105Y-98758246D01*
X158677066Y-98736844D01*
X158641964Y-98708036D01*
X158613156Y-98672934D01*
X158591754Y-98632895D01*
X158578572Y-98589438D01*
X158574000Y-98543018D01*
X158574000Y-98031982D01*
X158578572Y-97985562D01*
X158591754Y-97942105D01*
X158613156Y-97902066D01*
X158641964Y-97866964D01*
X158677066Y-97838156D01*
X158717105Y-97816754D01*
X158760562Y-97803572D01*
X158806982Y-97799000D01*
X159393018Y-97799000D01*
X159439438Y-97803572D01*
X159439438Y-97803572D01*
G37*
G36*
X237976000Y-98461000D02*
G01*
X236124000Y-98461000D01*
X236124000Y-97809000D01*
X237976000Y-97809000D01*
X237976000Y-98461000D01*
X237976000Y-98461000D01*
G37*
G36*
X245376000Y-98461000D02*
G01*
X243524000Y-98461000D01*
X243524000Y-97809000D01*
X245376000Y-97809000D01*
X245376000Y-98461000D01*
X245376000Y-98461000D01*
G37*
G36*
X162981000Y-97926000D02*
G01*
X161819000Y-97926000D01*
X161819000Y-97174000D01*
X162981000Y-97174000D01*
X162981000Y-97926000D01*
X162981000Y-97926000D01*
G37*
G36*
X165181000Y-97926000D02*
G01*
X164019000Y-97926000D01*
X164019000Y-97174000D01*
X165181000Y-97174000D01*
X165181000Y-97926000D01*
X165181000Y-97926000D01*
G37*
G36*
X114802037Y-94478693D02*
G01*
X114952411Y-94508604D01*
X115214356Y-94617105D01*
X115234674Y-94625521D01*
X115488705Y-94795259D01*
X115704741Y-95011295D01*
X115819075Y-95182408D01*
X115874479Y-95265326D01*
X115951388Y-95451000D01*
X115991396Y-95547590D01*
X116051000Y-95847240D01*
X116051000Y-96152760D01*
X116016328Y-96327066D01*
X115991396Y-96452411D01*
X115886994Y-96704461D01*
X115874479Y-96734674D01*
X115704741Y-96988705D01*
X115488705Y-97204741D01*
X115421440Y-97249686D01*
X115234674Y-97374479D01*
X114952411Y-97491396D01*
X114852527Y-97511264D01*
X114652760Y-97551000D01*
X114347240Y-97551000D01*
X114147473Y-97511264D01*
X114047589Y-97491396D01*
X113765326Y-97374479D01*
X113578560Y-97249686D01*
X113511295Y-97204741D01*
X113295259Y-96988705D01*
X113125521Y-96734674D01*
X113113006Y-96704461D01*
X113008604Y-96452411D01*
X112983672Y-96327066D01*
X112949000Y-96152760D01*
X112949000Y-95847240D01*
X113008604Y-95547590D01*
X113048613Y-95451000D01*
X113125521Y-95265326D01*
X113180925Y-95182408D01*
X113295259Y-95011295D01*
X113511295Y-94795259D01*
X113765326Y-94625521D01*
X113785644Y-94617105D01*
X114047589Y-94508604D01*
X114197963Y-94478693D01*
X114347240Y-94449000D01*
X114652760Y-94449000D01*
X114802037Y-94478693D01*
X114802037Y-94478693D01*
G37*
G36*
X155802037Y-94478693D02*
G01*
X155952411Y-94508604D01*
X156214356Y-94617105D01*
X156234674Y-94625521D01*
X156488705Y-94795259D01*
X156704741Y-95011295D01*
X156819075Y-95182408D01*
X156874479Y-95265326D01*
X156951388Y-95451000D01*
X156991396Y-95547590D01*
X157051000Y-95847240D01*
X157051000Y-96152760D01*
X157016328Y-96327066D01*
X156991396Y-96452411D01*
X156886994Y-96704461D01*
X156874479Y-96734674D01*
X156704741Y-96988705D01*
X156488705Y-97204741D01*
X156421440Y-97249686D01*
X156234674Y-97374479D01*
X155952411Y-97491396D01*
X155852527Y-97511264D01*
X155652760Y-97551000D01*
X155347240Y-97551000D01*
X155147473Y-97511264D01*
X155047589Y-97491396D01*
X154765326Y-97374479D01*
X154578560Y-97249686D01*
X154511295Y-97204741D01*
X154295259Y-96988705D01*
X154125521Y-96734674D01*
X154113006Y-96704461D01*
X154008604Y-96452411D01*
X153983672Y-96327066D01*
X153949000Y-96152760D01*
X153949000Y-95847240D01*
X154008604Y-95547590D01*
X154048613Y-95451000D01*
X154125521Y-95265326D01*
X154180925Y-95182408D01*
X154295259Y-95011295D01*
X154511295Y-94795259D01*
X154765326Y-94625521D01*
X154785644Y-94617105D01*
X155047589Y-94508604D01*
X155197963Y-94478693D01*
X155347240Y-94449000D01*
X155652760Y-94449000D01*
X155802037Y-94478693D01*
X155802037Y-94478693D01*
G37*
G36*
X145302037Y-94478693D02*
G01*
X145452411Y-94508604D01*
X145714356Y-94617105D01*
X145734674Y-94625521D01*
X145988705Y-94795259D01*
X146204741Y-95011295D01*
X146319075Y-95182408D01*
X146374479Y-95265326D01*
X146451388Y-95451000D01*
X146491396Y-95547590D01*
X146551000Y-95847240D01*
X146551000Y-96152760D01*
X146516328Y-96327066D01*
X146491396Y-96452411D01*
X146386994Y-96704461D01*
X146374479Y-96734674D01*
X146204741Y-96988705D01*
X145988705Y-97204741D01*
X145921440Y-97249686D01*
X145734674Y-97374479D01*
X145452411Y-97491396D01*
X145352527Y-97511264D01*
X145152760Y-97551000D01*
X144847240Y-97551000D01*
X144647473Y-97511264D01*
X144547589Y-97491396D01*
X144265326Y-97374479D01*
X144078560Y-97249686D01*
X144011295Y-97204741D01*
X143795259Y-96988705D01*
X143625521Y-96734674D01*
X143613006Y-96704461D01*
X143508604Y-96452411D01*
X143483672Y-96327066D01*
X143449000Y-96152760D01*
X143449000Y-95847240D01*
X143508604Y-95547590D01*
X143548613Y-95451000D01*
X143625521Y-95265326D01*
X143680925Y-95182408D01*
X143795259Y-95011295D01*
X144011295Y-94795259D01*
X144265326Y-94625521D01*
X144285644Y-94617105D01*
X144547589Y-94508604D01*
X144697963Y-94478693D01*
X144847240Y-94449000D01*
X145152760Y-94449000D01*
X145302037Y-94478693D01*
X145302037Y-94478693D01*
G37*
G36*
X119052037Y-94478693D02*
G01*
X119202411Y-94508604D01*
X119464356Y-94617105D01*
X119484674Y-94625521D01*
X119738705Y-94795259D01*
X119954741Y-95011295D01*
X120069075Y-95182408D01*
X120124479Y-95265326D01*
X120201388Y-95451000D01*
X120241396Y-95547590D01*
X120301000Y-95847240D01*
X120301000Y-96152760D01*
X120266328Y-96327066D01*
X120241396Y-96452411D01*
X120136994Y-96704461D01*
X120124479Y-96734674D01*
X119954741Y-96988705D01*
X119738705Y-97204741D01*
X119671440Y-97249686D01*
X119484674Y-97374479D01*
X119202411Y-97491396D01*
X119102527Y-97511264D01*
X118902760Y-97551000D01*
X118597240Y-97551000D01*
X118397473Y-97511264D01*
X118297589Y-97491396D01*
X118015326Y-97374479D01*
X117828560Y-97249686D01*
X117761295Y-97204741D01*
X117545259Y-96988705D01*
X117375521Y-96734674D01*
X117363006Y-96704461D01*
X117258604Y-96452411D01*
X117233672Y-96327066D01*
X117199000Y-96152760D01*
X117199000Y-95847240D01*
X117258604Y-95547590D01*
X117298613Y-95451000D01*
X117375521Y-95265326D01*
X117430925Y-95182408D01*
X117545259Y-95011295D01*
X117761295Y-94795259D01*
X118015326Y-94625521D01*
X118035644Y-94617105D01*
X118297589Y-94508604D01*
X118447963Y-94478693D01*
X118597240Y-94449000D01*
X118902760Y-94449000D01*
X119052037Y-94478693D01*
X119052037Y-94478693D01*
G37*
G36*
X102052037Y-94478693D02*
G01*
X102202411Y-94508604D01*
X102464356Y-94617105D01*
X102484674Y-94625521D01*
X102738705Y-94795259D01*
X102954741Y-95011295D01*
X103069075Y-95182408D01*
X103124479Y-95265326D01*
X103201388Y-95451000D01*
X103241396Y-95547590D01*
X103301000Y-95847240D01*
X103301000Y-96152760D01*
X103266328Y-96327066D01*
X103241396Y-96452411D01*
X103136994Y-96704461D01*
X103124479Y-96734674D01*
X102954741Y-96988705D01*
X102738705Y-97204741D01*
X102671440Y-97249686D01*
X102484674Y-97374479D01*
X102202411Y-97491396D01*
X102102527Y-97511264D01*
X101902760Y-97551000D01*
X101597240Y-97551000D01*
X101397473Y-97511264D01*
X101297589Y-97491396D01*
X101015326Y-97374479D01*
X100828560Y-97249686D01*
X100761295Y-97204741D01*
X100545259Y-96988705D01*
X100375521Y-96734674D01*
X100363006Y-96704461D01*
X100258604Y-96452411D01*
X100233672Y-96327066D01*
X100199000Y-96152760D01*
X100199000Y-95847240D01*
X100258604Y-95547590D01*
X100298613Y-95451000D01*
X100375521Y-95265326D01*
X100430925Y-95182408D01*
X100545259Y-95011295D01*
X100761295Y-94795259D01*
X101015326Y-94625521D01*
X101035644Y-94617105D01*
X101297589Y-94508604D01*
X101447963Y-94478693D01*
X101597240Y-94449000D01*
X101902760Y-94449000D01*
X102052037Y-94478693D01*
X102052037Y-94478693D01*
G37*
G36*
X97802037Y-94478693D02*
G01*
X97952411Y-94508604D01*
X98214356Y-94617105D01*
X98234674Y-94625521D01*
X98488705Y-94795259D01*
X98704741Y-95011295D01*
X98819075Y-95182408D01*
X98874479Y-95265326D01*
X98951388Y-95451000D01*
X98991396Y-95547590D01*
X99051000Y-95847240D01*
X99051000Y-96152760D01*
X99016328Y-96327066D01*
X98991396Y-96452411D01*
X98886994Y-96704461D01*
X98874479Y-96734674D01*
X98704741Y-96988705D01*
X98488705Y-97204741D01*
X98421440Y-97249686D01*
X98234674Y-97374479D01*
X97952411Y-97491396D01*
X97852527Y-97511264D01*
X97652760Y-97551000D01*
X97347240Y-97551000D01*
X97147473Y-97511264D01*
X97047589Y-97491396D01*
X96765326Y-97374479D01*
X96578560Y-97249686D01*
X96511295Y-97204741D01*
X96295259Y-96988705D01*
X96125521Y-96734674D01*
X96113006Y-96704461D01*
X96008604Y-96452411D01*
X95983672Y-96327066D01*
X95949000Y-96152760D01*
X95949000Y-95847240D01*
X96008604Y-95547590D01*
X96048613Y-95451000D01*
X96125521Y-95265326D01*
X96180925Y-95182408D01*
X96295259Y-95011295D01*
X96511295Y-94795259D01*
X96765326Y-94625521D01*
X96785644Y-94617105D01*
X97047589Y-94508604D01*
X97197963Y-94478693D01*
X97347240Y-94449000D01*
X97652760Y-94449000D01*
X97802037Y-94478693D01*
X97802037Y-94478693D01*
G37*
G36*
X110552037Y-94478693D02*
G01*
X110702411Y-94508604D01*
X110964356Y-94617105D01*
X110984674Y-94625521D01*
X111238705Y-94795259D01*
X111454741Y-95011295D01*
X111569075Y-95182408D01*
X111624479Y-95265326D01*
X111701388Y-95451000D01*
X111741396Y-95547590D01*
X111801000Y-95847240D01*
X111801000Y-96152760D01*
X111766328Y-96327066D01*
X111741396Y-96452411D01*
X111636994Y-96704461D01*
X111624479Y-96734674D01*
X111454741Y-96988705D01*
X111238705Y-97204741D01*
X111171440Y-97249686D01*
X110984674Y-97374479D01*
X110702411Y-97491396D01*
X110602527Y-97511264D01*
X110402760Y-97551000D01*
X110097240Y-97551000D01*
X109897473Y-97511264D01*
X109797589Y-97491396D01*
X109515326Y-97374479D01*
X109328560Y-97249686D01*
X109261295Y-97204741D01*
X109045259Y-96988705D01*
X108875521Y-96734674D01*
X108863006Y-96704461D01*
X108758604Y-96452411D01*
X108733672Y-96327066D01*
X108699000Y-96152760D01*
X108699000Y-95847240D01*
X108758604Y-95547590D01*
X108798613Y-95451000D01*
X108875521Y-95265326D01*
X108930925Y-95182408D01*
X109045259Y-95011295D01*
X109261295Y-94795259D01*
X109515326Y-94625521D01*
X109535644Y-94617105D01*
X109797589Y-94508604D01*
X109947963Y-94478693D01*
X110097240Y-94449000D01*
X110402760Y-94449000D01*
X110552037Y-94478693D01*
X110552037Y-94478693D01*
G37*
G36*
X106302037Y-94478693D02*
G01*
X106452411Y-94508604D01*
X106714356Y-94617105D01*
X106734674Y-94625521D01*
X106988705Y-94795259D01*
X107204741Y-95011295D01*
X107319075Y-95182408D01*
X107374479Y-95265326D01*
X107451388Y-95451000D01*
X107491396Y-95547590D01*
X107551000Y-95847240D01*
X107551000Y-96152760D01*
X107516328Y-96327066D01*
X107491396Y-96452411D01*
X107386994Y-96704461D01*
X107374479Y-96734674D01*
X107204741Y-96988705D01*
X106988705Y-97204741D01*
X106921440Y-97249686D01*
X106734674Y-97374479D01*
X106452411Y-97491396D01*
X106352527Y-97511264D01*
X106152760Y-97551000D01*
X105847240Y-97551000D01*
X105647473Y-97511264D01*
X105547589Y-97491396D01*
X105265326Y-97374479D01*
X105078560Y-97249686D01*
X105011295Y-97204741D01*
X104795259Y-96988705D01*
X104625521Y-96734674D01*
X104613006Y-96704461D01*
X104508604Y-96452411D01*
X104483672Y-96327066D01*
X104449000Y-96152760D01*
X104449000Y-95847240D01*
X104508604Y-95547590D01*
X104548613Y-95451000D01*
X104625521Y-95265326D01*
X104680925Y-95182408D01*
X104795259Y-95011295D01*
X105011295Y-94795259D01*
X105265326Y-94625521D01*
X105285644Y-94617105D01*
X105547589Y-94508604D01*
X105697963Y-94478693D01*
X105847240Y-94449000D01*
X106152760Y-94449000D01*
X106302037Y-94478693D01*
X106302037Y-94478693D01*
G37*
G36*
X69302037Y-94478693D02*
G01*
X69452411Y-94508604D01*
X69714356Y-94617105D01*
X69734674Y-94625521D01*
X69988705Y-94795259D01*
X70204741Y-95011295D01*
X70319075Y-95182408D01*
X70374479Y-95265326D01*
X70451388Y-95451000D01*
X70491396Y-95547590D01*
X70551000Y-95847240D01*
X70551000Y-96152760D01*
X70516328Y-96327066D01*
X70491396Y-96452411D01*
X70386994Y-96704461D01*
X70374479Y-96734674D01*
X70204741Y-96988705D01*
X69988705Y-97204741D01*
X69921440Y-97249686D01*
X69734674Y-97374479D01*
X69452411Y-97491396D01*
X69352527Y-97511264D01*
X69152760Y-97551000D01*
X68847240Y-97551000D01*
X68647473Y-97511264D01*
X68547589Y-97491396D01*
X68265326Y-97374479D01*
X68078560Y-97249686D01*
X68011295Y-97204741D01*
X67795259Y-96988705D01*
X67625521Y-96734674D01*
X67613006Y-96704461D01*
X67508604Y-96452411D01*
X67483672Y-96327066D01*
X67449000Y-96152760D01*
X67449000Y-95847240D01*
X67508604Y-95547590D01*
X67548613Y-95451000D01*
X67625521Y-95265326D01*
X67680925Y-95182408D01*
X67795259Y-95011295D01*
X68011295Y-94795259D01*
X68265326Y-94625521D01*
X68285644Y-94617105D01*
X68547589Y-94508604D01*
X68697963Y-94478693D01*
X68847240Y-94449000D01*
X69152760Y-94449000D01*
X69302037Y-94478693D01*
X69302037Y-94478693D01*
G37*
G36*
X205552037Y-94228693D02*
G01*
X205702411Y-94258604D01*
X205964356Y-94367105D01*
X205984674Y-94375521D01*
X206238705Y-94545259D01*
X206454741Y-94761295D01*
X206585340Y-94956750D01*
X206624479Y-95015326D01*
X206708437Y-95218018D01*
X206741396Y-95297590D01*
X206801000Y-95597240D01*
X206801000Y-95902760D01*
X206782533Y-95995599D01*
X206741396Y-96202411D01*
X206655177Y-96410562D01*
X206624479Y-96484674D01*
X206454741Y-96738705D01*
X206238705Y-96954741D01*
X206084324Y-97057895D01*
X205984674Y-97124479D01*
X205702411Y-97241396D01*
X205602527Y-97261264D01*
X205402760Y-97301000D01*
X205097240Y-97301000D01*
X204897473Y-97261264D01*
X204797589Y-97241396D01*
X204515326Y-97124479D01*
X204415676Y-97057895D01*
X204261295Y-96954741D01*
X204045259Y-96738705D01*
X203875521Y-96484674D01*
X203844823Y-96410562D01*
X203758604Y-96202411D01*
X203717467Y-95995599D01*
X203699000Y-95902760D01*
X203699000Y-95597240D01*
X203758604Y-95297590D01*
X203791564Y-95218018D01*
X203875521Y-95015326D01*
X203914660Y-94956750D01*
X204045259Y-94761295D01*
X204261295Y-94545259D01*
X204515326Y-94375521D01*
X204535644Y-94367105D01*
X204797589Y-94258604D01*
X204947963Y-94228693D01*
X205097240Y-94199000D01*
X205402760Y-94199000D01*
X205552037Y-94228693D01*
X205552037Y-94228693D01*
G37*
G36*
X194552037Y-94228693D02*
G01*
X194702411Y-94258604D01*
X194964356Y-94367105D01*
X194984674Y-94375521D01*
X195238705Y-94545259D01*
X195454741Y-94761295D01*
X195585340Y-94956750D01*
X195624479Y-95015326D01*
X195708437Y-95218018D01*
X195741396Y-95297590D01*
X195801000Y-95597240D01*
X195801000Y-95902760D01*
X195782533Y-95995599D01*
X195741396Y-96202411D01*
X195655177Y-96410562D01*
X195624479Y-96484674D01*
X195454741Y-96738705D01*
X195238705Y-96954741D01*
X195084324Y-97057895D01*
X194984674Y-97124479D01*
X194702411Y-97241396D01*
X194602527Y-97261264D01*
X194402760Y-97301000D01*
X194097240Y-97301000D01*
X193897473Y-97261264D01*
X193797589Y-97241396D01*
X193515326Y-97124479D01*
X193415676Y-97057895D01*
X193261295Y-96954741D01*
X193045259Y-96738705D01*
X192875521Y-96484674D01*
X192844823Y-96410562D01*
X192758604Y-96202411D01*
X192717467Y-95995599D01*
X192699000Y-95902760D01*
X192699000Y-95597240D01*
X192758604Y-95297590D01*
X192791564Y-95218018D01*
X192875521Y-95015326D01*
X192914660Y-94956750D01*
X193045259Y-94761295D01*
X193261295Y-94545259D01*
X193515326Y-94375521D01*
X193535644Y-94367105D01*
X193797589Y-94258604D01*
X193947963Y-94228693D01*
X194097240Y-94199000D01*
X194402760Y-94199000D01*
X194552037Y-94228693D01*
X194552037Y-94228693D01*
G37*
G36*
X199802037Y-94228693D02*
G01*
X199952411Y-94258604D01*
X200214356Y-94367105D01*
X200234674Y-94375521D01*
X200488705Y-94545259D01*
X200704741Y-94761295D01*
X200835340Y-94956750D01*
X200874479Y-95015326D01*
X200958437Y-95218018D01*
X200991396Y-95297590D01*
X201051000Y-95597240D01*
X201051000Y-95902760D01*
X201032533Y-95995599D01*
X200991396Y-96202411D01*
X200905177Y-96410562D01*
X200874479Y-96484674D01*
X200704741Y-96738705D01*
X200488705Y-96954741D01*
X200334324Y-97057895D01*
X200234674Y-97124479D01*
X199952411Y-97241396D01*
X199852527Y-97261264D01*
X199652760Y-97301000D01*
X199347240Y-97301000D01*
X199147473Y-97261264D01*
X199047589Y-97241396D01*
X198765326Y-97124479D01*
X198665676Y-97057895D01*
X198511295Y-96954741D01*
X198295259Y-96738705D01*
X198125521Y-96484674D01*
X198094823Y-96410562D01*
X198008604Y-96202411D01*
X197967467Y-95995599D01*
X197949000Y-95902760D01*
X197949000Y-95597240D01*
X198008604Y-95297590D01*
X198041564Y-95218018D01*
X198125521Y-95015326D01*
X198164660Y-94956750D01*
X198295259Y-94761295D01*
X198511295Y-94545259D01*
X198765326Y-94375521D01*
X198785644Y-94367105D01*
X199047589Y-94258604D01*
X199197963Y-94228693D01*
X199347240Y-94199000D01*
X199652760Y-94199000D01*
X199802037Y-94228693D01*
X199802037Y-94228693D01*
G37*
G36*
X182802037Y-94228693D02*
G01*
X182952411Y-94258604D01*
X183214356Y-94367105D01*
X183234674Y-94375521D01*
X183488705Y-94545259D01*
X183704741Y-94761295D01*
X183835340Y-94956750D01*
X183874479Y-95015326D01*
X183958437Y-95218018D01*
X183991396Y-95297590D01*
X184051000Y-95597240D01*
X184051000Y-95902760D01*
X184032533Y-95995599D01*
X183991396Y-96202411D01*
X183905177Y-96410562D01*
X183874479Y-96484674D01*
X183704741Y-96738705D01*
X183488705Y-96954741D01*
X183334324Y-97057895D01*
X183234674Y-97124479D01*
X182952411Y-97241396D01*
X182852527Y-97261264D01*
X182652760Y-97301000D01*
X182347240Y-97301000D01*
X182147473Y-97261264D01*
X182047589Y-97241396D01*
X181765326Y-97124479D01*
X181665676Y-97057895D01*
X181511295Y-96954741D01*
X181295259Y-96738705D01*
X181125521Y-96484674D01*
X181094823Y-96410562D01*
X181008604Y-96202411D01*
X180967467Y-95995599D01*
X180949000Y-95902760D01*
X180949000Y-95597240D01*
X181008604Y-95297590D01*
X181041564Y-95218018D01*
X181125521Y-95015326D01*
X181164660Y-94956750D01*
X181295259Y-94761295D01*
X181511295Y-94545259D01*
X181765326Y-94375521D01*
X181785644Y-94367105D01*
X182047589Y-94258604D01*
X182197963Y-94228693D01*
X182347240Y-94199000D01*
X182652760Y-94199000D01*
X182802037Y-94228693D01*
X182802037Y-94228693D01*
G37*
G36*
X233052037Y-94228693D02*
G01*
X233202411Y-94258604D01*
X233464356Y-94367105D01*
X233484674Y-94375521D01*
X233738705Y-94545259D01*
X233954741Y-94761295D01*
X234085340Y-94956750D01*
X234124479Y-95015326D01*
X234208437Y-95218018D01*
X234241396Y-95297590D01*
X234301000Y-95597240D01*
X234301000Y-95902760D01*
X234282533Y-95995599D01*
X234241396Y-96202411D01*
X234155177Y-96410562D01*
X234124479Y-96484674D01*
X233954741Y-96738705D01*
X233738705Y-96954741D01*
X233584324Y-97057895D01*
X233484674Y-97124479D01*
X233202411Y-97241396D01*
X233102527Y-97261264D01*
X232902760Y-97301000D01*
X232597240Y-97301000D01*
X232397473Y-97261264D01*
X232297589Y-97241396D01*
X232015326Y-97124479D01*
X231915676Y-97057895D01*
X231761295Y-96954741D01*
X231545259Y-96738705D01*
X231375521Y-96484674D01*
X231344823Y-96410562D01*
X231258604Y-96202411D01*
X231217467Y-95995599D01*
X231199000Y-95902760D01*
X231199000Y-95597240D01*
X231258604Y-95297590D01*
X231291564Y-95218018D01*
X231375521Y-95015326D01*
X231414660Y-94956750D01*
X231545259Y-94761295D01*
X231761295Y-94545259D01*
X232015326Y-94375521D01*
X232035644Y-94367105D01*
X232297589Y-94258604D01*
X232447963Y-94228693D01*
X232597240Y-94199000D01*
X232902760Y-94199000D01*
X233052037Y-94228693D01*
X233052037Y-94228693D01*
G37*
G36*
X166589438Y-96228572D02*
G01*
X166632895Y-96241754D01*
X166672934Y-96263156D01*
X166708036Y-96291964D01*
X166736844Y-96327066D01*
X166758246Y-96367105D01*
X166771428Y-96410562D01*
X166776000Y-96456982D01*
X166776000Y-96968018D01*
X166771428Y-97014438D01*
X166758246Y-97057895D01*
X166736844Y-97097934D01*
X166708036Y-97133036D01*
X166672934Y-97161844D01*
X166632895Y-97183246D01*
X166589438Y-97196428D01*
X166543018Y-97201000D01*
X165956982Y-97201000D01*
X165910562Y-97196428D01*
X165867105Y-97183246D01*
X165827066Y-97161844D01*
X165791964Y-97133036D01*
X165763156Y-97097934D01*
X165741754Y-97057895D01*
X165728572Y-97014438D01*
X165724000Y-96968018D01*
X165724000Y-96456982D01*
X165728572Y-96410562D01*
X165741754Y-96367105D01*
X165763156Y-96327066D01*
X165791964Y-96291964D01*
X165827066Y-96263156D01*
X165867105Y-96241754D01*
X165910562Y-96228572D01*
X165956982Y-96224000D01*
X166543018Y-96224000D01*
X166589438Y-96228572D01*
X166589438Y-96228572D01*
G37*
G36*
X161039438Y-96228572D02*
G01*
X161082895Y-96241754D01*
X161122934Y-96263156D01*
X161158036Y-96291964D01*
X161186844Y-96327066D01*
X161208246Y-96367105D01*
X161221428Y-96410562D01*
X161226000Y-96456982D01*
X161226000Y-96968018D01*
X161221428Y-97014438D01*
X161208246Y-97057895D01*
X161186844Y-97097934D01*
X161158036Y-97133036D01*
X161122934Y-97161844D01*
X161082895Y-97183246D01*
X161039438Y-97196428D01*
X160993018Y-97201000D01*
X160406982Y-97201000D01*
X160360562Y-97196428D01*
X160317105Y-97183246D01*
X160277066Y-97161844D01*
X160241964Y-97133036D01*
X160213156Y-97097934D01*
X160191754Y-97057895D01*
X160178572Y-97014438D01*
X160174000Y-96968018D01*
X160174000Y-96456982D01*
X160178572Y-96410562D01*
X160191754Y-96367105D01*
X160213156Y-96327066D01*
X160241964Y-96291964D01*
X160277066Y-96263156D01*
X160317105Y-96241754D01*
X160360562Y-96228572D01*
X160406982Y-96224000D01*
X160993018Y-96224000D01*
X161039438Y-96228572D01*
X161039438Y-96228572D01*
G37*
G36*
X159439438Y-96228572D02*
G01*
X159482895Y-96241754D01*
X159522934Y-96263156D01*
X159558036Y-96291964D01*
X159586844Y-96327066D01*
X159608246Y-96367105D01*
X159621428Y-96410562D01*
X159626000Y-96456982D01*
X159626000Y-96968018D01*
X159621428Y-97014438D01*
X159608246Y-97057895D01*
X159586844Y-97097934D01*
X159558036Y-97133036D01*
X159522934Y-97161844D01*
X159482895Y-97183246D01*
X159439438Y-97196428D01*
X159393018Y-97201000D01*
X158806982Y-97201000D01*
X158760562Y-97196428D01*
X158717105Y-97183246D01*
X158677066Y-97161844D01*
X158641964Y-97133036D01*
X158613156Y-97097934D01*
X158591754Y-97057895D01*
X158578572Y-97014438D01*
X158574000Y-96968018D01*
X158574000Y-96456982D01*
X158578572Y-96410562D01*
X158591754Y-96367105D01*
X158613156Y-96327066D01*
X158641964Y-96291964D01*
X158677066Y-96263156D01*
X158717105Y-96241754D01*
X158760562Y-96228572D01*
X158806982Y-96224000D01*
X159393018Y-96224000D01*
X159439438Y-96228572D01*
X159439438Y-96228572D01*
G37*
G36*
X237976000Y-97191000D02*
G01*
X236124000Y-97191000D01*
X236124000Y-96539000D01*
X237976000Y-96539000D01*
X237976000Y-97191000D01*
X237976000Y-97191000D01*
G37*
G36*
X245376000Y-97191000D02*
G01*
X243524000Y-97191000D01*
X243524000Y-96539000D01*
X245376000Y-96539000D01*
X245376000Y-97191000D01*
X245376000Y-97191000D01*
G37*
G36*
X208839438Y-96053572D02*
G01*
X208882895Y-96066754D01*
X208922934Y-96088156D01*
X208958036Y-96116964D01*
X208986844Y-96152066D01*
X209008246Y-96192105D01*
X209021428Y-96235562D01*
X209026000Y-96281982D01*
X209026000Y-96793018D01*
X209021428Y-96839438D01*
X209008246Y-96882895D01*
X208986844Y-96922934D01*
X208958036Y-96958036D01*
X208922934Y-96986844D01*
X208882895Y-97008246D01*
X208839438Y-97021428D01*
X208793018Y-97026000D01*
X208206982Y-97026000D01*
X208160562Y-97021428D01*
X208117105Y-97008246D01*
X208077066Y-96986844D01*
X208041964Y-96958036D01*
X208013156Y-96922934D01*
X207991754Y-96882895D01*
X207978572Y-96839438D01*
X207974000Y-96793018D01*
X207974000Y-96281982D01*
X207978572Y-96235562D01*
X207991754Y-96192105D01*
X208013156Y-96152066D01*
X208041964Y-96116964D01*
X208077066Y-96088156D01*
X208117105Y-96066754D01*
X208160562Y-96053572D01*
X208206982Y-96049000D01*
X208793018Y-96049000D01*
X208839438Y-96053572D01*
X208839438Y-96053572D01*
G37*
G36*
X165181000Y-96976000D02*
G01*
X164019000Y-96976000D01*
X164019000Y-96224000D01*
X165181000Y-96224000D01*
X165181000Y-96976000D01*
X165181000Y-96976000D01*
G37*
G36*
X162981000Y-96976000D02*
G01*
X161819000Y-96976000D01*
X161819000Y-96224000D01*
X162981000Y-96224000D01*
X162981000Y-96976000D01*
X162981000Y-96976000D01*
G37*
G36*
X191089438Y-95803572D02*
G01*
X191132895Y-95816754D01*
X191172934Y-95838156D01*
X191208036Y-95866964D01*
X191236844Y-95902066D01*
X191258246Y-95942105D01*
X191271428Y-95985562D01*
X191276000Y-96031982D01*
X191276000Y-96543018D01*
X191271428Y-96589438D01*
X191258246Y-96632895D01*
X191236844Y-96672934D01*
X191208036Y-96708036D01*
X191172934Y-96736844D01*
X191132895Y-96758246D01*
X191089438Y-96771428D01*
X191043018Y-96776000D01*
X190456982Y-96776000D01*
X190410562Y-96771428D01*
X190367105Y-96758246D01*
X190327066Y-96736844D01*
X190291964Y-96708036D01*
X190263156Y-96672934D01*
X190241754Y-96632895D01*
X190228572Y-96589438D01*
X190224000Y-96543018D01*
X190224000Y-96031982D01*
X190228572Y-95985562D01*
X190241754Y-95942105D01*
X190263156Y-95902066D01*
X190291964Y-95866964D01*
X190327066Y-95838156D01*
X190367105Y-95816754D01*
X190410562Y-95803572D01*
X190456982Y-95799000D01*
X191043018Y-95799000D01*
X191089438Y-95803572D01*
X191089438Y-95803572D01*
G37*
G36*
X178839438Y-95803572D02*
G01*
X178882895Y-95816754D01*
X178922934Y-95838156D01*
X178958036Y-95866964D01*
X178986844Y-95902066D01*
X179008246Y-95942105D01*
X179021428Y-95985562D01*
X179026000Y-96031982D01*
X179026000Y-96543018D01*
X179021428Y-96589438D01*
X179008246Y-96632895D01*
X178986844Y-96672934D01*
X178958036Y-96708036D01*
X178922934Y-96736844D01*
X178882895Y-96758246D01*
X178839438Y-96771428D01*
X178793018Y-96776000D01*
X178206982Y-96776000D01*
X178160562Y-96771428D01*
X178117105Y-96758246D01*
X178077066Y-96736844D01*
X178041964Y-96708036D01*
X178013156Y-96672934D01*
X177991754Y-96632895D01*
X177978572Y-96589438D01*
X177974000Y-96543018D01*
X177974000Y-96031982D01*
X177978572Y-95985562D01*
X177991754Y-95942105D01*
X178013156Y-95902066D01*
X178041964Y-95866964D01*
X178077066Y-95838156D01*
X178117105Y-95816754D01*
X178160562Y-95803572D01*
X178206982Y-95799000D01*
X178793018Y-95799000D01*
X178839438Y-95803572D01*
X178839438Y-95803572D01*
G37*
G36*
X237976000Y-95921000D02*
G01*
X236124000Y-95921000D01*
X236124000Y-95269000D01*
X237976000Y-95269000D01*
X237976000Y-95921000D01*
X237976000Y-95921000D01*
G37*
G36*
X245376000Y-95921000D02*
G01*
X243524000Y-95921000D01*
X243524000Y-95269000D01*
X245376000Y-95269000D01*
X245376000Y-95921000D01*
X245376000Y-95921000D01*
G37*
G36*
X208839438Y-94478572D02*
G01*
X208882895Y-94491754D01*
X208922934Y-94513156D01*
X208958036Y-94541964D01*
X208986844Y-94577066D01*
X209008246Y-94617105D01*
X209021428Y-94660562D01*
X209026000Y-94706982D01*
X209026000Y-95218018D01*
X209021428Y-95264438D01*
X209008246Y-95307895D01*
X208986844Y-95347934D01*
X208958036Y-95383036D01*
X208922934Y-95411844D01*
X208882895Y-95433246D01*
X208839438Y-95446428D01*
X208793018Y-95451000D01*
X208206982Y-95451000D01*
X208160562Y-95446428D01*
X208117105Y-95433246D01*
X208077066Y-95411844D01*
X208041964Y-95383036D01*
X208013156Y-95347934D01*
X207991754Y-95307895D01*
X207978572Y-95264438D01*
X207974000Y-95218018D01*
X207974000Y-94706982D01*
X207978572Y-94660562D01*
X207991754Y-94617105D01*
X208013156Y-94577066D01*
X208041964Y-94541964D01*
X208077066Y-94513156D01*
X208117105Y-94491754D01*
X208160562Y-94478572D01*
X208206982Y-94474000D01*
X208793018Y-94474000D01*
X208839438Y-94478572D01*
X208839438Y-94478572D01*
G37*
G36*
X191089438Y-94228572D02*
G01*
X191132895Y-94241754D01*
X191172934Y-94263156D01*
X191208036Y-94291964D01*
X191236844Y-94327066D01*
X191258246Y-94367105D01*
X191271428Y-94410562D01*
X191276000Y-94456982D01*
X191276000Y-94968018D01*
X191271428Y-95014438D01*
X191258246Y-95057895D01*
X191236844Y-95097934D01*
X191208036Y-95133036D01*
X191172934Y-95161844D01*
X191132895Y-95183246D01*
X191089438Y-95196428D01*
X191043018Y-95201000D01*
X190456982Y-95201000D01*
X190410562Y-95196428D01*
X190367105Y-95183246D01*
X190327066Y-95161844D01*
X190291964Y-95133036D01*
X190263156Y-95097934D01*
X190241754Y-95057895D01*
X190228572Y-95014438D01*
X190224000Y-94968018D01*
X190224000Y-94456982D01*
X190228572Y-94410562D01*
X190241754Y-94367105D01*
X190263156Y-94327066D01*
X190291964Y-94291964D01*
X190327066Y-94263156D01*
X190367105Y-94241754D01*
X190410562Y-94228572D01*
X190456982Y-94224000D01*
X191043018Y-94224000D01*
X191089438Y-94228572D01*
X191089438Y-94228572D01*
G37*
G36*
X178839438Y-94228572D02*
G01*
X178882895Y-94241754D01*
X178922934Y-94263156D01*
X178958036Y-94291964D01*
X178986844Y-94327066D01*
X179008246Y-94367105D01*
X179021428Y-94410562D01*
X179026000Y-94456982D01*
X179026000Y-94968018D01*
X179021428Y-95014438D01*
X179008246Y-95057895D01*
X178986844Y-95097934D01*
X178958036Y-95133036D01*
X178922934Y-95161844D01*
X178882895Y-95183246D01*
X178839438Y-95196428D01*
X178793018Y-95201000D01*
X178206982Y-95201000D01*
X178160562Y-95196428D01*
X178117105Y-95183246D01*
X178077066Y-95161844D01*
X178041964Y-95133036D01*
X178013156Y-95097934D01*
X177991754Y-95057895D01*
X177978572Y-95014438D01*
X177974000Y-94968018D01*
X177974000Y-94456982D01*
X177978572Y-94410562D01*
X177991754Y-94367105D01*
X178013156Y-94327066D01*
X178041964Y-94291964D01*
X178077066Y-94263156D01*
X178117105Y-94241754D01*
X178160562Y-94228572D01*
X178206982Y-94224000D01*
X178793018Y-94224000D01*
X178839438Y-94228572D01*
X178839438Y-94228572D01*
G37*
M02*
