G04 #@! TF.GenerationSoftware,KiCad,Pcbnew,(5.1.4)-1*
G04 #@! TF.CreationDate,2019-11-12T21:59:56+01:00*
G04 #@! TF.ProjectId,Controller,436f6e74-726f-46c6-9c65-722e6b696361,rev?*
G04 #@! TF.SameCoordinates,Original*
G04 #@! TF.FileFunction,Soldermask,Top*
G04 #@! TF.FilePolarity,Negative*
%FSLAX46Y46*%
G04 Gerber Fmt 4.6, Leading zero omitted, Abs format (unit mm)*
G04 Created by KiCad (PCBNEW (5.1.4)-1) date 2019-11-12 21:59:56*
%MOMM*%
%LPD*%
G04 APERTURE LIST*
%ADD10C,0.010000*%
%ADD11C,0.100000*%
G04 APERTURE END LIST*
D10*
G36*
X59410832Y-102043089D02*
G01*
X59590510Y-102014774D01*
X59866467Y-102105414D01*
X60191608Y-102289973D01*
X60518833Y-102543417D01*
X60711400Y-102734413D01*
X60958172Y-103031335D01*
X61072196Y-103221556D01*
X61050827Y-103293264D01*
X60891417Y-103234647D01*
X60813000Y-103187814D01*
X60567802Y-103019021D01*
X60258835Y-102788470D01*
X60101800Y-102665233D01*
X59867203Y-102495672D01*
X59710381Y-102417721D01*
X59670000Y-102433515D01*
X59747295Y-102542693D01*
X59952434Y-102730405D01*
X60245294Y-102960830D01*
X60329527Y-103022360D01*
X60630073Y-103247852D01*
X60846257Y-103428045D01*
X60941982Y-103532211D01*
X60942040Y-103543827D01*
X60799654Y-103561114D01*
X60543710Y-103498491D01*
X60235228Y-103380030D01*
X59935229Y-103229805D01*
X59704733Y-103071888D01*
X59674686Y-103043856D01*
X59473476Y-102770799D01*
X59354247Y-102467701D01*
X59334010Y-102199084D01*
X59410832Y-102043089D01*
X59410832Y-102043089D01*
G37*
X59410832Y-102043089D02*
X59590510Y-102014774D01*
X59866467Y-102105414D01*
X60191608Y-102289973D01*
X60518833Y-102543417D01*
X60711400Y-102734413D01*
X60958172Y-103031335D01*
X61072196Y-103221556D01*
X61050827Y-103293264D01*
X60891417Y-103234647D01*
X60813000Y-103187814D01*
X60567802Y-103019021D01*
X60258835Y-102788470D01*
X60101800Y-102665233D01*
X59867203Y-102495672D01*
X59710381Y-102417721D01*
X59670000Y-102433515D01*
X59747295Y-102542693D01*
X59952434Y-102730405D01*
X60245294Y-102960830D01*
X60329527Y-103022360D01*
X60630073Y-103247852D01*
X60846257Y-103428045D01*
X60941982Y-103532211D01*
X60942040Y-103543827D01*
X60799654Y-103561114D01*
X60543710Y-103498491D01*
X60235228Y-103380030D01*
X59935229Y-103229805D01*
X59704733Y-103071888D01*
X59674686Y-103043856D01*
X59473476Y-102770799D01*
X59354247Y-102467701D01*
X59334010Y-102199084D01*
X59410832Y-102043089D01*
G36*
X60906977Y-101685948D02*
G01*
X61036157Y-101478340D01*
X61052114Y-101458240D01*
X61279266Y-101175200D01*
X61385006Y-101450623D01*
X61481030Y-101808724D01*
X61539471Y-102238746D01*
X61552655Y-102651462D01*
X61514253Y-102953200D01*
X61452964Y-103119479D01*
X61402809Y-103103352D01*
X61367122Y-103021091D01*
X61308482Y-102765625D01*
X61295600Y-102595287D01*
X61251253Y-102379509D01*
X61179937Y-102284109D01*
X61126266Y-102293132D01*
X61126266Y-102106534D01*
X61186667Y-102092587D01*
X61194000Y-102038800D01*
X61156826Y-101955172D01*
X61126266Y-101971067D01*
X61114107Y-102091643D01*
X61126266Y-102106534D01*
X61126266Y-102293132D01*
X61113209Y-102295328D01*
X61114468Y-102468682D01*
X61137043Y-102608313D01*
X61171876Y-102850378D01*
X61149111Y-102924629D01*
X61082401Y-102879415D01*
X60995615Y-102710455D01*
X60918357Y-102421075D01*
X60889976Y-102248055D01*
X60864325Y-101912926D01*
X60906977Y-101685948D01*
X60906977Y-101685948D01*
G37*
X60906977Y-101685948D02*
X61036157Y-101478340D01*
X61052114Y-101458240D01*
X61279266Y-101175200D01*
X61385006Y-101450623D01*
X61481030Y-101808724D01*
X61539471Y-102238746D01*
X61552655Y-102651462D01*
X61514253Y-102953200D01*
X61452964Y-103119479D01*
X61402809Y-103103352D01*
X61367122Y-103021091D01*
X61308482Y-102765625D01*
X61295600Y-102595287D01*
X61251253Y-102379509D01*
X61179937Y-102284109D01*
X61126266Y-102293132D01*
X61126266Y-102106534D01*
X61186667Y-102092587D01*
X61194000Y-102038800D01*
X61156826Y-101955172D01*
X61126266Y-101971067D01*
X61114107Y-102091643D01*
X61126266Y-102106534D01*
X61126266Y-102293132D01*
X61113209Y-102295328D01*
X61114468Y-102468682D01*
X61137043Y-102608313D01*
X61171876Y-102850378D01*
X61149111Y-102924629D01*
X61082401Y-102879415D01*
X60995615Y-102710455D01*
X60918357Y-102421075D01*
X60889976Y-102248055D01*
X60864325Y-101912926D01*
X60906977Y-101685948D01*
G36*
X61011164Y-103920212D02*
G01*
X61032395Y-103920964D01*
X61081335Y-104110355D01*
X61089447Y-104144456D01*
X61179423Y-104412963D01*
X61306995Y-104674277D01*
X61439618Y-104873871D01*
X61544749Y-104957219D01*
X61569348Y-104948519D01*
X61560136Y-104834294D01*
X61476898Y-104602082D01*
X61400921Y-104434088D01*
X61250111Y-104073757D01*
X61199114Y-103843308D01*
X61239866Y-103758024D01*
X61364304Y-103833188D01*
X61564364Y-104084081D01*
X61576317Y-104101676D01*
X61813862Y-104531821D01*
X61903066Y-104917764D01*
X61905200Y-104990294D01*
X61886364Y-105242947D01*
X61839382Y-105382161D01*
X61821310Y-105391600D01*
X61653307Y-105305563D01*
X61451868Y-105085242D01*
X61252979Y-104787326D01*
X61092630Y-104468505D01*
X61006810Y-104185467D01*
X61001199Y-104099775D01*
X61011164Y-103920212D01*
X61011164Y-103920212D01*
G37*
X61011164Y-103920212D02*
X61032395Y-103920964D01*
X61081335Y-104110355D01*
X61089447Y-104144456D01*
X61179423Y-104412963D01*
X61306995Y-104674277D01*
X61439618Y-104873871D01*
X61544749Y-104957219D01*
X61569348Y-104948519D01*
X61560136Y-104834294D01*
X61476898Y-104602082D01*
X61400921Y-104434088D01*
X61250111Y-104073757D01*
X61199114Y-103843308D01*
X61239866Y-103758024D01*
X61364304Y-103833188D01*
X61564364Y-104084081D01*
X61576317Y-104101676D01*
X61813862Y-104531821D01*
X61903066Y-104917764D01*
X61905200Y-104990294D01*
X61886364Y-105242947D01*
X61839382Y-105382161D01*
X61821310Y-105391600D01*
X61653307Y-105305563D01*
X61451868Y-105085242D01*
X61252979Y-104787326D01*
X61092630Y-104468505D01*
X61006810Y-104185467D01*
X61001199Y-104099775D01*
X61011164Y-103920212D01*
G36*
X69982400Y-103766000D02*
G01*
X70033200Y-103816800D01*
X69982400Y-103867600D01*
X69931600Y-103816800D01*
X69982400Y-103766000D01*
X69982400Y-103766000D01*
G37*
X69982400Y-103766000D02*
X70033200Y-103816800D01*
X69982400Y-103867600D01*
X69931600Y-103816800D01*
X69982400Y-103766000D01*
G36*
X61543838Y-103235394D02*
G01*
X61656712Y-102971516D01*
X61701999Y-102668572D01*
X61788664Y-102337741D01*
X62030976Y-101941857D01*
X62402415Y-101505890D01*
X62876459Y-101054812D01*
X63426587Y-100613597D01*
X64026279Y-100207216D01*
X64649013Y-99860641D01*
X64721441Y-99825492D01*
X65124734Y-99640825D01*
X65437908Y-99528873D01*
X65741716Y-99471892D01*
X66116910Y-99452136D01*
X66426400Y-99450815D01*
X66890006Y-99459340D01*
X67219529Y-99491035D01*
X67483894Y-99560195D01*
X67752024Y-99681112D01*
X67888149Y-99753955D01*
X68267006Y-100012243D01*
X68712818Y-100398090D01*
X69178683Y-100870752D01*
X69197591Y-100891458D01*
X69509779Y-101221944D01*
X69776325Y-101480945D01*
X69966528Y-101640102D01*
X70046077Y-101675242D01*
X70094485Y-101698345D01*
X70079841Y-101759000D01*
X70111597Y-101914260D01*
X70258801Y-102112791D01*
X70284205Y-102137587D01*
X70500819Y-102448761D01*
X70519021Y-102791647D01*
X70338568Y-103170151D01*
X70209398Y-103333908D01*
X69994022Y-103601240D01*
X69719279Y-103969576D01*
X69626800Y-104100403D01*
X69626800Y-101683200D01*
X69720572Y-101678556D01*
X69728400Y-101644393D01*
X69654257Y-101500763D01*
X69626800Y-101480000D01*
X69533027Y-101484645D01*
X69525200Y-101518808D01*
X69599342Y-101662438D01*
X69626800Y-101683200D01*
X69626800Y-104100403D01*
X69436548Y-104369549D01*
X69371198Y-104465527D01*
X69217211Y-104678419D01*
X69217211Y-101835600D01*
X69273113Y-101761127D01*
X69257141Y-101683200D01*
X69185027Y-101549519D01*
X69158729Y-101530800D01*
X69123213Y-101613765D01*
X69118800Y-101683200D01*
X69118800Y-101226000D01*
X69202428Y-101188827D01*
X69186533Y-101158267D01*
X69065957Y-101146108D01*
X69051066Y-101158267D01*
X69065013Y-101218668D01*
X69118800Y-101226000D01*
X69118800Y-101683200D01*
X69171970Y-101818432D01*
X69217211Y-101835600D01*
X69217211Y-104678419D01*
X69007540Y-104968296D01*
X68763200Y-105235021D01*
X68763200Y-100819600D01*
X68814000Y-100768800D01*
X68763200Y-100718000D01*
X68712400Y-100768800D01*
X68763200Y-100819600D01*
X68763200Y-105235021D01*
X68671252Y-105335394D01*
X68644666Y-105355817D01*
X68644666Y-101395334D01*
X68705067Y-101381387D01*
X68712400Y-101327600D01*
X68675226Y-101243972D01*
X68644666Y-101259867D01*
X68632507Y-101380443D01*
X68644666Y-101395334D01*
X68644666Y-105355817D01*
X68317992Y-105606774D01*
X68317992Y-100921200D01*
X68373076Y-100858602D01*
X68356800Y-100819600D01*
X68222209Y-100721794D01*
X68192407Y-100718000D01*
X68137323Y-100780599D01*
X68153600Y-100819600D01*
X68288190Y-100917407D01*
X68317992Y-100921200D01*
X68317992Y-105606774D01*
X68305735Y-105616191D01*
X67854390Y-105860053D01*
X67682696Y-105938304D01*
X67017914Y-106178801D01*
X66416219Y-106269674D01*
X65811458Y-106218103D01*
X65581310Y-106166319D01*
X65313265Y-106092793D01*
X65313265Y-104467429D01*
X65327520Y-104466828D01*
X65370526Y-104435787D01*
X65241389Y-104370852D01*
X65181800Y-104350531D01*
X64927164Y-104247800D01*
X64869695Y-104169430D01*
X65004463Y-104118646D01*
X65326537Y-104098671D01*
X65562762Y-104101426D01*
X65957561Y-104130492D01*
X66183348Y-104185931D01*
X66230202Y-104260614D01*
X66088201Y-104347412D01*
X65961667Y-104388071D01*
X65804895Y-104438925D01*
X65837454Y-104461132D01*
X65923480Y-104467073D01*
X66189962Y-104398801D01*
X66341313Y-104198629D01*
X66354093Y-104021187D01*
X66306953Y-103901744D01*
X66176195Y-103833296D01*
X65912787Y-103796998D01*
X65743246Y-103786409D01*
X65554696Y-103791019D01*
X65554696Y-103152228D01*
X65730634Y-103113465D01*
X65766000Y-103057989D01*
X65691854Y-103001287D01*
X65617790Y-103016451D01*
X65446656Y-103023280D01*
X65198430Y-102976771D01*
X64950859Y-102899229D01*
X64781689Y-102812960D01*
X64750131Y-102767521D01*
X64843502Y-102734860D01*
X65090362Y-102710701D01*
X65441044Y-102699498D01*
X65512141Y-102699200D01*
X65944786Y-102707360D01*
X66187512Y-102735534D01*
X66253087Y-102789268D01*
X66154276Y-102874106D01*
X66045400Y-102930798D01*
X65907663Y-103012878D01*
X65954139Y-103045720D01*
X65987342Y-103047924D01*
X66166617Y-102992652D01*
X66357942Y-102859613D01*
X66471491Y-102715312D01*
X66477200Y-102685264D01*
X66434785Y-102565777D01*
X66372025Y-102438521D01*
X66251432Y-102311095D01*
X66030913Y-102252445D01*
X65777586Y-102242000D01*
X65295193Y-102277934D01*
X64925071Y-102374177D01*
X64684211Y-102513389D01*
X64589606Y-102678233D01*
X64658246Y-102851369D01*
X64907124Y-103015459D01*
X64987281Y-103048444D01*
X65286208Y-103130300D01*
X65554696Y-103152228D01*
X65554696Y-103791019D01*
X65266448Y-103798069D01*
X64933741Y-103884956D01*
X64766126Y-104039982D01*
X64750000Y-104121601D01*
X64838492Y-104287624D01*
X65052154Y-104418387D01*
X65313265Y-104467429D01*
X65313265Y-106092793D01*
X65096826Y-106033422D01*
X64704158Y-105896037D01*
X64362853Y-105728125D01*
X64032463Y-105503646D01*
X63672537Y-105196558D01*
X63242624Y-104780823D01*
X62983798Y-104518468D01*
X62983798Y-101699477D01*
X63022800Y-101683200D01*
X63120606Y-101548610D01*
X63124400Y-101518808D01*
X63064021Y-101465678D01*
X63064021Y-101297461D01*
X63124400Y-101226000D01*
X63215779Y-101063885D01*
X63181363Y-101042286D01*
X63124400Y-101073600D01*
X63027801Y-101221979D01*
X63024355Y-101257397D01*
X63064021Y-101297461D01*
X63064021Y-101465678D01*
X63061801Y-101463724D01*
X63022800Y-101480000D01*
X62924993Y-101614591D01*
X62921200Y-101644393D01*
X62983798Y-101699477D01*
X62983798Y-104518468D01*
X62918027Y-104451800D01*
X62497125Y-104030303D01*
X62474379Y-104009301D01*
X62474379Y-102297849D01*
X62565600Y-102242000D01*
X62693667Y-102089018D01*
X62718000Y-102013920D01*
X62656820Y-101982952D01*
X62565600Y-102038800D01*
X62461884Y-102162693D01*
X62461884Y-101879850D01*
X62561227Y-101845352D01*
X62620159Y-101809674D01*
X62789728Y-101691088D01*
X62787515Y-101640777D01*
X62678070Y-101632400D01*
X62520887Y-101714290D01*
X62478629Y-101783314D01*
X62461884Y-101879850D01*
X62461884Y-102162693D01*
X62437532Y-102191783D01*
X62413200Y-102266881D01*
X62474379Y-102297849D01*
X62474379Y-104009301D01*
X62184043Y-103741218D01*
X62112837Y-103686638D01*
X62112837Y-102397143D01*
X62189397Y-102363697D01*
X62210000Y-102247997D01*
X62193636Y-102079391D01*
X62170070Y-102038800D01*
X62093175Y-102118953D01*
X62067206Y-102278554D01*
X62111535Y-102396314D01*
X62112837Y-102397143D01*
X62112837Y-103686638D01*
X61952838Y-103563995D01*
X61777569Y-103478079D01*
X61667666Y-103461200D01*
X61474300Y-103448832D01*
X61454260Y-103375539D01*
X61543838Y-103235394D01*
X61543838Y-103235394D01*
G37*
X61543838Y-103235394D02*
X61656712Y-102971516D01*
X61701999Y-102668572D01*
X61788664Y-102337741D01*
X62030976Y-101941857D01*
X62402415Y-101505890D01*
X62876459Y-101054812D01*
X63426587Y-100613597D01*
X64026279Y-100207216D01*
X64649013Y-99860641D01*
X64721441Y-99825492D01*
X65124734Y-99640825D01*
X65437908Y-99528873D01*
X65741716Y-99471892D01*
X66116910Y-99452136D01*
X66426400Y-99450815D01*
X66890006Y-99459340D01*
X67219529Y-99491035D01*
X67483894Y-99560195D01*
X67752024Y-99681112D01*
X67888149Y-99753955D01*
X68267006Y-100012243D01*
X68712818Y-100398090D01*
X69178683Y-100870752D01*
X69197591Y-100891458D01*
X69509779Y-101221944D01*
X69776325Y-101480945D01*
X69966528Y-101640102D01*
X70046077Y-101675242D01*
X70094485Y-101698345D01*
X70079841Y-101759000D01*
X70111597Y-101914260D01*
X70258801Y-102112791D01*
X70284205Y-102137587D01*
X70500819Y-102448761D01*
X70519021Y-102791647D01*
X70338568Y-103170151D01*
X70209398Y-103333908D01*
X69994022Y-103601240D01*
X69719279Y-103969576D01*
X69626800Y-104100403D01*
X69626800Y-101683200D01*
X69720572Y-101678556D01*
X69728400Y-101644393D01*
X69654257Y-101500763D01*
X69626800Y-101480000D01*
X69533027Y-101484645D01*
X69525200Y-101518808D01*
X69599342Y-101662438D01*
X69626800Y-101683200D01*
X69626800Y-104100403D01*
X69436548Y-104369549D01*
X69371198Y-104465527D01*
X69217211Y-104678419D01*
X69217211Y-101835600D01*
X69273113Y-101761127D01*
X69257141Y-101683200D01*
X69185027Y-101549519D01*
X69158729Y-101530800D01*
X69123213Y-101613765D01*
X69118800Y-101683200D01*
X69118800Y-101226000D01*
X69202428Y-101188827D01*
X69186533Y-101158267D01*
X69065957Y-101146108D01*
X69051066Y-101158267D01*
X69065013Y-101218668D01*
X69118800Y-101226000D01*
X69118800Y-101683200D01*
X69171970Y-101818432D01*
X69217211Y-101835600D01*
X69217211Y-104678419D01*
X69007540Y-104968296D01*
X68763200Y-105235021D01*
X68763200Y-100819600D01*
X68814000Y-100768800D01*
X68763200Y-100718000D01*
X68712400Y-100768800D01*
X68763200Y-100819600D01*
X68763200Y-105235021D01*
X68671252Y-105335394D01*
X68644666Y-105355817D01*
X68644666Y-101395334D01*
X68705067Y-101381387D01*
X68712400Y-101327600D01*
X68675226Y-101243972D01*
X68644666Y-101259867D01*
X68632507Y-101380443D01*
X68644666Y-101395334D01*
X68644666Y-105355817D01*
X68317992Y-105606774D01*
X68317992Y-100921200D01*
X68373076Y-100858602D01*
X68356800Y-100819600D01*
X68222209Y-100721794D01*
X68192407Y-100718000D01*
X68137323Y-100780599D01*
X68153600Y-100819600D01*
X68288190Y-100917407D01*
X68317992Y-100921200D01*
X68317992Y-105606774D01*
X68305735Y-105616191D01*
X67854390Y-105860053D01*
X67682696Y-105938304D01*
X67017914Y-106178801D01*
X66416219Y-106269674D01*
X65811458Y-106218103D01*
X65581310Y-106166319D01*
X65313265Y-106092793D01*
X65313265Y-104467429D01*
X65327520Y-104466828D01*
X65370526Y-104435787D01*
X65241389Y-104370852D01*
X65181800Y-104350531D01*
X64927164Y-104247800D01*
X64869695Y-104169430D01*
X65004463Y-104118646D01*
X65326537Y-104098671D01*
X65562762Y-104101426D01*
X65957561Y-104130492D01*
X66183348Y-104185931D01*
X66230202Y-104260614D01*
X66088201Y-104347412D01*
X65961667Y-104388071D01*
X65804895Y-104438925D01*
X65837454Y-104461132D01*
X65923480Y-104467073D01*
X66189962Y-104398801D01*
X66341313Y-104198629D01*
X66354093Y-104021187D01*
X66306953Y-103901744D01*
X66176195Y-103833296D01*
X65912787Y-103796998D01*
X65743246Y-103786409D01*
X65554696Y-103791019D01*
X65554696Y-103152228D01*
X65730634Y-103113465D01*
X65766000Y-103057989D01*
X65691854Y-103001287D01*
X65617790Y-103016451D01*
X65446656Y-103023280D01*
X65198430Y-102976771D01*
X64950859Y-102899229D01*
X64781689Y-102812960D01*
X64750131Y-102767521D01*
X64843502Y-102734860D01*
X65090362Y-102710701D01*
X65441044Y-102699498D01*
X65512141Y-102699200D01*
X65944786Y-102707360D01*
X66187512Y-102735534D01*
X66253087Y-102789268D01*
X66154276Y-102874106D01*
X66045400Y-102930798D01*
X65907663Y-103012878D01*
X65954139Y-103045720D01*
X65987342Y-103047924D01*
X66166617Y-102992652D01*
X66357942Y-102859613D01*
X66471491Y-102715312D01*
X66477200Y-102685264D01*
X66434785Y-102565777D01*
X66372025Y-102438521D01*
X66251432Y-102311095D01*
X66030913Y-102252445D01*
X65777586Y-102242000D01*
X65295193Y-102277934D01*
X64925071Y-102374177D01*
X64684211Y-102513389D01*
X64589606Y-102678233D01*
X64658246Y-102851369D01*
X64907124Y-103015459D01*
X64987281Y-103048444D01*
X65286208Y-103130300D01*
X65554696Y-103152228D01*
X65554696Y-103791019D01*
X65266448Y-103798069D01*
X64933741Y-103884956D01*
X64766126Y-104039982D01*
X64750000Y-104121601D01*
X64838492Y-104287624D01*
X65052154Y-104418387D01*
X65313265Y-104467429D01*
X65313265Y-106092793D01*
X65096826Y-106033422D01*
X64704158Y-105896037D01*
X64362853Y-105728125D01*
X64032463Y-105503646D01*
X63672537Y-105196558D01*
X63242624Y-104780823D01*
X62983798Y-104518468D01*
X62983798Y-101699477D01*
X63022800Y-101683200D01*
X63120606Y-101548610D01*
X63124400Y-101518808D01*
X63064021Y-101465678D01*
X63064021Y-101297461D01*
X63124400Y-101226000D01*
X63215779Y-101063885D01*
X63181363Y-101042286D01*
X63124400Y-101073600D01*
X63027801Y-101221979D01*
X63024355Y-101257397D01*
X63064021Y-101297461D01*
X63064021Y-101465678D01*
X63061801Y-101463724D01*
X63022800Y-101480000D01*
X62924993Y-101614591D01*
X62921200Y-101644393D01*
X62983798Y-101699477D01*
X62983798Y-104518468D01*
X62918027Y-104451800D01*
X62497125Y-104030303D01*
X62474379Y-104009301D01*
X62474379Y-102297849D01*
X62565600Y-102242000D01*
X62693667Y-102089018D01*
X62718000Y-102013920D01*
X62656820Y-101982952D01*
X62565600Y-102038800D01*
X62461884Y-102162693D01*
X62461884Y-101879850D01*
X62561227Y-101845352D01*
X62620159Y-101809674D01*
X62789728Y-101691088D01*
X62787515Y-101640777D01*
X62678070Y-101632400D01*
X62520887Y-101714290D01*
X62478629Y-101783314D01*
X62461884Y-101879850D01*
X62461884Y-102162693D01*
X62437532Y-102191783D01*
X62413200Y-102266881D01*
X62474379Y-102297849D01*
X62474379Y-104009301D01*
X62184043Y-103741218D01*
X62112837Y-103686638D01*
X62112837Y-102397143D01*
X62189397Y-102363697D01*
X62210000Y-102247997D01*
X62193636Y-102079391D01*
X62170070Y-102038800D01*
X62093175Y-102118953D01*
X62067206Y-102278554D01*
X62111535Y-102396314D01*
X62112837Y-102397143D01*
X62112837Y-103686638D01*
X61952838Y-103563995D01*
X61777569Y-103478079D01*
X61667666Y-103461200D01*
X61474300Y-103448832D01*
X61454260Y-103375539D01*
X61543838Y-103235394D01*
G36*
X70693600Y-102343600D02*
G01*
X70744400Y-102394400D01*
X70693600Y-102445200D01*
X70642800Y-102394400D01*
X70693600Y-102343600D01*
X70693600Y-102343600D01*
G37*
X70693600Y-102343600D02*
X70744400Y-102394400D01*
X70693600Y-102445200D01*
X70642800Y-102394400D01*
X70693600Y-102343600D01*
G36*
X70618521Y-102797726D02*
G01*
X70668016Y-102608823D01*
X70705444Y-102546800D01*
X70745050Y-102626660D01*
X70736402Y-102797012D01*
X70690613Y-102954015D01*
X70657476Y-102994930D01*
X70609127Y-102953268D01*
X70618521Y-102797726D01*
X70618521Y-102797726D01*
G37*
X70618521Y-102797726D02*
X70668016Y-102608823D01*
X70705444Y-102546800D01*
X70745050Y-102626660D01*
X70736402Y-102797012D01*
X70690613Y-102954015D01*
X70657476Y-102994930D01*
X70609127Y-102953268D01*
X70618521Y-102797726D01*
D11*
G36*
X188426626Y-113712037D02*
G01*
X188596465Y-113763557D01*
X188752990Y-113847222D01*
X188890185Y-113959815D01*
X189002778Y-114097009D01*
X189002779Y-114097011D01*
X189066582Y-114216376D01*
X189086443Y-114253534D01*
X189137963Y-114423373D01*
X189151000Y-114555742D01*
X189151000Y-114944257D01*
X189137963Y-115076626D01*
X189086443Y-115246466D01*
X189086442Y-115246468D01*
X189063076Y-115290183D01*
X189002778Y-115402991D01*
X188890185Y-115540185D01*
X188752991Y-115652778D01*
X188596466Y-115736443D01*
X188426627Y-115787963D01*
X188250000Y-115805359D01*
X188073374Y-115787963D01*
X187903535Y-115736443D01*
X187747010Y-115652778D01*
X187609815Y-115540185D01*
X187607991Y-115537963D01*
X187497223Y-115402993D01*
X187413558Y-115246468D01*
X187413557Y-115246466D01*
X187362037Y-115076627D01*
X187349000Y-114944258D01*
X187349000Y-114555743D01*
X187362037Y-114423374D01*
X187413557Y-114253535D01*
X187497222Y-114097010D01*
X187609815Y-113959815D01*
X187747009Y-113847222D01*
X187903534Y-113763557D01*
X188073373Y-113712037D01*
X188250000Y-113694641D01*
X188426626Y-113712037D01*
X188426626Y-113712037D01*
G37*
G36*
X204426626Y-113712037D02*
G01*
X204596465Y-113763557D01*
X204752990Y-113847222D01*
X204890185Y-113959815D01*
X205002778Y-114097009D01*
X205002779Y-114097011D01*
X205066582Y-114216376D01*
X205086443Y-114253534D01*
X205137963Y-114423373D01*
X205151000Y-114555742D01*
X205151000Y-114944257D01*
X205137963Y-115076626D01*
X205086443Y-115246466D01*
X205086442Y-115246468D01*
X205063076Y-115290183D01*
X205002778Y-115402991D01*
X204890185Y-115540185D01*
X204752991Y-115652778D01*
X204596466Y-115736443D01*
X204426627Y-115787963D01*
X204250000Y-115805359D01*
X204073374Y-115787963D01*
X203903535Y-115736443D01*
X203747010Y-115652778D01*
X203609815Y-115540185D01*
X203607991Y-115537963D01*
X203497223Y-115402993D01*
X203413558Y-115246468D01*
X203413557Y-115246466D01*
X203362037Y-115076627D01*
X203349000Y-114944258D01*
X203349000Y-114555743D01*
X203362037Y-114423374D01*
X203413557Y-114253535D01*
X203497222Y-114097010D01*
X203609815Y-113959815D01*
X203747009Y-113847222D01*
X203903534Y-113763557D01*
X204073373Y-113712037D01*
X204250000Y-113694641D01*
X204426626Y-113712037D01*
X204426626Y-113712037D01*
G37*
G36*
X186451883Y-113703872D02*
G01*
X186498258Y-113717940D01*
X186541000Y-113740786D01*
X186578466Y-113771534D01*
X186609214Y-113809000D01*
X186632060Y-113851742D01*
X186646128Y-113898117D01*
X186651000Y-113947585D01*
X186651000Y-115552415D01*
X186646128Y-115601883D01*
X186632060Y-115648258D01*
X186609214Y-115691000D01*
X186578466Y-115728466D01*
X186541000Y-115759214D01*
X186498258Y-115782060D01*
X186451883Y-115796128D01*
X186402415Y-115801000D01*
X185097585Y-115801000D01*
X185048117Y-115796128D01*
X185001742Y-115782060D01*
X184959000Y-115759214D01*
X184921534Y-115728466D01*
X184890786Y-115691000D01*
X184867940Y-115648258D01*
X184853872Y-115601883D01*
X184849000Y-115552415D01*
X184849000Y-113947585D01*
X184853872Y-113898117D01*
X184867940Y-113851742D01*
X184890786Y-113809000D01*
X184921534Y-113771534D01*
X184959000Y-113740786D01*
X185001742Y-113717940D01*
X185048117Y-113703872D01*
X185097585Y-113699000D01*
X186402415Y-113699000D01*
X186451883Y-113703872D01*
X186451883Y-113703872D01*
G37*
G36*
X202451883Y-113703872D02*
G01*
X202498258Y-113717940D01*
X202541000Y-113740786D01*
X202578466Y-113771534D01*
X202609214Y-113809000D01*
X202632060Y-113851742D01*
X202646128Y-113898117D01*
X202651000Y-113947585D01*
X202651000Y-115552415D01*
X202646128Y-115601883D01*
X202632060Y-115648258D01*
X202609214Y-115691000D01*
X202578466Y-115728466D01*
X202541000Y-115759214D01*
X202498258Y-115782060D01*
X202451883Y-115796128D01*
X202402415Y-115801000D01*
X201097585Y-115801000D01*
X201048117Y-115796128D01*
X201001742Y-115782060D01*
X200959000Y-115759214D01*
X200921534Y-115728466D01*
X200890786Y-115691000D01*
X200867940Y-115648258D01*
X200853872Y-115601883D01*
X200849000Y-115552415D01*
X200849000Y-113947585D01*
X200853872Y-113898117D01*
X200867940Y-113851742D01*
X200890786Y-113809000D01*
X200921534Y-113771534D01*
X200959000Y-113740786D01*
X201001742Y-113717940D01*
X201048117Y-113703872D01*
X201097585Y-113699000D01*
X202402415Y-113699000D01*
X202451883Y-113703872D01*
X202451883Y-113703872D01*
G37*
G36*
X249926626Y-113462037D02*
G01*
X250096465Y-113513557D01*
X250252990Y-113597222D01*
X250390185Y-113709815D01*
X250502778Y-113847009D01*
X250505308Y-113851742D01*
X250565312Y-113964000D01*
X250586443Y-114003534D01*
X250637963Y-114173373D01*
X250651000Y-114305742D01*
X250651000Y-114694257D01*
X250637963Y-114826626D01*
X250586443Y-114996466D01*
X250502778Y-115152991D01*
X250390185Y-115290185D01*
X250252991Y-115402778D01*
X250096466Y-115486443D01*
X249926627Y-115537963D01*
X249750000Y-115555359D01*
X249573374Y-115537963D01*
X249403535Y-115486443D01*
X249247010Y-115402778D01*
X249109815Y-115290185D01*
X249073935Y-115246466D01*
X248997223Y-115152993D01*
X248913558Y-114996468D01*
X248913557Y-114996466D01*
X248862037Y-114826627D01*
X248849000Y-114694258D01*
X248849000Y-114305743D01*
X248862037Y-114173374D01*
X248913557Y-114003535D01*
X248997222Y-113847010D01*
X249109815Y-113709815D01*
X249247009Y-113597222D01*
X249403534Y-113513557D01*
X249573373Y-113462037D01*
X249750000Y-113444641D01*
X249926626Y-113462037D01*
X249926626Y-113462037D01*
G37*
G36*
X247951883Y-113453872D02*
G01*
X247998258Y-113467940D01*
X248041000Y-113490786D01*
X248078466Y-113521534D01*
X248109214Y-113559000D01*
X248132060Y-113601742D01*
X248146128Y-113648117D01*
X248151000Y-113697585D01*
X248151000Y-115302415D01*
X248146128Y-115351883D01*
X248132060Y-115398258D01*
X248109214Y-115441000D01*
X248078466Y-115478466D01*
X248041000Y-115509214D01*
X247998258Y-115532060D01*
X247951883Y-115546128D01*
X247902415Y-115551000D01*
X246597585Y-115551000D01*
X246548117Y-115546128D01*
X246501742Y-115532060D01*
X246459000Y-115509214D01*
X246421534Y-115478466D01*
X246390786Y-115441000D01*
X246367940Y-115398258D01*
X246353872Y-115351883D01*
X246349000Y-115302415D01*
X246349000Y-113697585D01*
X246353872Y-113648117D01*
X246367940Y-113601742D01*
X246390786Y-113559000D01*
X246421534Y-113521534D01*
X246459000Y-113490786D01*
X246501742Y-113467940D01*
X246548117Y-113453872D01*
X246597585Y-113449000D01*
X247902415Y-113449000D01*
X247951883Y-113453872D01*
X247951883Y-113453872D01*
G37*
G36*
X75955039Y-112969195D02*
G01*
X76056566Y-112989390D01*
X76247835Y-113068616D01*
X76419973Y-113183635D01*
X76566365Y-113330027D01*
X76580846Y-113351700D01*
X76681384Y-113502165D01*
X76760610Y-113693434D01*
X76770029Y-113740786D01*
X76801000Y-113896486D01*
X76801000Y-114103514D01*
X76780805Y-114205040D01*
X76771159Y-114253535D01*
X76760610Y-114306565D01*
X76681384Y-114497835D01*
X76566365Y-114669973D01*
X76419973Y-114816365D01*
X76247835Y-114931384D01*
X76056566Y-115010610D01*
X75853514Y-115051000D01*
X75646486Y-115051000D01*
X75443434Y-115010610D01*
X75252165Y-114931384D01*
X75080027Y-114816365D01*
X74933635Y-114669973D01*
X74818616Y-114497835D01*
X74739390Y-114306565D01*
X74728842Y-114253535D01*
X74719195Y-114205040D01*
X74699000Y-114103514D01*
X74699000Y-113896486D01*
X74729971Y-113740786D01*
X74739390Y-113693434D01*
X74818616Y-113502165D01*
X74919154Y-113351700D01*
X74933635Y-113330027D01*
X75080027Y-113183635D01*
X75252165Y-113068616D01*
X75443434Y-112989390D01*
X75544961Y-112969195D01*
X75646486Y-112949000D01*
X75853514Y-112949000D01*
X75955039Y-112969195D01*
X75955039Y-112969195D01*
G37*
G36*
X69455039Y-112969195D02*
G01*
X69556566Y-112989390D01*
X69747835Y-113068616D01*
X69919973Y-113183635D01*
X70066365Y-113330027D01*
X70080846Y-113351700D01*
X70181384Y-113502165D01*
X70260610Y-113693434D01*
X70270029Y-113740786D01*
X70301000Y-113896486D01*
X70301000Y-114103514D01*
X70280805Y-114205040D01*
X70271159Y-114253535D01*
X70260610Y-114306565D01*
X70181384Y-114497835D01*
X70066365Y-114669973D01*
X69919973Y-114816365D01*
X69747835Y-114931384D01*
X69556566Y-115010610D01*
X69353514Y-115051000D01*
X69146486Y-115051000D01*
X68943434Y-115010610D01*
X68752165Y-114931384D01*
X68580027Y-114816365D01*
X68433635Y-114669973D01*
X68318616Y-114497835D01*
X68239390Y-114306565D01*
X68228842Y-114253535D01*
X68219195Y-114205040D01*
X68199000Y-114103514D01*
X68199000Y-113896486D01*
X68229971Y-113740786D01*
X68239390Y-113693434D01*
X68318616Y-113502165D01*
X68419154Y-113351700D01*
X68433635Y-113330027D01*
X68580027Y-113183635D01*
X68752165Y-113068616D01*
X68943434Y-112989390D01*
X69044961Y-112969195D01*
X69146486Y-112949000D01*
X69353514Y-112949000D01*
X69455039Y-112969195D01*
X69455039Y-112969195D01*
G37*
G36*
X175512812Y-112483624D02*
G01*
X175676784Y-112551544D01*
X175824354Y-112650147D01*
X175949853Y-112775646D01*
X176048456Y-112923216D01*
X176116376Y-113087188D01*
X176151000Y-113261259D01*
X176151000Y-113438741D01*
X176116376Y-113612812D01*
X176048456Y-113776784D01*
X175949853Y-113924354D01*
X175824354Y-114049853D01*
X175676784Y-114148456D01*
X175512812Y-114216376D01*
X175338741Y-114251000D01*
X175161259Y-114251000D01*
X174987188Y-114216376D01*
X174823216Y-114148456D01*
X174675646Y-114049853D01*
X174550147Y-113924354D01*
X174451544Y-113776784D01*
X174383624Y-113612812D01*
X174349000Y-113438741D01*
X174349000Y-113261259D01*
X174383624Y-113087188D01*
X174451544Y-112923216D01*
X174550147Y-112775646D01*
X174675646Y-112650147D01*
X174823216Y-112551544D01*
X174987188Y-112483624D01*
X175161259Y-112449000D01*
X175338741Y-112449000D01*
X175512812Y-112483624D01*
X175512812Y-112483624D01*
G37*
G36*
X173012812Y-112483624D02*
G01*
X173176784Y-112551544D01*
X173324354Y-112650147D01*
X173449853Y-112775646D01*
X173548456Y-112923216D01*
X173616376Y-113087188D01*
X173651000Y-113261259D01*
X173651000Y-113438741D01*
X173616376Y-113612812D01*
X173548456Y-113776784D01*
X173449853Y-113924354D01*
X173324354Y-114049853D01*
X173176784Y-114148456D01*
X173012812Y-114216376D01*
X172838741Y-114251000D01*
X172661259Y-114251000D01*
X172487188Y-114216376D01*
X172323216Y-114148456D01*
X172175646Y-114049853D01*
X172050147Y-113924354D01*
X171951544Y-113776784D01*
X171883624Y-113612812D01*
X171849000Y-113438741D01*
X171849000Y-113261259D01*
X171883624Y-113087188D01*
X171951544Y-112923216D01*
X172050147Y-112775646D01*
X172175646Y-112650147D01*
X172323216Y-112551544D01*
X172487188Y-112483624D01*
X172661259Y-112449000D01*
X172838741Y-112449000D01*
X173012812Y-112483624D01*
X173012812Y-112483624D01*
G37*
G36*
X56349293Y-112098634D02*
G01*
X56521700Y-112150933D01*
X56680584Y-112235859D01*
X56819849Y-112350151D01*
X56934141Y-112489416D01*
X57019067Y-112648300D01*
X57071366Y-112820707D01*
X57089025Y-113000000D01*
X57071366Y-113179293D01*
X57019067Y-113351700D01*
X56934141Y-113510584D01*
X56819849Y-113649849D01*
X56680584Y-113764141D01*
X56521700Y-113849067D01*
X56349293Y-113901366D01*
X56214927Y-113914600D01*
X56125073Y-113914600D01*
X55990707Y-113901366D01*
X55818300Y-113849067D01*
X55659416Y-113764141D01*
X55520151Y-113649849D01*
X55405859Y-113510584D01*
X55320933Y-113351700D01*
X55268634Y-113179293D01*
X55250975Y-113000000D01*
X55268634Y-112820707D01*
X55320933Y-112648300D01*
X55405859Y-112489416D01*
X55520151Y-112350151D01*
X55659416Y-112235859D01*
X55818300Y-112150933D01*
X55990707Y-112098634D01*
X56125073Y-112085400D01*
X56214927Y-112085400D01*
X56349293Y-112098634D01*
X56349293Y-112098634D01*
G37*
G36*
X62164600Y-113914600D02*
G01*
X60335400Y-113914600D01*
X60335400Y-112085400D01*
X62164600Y-112085400D01*
X62164600Y-113914600D01*
X62164600Y-113914600D01*
G37*
G36*
X58889293Y-112098634D02*
G01*
X59061700Y-112150933D01*
X59220584Y-112235859D01*
X59359849Y-112350151D01*
X59474141Y-112489416D01*
X59559067Y-112648300D01*
X59611366Y-112820707D01*
X59629025Y-113000000D01*
X59611366Y-113179293D01*
X59559067Y-113351700D01*
X59474141Y-113510584D01*
X59359849Y-113649849D01*
X59220584Y-113764141D01*
X59061700Y-113849067D01*
X58889293Y-113901366D01*
X58754927Y-113914600D01*
X58665073Y-113914600D01*
X58530707Y-113901366D01*
X58358300Y-113849067D01*
X58199416Y-113764141D01*
X58060151Y-113649849D01*
X57945859Y-113510584D01*
X57860933Y-113351700D01*
X57808634Y-113179293D01*
X57790975Y-113000000D01*
X57808634Y-112820707D01*
X57860933Y-112648300D01*
X57945859Y-112489416D01*
X58060151Y-112350151D01*
X58199416Y-112235859D01*
X58358300Y-112150933D01*
X58530707Y-112098634D01*
X58665073Y-112085400D01*
X58754927Y-112085400D01*
X58889293Y-112098634D01*
X58889293Y-112098634D01*
G37*
G36*
X180429349Y-108885141D02*
G01*
X180545333Y-108908212D01*
X180873093Y-109043974D01*
X181168071Y-109241073D01*
X181418927Y-109491929D01*
X181616026Y-109786907D01*
X181749152Y-110108304D01*
X181751788Y-110114668D01*
X181784816Y-110280707D01*
X181821000Y-110462619D01*
X181821000Y-110817381D01*
X181751788Y-111165333D01*
X181616026Y-111493093D01*
X181418927Y-111788071D01*
X181168071Y-112038927D01*
X180873093Y-112236026D01*
X180545333Y-112371788D01*
X180429349Y-112394859D01*
X180197383Y-112441000D01*
X179842617Y-112441000D01*
X179610651Y-112394859D01*
X179494667Y-112371788D01*
X179166907Y-112236026D01*
X178871929Y-112038927D01*
X178621073Y-111788071D01*
X178423974Y-111493093D01*
X178288212Y-111165333D01*
X178219000Y-110817381D01*
X178219000Y-110462619D01*
X178255185Y-110280707D01*
X178288212Y-110114668D01*
X178290848Y-110108304D01*
X178423974Y-109786907D01*
X178621073Y-109491929D01*
X178871929Y-109241073D01*
X179166907Y-109043974D01*
X179494667Y-108908212D01*
X179610651Y-108885141D01*
X179842617Y-108839000D01*
X180197383Y-108839000D01*
X180429349Y-108885141D01*
X180429349Y-108885141D01*
G37*
G36*
X168389349Y-108885141D02*
G01*
X168505333Y-108908212D01*
X168833093Y-109043974D01*
X169128071Y-109241073D01*
X169378927Y-109491929D01*
X169576026Y-109786907D01*
X169709152Y-110108304D01*
X169711788Y-110114668D01*
X169744816Y-110280707D01*
X169781000Y-110462619D01*
X169781000Y-110817381D01*
X169711788Y-111165333D01*
X169576026Y-111493093D01*
X169378927Y-111788071D01*
X169128071Y-112038927D01*
X168833093Y-112236026D01*
X168505333Y-112371788D01*
X168389349Y-112394859D01*
X168157383Y-112441000D01*
X167802617Y-112441000D01*
X167570651Y-112394859D01*
X167454667Y-112371788D01*
X167126907Y-112236026D01*
X166831929Y-112038927D01*
X166581073Y-111788071D01*
X166383974Y-111493093D01*
X166248212Y-111165333D01*
X166179000Y-110817381D01*
X166179000Y-110462619D01*
X166215185Y-110280707D01*
X166248212Y-110114668D01*
X166250848Y-110108304D01*
X166383974Y-109786907D01*
X166581073Y-109491929D01*
X166831929Y-109241073D01*
X167126907Y-109043974D01*
X167454667Y-108908212D01*
X167570651Y-108885141D01*
X167802617Y-108839000D01*
X168157383Y-108839000D01*
X168389349Y-108885141D01*
X168389349Y-108885141D01*
G37*
G36*
X61429293Y-109558634D02*
G01*
X61601700Y-109610933D01*
X61760584Y-109695859D01*
X61899849Y-109810151D01*
X62014141Y-109949416D01*
X62099067Y-110108300D01*
X62151366Y-110280707D01*
X62169025Y-110460000D01*
X62151366Y-110639293D01*
X62099067Y-110811700D01*
X62014141Y-110970584D01*
X61899849Y-111109849D01*
X61760584Y-111224141D01*
X61601700Y-111309067D01*
X61429293Y-111361366D01*
X61294927Y-111374600D01*
X61205073Y-111374600D01*
X61070707Y-111361366D01*
X60898300Y-111309067D01*
X60739416Y-111224141D01*
X60600151Y-111109849D01*
X60485859Y-110970584D01*
X60400933Y-110811700D01*
X60348634Y-110639293D01*
X60330975Y-110460000D01*
X60348634Y-110280707D01*
X60400933Y-110108300D01*
X60485859Y-109949416D01*
X60600151Y-109810151D01*
X60739416Y-109695859D01*
X60898300Y-109610933D01*
X61070707Y-109558634D01*
X61205073Y-109545400D01*
X61294927Y-109545400D01*
X61429293Y-109558634D01*
X61429293Y-109558634D01*
G37*
G36*
X56349293Y-109558634D02*
G01*
X56521700Y-109610933D01*
X56680584Y-109695859D01*
X56819849Y-109810151D01*
X56934141Y-109949416D01*
X57019067Y-110108300D01*
X57071366Y-110280707D01*
X57089025Y-110460000D01*
X57071366Y-110639293D01*
X57019067Y-110811700D01*
X56934141Y-110970584D01*
X56819849Y-111109849D01*
X56680584Y-111224141D01*
X56521700Y-111309067D01*
X56349293Y-111361366D01*
X56214927Y-111374600D01*
X56125073Y-111374600D01*
X55990707Y-111361366D01*
X55818300Y-111309067D01*
X55659416Y-111224141D01*
X55520151Y-111109849D01*
X55405859Y-110970584D01*
X55320933Y-110811700D01*
X55268634Y-110639293D01*
X55250975Y-110460000D01*
X55268634Y-110280707D01*
X55320933Y-110108300D01*
X55405859Y-109949416D01*
X55520151Y-109810151D01*
X55659416Y-109695859D01*
X55818300Y-109610933D01*
X55990707Y-109558634D01*
X56125073Y-109545400D01*
X56214927Y-109545400D01*
X56349293Y-109558634D01*
X56349293Y-109558634D01*
G37*
G36*
X58889293Y-109558634D02*
G01*
X59061700Y-109610933D01*
X59220584Y-109695859D01*
X59359849Y-109810151D01*
X59474141Y-109949416D01*
X59559067Y-110108300D01*
X59611366Y-110280707D01*
X59629025Y-110460000D01*
X59611366Y-110639293D01*
X59559067Y-110811700D01*
X59474141Y-110970584D01*
X59359849Y-111109849D01*
X59220584Y-111224141D01*
X59061700Y-111309067D01*
X58889293Y-111361366D01*
X58754927Y-111374600D01*
X58665073Y-111374600D01*
X58530707Y-111361366D01*
X58358300Y-111309067D01*
X58199416Y-111224141D01*
X58060151Y-111109849D01*
X57945859Y-110970584D01*
X57860933Y-110811700D01*
X57808634Y-110639293D01*
X57790975Y-110460000D01*
X57808634Y-110280707D01*
X57860933Y-110108300D01*
X57945859Y-109949416D01*
X58060151Y-109810151D01*
X58199416Y-109695859D01*
X58358300Y-109610933D01*
X58530707Y-109558634D01*
X58665073Y-109545400D01*
X58754927Y-109545400D01*
X58889293Y-109558634D01*
X58889293Y-109558634D01*
G37*
G36*
X173012812Y-109283624D02*
G01*
X173176784Y-109351544D01*
X173324354Y-109450147D01*
X173449853Y-109575646D01*
X173548456Y-109723216D01*
X173616376Y-109887188D01*
X173651000Y-110061259D01*
X173651000Y-110238741D01*
X173616376Y-110412812D01*
X173548456Y-110576784D01*
X173449853Y-110724354D01*
X173324354Y-110849853D01*
X173176784Y-110948456D01*
X173012812Y-111016376D01*
X172838741Y-111051000D01*
X172661259Y-111051000D01*
X172487188Y-111016376D01*
X172323216Y-110948456D01*
X172175646Y-110849853D01*
X172050147Y-110724354D01*
X171951544Y-110576784D01*
X171883624Y-110412812D01*
X171849000Y-110238741D01*
X171849000Y-110061259D01*
X171883624Y-109887188D01*
X171951544Y-109723216D01*
X172050147Y-109575646D01*
X172175646Y-109450147D01*
X172323216Y-109351544D01*
X172487188Y-109283624D01*
X172661259Y-109249000D01*
X172838741Y-109249000D01*
X173012812Y-109283624D01*
X173012812Y-109283624D01*
G37*
G36*
X175512812Y-109283624D02*
G01*
X175676784Y-109351544D01*
X175824354Y-109450147D01*
X175949853Y-109575646D01*
X176048456Y-109723216D01*
X176116376Y-109887188D01*
X176151000Y-110061259D01*
X176151000Y-110238741D01*
X176116376Y-110412812D01*
X176048456Y-110576784D01*
X175949853Y-110724354D01*
X175824354Y-110849853D01*
X175676784Y-110948456D01*
X175512812Y-111016376D01*
X175338741Y-111051000D01*
X175161259Y-111051000D01*
X174987188Y-111016376D01*
X174823216Y-110948456D01*
X174675646Y-110849853D01*
X174550147Y-110724354D01*
X174451544Y-110576784D01*
X174383624Y-110412812D01*
X174349000Y-110238741D01*
X174349000Y-110061259D01*
X174383624Y-109887188D01*
X174451544Y-109723216D01*
X174550147Y-109575646D01*
X174675646Y-109450147D01*
X174823216Y-109351544D01*
X174987188Y-109283624D01*
X175161259Y-109249000D01*
X175338741Y-109249000D01*
X175512812Y-109283624D01*
X175512812Y-109283624D01*
G37*
G36*
X75955039Y-108469195D02*
G01*
X76056566Y-108489390D01*
X76247835Y-108568616D01*
X76419973Y-108683635D01*
X76566365Y-108830027D01*
X76681384Y-109002165D01*
X76760610Y-109193435D01*
X76801000Y-109396486D01*
X76801000Y-109603514D01*
X76760610Y-109806565D01*
X76681384Y-109997835D01*
X76603319Y-110114668D01*
X76566364Y-110169974D01*
X76419974Y-110316364D01*
X76247835Y-110431384D01*
X76056566Y-110510610D01*
X75853514Y-110551000D01*
X75646486Y-110551000D01*
X75443434Y-110510610D01*
X75252165Y-110431384D01*
X75080026Y-110316364D01*
X74933636Y-110169974D01*
X74896682Y-110114668D01*
X74818616Y-109997835D01*
X74739390Y-109806565D01*
X74699000Y-109603514D01*
X74699000Y-109396486D01*
X74739390Y-109193435D01*
X74818616Y-109002165D01*
X74933635Y-108830027D01*
X75080027Y-108683635D01*
X75252165Y-108568616D01*
X75443434Y-108489390D01*
X75544961Y-108469195D01*
X75646486Y-108449000D01*
X75853514Y-108449000D01*
X75955039Y-108469195D01*
X75955039Y-108469195D01*
G37*
G36*
X69455039Y-108469195D02*
G01*
X69556566Y-108489390D01*
X69747835Y-108568616D01*
X69919973Y-108683635D01*
X70066365Y-108830027D01*
X70181384Y-109002165D01*
X70260610Y-109193435D01*
X70301000Y-109396486D01*
X70301000Y-109603514D01*
X70260610Y-109806565D01*
X70181384Y-109997835D01*
X70103319Y-110114668D01*
X70066364Y-110169974D01*
X69919974Y-110316364D01*
X69747835Y-110431384D01*
X69556566Y-110510610D01*
X69353514Y-110551000D01*
X69146486Y-110551000D01*
X68943434Y-110510610D01*
X68752165Y-110431384D01*
X68580026Y-110316364D01*
X68433636Y-110169974D01*
X68396682Y-110114668D01*
X68318616Y-109997835D01*
X68239390Y-109806565D01*
X68199000Y-109603514D01*
X68199000Y-109396486D01*
X68239390Y-109193435D01*
X68318616Y-109002165D01*
X68433635Y-108830027D01*
X68580027Y-108683635D01*
X68752165Y-108568616D01*
X68943434Y-108489390D01*
X69044961Y-108469195D01*
X69146486Y-108449000D01*
X69353514Y-108449000D01*
X69455039Y-108469195D01*
X69455039Y-108469195D01*
G37*
G36*
X166782059Y-104819521D02*
G01*
X166833644Y-104829782D01*
X166906529Y-104859972D01*
X166979416Y-104890163D01*
X167110608Y-104977822D01*
X167222178Y-105089392D01*
X167309837Y-105220584D01*
X167370218Y-105366357D01*
X167401000Y-105521108D01*
X167401000Y-105678892D01*
X167370218Y-105833643D01*
X167309837Y-105979416D01*
X167222178Y-106110608D01*
X167110608Y-106222178D01*
X166979416Y-106309837D01*
X166906529Y-106340028D01*
X166833644Y-106370218D01*
X166782059Y-106380479D01*
X166678892Y-106401000D01*
X166521108Y-106401000D01*
X166417941Y-106380479D01*
X166366356Y-106370218D01*
X166293470Y-106340027D01*
X166220584Y-106309837D01*
X166089392Y-106222178D01*
X165977822Y-106110608D01*
X165890163Y-105979416D01*
X165829782Y-105833643D01*
X165799000Y-105678892D01*
X165799000Y-105521108D01*
X165829782Y-105366357D01*
X165890163Y-105220584D01*
X165977822Y-105089392D01*
X166089392Y-104977822D01*
X166220584Y-104890163D01*
X166293470Y-104859973D01*
X166366356Y-104829782D01*
X166417941Y-104819521D01*
X166521108Y-104799000D01*
X166678892Y-104799000D01*
X166782059Y-104819521D01*
X166782059Y-104819521D01*
G37*
G36*
X163382059Y-104819521D02*
G01*
X163433644Y-104829782D01*
X163506529Y-104859972D01*
X163579416Y-104890163D01*
X163710608Y-104977822D01*
X163822178Y-105089392D01*
X163909837Y-105220584D01*
X163970218Y-105366357D01*
X164001000Y-105521108D01*
X164001000Y-105678892D01*
X163970218Y-105833643D01*
X163909837Y-105979416D01*
X163822178Y-106110608D01*
X163710608Y-106222178D01*
X163579416Y-106309837D01*
X163506529Y-106340028D01*
X163433644Y-106370218D01*
X163382059Y-106380479D01*
X163278892Y-106401000D01*
X163121108Y-106401000D01*
X163017941Y-106380479D01*
X162966356Y-106370218D01*
X162893470Y-106340027D01*
X162820584Y-106309837D01*
X162689392Y-106222178D01*
X162577822Y-106110608D01*
X162490163Y-105979416D01*
X162429782Y-105833643D01*
X162399000Y-105678892D01*
X162399000Y-105521108D01*
X162429782Y-105366357D01*
X162490163Y-105220584D01*
X162577822Y-105089392D01*
X162689392Y-104977822D01*
X162820584Y-104890163D01*
X162893470Y-104859973D01*
X162966356Y-104829782D01*
X163017941Y-104819521D01*
X163121108Y-104799000D01*
X163278892Y-104799000D01*
X163382059Y-104819521D01*
X163382059Y-104819521D01*
G37*
G36*
X251448282Y-96873934D02*
G01*
X252039926Y-97119001D01*
X252572392Y-97474784D01*
X253025216Y-97927608D01*
X253380999Y-98460074D01*
X253626066Y-99051718D01*
X253751000Y-99679804D01*
X253751000Y-100320196D01*
X253626066Y-100948282D01*
X253380999Y-101539926D01*
X253025216Y-102072392D01*
X252572392Y-102525216D01*
X252039926Y-102880999D01*
X251448282Y-103126066D01*
X250820196Y-103251000D01*
X250179804Y-103251000D01*
X249551718Y-103126066D01*
X248960074Y-102880999D01*
X248427608Y-102525216D01*
X247974784Y-102072392D01*
X247619001Y-101539926D01*
X247373934Y-100948282D01*
X247249000Y-100320196D01*
X247249000Y-99679804D01*
X247373934Y-99051718D01*
X247619001Y-98460074D01*
X247974784Y-97927608D01*
X248427608Y-97474784D01*
X248960074Y-97119001D01*
X249551718Y-96873934D01*
X250179804Y-96749000D01*
X250820196Y-96749000D01*
X251448282Y-96873934D01*
X251448282Y-96873934D01*
G37*
G36*
X56448282Y-96873934D02*
G01*
X57039926Y-97119001D01*
X57572392Y-97474784D01*
X58025216Y-97927608D01*
X58380999Y-98460074D01*
X58626066Y-99051718D01*
X58751000Y-99679804D01*
X58751000Y-100320196D01*
X58626066Y-100948282D01*
X58380999Y-101539926D01*
X58025216Y-102072392D01*
X57572392Y-102525216D01*
X57039926Y-102880999D01*
X56448282Y-103126066D01*
X55820196Y-103251000D01*
X55179804Y-103251000D01*
X54551718Y-103126066D01*
X53960074Y-102880999D01*
X53427608Y-102525216D01*
X52974784Y-102072392D01*
X52619001Y-101539926D01*
X52373934Y-100948282D01*
X52249000Y-100320196D01*
X52249000Y-99679804D01*
X52373934Y-99051718D01*
X52619001Y-98460074D01*
X52974784Y-97927608D01*
X53427608Y-97474784D01*
X53960074Y-97119001D01*
X54551718Y-96873934D01*
X55179804Y-96749000D01*
X55820196Y-96749000D01*
X56448282Y-96873934D01*
X56448282Y-96873934D01*
G37*
G36*
X114852527Y-94488736D02*
G01*
X114952411Y-94508604D01*
X115234674Y-94625521D01*
X115488705Y-94795259D01*
X115704741Y-95011295D01*
X115874479Y-95265326D01*
X115991396Y-95547590D01*
X116051000Y-95847240D01*
X116051000Y-96152760D01*
X115991396Y-96452410D01*
X115874479Y-96734674D01*
X115704741Y-96988705D01*
X115488705Y-97204741D01*
X115421440Y-97249686D01*
X115234674Y-97374479D01*
X114952411Y-97491396D01*
X114852527Y-97511264D01*
X114652760Y-97551000D01*
X114347240Y-97551000D01*
X114147473Y-97511264D01*
X114047589Y-97491396D01*
X113765326Y-97374479D01*
X113578560Y-97249686D01*
X113511295Y-97204741D01*
X113295259Y-96988705D01*
X113125521Y-96734674D01*
X113008604Y-96452410D01*
X112949000Y-96152760D01*
X112949000Y-95847240D01*
X113008604Y-95547590D01*
X113125521Y-95265326D01*
X113295259Y-95011295D01*
X113511295Y-94795259D01*
X113765326Y-94625521D01*
X114047589Y-94508604D01*
X114147473Y-94488736D01*
X114347240Y-94449000D01*
X114652760Y-94449000D01*
X114852527Y-94488736D01*
X114852527Y-94488736D01*
G37*
G36*
X69352527Y-94488736D02*
G01*
X69452411Y-94508604D01*
X69734674Y-94625521D01*
X69988705Y-94795259D01*
X70204741Y-95011295D01*
X70374479Y-95265326D01*
X70491396Y-95547590D01*
X70551000Y-95847240D01*
X70551000Y-96152760D01*
X70491396Y-96452410D01*
X70374479Y-96734674D01*
X70204741Y-96988705D01*
X69988705Y-97204741D01*
X69921440Y-97249686D01*
X69734674Y-97374479D01*
X69452411Y-97491396D01*
X69352527Y-97511264D01*
X69152760Y-97551000D01*
X68847240Y-97551000D01*
X68647473Y-97511264D01*
X68547589Y-97491396D01*
X68265326Y-97374479D01*
X68078560Y-97249686D01*
X68011295Y-97204741D01*
X67795259Y-96988705D01*
X67625521Y-96734674D01*
X67508604Y-96452410D01*
X67449000Y-96152760D01*
X67449000Y-95847240D01*
X67508604Y-95547590D01*
X67625521Y-95265326D01*
X67795259Y-95011295D01*
X68011295Y-94795259D01*
X68265326Y-94625521D01*
X68547589Y-94508604D01*
X68647473Y-94488736D01*
X68847240Y-94449000D01*
X69152760Y-94449000D01*
X69352527Y-94488736D01*
X69352527Y-94488736D01*
G37*
G36*
X97852527Y-94488736D02*
G01*
X97952411Y-94508604D01*
X98234674Y-94625521D01*
X98488705Y-94795259D01*
X98704741Y-95011295D01*
X98874479Y-95265326D01*
X98991396Y-95547590D01*
X99051000Y-95847240D01*
X99051000Y-96152760D01*
X98991396Y-96452410D01*
X98874479Y-96734674D01*
X98704741Y-96988705D01*
X98488705Y-97204741D01*
X98421440Y-97249686D01*
X98234674Y-97374479D01*
X97952411Y-97491396D01*
X97852527Y-97511264D01*
X97652760Y-97551000D01*
X97347240Y-97551000D01*
X97147473Y-97511264D01*
X97047589Y-97491396D01*
X96765326Y-97374479D01*
X96578560Y-97249686D01*
X96511295Y-97204741D01*
X96295259Y-96988705D01*
X96125521Y-96734674D01*
X96008604Y-96452410D01*
X95949000Y-96152760D01*
X95949000Y-95847240D01*
X96008604Y-95547590D01*
X96125521Y-95265326D01*
X96295259Y-95011295D01*
X96511295Y-94795259D01*
X96765326Y-94625521D01*
X97047589Y-94508604D01*
X97147473Y-94488736D01*
X97347240Y-94449000D01*
X97652760Y-94449000D01*
X97852527Y-94488736D01*
X97852527Y-94488736D01*
G37*
G36*
X102102527Y-94488736D02*
G01*
X102202411Y-94508604D01*
X102484674Y-94625521D01*
X102738705Y-94795259D01*
X102954741Y-95011295D01*
X103124479Y-95265326D01*
X103241396Y-95547590D01*
X103301000Y-95847240D01*
X103301000Y-96152760D01*
X103241396Y-96452410D01*
X103124479Y-96734674D01*
X102954741Y-96988705D01*
X102738705Y-97204741D01*
X102671440Y-97249686D01*
X102484674Y-97374479D01*
X102202411Y-97491396D01*
X102102527Y-97511264D01*
X101902760Y-97551000D01*
X101597240Y-97551000D01*
X101397473Y-97511264D01*
X101297589Y-97491396D01*
X101015326Y-97374479D01*
X100828560Y-97249686D01*
X100761295Y-97204741D01*
X100545259Y-96988705D01*
X100375521Y-96734674D01*
X100258604Y-96452410D01*
X100199000Y-96152760D01*
X100199000Y-95847240D01*
X100258604Y-95547590D01*
X100375521Y-95265326D01*
X100545259Y-95011295D01*
X100761295Y-94795259D01*
X101015326Y-94625521D01*
X101297589Y-94508604D01*
X101397473Y-94488736D01*
X101597240Y-94449000D01*
X101902760Y-94449000D01*
X102102527Y-94488736D01*
X102102527Y-94488736D01*
G37*
G36*
X106352527Y-94488736D02*
G01*
X106452411Y-94508604D01*
X106734674Y-94625521D01*
X106988705Y-94795259D01*
X107204741Y-95011295D01*
X107374479Y-95265326D01*
X107491396Y-95547590D01*
X107551000Y-95847240D01*
X107551000Y-96152760D01*
X107491396Y-96452410D01*
X107374479Y-96734674D01*
X107204741Y-96988705D01*
X106988705Y-97204741D01*
X106921440Y-97249686D01*
X106734674Y-97374479D01*
X106452411Y-97491396D01*
X106352527Y-97511264D01*
X106152760Y-97551000D01*
X105847240Y-97551000D01*
X105647473Y-97511264D01*
X105547589Y-97491396D01*
X105265326Y-97374479D01*
X105078560Y-97249686D01*
X105011295Y-97204741D01*
X104795259Y-96988705D01*
X104625521Y-96734674D01*
X104508604Y-96452410D01*
X104449000Y-96152760D01*
X104449000Y-95847240D01*
X104508604Y-95547590D01*
X104625521Y-95265326D01*
X104795259Y-95011295D01*
X105011295Y-94795259D01*
X105265326Y-94625521D01*
X105547589Y-94508604D01*
X105647473Y-94488736D01*
X105847240Y-94449000D01*
X106152760Y-94449000D01*
X106352527Y-94488736D01*
X106352527Y-94488736D01*
G37*
G36*
X119102527Y-94488736D02*
G01*
X119202411Y-94508604D01*
X119484674Y-94625521D01*
X119738705Y-94795259D01*
X119954741Y-95011295D01*
X120124479Y-95265326D01*
X120241396Y-95547590D01*
X120301000Y-95847240D01*
X120301000Y-96152760D01*
X120241396Y-96452410D01*
X120124479Y-96734674D01*
X119954741Y-96988705D01*
X119738705Y-97204741D01*
X119671440Y-97249686D01*
X119484674Y-97374479D01*
X119202411Y-97491396D01*
X119102527Y-97511264D01*
X118902760Y-97551000D01*
X118597240Y-97551000D01*
X118397473Y-97511264D01*
X118297589Y-97491396D01*
X118015326Y-97374479D01*
X117828560Y-97249686D01*
X117761295Y-97204741D01*
X117545259Y-96988705D01*
X117375521Y-96734674D01*
X117258604Y-96452410D01*
X117199000Y-96152760D01*
X117199000Y-95847240D01*
X117258604Y-95547590D01*
X117375521Y-95265326D01*
X117545259Y-95011295D01*
X117761295Y-94795259D01*
X118015326Y-94625521D01*
X118297589Y-94508604D01*
X118397473Y-94488736D01*
X118597240Y-94449000D01*
X118902760Y-94449000D01*
X119102527Y-94488736D01*
X119102527Y-94488736D01*
G37*
G36*
X145352527Y-94488736D02*
G01*
X145452411Y-94508604D01*
X145734674Y-94625521D01*
X145988705Y-94795259D01*
X146204741Y-95011295D01*
X146374479Y-95265326D01*
X146491396Y-95547590D01*
X146551000Y-95847240D01*
X146551000Y-96152760D01*
X146491396Y-96452410D01*
X146374479Y-96734674D01*
X146204741Y-96988705D01*
X145988705Y-97204741D01*
X145921440Y-97249686D01*
X145734674Y-97374479D01*
X145452411Y-97491396D01*
X145352527Y-97511264D01*
X145152760Y-97551000D01*
X144847240Y-97551000D01*
X144647473Y-97511264D01*
X144547589Y-97491396D01*
X144265326Y-97374479D01*
X144078560Y-97249686D01*
X144011295Y-97204741D01*
X143795259Y-96988705D01*
X143625521Y-96734674D01*
X143508604Y-96452410D01*
X143449000Y-96152760D01*
X143449000Y-95847240D01*
X143508604Y-95547590D01*
X143625521Y-95265326D01*
X143795259Y-95011295D01*
X144011295Y-94795259D01*
X144265326Y-94625521D01*
X144547589Y-94508604D01*
X144647473Y-94488736D01*
X144847240Y-94449000D01*
X145152760Y-94449000D01*
X145352527Y-94488736D01*
X145352527Y-94488736D01*
G37*
G36*
X155852527Y-94488736D02*
G01*
X155952411Y-94508604D01*
X156234674Y-94625521D01*
X156488705Y-94795259D01*
X156704741Y-95011295D01*
X156874479Y-95265326D01*
X156991396Y-95547590D01*
X157051000Y-95847240D01*
X157051000Y-96152760D01*
X156991396Y-96452410D01*
X156874479Y-96734674D01*
X156704741Y-96988705D01*
X156488705Y-97204741D01*
X156421440Y-97249686D01*
X156234674Y-97374479D01*
X155952411Y-97491396D01*
X155852527Y-97511264D01*
X155652760Y-97551000D01*
X155347240Y-97551000D01*
X155147473Y-97511264D01*
X155047589Y-97491396D01*
X154765326Y-97374479D01*
X154578560Y-97249686D01*
X154511295Y-97204741D01*
X154295259Y-96988705D01*
X154125521Y-96734674D01*
X154008604Y-96452410D01*
X153949000Y-96152760D01*
X153949000Y-95847240D01*
X154008604Y-95547590D01*
X154125521Y-95265326D01*
X154295259Y-95011295D01*
X154511295Y-94795259D01*
X154765326Y-94625521D01*
X155047589Y-94508604D01*
X155147473Y-94488736D01*
X155347240Y-94449000D01*
X155652760Y-94449000D01*
X155852527Y-94488736D01*
X155852527Y-94488736D01*
G37*
G36*
X110602527Y-94488736D02*
G01*
X110702411Y-94508604D01*
X110984674Y-94625521D01*
X111238705Y-94795259D01*
X111454741Y-95011295D01*
X111624479Y-95265326D01*
X111741396Y-95547590D01*
X111801000Y-95847240D01*
X111801000Y-96152760D01*
X111741396Y-96452410D01*
X111624479Y-96734674D01*
X111454741Y-96988705D01*
X111238705Y-97204741D01*
X111171440Y-97249686D01*
X110984674Y-97374479D01*
X110702411Y-97491396D01*
X110602527Y-97511264D01*
X110402760Y-97551000D01*
X110097240Y-97551000D01*
X109897473Y-97511264D01*
X109797589Y-97491396D01*
X109515326Y-97374479D01*
X109328560Y-97249686D01*
X109261295Y-97204741D01*
X109045259Y-96988705D01*
X108875521Y-96734674D01*
X108758604Y-96452410D01*
X108699000Y-96152760D01*
X108699000Y-95847240D01*
X108758604Y-95547590D01*
X108875521Y-95265326D01*
X109045259Y-95011295D01*
X109261295Y-94795259D01*
X109515326Y-94625521D01*
X109797589Y-94508604D01*
X109897473Y-94488736D01*
X110097240Y-94449000D01*
X110402760Y-94449000D01*
X110602527Y-94488736D01*
X110602527Y-94488736D01*
G37*
G36*
X182852527Y-94238736D02*
G01*
X182952411Y-94258604D01*
X183234674Y-94375521D01*
X183488705Y-94545259D01*
X183704741Y-94761295D01*
X183874479Y-95015326D01*
X183991396Y-95297590D01*
X184051000Y-95597240D01*
X184051000Y-95902760D01*
X183991396Y-96202410D01*
X183874479Y-96484674D01*
X183704741Y-96738705D01*
X183488705Y-96954741D01*
X183242872Y-97119001D01*
X183234674Y-97124479D01*
X182952411Y-97241396D01*
X182852527Y-97261264D01*
X182652760Y-97301000D01*
X182347240Y-97301000D01*
X182147473Y-97261264D01*
X182047589Y-97241396D01*
X181765326Y-97124479D01*
X181757128Y-97119001D01*
X181511295Y-96954741D01*
X181295259Y-96738705D01*
X181125521Y-96484674D01*
X181008604Y-96202410D01*
X180949000Y-95902760D01*
X180949000Y-95597240D01*
X181008604Y-95297590D01*
X181125521Y-95015326D01*
X181295259Y-94761295D01*
X181511295Y-94545259D01*
X181765326Y-94375521D01*
X182047589Y-94258604D01*
X182147473Y-94238736D01*
X182347240Y-94199000D01*
X182652760Y-94199000D01*
X182852527Y-94238736D01*
X182852527Y-94238736D01*
G37*
G36*
X194602527Y-94238736D02*
G01*
X194702411Y-94258604D01*
X194984674Y-94375521D01*
X195238705Y-94545259D01*
X195454741Y-94761295D01*
X195624479Y-95015326D01*
X195741396Y-95297590D01*
X195801000Y-95597240D01*
X195801000Y-95902760D01*
X195741396Y-96202410D01*
X195624479Y-96484674D01*
X195454741Y-96738705D01*
X195238705Y-96954741D01*
X194992872Y-97119001D01*
X194984674Y-97124479D01*
X194702411Y-97241396D01*
X194602527Y-97261264D01*
X194402760Y-97301000D01*
X194097240Y-97301000D01*
X193897473Y-97261264D01*
X193797589Y-97241396D01*
X193515326Y-97124479D01*
X193507128Y-97119001D01*
X193261295Y-96954741D01*
X193045259Y-96738705D01*
X192875521Y-96484674D01*
X192758604Y-96202410D01*
X192699000Y-95902760D01*
X192699000Y-95597240D01*
X192758604Y-95297590D01*
X192875521Y-95015326D01*
X193045259Y-94761295D01*
X193261295Y-94545259D01*
X193515326Y-94375521D01*
X193797589Y-94258604D01*
X193897473Y-94238736D01*
X194097240Y-94199000D01*
X194402760Y-94199000D01*
X194602527Y-94238736D01*
X194602527Y-94238736D01*
G37*
G36*
X199852527Y-94238736D02*
G01*
X199952411Y-94258604D01*
X200234674Y-94375521D01*
X200488705Y-94545259D01*
X200704741Y-94761295D01*
X200874479Y-95015326D01*
X200991396Y-95297590D01*
X201051000Y-95597240D01*
X201051000Y-95902760D01*
X200991396Y-96202410D01*
X200874479Y-96484674D01*
X200704741Y-96738705D01*
X200488705Y-96954741D01*
X200242872Y-97119001D01*
X200234674Y-97124479D01*
X199952411Y-97241396D01*
X199852527Y-97261264D01*
X199652760Y-97301000D01*
X199347240Y-97301000D01*
X199147473Y-97261264D01*
X199047589Y-97241396D01*
X198765326Y-97124479D01*
X198757128Y-97119001D01*
X198511295Y-96954741D01*
X198295259Y-96738705D01*
X198125521Y-96484674D01*
X198008604Y-96202410D01*
X197949000Y-95902760D01*
X197949000Y-95597240D01*
X198008604Y-95297590D01*
X198125521Y-95015326D01*
X198295259Y-94761295D01*
X198511295Y-94545259D01*
X198765326Y-94375521D01*
X199047589Y-94258604D01*
X199147473Y-94238736D01*
X199347240Y-94199000D01*
X199652760Y-94199000D01*
X199852527Y-94238736D01*
X199852527Y-94238736D01*
G37*
G36*
X205602527Y-94238736D02*
G01*
X205702411Y-94258604D01*
X205984674Y-94375521D01*
X206238705Y-94545259D01*
X206454741Y-94761295D01*
X206624479Y-95015326D01*
X206741396Y-95297590D01*
X206801000Y-95597240D01*
X206801000Y-95902760D01*
X206741396Y-96202410D01*
X206624479Y-96484674D01*
X206454741Y-96738705D01*
X206238705Y-96954741D01*
X205992872Y-97119001D01*
X205984674Y-97124479D01*
X205702411Y-97241396D01*
X205602527Y-97261264D01*
X205402760Y-97301000D01*
X205097240Y-97301000D01*
X204897473Y-97261264D01*
X204797589Y-97241396D01*
X204515326Y-97124479D01*
X204507128Y-97119001D01*
X204261295Y-96954741D01*
X204045259Y-96738705D01*
X203875521Y-96484674D01*
X203758604Y-96202410D01*
X203699000Y-95902760D01*
X203699000Y-95597240D01*
X203758604Y-95297590D01*
X203875521Y-95015326D01*
X204045259Y-94761295D01*
X204261295Y-94545259D01*
X204515326Y-94375521D01*
X204797589Y-94258604D01*
X204897473Y-94238736D01*
X205097240Y-94199000D01*
X205402760Y-94199000D01*
X205602527Y-94238736D01*
X205602527Y-94238736D01*
G37*
G36*
X233102527Y-94238736D02*
G01*
X233202411Y-94258604D01*
X233484674Y-94375521D01*
X233738705Y-94545259D01*
X233954741Y-94761295D01*
X234124479Y-95015326D01*
X234241396Y-95297590D01*
X234301000Y-95597240D01*
X234301000Y-95902760D01*
X234241396Y-96202410D01*
X234124479Y-96484674D01*
X233954741Y-96738705D01*
X233738705Y-96954741D01*
X233492872Y-97119001D01*
X233484674Y-97124479D01*
X233202411Y-97241396D01*
X233102527Y-97261264D01*
X232902760Y-97301000D01*
X232597240Y-97301000D01*
X232397473Y-97261264D01*
X232297589Y-97241396D01*
X232015326Y-97124479D01*
X232007128Y-97119001D01*
X231761295Y-96954741D01*
X231545259Y-96738705D01*
X231375521Y-96484674D01*
X231258604Y-96202410D01*
X231199000Y-95902760D01*
X231199000Y-95597240D01*
X231258604Y-95297590D01*
X231375521Y-95015326D01*
X231545259Y-94761295D01*
X231761295Y-94545259D01*
X232015326Y-94375521D01*
X232297589Y-94258604D01*
X232397473Y-94238736D01*
X232597240Y-94199000D01*
X232902760Y-94199000D01*
X233102527Y-94238736D01*
X233102527Y-94238736D01*
G37*
M02*
