M48
; DRILL file {KiCad (5.1.4)-1} date 12.11.2019 21:59:55
; FORMAT={-:-/ absolute / metric / decimal}
; #@! TF.CreationDate,2019-11-12T21:59:55+01:00
; #@! TF.GenerationSoftware,Kicad,Pcbnew,(5.1.4)-1
; #@! TF.FileFunction,Plated,1,2,PTH
FMAT,2
METRIC
T1C0.200
T2C0.300
T3C0.400
T4C0.500
T5C0.800
T6C1.000
T7C1.016
T8C1.100
T9C1.600
T10C2.300
T11C3.200
%
G90
G05
T1
X84.25Y-108.25
X85.5Y-114.025
X86.0Y-105.0
X87.0Y-108.25
X87.0Y-114.25
X87.75Y-111.75
X88.5Y-108.25
X89.473Y-95.778
X89.5Y-106.0
X89.5Y-108.25
X90.25Y-108.25
X92.0Y-109.0
X92.1Y-108.0
X92.5Y-105.8
X92.5Y-111.5
X92.7Y-107.4
X95.1Y-107.4
X95.5Y-106.6
X95.5Y-104.725
X109.35Y-112.2
X110.575Y-105.369
X112.0Y-106.0
X113.3Y-104.8
X113.975Y-105.4
X151.25Y-108.0
X151.775Y-109.0
X162.5Y-99.3
X164.5Y-103.8
X164.75Y-99.3
T2
X70.25Y-105.25
X70.3Y-107.1
X75.6Y-96.6
X75.6Y-97.8
X75.6Y-99.0
X78.0Y-96.6
X78.0Y-97.8
X78.0Y-99.0
X80.6Y-96.6
X80.6Y-97.8
X80.6Y-99.0
X80.75Y-109.0
X80.75Y-110.6
X80.75Y-112.0
X83.3Y-104.2
X85.8Y-96.6
X85.8Y-97.8
X85.8Y-99.0
X88.2Y-96.6
X88.2Y-97.8
X88.2Y-99.0
X90.8Y-96.6
X90.8Y-97.8
X90.8Y-99.0
X92.5Y-102.0
X92.75Y-114.75
X94.25Y-113.0
X95.5Y-109.5
X96.0Y-99.75
X97.0Y-114.75
X98.5Y-112.25
X98.75Y-102.0
X99.0Y-109.5
X100.75Y-112.25
X100.75Y-114.75
X101.25Y-99.75
X104.0Y-99.75
X104.0Y-107.0
X104.0Y-113.0
X106.5Y-99.75
X106.5Y-107.0
X106.5Y-113.0
X109.0Y-107.0
X109.0Y-113.0
X109.25Y-99.75
X109.25Y-114.75
X111.25Y-106.75
X115.0Y-106.75
X120.0Y-113.0
X122.5Y-96.5
X122.5Y-110.5
X125.0Y-99.0
X125.0Y-113.0
X127.5Y-96.5
X127.5Y-106.0
X127.5Y-110.5
X130.0Y-99.0
X130.0Y-113.0
X132.5Y-96.5
X132.5Y-110.5
X133.0Y-106.0
X135.0Y-99.0
X135.0Y-113.0
X137.5Y-96.5
X137.5Y-110.5
X140.0Y-99.0
X140.0Y-113.0
X142.5Y-96.5
X142.5Y-110.5
X145.0Y-99.0
X146.6Y-110.8
X147.5Y-96.5
X150.0Y-99.0
X150.5Y-111.25
X152.5Y-96.5
X154.5Y-108.75
X154.5Y-110.75
X154.5Y-113.25
X159.0Y-95.0
X160.2Y-111.6
X161.401Y-108.599
X163.0Y-95.0
X163.8Y-101.5
X167.0Y-95.0
X167.25Y-98.25
X168.2Y-101.4
X168.25Y-98.5
X171.0Y-95.0
X175.0Y-95.0
X177.0Y-102.0
X177.0Y-103.25
X178.5Y-93.75
X178.5Y-104.75
X180.0Y-102.0
X180.0Y-103.25
X184.75Y-103.25
X189.25Y-101.75
X189.25Y-103.5
X190.75Y-93.75
X190.75Y-104.75
X192.25Y-101.75
X192.25Y-103.5
X206.6Y-109.6
X208.5Y-94.0
X215.0Y-103.2
X215.0Y-106.8
X215.0Y-111.2
X215.0Y-114.8
X215.2Y-96.6
X215.2Y-97.8
X215.2Y-99.0
X216.5Y-103.2
X216.5Y-106.8
X216.5Y-111.2
X216.5Y-114.8
X217.6Y-96.6
X217.6Y-97.8
X217.6Y-99.0
X218.0Y-103.2
X218.0Y-106.8
X218.0Y-111.2
X218.0Y-114.8
X219.0Y-104.5
X219.0Y-105.8
X219.0Y-112.5
X219.0Y-113.8
X220.2Y-96.6
X220.2Y-97.8
X220.2Y-99.0
X222.6Y-96.6
X222.6Y-97.8
X222.6Y-99.0
X223.3Y-113.0
X223.3Y-114.5
X223.3Y-116.0
X223.7Y-101.7
X224.8Y-112.2
X225.2Y-96.6
X225.2Y-97.8
X225.2Y-99.0
X226.2Y-112.2
X227.6Y-113.0
X227.6Y-114.5
X227.6Y-116.0
X234.7Y-113.0
X234.7Y-114.5
X234.7Y-116.0
X236.0Y-112.2
X237.5Y-112.2
X238.8Y-113.0
X238.8Y-114.5
X238.8Y-116.0
T3
X186.425Y-99.325
T4
X248.1Y-100.0
X248.803Y-98.303
X248.803Y-101.697
X250.5Y-97.6
X250.5Y-102.4
X252.197Y-98.303
X252.197Y-101.697
X252.9Y-100.0
X53.1Y-100.0
X53.803Y-98.303
X53.803Y-101.697
X55.5Y-97.6
X55.5Y-102.4
X57.197Y-98.303
X57.197Y-101.697
X57.9Y-100.0
T5
X163.2Y-105.6
X166.6Y-105.6
T6
X247.25Y-114.5
X249.75Y-114.5
X201.75Y-114.75
X204.25Y-114.75
X172.75Y-110.15
X172.75Y-113.35
X175.25Y-110.15
X175.25Y-113.35
X185.75Y-114.75
X188.25Y-114.75
T7
X56.17Y-110.46
X56.17Y-113.0
X58.71Y-110.46
X58.71Y-113.0
X61.25Y-110.46
X61.25Y-113.0
T8
X69.25Y-109.5
X69.25Y-114.0
X75.75Y-109.5
X75.75Y-114.0
T9
X199.5Y-95.75
X232.75Y-95.75
X182.5Y-95.75
X145.0Y-96.0
X155.5Y-96.0
X205.25Y-95.75
X114.5Y-96.0
X101.75Y-96.0
X69.0Y-96.0
X110.25Y-96.0
X194.25Y-95.75
X118.75Y-96.0
X97.5Y-96.0
X106.0Y-96.0
T10
X167.98Y-110.64
X180.02Y-110.64
T11
X250.5Y-100.0
X55.5Y-100.0
T0
M30
